<?xml version="1.0" standalone="no"?>
<!DOCTYPE svg PUBLIC "-//W3C//DTD SVG 20010904//EN"
 "http://www.w3.org/TR/2001/REC-SVG-20010904/DTD/svg10.dtd">
<svg version="1.0" xmlns="http://www.w3.org/2000/svg"
 width="482.000000pt" height="490.000000pt" viewBox="0 0 482.000000 490.000000"
 preserveAspectRatio="xMidYMid meet">

<g transform="translate(0.000000,490.000000) scale(0.100000,-0.100000)"
fill="#000000" stroke="none">
<path d="M675 4876 c-80 -37 -144 -128 -145 -206 -1 -34 -1 -35 -18 -15 -28
34 -65 55 -93 55 -15 0 -65 13 -112 29 -209 71 -237 41 -57 -62 52 -30 113
-63 136 -75 61 -31 92 -83 173 -289 17 -45 18 -54 6 -66 -7 -8 -18 -32 -24
-54 -11 -39 -13 -41 -72 -53 -62 -13 -109 -41 -109 -65 0 -21 19 -28 36 -14
11 9 18 9 26 1 8 -8 2 -21 -21 -48 -42 -47 -50 -71 -49 -140 2 -43 6 -58 18
-61 15 -4 40 -54 40 -80 0 -6 -22 -20 -49 -32 -53 -23 -161 -30 -161 -10 0 6
-13 9 -29 7 -37 -3 -81 35 -81 71 0 14 10 54 22 88 21 61 21 61 38 40 10 -12
25 -37 34 -54 9 -18 21 -33 26 -33 14 0 13 66 -1 92 -12 22 -1 19 31 -8 18
-15 60 -8 60 10 0 6 -7 20 -15 30 -10 13 -15 43 -15 87 0 66 -1 68 -28 71
l-27 3 22 20 c37 35 52 45 62 45 5 0 17 10 26 23 14 20 24 22 95 23 44 0 82 3
85 6 10 10 -160 20 -211 13 -52 -8 -99 -41 -115 -82 -13 -34 -29 -28 -29 11 0
18 -3 48 -6 65 -4 20 -3 31 5 31 6 0 11 -7 11 -16 0 -8 5 -12 11 -8 6 3 9 14
6 25 -6 24 65 49 139 49 59 0 191 -25 209 -40 13 -11 25 -3 25 16 0 23 -44 58
-132 108 -116 65 -172 123 -231 240 -27 53 -52 96 -57 96 -12 0 -22 -103 -14
-147 3 -21 26 -74 50 -117 25 -43 43 -79 42 -80 -43 -16 -123 -65 -148 -89
-47 -46 -61 -87 -59 -170 3 -106 14 -126 27 -50 6 33 23 85 39 114 27 53 28
53 31 24 2 -16 10 -58 18 -93 15 -66 11 -95 -23 -204 -15 -48 -26 -59 -37 -35
-3 6 -4 -19 -1 -58 4 -38 12 -76 19 -85 7 -8 19 -30 26 -48 7 -18 22 -40 34
-50 l21 -17 0 -1165 0 -1165 -21 -17 c-12 -10 -27 -32 -34 -50 -7 -18 -19 -40
-26 -48 -7 -9 -15 -47 -19 -85 -3 -39 -2 -64 1 -57 11 23 22 12 37 -35 34
-110 38 -139 23 -205 -8 -35 -16 -76 -18 -93 -3 -29 -4 -29 -31 24 -16 29 -33
81 -39 114 -13 76 -24 56 -27 -50 -2 -83 12 -124 59 -170 25 -24 105 -73 148
-89 1 -1 -17 -37 -42 -80 -24 -43 -47 -96 -50 -117 -8 -44 2 -147 14 -147 5 0
30 43 57 96 59 117 115 175 231 240 88 50 132 85 132 108 0 19 -12 27 -25 16
-18 -15 -150 -40 -209 -40 -74 0 -145 25 -139 49 3 11 0 22 -6 25 -6 4 -11 0
-11 -8 0 -9 -5 -16 -11 -16 -8 0 -9 11 -5 31 3 17 6 47 6 65 0 39 16 45 29 12
16 -42 63 -75 115 -83 51 -7 221 3 211 13 -3 3 -41 6 -85 6 -71 1 -81 3 -95
24 -9 12 -21 22 -26 22 -10 0 -25 10 -62 45 l-22 20 28 3 c26 3 27 5 27 71 0
44 5 74 15 87 8 10 15 24 15 30 0 18 -42 25 -60 10 -32 -27 -43 -30 -31 -8 14
26 15 92 1 92 -5 0 -17 -15 -26 -33 -9 -17 -24 -42 -34 -54 -17 -21 -17 -21
-38 40 -12 34 -22 74 -22 88 0 36 44 74 81 71 16 -2 29 1 29 7 0 20 108 13
161 -10 27 -12 49 -26 49 -32 0 -26 -25 -76 -40 -80 -12 -3 -16 -18 -18 -61
-1 -69 7 -93 49 -140 23 -27 29 -40 21 -48 -8 -8 -15 -8 -26 1 -17 14 -36 7
-36 -14 0 -24 47 -52 109 -65 59 -12 61 -14 72 -53 6 -22 17 -46 24 -54 12
-12 11 -21 -6 -66 -81 -206 -112 -258 -173 -289 -23 -12 -84 -45 -136 -75 -90
-52 -120 -76 -120 -96 0 -13 85 3 177 34 47 16 97 29 112 29 28 0 65 21 93 55
17 20 17 19 18 -15 1 -78 65 -169 145 -206 52 -25 133 -31 185 -14 20 6 14 8
-27 9 -34 1 -68 10 -102 28 -62 31 -55 45 23 49 48 2 59 -1 92 -27 40 -32 58
-31 29 1 -18 20 -17 20 9 20 15 0 36 -5 48 -11 11 -6 22 -8 25 -5 10 9 -26 43
-58 56 -16 7 -28 14 -26 16 2 3 25 -5 51 -16 53 -24 91 -19 83 10 -3 13 12 33
49 67 29 26 54 56 54 66 0 22 0 22 -75 -13 -35 -16 -79 -29 -97 -29 -18 1 -25
3 -16 6 13 3 16 12 12 31 -11 61 74 152 163 175 l52 14 17 -46 c12 -32 14 -46
6 -49 -19 -6 -14 -51 8 -64 16 -11 20 -24 20 -74 0 -59 -2 -63 -39 -97 -21
-19 -54 -38 -72 -42 -59 -11 -69 -16 -69 -30 0 -41 83 -18 146 42 26 23 52 43
58 43 7 0 17 5 23 11 15 15 2311 15 2326 0 6 -6 16 -11 23 -11 6 0 32 -20 58
-43 63 -60 146 -83 146 -42 0 14 -10 19 -69 30 -18 4 -51 23 -72 42 -37 34
-39 38 -39 97 0 50 4 63 20 74 22 13 27 58 8 64 -8 3 -6 17 6 49 l17 46 52
-14 c89 -23 174 -114 163 -175 -4 -19 -1 -28 12 -31 9 -3 2 -5 -16 -6 -18 0
-62 12 -97 29 -75 35 -75 35 -75 13 0 -10 25 -40 54 -66 37 -34 52 -54 49 -67
-8 -29 30 -34 83 -10 26 11 49 19 51 16 2 -2 -10 -9 -26 -16 -32 -13 -68 -47
-58 -56 3 -3 14 -1 25 5 12 6 33 11 48 11 26 0 27 0 9 -20 -29 -32 -11 -33 29
-1 33 26 44 29 92 27 78 -4 85 -18 23 -49 -34 -18 -68 -27 -102 -28 -41 -1
-47 -3 -27 -9 52 -17 133 -11 185 14 80 37 144 128 145 206 1 34 1 35 18 15
28 -34 65 -55 93 -55 15 0 65 -13 112 -29 209 -71 237 -41 57 62 -52 30 -113
63 -136 75 -61 31 -92 83 -173 289 -17 45 -18 54 -6 66 7 8 18 32 24 54 11 39
13 41 72 53 62 13 109 41 109 65 0 21 -19 28 -36 14 -11 -9 -18 -9 -26 -1 -8
8 -2 21 21 48 42 47 50 71 49 140 -2 43 -6 58 -18 61 -15 4 -40 54 -40 80 0 6
22 20 49 32 53 23 161 30 161 10 0 -6 13 -9 29 -7 37 3 81 -35 81 -71 0 -14
-10 -54 -22 -88 -21 -61 -21 -61 -38 -40 -10 12 -25 37 -34 55 -9 17 -21 32
-26 32 -14 0 -13 -66 1 -92 12 -22 1 -19 -31 8 -18 15 -60 8 -60 -10 0 -6 7
-20 15 -30 10 -13 15 -43 15 -87 0 -66 1 -68 28 -71 l27 -3 -22 -20 c-37 -35
-52 -45 -62 -45 -5 0 -17 -10 -26 -22 -14 -21 -24 -23 -95 -24 -44 0 -82 -3
-85 -6 -10 -10 160 -20 211 -13 52 8 99 41 115 83 13 33 29 27 29 -12 0 -18 3
-48 6 -65 4 -20 3 -31 -5 -31 -6 0 -11 7 -11 16 0 8 -5 12 -11 8 -6 -3 -9 -14
-6 -25 6 -24 -65 -49 -139 -49 -59 0 -191 25 -209 40 -13 11 -25 3 -25 -16 0
-23 44 -58 132 -108 116 -65 172 -123 231 -240 27 -53 52 -96 57 -96 12 0 22
103 14 147 -3 21 -26 74 -50 117 -25 43 -43 79 -42 80 43 16 123 65 148 89 47
46 61 87 59 170 -3 106 -14 126 -27 50 -6 -33 -23 -85 -39 -114 -27 -53 -28
-53 -31 -24 -2 17 -10 58 -18 93 -15 66 -11 95 23 205 15 47 26 58 37 35 3 -7
4 18 1 57 -4 38 -12 76 -19 85 -7 8 -19 30 -26 48 -7 18 -22 40 -34 50 l-21
17 0 1165 0 1165 21 17 c12 10 27 32 34 50 7 18 19 40 26 48 7 9 15 47 19 85
3 39 2 64 -1 58 -11 -24 -22 -13 -37 35 -34 109 -38 138 -23 204 8 35 16 77
18 93 3 29 4 29 31 -24 16 -29 33 -81 39 -114 13 -76 24 -56 27 50 2 83 -12
124 -59 170 -25 24 -105 73 -148 89 -1 1 17 37 42 80 24 43 47 96 50 117 8 44
-2 147 -14 147 -5 0 -30 -43 -57 -96 -59 -117 -115 -175 -231 -240 -88 -50
-132 -85 -132 -108 0 -19 12 -27 25 -16 18 15 150 40 209 40 74 0 145 -25 139
-49 -3 -11 0 -22 6 -25 6 -4 11 0 11 8 0 9 5 16 11 16 8 0 9 -11 5 -31 -3 -17
-6 -47 -6 -65 0 -39 -16 -45 -29 -11 -16 41 -63 74 -115 82 -51 7 -221 -3
-211 -13 3 -3 41 -6 85 -6 71 -1 81 -3 95 -23 9 -13 21 -23 26 -23 10 0 25
-10 62 -45 l22 -20 -27 -3 c-27 -3 -28 -5 -28 -71 0 -44 -5 -74 -15 -87 -8
-10 -15 -24 -15 -30 0 -18 42 -25 60 -10 32 27 43 30 31 8 -14 -26 -15 -92 -1
-92 5 0 17 15 26 33 9 17 24 42 34 54 17 21 17 21 38 -40 12 -34 22 -74 22
-88 0 -36 -44 -74 -81 -71 -16 2 -29 -1 -29 -7 0 -20 -108 -13 -161 10 -27 12
-49 26 -49 32 0 26 25 76 40 80 12 3 16 18 18 61 1 69 -7 93 -49 140 -23 27
-29 40 -21 48 8 8 15 8 26 -1 17 -14 36 -7 36 14 0 24 -47 52 -109 65 -59 12
-61 14 -72 53 -6 22 -17 46 -24 54 -12 12 -11 21 6 66 81 206 112 258 173 289
23 12 84 45 136 75 90 52 120 76 120 96 0 13 -85 -3 -177 -34 -47 -16 -97 -29
-112 -29 -28 0 -65 -21 -93 -55 -17 -20 -17 -19 -18 15 -1 78 -65 169 -145
206 -52 25 -133 31 -185 14 -20 -6 -14 -8 27 -9 34 -1 68 -10 102 -28 62 -31
55 -45 -23 -49 -48 -2 -59 1 -92 27 -40 32 -58 31 -29 -1 18 -20 17 -20 -9
-20 -15 0 -36 5 -48 11 -11 6 -22 8 -25 5 -10 -9 26 -43 58 -56 16 -7 28 -14
26 -16 -2 -3 -25 5 -51 16 -53 24 -91 19 -83 -10 3 -13 -12 -33 -49 -67 -29
-26 -54 -56 -54 -65 0 -23 0 -23 75 12 35 17 79 29 97 29 18 -1 25 -3 16 -6
-13 -3 -16 -12 -12 -31 11 -61 -74 -152 -163 -175 l-52 -14 -17 46 c-12 32
-14 46 -6 49 19 6 14 51 -8 64 -16 11 -20 24 -20 74 0 59 2 63 39 97 21 19 54
38 72 42 59 11 69 16 69 30 0 41 -83 18 -146 -42 -26 -23 -52 -43 -58 -43 -7
0 -17 -5 -23 -11 -7 -7 -351 -11 -1163 -11 -812 0 -1156 4 -1163 11 -6 6 -16
11 -23 11 -6 0 -32 20 -58 43 -63 60 -146 83 -146 42 0 -14 10 -19 69 -30 18
-4 51 -23 72 -42 37 -34 39 -38 39 -97 0 -50 -4 -63 -20 -74 -22 -13 -27 -58
-8 -64 8 -3 6 -17 -6 -49 l-17 -46 -52 14 c-89 23 -174 114 -163 175 4 19 1
28 -12 31 -9 3 -2 5 16 6 18 0 62 -12 97 -29 75 -35 75 -35 75 -12 0 9 -25 39
-54 65 -37 34 -52 54 -49 67 8 29 -30 34 -83 10 -26 -11 -49 -19 -51 -16 -2 2
10 9 26 16 32 13 68 47 58 56 -3 3 -14 1 -25 -5 -12 -6 -33 -11 -48 -11 -26 0
-27 0 -9 20 29 32 11 33 -29 1 -33 -26 -44 -29 -92 -27 -78 4 -85 18 -23 49
34 18 68 27 102 28 41 1 47 3 27 9 -52 17 -133 11 -185 -14z m78 -132 c15 -1
29 -2 32 -3 3 0 -2 -12 -11 -26 -9 -14 -50 -41 -90 -60 -41 -20 -74 -40 -74
-46 0 -6 6 -9 13 -6 6 2 56 19 110 37 l98 33 36 -38 36 -37 -39 -39 c-36 -37
-41 -39 -101 -39 -68 0 -80 -11 -34 -30 62 -25 78 -73 23 -68 -21 2 -26 -1
-24 -15 3 -16 -2 -17 -32 -11 -29 5 -36 3 -36 -10 0 -9 3 -16 8 -16 4 -1 25
-16 47 -35 35 -30 37 -35 18 -35 -12 0 -28 7 -37 15 -8 8 -19 15 -24 15 -18 0
-20 -40 -4 -60 20 -22 171 -100 196 -100 12 0 16 -6 12 -17 -21 -72 -17 -139
11 -182 1 -2 30 -5 65 -8 83 -5 117 -26 151 -92 26 -53 33 -94 21 -137 -5 -20
-6 -20 -67 9 -73 33 -165 125 -204 202 -53 104 -105 149 -211 182 -40 13 -51
20 -46 32 36 89 37 97 15 206 -28 136 -28 238 0 307 12 29 23 60 24 68 2 8 4
17 4 18 1 2 20 0 44 -4 23 -4 54 -9 70 -10z m3433 -4 c1 -8 11 -39 23 -68 28
-69 28 -171 0 -307 -22 -109 -21 -117 15 -206 5 -12 -6 -19 -46 -32 -106 -33
-158 -78 -211 -182 -39 -77 -131 -169 -204 -202 -61 -29 -62 -29 -67 -9 -12
43 -5 84 22 137 33 66 67 87 150 92 35 3 64 6 65 8 28 43 32 110 11 182 -4 11
0 17 12 17 25 0 176 78 196 100 16 20 14 60 -4 60 -5 0 -16 -7 -24 -15 -9 -8
-25 -15 -37 -15 -19 0 -17 5 18 35 22 19 43 34 48 35 4 0 7 7 7 16 0 13 -7 15
-36 10 -30 -6 -35 -5 -32 11 2 14 -3 17 -24 15 -55 -5 -39 43 23 68 46 19 34
30 -34 30 -60 0 -65 2 -101 39 l-39 39 36 37 36 38 98 -33 c54 -18 104 -35
111 -37 6 -3 12 0 12 6 0 6 -33 26 -74 46 -40 19 -81 46 -90 59 -16 25 -9 40
16 31 7 -2 29 0 48 4 47 12 73 9 76 -9z m-666 -120 c0 -35 54 -184 80 -220 19
-26 20 -34 10 -65 -6 -19 -17 -35 -23 -35 -6 0 -21 -9 -33 -21 l-23 -21 -65
48 c-36 27 -84 60 -105 73 -22 14 -38 28 -35 32 2 4 -7 16 -21 27 -23 18 -24
21 -8 25 12 3 8 5 -9 6 -16 0 -28 -4 -28 -9 0 -21 -134 33 -175 70 -18 17 -28
18 -95 9 -113 -16 -177 -35 -267 -79 -98 -48 -178 -119 -218 -192 -26 -46 -30
-63 -30 -128 0 -62 6 -86 28 -132 45 -91 139 -162 249 -188 55 -12 140 -13
172 0 17 6 26 6 26 0 0 -6 6 -10 14 -10 19 0 106 102 106 124 0 21 -15 20 -37
-3 -44 -46 -151 -68 -228 -47 -142 38 -212 114 -223 243 -4 57 -1 70 27 126
35 69 86 111 182 149 45 18 81 22 208 26 111 3 152 1 147 -7 -5 -7 1 -11 14
-11 12 0 65 -27 118 -60 126 -79 115 -73 204 -113 64 -29 76 -39 71 -55 -5
-21 41 -66 61 -59 6 2 11 26 12 53 1 60 35 186 52 192 7 2 37 -21 67 -52 35
-35 64 -56 78 -56 12 0 33 -7 45 -16 19 -13 22 -24 22 -92 0 -47 6 -88 14
-104 14 -26 5 -41 -9 -18 -9 15 -118 12 -158 -5 -46 -19 -45 -20 -49 11 -4 33
-74 71 -263 143 -99 37 -157 53 -245 65 -140 19 -299 25 -300 11 0 -5 14 -13
32 -16 l33 -6 -35 -3 c-19 -2 -45 -2 -57 -1 -18 1 -23 -3 -23 -22 0 -30 10
-40 27 -26 10 9 13 8 13 -4 0 -9 16 -32 35 -51 36 -36 38 -58 7 -83 -21 -17
-48 -16 -99 3 -35 14 -45 23 -53 53 -15 53 4 108 55 158 24 25 56 46 74 49 46
10 48 24 4 24 -44 0 -116 -41 -151 -85 -95 -121 63 -330 197 -260 17 8 38 34
51 60 21 44 21 47 5 73 -10 15 -29 39 -43 55 l-26 27 47 0 c26 0 64 -7 85 -16
20 -8 75 -26 122 -39 47 -13 162 -57 255 -97 l170 -74 7 -64 c4 -36 11 -79 16
-96 11 -35 7 -43 -27 -62 -17 -10 -44 -12 -101 -7 -43 4 -88 4 -99 0 -32 -10
-25 -32 14 -45 41 -14 42 -16 14 -46 -24 -25 -20 -54 7 -54 9 0 38 13 63 28
25 16 66 36 91 46 25 10 50 20 57 23 7 3 4 -20 -9 -61 -11 -37 -17 -76 -14
-89 7 -24 70 -77 93 -77 16 0 17 32 1 49 -11 10 -10 14 2 21 13 7 14 22 10 74
-3 36 -5 66 -5 66 0 0 16 -4 35 -10 41 -12 127 12 137 37 4 10 13 -5 23 -38
10 -30 35 -99 56 -154 77 -205 97 -271 100 -334 3 -63 2 -67 -37 -117 -22 -29
-45 -54 -52 -57 -21 -8 -55 11 -78 42 -26 35 -34 38 -43 15 -9 -23 17 -73 67
-132 25 -28 49 -61 52 -72 3 -11 11 -20 16 -20 5 0 9 -9 9 -19 0 -25 18 -37
33 -22 6 6 22 11 34 11 13 0 34 7 48 16 40 26 94 115 106 175 12 58 8 75 -37
162 -8 16 -14 39 -14 52 0 67 -72 313 -136 462 -51 120 -55 169 -21 253 19 49
28 58 76 83 65 32 97 35 106 7 11 -35 -6 -94 -38 -127 l-31 -33 38 0 c54 0
155 -65 155 -100 1 -35 -23 -67 -69 -90 -31 -16 -44 -18 -69 -9 -17 6 -31 17
-31 24 0 21 -19 28 -35 15 -25 -21 -17 -63 25 -125 23 -33 47 -75 55 -93 8
-18 35 -63 59 -100 25 -37 57 -98 72 -137 24 -64 26 -79 21 -175 -11 -226
-100 -370 -245 -401 -112 -23 -208 24 -234 115 -6 22 -12 68 -12 101 -1 70
-21 82 -42 25 l-12 -35 -3 50 c-5 87 0 118 27 158 31 47 26 59 -10 20 -51 -55
-59 -87 -53 -202 3 -58 13 -126 22 -151 59 -165 216 -236 369 -167 80 37 178
139 234 245 33 62 48 107 64 189 11 60 31 140 44 180 30 88 31 152 5 184 l-20
24 -14 -35 c-9 -19 -18 -53 -22 -75 -3 -22 -8 -51 -11 -65 -5 -24 -6 -24 -17
-5 -6 11 -23 48 -37 83 -16 38 -51 92 -91 140 -55 64 -64 80 -53 90 17 16 18
52 2 52 -7 0 3 10 22 21 19 12 45 33 56 47 l22 27 44 -32 c44 -32 98 -56 150
-67 l28 -6 0 -1130 0 -1130 -28 -6 c-52 -11 -106 -35 -150 -67 l-44 -32 -22
27 c-11 14 -37 35 -56 47 -19 11 -29 21 -22 21 16 0 15 36 -2 52 -11 10 -2 26
53 90 40 48 75 102 91 140 14 35 31 72 37 83 11 19 12 19 17 -5 3 -14 8 -43
11 -65 4 -22 13 -56 22 -75 l14 -35 20 24 c26 32 25 96 -5 184 -13 40 -33 120
-44 180 -16 82 -31 127 -64 189 -56 106 -154 208 -234 245 -153 69 -310 -2
-369 -167 -9 -25 -19 -93 -22 -151 -6 -115 2 -147 53 -202 36 -39 41 -27 10
20 -27 40 -32 71 -27 158 l3 50 12 -35 c21 -57 41 -45 42 25 0 33 6 79 12 101
26 91 122 138 234 115 145 -31 234 -175 245 -401 5 -96 3 -111 -21 -175 -15
-38 -47 -100 -72 -137 -24 -37 -51 -82 -59 -100 -8 -18 -32 -60 -55 -93 -42
-62 -50 -104 -25 -125 16 -13 35 -6 35 15 0 7 14 18 31 24 56 19 140 -40 138
-99 0 -35 -101 -100 -155 -100 l-38 0 31 -32 c32 -34 49 -93 38 -128 -9 -28
-41 -25 -106 8 -48 24 -57 33 -76 82 -34 84 -30 133 21 253 64 149 136 395
136 462 0 13 6 36 14 52 45 87 49 104 37 162 -12 60 -66 149 -106 175 -14 9
-35 16 -48 16 -12 0 -28 5 -34 11 -15 15 -33 3 -33 -22 0 -10 -4 -19 -9 -19
-5 0 -13 -9 -16 -20 -3 -11 -27 -44 -52 -72 -50 -59 -76 -109 -67 -132 9 -23
17 -20 43 15 23 31 57 50 78 42 7 -3 30 -28 52 -57 39 -50 40 -54 37 -117 -3
-63 -23 -129 -100 -334 -21 -55 -46 -124 -56 -154 -10 -33 -19 -48 -23 -38
-10 25 -96 49 -137 37 -19 -6 -35 -10 -35 -10 0 0 2 30 5 66 4 52 3 67 -10 74
-12 7 -13 11 -3 21 17 17 16 49 0 49 -23 0 -86 -53 -93 -77 -3 -13 3 -52 14
-89 13 -41 16 -64 9 -61 -7 3 -32 13 -57 23 -25 10 -66 30 -91 46 -25 15 -54
28 -63 28 -27 0 -31 -29 -7 -54 28 -30 27 -32 -14 -46 -39 -13 -46 -35 -14
-45 11 -4 56 -4 99 0 57 5 84 3 101 -7 34 -19 38 -27 27 -62 -5 -17 -12 -60
-16 -96 l-7 -64 -170 -74 c-93 -40 -208 -84 -255 -97 -47 -13 -102 -31 -122
-39 -21 -9 -59 -16 -85 -16 l-47 0 26 28 c14 15 33 39 43 54 16 26 16 29 -5
73 -13 26 -34 52 -51 60 -134 70 -292 -139 -197 -260 35 -44 107 -85 151 -85
44 0 42 14 -4 24 -18 3 -50 24 -74 49 -51 50 -69 104 -55 158 8 30 17 39 53
53 51 19 78 20 99 3 31 -25 29 -47 -7 -83 -19 -19 -35 -42 -35 -51 0 -12 -3
-13 -13 -4 -17 14 -27 4 -27 -26 0 -19 5 -23 23 -22 12 1 38 1 57 -1 l35 -3
-33 -6 c-65 -12 -27 -26 63 -23 174 5 309 30 450 83 189 72 259 110 263 143 4
31 3 30 49 11 40 -17 149 -20 158 -5 14 23 23 8 9 -17 -8 -17 -14 -58 -14
-105 0 -68 -3 -79 -22 -92 -12 -9 -33 -16 -45 -16 -14 0 -43 -21 -78 -56 -30
-31 -60 -54 -67 -52 -17 6 -51 132 -52 192 -1 27 -6 51 -12 53 -20 7 -66 -38
-61 -59 5 -16 -7 -26 -71 -55 -89 -40 -78 -34 -204 -113 -53 -33 -106 -60
-118 -60 -13 0 -19 -4 -14 -11 5 -8 -36 -10 -147 -7 -127 4 -163 8 -208 26
-96 38 -147 80 -182 149 -28 56 -31 69 -27 126 11 128 81 206 223 243 77 21
184 -1 228 -47 22 -23 37 -24 37 -3 0 22 -87 124 -106 124 -8 0 -14 -4 -14
-10 0 -6 -9 -6 -26 0 -32 13 -117 12 -172 0 -110 -26 -204 -97 -249 -188 -22
-46 -28 -70 -28 -132 0 -65 4 -82 30 -128 40 -73 120 -144 218 -192 90 -44
154 -63 267 -79 67 -9 77 -8 95 9 41 37 175 91 175 70 0 -5 12 -9 28 -9 17 1
21 3 9 6 -16 4 -15 7 8 25 14 11 23 23 21 27 -3 4 13 18 35 32 21 13 69 46
105 73 l65 48 23 -21 c12 -12 27 -21 33 -21 6 0 17 -16 23 -35 10 -31 9 -39
-10 -65 -26 -36 -80 -185 -80 -220 l0 -25 -1110 0 -1110 0 0 25 c0 35 -54 184
-80 220 -19 26 -20 34 -10 65 6 19 17 35 23 35 6 0 21 9 33 21 l23 21 65 -48
c36 -27 84 -60 105 -73 22 -14 38 -28 35 -32 -2 -4 7 -16 21 -27 23 -18 24
-21 8 -25 -12 -3 -8 -5 10 -6 15 0 27 4 27 9 0 21 134 -33 175 -70 18 -17 28
-18 95 -9 113 16 177 35 267 79 98 48 178 119 218 192 26 46 30 63 30 128 0
62 -6 86 -28 132 -45 91 -139 162 -249 188 -55 12 -140 13 -172 0 -17 -6 -26
-6 -26 0 0 6 -6 10 -14 10 -19 0 -106 -102 -106 -124 0 -21 15 -20 37 3 44 46
151 68 228 47 142 -37 212 -115 223 -243 4 -57 1 -70 -27 -126 -35 -69 -86
-111 -182 -149 -45 -18 -81 -22 -208 -26 -111 -3 -152 -1 -147 7 5 7 -1 11
-14 11 -12 0 -65 27 -118 60 -126 79 -115 73 -204 113 -64 29 -76 39 -71 55 5
21 -41 66 -61 59 -6 -2 -11 -26 -12 -53 -1 -60 -35 -186 -52 -192 -7 -2 -37
21 -67 52 -35 35 -64 56 -78 56 -12 0 -33 7 -45 16 -19 13 -22 24 -22 92 0 47
-6 88 -14 105 -14 25 -5 40 9 17 9 -15 118 -12 158 5 46 19 45 20 49 -11 4
-33 74 -71 263 -143 99 -37 157 -53 245 -65 140 -19 299 -25 300 -11 0 6 -14
13 -32 16 l-33 6 35 3 c19 2 45 2 58 1 17 -1 22 3 22 22 0 30 -10 40 -27 26
-10 -9 -13 -8 -13 4 0 9 -16 32 -35 51 -36 36 -38 58 -7 83 21 17 48 16 99 -3
35 -14 45 -23 53 -53 15 -53 -4 -108 -55 -158 -24 -25 -56 -46 -74 -49 -46
-10 -48 -24 -4 -24 44 0 116 41 151 85 95 121 -63 330 -197 260 -17 -8 -38
-34 -51 -60 -21 -44 -21 -47 -5 -73 10 -15 29 -39 43 -54 l26 -28 -47 0 c-26
0 -64 7 -85 16 -20 8 -75 26 -122 39 -47 13 -162 57 -255 97 l-170 74 -7 64
c-4 36 -11 79 -16 96 -11 35 -7 43 27 62 17 10 44 12 101 7 43 -4 88 -4 99 0
32 10 25 32 -14 45 -41 14 -42 16 -14 46 24 25 20 54 -7 54 -9 0 -38 -13 -63
-28 -25 -16 -66 -36 -91 -46 -25 -10 -50 -20 -57 -23 -7 -3 -4 20 9 61 11 37
17 76 14 89 -7 24 -70 77 -93 77 -16 0 -17 -32 0 -49 10 -10 9 -14 -3 -21 -13
-7 -14 -22 -10 -74 3 -36 5 -66 5 -66 0 0 -16 4 -35 10 -41 12 -127 -12 -137
-37 -4 -10 -13 5 -23 38 -10 30 -35 99 -56 154 -77 205 -97 271 -100 334 -3
63 -2 67 37 117 22 29 45 54 52 57 21 8 55 -11 78 -42 26 -35 34 -38 43 -15 9
23 -17 73 -67 132 -25 28 -49 61 -52 72 -3 11 -11 20 -16 20 -5 0 -9 9 -9 19
0 25 -18 37 -33 22 -6 -6 -22 -11 -34 -11 -13 0 -34 -7 -48 -16 -40 -26 -94
-115 -106 -175 -12 -58 -8 -75 37 -162 8 -16 14 -39 14 -52 0 -67 72 -313 136
-462 51 -120 55 -169 21 -253 -19 -49 -28 -58 -76 -82 -65 -33 -97 -36 -106
-8 -11 35 6 94 38 128 l31 32 -38 0 c-54 0 -155 65 -155 100 -1 35 23 67 69
90 31 16 44 18 69 9 17 -6 31 -17 31 -24 0 -21 19 -28 35 -15 25 21 17 63 -25
125 -23 33 -47 75 -55 93 -8 18 -35 63 -59 100 -25 37 -57 99 -72 137 -24 64
-26 79 -21 175 11 226 100 370 245 401 112 23 208 -24 234 -115 6 -22 12 -68
12 -101 1 -70 21 -82 42 -25 l12 35 3 -50 c5 -87 0 -118 -27 -158 -31 -47 -26
-59 10 -20 51 55 59 87 53 202 -3 58 -13 126 -22 151 -59 165 -216 236 -369
167 -80 -37 -178 -139 -234 -245 -33 -62 -48 -107 -64 -189 -11 -60 -31 -140
-44 -180 -30 -88 -31 -152 -5 -184 l20 -24 14 35 c9 19 18 53 22 75 3 22 8 51
11 65 5 24 6 24 17 5 6 -11 23 -48 37 -83 16 -38 51 -92 91 -140 55 -64 64
-80 53 -90 -17 -16 -18 -52 -1 -52 6 0 -4 -10 -23 -21 -19 -12 -45 -33 -56
-47 l-22 -27 -44 32 c-44 32 -98 56 -150 67 l-28 6 0 1130 0 1130 28 6 c52 11
106 35 150 67 l44 32 22 -27 c11 -14 37 -35 56 -47 19 -11 29 -21 23 -21 -17
0 -16 -36 1 -52 11 -10 2 -26 -53 -90 -40 -48 -75 -102 -91 -140 -14 -35 -31
-72 -37 -83 -11 -19 -12 -19 -17 5 -3 14 -8 43 -11 65 -4 22 -13 56 -22 75
l-14 35 -20 -24 c-26 -32 -25 -96 5 -184 13 -40 33 -120 44 -180 16 -82 31
-127 64 -189 56 -106 154 -208 234 -245 153 -69 310 2 369 167 9 25 19 93 22
151 6 115 -2 147 -53 202 -36 39 -41 27 -10 -20 27 -40 32 -71 27 -158 l-3
-50 -12 35 c-21 57 -41 45 -42 -25 0 -33 -6 -79 -12 -101 -26 -91 -122 -138
-234 -115 -145 31 -234 175 -245 401 -5 96 -3 111 21 175 15 39 47 100 72 137
24 37 51 82 59 100 8 18 32 60 55 93 42 62 50 104 25 125 -16 13 -35 6 -35
-15 0 -7 -14 -18 -31 -24 -56 -19 -140 40 -138 99 0 35 101 100 155 100 l38 0
-31 33 c-32 33 -49 92 -38 127 9 28 41 25 106 -7 48 -25 57 -34 76 -83 34 -84
30 -133 -21 -253 -64 -149 -136 -395 -136 -462 0 -13 -6 -36 -14 -52 -45 -87
-49 -104 -37 -162 12 -60 66 -149 106 -175 14 -9 35 -16 48 -16 12 0 28 -5 34
-11 15 -15 33 -3 33 22 0 10 4 19 9 19 5 0 13 9 16 20 3 11 27 44 52 72 50 59
76 109 67 132 -9 23 -17 20 -43 -15 -23 -31 -57 -50 -78 -42 -7 3 -30 28 -52
57 -39 50 -40 54 -37 117 3 63 23 129 100 334 21 55 46 124 56 154 10 33 19
48 23 38 10 -25 96 -49 137 -37 19 6 35 10 35 10 0 0 -2 -30 -5 -66 -4 -52 -3
-67 10 -74 12 -7 13 -11 3 -21 -17 -17 -16 -49 0 -49 23 0 86 53 93 77 3 13
-3 52 -14 89 -13 41 -16 64 -9 61 7 -3 32 -13 57 -23 25 -10 66 -30 91 -46 25
-15 54 -28 63 -28 27 0 31 29 7 54 -28 30 -27 32 14 46 39 13 46 35 14 45 -11
4 -56 4 -99 0 -57 -5 -84 -3 -101 7 -34 19 -38 27 -27 62 5 17 12 60 16 96 l7
64 170 74 c93 40 208 84 255 97 47 13 102 31 122 39 21 9 59 16 85 16 l47 0
-26 -27 c-14 -16 -33 -40 -43 -55 -16 -26 -16 -29 5 -73 13 -26 34 -52 51 -60
134 -70 292 139 197 260 -35 44 -107 85 -151 85 -44 0 -42 -14 4 -24 18 -3 50
-24 74 -49 51 -50 69 -104 55 -158 -8 -30 -17 -39 -53 -53 -51 -19 -78 -20
-99 -3 -31 25 -29 47 7 83 19 19 35 42 35 51 0 12 3 13 13 4 17 -14 27 -4 27
26 0 19 -5 23 -22 22 -13 -1 -39 -1 -58 1 l-35 3 33 6 c65 12 27 26 -63 23
-174 -5 -309 -30 -450 -83 -189 -72 -259 -110 -263 -143 -4 -31 -3 -30 -49
-11 -40 17 -149 20 -158 5 -14 -23 -23 -8 -9 18 8 16 14 57 14 104 0 68 3 79
22 92 12 9 33 16 45 16 14 0 43 21 78 56 30 31 60 54 67 52 17 -6 51 -132 52
-192 1 -27 6 -51 12 -53 20 -7 66 38 61 59 -5 16 7 26 71 55 89 40 78 34 204
113 53 33 106 60 118 60 13 0 19 4 14 11 -5 8 36 10 147 7 127 -4 163 -8 208
-26 96 -38 147 -80 182 -149 28 -56 31 -69 27 -126 -11 -129 -81 -205 -223
-243 -77 -21 -184 1 -228 47 -22 23 -37 24 -37 3 0 -22 87 -124 106 -124 8 0
14 4 14 10 0 6 9 6 26 0 32 -13 117 -12 172 0 110 26 204 97 249 188 22 46 28
70 28 132 0 65 -4 82 -30 128 -40 73 -120 144 -218 192 -90 44 -154 63 -267
79 -67 9 -77 8 -95 -9 -41 -37 -175 -91 -175 -70 0 5 -12 9 -27 9 -18 -1 -22
-3 -10 -6 16 -4 15 -7 -8 -25 -14 -11 -23 -23 -21 -27 3 -4 -13 -18 -35 -32
-21 -13 -69 -46 -105 -73 l-65 -48 -23 21 c-12 12 -27 21 -33 21 -6 0 -17 16
-23 35 -10 31 -9 39 10 65 26 36 80 185 80 220 l0 25 1110 0 1110 0 0 -25z
m-2520 -210 l25 -19 -29 -30 c-51 -54 -116 -49 -116 9 0 23 -4 28 -17 24 -16
-5 -15 -4 1 10 14 11 23 13 32 5 8 -7 14 -7 19 1 4 6 13 9 21 6 8 -3 14 -1 14
4 0 16 23 11 50 -10z m2870 10 c0 -5 6 -7 14 -4 8 3 17 0 21 -6 5 -8 11 -8 19
-1 9 8 18 6 32 -5 16 -14 17 -15 2 -10 -14 4 -18 -1 -18 -24 0 -58 -65 -63
-116 -9 l-29 30 25 19 c27 21 50 26 50 10z m-2990 -92 c0 -5 8 -8 17 -8 12 0
14 -3 6 -11 -14 -14 -70 -2 -77 16 -4 10 3 14 24 12 17 -1 30 -5 30 -9z m3114
-3 c-7 -18 -63 -30 -77 -16 -8 8 -6 11 6 11 9 0 17 3 17 8 0 4 13 8 30 9 21 2
28 -2 24 -12z m-3467 -317 c6 -7 13 -26 17 -42 13 -55 -78 -114 -113 -73 -13
16 -2 61 24 101 18 28 56 35 72 14z m3838 -14 c26 -40 37 -85 24 -101 -19 -22
-63 -15 -93 16 -22 23 -26 34 -20 57 4 16 11 35 17 42 16 21 54 14 72 -14z
m-3649 -930 c19 -15 34 -31 34 -37 0 -7 -4 -7 -12 1 -7 7 -15 12 -20 12 -12 0
4 -63 20 -80 17 -16 51 -89 52 -107 0 -15 -31 -5 -45 14 -6 8 -21 19 -34 26
-13 7 -33 24 -44 38 -15 22 -17 30 -8 48 10 17 9 25 -4 37 -17 17 -17 20 -9
52 8 29 28 28 70 -4z m3454 19 c0 -5 3 -17 6 -29 3 -13 -1 -28 -11 -37 -13
-13 -14 -21 -4 -38 9 -18 7 -26 -8 -48 -11 -14 -31 -31 -44 -38 -13 -7 -28
-18 -34 -26 -14 -19 -45 -29 -45 -14 1 18 35 91 52 107 16 17 32 80 20 80 -5
0 -13 -5 -20 -12 -7 -7 -12 -8 -12 -2 0 14 63 63 83 64 9 0 17 -3 17 -7z
m-3327 -161 c2 -4 -2 -17 -8 -30 -12 -22 -13 -22 -23 17 -9 38 -8 40 9 31 10
-6 20 -13 22 -18z m3165 -12 c-10 -40 -11 -40 -23 -18 -11 20 -10 25 7 41 11
9 21 17 23 17 2 0 -2 -18 -7 -40z m-3232 -903 c-9 -24 -25 -52 -34 -63 -19
-20 -37 -84 -24 -84 5 0 13 5 20 12 8 8 12 8 12 1 0 -26 -100 -81 -100 -55 0
4 -3 16 -6 28 -3 13 1 28 11 37 13 13 14 21 4 38 -9 18 -7 26 8 48 11 14 31
31 44 38 13 7 28 18 34 26 10 14 37 27 44 21 2 -2 -4 -23 -13 -47z m3299 26
c6 -8 21 -19 34 -26 13 -7 33 -24 44 -38 15 -22 17 -30 8 -48 -10 -17 -9 -25
4 -38 10 -9 14 -24 11 -37 -3 -12 -6 -24 -6 -28 0 -26 -100 29 -100 55 0 7 4
7 12 -1 7 -7 15 -12 20 -12 12 0 -4 63 -20 80 -17 16 -51 89 -52 107 0 15 31
5 45 -14z m-3232 -55 c-2 -5 -12 -12 -22 -18 -17 -9 -18 -7 -9 31 10 39 11 39
23 17 6 -13 10 -26 8 -30z m3165 9 c11 -38 11 -39 -11 -24 -12 8 -21 16 -19
18 1 2 5 14 9 27 7 28 8 27 21 -21z m-2879 -868 c1 -48 -46 -139 -84 -161 -17
-9 -59 -19 -93 -21 -35 -3 -64 -6 -65 -8 -28 -43 -32 -110 -11 -181 4 -12 0
-18 -12 -18 -25 0 -176 -78 -196 -100 -16 -20 -14 -60 4 -60 5 0 16 7 24 15 9
8 25 15 37 15 19 0 17 -5 -18 -35 -22 -19 -43 -34 -47 -35 -5 0 -8 -7 -8 -16
0 -13 7 -15 36 -10 30 6 35 5 32 -11 -2 -14 3 -17 24 -15 55 5 39 -43 -23 -68
-46 -19 -34 -30 34 -30 60 0 65 -2 101 -39 l39 -39 -36 -37 -36 -38 -98 33
c-54 18 -104 35 -110 37 -7 3 -13 0 -13 -6 0 -6 33 -26 74 -46 40 -19 81 -46
90 -60 9 -14 15 -25 14 -26 -5 -1 -92 -10 -122 -12 -19 -1 -30 3 -31 13 -2 8
-12 39 -24 68 -28 69 -28 171 0 307 22 109 21 117 -15 206 -5 12 6 19 46 32
106 33 158 78 211 182 39 78 127 165 199 200 70 33 76 31 77 -36z m2754 -52
c32 -34 70 -84 84 -112 53 -104 105 -149 211 -182 40 -13 51 -20 46 -32 -36
-89 -37 -97 -15 -206 28 -136 28 -238 0 -307 -12 -29 -22 -60 -24 -68 -1 -10
-12 -14 -31 -13 -30 2 -117 11 -122 12 -1 1 5 12 14 26 9 14 50 41 90 60 41
20 74 40 74 46 0 6 -6 9 -12 6 -7 -2 -57 -19 -111 -37 l-98 -33 -36 38 -36 37
39 39 c36 37 41 39 101 39 68 0 80 11 34 30 -62 25 -78 73 -23 68 21 -2 26 1
24 15 -3 16 2 17 32 11 29 -5 36 -3 36 10 0 9 -3 16 -7 16 -5 1 -26 16 -48 35
-35 30 -37 35 -18 35 12 0 28 -7 37 -15 8 -8 19 -15 24 -15 18 0 20 40 4 60
-20 22 -171 100 -196 100 -12 0 -16 6 -12 18 21 71 17 138 -11 181 -1 2 -30 5
-65 8 -83 5 -117 26 -150 92 -27 53 -34 94 -22 137 5 20 6 20 67 -9 42 -19 81
-49 120 -90z m-3359 -76 c22 -23 26 -34 20 -57 -20 -85 -87 -68 -115 29 -17
61 46 80 95 28z m3865 16 c23 -29 -26 -127 -64 -127 -27 0 -40 14 -49 54 -13
55 78 114 113 73z m-3484 -417 c3 -5 -1 -10 -9 -10 -9 0 -16 -3 -16 -7 0 -5
-13 -9 -30 -10 -21 -2 -28 2 -24 12 9 22 68 33 79 15z m3062 4 c35 -10 37 -33
3 -31 -17 1 -30 5 -30 10 0 4 -7 7 -16 7 -8 0 -12 5 -9 10 7 11 20 12 52 4z
m-2972 -55 l30 -30 -25 -19 c-27 -21 -50 -26 -50 -10 0 5 -6 7 -14 4 -8 -3
-17 0 -21 6 -5 8 -11 8 -19 1 -9 -8 -18 -6 -32 5 -16 14 -17 15 -1 10 13 -4
17 1 17 24 0 57 61 62 115 9z m2926 31 c12 -7 19 -21 19 -40 0 -23 4 -28 18
-24 15 5 14 4 -2 -10 -14 -11 -23 -13 -32 -5 -8 7 -14 7 -19 -1 -4 -6 -13 -9
-21 -6 -8 3 -14 1 -14 -4 0 -16 -23 -11 -50 10 l-25 19 25 26 c38 41 69 52
101 35z"/>
<path d="M690 4440 c0 -5 5 -10 11 -10 5 0 7 5 4 10 -3 6 -8 10 -11 10 -2 0
-4 -4 -4 -10z"/>
<path d="M4115 4440 c-3 -5 -1 -10 4 -10 6 0 11 5 11 10 0 6 -2 10 -4 10 -3 0
-8 -4 -11 -10z"/>
<path d="M1720 4594 c-8 -1 -46 -6 -84 -9 -53 -5 -74 -12 -92 -30 -29 -29 -30
-41 -6 -54 13 -7 27 -6 47 5 16 8 49 20 74 26 64 15 80 25 78 48 -1 11 -1 19
-2 19 0 -1 -7 -3 -15 -5z"/>
<path d="M3083 4578 c-2 -21 15 -31 78 -46 25 -6 58 -18 74 -26 29 -15 65 -7
65 15 0 16 -48 59 -67 60 -10 0 -47 3 -84 7 -58 7 -65 6 -66 -10z"/>
<path d="M1590 4490 c0 -5 7 -10 15 -10 8 0 15 5 15 10 0 6 -7 10 -15 10 -8 0
-15 -4 -15 -10z"/>
<path d="M3200 4490 c0 -5 7 -10 15 -10 8 0 15 5 15 10 0 6 -7 10 -15 10 -8 0
-15 -4 -15 -10z"/>
<path d="M1423 4053 c-21 -8 -15 -21 31 -63 51 -47 81 -111 91 -193 11 -86
-30 -164 -149 -282 -204 -202 -364 -239 -499 -115 -41 37 -57 46 -65 38 -21
-21 -13 -45 31 -88 62 -63 116 -85 207 -83 121 2 238 60 363 182 160 154 218
308 168 441 -23 60 -81 134 -121 155 -30 16 -37 17 -57 8z"/>
<path d="M3334 4041 c-70 -43 -134 -160 -134 -245 0 -140 126 -324 305 -444
90 -60 157 -84 245 -85 91 -2 145 20 208 83 43 43 51 67 30 88 -8 8 -24 -1
-65 -38 -135 -124 -295 -87 -499 115 -119 118 -160 196 -149 282 10 82 40 146
91 193 48 44 52 55 28 64 -22 9 -26 8 -60 -13z"/>
<path d="M974 1622 c-52 -18 -102 -54 -136 -97 -21 -27 -23 -46 -6 -63 8 -8
24 1 65 38 135 124 295 87 499 -115 119 -118 160 -196 149 -282 -10 -82 -40
-146 -91 -193 -49 -45 -53 -56 -24 -65 69 -22 190 142 190 259 0 107 -67 232
-187 347 -158 153 -330 217 -459 171z"/>
<path d="M3690 1630 c-94 -18 -203 -81 -303 -179 -120 -115 -187 -240 -187
-347 0 -117 121 -281 190 -259 29 9 25 20 -24 65 -51 47 -81 111 -91 193 -11
86 30 164 149 282 204 202 364 239 499 115 41 -37 57 -46 65 -38 21 21 13 45
-30 88 -72 72 -164 100 -268 80z"/>
<path d="M1590 410 c0 -5 7 -10 15 -10 8 0 15 5 15 10 0 6 -7 10 -15 10 -8 0
-15 -4 -15 -10z"/>
<path d="M3200 410 c0 -5 7 -10 15 -10 8 0 15 5 15 10 0 6 -7 10 -15 10 -8 0
-15 -4 -15 -10z"/>
<path d="M1534 396 c-17 -13 -17 -15 -1 -40 19 -29 33 -34 133 -44 63 -7 70
-6 71 10 2 21 -15 31 -82 47 -27 7 -54 16 -60 20 -22 17 -44 19 -61 7z"/>
<path d="M3235 394 c-16 -8 -49 -20 -74 -26 -63 -15 -80 -25 -78 -46 1 -16 8
-17 66 -10 37 4 74 7 84 7 19 1 67 44 67 60 0 22 -36 30 -65 15z"/>
<path d="M490 4001 c0 -5 7 -12 16 -15 24 -9 28 -7 14 9 -14 17 -30 20 -30 6z"/>
<path d="M4300 3995 c-14 -16 -10 -18 14 -9 9 3 16 10 16 15 0 14 -16 11 -30
-6z"/>
<path d="M680 2986 c0 -7 7 -19 15 -26 12 -10 15 -9 15 8 0 11 -7 22 -15 26
-9 3 -15 0 -15 -8z"/>
<path d="M4123 2993 c-7 -3 -13 -14 -13 -26 0 -20 1 -20 16 -5 18 18 16 37 -3
31z"/>
<path d="M692 1937 c-17 -20 -12 -40 6 -28 8 5 12 16 10 26 -3 17 -4 17 -16 2z"/>
<path d="M4110 1932 c0 -11 7 -22 15 -26 9 -3 15 0 15 8 0 7 -7 19 -15 26 -12
10 -15 9 -15 -8z"/>
<path d="M690 459 c0 -5 5 -7 10 -4 6 3 10 8 10 11 0 2 -4 4 -10 4 -5 0 -10
-5 -10 -11z"/>
<path d="M4115 460 c3 -5 8 -10 11 -10 2 0 4 5 4 10 0 6 -5 10 -11 10 -5 0 -7
-4 -4 -10z"/>
<path d="M500 910 c-8 -5 -11 -12 -7 -16 4 -4 15 0 24 9 18 18 8 23 -17 7z"/>
<path d="M4303 903 c9 -9 20 -13 24 -9 4 4 1 11 -7 16 -25 16 -35 11 -17 -7z"/>
<path d="M78 4054 c-8 -7 3 -54 13 -54 12 0 12 47 0 54 -4 3 -10 3 -13 0z"/>
<path d="M4726 4053 c-9 -10 -7 -53 3 -53 11 0 21 49 11 55 -4 2 -10 2 -14 -2z"/>
<path d="M78 875 c-5 -25 3 -40 16 -28 9 10 7 53 -3 53 -5 0 -11 -11 -13 -25z"/>
<path d="M4720 876 c0 -24 12 -41 22 -30 8 7 -3 54 -13 54 -5 0 -9 -11 -9 -24z"/>
</g>
</svg>
