<?xml version="1.0" standalone="no"?>
<!DOCTYPE svg PUBLIC "-//W3C//DTD SVG 20010904//EN"
 "http://www.w3.org/TR/2001/REC-SVG-20010904/DTD/svg10.dtd">
<svg version="1.0" xmlns="http://www.w3.org/2000/svg"
 width="440.000000pt" height="290.000000pt" viewBox="0 0 440.000000 290.000000"
 preserveAspectRatio="xMidYMid meet">

<g transform="translate(0.000000,290.000000) scale(0.100000,-0.100000)"
fill="#000000" stroke="none">
<path d="M1521 2878 c12 -23 57 -99 289 -490 67 -115 127 -208 132 -208 5 0 6
-4 3 -10 -3 -5 -1 -10 5 -10 6 0 8 -4 5 -10 -3 -5 -1 -10 4 -10 6 0 11 -5 11
-10 0 -13 121 -224 131 -228 4 -2 5 -10 2 -18 -4 -12 -128 -14 -873 -14 -845
0 -868 -1 -926 -20 -32 -11 -76 -32 -97 -46 -40 -26 -135 -114 -123 -114 3 0
-2 -8 -13 -19 -17 -17 -66 -130 -59 -137 10 -9 30 17 31 40 1 14 5 26 8 26 3
0 13 15 23 33 34 65 43 76 86 112 53 44 97 68 169 89 48 14 154 16 926 16 479
0 874 3 877 6 3 3 -1 20 -10 37 -22 45 -134 241 -141 247 -4 3 -12 18 -19 33
-7 15 -17 25 -22 22 -6 -3 -7 1 -4 9 3 9 1 16 -5 16 -6 0 -10 3 -9 8 3 6 -40
81 -202 352 -5 8 -32 56 -61 105 -29 50 -57 93 -63 97 -7 5 -7 8 -1 8 6 0 1 7
-9 15 -11 8 -16 15 -12 15 5 0 3 7 -4 15 -7 9 -11 17 -9 19 2 2 139 -63 303
-145 165 -81 305 -150 310 -151 6 -2 503 -250 1104 -551 696 -350 1092 -553
1092 -563 0 -9 -117 -72 -312 -168 -172 -84 -497 -245 -723 -356 -225 -111
-531 -262 -680 -335 -825 -405 -990 -488 -997 -498 -4 -7 -8 -9 -8 -4 0 4 -18
-2 -41 -13 -23 -12 -42 -20 -44 -18 -2 2 16 35 40 73 23 39 41 73 38 78 -2 4
0 7 4 7 5 0 26 30 47 68 21 37 103 176 182 309 79 133 144 246 144 251 0 6 4
12 8 14 11 4 73 108 65 108 -4 0 1 6 10 13 9 6 21 24 26 40 l11 27 -873 0
c-512 0 -889 4 -913 10 -23 5 -62 18 -88 29 -25 11 -49 22 -53 23 -9 4 -73 60
-87 76 -6 7 -19 22 -29 33 -9 10 -14 19 -11 19 3 0 -4 15 -16 34 -28 46 -53
169 -45 220 7 41 7 41 -10 17 -14 -18 -16 -35 -11 -86 7 -71 23 -125 38 -125
5 0 6 -4 3 -10 -14 -22 93 -160 124 -160 6 0 11 -4 11 -10 0 -14 107 -65 165
-79 55 -13 1023 -20 1496 -11 175 3 266 2 265 -5 -1 -5 -18 -35 -36 -65 -19
-30 -34 -56 -32 -57 1 -2 -5 -11 -14 -20 -26 -28 -232 -382 -226 -388 3 -3 0
-5 -6 -5 -7 0 -12 -6 -12 -14 0 -7 -7 -19 -15 -26 -8 -6 -14 -15 -13 -18 2
-10 -24 -62 -31 -62 -4 0 -18 -21 -31 -48 -14 -26 -28 -49 -33 -50 -4 -2 -5
-8 -1 -13 3 -5 0 -9 -6 -9 -6 0 -8 -4 -5 -10 3 -5 1 -10 -4 -10 -6 0 -11 -7
-11 -15 0 -8 -4 -15 -10 -15 -5 0 -12 -11 -16 -25 -3 -14 -10 -25 -16 -25 -5
0 -7 -4 -4 -9 4 -5 2 -11 -3 -13 -10 -3 -74 -109 -69 -113 5 -5 103 38 106 47
2 4 10 8 17 8 7 0 41 16 75 35 34 19 64 35 66 35 12 0 479 232 485 241 3 6 10
10 14 8 7 -3 306 142 315 152 3 4 15 9 27 13 28 9 1056 516 1063 525 3 3 12 7
19 9 8 2 167 78 353 169 232 114 340 172 344 185 5 18 -23 64 -34 54 -2 -3
-11 1 -19 9 -8 8 -26 18 -41 22 -15 3 -29 9 -32 12 -11 13 -70 42 -70 34 0 -4
-4 -3 -8 3 -10 16 -148 84 -156 77 -3 -4 -6 -1 -6 6 0 7 -4 10 -9 7 -5 -4 -11
-2 -13 3 -5 13 -125 71 -132 64 -3 -4 -6 -1 -6 5 0 6 -7 9 -17 5 -12 -5 -14
-3 -8 7 5 9 4 11 -3 6 -7 -4 -12 -2 -12 4 0 6 -4 8 -10 5 -5 -3 -10 -1 -10 5
0 6 -4 8 -10 5 -5 -3 -10 -2 -10 3 0 10 -60 38 -72 34 -5 -1 -8 2 -8 8 0 5 -7
6 -17 3 -12 -5 -14 -3 -8 7 5 9 4 11 -3 6 -7 -4 -12 -2 -12 4 0 6 -5 8 -10 5
-5 -3 -10 -1 -10 5 0 6 -5 8 -10 5 -5 -3 -10 -2 -10 3 0 10 -53 36 -66 32 -4
-1 -10 3 -13 8 -3 6 -13 12 -21 14 -8 2 -21 9 -28 16 -8 7 -17 10 -22 7 -5 -3
-10 -1 -12 4 -4 12 -568 293 -568 284 0 -5 -4 -3 -8 3 -9 15 -132 76 -132 67
0 -5 -4 -3 -8 3 -9 15 -232 126 -232 117 0 -5 -4 -3 -8 3 -10 15 -72 47 -72
37 0 -5 -4 -3 -8 3 -6 10 -715 363 -737 367 -5 1 -12 5 -15 8 -8 10 -148 79
-160 79 -7 0 -7 -7 1 -22z"/>
<path d="M1741 2663 c77 -126 179 -289 186 -298 5 -5 12 -19 17 -30 4 -11 40
-74 80 -140 40 -66 101 -169 136 -230 36 -60 70 -114 77 -118 8 -5 11 -12 8
-18 -4 -5 -2 -9 2 -9 5 0 9 -9 10 -20 2 -20 -4 -20 -938 -20 -619 0 -939 -3
-939 -10 0 -7 327 -10 960 -10 l960 0 -20 40 c-12 23 -29 49 -38 59 -9 10 -18
23 -20 31 -4 19 -113 204 -124 211 -5 3 -9 9 -8 13 3 9 -158 282 -177 302 -8
8 -12 14 -9 14 9 0 -76 134 -91 143 -7 5 -11 12 -8 18 4 5 2 9 -2 9 -5 0 -13
12 -19 28 -10 27 -7 26 120 -38 225 -112 245 -120 252 -108 4 7 3 8 -4 4 -7
-4 -12 -2 -12 4 0 6 -4 8 -10 5 -5 -3 -10 -1 -10 5 0 6 -4 8 -10 5 -5 -3 -10
-1 -10 5 0 6 -4 8 -10 5 -5 -3 -10 -2 -10 4 0 9 -40 27 -49 22 -2 -2 -7 2 -10
7 -9 13 -91 54 -91 45 0 -5 -4 -3 -8 3 -7 11 -130 76 -179 95 l-25 9 23 -37z"/>
<path d="M1960 2476 c0 -2 51 -88 113 -192 62 -104 137 -232 167 -284 30 -52
58 -98 63 -101 5 -3 8 -9 8 -13 -2 -11 51 -111 60 -114 5 -2 9 -8 9 -14 0 -5
9 -23 21 -39 l20 -29 -994 1 -994 2 -40 -22 c-61 -35 -51 -56 10 -24 101 51
228 11 291 -90 59 -95 26 -231 -72 -301 -48 -34 -138 -46 -193 -27 -42 15 -59
2 -23 -18 26 -14 121 -16 879 -18 468 -2 911 1 985 5 74 5 137 7 138 6 2 -1
-21 -47 -52 -101 -31 -55 -56 -105 -56 -111 0 -7 -4 -12 -8 -12 -8 0 -28 -35
-30 -53 -1 -4 -8 -15 -17 -23 -8 -9 -15 -21 -15 -29 0 -7 -4 -15 -8 -17 -10
-4 -122 -192 -122 -205 0 -5 -10 -21 -22 -37 -34 -42 -108 -175 -100 -180 10
-6 102 35 102 45 0 5 4 9 10 9 20 0 814 389 818 401 2 5 10 9 17 9 7 0 127 57
266 126 140 70 308 152 374 184 333 158 465 224 465 235 0 10 -377 201 -410
207 -8 2 -17 5 -20 8 -14 16 -84 50 -101 50 -11 0 -17 5 -14 10 5 9 -15 15
-37 11 -5 0 -8 3 -8 8 0 9 -190 106 -220 113 -8 2 -17 6 -20 9 -10 12 -380
199 -380 191 0 -4 -4 -2 -8 4 -9 14 -122 65 -122 56 0 -4 -4 -2 -8 5 -8 12
-698 363 -714 363 -4 0 -8 -2 -8 -4z m354 -190 c159 -80 292 -143 297 -140 5
3 9 1 9 -5 0 -6 11 -13 25 -17 14 -3 25 -9 25 -13 0 -3 12 -12 28 -19 49 -23
67 -41 54 -54 -9 -9 -12 -9 -12 1 0 7 -4 10 -9 7 -5 -4 -11 -1 -13 6 -3 8 -32
14 -80 16 -60 3 -82 0 -114 -16 -77 -39 -118 -109 -117 -198 0 -59 25 -134 44
-134 5 0 9 -8 9 -17 0 -30 -46 24 -86 101 -44 84 -115 209 -123 216 -3 3 -21
34 -40 70 -19 36 -74 130 -123 209 -48 79 -88 148 -88 154 0 6 6 4 13 -5 6 -9
142 -81 301 -162z m412 -260 c95 -44 178 -175 213 -336 11 -52 60 -120 110
-152 47 -29 73 -30 30 -1 -39 27 -93 85 -111 121 -9 17 -15 32 -13 32 3 0 26
-13 53 -30 81 -49 132 -68 247 -89 61 -11 160 -31 220 -45 148 -34 159 -36
240 -51 l70 -13 -92 -1 c-80 -1 -92 -3 -86 -17 5 -13 19 -15 84 -12 43 2 75 0
71 -4 -17 -16 -175 -46 -545 -104 -24 -4 -35 -10 -30 -15 13 -13 349 38 511
77 35 8 66 13 69 10 7 -7 -158 -86 -441 -211 -293 -129 -323 -135 -366 -75
l-21 30 28 28 c52 49 75 64 108 72 21 5 84 40 91 51 14 24 -122 -34 -175 -75
-19 -14 -36 -25 -37 -23 -6 5 15 80 23 86 28 19 123 94 123 96 0 9 -33 -4 -41
-16 -5 -8 -9 -10 -9 -6 0 19 -105 -76 -107 -96 -1 -12 -3 -39 -5 -59 -1 -20
-5 -35 -8 -33 -6 4 -36 -96 -31 -104 2 -2 -1 -7 -6 -10 -4 -3 -17 -23 -28 -45
-28 -55 -98 -124 -148 -146 -176 -80 -349 88 -271 263 23 50 45 71 103 99 41
19 45 19 87 3 24 -9 51 -26 59 -38 20 -28 19 -74 -1 -85 -12 -7 -13 -11 -4
-17 13 -8 37 12 40 35 6 40 -3 63 -35 95 -61 58 -129 56 -215 -6 -43 -31 -56
-55 -70 -130 -30 -157 110 -294 265 -259 26 6 50 8 53 5 3 -3 -62 -37 -144
-76 -82 -39 -151 -74 -154 -78 -3 -3 -10 -7 -16 -8 -5 -1 -97 -45 -204 -97
-106 -53 -195 -96 -197 -96 -2 0 8 17 22 37 14 21 25 43 25 50 0 7 4 13 8 13
8 0 39 57 40 74 0 5 5 12 10 15 6 3 34 47 63 96 125 214 179 311 179 318 0 5
11 23 25 41 14 18 25 38 25 44 0 7 4 12 9 12 10 0 22 28 19 45 0 6 -10 9 -21
7 -12 -2 -17 1 -13 7 4 6 12 11 18 11 5 0 47 23 93 50 73 44 89 50 139 50 68
0 115 -18 144 -55 29 -37 30 -141 2 -202 -10 -24 -17 -43 -14 -43 3 0 -4 -10
-16 -22 -11 -12 -20 -25 -20 -30 0 -13 -74 -56 -100 -58 -55 -4 -73 1 -106 34
-26 26 -34 42 -34 71 0 45 53 105 93 105 14 0 29 5 32 10 4 6 -8 10 -29 10
-25 0 -45 -9 -70 -30 -38 -34 -51 -73 -41 -120 8 -35 53 -93 66 -84 5 3 9 0 9
-5 0 -7 23 -11 55 -11 32 0 55 4 55 11 0 5 5 7 10 4 20 -12 126 111 131 152 1
5 5 18 10 31 26 67 -7 208 -51 219 -11 3 -20 9 -20 13 0 10 -90 30 -136 30
-20 0 -41 -6 -49 -12 -31 -31 -55 -46 -140 -88 l-90 -45 -120 1 c-148 1 -273
30 -421 98 l-101 46 -125 -63 c-84 -43 -146 -68 -192 -77 -201 -38 -356 54
-357 213 -1 126 77 201 232 222 77 10 191 -19 314 -80 61 -30 116 -55 123 -55
7 0 40 14 73 31 33 16 109 46 167 66 97 33 120 37 243 41 123 4 139 3 177 -17
22 -11 48 -21 56 -21 8 0 16 -4 18 -9 2 -5 30 -22 63 -39 33 -16 71 -40 85
-52 21 -19 33 -21 80 -16 72 7 143 32 166 58 15 16 19 35 18 89 -2 71 -37 209
-54 209 -6 0 -10 6 -10 14 0 23 -77 84 -115 92 -58 11 -107 -2 -137 -36 -33
-36 -42 -68 -34 -114 7 -34 44 -92 53 -82 3 3 12 -1 20 -9 17 -18 69 -20 79
-3 4 6 3 8 -4 5 -5 -4 -30 1 -54 12 -80 34 -102 126 -42 182 21 20 35 24 82
22 80 -2 92 -3 89 -12 -1 -4 10 -19 25 -33 15 -14 25 -28 21 -31 -3 -4 -1 -7
5 -7 16 0 52 -117 58 -191 4 -54 2 -69 -15 -94 -12 -16 -21 -27 -21 -23 0 4
-16 0 -36 -8 -61 -25 -136 -22 -181 8 -22 14 -77 45 -121 67 -45 23 -82 43
-82 44 0 2 16 1 35 -1 24 -3 42 1 55 13 17 16 19 16 29 -3 13 -24 80 -52 126
-52 51 0 83 16 105 52 25 41 25 69 1 96 -21 25 -36 28 -47 10 -4 -7 -4 -10 1
-6 4 4 18 -6 31 -23 20 -28 21 -33 8 -46 -8 -8 -12 -19 -9 -24 9 -14 -67 -40
-110 -37 -44 3 -42 2 -103 54 -50 44 -78 119 -67 185 8 49 58 116 105 140 50
27 132 25 196 -5z m118 -2 c25 -14 46 -22 46 -17 0 4 4 3 8 -3 4 -6 66 -41
137 -77 528 -266 777 -387 787 -381 6 4 8 3 5 -3 -8 -13 100 -66 115 -57 6 4
8 3 5 -3 -4 -6 7 -16 25 -22 17 -6 28 -15 22 -19 -5 -4 -56 -30 -114 -57 -58
-28 -107 -53 -110 -56 -7 -8 -71 -39 -81 -39 -5 0 -214 -101 -465 -225 -251
-124 -459 -225 -462 -225 -3 0 2 8 11 18 10 10 14 23 10 28 -5 5 -4 6 0 2 10
-7 67 46 67 62 0 6 5 10 11 10 5 0 7 5 4 10 -3 6 -2 10 3 10 6 0 22 29 38 64
l28 65 22 -24 c30 -32 67 -40 117 -25 39 11 331 136 507 217 41 19 105 48 143
65 46 22 66 36 65 47 -2 10 3 15 13 13 11 -1 18 7 21 23 5 26 -13 50 -28 37
-4 -4 -3 0 3 8 8 11 8 19 0 31 -10 13 -71 51 -87 54 -3 0 -20 9 -37 18 -41 22
-325 148 -338 150 -5 1 -12 5 -15 8 -17 19 -221 103 -260 107 -55 5 -117 -12
-117 -33 0 -12 4 -12 28 1 51 26 105 18 218 -35 58 -27 177 -81 264 -120 257
-116 326 -153 302 -161 -11 -4 -23 -6 -27 -4 -12 8 -434 103 -518 117 -61 11
-103 25 -150 52 -87 49 -106 69 -130 132 -31 83 -58 133 -106 195 -61 79 -58
86 20 42z m-1669 -355 c-3 -3 -17 -9 -33 -12 -34 -7 -110 -80 -118 -113 -3
-13 -8 -24 -10 -24 -3 0 -18 15 -34 34 -30 34 -83 56 -73 30 3 -7 13 -16 23
-19 37 -12 70 -64 70 -109 0 -69 -16 -100 -62 -122 -23 -12 -37 -23 -31 -27
15 -10 76 25 89 52 l12 24 16 -32 c9 -17 21 -31 26 -31 6 0 10 -7 10 -15 0
-16 75 -75 96 -75 7 0 16 -5 19 -10 5 -8 -84 -10 -287 -9 -220 1 -288 5 -273
13 36 20 93 85 106 121 15 40 25 44 34 15 7 -22 52 -56 61 -47 3 3 -3 14 -13
24 -40 40 -53 68 -53 115 0 43 5 54 41 93 26 28 36 45 27 45 -16 0 -68 -47
-68 -61 0 -5 -4 -9 -10 -9 -5 0 -10 6 -10 13 0 24 -58 95 -90 112 -17 9 -29
19 -26 23 2 4 130 7 284 8 155 0 279 -3 277 -7z m845 4 c0 0 -32 -11 -72 -23
-39 -12 -112 -39 -162 -61 -50 -21 -94 -39 -97 -39 -4 0 -38 18 -75 40 -38 22
-97 49 -131 61 -35 11 -63 21 -63 22 0 1 135 2 300 2 165 0 300 -1 300 -2z
m-257 -354 c65 -33 217 -89 241 -89 8 0 17 -4 20 -9 4 -5 -116 -9 -293 -8
-164 1 -294 5 -287 9 6 4 17 8 24 8 18 0 169 76 200 100 13 11 26 20 29 20 2
0 32 -14 66 -31z"/>
<path d="M2320 2169 c0 -5 -4 -8 -9 -5 -11 7 -33 -18 -24 -27 3 -4 1 -7 -5 -7
-7 0 -12 -15 -12 -34 0 -25 7 -40 26 -55 45 -35 100 -21 123 30 17 38 1 81
-35 98 -31 14 -64 14 -64 0z m80 -44 c20 -24 2 -66 -33 -78 -63 -21 -103 52
-54 99 19 19 25 20 48 8 14 -7 32 -20 39 -29z"/>
<path d="M2085 1603 c-53 -12 -189 -60 -278 -99 -55 -24 -108 -44 -119 -44
-10 0 -57 22 -106 50 -128 73 -190 92 -287 88 -131 -5 -198 -57 -198 -153 0
-138 175 -202 358 -131 39 15 105 50 148 78 l79 52 41 -17 c23 -9 81 -32 128
-51 185 -75 375 -103 484 -71 78 22 127 48 175 92 41 36 49 56 28 69 -6 4 -8
3 -5 -4 11 -17 -89 -99 -151 -124 -81 -32 -243 -31 -357 1 -113 32 -288 102
-278 111 12 11 156 73 248 106 71 26 93 29 200 29 116 0 122 -1 182 -33 35
-18 66 -33 70 -34 5 0 13 -8 20 -17 11 -15 12 -15 13 0 0 9 -17 24 -37 35 -21
10 -40 22 -41 27 -2 4 -8 5 -13 1 -5 -3 -9 0 -9 6 0 6 -4 8 -10 5 -5 -3 -10
-2 -10 3 0 24 -197 43 -275 25z m-595 -69 c47 -23 94 -49 105 -58 20 -15 20
-15 -2 -16 -33 0 -28 -20 5 -20 l27 -1 -30 -24 c-47 -39 -165 -94 -228 -106
-39 -8 -71 -9 -104 -2 -74 16 -74 16 -112 57 -29 32 -36 47 -36 80 0 93 69
138 205 134 76 -3 94 -7 170 -44z"/>
<path d="M1265 1495 c-28 -27 -31 -54 -12 -88 17 -31 27 -37 70 -37 48 0 77
28 77 75 0 71 -83 102 -135 50z m105 -22 c16 -20 17 -29 8 -49 -6 -13 -23 -27
-37 -30 -14 -3 -33 -8 -41 -10 -8 -3 -11 -2 -7 2 4 4 -2 13 -13 21 -26 18 -26
58 0 76 11 8 18 16 15 19 -3 2 9 3 25 0 17 -2 39 -15 50 -29z"/>
<path d="M2847 1509 c-32 -16 -92 -37 -134 -45 -115 -22 -114 -28 15 -54 49
-10 107 -27 130 -39 55 -28 86 -27 111 5 37 47 23 131 -26 153 -32 15 -30 15
-96 -20z m105 -16 c36 -41 30 -90 -13 -114 -17 -9 -32 -6 -78 14 -31 14 -80
29 -109 33 -47 6 -82 23 -50 25 65 3 94 9 135 32 57 30 94 33 115 10z"/>
<path d="M2117 1502 c-23 -26 -21 -78 4 -103 29 -29 80 -23 97 14 7 15 10 32
6 38 -4 7 -12 -1 -20 -20 -15 -35 -42 -41 -67 -13 -40 44 -2 100 54 80 17 -6
26 -15 23 -21 -5 -9 -3 -9 6 0 7 6 10 19 7 27 -9 23 -89 22 -110 -2z"/>
<path d="M2490 1498 c0 -18 18 -34 28 -24 3 4 -2 14 -11 23 -16 16 -17 16 -17
1z"/>
<path d="M3150 1502 c0 -5 28 -17 63 -28 34 -10 61 -23 60 -28 -1 -5 -29 -18
-62 -28 -34 -10 -61 -23 -61 -28 0 -13 0 -13 71 7 34 9 63 22 65 27 3 7 48 10
129 8 83 -2 125 0 125 7 0 7 -40 11 -114 11 -95 0 -117 3 -137 19 -13 10 -48
23 -77 30 -63 13 -62 13 -62 3z"/>
<path d="M2297 852 c-68 -75 27 -178 103 -112 33 28 33 85 1 111 -30 24 -83
25 -104 1z m88 -10 c6 -4 15 -18 21 -31 22 -51 -54 -94 -98 -54 -22 20 -23 42
-2 71 15 22 58 30 79 14z"/>
<path d="M2164 2468 c-4 -6 -3 -8 4 -4 5 3 12 1 14 -6 3 -8 6 -9 11 -1 4 6 0
13 -8 17 -8 3 -17 0 -21 -6z"/>
<path d="M2206 2452 c-5 -9 121 -75 138 -72 5 1 12 -3 15 -8 7 -10 123 -70
186 -96 l40 -16 -24 20 c-12 11 -27 17 -32 14 -5 -3 -9 0 -9 5 0 12 -120 75
-120 64 0 -5 -4 -3 -8 3 -10 16 -108 64 -116 57 -3 -4 -6 -1 -6 5 0 6 -7 9
-17 5 -12 -5 -14 -3 -8 8 4 8 5 11 0 7 -4 -4 -14 -3 -21 3 -7 5 -15 6 -18 1z"/>
<path d="M2590 2260 c0 -11 1200 -614 1200 -603 0 5 4 3 8 -3 9 -15 92 -57 92
-47 0 5 4 3 8 -3 4 -6 71 -44 150 -83 78 -39 142 -74 142 -79 -1 -4 -81 -45
-178 -91 -232 -111 -1198 -586 -1772 -872 -250 -125 -456 -226 -458 -224 -3 3
30 67 39 75 3 3 23 34 44 70 21 36 45 72 52 82 10 11 11 18 3 23 -13 8 -26 -8
-60 -73 -14 -26 -27 -49 -30 -52 -12 -10 -78 -125 -85 -147 -3 -13 -11 -23
-17 -23 -6 0 -9 -2 -6 -5 3 -3 217 100 477 230 259 129 473 235 475 235 9 0
849 420 862 431 8 6 14 9 14 5 0 -7 101 42 110 53 3 3 11 7 18 9 35 7 552 267
552 277 0 12 -66 47 -84 45 -5 -1 -12 3 -15 8 -9 13 -151 84 -151 75 0 -5 -4
-3 -8 3 -9 14 -122 65 -122 56 0 -4 -4 -2 -8 4 -9 15 -134 79 -146 75 -5 -1
-12 2 -15 7 -11 16 -98 62 -104 55 -4 -3 -7 -1 -7 6 0 7 -4 9 -10 6 -5 -3 -10
-1 -10 5 0 6 -4 8 -10 5 -5 -3 -10 -2 -10 3 0 9 -91 55 -101 50 -3 -2 -13 5
-23 15 -10 9 -22 15 -27 12 -5 -4 -9 -2 -9 3 0 12 -100 58 -118 54 -8 -2 -11
1 -8 6 7 12 -22 25 -35 16 -5 -3 -9 -1 -9 5 0 11 -413 221 -435 221 -8 0 -15
5 -15 11 0 6 -7 9 -15 5 -8 -3 -15 -2 -15 2 0 4 -17 16 -37 26 -21 10 -50 24
-65 31 -16 8 -28 10 -28 5z"/>
<path d="M231 1706 c-48 -36 -70 -66 -49 -66 18 1 125 100 107 100 -8 0 -34
-15 -58 -34z"/>
<path d="M426 1585 c-36 -19 -78 -63 -71 -75 3 -4 -1 -10 -7 -13 -10 -4 -11
-7 0 -18 10 -11 12 -10 12 3 0 19 50 81 70 87 44 13 110 12 138 -3 64 -33 91
-125 55 -186 -36 -61 -131 -87 -194 -54 -17 8 -33 13 -37 10 -3 -3 -3 -7 -1
-8 77 -47 132 -50 194 -13 103 60 100 215 -5 267 -43 22 -115 23 -154 3z"/>
<path d="M119 1568 c0 -7 -2 -21 -4 -30 -2 -10 1 -18 7 -18 6 0 8 7 4 15 -3 8
-1 15 3 15 5 0 11 7 15 15 3 9 0 15 -9 15 -8 0 -15 -6 -16 -12z"/>
<path d="M286 1548 c-10 -18 -13 -35 -7 -41 5 -5 12 3 16 20 18 63 15 70 -9
21z"/>
<path d="M487 1458 c-11 -9 -14 -18 -8 -27 13 -20 40 -6 38 18 -2 24 -7 26
-30 9z"/>
<path d="M341 1438 c-1 -30 8 -58 18 -58 4 0 8 7 8 15 0 8 -4 15 -9 15 -5 0
-7 3 -5 8 3 4 1 16 -4 27 -7 18 -8 17 -8 -7z"/>
<path d="M105 1390 c9 -49 47 -129 77 -165 35 -41 84 -69 94 -54 4 8 3 9 -4 5
-6 -3 -16 3 -22 14 -6 11 -17 20 -25 20 -15 0 -95 134 -95 161 0 8 -7 24 -15
35 -15 18 -16 17 -10 -16z"/>
<path d="M267 1393 c-8 -14 40 -110 58 -117 19 -7 19 13 0 34 -8 9 -23 34 -34
55 -10 21 -21 33 -24 28z"/>
<path d="M284 1151 c16 -25 128 -39 331 -43 391 -6 1095 2 1095 12 0 6 -240 9
-652 9 -571 -1 -659 1 -698 15 -50 17 -84 21 -76 7z"/>
<path d="M1770 1120 c0 -7 81 -10 244 -8 l244 3 -9 -23 c-5 -13 -45 -84 -89
-158 -44 -73 -80 -138 -80 -143 0 -5 -4 -11 -8 -13 -5 -2 -34 -46 -65 -98 -54
-90 -70 -129 -47 -115 13 8 136 218 132 228 -1 4 2 7 7 7 4 0 19 21 32 48 13
26 27 49 30 52 11 8 108 177 119 204 l10 26 -260 0 c-172 0 -260 -3 -260 -10z"/>
</g>
</svg>
