<?xml version="1.0" encoding="UTF-8" standalone="no"?>
<!-- Created with Inkscape (http://www.inkscape.org/) -->

<svg
   width="5.7152038mm"
   height="6.4037595mm"
   viewBox="0 0 5.7152038 6.4037595"
   version="1.1"
   id="svg1"
   xmlns="http://www.w3.org/2000/svg"
   xmlns:svg="http://www.w3.org/2000/svg">
  <defs
     id="defs1">
    <linearGradient
       id="swatch4">
      <stop
         style="stop-color:#000000;stop-opacity:1;"
         offset="0"
         id="stop4" />
    </linearGradient>
  </defs>
  <g
     id="layer2"
     style="stroke:#ffffff;stroke-opacity:1"
     transform="translate(-72.717631,-173.68345)">
    <path
       id="path63-83-29"
       style="fill:#000000;fill-opacity:1;stroke:none;stroke-width:0.174705;stroke-dasharray:none;stroke-opacity:1"
       d="m 75.575185,173.68346 c -0.139393,0 -2.055394,1.09551 -2.630847,1.48621 0.04375,-0.01 0.09191,-0.0191 0.149861,-0.0274 0.160719,-0.0229 0.377135,-0.0414 0.633037,-0.0563 0.511803,-0.0298 1.179747,-0.0434 1.847949,-0.0434 0.668203,0 1.336663,0.0136 1.848466,0.0434 0.255901,0.0149 0.4718,0.0333 0.632519,0.0563 0.0582,0.008 0.106505,0.0179 0.150379,0.0279 -0.574861,-0.3904 -2.491932,-1.48673 -2.631364,-1.48673 z m 0,1.56631 c -0.66512,0 -1.330264,0.0145 -1.835547,0.0439 -0.252641,0.0147 -0.465807,0.0338 -0.615983,0.0553 -0.07509,0.0107 -0.134385,0.0219 -0.172083,0.0326 -0.0029,8.2e-4 -0.0031,10e-4 -0.0057,0.002 6.7e-4,0.003 -3.12e-4,0.003 5.17e-4,0.007 0.0096,0.038 0.02962,0.095 0.05788,0.16537 0.05651,0.14078 0.146351,0.33454 0.259933,0.56069 0.227165,0.4523 0.548006,1.03629 0.880566,1.6123 0.33256,0.57601 0.67738,1.14447 0.955498,1.56735 0.139059,0.21144 0.261351,0.38658 0.355017,0.50591 0.04683,0.0597 0.0866,0.10604 0.114721,0.13333 0.0022,0.002 0.0031,0.002 0.0052,0.004 0.0021,-0.002 0.0026,-0.002 0.0047,-0.004 0.02812,-0.0273 0.06892,-0.0737 0.115755,-0.13333 0.09367,-0.11933 0.215958,-0.29447 0.355017,-0.50591 0.278117,-0.42288 0.623453,-0.99134 0.956014,-1.56735 0.33256,-0.57601 0.651851,-1.16 0.879016,-1.6123 0.113582,-0.22615 0.204974,-0.41991 0.261483,-0.56069 0.02826,-0.0704 0.04778,-0.12736 0.05736,-0.16537 8.63e-4,-0.003 3.81e-4,-0.004 0.001,-0.007 -0.0026,-8.2e-4 -0.0033,-0.001 -0.0062,-0.002 -0.0377,-0.0107 -0.09699,-0.0219 -0.172082,-0.0326 -0.150176,-0.0215 -0.363341,-0.0406 -0.615983,-0.0553 -0.505283,-0.0294 -1.170944,-0.0439 -1.836064,-0.0439 z m -2.823084,0.21601 c -0.05363,0.65085 -0.04456,2.93953 0.02635,3.06234 0.07146,0.12378 2.077522,1.29183 2.650485,1.55908 -0.0011,-0.001 -0.002,-0.002 -0.0031,-0.003 -0.03992,-0.0387 -0.08372,-0.0891 -0.133842,-0.15297 -0.100242,-0.12771 -0.225015,-0.30621 -0.365869,-0.52038 -0.281706,-0.42833 -0.628114,-0.999 -0.962215,-1.57768 -0.334101,-0.57868 -0.655122,-1.16451 -0.885218,-1.62264 -0.115048,-0.22906 -0.207206,-0.42657 -0.267683,-0.57723 -0.02609,-0.065 -0.04516,-0.11919 -0.05891,-0.16794 z m 5.646167,0.002 c -0.01374,0.0484 -0.03206,0.10207 -0.05788,0.16639 -0.06048,0.15067 -0.153154,0.34816 -0.268201,0.57723 -0.230097,0.45813 -0.550599,1.04395 -0.8847,1.62264 -0.334101,0.57867 -0.681025,1.14934 -0.962732,1.57768 -0.140853,0.21416 -0.26511,0.39267 -0.365353,0.52038 -0.05012,0.0639 -0.09444,0.11422 -0.134358,0.15297 -9.04e-4,8.2e-4 -0.0017,0.002 -0.0026,0.002 0.574471,-0.26826 2.578549,-1.43486 2.649967,-1.55856 0.07085,-0.12269 0.0793,-2.40746 0.02584,-3.06079 z m -3.418912,0.37878 c 0.0015,0.13094 0.08378,0.20135 0.246496,0.21136 l -0.110587,0.14625 -10e-4,1.38337 0.197921,0.0863 c 0.04959,-0.0567 0.110877,-0.0829 0.184485,-0.0796 -0.07128,0.0367 -0.167484,0.14471 -0.288355,0.32401 l -0.277502,-0.10542 c -0.03564,0.055 -0.117619,0.0856 -0.245463,0.0915 0.09608,-0.0459 0.163831,-0.1113 0.202571,-0.19637 l 10e-4,-1.49862 c -0.04107,-0.007 -0.07313,-0.0255 -0.0956,-0.0563 l -0.193787,0.0698 z m 1.071769,0.003 c 0.0039,0.0709 0.05844,0.13429 0.163814,0.19017 0.10615,0.0559 0.218125,0.047 0.335897,-0.0264 l -0.126607,0.14883 v 1.16685 l -0.224276,0.1971 v -0.66197 c 0.100726,-0.004 0.150895,-0.0508 0.150895,-0.14004 0,-0.0901 -0.05017,-0.13468 -0.150895,-0.13385 V 176.305 c -0.121646,-0.0334 -0.22276,-0.10692 -0.303341,-0.22117 v 0.50539 c -0.100726,0.003 -0.151412,0.0489 -0.151412,0.13643 0,0.0867 0.05069,0.13245 0.151412,0.13746 v 0.71158 l 0.183452,0.12506 0.344165,-0.3328 -0.0057,0.11782 -0.438216,0.44029 -0.311609,-0.19017 c -0.03564,-0.0167 -0.08685,-0.0176 -0.153479,-0.003 0.06431,-0.055 0.11241,-0.084 0.144178,-0.0873 v -1.35237 c -0.03642,0.0133 -0.09072,-0.0136 -0.162781,-0.0811 0.06431,0.0284 0.117582,0.0295 0.160197,0.004 z m -0.814937,0.27388 v 1.34204 l -0.06511,0.0589 v -1.31 z m 0.807185,0.2651 c 0.0085,0 0.01719,0.002 0.02532,0.006 0.01627,0.008 0.02636,0.0211 0.03101,0.0377 0.0054,0.0158 0.0054,0.0319 0,0.0486 -0.0054,0.0167 -0.01835,0.0294 -0.03927,0.0377 v 0.18758 h 0.102319 c 0.0077,-0.0225 0.01913,-0.0365 0.03462,-0.0424 0.0155,-0.006 0.03075,-0.006 0.04547,0 0.0155,0.005 0.02688,0.0161 0.03462,0.0336 0.0077,0.0175 0.0077,0.0356 0,0.0548 -0.007,0.0183 -0.01861,0.0301 -0.03566,0.0351 -0.01705,0.005 -0.0336,0.004 -0.04909,-0.004 -0.0155,-0.008 -0.02532,-0.0232 -0.02997,-0.0465 h -0.101799 l 5.17e-4,0.64182 c 0.02092,0.008 0.03437,0.021 0.03979,0.0377 0.0054,0.0167 0.0054,0.0334 0,0.0501 -0.0046,0.0159 -0.01525,0.0278 -0.03152,0.0362 -0.01627,0.008 -0.03334,0.009 -0.05116,10e-4 -0.01705,-0.008 -0.02791,-0.0214 -0.03256,-0.0398 -0.0046,-0.0183 -0.0034,-0.036 0.0036,-0.0527 0.007,-0.0167 0.0212,-0.0276 0.04289,-0.0326 l -5.16e-4,-0.64182 h -0.111105 c -0.0046,0.0233 -0.01448,0.039 -0.02997,0.0465 -0.0155,0.008 -0.03205,0.009 -0.04909,0.004 -0.01705,-0.005 -0.02946,-0.0168 -0.03721,-0.0351 -0.007,-0.0192 -0.0067,-0.0373 0.001,-0.0548 0.0077,-0.0175 0.01939,-0.0286 0.03411,-0.0336 0.0155,-0.006 0.03101,-0.006 0.04651,0 0.0155,0.006 0.02688,0.0199 0.03462,0.0424 h 0.110588 v -0.18758 c -0.0217,-0.005 -0.03644,-0.0159 -0.04341,-0.0326 -0.007,-0.0167 -0.0078,-0.0344 -0.0031,-0.0527 0.0046,-0.0183 0.01551,-0.0312 0.03256,-0.0388 0.0089,-0.004 0.01731,-0.006 0.02584,-0.006 z" />
  </g>
</svg>
