<?xml version="1.0" encoding="UTF-8" standalone="no"?>
<!-- Created with Inkscape (http://www.inkscape.org/) -->

<svg
   width="6.1489787mm"
   height="6.1489787mm"
   viewBox="0 0 6.1489787 6.1489787"
   version="1.1"
   id="svg1"
   xmlns="http://www.w3.org/2000/svg"
   xmlns:svg="http://www.w3.org/2000/svg">
  <defs
     id="defs1">
    <linearGradient
       id="swatch4">
      <stop
         style="stop-color:#000000;stop-opacity:1;"
         offset="0"
         id="stop4" />
    </linearGradient>
  </defs>
  <g
     id="layer2"
     style="stroke:#ffffff;stroke-opacity:1"
     transform="translate(-118.87595,-166.1604)">
    <path
       id="path225-00-80"
       style="fill:#000000;fill-opacity:1;stroke:none;stroke-width:0.200527;stroke-dasharray:none;stroke-opacity:1"
       d="m 120.67687,166.1604 -0.015,0.015 0.0367,-0.015 z m 0.10801,0 0.31677,0.7798 1.69706,-0.001 0.31057,-0.77876 z m 2.43447,0 0.008,0.003 -0.003,-0.003 z m 0.0765,0.0718 -0.31264,0.7891 1.18753,1.18804 0.77773,-0.32453 z m -2.69647,0.006 -1.64848,1.64848 0.78031,0.32091 1.18546,-1.18494 z m 0.48317,0.90176 -1.2268,1.22731 v 1.7353 l 1.2268,1.22783 1.7353,-0.001 1.22679,-1.22679 5.2e-4,-1.7353 -1.22731,-1.2268 z m -2.19108,0.80615 -0.0155,0.0155 v 0.0222 z m 6.13348,0.12557 -0.77928,0.32453 v 1.67277 l 0.77928,0.32866 z m -6.14898,0.001 v 2.32698 l 0.77928,-0.33486 v -1.6707 z m 3.5512,0.1142 c 0.0109,0.0817 0.0553,0.13315 0.13281,0.154 0.0775,0.0208 0.15506,0.002 0.23254,-0.0574 -0.0984,0.19682 -0.1946,0.29782 -0.28835,0.30283 -0.0937,0.004 -0.1747,-0.0362 -0.24288,-0.12041 l -0.0801,0.0879 v 1.23559 l 0.32298,0.2005 0.0475,-0.0667 v -0.82166 c -0.0566,-0.0117 -0.10052,-0.0491 -0.13229,-0.11162 l -0.22582,0.31936 0.002,-0.11627 0.37878,-0.49299 c 0.0178,0.10174 0.0739,0.16312 0.16847,0.18397 0.0945,0.0208 0.17883,0.001 0.25321,-0.0579 -0.0829,0.17013 -0.1566,0.26798 -0.22169,0.293 l -0.002,0.66818 -0.35657,0.47749 -0.4625,-0.31523 c -0.0511,-0.0334 -0.12148,-0.0343 -0.21136,-0.003 0.0876,-0.0717 0.15376,-0.10474 0.19947,-0.0997 v -1.01492 c -0.0442,-0.003 -0.10985,-0.0384 -0.1974,-0.10594 0.0798,0.0284 0.14497,0.0295 0.19534,0.004 z m -1.14205,0.0238 c 0.002,0.13094 0.0833,0.20135 0.24598,0.21136 l -0.11007,0.14676 -0.001,1.38338 0.1974,0.0863 c 0.0496,-0.0567 0.11088,-0.0834 0.18449,-0.0801 -0.0713,0.0367 -0.16697,0.1447 -0.28784,0.32401 l -0.27802,-0.1049 c -0.0356,0.055 -0.1171,0.0856 -0.24495,0.0915 0.0961,-0.0459 0.16332,-0.11182 0.20206,-0.19688 l 0.001,-1.49862 c -0.0411,-0.007 -0.0726,-0.0255 -0.0951,-0.0563 l -0.19431,0.0703 z m 0.25684,0.27647 v 1.34255 l -0.0651,0.0589 v -1.30999 z m 0.8971,0.58704 0.0651,0.0584 v 0.75447 l -0.0651,0.0589 z m -2.7156,1.18029 -0.76998,0.33177 1.65003,1.65003 0.31833,-0.78394 z m 4.45038,0.003 -1.20355,1.20354 0.33021,0.77205 1.64848,-1.64848 z m -5.29787,0.23254 v 0.0186 l 0.0139,0.0139 z m 2.23087,1.03973 -0.31678,0.7798 h 2.32648 l -0.33642,-0.77928 z m -0.44235,0.7674 0.0124,0.0124 h 0.0176 z" />
  </g>
</svg>
