<?xml version="1.0" encoding="UTF-8" standalone="no"?>
<!-- Created with Inkscape (http://www.inkscape.org/) -->

<svg
   width="5.7152624mm"
   height="6.4041147mm"
   viewBox="0 0 5.7152624 6.4041147"
   version="1.1"
   id="svg1"
   xmlns="http://www.w3.org/2000/svg"
   xmlns:svg="http://www.w3.org/2000/svg">
  <defs
     id="defs1">
    <linearGradient
       id="swatch4">
      <stop
         style="stop-color:#000000;stop-opacity:1;"
         offset="0"
         id="stop4" />
    </linearGradient>
  </defs>
  <g
     id="layer2"
     style="stroke:#ffffff;stroke-opacity:1"
     transform="translate(-2.9471994,-173.56406)">
    <path
       id="path63-83"
       style="fill:#000000;fill-opacity:1;stroke:none;stroke-width:0.174705;stroke-dasharray:none;stroke-opacity:1"
       d="m 5.8047724,173.56409 c -0.1393932,0 -2.0553944,1.09551 -2.6308471,1.48621 0.043748,-0.01 0.091908,-0.0191 0.1498616,-0.0274 0.1607193,-0.0229 0.3771348,-0.0414 0.6330363,-0.0563 0.5118031,-0.0298 1.1797467,-0.0439 1.8479492,-0.0439 0.6682028,0 1.3366629,0.0141 1.848466,0.0439 0.2559012,0.0149 0.4718009,0.0334 0.6325197,0.0563 0.058195,0.008 0.1065045,0.0179 0.1503782,0.0279 -0.5748611,-0.39041 -2.4919317,-1.48673 -2.6313639,-1.48673 z m 0,1.56631 c -0.6651203,0 -1.3302637,0.0145 -1.8355468,0.0439 -0.2526416,0.0147 -0.4658073,0.0338 -0.6159831,0.0553 -0.075088,0.0107 -0.1343837,0.0218 -0.1720825,0.0325 -0.00288,9.8e-4 -0.00307,0.001 -0.00568,0.002 6.689e-4,0.003 -3.112e-4,0.003 5.167e-4,0.007 0.00958,0.038 0.029623,0.095 0.057878,0.16536 0.056509,0.14078 0.1463499,0.33454 0.2599325,0.56069 0.2271651,0.4523 0.5480062,1.03629 0.8805664,1.6123 0.3325602,0.57601 0.6773793,1.14447 0.9554973,1.56735 0.139059,0.21144 0.2613507,0.38659 0.3550171,0.50592 0.046833,0.0597 0.086599,0.10603 0.1147216,0.13332 0.00219,0.002 0.00313,0.002 0.00517,0.004 0.00204,-0.002 0.00246,-0.002 0.00465,-0.004 0.028123,-0.0273 0.068922,-0.0737 0.1157553,-0.13332 0.093666,-0.11933 0.2159581,-0.29448 0.3550171,-0.50592 0.2781179,-0.42288 0.6234535,-0.99134 0.9560142,-1.56735 0.3325603,-0.57601 0.6518511,-1.16 0.8790159,-1.6123 0.1135824,-0.22615 0.2049731,-0.41991 0.2614827,-0.56069 0.028256,-0.0704 0.047784,-0.12735 0.057361,-0.16536 8.563e-4,-0.003 3.478e-4,-0.004 0.00103,-0.007 -0.00261,-9.8e-4 -0.00331,-0.001 -0.0062,-0.002 -0.037699,-0.0107 -0.096995,-0.0218 -0.1720825,-0.0325 -0.1501764,-0.0215 -0.3633417,-0.0406 -0.615983,-0.0553 -0.5052832,-0.0294 -1.1709434,-0.0439 -1.836064,-0.0439 z m -2.8230835,0.21549 c -0.053668,0.65032 -0.044568,2.94002 0.026355,3.06286 0.071464,0.12378 2.0775214,1.29183 2.6504843,1.55908 -0.00109,-0.001 -0.002,-0.002 -0.0031,-0.003 -0.039919,-0.0387 -0.083721,-0.0891 -0.133842,-0.15296 -0.1002423,-0.12771 -0.2250157,-0.30622 -0.3658691,-0.52039 -0.2817067,-0.42833 -0.6281139,-0.999 -0.9622152,-1.57768 C 3.8594,177.13502 3.5383804,176.54919 3.308284,176.09106 3.1932359,175.862 3.1010769,175.6645 3.0406001,175.51384 c -0.02609,-0.065 -0.045157,-0.1192 -0.058911,-0.16795 z m 5.6461671,0.002 c -0.013742,0.0484 -0.032064,0.10208 -0.057878,0.1664 -0.060477,0.15066 -0.153153,0.34816 -0.2682005,0.57722 -0.2300965,0.45813 -0.5505992,1.04396 -0.8847006,1.62264 -0.3341014,0.57868 -0.6810253,1.14935 -0.9627319,1.57768 -0.1408533,0.21417 -0.26511,0.39268 -0.3653527,0.52039 -0.050121,0.0639 -0.09444,0.11421 -0.1343584,0.15296 -9.138e-4,8.8e-4 -0.00167,0.002 -0.00258,0.003 0.5744706,-0.26826 2.5785502,-1.43486 2.6499673,-1.55856 0.070856,-0.12273 0.079338,-2.40851 0.025838,-3.06131 z m -2.8339355,0.50953 c 0.00155,0.13093 0.083269,0.20135 0.2459796,0.21135 l -0.1100706,0.14677 -0.00155,1.38337 0.1979207,0.0863 c 0.049588,-0.0567 0.1108772,-0.0834 0.1844849,-0.0801 -0.071283,0.0367 -0.1669666,0.1447 -0.2878377,0.32401 L 5.744828,177.82421 c -0.035642,0.055 -0.1171018,0.0851 -0.2449463,0.0909 0.096077,-0.0459 0.1633141,-0.1113 0.2020549,-0.19637 l 0.00103,-1.49861 c -0.041065,-0.007 -0.072615,-0.0255 -0.095085,-0.0563 l -0.1943034,0.0703 z m 0.2568319,0.27647 v 1.34255 l -0.065113,0.0589 v -1.31 z" />
  </g>
</svg>
