<?xml version="1.0" encoding="UTF-8" standalone="no"?>
<!-- Created with Inkscape (http://www.inkscape.org/) -->

<svg
   width="7.2042117mm"
   height="6.3608513mm"
   viewBox="0 0 7.2042117 6.3608513"
   version="1.1"
   id="svg1"
   xmlns="http://www.w3.org/2000/svg"
   xmlns:svg="http://www.w3.org/2000/svg">
  <defs
     id="defs1">
    <linearGradient
       id="swatch4">
      <stop
         style="stop-color:#000000;stop-opacity:1;"
         offset="0"
         id="stop4" />
    </linearGradient>
  </defs>
  <g
     id="layer3"
     transform="translate(-71.63956,-134.92922)">
    <path
       id="path280-3-7-64"
       style="fill:#000000;fill-opacity:1;stroke:none;stroke-width:0.250658;stroke-dasharray:none;stroke-opacity:1"
       d="m 75.355607,134.92923 2.607076,4.08864 c 0.50569,-0.47548 0.881083,-0.85971 0.881083,-0.93534 0,-0.20955 -2.852539,-2.76497 -3.488159,-3.1533 z m -0.228926,5.2e-4 c -0.63719,0.38995 -3.487126,2.94332 -3.487126,3.15278 0,0.0756 0.375056,0.4595 0.880566,0.93482 z m 0.114721,0.2868 -2.526977,3.961 -0.07286,-0.0465 c 1.00836,0.93865 2.436751,2.15904 2.599841,2.15904 0.16424,0 1.611629,-1.23749 2.621029,-2.17867 l -0.09767,0.062 z m -0.516247,2.33733 c 0.0039,0.0709 0.05844,0.13429 0.163814,0.19017 0.10615,0.0559 0.218125,0.047 0.335897,-0.0264 l -0.126608,0.14883 v 1.16737 l -0.224275,0.1974 v -0.66145 c 0.100726,-0.004 0.150895,-0.0508 0.150895,-0.14005 0,-0.0901 -0.05017,-0.13519 -0.150895,-0.13436 v -0.28473 c -0.121646,-0.0334 -0.22276,-0.10744 -0.303341,-0.22169 v 0.50539 c -0.100726,0.003 -0.150895,0.0489 -0.150895,0.13643 0,0.0867 0.05017,0.13245 0.150895,0.13746 v 0.7121 l 0.183451,0.12505 0.344165,-0.33279 -0.0057,0.1173 -0.438216,0.44029 -0.311609,-0.19017 c -0.03564,-0.0167 -0.08684,-0.0171 -0.153479,-0.002 0.06431,-0.055 0.11241,-0.0845 0.144177,-0.0878 v -1.35237 c -0.03642,0.0133 -0.09072,-0.0136 -0.16278,-0.0811 0.06431,0.0283 0.118098,0.0295 0.160713,0.004 z m 1.087789,0 c 0.0039,0.0709 0.05844,0.13429 0.163814,0.19017 0.106149,0.0559 0.218125,0.047 0.335897,-0.0264 l -0.126608,0.14883 v 1.16737 l -0.224275,0.1974 v -0.66145 c 0.100726,-0.004 0.151412,-0.0508 0.151412,-0.14005 0,-0.0901 -0.05069,-0.13519 -0.151412,-0.13436 v -0.28473 c -0.121646,-0.0334 -0.22276,-0.10744 -0.303341,-0.22169 v 0.50539 c -0.100726,0.003 -0.150895,0.0489 -0.150895,0.13643 0,0.0867 0.05017,0.13245 0.150895,0.13746 v 0.7121 l 0.183451,0.12505 0.344165,-0.33279 -0.0057,0.1173 -0.438216,0.44029 -0.311609,-0.19017 c -0.03564,-0.0167 -0.08684,-0.0171 -0.153479,-0.002 0.06431,-0.055 0.11241,-0.0845 0.144177,-0.0878 v -1.35237 c -0.03642,0.0133 -0.09072,-0.0136 -0.162781,-0.0811 0.06431,0.0283 0.118099,0.0295 0.160714,0.004 z m -1.095024,0.53898 c 0.0085,0 0.01667,0.002 0.0248,0.006 0.01627,0.008 0.02687,0.0211 0.03152,0.0377 0.0054,0.0158 0.0054,0.0319 0,0.0486 -0.0054,0.0167 -0.01887,0.0294 -0.03979,0.0377 v 0.18758 h 0.10232 c 0.0077,-0.0225 0.01964,-0.0365 0.03514,-0.0424 0.0155,-0.006 0.03024,-0.006 0.04496,0 0.0155,0.005 0.02739,0.0161 0.03514,0.0336 0.0077,0.0175 0.0077,0.0361 0,0.0553 -0.007,0.0183 -0.01913,0.0301 -0.03617,0.0351 -0.01705,0.005 -0.03308,0.003 -0.04858,-0.004 -0.0155,-0.008 -0.02584,-0.0226 -0.03049,-0.046 h -0.101803 l 5.17e-4,0.64182 c 0.02092,0.008 0.03437,0.0205 0.03979,0.0372 0.0054,0.0167 0.0054,0.0335 0,0.0501 -0.0046,0.0159 -0.01525,0.0278 -0.03152,0.0362 -0.01627,0.008 -0.03334,0.009 -0.05116,0.002 -0.01705,-0.008 -0.02791,-0.022 -0.03256,-0.0403 -0.0046,-0.0183 -0.0034,-0.0355 0.0036,-0.0522 0.007,-0.0167 0.0212,-0.0275 0.04289,-0.0325 l -5.17e-4,-0.64182 H 74.59493 c -0.0046,0.0233 -0.01448,0.0385 -0.02997,0.046 -0.0155,0.007 -0.03205,0.009 -0.04909,0.004 -0.01705,-0.005 -0.02946,-0.0168 -0.03721,-0.0351 -0.007,-0.0192 -0.0062,-0.0378 0.0016,-0.0553 0.0077,-0.0175 0.01887,-0.0286 0.03359,-0.0336 0.0155,-0.006 0.03101,-0.006 0.04651,0 0.0155,0.006 0.02688,0.0199 0.03462,0.0424 h 0.110588 v -0.18758 c -0.02169,-0.005 -0.03592,-0.0159 -0.04289,-0.0326 -0.007,-0.0167 -0.0083,-0.0344 -0.0036,-0.0527 0.0046,-0.0183 0.01551,-0.0312 0.03256,-0.0388 0.0089,-0.004 0.01783,-0.006 0.02636,-0.006 z m 1.087789,0 c 0.0085,0 0.01667,0.002 0.02481,0.006 0.01627,0.008 0.02687,0.0211 0.03152,0.0377 0.0054,0.0158 0.0054,0.0319 0,0.0486 -0.0054,0.0167 -0.01887,0.0294 -0.03979,0.0377 v 0.18758 h 0.10232 c 0.0077,-0.0225 0.01964,-0.0365 0.03514,-0.0424 0.0155,-0.006 0.03024,-0.006 0.04496,0 0.0155,0.005 0.02739,0.0161 0.03514,0.0336 0.0077,0.0175 0.0077,0.0361 0,0.0553 -0.007,0.0183 -0.01913,0.0301 -0.03617,0.0351 -0.01705,0.005 -0.03308,0.003 -0.04858,-0.004 -0.0155,-0.008 -0.02584,-0.0226 -0.03049,-0.046 h -0.101803 l 5.17e-4,0.64182 c 0.02092,0.008 0.03437,0.0205 0.03979,0.0372 0.0054,0.0167 0.0054,0.0335 0,0.0501 -0.0046,0.0159 -0.01525,0.0278 -0.03152,0.0362 -0.01627,0.008 -0.03334,0.009 -0.05116,0.002 -0.01705,-0.008 -0.02791,-0.022 -0.03256,-0.0403 -0.0046,-0.0183 -0.0034,-0.0355 0.0036,-0.0522 0.007,-0.0167 0.0212,-0.0275 0.04289,-0.0325 l -5.17e-4,-0.64182 h -0.111104 c -0.0046,0.0233 -0.01448,0.0385 -0.02997,0.046 -0.0155,0.007 -0.03205,0.009 -0.04909,0.004 -0.01705,-0.005 -0.02946,-0.0168 -0.03721,-0.0351 -0.007,-0.0192 -0.0062,-0.0378 0.0016,-0.0553 0.0077,-0.0175 0.01887,-0.0286 0.03359,-0.0336 0.0155,-0.006 0.03101,-0.006 0.04651,0 0.0155,0.006 0.02688,0.0199 0.03462,0.0424 h 0.110587 v -0.18758 c -0.02169,-0.005 -0.03592,-0.0159 -0.04289,-0.0326 -0.007,-0.0167 -0.0083,-0.0344 -0.0036,-0.0527 0.0046,-0.0183 0.01551,-0.0312 0.03256,-0.0388 0.0089,-0.004 0.01783,-0.006 0.02635,-0.006 z" />
  </g>
</svg>
