<?xml version="1.0" encoding="UTF-8" standalone="no"?>
<!-- Created with Inkscape (http://www.inkscape.org/) -->

<svg
   width="5.7152276mm"
   height="6.4037595mm"
   viewBox="0 0 5.7152276 6.4037595"
   version="1.1"
   id="svg1"
   xmlns="http://www.w3.org/2000/svg"
   xmlns:svg="http://www.w3.org/2000/svg">
  <defs
     id="defs1">
    <linearGradient
       id="swatch4">
      <stop
         style="stop-color:#000000;stop-opacity:1;"
         offset="0"
         id="stop4" />
    </linearGradient>
  </defs>
  <g
     id="layer2"
     style="stroke:#ffffff;stroke-opacity:1"
     transform="translate(-49.509477,-173.68964)">
    <path
       id="path63-83-3"
       style="fill:#000000;fill-opacity:1;stroke:none;stroke-width:0.174705;stroke-dasharray:none;stroke-opacity:1"
       d="m 52.36705,173.68966 c -0.139393,0 -2.055394,1.09551 -2.630847,1.48621 0.04375,-0.01 0.09191,-0.0191 0.149862,-0.0274 0.160719,-0.0229 0.377134,-0.0414 0.633036,-0.0563 0.511803,-0.0298 1.179747,-0.0439 1.847949,-0.0439 0.668203,0 1.336663,0.0141 1.848466,0.0439 0.255901,0.0149 0.471801,0.0333 0.63252,0.0563 0.0582,0.008 0.106504,0.0179 0.150378,0.0279 -0.574861,-0.3904 -2.491932,-1.48673 -2.631364,-1.48673 z m 0,1.56631 c -0.66512,0 -1.330263,0.014 -1.835546,0.0434 -0.252641,0.0147 -0.465808,0.0343 -0.615984,0.0558 -0.07509,0.0107 -0.134384,0.0213 -0.172082,0.032 -0.0029,8.2e-4 -0.0031,0.001 -0.0057,0.002 6.7e-4,0.003 -3.13e-4,0.003 5.16e-4,0.007 0.0096,0.038 0.02962,0.095 0.05788,0.16536 0.05651,0.14078 0.14635,0.33454 0.259932,0.56069 0.227165,0.4523 0.548007,1.0363 0.880567,1.61231 0.33256,0.57601 0.677379,1.14446 0.955497,1.56734 0.139059,0.21144 0.261351,0.38659 0.355017,0.50592 0.04683,0.0597 0.0866,0.10603 0.114722,0.13332 0.0022,0.002 0.0031,0.002 0.0052,0.004 0.0021,-0.002 0.0026,-0.002 0.0047,-0.004 0.02812,-0.0273 0.06892,-0.0737 0.115756,-0.13332 0.09367,-0.11933 0.215958,-0.29448 0.355017,-0.50592 0.278117,-0.42288 0.623453,-0.99133 0.956014,-1.56734 0.33256,-0.57601 0.651851,-1.16001 0.879016,-1.61231 0.113582,-0.22615 0.204973,-0.41991 0.261482,-0.56069 0.02826,-0.0704 0.04778,-0.12735 0.05736,-0.16536 8.63e-4,-0.003 3.82e-4,-0.004 10e-4,-0.007 -0.0026,-8.2e-4 -0.0033,-0.001 -0.0062,-0.002 -0.0377,-0.0107 -0.09699,-0.0213 -0.172083,-0.032 -0.150176,-0.0215 -0.363341,-0.0411 -0.615983,-0.0558 -0.505283,-0.0294 -1.170944,-0.0434 -1.836064,-0.0434 z m -2.823083,0.21549 c -0.05367,0.65032 -0.04458,2.94002 0.02636,3.06286 0.07146,0.12378 2.077521,1.29183 2.650484,1.55908 -0.0011,-0.001 -0.002,-0.002 -0.0031,-0.003 -0.03992,-0.0387 -0.08372,-0.0891 -0.133842,-0.15296 -0.100242,-0.12771 -0.225016,-0.30621 -0.36587,-0.52038 -0.281706,-0.42833 -0.628114,-0.99901 -0.962215,-1.57769 -0.334101,-0.57868 -0.655121,-1.16451 -0.885217,-1.62264 -0.115048,-0.22906 -0.207207,-0.42656 -0.267684,-0.57722 -0.02609,-0.065 -0.04516,-0.1192 -0.05891,-0.16795 z m 5.646167,0.002 c -0.01374,0.0484 -0.03206,0.10208 -0.05788,0.1664 -0.06048,0.15067 -0.153153,0.34815 -0.2682,0.57722 -0.230097,0.45813 -0.5506,1.04395 -0.884701,1.62264 -0.334101,0.57867 -0.681025,1.14935 -0.962732,1.57769 -0.140853,0.21416 -0.265109,0.39267 -0.365352,0.52038 -0.05012,0.0639 -0.09444,0.11421 -0.134359,0.15296 -9.04e-4,8.2e-4 -0.0017,0.002 -0.0026,0.002 0.574471,-0.26826 2.57855,-1.43486 2.649968,-1.55856 0.07085,-0.1227 0.0793,-2.40746 0.02584,-3.0608 z m -2.30787,0.37775 c -0.16581,0.23519 -0.330023,0.36494 -0.491959,0.38913 -0.161162,0.0233 -0.28736,-0.0131 -0.378788,-0.10904 l -0.17415,0.0785 0.276469,-0.3514 c 0.05501,0.0801 0.154057,0.12558 0.296623,0.13643 0.142566,0.01 0.299797,-0.0377 0.471805,-0.14367 z m -0.01499,0.0398 c -0.127785,0.29082 -0.229562,0.61584 -0.305407,0.97461 0.106661,0.003 0.223267,-0.0239 0.350366,-0.0811 -0.127365,0.13296 -0.252913,0.20417 -0.377238,0.21446 -0.03617,0.19111 -0.06524,0.39147 -0.08733,0.601 l 0.197404,0.0863 c 0.04959,-0.0567 0.111394,-0.0834 0.185001,-0.0801 -0.07128,0.0367 -0.167483,0.1447 -0.288354,0.32401 l -0.301274,-0.10491 c -0.108474,0.0992 -0.244241,0.12932 -0.407727,0.091 0.16736,0.004 0.288904,-0.0613 0.364836,-0.19638 0.06151,-0.2758 0.121557,-0.51874 0.18035,-0.73018 -0.05483,-0.0124 -0.101655,-0.0349 -0.140559,-0.0677 l -0.133842,0.046 0.21394,-0.20877 c 0.02384,0.0364 0.05842,0.0633 0.103353,0.0811 0.121743,-0.40991 0.237415,-0.67901 0.347266,-0.80667 z m -0.525549,1.16737 -0.187069,0.65784 c -0.0953,-0.0517 -0.205984,-0.0173 -0.332279,0.10283 0.06818,-0.15679 0.171367,-0.23178 0.310058,-0.22427 l 0.05013,-0.14521 c -0.07438,-0.035 -0.163342,-0.0164 -0.267168,0.0553 0.05269,-0.10258 0.154319,-0.15806 0.305408,-0.1664 l 0.07338,-0.22996 z" />
  </g>
</svg>
