<?xml version="1.0" encoding="UTF-8" standalone="no"?>
<!-- Created with Inkscape (http://www.inkscape.org/) -->

<svg
   width="6.2024484mm"
   height="6.2023263mm"
   viewBox="0 0 6.2024484 6.2023263"
   version="1.1"
   id="svg1"
   xmlns="http://www.w3.org/2000/svg"
   xmlns:svg="http://www.w3.org/2000/svg">
  <defs
     id="defs1">
    <linearGradient
       id="swatch4">
      <stop
         style="stop-color:#000000;stop-opacity:1;"
         offset="0"
         id="stop4" />
    </linearGradient>
  </defs>
  <g
     id="layer2"
     style="stroke:#ffffff;stroke-opacity:1"
     transform="translate(-26.019997,-113.25563)">
    <path
       id="path198"
       style="display:inline;fill:#000000;fill-opacity:1;stroke:none;stroke-width:1.00307;stroke-dasharray:none;stroke-opacity:1"
       d="m 18.21611,30.549797 c -7.105349,0 -14.2107988,0.259817 -14.7316372,0.780655 -1.0416769,1.041677 -1.0416769,28.421597 0,29.463274 1.0416769,1.041677 28.4215972,1.041677 29.4632742,0 1.041677,-1.041677 1.041677,-28.421597 0,-29.463274 -0.520838,-0.520838 -7.626288,-0.780655 -14.731637,-0.780655 z m 0.286929,10.313955 c 0.10077,0.508952 0.41123,0.81595 0.930583,0.920243 0.523229,0.104293 0.986333,0.0093 1.393289,-0.28693 -0.457341,0.851034 -1.003234,1.288125 -1.638859,1.313156 -0.631751,0.02503 -1.141424,-0.139129 -1.532877,-0.493726 l -0.687597,0.312779 z m 1.178738,2.003337 v 5.325 l 1.106359,0.0078 v 0.405837 l -1.106359,-0.01292 v 0.801335 l 0.460122,0.356724 c 0.174409,-0.275335 0.471934,-0.408013 0.894393,-0.395498 -0.290683,0.146011 -0.742143,0.780328 -1.354515,1.902524 L 18.699496,50.5263 c -0.372074,0.371284 -0.863636,0.608155 -1.476007,0.708277 0.507725,-0.321224 0.888038,-0.727833 1.139963,-1.220097 V 48.698739 H 15.57946 v -0.475631 l 2.783992,0.0078 v -5.324999 c 0.441838,0.158526 0.880363,0.144782 1.318325,-0.03878 z m -1.393288,0.06204 c -0.534856,0.200243 -1.054876,1.730652 -1.558726,4.588289 -0.717017,0.646618 -1.481526,0.81994 -2.295437,0.519575 0.592993,0.137667 1.241079,-0.684714 1.946469,-2.466044 0.705389,-1.781329 1.341831,-2.662678 1.907694,-2.64182 z"
       transform="matrix(0.1999126,0,0,0.1999126,25.47959,107.14833)" />
  </g>
</svg>
