<?xml version="1.0" encoding="UTF-8" standalone="no"?>
<!-- Created with Inkscape (http://www.inkscape.org/) -->

<svg
   width="5.7251358mm"
   height="5.6291137mm"
   viewBox="0 0 5.7251358 5.6291137"
   version="1.1"
   id="svg1"
   xmlns="http://www.w3.org/2000/svg"
   xmlns:svg="http://www.w3.org/2000/svg">
  <defs
     id="defs1">
    <linearGradient
       id="swatch4">
      <stop
         style="stop-color:#000000;stop-opacity:1;"
         offset="0"
         id="stop4" />
    </linearGradient>
  </defs>
  <g
     id="layer2"
     style="stroke:#ffffff;stroke-opacity:1"
     transform="translate(-134.7691,-181.08921)">
    <path
       id="path24-11-10-82"
       style="display:inline;fill:#000000;fill-opacity:1;stroke:none;stroke-width:0.200527;stroke-dasharray:none;stroke-opacity:1"
       d="m 137.63139,181.0892 c -1.16547,0 -2.32853,0.0383 -2.64066,0.11421 l 2.6665,1.89446 2.59261,-1.90014 c -0.34404,-0.0724 -1.4808,-0.10853 -2.61845,-0.10853 z m 2.75642,0.2558 -2.56935,1.88361 c 0.0366,0.0272 0.0754,0.0602 0.11989,0.1018 0.0994,0.093 0.22203,0.22296 0.36122,0.37827 0.2784,0.31061 0.62086,0.72419 0.95085,1.1436 0.32999,0.4194 0.64697,0.84394 0.87436,1.17616 0.11369,0.16612 0.2046,0.30943 0.26458,0.41909 0.005,0.009 0.008,0.0163 0.0129,0.0248 0.12719,-0.88983 0.12244,-4.44123 -0.0145,-5.12734 z m -5.51594,0.0202 c -0.13548,0.74634 -0.1372,4.35136 -0.004,5.15162 0.0105,-0.0216 0.0224,-0.0442 0.0362,-0.0693 0.06,-0.10966 0.15088,-0.25297 0.26458,-0.41909 0.22739,-0.33222 0.54438,-0.75676 0.87437,-1.17616 0.32998,-0.41941 0.67296,-0.83299 0.95136,-1.1436 0.1392,-0.15531 0.26127,-0.28532 0.3607,-0.37827 0.0479,-0.0448 0.0907,-0.0803 0.12971,-0.10852 z m 2.77451,1.98075 c -0.0268,0.0195 -0.063,0.0504 -0.10697,0.0915 -0.092,0.086 -0.21267,0.21229 -0.34985,0.36535 -0.27436,0.30611 -0.61535,0.71814 -0.94361,1.13534 -0.32825,0.4172 -0.64408,0.83996 -0.86817,1.16737 -0.11205,0.16371 -0.20078,0.30415 -0.25631,0.40566 -0.0265,0.0485 -0.0436,0.0864 -0.0532,0.11317 0.0365,0.007 0.0904,0.0154 0.1602,0.0227 0.14756,0.0155 0.35693,0.0286 0.60616,0.0393 0.49845,0.0213 1.15528,0.032 1.81178,0.032 0.65651,0 1.31383,-0.0108 1.81229,-0.032 0.24922,-0.0106 0.45964,-0.0238 0.6072,-0.0393 0.0702,-0.007 0.12377,-0.0155 0.1602,-0.0227 -0.01,-0.0268 -0.0277,-0.0647 -0.0543,-0.11317 -0.0555,-0.10151 -0.14428,-0.24195 -0.25632,-0.40566 -0.2241,-0.32741 -0.54043,-0.75017 -0.86868,-1.16737 -0.32826,-0.4172 -0.66925,-0.82923 -0.94361,-1.13534 -0.13718,-0.15306 -0.2573,-0.27932 -0.34933,-0.36535 -0.0439,-0.0411 -0.0807,-0.072 -0.10749,-0.0915 z m 0.64337,0.9586 c 0.0315,-0.002 0.0632,0.003 0.0946,0.0134 -0.0464,-0.0131 -0.12048,0.0203 -0.22118,0.0982 0.0214,0.0479 0.0654,0.0921 0.13281,0.1323 0.0945,0.0559 0.20547,0.047 0.33331,-0.0264 l -0.13797,0.14883 v 0.30386 l -0.22118,0.22272 v -0.40773 c -0.0636,-0.0101 -0.12815,-0.038 -0.19378,-0.0837 v 0.57206 l 0.10438,0.0558 0.31058,-0.30748 -0.006,0.11731 -0.22996,0.23771 c 0.0728,0.0325 0.13515,0.0543 0.18707,0.0651 0.0527,0.0108 0.11501,-0.005 0.18706,-0.0486 l -0.13797,0.14882 v 0.37879 l -0.24443,0.23513 v -0.60771 l -0.17053,-0.0816 v 0.60926 l -0.0708,0.0589 v -0.70228 l -0.0816,-0.0393 -0.001,0.76171 0.25786,0.11265 0.31058,-0.30799 -0.006,0.11782 -0.41341,0.41496 -0.3974,-0.19017 c -0.0387,-0.0167 -0.0946,-0.0171 -0.16743,-0.002 0.0705,-0.055 0.12249,-0.0845 0.15658,-0.0879 v -0.65164 c -0.0395,0.0133 -0.098,-0.0136 -0.17621,-0.0811 0.0697,0.0284 0.12766,0.0295 0.17414,0.004 l 0.16485,-0.14624 c -0.11699,-0.006 -0.20414,0.002 -0.26148,0.0248 0.0705,-0.055 0.12275,-0.084 0.15606,-0.0873 v -0.47697 c -0.0387,0.0133 -0.0974,-0.0136 -0.1757,-0.0811 0.0697,0.0284 0.12766,0.0295 0.17415,0.004 l 0.32453,-0.27698 c 0.0825,-0.0903 0.16417,-0.13841 0.24598,-0.14315 z m -1.27589,0.0889 c 0.002,0.13093 0.0838,0.20134 0.2465,0.21135 l -0.11059,0.14625 -10e-4,1.38337 0.19741,0.0863 c 0.0496,-0.0567 0.11139,-0.0829 0.185,-0.0796 -0.0713,0.0367 -0.16748,0.14419 -0.28835,0.3235 l -0.27751,-0.10491 c -0.0356,0.055 -0.11762,0.0856 -0.24546,0.0915 0.0961,-0.0459 0.16331,-0.1113 0.20205,-0.19637 l 0.002,-1.49862 c -0.0411,-0.007 -0.0731,-0.0255 -0.0956,-0.0563 l -0.19378,0.0698 z m 0.93224,0.19998 v 0.61547 l 0.0594,0.0315 v -0.59066 c -0.0198,-0.0174 -0.0395,-0.0358 -0.0594,-0.0563 z m -0.67541,0.0765 v 1.34204 l -0.0651,0.0589 v -1.30999 z" />
  </g>
</svg>
