<?xml version="1.0" encoding="UTF-8" standalone="no"?>
<!-- Created with Inkscape (http://www.inkscape.org/) -->

<svg
   width="5.7251358mm"
   height="5.6291137mm"
   viewBox="0 0 5.7251358 5.6291137"
   version="1.1"
   id="svg1"
   xmlns="http://www.w3.org/2000/svg"
   xmlns:svg="http://www.w3.org/2000/svg">
  <defs
     id="defs1">
    <linearGradient
       id="swatch4">
      <stop
         style="stop-color:#000000;stop-opacity:1;"
         offset="0"
         id="stop4" />
    </linearGradient>
  </defs>
  <g
     id="layer2"
     style="stroke:#ffffff;stroke-opacity:1"
     transform="translate(-142.65853,-181.08921)">
    <path
       id="path24-11-10-3"
       style="display:inline;fill:#000000;fill-opacity:1;stroke:none;stroke-width:0.200527;stroke-dasharray:none;stroke-opacity:1"
       d="m 145.52083,181.0892 c -1.16547,0 -2.32853,0.0383 -2.64066,0.11421 l 2.6665,1.89446 2.59261,-1.90014 c -0.34404,-0.0724 -1.4808,-0.10853 -2.61845,-0.10853 z m 2.75642,0.2558 -2.56935,1.88361 c 0.0366,0.0272 0.0754,0.0602 0.11989,0.1018 0.0994,0.093 0.22203,0.22296 0.36122,0.37827 0.2784,0.31061 0.62086,0.72419 0.95085,1.1436 0.32999,0.4194 0.64697,0.84394 0.87436,1.17616 0.11369,0.16612 0.2046,0.30943 0.26458,0.41909 0.005,0.009 0.008,0.0163 0.0129,0.0248 0.12719,-0.88983 0.12244,-4.44123 -0.0145,-5.12734 z m -5.51594,0.0202 c -0.13548,0.74634 -0.1372,4.35136 -0.004,5.15162 0.0105,-0.0216 0.0224,-0.0442 0.0362,-0.0693 0.06,-0.10966 0.15088,-0.25297 0.26458,-0.41909 0.22739,-0.33222 0.54438,-0.75676 0.87437,-1.17616 0.32998,-0.41941 0.67296,-0.83299 0.95136,-1.1436 0.1392,-0.15531 0.26127,-0.28532 0.3607,-0.37827 0.0479,-0.0448 0.0907,-0.0803 0.12971,-0.10852 z m 2.77451,1.98075 c -0.0268,0.0195 -0.063,0.0504 -0.10697,0.0915 -0.092,0.086 -0.21267,0.21229 -0.34985,0.36535 -0.27436,0.30611 -0.61535,0.71814 -0.94361,1.13534 -0.32825,0.4172 -0.64408,0.83996 -0.86817,1.16737 -0.11205,0.16371 -0.20078,0.30415 -0.25631,0.40566 -0.0265,0.0485 -0.0436,0.0864 -0.0532,0.11317 0.0365,0.007 0.0904,0.0154 0.1602,0.0227 0.14756,0.0155 0.35693,0.0286 0.60616,0.0393 0.49845,0.0213 1.15528,0.032 1.81178,0.032 0.65651,0 1.31383,-0.0108 1.81229,-0.032 0.24922,-0.0106 0.45964,-0.0238 0.6072,-0.0393 0.0702,-0.007 0.12377,-0.0155 0.1602,-0.0227 -0.01,-0.0268 -0.0277,-0.0647 -0.0543,-0.11317 -0.0555,-0.10151 -0.14428,-0.24195 -0.25632,-0.40566 -0.2241,-0.32741 -0.54043,-0.75017 -0.86868,-1.16737 -0.32826,-0.4172 -0.66925,-0.82923 -0.94361,-1.13534 -0.13718,-0.15306 -0.2573,-0.27932 -0.34933,-0.36535 -0.0439,-0.0411 -0.0807,-0.072 -0.10749,-0.0915 z m -0.70642,1.02733 c 0.002,0.13094 0.0838,0.20135 0.2465,0.21136 l -0.11059,0.14624 -10e-4,1.38338 0.1974,0.0863 c 0.0496,-0.0567 0.1114,-0.0834 0.185,-0.0801 -0.0713,0.0367 -0.16748,0.14471 -0.28835,0.32401 l -0.2775,-0.1049 c -0.0356,0.055 -0.11762,0.0856 -0.24547,0.0915 0.0961,-0.0459 0.16383,-0.11131 0.20258,-0.19637 l 0.001,-1.49862 c -0.0411,-0.007 -0.0731,-0.0255 -0.0956,-0.0563 l -0.19379,0.0698 z m 1.17047,0.015 0.38138,0.31522 c 0.0511,0.0334 0.12147,0.0343 0.21135,0.003 -0.0875,0.0717 -0.15427,0.10474 -0.19999,0.0997 v 0.97721 c 0.0442,0.003 0.11037,0.0389 0.19793,0.10645 -0.0798,-0.0284 -0.14498,-0.03 -0.19534,-0.004 l -0.41858,0.56793 c -0.0573,-0.0817 -0.12457,-0.13263 -0.20206,-0.15348 -0.0775,-0.0209 -0.15506,-0.002 -0.23254,0.0574 0.0984,-0.19682 0.1946,-0.2971 0.28836,-0.30127 0.0937,-0.005 0.17469,0.0346 0.24287,0.11885 l 0.0801,-0.11265 v -1.19838 l -0.2651,-0.22531 -0.10593,0.0786 v 0.79685 c 0.0566,0.0117 0.1088,0.0613 0.15606,0.14883 l 0.20205,-0.29352 -0.001,0.14107 -0.26252,0.40515 c -0.0566,-0.10175 -0.1419,-0.1626 -0.25579,-0.18345 -0.1139,-0.0208 -0.20829,-0.002 -0.28267,0.0574 0.0442,-0.12844 0.11838,-0.19682 0.2222,-0.20516 v -0.62787 c -0.0922,0.0134 -0.17314,-0.0193 -0.24288,-0.0977 0.093,0.0109 0.17418,-0.0118 0.24392,-0.0677 z m -0.91364,0.26148 v 1.34204 l -0.0651,0.0589 v -1.31 z m 0.80926,0.0574 v 0.83458 l -0.0651,-0.0589 v -0.71676 z" />
  </g>
</svg>
