<?xml version="1.0" encoding="UTF-8" standalone="no"?>
<!-- Created with Inkscape (http://www.inkscape.org/) -->

<svg
   width="5.7152276mm"
   height="6.4037595mm"
   viewBox="0 0 5.7152276 6.4037595"
   version="1.1"
   id="svg1"
   xmlns="http://www.w3.org/2000/svg"
   xmlns:svg="http://www.w3.org/2000/svg">
  <defs
     id="defs1">
    <linearGradient
       id="swatch4">
      <stop
         style="stop-color:#000000;stop-opacity:1;"
         offset="0"
         id="stop4" />
    </linearGradient>
  </defs>
  <g
     id="layer2"
     style="stroke:#ffffff;stroke-opacity:1"
     transform="translate(-41.907872,-173.68551)">
    <path
       id="path63-83-6"
       style="fill:#000000;fill-opacity:1;stroke:none;stroke-width:0.174705;stroke-dasharray:none;stroke-opacity:1"
       d="m 44.765449,173.68552 c -0.139393,0 -2.055394,1.09552 -2.630847,1.48622 0.04375,-0.01 0.09191,-0.0191 0.149862,-0.0274 0.160719,-0.0229 0.377134,-0.0414 0.633036,-0.0563 0.511803,-0.0298 1.179747,-0.0439 1.847949,-0.0439 0.668203,0 1.336663,0.0141 1.848466,0.0439 0.255901,0.0149 0.471801,0.0333 0.63252,0.0563 0.0582,0.008 0.106504,0.0179 0.150378,0.0279 -0.574861,-0.3904 -2.491932,-1.48673 -2.631364,-1.48673 z m 0,1.56632 c -0.66512,0 -1.330264,0.0145 -1.835547,0.0439 -0.252641,0.0147 -0.465807,0.0338 -0.615983,0.0553 -0.07509,0.0107 -0.134384,0.0219 -0.172082,0.0326 -0.0029,8.2e-4 -0.0031,10e-4 -0.0057,0.002 6.7e-4,0.003 -3.12e-4,0.003 5.17e-4,0.007 0.0096,0.038 0.02962,0.095 0.05788,0.16537 0.05651,0.14078 0.14635,0.33454 0.259932,0.56069 0.227165,0.4523 0.548007,1.03629 0.880567,1.6123 0.33256,0.57601 0.677379,1.14447 0.955497,1.56735 0.139059,0.21144 0.261351,0.38658 0.355017,0.50591 0.04683,0.0597 0.0866,0.10603 0.114722,0.13332 0.0022,0.002 0.0031,0.002 0.0052,0.004 0.0021,-0.002 0.0026,-0.002 0.0047,-0.004 0.02812,-0.0273 0.06892,-0.0737 0.115755,-0.13332 0.09367,-0.11933 0.215958,-0.29447 0.355017,-0.50591 0.278117,-0.42288 0.623453,-0.99134 0.956014,-1.56735 0.33256,-0.57601 0.651852,-1.16 0.879017,-1.6123 0.113582,-0.22615 0.204973,-0.41991 0.261482,-0.56069 0.02826,-0.0704 0.04778,-0.12736 0.05736,-0.16537 8.63e-4,-0.003 3.82e-4,-0.004 0.001,-0.007 -0.0026,-8.2e-4 -0.0033,-0.001 -0.0062,-0.002 -0.0377,-0.0107 -0.09699,-0.0219 -0.172082,-0.0326 -0.150176,-0.0215 -0.363341,-0.0406 -0.615983,-0.0553 -0.505283,-0.0294 -1.170944,-0.0439 -1.836064,-0.0439 z m -2.823083,0.21549 c -0.05367,0.65032 -0.04458,2.94002 0.02635,3.06286 0.07146,0.12378 2.077521,1.29183 2.650484,1.55908 -0.0011,-0.001 -0.002,-0.002 -0.0031,-0.003 -0.03992,-0.0387 -0.08372,-0.0891 -0.133842,-0.15297 -0.100242,-0.12771 -0.225015,-0.30621 -0.365869,-0.52038 -0.281706,-0.42833 -0.628114,-0.999 -0.962215,-1.57768 -0.334101,-0.57868 -0.655121,-1.16451 -0.885217,-1.62264 -0.115048,-0.22906 -0.207207,-0.42657 -0.267684,-0.57723 -0.02609,-0.065 -0.04516,-0.11919 -0.05891,-0.16794 z m 5.646167,0.002 c -0.01374,0.0484 -0.03206,0.10208 -0.05788,0.1664 -0.06048,0.15067 -0.153154,0.34816 -0.268201,0.57723 -0.230097,0.45813 -0.550599,1.04395 -0.8847,1.62264 -0.334101,0.57867 -0.681025,1.14934 -0.962732,1.57768 -0.140853,0.21416 -0.265109,0.39267 -0.365352,0.52038 -0.05012,0.0639 -0.09444,0.11421 -0.134359,0.15296 -9.04e-4,8.2e-4 -0.0017,0.002 -0.0026,0.002 0.574471,-0.26826 2.57855,-1.43486 2.649968,-1.55856 0.07084,-0.1227 0.0793,-2.40746 0.02584,-3.0608 z m -2.764173,0.37931 c 0.01085,0.0817 0.05481,0.13314 0.132292,0.15399 0.07748,0.0208 0.155063,10e-4 0.232544,-0.0579 -0.0984,0.19682 -0.194602,0.29782 -0.288355,0.30282 -0.09375,0.004 -0.174695,-0.0357 -0.242879,-0.11989 l -0.0801,0.0873 v 1.2361 l 0.322977,0.19999 0.04754,-0.0661 v -0.82218 c -0.05656,-0.0117 -0.100524,-0.0485 -0.132292,-0.1111 l -0.225309,0.31884 10e-4,-0.11627 0.378789,-0.49299 c 0.01782,0.10174 0.07394,0.16312 0.168465,0.18397 0.09453,0.0208 0.179349,0.002 0.253731,-0.0574 -0.08291,0.17013 -0.157124,0.26746 -0.222209,0.29248 l -0.001,0.66818 -0.357084,0.47801 -0.462504,-0.31523 c -0.05114,-0.0334 -0.121478,-0.0343 -0.211357,-0.003 0.08755,-0.0717 0.154274,-0.10526 0.199988,-0.10026 v -1.0144 c -0.04417,-0.003 -0.110367,-0.0389 -0.197921,-0.10646 0.07981,0.0284 0.144974,0.0295 0.195337,0.004 z m 0.01137,0.88677 0.06511,0.0589 v 0.75447 l -0.06511,0.0584 z" />
  </g>
</svg>
