<?xml version="1.0" encoding="UTF-8" standalone="no"?>
<!-- Created with Inkscape (http://www.inkscape.org/) -->

<svg
   width="5.7250829mm"
   height="5.6291137mm"
   viewBox="0 0 5.7250829 5.6291137"
   version="1.1"
   id="svg1"
   xmlns="http://www.w3.org/2000/svg"
   xmlns:svg="http://www.w3.org/2000/svg">
  <defs
     id="defs1">
    <linearGradient
       id="swatch4">
      <stop
         style="stop-color:#000000;stop-opacity:1;"
         offset="0"
         id="stop4" />
    </linearGradient>
  </defs>
  <g
     id="layer2"
     style="stroke:#ffffff;stroke-opacity:1"
     transform="translate(-26.162318,-188.63138)">
    <path
       id="path24-11-10-70"
       style="display:inline;fill:#000000;fill-opacity:1;stroke:none;stroke-width:0.200527;stroke-dasharray:none;stroke-opacity:1"
       d="m 29.024585,188.63138 c -1.165468,0 -2.328544,0.0383 -2.640666,0.11421 l 2.666504,1.89445 2.592607,-1.90014 c -0.344045,-0.0724 -1.48079,-0.10852 -2.618445,-0.10852 z m 2.756421,0.2558 -2.569352,1.8836 c 0.0366,0.0272 0.07543,0.0602 0.119889,0.10181 0.09943,0.093 0.222021,0.22296 0.361218,0.37827 0.278395,0.31061 0.62086,0.72419 0.950847,1.1436 0.329988,0.4194 0.646973,0.84393 0.874365,1.17615 0.113695,0.16612 0.204598,0.30944 0.264583,0.4191 0.0049,0.009 0.0084,0.0163 0.01292,0.0248 0.127186,-0.88983 0.122416,-4.44122 -0.01447,-5.12733 z m -5.515943,0.0202 c -0.135481,0.74634 -0.1371,4.35137 -0.0041,5.15163 0.01047,-0.0216 0.0224,-0.0442 0.03617,-0.0693 0.05998,-0.10966 0.150887,-0.25298 0.264583,-0.4191 0.227391,-0.33222 0.544378,-0.75675 0.874365,-1.17615 0.329987,-0.41941 0.67297,-0.83299 0.951364,-1.1436 0.139198,-0.15531 0.261274,-0.28532 0.360701,-0.37827 0.0479,-0.0448 0.09066,-0.0803 0.129708,-0.10852 z m 2.774508,1.98076 c -0.02679,0.0195 -0.06305,0.0504 -0.10697,0.0915 -0.09203,0.086 -0.21267,0.21229 -0.34985,0.36535 -0.27436,0.30611 -0.615356,0.71813 -0.943611,1.13533 -0.328254,0.4172 -0.644068,0.83996 -0.868164,1.16737 -0.112047,0.16371 -0.200791,0.30415 -0.256315,0.40566 -0.02652,0.0485 -0.0436,0.0864 -0.05323,0.11317 0.03645,0.007 0.09037,0.0154 0.160197,0.0227 0.147557,0.0155 0.356937,0.0286 0.606164,0.0393 0.498455,0.0213 1.155267,0.032 1.811776,0.032 0.656509,0 1.313838,-0.0108 1.812293,-0.032 0.249228,-0.0106 0.459641,-0.0238 0.607198,-0.0393 0.07023,-0.007 0.123761,-0.0155 0.160197,-0.0227 -0.0096,-0.0268 -0.02773,-0.0647 -0.05426,-0.11317 -0.05552,-0.10151 -0.144267,-0.24195 -0.256315,-0.40566 -0.224095,-0.32741 -0.540426,-0.75017 -0.868681,-1.16737 -0.09811,-0.1247 -0.196801,-0.24737 -0.295072,-0.36845 -0.07097,0.0828 -0.150128,0.12675 -0.238228,0.13022 -0.126295,0.005 -0.228702,-0.0278 -0.306958,-0.0987 l -0.136943,0.0625 0.306441,-0.35295 c 0.02015,0.10174 0.08221,0.16312 0.186036,0.18397 0.04624,0.009 0.09008,0.01 0.131774,0.004 -0.20997,-0.25704 -0.414597,-0.49912 -0.590661,-0.69556 -0.137179,-0.15306 -0.2573,-0.27932 -0.349333,-0.36535 -0.04392,-0.0411 -0.0807,-0.072 -0.107487,-0.0915 z m -0.804085,0.95343 c 0.04339,0.10175 0.113471,0.1681 0.210323,0.19895 0.09685,0.03 0.23236,-0.0315 0.406693,-0.185 -0.123195,0.2502 -0.242929,0.38899 -0.359151,0.41651 -0.115447,0.0275 -0.228715,-0.0302 -0.339514,-0.17363 l -0.136942,0.0713 z m 0.642338,0.0202 v 0.90589 l -0.580843,0.5178 v 0.41031 l 0.533301,-0.002 c 0.07283,-0.17347 0.181187,-0.28757 0.324528,-0.34261 -0.14644,0.0901 -0.250399,0.28048 -0.311609,0.57154 l -0.742591,-0.002 c -0.133268,0.008 -0.24214,-0.0163 -0.326595,-0.0713 0.150314,0.004 0.244446,-0.0364 0.283187,-0.12144 V 193.344 l 0.595313,-0.53433 v -0.60565 c 0.07438,-0.05 0.149377,-0.16414 0.225309,-0.34262 z m -0.252181,0.35916 -0.001,0.5643 c -0.116222,-0.0592 -0.230008,-0.0629 -0.341581,-0.0103 0.03874,-0.0934 0.130804,-0.13101 0.276469,-0.11266 v -0.14107 c -0.0891,-0.0409 -0.173667,-0.0291 -0.254248,0.0351 0.01782,-0.0984 0.102384,-0.14668 0.254248,-0.14418 v -0.14521 z m 1.379761,0.0325 v 1.06454 l 0.220658,0.001 v 0.0816 l -0.220658,-0.003 v 0.1602 l 0.09198,0.0713 c 0.03487,-0.055 0.09435,-0.0816 0.1788,-0.0791 -0.05811,0.0292 -0.148364,0.156 -0.270784,0.38034 l -0.196371,-0.14625 c -0.07438,0.0742 -0.172651,0.12107 -0.295072,0.14108 0.101501,-0.0642 0.177013,-0.1455 0.227376,-0.24391 v -0.26252 h -0.556555 v -0.0951 l 0.556555,0.001 v -1.06453 c 0.08833,0.0317 0.176513,0.0295 0.264067,-0.007 z m -0.279053,0.0124 c -0.106925,0.04 -0.210883,0.34547 -0.311609,0.91674 -0.143341,0.12927 -0.296176,0.16392 -0.458887,0.10387 0.118547,0.0275 0.248108,-0.13636 0.389124,-0.49247 0.141016,-0.35611 0.268249,-0.53231 0.381372,-0.52814 z" />
  </g>
</svg>
