<?xml version="1.0" encoding="UTF-8" standalone="no"?>
<!-- Created with Inkscape (http://www.inkscape.org/) -->

<svg
   width="7.2042117mm"
   height="6.3608513mm"
   viewBox="0 0 7.2042117 6.3608513"
   version="1.1"
   id="svg1"
   xmlns="http://www.w3.org/2000/svg"
   xmlns:svg="http://www.w3.org/2000/svg">
  <defs
     id="defs1">
    <linearGradient
       id="swatch4">
      <stop
         style="stop-color:#000000;stop-opacity:1;"
         offset="0"
         id="stop4" />
    </linearGradient>
  </defs>
  <g
     id="layer3"
     transform="translate(-56.115442,-134.92922)">
    <path
       id="path280-3-7-50"
       style="fill:#000000;fill-opacity:1;stroke:none;stroke-width:0.250658;stroke-dasharray:none;stroke-opacity:1"
       d="m 59.83149,134.92923 2.607076,4.08864 c 0.50569,-0.47548 0.881083,-0.85971 0.881083,-0.93534 0,-0.20955 -2.852539,-2.76497 -3.488159,-3.1533 z m -0.228927,5.2e-4 c -0.63719,0.38995 -3.487125,2.94332 -3.487125,3.15278 0,0.0756 0.375056,0.4595 0.880566,0.93482 z m 0.114722,0.2868 -2.526977,3.961 -0.07286,-0.0465 c 1.00836,0.93865 2.436751,2.15904 2.599841,2.15904 0.16424,0 1.611629,-1.23749 2.621029,-2.17867 l -0.09767,0.062 z m -0.267167,2.24999 c 0.02359,0.001 0.04726,0.006 0.0708,0.014 -0.04639,-0.0131 -0.12045,0.0197 -0.221175,0.0977 0.02135,0.0479 0.06542,0.0921 0.132808,0.13229 0.09453,0.0559 0.205985,0.047 0.33383,-0.0264 l -0.138493,0.14883 v 0.30437 l -0.220658,0.22221 v -0.40772 c -0.06366,-0.0101 -0.128667,-0.038 -0.194304,-0.0837 v 0.57206 l 0.104387,0.0558 0.310575,-0.30748 -0.0057,0.11731 -0.230477,0.23771 c 0.07283,0.0325 0.135156,0.0543 0.187068,0.0651 0.05269,0.0109 0.115528,-0.005 0.187586,-0.0486 l -0.138493,0.14883 v 0.37878 l -0.243913,0.23513 v -0.60771 l -0.171049,-0.0822 v 0.6103 l -0.0708,0.0584 v -0.70228 l -0.08165,-0.0393 -10e-4,0.76171 0.257866,0.11265 0.310575,-0.30799 -0.0057,0.11782 -0.413929,0.41548 -0.397391,-0.19017 c -0.03874,-0.0167 -0.0946,-0.0176 -0.167432,-0.003 0.07051,-0.055 0.123004,-0.0845 0.157096,-0.0879 v -0.65164 c -0.03952,0.0133 -0.09848,-0.0136 -0.176733,-0.0811 0.06973,0.0283 0.127661,0.0295 0.174149,0.004 l 0.164848,-0.14624 c -0.116997,-0.006 -0.204146,0.002 -0.261483,0.0248 0.07051,-0.055 0.122746,-0.084 0.156063,-0.0873 v -0.47645 c -0.03874,0.0133 -0.09744,-0.0141 -0.1757,-0.0816 0.06973,0.0283 0.128178,0.0295 0.174667,0.004 l 0.325561,-0.27853 c 0.08981,-0.0977 0.179166,-0.14539 0.268201,-0.1416 z m 0.860929,0.0915 c 0.0039,0.0709 0.05844,0.13429 0.163815,0.19017 0.106149,0.0559 0.218125,0.047 0.335896,-0.0263 l -0.126607,0.14882 v 1.16737 l -0.224276,0.19741 v -0.66198 c 0.100726,-0.004 0.151412,-0.0508 0.151412,-0.14004 0,-0.0901 -0.05069,-0.13468 -0.151412,-0.13384 v -0.28526 c -0.121645,-0.0333 -0.222759,-0.10691 -0.30334,-0.22117 v 0.5054 c -0.100726,0.003 -0.150895,0.0488 -0.150895,0.13642 0,0.0867 0.05017,0.13246 0.150895,0.13746 v 0.71158 l 0.183968,0.12558 0.343648,-0.3328 -0.0057,0.11731 -0.438216,0.44028 -0.311609,-0.19017 c -0.03564,-0.0167 -0.08633,-0.0176 -0.152962,-0.003 0.06431,-0.055 0.111893,-0.084 0.14366,-0.0873 v -1.35237 c -0.03642,0.0134 -0.09021,-0.0136 -0.162264,-0.0811 0.06431,0.0284 0.117582,0.0295 0.160197,0.004 z m -1.228348,0.19741 v 0.61546 l 0.05943,0.0315 v -0.59066 c -0.01972,-0.0174 -0.03953,-0.0358 -0.05943,-0.0563 z m 1.221114,0.34158 c 0.0085,0 0.01667,0.002 0.0248,0.006 0.01627,0.008 0.02687,0.021 0.03152,0.0377 0.0054,0.0159 0.0054,0.0319 0,0.0486 -0.0054,0.0167 -0.01887,0.0294 -0.03979,0.0377 l 5.17e-4,0.18759 h 0.101802 c 0.0077,-0.0225 0.01964,-0.0365 0.03514,-0.0424 0.0155,-0.006 0.03024,-0.006 0.04496,0 0.0155,0.005 0.02739,0.0161 0.03514,0.0336 0.0077,0.0175 0.0077,0.0361 0,0.0553 -0.007,0.0183 -0.01913,0.0296 -0.03617,0.0346 -0.01705,0.005 -0.03308,0.004 -0.04857,-0.004 -0.0155,-0.007 -0.02584,-0.0226 -0.03049,-0.046 H 60.32087 l 10e-4,0.6413 c 0.02092,0.008 0.03385,0.0211 0.03927,0.0377 0.0054,0.0167 0.0054,0.0334 0,0.0501 -0.0046,0.0159 -0.01525,0.0278 -0.03152,0.0362 -0.01627,0.008 -0.03334,0.009 -0.05116,0.001 -0.01705,-0.008 -0.02791,-0.0214 -0.03256,-0.0398 -0.0046,-0.0183 -0.0034,-0.036 0.0036,-0.0527 0.007,-0.0167 0.0212,-0.0276 0.04289,-0.0326 l -5.17e-4,-0.6413 h -0.111104 c -0.0046,0.0234 -0.01448,0.0385 -0.02997,0.046 -0.0155,0.008 -0.03153,0.009 -0.04857,0.004 -0.01705,-0.005 -0.02946,-0.0163 -0.03721,-0.0346 -0.007,-0.0192 -0.0067,-0.0378 10e-4,-0.0553 0.0077,-0.0175 0.01887,-0.0286 0.03359,-0.0336 0.0155,-0.006 0.03101,-0.006 0.04651,0 0.0155,0.006 0.02687,0.0199 0.03462,0.0424 h 0.110587 v -0.18759 c -0.02169,-0.005 -0.03592,-0.0159 -0.04289,-0.0325 -0.007,-0.0167 -0.0083,-0.0344 -0.0036,-0.0527 0.0046,-0.0183 0.01551,-0.0313 0.03256,-0.0388 0.0089,-0.004 0.01783,-0.006 0.02635,-0.006 z" />
  </g>
</svg>
