<?xml version="1.0" encoding="UTF-8" standalone="no"?>
<!-- Created with Inkscape (http://www.inkscape.org/) -->

<svg
   width="6.1489787mm"
   height="6.1491561mm"
   viewBox="0 0 6.1489787 6.1491561"
   version="1.1"
   id="svg1"
   xmlns="http://www.w3.org/2000/svg"
   xmlns:svg="http://www.w3.org/2000/svg">
  <defs
     id="defs1">
    <linearGradient
       id="swatch4">
      <stop
         style="stop-color:#000000;stop-opacity:1;"
         offset="0"
         id="stop4" />
    </linearGradient>
  </defs>
  <g
     id="layer3"
     transform="translate(-134.55717,-166.14386)">
    <path
       id="path225-00-97"
       style="fill:#000000;fill-opacity:1;stroke:none;stroke-width:0.200527;stroke-dasharray:none;stroke-opacity:1"
       d="m 136.35809,166.14386 -0.015,0.015 0.0367,-0.015 z m 0.108,0 0.31678,0.7798 1.69705,-5.2e-4 0.31057,-0.77876 z m 2.43448,0 0.008,0.003 -0.003,-0.003 z m 0.0765,0.0718 -0.31265,0.7891 1.18753,1.18804 0.77773,-0.32452 z m -2.69648,0.006 -1.64848,1.64847 0.78032,0.32143 1.18545,-1.18494 z m 0.48318,0.90175 -1.2268,1.22731 v 1.7353 l 1.2268,1.22783 1.73529,-0.001 1.2268,-1.2268 5.1e-4,-1.7353 -1.22731,-1.22679 z m -2.19109,0.80615 -0.0155,0.0155 v 0.0222 z m 6.13348,0.12558 -0.77928,0.32452 v 1.67277 l 0.77928,0.32918 z m -6.14898,0.001 v 2.32699 l 0.77928,-0.33486 v -1.6707 z m 3.73311,0.0661 c 0.0315,-0.002 0.0627,0.003 0.0941,0.0134 -0.0464,-0.0131 -0.12036,0.0201 -0.22118,0.0982 0.0214,0.0479 0.0654,0.0921 0.13281,0.13229 0.0945,0.0559 0.20599,0.047 0.33383,-0.0264 l -0.13849,0.14883 v 0.30386 l -0.22066,0.22272 v -0.40772 c -0.0637,-0.0101 -0.1286,-0.0385 -0.1943,-0.0842 v 0.57258 l 0.10438,0.0558 0.31058,-0.30799 -0.006,0.11782 -0.23047,0.23771 c 0.0728,0.0325 0.13515,0.0543 0.18707,0.0651 0.0527,0.0109 0.11552,-0.006 0.18758,-0.0491 l -0.13849,0.14883 v 0.3793 l -0.24391,0.23513 v -0.60823 l -0.17105,-0.0822 v 0.6103 l -0.0708,0.0589 v -0.70279 l -0.0816,-0.0393 -0.001,0.76171 0.25786,0.11266 0.31058,-0.30748 -0.006,0.11731 -0.41392,0.41548 -0.3974,-0.19017 c -0.0387,-0.0167 -0.0946,-0.0176 -0.16743,-0.003 0.0705,-0.055 0.12301,-0.084 0.1571,-0.0873 v -0.65164 c -0.0395,0.0133 -0.0985,-0.0141 -0.17673,-0.0817 0.0697,0.0284 0.12766,0.03 0.17414,0.004 l 0.16485,-0.14676 c -0.11699,-0.006 -0.20414,0.003 -0.26148,0.0253 0.0705,-0.055 0.12275,-0.0845 0.15606,-0.0878 v -0.47646 c -0.0387,0.0133 -0.0974,-0.0136 -0.1757,-0.0811 0.0697,0.0283 0.12818,0.0295 0.17467,0.004 l 0.32246,-0.27595 c 0.0829,-0.0913 0.16579,-0.13941 0.24805,-0.14418 z m -1.27641,0.0884 c 0.002,0.13094 0.0838,0.20135 0.2465,0.21136 l -0.11008,0.14676 -0.002,1.38338 0.19793,0.0863 c 0.0496,-0.0567 0.11087,-0.0834 0.18448,-0.0801 -0.0713,0.0367 -0.16748,0.1447 -0.28835,0.32401 l -0.27751,-0.1049 c -0.0356,0.055 -0.11762,0.0856 -0.24546,0.0915 0.0961,-0.0459 0.16383,-0.11182 0.20257,-0.19688 l 10e-4,-1.49862 c -0.0411,-0.007 -0.0726,-0.0255 -0.0951,-0.0563 l -0.1943,0.0703 z m 0.93224,0.20051 v 0.61546 l 0.0594,0.0315 v -0.59066 c -0.0198,-0.0174 -0.0395,-0.0358 -0.0594,-0.0563 z m -0.67541,0.076 v 1.34255 l -0.0651,0.0589 v -1.30999 z m -1.86604,1.7508 -0.76997,0.33176 1.65002,1.65003 0.31833,-0.78393 z m 4.45038,0.003 -1.20354,1.20354 0.33021,0.77205 1.64848,-1.64848 z m -5.29787,0.23254 v 0.0186 l 0.0139,0.014 z m 2.23087,1.03973 -0.31677,0.7798 h 2.32647 l -0.33641,-0.77928 z m -0.44235,0.7674 0.0124,0.0124 h 0.0176 z" />
  </g>
</svg>
