<?xml version="1.0" encoding="UTF-8" standalone="no"?>
<!-- Created with Inkscape (http://www.inkscape.org/) -->

<svg
   width="6.1489787mm"
   height="6.1489787mm"
   viewBox="0 0 6.1489787 6.1489787"
   version="1.1"
   id="svg1"
   xmlns="http://www.w3.org/2000/svg"
   xmlns:svg="http://www.w3.org/2000/svg">
  <defs
     id="defs1">
    <linearGradient
       id="swatch4">
      <stop
         style="stop-color:#000000;stop-opacity:1;"
         offset="0"
         id="stop4" />
    </linearGradient>
  </defs>
  <g
     id="layer2"
     style="stroke:#ffffff;stroke-opacity:1"
     transform="translate(-80.384758,-166.17435)">
    <path
       id="path225-00-6"
       style="fill:#000000;fill-opacity:1;stroke:none;stroke-width:0.200527;stroke-dasharray:none;stroke-opacity:1"
       d="m 82.185681,166.17435 -0.01499,0.015 0.03669,-0.015 z m 0.108004,0 0.316776,0.7798 1.697054,-0.001 0.310576,-0.77877 z m 2.434477,0 0.0078,0.003 -0.0026,-0.003 z m 0.07648,0.0718 -0.312643,0.7891 1.187525,1.18804 0.77773,-0.32452 z m -2.696476,0.006 -1.648479,1.64848 0.780314,0.32091 1.185975,-1.18494 z m 0.483174,0.90176 -1.226798,1.22731 v 1.7353 l 1.226798,1.22783 1.735295,-0.001 1.226798,-1.2268 5.17e-4,-1.7353 -1.227315,-1.2268 z m -2.191081,0.80615 -0.0155,0.0155 v 0.0222 z m 6.133476,0.12557 -0.77928,0.32453 v 1.67277 l 0.77928,0.32866 z m -6.148979,0.001 v 2.32699 l 0.779281,-0.33487 v -1.67069 z m 2.579171,0.12609 c 0.0016,0.13093 0.08327,0.20135 0.24598,0.21135 l -0.110071,0.14677 -10e-4,1.38337 0.197404,0.0863 c 0.04959,-0.0567 0.111394,-0.0834 0.185001,-0.0801 -0.07128,0.0367 -0.167483,0.1447 -0.288354,0.32401 l -0.278019,-0.10491 c -0.03564,0.055 -0.117102,0.0851 -0.244947,0.0909 0.09608,-0.0459 0.163314,-0.1113 0.202055,-0.19637 l 10e-4,-1.49861 c -0.04107,-0.007 -0.07261,-0.0255 -0.09508,-0.0563 l -0.194303,0.0703 z m 0.854212,0 c 0.0015,0.13093 0.08379,0.20135 0.246496,0.21135 l -0.110587,0.14677 -0.001,1.38337 0.197404,0.0863 c 0.04959,-0.0567 0.111394,-0.0834 0.185002,-0.0801 -0.07128,0.0367 -0.167484,0.1447 -0.288355,0.32401 l -0.278019,-0.10491 c -0.03564,0.055 -0.117102,0.0851 -0.244946,0.0909 0.09608,-0.0459 0.163314,-0.1113 0.202055,-0.19637 l 10e-4,-1.49861 c -0.04106,-0.007 -0.07261,-0.0255 -0.09508,-0.0563 l -0.194303,0.0703 z m -0.59738,0.27647 v 1.34255 l -0.06511,0.0589 v -1.31 z m 0.854212,0 v 1.34255 l -0.06511,0.0589 v -1.31 z m -2.842721,1.77922 -0.769979,0.33176 1.650029,1.65003 0.318326,-0.78393 z m 4.450374,0.003 -1.203544,1.20354 0.330213,0.77205 1.648478,-1.64848 z m -5.297868,0.23254 v 0.0186 l 0.01395,0.0139 z m 2.230872,1.03973 -0.316776,0.7798 h 2.326473 l -0.336414,-0.77928 z m -0.44235,0.7674 0.0124,0.0124 h 0.01757 z" />
  </g>
</svg>
