<?xml version="1.0" encoding="UTF-8" standalone="no"?>
<!-- Created with Inkscape (http://www.inkscape.org/) -->

<svg
   width="5.670455mm"
   height="5.9009318mm"
   viewBox="0 0 5.670455 5.9009318"
   version="1.1"
   id="svg1"
   xmlns="http://www.w3.org/2000/svg"
   xmlns:svg="http://www.w3.org/2000/svg">
  <defs
     id="defs1">
    <linearGradient
       id="swatch4">
      <stop
         style="stop-color:#000000;stop-opacity:1;"
         offset="0"
         id="stop4" />
    </linearGradient>
  </defs>
  <g
     id="layer2"
     style="stroke:#ffffff;stroke-opacity:1"
     transform="translate(-95.965201,-195.61234)">
    <path
       id="path237-317-04-37"
       style="fill:#000000;fill-opacity:1;stroke:none;stroke-width:0.200527;stroke-dasharray:none;stroke-opacity:1"
       d="m 98.800171,195.61235 c -0.127651,0 -1.630989,0.48824 -1.734261,0.56327 -0.103272,0.075 -1.032323,1.35396 -1.071769,1.47536 -0.01828,0.0563 -0.02761,0.42791 -0.02894,0.82063 0.0077,-0.005 0.01437,-0.009 0.02274,-0.014 0.07448,-0.0438 0.177027,-0.097 0.299724,-0.15709 0.245394,-0.12015 0.572008,-0.26756 0.907955,-0.41135 0.335947,-0.14379 0.680484,-0.28356 0.961181,-0.3886 0.140348,-0.0525 0.264063,-0.0963 0.366386,-0.12816 0.05116,-0.0159 0.0965,-0.0286 0.139527,-0.0388 0.04303,-0.0101 0.0759,-0.0207 0.151412,-0.0207 0.07551,0 0.108383,0.0105 0.151411,0.0207 0.04303,0.0101 0.08837,0.0228 0.139527,0.0388 0.102323,0.0319 0.226038,0.0756 0.366386,0.12816 0.280696,0.10504 0.62576,0.24481 0.9617,0.3886 0.33596,0.14379 0.66256,0.2912 0.90795,0.41135 0.12024,0.0589 0.22047,0.11071 0.29456,0.15399 -0.002,-0.38625 -0.0109,-0.74812 -0.0289,-0.80357 -0.0394,-0.1214 -0.96901,-1.40033 -1.07229,-1.47536 -0.10327,-0.075 -1.606606,-0.56327 -1.734257,-0.56327 z m 0.01395,1.83555 c -0.0016,3.3e-4 -0.0019,1.1e-4 -0.0036,5.1e-4 -0.02466,0.006 -0.06222,0.016 -0.10697,0.03 -0.0895,0.0279 -0.208386,0.0699 -0.344682,0.12092 -0.06055,0.0226 -0.133982,0.0521 -0.200504,0.078 0.04057,0.0436 0.106248,0.0683 0.197404,0.0739 l -0.110588,0.14624 -0.001,1.3839 0.197404,0.0863 c 0.04959,-0.0567 0.111395,-0.0834 0.185002,-0.0801 -0.06534,0.0336 -0.1519,0.12767 -0.258899,0.28112 0.132361,0.0494 0.248464,0.0905 0.335897,0.11782 0.04475,0.0139 0.08231,0.0242 0.10697,0.03 0.0017,4e-4 0.002,1.9e-4 0.0036,5.2e-4 0.0016,-3.3e-4 0.0019,-1.2e-4 0.0036,-5.2e-4 0.02466,-0.006 0.06222,-0.016 0.10697,-0.03 0.0895,-0.0279 0.208902,-0.0699 0.345199,-0.12092 0.08002,-0.0299 0.174681,-0.0679 0.264583,-0.10336 l -0.207222,-0.1912 v -0.6475 l -0.360185,-0.14263 0.360185,-0.16898 v -0.66198 l 0.241845,0.20877 c 0.05036,0.0259 0.115531,0.0247 0.195337,-0.004 -0.08755,0.0676 -0.153756,0.10311 -0.197921,0.10645 v 0.3514 l -0.44235,0.154 0.441317,0.15399 v 0.73277 c 0.04699,0.001 0.09267,0.0165 0.136942,0.0429 0.166791,-0.0674 0.340885,-0.13998 0.513665,-0.21394 0.33219,-0.14218 0.6562,-0.28795 0.89451,-0.40462 0.11915,-0.0583 0.21702,-0.1095 0.28216,-0.1478 0.0326,-0.0192 0.0567,-0.0354 0.0703,-0.046 9.9e-4,-7.7e-4 8e-4,-3.6e-4 0.002,-0.002 -8.1e-4,-7.4e-4 -6.2e-4,-8.5e-4 -0.002,-0.002 -0.0136,-0.0106 -0.0377,-0.0268 -0.0703,-0.046 -0.0651,-0.0383 -0.16301,-0.0895 -0.28216,-0.14779 -0.23831,-0.11668 -0.56232,-0.26245 -0.89451,-0.40463 -0.332184,-0.14219 -0.673604,-0.28092 -0.946196,-0.38292 -0.136297,-0.051 -0.255701,-0.093 -0.345199,-0.12092 -0.04475,-0.0139 -0.08231,-0.0242 -0.10697,-0.03 -0.0017,-4e-4 -0.002,-1.8e-4 -0.0036,-5.1e-4 z m 0.09612,0.0656 c 0.01705,0.10174 0.0729,0.16311 0.167431,0.18396 0.09453,0.0209 0.176247,0.002 0.24598,-0.0574 -0.07748,0.20349 -0.172906,0.30967 -0.286804,0.31885 -0.113898,0.009 -0.20415,-0.0425 -0.270785,-0.15503 l -0.125573,0.0749 z m -1.064535,0.28783 c -0.142423,0.0581 -0.288253,0.11867 -0.433565,0.18087 -0.332185,0.14218 -0.655693,0.28795 -0.894002,0.40463 -0.119154,0.0583 -0.217007,0.10948 -0.282154,0.14779 -0.03257,0.0191 -0.05671,0.0354 -0.07028,0.046 -9.88e-4,7.7e-4 -7.89e-4,8.8e-4 -0.0015,0.002 8.11e-4,7.4e-4 6.13e-4,3.3e-4 0.0015,0.002 0.01357,0.0106 0.03771,0.0268 0.07028,0.046 0.06515,0.0383 0.163,0.0894 0.282154,0.1478 0.238309,0.11667 0.561817,0.26244 0.894002,0.40462 0.201667,0.0863 0.401055,0.1681 0.592212,0.24443 0.0047,-0.008 0.0089,-0.017 0.01292,-0.0258 l 0.0015,-1.49862 c -0.04107,-0.007 -0.07313,-0.0255 -0.0956,-0.0563 l -0.193787,0.0703 z m 0.520382,0.015 v 1.34255 l -0.06511,0.0584 v -1.30948 z m 0.926558,0.82682 -0.0016,0.56431 c -0.116222,-0.0592 -0.230008,-0.0624 -0.341581,-0.01 0.03874,-0.0934 0.130804,-0.131 0.276469,-0.11265 v -0.1416 c -0.0891,-0.0409 -0.173668,-0.0291 -0.254248,0.0351 0.01782,-0.0984 0.102384,-0.14616 0.254248,-0.14366 v -0.14521 z m -3.327445,0.0496 c 0.0018,0.37797 0.01126,0.72746 0.02894,0.78187 0.03945,0.12141 0.968498,1.40033 1.071769,1.47536 0.103272,0.075 1.60661,0.56327 1.734261,0.56327 0.12765,0 1.630999,-0.48824 1.734259,-0.56327 0.10328,-0.075 1.03284,-1.35395 1.07229,-1.47536 0.0174,-0.0536 0.0264,-0.39355 0.0284,-0.76482 -0.074,0.0433 -0.17398,0.0952 -0.29404,0.154 -0.24539,0.12014 -0.572,0.26755 -0.90795,0.41134 -0.20232,0.0866 -0.40296,0.1685 -0.595833,0.24547 0.0113,0.0144 0.02301,0.0297 0.03411,0.046 -0.01187,-0.0155 -0.0289,-0.0285 -0.04961,-0.0398 -0.121524,0.0484 -0.243455,0.0969 -0.350366,0.13694 -0.140348,0.0525 -0.264063,0.0963 -0.366386,0.12816 -0.05116,0.0159 -0.0965,0.0291 -0.139527,0.0393 -0.04303,0.0101 -0.0759,0.0202 -0.151411,0.0202 -0.07551,0 -0.108384,-0.01 -0.151412,-0.0202 -0.04303,-0.0101 -0.08836,-0.0233 -0.139527,-0.0393 -0.102323,-0.0319 -0.226038,-0.0756 -0.366386,-0.12816 -0.06543,-0.0245 -0.143008,-0.0558 -0.214457,-0.0837 -0.03553,0.01 -0.07795,0.0153 -0.127124,0.0176 0.02533,-0.0121 0.04842,-0.0255 0.06976,-0.0403 -0.219859,-0.0866 -0.452712,-0.18086 -0.689363,-0.28216 -0.335947,-0.14379 -0.662561,-0.2912 -0.907955,-0.41134 -0.122697,-0.0601 -0.225241,-0.1133 -0.299724,-0.1571 -0.0084,-0.005 -0.01505,-0.009 -0.02274,-0.0139 z m 2.940389,0.47336 c 0.02557,0.10174 0.07858,0.16312 0.159163,0.18397 0.08058,0.0208 0.172385,0.002 0.275436,-0.0574 -0.09685,0.18682 -0.204431,0.28893 -0.322978,0.30645 -0.117772,0.0175 -0.226644,-0.03 -0.326595,-0.14263 L 98.5175,199.519 Z" />
  </g>
</svg>
