<?xml version="1.0" encoding="UTF-8" standalone="no"?>
<!-- Created with Inkscape (http://www.inkscape.org/) -->

<svg
   width="5.628593mm"
   height="6.2502718mm"
   viewBox="0 0 5.628593 6.2502718"
   version="1.1"
   id="svg1"
   xmlns="http://www.w3.org/2000/svg"
   xmlns:svg="http://www.w3.org/2000/svg">
  <defs
     id="defs1">
    <linearGradient
       id="swatch4">
      <stop
         style="stop-color:#000000;stop-opacity:1;"
         offset="0"
         id="stop4" />
    </linearGradient>
  </defs>
  <g
     id="layer2"
     style="stroke:#ffffff;stroke-opacity:1"
     transform="translate(-57.334663,-120.4839)">
    <g
       id="g8">
      <path
         id="path257-0-5"
         style="fill:#000000;fill-opacity:1;stroke:none;stroke-width:0.250658;stroke-dasharray:none;stroke-opacity:1"
         d="m 60.107443,122.88498 c -0.01972,-0.0174 -0.03953,-0.0358 -0.05943,-0.0563 v 0.61547 l 0.05943,0.0315 z" />
      <path
         id="path247"
         style="fill:#000000;fill-opacity:1;stroke:none;stroke-width:0.200527;stroke-dasharray:none;stroke-opacity:1"
         d="m 60.1493,120.49497 c -0.0028,0.003 -0.0031,0.003 -0.0062,0.006 -0.02798,0.0271 -0.06783,0.0727 -0.114205,0.13177 -0.09276,0.11817 -0.214314,0.29204 -0.351916,0.50126 -0.275204,0.41845 -0.616638,0.9809 -0.945679,1.55081 -0.32904,0.56992 -0.645445,1.14718 -0.870231,1.59474 -0.112392,0.22378 -0.202422,0.41559 -0.258382,0.555 -0.02798,0.0697 -0.04733,0.12704 -0.05684,0.16485 -0.001,0.004 -8.06e-4,0.005 -0.0016,0.008 0.0036,10e-4 0.0042,0.002 0.0083,0.003 0.0375,0.0106 0.09669,0.023 0.171049,0.0336 0.148715,0.0213 0.359271,0.0391 0.609266,0.0537 0.49999,0.0291 1.158346,0.0439 1.816426,0.0439 0.65808,0 1.316954,-0.0148 1.816943,-0.0439 0.249995,-0.0146 0.460551,-0.0324 0.609266,-0.0537 0.07436,-0.0106 0.133028,-0.0229 0.170532,-0.0336 0.0042,-0.001 0.0052,-0.002 0.0088,-0.003 -7.89e-4,-0.004 -4.57e-4,-0.004 -0.0016,-0.008 -0.0095,-0.0378 -0.02938,-0.0951 -0.05736,-0.16485 -0.05596,-0.13941 -0.145474,-0.33122 -0.257866,-0.555 -0.224786,-0.44756 -0.54119,-1.02482 -0.870231,-1.59474 -0.32904,-0.56991 -0.670991,-1.13236 -0.946195,-1.55081 -0.137602,-0.20922 -0.258644,-0.38309 -0.3514,-0.50126 -0.04638,-0.0591 -0.08623,-0.10462 -0.114205,-0.13177 -0.0031,-0.003 -0.0039,-0.003 -0.0067,-0.006 z m 0.231511,2.01797 c 0.03148,-0.002 0.06267,0.003 0.09405,0.0134 -0.04633,-0.0131 -0.120132,0.0199 -0.220659,0.0977 0.02129,0.0481 0.06473,0.092 0.132292,0.13229 0.09453,0.0559 0.205985,0.0476 0.33383,-0.0258 l -0.138493,0.14883 v 0.30386 l -0.220658,0.22272 v -0.40772 c -0.06372,-0.0101 -0.128599,-0.0385 -0.194304,-0.0842 v 0.57258 l 0.104903,0.0558 0.310059,-0.30799 -0.0057,0.11782 -0.22996,0.23771 c 0.07283,0.0325 0.135156,0.0543 0.187069,0.0651 0.05269,0.0109 0.115011,-0.006 0.187069,-0.0491 l -0.138493,0.14883 v 0.37931 l -0.243913,0.23512 v -0.60823 l -0.171049,-0.0822 v 0.61029 l -0.0708,0.0589 v -0.70332 l -0.08113,-0.0388 -0.0016,0.76171 0.258382,0.11266 0.310059,-0.30748 -0.0057,0.11731 -0.413928,0.41548 -0.397392,-0.19017 c -0.03874,-0.0167 -0.0946,-0.0176 -0.167431,-0.003 0.07051,-0.055 0.123004,-0.084 0.157096,-0.0873 v -0.65164 c -0.03952,0.0133 -0.09848,-0.0141 -0.176733,-0.0817 0.06973,0.0284 0.12766,0.0295 0.174149,0.004 l 0.165365,-0.14625 c -0.116997,-0.006 -0.204147,0.003 -0.261483,0.0253 0.07051,-0.055 0.122229,-0.0845 0.155546,-0.0879 v -0.47646 c -0.03874,0.0133 -0.09744,-0.0136 -0.1757,-0.0811 0.06973,0.0284 0.128178,0.0295 0.174667,0.004 l 0.32091,-0.2744 c 0.08342,-0.0923 0.166852,-0.14093 0.249598,-0.14572 z" />
      <path
         id="path218-0"
         style="fill:#000000;fill-opacity:1;stroke:none;stroke-width:0.200527;stroke-dasharray:none;stroke-opacity:1"
         d="m 62.933708,124.90431 c 0.0476,-0.7134 0.03775,-2.82464 -0.02997,-2.94194 -0.06656,-0.11529 -1.825067,-1.14247 -2.494938,-1.47743 0.0066,0.008 0.01226,0.015 0.01912,0.0238 0.09909,0.12624 0.221888,0.30233 0.361218,0.51419 0.278661,0.4237 0.621872,0.98866 0.952397,1.56114 0.330524,0.57249 0.648307,1.15189 0.875916,1.60507 0.113804,0.22659 0.204802,0.42158 0.264583,0.57051 0.02211,0.0551 0.03849,0.10164 0.05168,0.14469 z" />
      <path
         id="path217-20"
         style="fill:#000000;fill-opacity:1;stroke:none;stroke-width:0.200527;stroke-dasharray:none;stroke-opacity:1"
         d="m 57.429135,125.17768 c 0.303425,0.25318 2.568941,1.5565 2.71973,1.5565 0.150613,0 2.411546,-1.30063 2.719214,-1.55598 -0.02096,0.01 -0.04275,0.0179 -0.06718,0.0248 -0.05274,0.015 -0.117452,0.0274 -0.196887,0.0388 -0.15887,0.0227 -0.373184,0.0411 -0.626319,0.0558 -0.506269,0.0295 -1.167263,0.0439 -1.828312,0.0439 -0.661049,0 -1.321526,-0.0145 -1.827795,-0.0439 -0.253135,-0.0147 -0.467449,-0.0331 -0.626319,-0.0558 -0.07944,-0.0113 -0.144668,-0.0238 -0.197404,-0.0388 -0.02514,-0.007 -0.04722,-0.0148 -0.06873,-0.0253 z" />
      <path
         id="path216-89"
         style="fill:#000000;fill-opacity:1;stroke:none;stroke-width:0.200527;stroke-dasharray:none;stroke-opacity:1"
         d="m 59.892034,120.48391 c -0.667836,0.33354 -2.431388,1.36302 -2.498039,1.47846 -0.06782,0.11747 -0.0773,2.23525 -0.02946,2.94556 0.01328,-0.0439 0.02948,-0.0917 0.05219,-0.14831 0.05978,-0.14893 0.15078,-0.34392 0.264584,-0.57051 0.227608,-0.45318 0.545391,-1.03258 0.875915,-1.60507 0.330525,-0.57248 0.673736,-1.13744 0.952397,-1.56114 0.13933,-0.21186 0.262646,-0.38795 0.361735,-0.51419 0.0073,-0.009 0.01368,-0.0161 0.02067,-0.0248 z" />
    </g>
  </g>
</svg>
