<?xml version="1.0" encoding="UTF-8" standalone="no"?>
<!-- Created with Inkscape (http://www.inkscape.org/) -->

<svg
   width="5.7251277mm"
   height="5.6291137mm"
   viewBox="0 0 5.7251277 5.6291137"
   version="1.1"
   id="svg1"
   xmlns="http://www.w3.org/2000/svg"
   xmlns:svg="http://www.w3.org/2000/svg">
  <defs
     id="defs1">
    <linearGradient
       id="swatch4">
      <stop
         style="stop-color:#000000;stop-opacity:1;"
         offset="0"
         id="stop4" />
    </linearGradient>
  </defs>
  <g
     id="layer2"
     style="stroke:#ffffff;stroke-opacity:1"
     transform="translate(-103.4232,-181.08921)">
    <path
       id="path24-11-10-25"
       style="display:inline;fill:#000000;fill-opacity:1;stroke:none;stroke-width:0.200527;stroke-dasharray:none;stroke-opacity:1"
       d="m 106.2855,181.0892 c -1.16547,0 -2.32853,0.0383 -2.64066,0.11421 l 2.6665,1.89446 2.59261,-1.90014 c -0.34404,-0.0724 -1.4808,-0.10853 -2.61845,-0.10853 z m 2.75642,0.2558 -2.56935,1.88361 c 0.0366,0.0272 0.0754,0.0602 0.11989,0.1018 0.0994,0.093 0.22203,0.22296 0.36122,0.37827 0.2784,0.31061 0.62085,0.72419 0.95084,1.1436 0.32999,0.4194 0.64698,0.84394 0.87437,1.17616 0.11369,0.16612 0.2046,0.30943 0.26458,0.41909 0.005,0.009 0.008,0.0163 0.0129,0.0248 0.12719,-0.88983 0.12244,-4.44123 -0.0145,-5.12734 z m -5.51594,0.0202 c -0.13548,0.74634 -0.1372,4.35136 -0.004,5.15162 0.0105,-0.0216 0.0224,-0.0442 0.0362,-0.0693 0.06,-0.10966 0.15088,-0.25297 0.26458,-0.41909 0.22739,-0.33222 0.54438,-0.75676 0.87437,-1.17616 0.32998,-0.41941 0.67296,-0.83299 0.95136,-1.1436 0.1392,-0.15531 0.26127,-0.28532 0.3607,-0.37827 0.0479,-0.0448 0.0907,-0.0803 0.12971,-0.10852 z m 2.77451,1.98075 c -0.0268,0.0195 -0.063,0.0504 -0.10697,0.0915 -0.092,0.086 -0.21267,0.21229 -0.34985,0.36535 -0.27436,0.30611 -0.61535,0.71814 -0.94361,1.13534 -0.32825,0.4172 -0.64408,0.83996 -0.86817,1.16737 -0.11205,0.16371 -0.20078,0.30415 -0.25631,0.40566 -0.0265,0.0485 -0.0436,0.0864 -0.0532,0.11317 0.0365,0.007 0.0904,0.0154 0.1602,0.0227 0.14756,0.0155 0.35693,0.0286 0.60616,0.0393 0.49845,0.0213 1.15528,0.032 1.81178,0.032 0.65651,0 1.31383,-0.0108 1.81229,-0.032 0.24922,-0.0106 0.45964,-0.0238 0.6072,-0.0393 0.0702,-0.007 0.12377,-0.0155 0.1602,-0.0227 -0.01,-0.0268 -0.0277,-0.0647 -0.0543,-0.11317 -0.0555,-0.10151 -0.14428,-0.24195 -0.25632,-0.40566 -0.2241,-0.32741 -0.54043,-0.75017 -0.86868,-1.16737 -0.32826,-0.4172 -0.66925,-0.82923 -0.94361,-1.13534 -0.13718,-0.15306 -0.2573,-0.27932 -0.34933,-0.36535 -0.0439,-0.0411 -0.0807,-0.072 -0.10749,-0.0915 z m 0.53072,1.03663 c 0.0201,0.10175 0.0822,0.16312 0.18603,0.18397 0.1046,0.0208 0.1977,0.001 0.27905,-0.0579 -0.0914,0.17014 -0.20056,0.25803 -0.32763,0.26304 -0.12629,0.005 -0.2287,-0.0283 -0.30695,-0.0992 l -0.13695,0.0625 z m -1.21802,0.009 c 0.002,0.13093 0.0838,0.20135 0.2465,0.21136 l -0.11007,0.14624 -0.002,1.38338 0.19792,0.0868 c 0.0496,-0.0567 0.11088,-0.0834 0.18448,-0.0801 -0.0713,0.0367 -0.16748,0.1447 -0.28835,0.32401 l -0.2775,-0.10542 c -0.0357,0.055 -0.11762,0.0856 -0.24547,0.0915 0.0961,-0.0459 0.16383,-0.1113 0.20257,-0.19637 l 0.001,-1.49861 c -0.0411,-0.007 -0.0726,-0.0255 -0.0951,-0.0563 l -0.1943,0.0698 z m 0.25683,0.27647 v 1.34203 l -0.0646,0.0589 v -1.31 z m 1.19735,0.11472 v 1.06505 l 0.22065,10e-4 v 0.0811 l -0.22065,-0.003 v 0.1602 l 0.092,0.0713 c 0.0349,-0.055 0.0943,-0.0811 0.1788,-0.0786 -0.0581,0.0292 -0.14836,0.156 -0.27078,0.38034 l -0.19637,-0.14676 c -0.0744,0.0742 -0.17266,0.12158 -0.29508,0.1416 0.1015,-0.0642 0.17702,-0.14551 0.22738,-0.24392 v -0.26251 h -0.55656 v -0.0951 l 0.55656,0.001 v -1.06454 c 0.0883,0.0317 0.17651,0.0289 0.26407,-0.008 z m -0.27906,0.0129 c -0.10692,0.04 -0.21088,0.34546 -0.31161,0.91674 -0.14334,0.12927 -0.29617,0.16391 -0.45888,0.10387 0.11854,0.0275 0.24862,-0.13688 0.38964,-0.49299 0.14101,-0.35612 0.26773,-0.53179 0.38085,-0.52762 z" />
  </g>
</svg>
