<?xml version="1.0" encoding="UTF-8" standalone="no"?>
<!-- Created with Inkscape (http://www.inkscape.org/) -->

<svg
   width="5.6704469mm"
   height="5.9009318mm"
   viewBox="0 0 5.6704469 5.9009318"
   version="1.1"
   id="svg1"
   xmlns="http://www.w3.org/2000/svg"
   xmlns:svg="http://www.w3.org/2000/svg">
  <defs
     id="defs1">
    <linearGradient
       id="swatch4">
      <stop
         style="stop-color:#000000;stop-opacity:1;"
         offset="0"
         id="stop4" />
    </linearGradient>
  </defs>
  <g
     id="layer2"
     style="stroke:#ffffff;stroke-opacity:1"
     transform="translate(-134.73855,-195.59891)">
    <path
       id="path237-317-04-27"
       style="fill:#000000;fill-opacity:1;stroke:none;stroke-width:0.200527;stroke-dasharray:none;stroke-opacity:1"
       d="m 137.57351,195.59891 c -0.12765,0 -1.63099,0.48825 -1.73426,0.56328 -0.10327,0.075 -1.03232,1.35396 -1.07177,1.47536 -0.0183,0.0563 -0.0276,0.4279 -0.0289,0.82062 0.008,-0.005 0.0144,-0.009 0.0227,-0.0139 0.0745,-0.0438 0.17703,-0.097 0.29973,-0.1571 0.24539,-0.12015 0.572,-0.26755 0.90795,-0.41134 0.33595,-0.14379 0.68049,-0.28357 0.96118,-0.38861 0.14035,-0.0525 0.26407,-0.0963 0.36639,-0.12816 0.0512,-0.0159 0.0965,-0.0286 0.13953,-0.0388 0.043,-0.0101 0.0759,-0.0207 0.15141,-0.0207 0.0755,0 0.10838,0.0105 0.15141,0.0207 0.043,0.0101 0.0884,0.0228 0.13953,0.0388 0.085,0.0265 0.18785,0.0627 0.29972,0.10387 0.0495,-0.0142 0.099,-0.0129 0.14831,0.004 -0.0238,-0.007 -0.055,-0.001 -0.093,0.016 0.004,10e-4 0.007,0.003 0.0114,0.004 0.2807,0.10504 0.62575,0.24482 0.9617,0.38861 0.33595,0.14379 0.66256,0.29119 0.90795,0.41134 0.12024,0.0589 0.22047,0.11072 0.29456,0.154 -0.002,-0.38625 -0.0109,-0.74812 -0.0289,-0.80357 -0.0395,-0.1214 -0.969,-1.40033 -1.07228,-1.47536 -0.10327,-0.075 -1.60662,-0.56328 -1.73427,-0.56328 z m 0.014,1.83555 c -0.002,3.3e-4 -0.002,1.2e-4 -0.004,5.2e-4 -0.0247,0.006 -0.0622,0.016 -0.10697,0.03 -0.0895,0.0279 -0.20838,0.0699 -0.34468,0.12092 -0.0458,0.0171 -0.10213,0.0404 -0.15141,0.0594 0.0354,0.0649 0.109,0.10107 0.22169,0.108 l -0.11007,0.14625 -0.002,1.38389 0.19792,0.0863 c 0.0496,-0.0567 0.11088,-0.0834 0.18448,-0.0801 -0.0667,0.0343 -0.15506,0.1319 -0.2651,0.29094 0.10302,0.0377 0.19716,0.0707 0.26872,0.093 0.0447,0.0139 0.0823,0.0242 0.10697,0.03 0.002,4e-4 0.002,1.9e-4 0.004,5.2e-4 0.002,-3.3e-4 0.002,-1.2e-4 0.004,-5.2e-4 0.0247,-0.006 0.0622,-0.016 0.10697,-0.03 0.0594,-0.0185 0.13518,-0.045 0.21704,-0.0744 l -0.2992,-0.14315 c -0.0387,-0.0167 -0.0946,-0.0176 -0.16744,-0.003 0.0705,-0.055 0.12301,-0.084 0.1571,-0.0873 v -0.65216 c -0.0395,0.0133 -0.0985,-0.0136 -0.17673,-0.0811 0.0697,0.0284 0.12766,0.0295 0.17415,0.004 l 0.16484,-0.14624 c -0.11699,-0.006 -0.20414,0.002 -0.26148,0.0248 0.0705,-0.055 0.12275,-0.084 0.15607,-0.0873 v -0.47646 c -0.0388,0.0134 -0.0975,-0.0141 -0.1757,-0.0816 0.0697,0.0283 0.12817,0.03 0.17466,0.004 l 0.32401,-0.2775 c 0.007,-0.008 0.0148,-0.0158 0.0222,-0.0233 -0.12054,-0.0446 -0.22844,-0.0827 -0.30954,-0.108 -0.0447,-0.0139 -0.0823,-0.0242 -0.10697,-0.03 -0.002,-4e-4 -0.002,-1.9e-4 -0.004,-5.2e-4 z m 0.56017,0.19224 c 0.0232,0.0246 0.0532,0.0481 0.0904,0.0703 0.0523,0.0309 0.11008,0.0412 0.1726,0.0326 -0.0921,-0.0369 -0.17918,-0.0707 -0.26303,-0.10283 z m -1.37976,0.1018 c -0.18823,0.0753 -0.38432,0.15551 -0.58239,0.24029 -0.33218,0.14218 -0.6557,0.28795 -0.89401,0.40463 -0.11915,0.0583 -0.21701,0.10949 -0.28215,0.1478 -0.0326,0.0191 -0.0567,0.0354 -0.0703,0.046 -9.9e-4,7.7e-4 -8.1e-4,8.7e-4 -0.002,0.002 8.1e-4,7.4e-4 6.3e-4,8.5e-4 0.002,0.002 0.0136,0.0106 0.0377,0.0268 0.0703,0.046 0.0651,0.0383 0.163,0.0894 0.28215,0.1478 0.23831,0.11667 0.56183,0.26245 0.89401,0.40463 0.22641,0.0969 0.44896,0.18761 0.65939,0.27078 0.007,-0.012 0.0138,-0.0244 0.0196,-0.0372 l 0.001,-1.49861 c -0.0411,-0.007 -0.0726,-0.0255 -0.0951,-0.0563 l -0.1943,0.0703 z m 1.12034,0.0134 v 0.61546 l 0.0594,0.0315 v -0.59066 c -0.0197,-0.0174 -0.0395,-0.0358 -0.0594,-0.0563 z m 0.60048,0.0186 -0.0553,0.0589 v 0.30437 l -0.22066,0.22273 v -0.40824 c -0.0637,-0.0101 -0.12866,-0.038 -0.1943,-0.0837 v 0.57206 l 0.10439,0.0558 0.31057,-0.30748 -0.006,0.11731 -0.23048,0.23771 c 0.0728,0.0325 0.13516,0.0543 0.18707,0.0651 0.0527,0.0108 0.11553,-0.005 0.18758,-0.0486 l -0.13849,0.14883 v 0.37878 l -0.24391,0.23565 v -0.60823 l -0.17105,-0.0822 v 0.6103 l -0.0708,0.0584 v -0.70228 l -0.0816,-0.0393 -0.001,0.76171 0.25787,0.11265 0.31057,-0.30747 -0.006,0.1173 -0.28061,0.28164 c 0.25441,-0.0974 0.54875,-0.21673 0.84285,-0.34261 0.33219,-0.14218 0.6562,-0.28796 0.89451,-0.40463 0.11915,-0.0583 0.21702,-0.1095 0.28216,-0.1478 0.0326,-0.0192 0.0567,-0.0354 0.0703,-0.046 9.9e-4,-7.7e-4 8.1e-4,-8.8e-4 0.002,-0.002 -8.1e-4,-7.4e-4 -6.3e-4,-8.4e-4 -0.002,-0.002 -0.0136,-0.0106 -0.0377,-0.0268 -0.0703,-0.046 -0.0651,-0.0383 -0.16301,-0.0895 -0.28216,-0.1478 -0.23831,-0.11668 -0.56232,-0.26245 -0.89451,-0.40463 -0.16817,-0.072 -0.33849,-0.14236 -0.50127,-0.20825 z m -1.27589,0.0579 v 1.34255 l -0.0651,0.0584 v -1.30948 z m -2.47426,0.86093 c 0.002,0.37797 0.0112,0.72745 0.0289,0.78186 0.0394,0.12141 0.9685,1.40033 1.07177,1.47536 0.10328,0.075 1.60661,0.56328 1.73426,0.56328 0.12766,0 1.63099,-0.48825 1.73427,-0.56328 0.10327,-0.075 1.03284,-1.35395 1.07228,-1.47536 0.0174,-0.0536 0.0264,-0.39354 0.0284,-0.76481 -0.074,0.0433 -0.17398,0.0952 -0.29404,0.15399 -0.24539,0.12014 -0.572,0.26756 -0.90795,0.41135 -0.33595,0.1438 -0.681,0.28358 -0.9617,0.38861 -0.14035,0.0525 -0.26406,0.0963 -0.36638,0.12815 -0.0512,0.0159 -0.0965,0.0291 -0.13953,0.0393 -0.043,0.0101 -0.0759,0.0202 -0.15141,0.0202 -0.0755,0 -0.10839,-0.01 -0.15141,-0.0202 -0.043,-0.0101 -0.0884,-0.0233 -0.13953,-0.0393 -0.10232,-0.0319 -0.22604,-0.0756 -0.36639,-0.12815 -0.0495,-0.0185 -0.10916,-0.043 -0.16226,-0.0636 -0.0309,0.007 -0.066,0.0111 -0.10594,0.0129 0.0205,-0.01 0.0395,-0.0204 0.0574,-0.032 -0.23596,-0.092 -0.49142,-0.19509 -0.75034,-0.30592 -0.33595,-0.14379 -0.66256,-0.29121 -0.90795,-0.41135 -0.1227,-0.0601 -0.22524,-0.11329 -0.29973,-0.15709 -0.008,-0.005 -0.0151,-0.009 -0.0227,-0.0139 z" />
  </g>
</svg>
