<?xml version="1.0" encoding="UTF-8" standalone="no"?>
<!-- Created with Inkscape (http://www.inkscape.org/) -->

<svg
   width="5.670455mm"
   height="5.9009318mm"
   viewBox="0 0 5.670455 5.9009318"
   version="1.1"
   id="svg1"
   xmlns="http://www.w3.org/2000/svg"
   xmlns:svg="http://www.w3.org/2000/svg">
  <defs
     id="defs1">
    <linearGradient
       id="swatch4">
      <stop
         style="stop-color:#000000;stop-opacity:1;"
         offset="0"
         id="stop4" />
    </linearGradient>
  </defs>
  <g
     id="layer2"
     style="stroke:#ffffff;stroke-opacity:1"
     transform="translate(-49.534961,-202.29722)">
    <path
       id="path237-317-04-67"
       style="fill:#000000;fill-opacity:1;stroke:none;stroke-width:0.200527;stroke-dasharray:none;stroke-opacity:1"
       d="m 52.36993,202.29721 c -0.127651,0 -1.630989,0.48825 -1.734261,0.56328 -0.103272,0.075 -1.032323,1.35396 -1.071769,1.47536 -0.01828,0.0563 -0.02761,0.4279 -0.02894,0.82062 0.0077,-0.005 0.01437,-0.009 0.02274,-0.014 0.07448,-0.0438 0.177026,-0.097 0.299723,-0.1571 0.245394,-0.12015 0.572008,-0.26755 0.907955,-0.41134 0.335947,-0.14379 0.680484,-0.28357 0.961181,-0.38861 0.140348,-0.0525 0.264064,-0.0963 0.366386,-0.12816 0.05116,-0.0159 0.0965,-0.0286 0.139527,-0.0388 0.04303,-0.0101 0.0759,-0.0207 0.151412,-0.0207 0.07551,0 0.108384,0.0105 0.151412,0.0207 0.04303,0.0101 0.08836,0.0228 0.139526,0.0388 0.102323,0.0319 0.226037,0.0756 0.366386,0.12816 0.08414,0.0315 0.182228,0.0711 0.275952,0.108 0.0496,-0.0215 0.100125,-0.0479 0.152445,-0.0801 -0.02742,0.0389 -0.05485,0.0744 -0.08216,0.10749 0.0055,0.002 0.01046,0.004 0.01602,0.006 l 0.05116,-0.0739 c -0.01162,0.0264 -0.02292,0.0536 -0.03411,0.0806 0.188911,0.0755 0.384842,0.15574 0.582393,0.2403 0.335948,0.14379 0.662562,0.29119 0.907955,0.41134 0.12024,0.0589 0.220469,0.11072 0.294556,0.154 -0.0016,-0.38625 -0.01092,-0.74812 -0.02894,-0.80357 -0.03945,-0.1214 -0.969014,-1.40033 -1.072286,-1.47536 -0.103272,-0.075 -1.60661,-0.56328 -1.734261,-0.56328 z m 0.01395,1.83555 c -0.0016,3.3e-4 -0.0019,1.2e-4 -0.0036,5.2e-4 -0.02466,0.006 -0.06222,0.016 -0.10697,0.03 -0.0895,0.0279 -0.208386,0.0699 -0.344682,0.12092 -0.03972,0.0149 -0.08884,0.0354 -0.131258,0.0517 0.03292,0.0285 0.07133,0.0501 0.115239,0.0641 0.09685,0.03 0.23236,-0.0321 0.406693,-0.18552 -0.123195,0.25019 -0.242929,0.38899 -0.359151,0.41651 -0.115447,0.0275 -0.228716,-0.0302 -0.339514,-0.17363 l -0.136943,0.0713 0.06304,-0.0946 c -0.182756,0.0733 -0.373408,0.15113 -0.564823,0.23306 -0.332185,0.14218 -0.655693,0.28795 -0.894002,0.40463 -0.119154,0.0583 -0.217007,0.10948 -0.282154,0.14779 -0.03257,0.0191 -0.05671,0.0354 -0.07028,0.046 -9.88e-4,7.7e-4 -6.89e-4,8.7e-4 -0.0015,0.002 8.11e-4,7.4e-4 5.13e-4,8.5e-4 0.0015,0.002 0.01357,0.0106 0.03771,0.0268 0.07028,0.046 0.06515,0.0383 0.163,0.0894 0.282154,0.1478 0.238309,0.11667 0.561817,0.26244 0.894002,0.40462 0.182102,0.0779 0.36457,0.15337 0.539502,0.22376 7.84e-4,-0.002 0.0018,-0.003 0.0026,-0.005 v -0.38395 l 0.595312,-0.53434 v -0.60513 c 0.07438,-0.05 0.149378,-0.16466 0.22531,-0.34313 v 0.90589 l -0.580844,0.5178 v 0.41031 l 0.533301,-0.001 c 0.07283,-0.17347 0.181188,-0.28757 0.324528,-0.34261 -0.14644,0.0901 -0.250398,0.28048 -0.311609,0.57154 l -0.297656,-0.001 c 0.09987,0.0365 0.191168,0.0686 0.260966,0.0904 0.04475,0.0139 0.08231,0.0242 0.10697,0.03 0.0017,4e-4 0.002,1.9e-4 0.0036,5.2e-4 0.0016,-3.3e-4 0.0019,-1.2e-4 0.0036,-5.2e-4 0.02466,-0.006 0.06222,-0.016 0.10697,-0.03 0.0895,-0.0279 0.208902,-0.0699 0.345199,-0.12092 0.02438,-0.009 0.05519,-0.0218 0.08062,-0.0315 l -0.09198,-0.032 c -0.108474,0.0993 -0.244758,0.12984 -0.408244,0.0915 0.16736,0.004 0.289421,-0.0613 0.365353,-0.19637 0.06154,-0.27597 0.121521,-0.51917 0.18035,-0.7307 -0.05491,-0.0124 -0.102128,-0.0349 -0.141076,-0.0677 l -0.133842,0.0465 0.21394,-0.20929 c 0.0238,0.0363 0.05854,0.0633 0.103353,0.0811 0.10288,-0.3464 0.201718,-0.59104 0.296106,-0.73587 -0.01358,-0.006 -0.0258,-0.0101 -0.03927,-0.0155 -0.09624,0.0867 -0.191894,0.13723 -0.286804,0.15141 -0.161162,0.0234 -0.28736,-0.0131 -0.378789,-0.10904 l -0.174666,0.0791 0.268717,-0.34107 c -0.07473,-0.0267 -0.143858,-0.051 -0.198954,-0.0682 -0.04475,-0.0139 -0.08231,-0.0242 -0.10697,-0.03 -0.0017,-4e-4 -0.002,-1.9e-4 -0.0036,-5.2e-4 z m 0.333313,0.10697 c 0.05714,0.0679 0.150088,0.10738 0.280603,0.11731 0.0095,6.6e-4 0.0193,3.6e-4 0.02894,5.1e-4 -0.06181,-0.024 -0.130485,-0.0522 -0.187068,-0.0734 -0.04391,-0.0164 -0.0825,-0.03 -0.122473,-0.0444 z m 0.642338,0.25011 c -0.08413,0.22754 -0.154416,0.47348 -0.210323,0.73794 0.106712,0.003 0.223708,-0.0238 0.350883,-0.0811 -0.127381,0.13298 -0.253414,0.20418 -0.377755,0.21446 -0.03617,0.19111 -0.06524,0.39147 -0.08733,0.601 l 0.19792,0.0863 c 0.04959,-0.0567 0.110878,-0.0834 0.184485,-0.0801 -0.03456,0.0178 -0.07523,0.0526 -0.121439,0.10387 0.15925,-0.0646 0.32573,-0.13386 0.489892,-0.20413 0.332185,-0.14218 0.656211,-0.28795 0.894519,-0.40462 0.119155,-0.0583 0.217006,-0.1095 0.282154,-0.1478 0.03257,-0.0192 0.05671,-0.0354 0.07028,-0.046 9.87e-4,-7.7e-4 6.88e-4,-8.8e-4 0.0016,-0.002 -8.12e-4,-7.4e-4 -5.13e-4,-8.4e-4 -0.0016,-0.002 -0.01357,-0.0106 -0.0377,-0.0268 -0.07028,-0.046 -0.06515,-0.0383 -0.162999,-0.0895 -0.282154,-0.14779 -0.238308,-0.11668 -0.562334,-0.26245 -0.894519,-0.40463 -0.142869,-0.0611 -0.286255,-0.12002 -0.42633,-0.17725 z m -1.267106,0.0899 -10e-4,0.56431 c -0.116222,-0.0592 -0.230008,-0.0624 -0.341581,-0.01 0.03874,-0.0934 0.130804,-0.131 0.276469,-0.11266 V 204.88 c -0.0891,-0.0409 -0.174184,-0.0291 -0.254765,0.0351 0.01782,-0.0984 0.102901,-0.14616 0.254765,-0.14366 v -0.14521 z m -2.557467,0.79788 c 0.0018,0.37797 0.01126,0.72746 0.02894,0.78187 0.03945,0.12141 0.968497,1.40033 1.071769,1.47536 0.103271,0.075 1.60661,0.56327 1.734261,0.56327 0.12765,0 1.630989,-0.48824 1.734261,-0.56327 0.103271,-0.075 1.032839,-1.35395 1.072286,-1.47536 0.01741,-0.0536 0.02638,-0.39354 0.02842,-0.76481 -0.07406,0.0433 -0.173985,0.0952 -0.294039,0.15399 -0.245394,0.12014 -0.572008,0.26756 -0.907955,0.41135 -0.335947,0.1438 -0.681001,0.28358 -0.961698,0.38861 -0.140348,0.0525 -0.264063,0.0963 -0.366386,0.12815 -0.05116,0.0159 -0.0965,0.0291 -0.139526,0.0393 -0.04303,0.0101 -0.0759,0.0202 -0.151412,0.0202 -0.07552,0 -0.108384,-0.01 -0.151412,-0.0202 -0.04303,-0.0101 -0.08837,-0.0233 -0.139527,-0.0393 -0.102323,-0.0319 -0.226038,-0.0756 -0.366386,-0.12815 -0.05329,-0.0199 -0.117267,-0.046 -0.174666,-0.0682 -0.126156,0.005 -0.229971,-0.019 -0.311092,-0.0718 0.04097,0.001 0.07739,-0.001 0.110071,-0.007 -0.189769,-0.0759 -0.38674,-0.15677 -0.585494,-0.24184 -0.335947,-0.14379 -0.662561,-0.29121 -0.907955,-0.41135 -0.122697,-0.0601 -0.22524,-0.11329 -0.299723,-0.15709 -0.0084,-0.005 -0.01505,-0.009 -0.02274,-0.014 z m 3.394625,0.0429 -0.187586,0.65784 c -0.0953,-0.0517 -0.205984,-0.0173 -0.332279,0.10283 0.06818,-0.15679 0.171883,-0.23178 0.310575,-0.22427 l 0.04961,-0.1447 c -0.07438,-0.035 -0.163342,-0.0169 -0.267168,0.0548 0.05269,-0.10258 0.154836,-0.15806 0.305925,-0.1664 l 0.07286,-0.22996 z" />
  </g>
</svg>
