<?xml version="1.0" encoding="UTF-8" standalone="no"?>
<!-- Created with Inkscape (http://www.inkscape.org/) -->

<svg
   width="5.7147431mm"
   height="6.4037595mm"
   viewBox="0 0 5.7147431 6.4037595"
   version="1.1"
   id="svg1"
   xmlns="http://www.w3.org/2000/svg"
   xmlns:svg="http://www.w3.org/2000/svg">
  <defs
     id="defs1">
    <linearGradient
       id="swatch4">
      <stop
         style="stop-color:#000000;stop-opacity:1;"
         offset="0"
         id="stop4" />
    </linearGradient>
  </defs>
  <g
     id="layer2"
     style="stroke:#ffffff;stroke-opacity:1"
     transform="translate(-126.83756,-173.63796)">
    <path
       id="path63-83-5"
       style="fill:#000000;fill-opacity:1;stroke:none;stroke-width:0.174705;stroke-dasharray:none;stroke-opacity:1"
       d="m 129.69512,173.63798 c -0.13939,0 -2.05539,1.09551 -2.63085,1.48621 0.0438,-0.01 0.0919,-0.0191 0.14986,-0.0274 0.16072,-0.0229 0.37714,-0.0414 0.63304,-0.0563 0.5118,-0.0298 1.17975,-0.0439 1.84795,-0.0439 0.6682,0 1.33665,0.0141 1.84846,0.0439 0.2559,0.0149 0.4718,0.0333 0.63252,0.0563 0.0582,0.008 0.10651,0.0179 0.15038,0.0279 -0.57486,-0.3904 -2.49193,-1.48673 -2.63136,-1.48673 z m 0,1.56631 c -0.66512,0 -1.33026,0.0145 -1.83555,0.0439 -0.25264,0.0147 -0.4658,0.0338 -0.61598,0.0553 -0.0751,0.0107 -0.13439,0.0219 -0.17209,0.0326 -0.003,8.2e-4 -0.003,10e-4 -0.006,0.002 6.7e-4,0.003 -3.1e-4,0.003 5.2e-4,0.007 0.01,0.038 0.0296,0.095 0.0579,0.16536 0.0565,0.14078 0.14636,0.33454 0.25994,0.56069 0.22717,0.4523 0.548,1.0363 0.88056,1.61231 0.33256,0.57601 0.67738,1.14446 0.9555,1.56734 0.13905,0.21144 0.26136,0.38659 0.35502,0.50592 0.0468,0.0597 0.0866,0.10603 0.11472,0.13332 0.002,0.002 0.003,0.002 0.005,0.004 0.002,-0.002 0.002,-0.002 0.005,-0.004 0.0281,-0.0273 0.0689,-0.0737 0.11575,-0.13332 0.0937,-0.11933 0.21596,-0.29448 0.35502,-0.50592 0.27812,-0.42288 0.62345,-0.99133 0.95601,-1.56734 0.33256,-0.57601 0.65186,-1.16001 0.87902,-1.61231 0.11358,-0.22615 0.20497,-0.41991 0.26148,-0.56069 0.0282,-0.0704 0.0478,-0.12735 0.0574,-0.16536 8.6e-4,-0.003 3.8e-4,-0.004 0.001,-0.007 -0.003,-8.2e-4 -0.003,-0.001 -0.006,-0.002 -0.0377,-0.0107 -0.097,-0.0219 -0.17209,-0.0326 -0.15017,-0.0215 -0.36282,-0.0406 -0.61546,-0.0553 -0.50528,-0.0294 -1.17095,-0.0439 -1.83607,-0.0439 z m -2.82309,0.21601 c -0.0537,0.65086 -0.0445,2.93953 0.0264,3.06235 0.0715,0.12378 2.07751,1.29182 2.65048,1.55907 l -0.003,-0.003 c -0.0399,-0.0387 -0.0837,-0.0891 -0.13384,-0.15296 -0.10024,-0.12771 -0.22502,-0.30621 -0.36587,-0.52038 -0.28171,-0.42833 -0.62812,-0.99901 -0.96222,-1.57769 -0.3341,-0.57868 -0.65511,-1.16451 -0.88521,-1.62264 -0.11505,-0.22906 -0.20721,-0.42656 -0.26769,-0.57722 -0.0261,-0.065 -0.0452,-0.1192 -0.0589,-0.16795 z m 5.64565,0.001 c 5e-5,5.4e-4 -4e-5,0.002 0,0.002 1.4e-4,-4.9e-4 3.8e-4,-0.001 5.2e-4,-0.002 z m 0,0.002 c -0.0137,0.048 -0.0318,0.10118 -0.0574,0.16485 -0.0605,0.15067 -0.15316,0.34815 -0.2682,0.57722 -0.2301,0.45813 -0.55059,1.04395 -0.8847,1.62264 -0.3341,0.57867 -0.68102,1.14935 -0.96273,1.57769 -0.14085,0.21416 -0.26511,0.39267 -0.36535,0.52038 -0.0501,0.0639 -0.0944,0.11421 -0.13436,0.15296 -9e-4,8.2e-4 -0.002,0.002 -0.003,0.002 0.57447,-0.26826 2.57854,-1.43486 2.64996,-1.55856 0.0709,-0.12262 0.0792,-2.40431 0.0258,-3.05925 z m -1.92184,0.37569 c -0.16581,0.23518 -0.32951,0.36494 -0.49145,0.38912 -0.16116,0.0233 -0.28787,-0.0126 -0.3793,-0.10852 l -0.17415,0.0786 0.27647,-0.3514 c 0.055,0.0801 0.15405,0.12558 0.29662,0.13643 0.14257,0.01 0.2998,-0.0383 0.47181,-0.14418 z m -1.45159,0.008 c 0.002,0.13094 0.0838,0.20135 0.24649,0.21136 l -0.11059,0.14624 -0.001,1.3839 0.1974,0.0863 c 0.0496,-0.0567 0.1114,-0.0834 0.18501,-0.0801 -0.0713,0.0367 -0.16749,0.1447 -0.28836,0.32401 l -0.27802,-0.10542 c -0.0356,0.055 -0.1171,0.0856 -0.24494,0.0915 0.0961,-0.0459 0.16331,-0.11131 0.20205,-0.19637 l 0.001,-1.49862 c -0.0411,-0.007 -0.0726,-0.0255 -0.0951,-0.0563 l -0.1943,0.0703 z m 1.4366,0.0326 c -0.12779,0.29082 -0.22956,0.61584 -0.30541,0.97461 0.10666,0.003 0.22327,-0.0244 0.35037,-0.0816 -0.12737,0.13297 -0.25291,0.20469 -0.37724,0.21498 -0.0362,0.19111 -0.0652,0.39147 -0.0873,0.601 l 0.1974,0.0863 c 0.0496,-0.0567 0.1114,-0.0834 0.185,-0.0801 -0.0713,0.0367 -0.16748,0.1447 -0.28835,0.32401 l -0.30128,-0.10542 c -0.10847,0.0992 -0.24424,0.12983 -0.40772,0.0915 0.16736,0.004 0.2889,-0.0613 0.36483,-0.19637 0.0616,-0.27607 0.12202,-0.51913 0.18087,-0.73071 -0.055,-0.0124 -0.10206,-0.0343 -0.14108,-0.0672 l -0.13384,0.046 0.21394,-0.20877 c 0.0238,0.0363 0.0585,0.0633 0.10336,0.0811 0.12179,-0.41016 0.23789,-0.67896 0.34778,-0.80667 z m -1.17977,0.24391 v 1.34204 l -0.0651,0.0589 v -1.30948 z m 0.65422,0.92346 -0.18707,0.65784 c -0.0953,-0.0517 -0.20598,-0.0178 -0.33228,0.10232 0.0682,-0.15679 0.17137,-0.23127 0.31006,-0.22376 l 0.0501,-0.14521 c -0.0744,-0.035 -0.16334,-0.0164 -0.26717,0.0553 0.0527,-0.10258 0.15432,-0.15806 0.30541,-0.1664 l 0.0734,-0.23047 z" />
  </g>
</svg>
