<?xml version="1.0" encoding="UTF-8" standalone="no"?>
<!-- Created with Inkscape (http://www.inkscape.org/) -->

<svg
   width="5.7147512mm"
   height="6.4037595mm"
   viewBox="0 0 5.7147512 6.4037595"
   version="1.1"
   id="svg1"
   xmlns="http://www.w3.org/2000/svg"
   xmlns:svg="http://www.w3.org/2000/svg">
  <defs
     id="defs1">
    <linearGradient
       id="swatch4">
      <stop
         style="stop-color:#000000;stop-opacity:1;"
         offset="0"
         id="stop4" />
    </linearGradient>
  </defs>
  <g
     id="layer2"
     style="stroke:#ffffff;stroke-opacity:1"
     transform="translate(-142.66369,-173.6731)">
    <path
       id="path63-83-97"
       style="fill:#000000;fill-opacity:1;stroke:none;stroke-width:0.174705;stroke-dasharray:none;stroke-opacity:1"
       d="m 145.52128,173.67312 c -0.13939,0 -2.05539,1.09551 -2.63085,1.48621 0.0437,-0.01 0.0919,-0.0191 0.14986,-0.0274 0.16072,-0.0229 0.37714,-0.0414 0.63304,-0.0563 0.5118,-0.0298 1.17975,-0.0439 1.84795,-0.0439 0.6682,0 1.33666,0.0141 1.84847,0.0439 0.2559,0.0149 0.4718,0.0333 0.63252,0.0563 0.0582,0.008 0.1065,0.0179 0.15037,0.0279 -0.57486,-0.3904 -2.49193,-1.48673 -2.63136,-1.48673 z m 0,1.56631 c -0.66512,0 -1.33026,0.0145 -1.83555,0.0439 -0.25264,0.0147 -0.4658,0.0338 -0.61598,0.0553 -0.0751,0.0107 -0.13438,0.0218 -0.17208,0.0326 -0.003,8.2e-4 -0.003,0.001 -0.006,0.002 6.7e-4,0.003 -3.2e-4,0.003 5.1e-4,0.007 0.01,0.038 0.0296,0.095 0.0579,0.16536 0.0565,0.14078 0.14635,0.33454 0.25993,0.56069 0.22717,0.4523 0.54801,1.0363 0.88057,1.61231 0.33256,0.57601 0.67738,1.14446 0.9555,1.56734 0.13905,0.21144 0.26135,0.38659 0.35501,0.50592 0.0468,0.0597 0.0866,0.10603 0.11473,0.13332 0.002,0.002 0.003,0.002 0.005,0.004 0.002,-0.002 0.002,-0.002 0.005,-0.004 0.0281,-0.0273 0.0689,-0.0737 0.11576,-0.13332 0.0937,-0.11933 0.21595,-0.29448 0.35501,-0.50592 0.27812,-0.42288 0.62346,-0.99133 0.95602,-1.56734 0.33256,-0.57601 0.65185,-1.16001 0.87901,-1.61231 0.11358,-0.22615 0.20498,-0.41991 0.26149,-0.56069 0.0283,-0.0704 0.0478,-0.12735 0.0574,-0.16536 8.6e-4,-0.003 3.7e-4,-0.004 0.001,-0.007 -0.003,-8.2e-4 -0.003,-0.001 -0.006,-0.002 -0.0377,-0.0107 -0.097,-0.0218 -0.17208,-0.0326 -0.15017,-0.0215 -0.36335,-0.0406 -0.61599,-0.0553 -0.50528,-0.0294 -1.17094,-0.0439 -1.83606,-0.0439 z m -2.82308,0.21549 c -0.0537,0.65032 -0.0446,2.94003 0.0263,3.06287 0.0715,0.12378 2.07752,1.29182 2.65049,1.55907 l -0.003,-0.003 c -0.0399,-0.0387 -0.0837,-0.0891 -0.13385,-0.15296 -0.10024,-0.12771 -0.22502,-0.30621 -0.36587,-0.52038 -0.28171,-0.42833 -0.62811,-0.999 -0.96221,-1.57768 -0.3341,-0.57868 -0.65512,-1.16451 -0.88522,-1.62264 -0.11505,-0.22906 -0.2072,-0.42657 -0.26768,-0.57723 -0.0261,-0.065 -0.0452,-0.1192 -0.0589,-0.16795 z m 5.64565,0.002 c 4e-5,5.4e-4 -5e-5,0.002 0,0.002 1.4e-4,-4.9e-4 3.7e-4,-0.001 5.1e-4,-0.002 z m 0,0.002 c -0.0137,0.048 -0.0318,0.10118 -0.0574,0.16485 -0.0605,0.15067 -0.15316,0.34815 -0.2682,0.57722 -0.2301,0.45813 -0.5506,1.04395 -0.88471,1.62264 -0.3341,0.57867 -0.68102,1.14935 -0.96273,1.57769 -0.14085,0.21416 -0.26511,0.39267 -0.36535,0.52038 -0.0501,0.0639 -0.0944,0.11421 -0.13436,0.15296 -9e-4,8.2e-4 -0.002,0.002 -0.003,0.002 0.57447,-0.26826 2.57855,-1.43486 2.64997,-1.55856 0.0708,-0.12262 0.0792,-2.40431 0.0258,-3.05925 z m -3.51452,0.37621 c 0.002,0.13093 0.0838,0.20134 0.2465,0.21135 l -0.11059,0.14676 -0.001,1.38338 0.1974,0.0863 c 0.0496,-0.0567 0.1114,-0.0834 0.185,-0.0801 -0.0713,0.0367 -0.16748,0.14471 -0.28835,0.32401 l -0.2775,-0.1049 c -0.0356,0.055 -0.11762,0.0851 -0.24547,0.091 0.0961,-0.0459 0.16383,-0.1113 0.20258,-0.19637 l 0.001,-1.49862 c -0.0411,-0.007 -0.0731,-0.0255 -0.0956,-0.0563 l -0.19379,0.0703 z m 1.17047,0.015 0.38138,0.31523 c 0.0511,0.0334 0.12147,0.0343 0.21135,0.003 -0.0875,0.0717 -0.15427,0.10526 -0.19999,0.10025 v 0.97669 c 0.0442,0.003 0.11037,0.0389 0.19793,0.10645 -0.0798,-0.0284 -0.14498,-0.0295 -0.19534,-0.004 l -0.41858,0.56793 c -0.0573,-0.0817 -0.12457,-0.13315 -0.20206,-0.154 -0.0775,-0.0208 -0.15506,-0.001 -0.23254,0.0579 0.0984,-0.19682 0.1946,-0.29762 0.28836,-0.30179 0.0937,-0.005 0.17469,0.0346 0.24287,0.11886 l 0.0801,-0.11266 v -1.19838 l -0.2651,-0.2253 -0.10593,0.0791 v 0.79685 c 0.0566,0.0117 0.1088,0.0613 0.15606,0.14883 l 0.20205,-0.29404 -10e-4,0.14159 -0.26252,0.40515 c -0.0566,-0.10175 -0.1419,-0.16312 -0.25579,-0.18397 -0.1139,-0.0208 -0.20829,-10e-4 -0.28267,0.0579 0.0442,-0.12844 0.11838,-0.19682 0.2222,-0.20516 v -0.62838 c -0.0922,0.0133 -0.17314,-0.0188 -0.24288,-0.0972 0.093,0.0108 0.17418,-0.0118 0.24392,-0.0677 z m -0.91364,0.26148 v 1.34256 l -0.0651,0.0589 v -1.31 z m 0.80926,0.0579 v 0.83406 l -0.0651,-0.0589 v -0.71675 z" />
  </g>
</svg>
