<?xml version="1.0" encoding="UTF-8" standalone="no"?>
<!-- Created with Inkscape (http://www.inkscape.org/) -->

<svg
   width="5.670455mm"
   height="5.9009318mm"
   viewBox="0 0 5.670455 5.9009318"
   version="1.1"
   id="svg1"
   xmlns="http://www.w3.org/2000/svg"
   xmlns:svg="http://www.w3.org/2000/svg">
  <defs
     id="defs1">
    <linearGradient
       id="swatch4">
      <stop
         style="stop-color:#000000;stop-opacity:1;"
         offset="0"
         id="stop4" />
    </linearGradient>
  </defs>
  <g
     id="layer2"
     style="stroke:#ffffff;stroke-opacity:1"
     transform="translate(-88.377554,-195.59995)">
    <path
       id="path237-317-04-307"
       style="fill:#000000;fill-opacity:1;stroke:none;stroke-width:0.200527;stroke-dasharray:none;stroke-opacity:1"
       d="m 91.21252,195.59995 c -0.127651,0 -1.630989,0.48824 -1.734261,0.56327 -0.103272,0.075 -1.032323,1.35396 -1.071769,1.47536 -0.01828,0.0563 -0.02761,0.4279 -0.02894,0.82062 0.0077,-0.005 0.01437,-0.009 0.02274,-0.014 0.07448,-0.0438 0.177026,-0.097 0.299723,-0.15709 0.245394,-0.12015 0.572008,-0.26756 0.907955,-0.41135 0.335947,-0.14379 0.680485,-0.28357 0.961182,-0.38861 0.140348,-0.0525 0.264063,-0.0963 0.366386,-0.12815 0.05116,-0.0159 0.0965,-0.0286 0.139526,-0.0388 0.04303,-0.0101 0.0759,-0.0207 0.151412,-0.0207 0.07551,0 0.108384,0.0105 0.151412,0.0207 0.04303,0.0101 0.08836,0.0228 0.139526,0.0388 0.102323,0.0319 0.226038,0.0756 0.366386,0.12815 0.03071,0.0115 0.06862,0.027 0.100769,0.0393 0.0035,-0.003 0.0068,-0.006 0.01034,-0.009 -0.0019,0.004 -0.0038,0.007 -0.0057,0.0109 0.0081,0.003 0.01715,0.007 0.02532,0.01 0.0021,-0.005 0.0041,-0.009 0.0062,-0.0145 v 0.0171 c 0.253846,0.0976 0.538799,0.21247 0.824756,0.33486 0.335948,0.14379 0.662561,0.2912 0.907955,0.41135 0.120239,0.0589 0.220468,0.11071 0.294555,0.15399 -0.0016,-0.38625 -0.01092,-0.74812 -0.02894,-0.80357 -0.03945,-0.1214 -0.969014,-1.40033 -1.072286,-1.47536 -0.103272,-0.075 -1.60661,-0.56327 -1.734261,-0.56327 z m 0.01395,1.83554 c -0.0016,3.3e-4 -0.0019,1.2e-4 -0.0036,5.2e-4 -0.02466,0.006 -0.06222,0.016 -0.106971,0.03 -0.0895,0.0279 -0.208385,0.0699 -0.344681,0.12093 -0.06274,0.0235 -0.138622,0.0542 -0.20774,0.0811 0.04093,0.0398 0.104302,0.0629 0.191203,0.0682 l -0.110071,0.14625 -0.001,1.38389 0.197404,0.0863 c 0.04959,-0.0567 0.111394,-0.0834 0.185001,-0.0801 -0.06515,0.0335 -0.151292,0.12742 -0.257865,0.28009 9.2e-4,3.4e-4 0.0022,6.9e-4 0.0031,0.001 0.136296,0.051 0.255183,0.093 0.344681,0.12092 0.04475,0.0139 0.08231,0.0242 0.106971,0.03 0.0017,4e-4 0.002,1.8e-4 0.0036,5.1e-4 0.0016,-3.3e-4 0.0019,-1.1e-4 0.0036,-5.1e-4 0.02466,-0.006 0.06222,-0.016 0.106971,-0.03 0.06933,-0.0216 0.160243,-0.0537 0.259415,-0.0899 l -0.353467,-0.001 c -0.133268,0.008 -0.24214,-0.0163 -0.326595,-0.0713 0.150314,0.004 0.244963,-0.0359 0.283704,-0.12092 v -0.38448 l 0.594796,-0.53381 v -0.60565 c 0.04835,-0.0325 0.09724,-0.0925 0.146244,-0.17932 -0.01085,-0.004 -0.02131,-0.008 -0.03204,-0.0124 -0.093,0.1514 -0.184449,0.23836 -0.273369,0.25942 -0.115447,0.0275 -0.228199,-0.0307 -0.338997,-0.17415 l -0.137459,0.0713 0.218591,-0.32763 c 0.04339,0.10175 0.113471,0.1681 0.210323,0.19895 0.06331,0.0196 0.143369,-6.6e-4 0.239779,-0.0594 -0.04737,-0.0183 -0.101629,-0.0409 -0.145728,-0.0574 -0.136297,-0.051 -0.2557,-0.093 -0.345198,-0.12093 -0.04475,-0.0139 -0.08231,-0.0242 -0.106971,-0.03 -0.0017,-4e-4 -0.002,-1.9e-4 -0.0036,-5.2e-4 z m 0.794267,0.28422 v 0.71056 l -0.58136,0.51831 v 0.41031 l 0.533301,-0.002 c 0.07283,-0.17347 0.181187,-0.28757 0.324528,-0.34261 -0.115922,0.0713 -0.204653,0.20583 -0.267167,0.40307 0.192891,-0.077 0.394404,-0.15969 0.598413,-0.24701 0.332185,-0.14218 0.656211,-0.28796 0.894519,-0.40463 0.119155,-0.0583 0.217005,-0.10949 0.282153,-0.14779 0.03257,-0.0192 0.05671,-0.0354 0.07028,-0.046 9.87e-4,-7.7e-4 6.88e-4,-8.8e-4 0.0016,-0.002 -8.12e-4,-7.4e-4 -5.13e-4,-8.5e-4 -0.0016,-0.002 -0.01357,-0.0106 -0.0377,-0.0268 -0.07028,-0.046 -0.06515,-0.0383 -0.162998,-0.0895 -0.282153,-0.1478 -0.238308,-0.11668 -0.562334,-0.26244 -0.894519,-0.40462 -0.207419,-0.0888 -0.412101,-0.17213 -0.607715,-0.25012 z m -1.791622,0.0816 c -0.133492,0.0546 -0.269002,0.11042 -0.404627,0.16847 -0.332185,0.14218 -0.655693,0.28794 -0.894002,0.40462 -0.119154,0.0583 -0.217006,0.10949 -0.282153,0.1478 -0.03257,0.0191 -0.05671,0.0354 -0.07028,0.046 -9.88e-4,7.7e-4 -6.89e-4,8.8e-4 -0.0016,0.002 8.11e-4,7.4e-4 5.13e-4,8.5e-4 0.0016,0.002 0.01357,0.0106 0.03771,0.0268 0.07028,0.046 0.06515,0.0383 0.162999,0.0894 0.282153,0.14779 0.238309,0.11667 0.561817,0.26245 0.894002,0.40463 0.197126,0.0844 0.392346,0.16479 0.57981,0.23978 0.0043,-0.008 0.0086,-0.016 0.0124,-0.0243 l 0.001,-1.49862 c -0.04107,-0.007 -0.07261,-0.0255 -0.09508,-0.0563 l -0.194303,0.0698 z m 0.536401,0 v 1.34204 l -0.06511,0.0589 v -1.30948 z m 1.00304,0.0827 -0.0016,0.56379 c -0.116222,-0.0592 -0.230007,-0.0624 -0.341581,-0.01 0.03874,-0.0934 0.130804,-0.13101 0.276469,-0.11266 v -0.14107 c -0.0891,-0.0409 -0.173667,-0.0296 -0.254248,0.0346 0.01782,-0.0984 0.102384,-0.14616 0.254248,-0.14366 v -0.14521 z m -3.391008,0.79633 c 0.0018,0.37797 0.01126,0.72745 0.02894,0.78186 0.03945,0.12141 0.968498,1.40034 1.071769,1.47537 0.103272,0.075 1.60661,0.56327 1.734261,0.56327 0.127651,0 1.630989,-0.48824 1.734261,-0.56327 0.103271,-0.075 1.03284,-1.35396 1.072286,-1.47537 0.01741,-0.0536 0.02638,-0.39354 0.02842,-0.76481 -0.07406,0.0433 -0.173984,0.0952 -0.294038,0.154 -0.245394,0.12014 -0.572008,0.26755 -0.907955,0.41134 -0.335948,0.1438 -0.681002,0.28358 -0.961699,0.38861 -0.140348,0.0525 -0.264063,0.0963 -0.366386,0.12816 -0.05116,0.0159 -0.0965,0.0291 -0.139526,0.0393 -0.04303,0.0101 -0.0759,0.0201 -0.151412,0.0201 -0.07552,0 -0.108384,-0.01 -0.151412,-0.0201 -0.04303,-0.0101 -0.08836,-0.0233 -0.139526,-0.0393 -0.102323,-0.0319 -0.226038,-0.0756 -0.366386,-0.12816 -0.06846,-0.0256 -0.149277,-0.0585 -0.224276,-0.0879 -0.03631,0.0101 -0.07927,0.0168 -0.130225,0.0191 0.02598,-0.0124 0.04953,-0.0266 0.07131,-0.0419 -0.216749,-0.0855 -0.445457,-0.17848 -0.677995,-0.27802 -0.335947,-0.14379 -0.662561,-0.2912 -0.907955,-0.41134 -0.122697,-0.0601 -0.22524,-0.1133 -0.299723,-0.1571 -0.0084,-0.005 -0.01505,-0.009 -0.02274,-0.0139 z" />
  </g>
</svg>
