<?xml version="1.0" encoding="UTF-8" standalone="no"?>
<!-- Created with Inkscape (http://www.inkscape.org/) -->

<svg
   width="5.670455mm"
   height="5.9009318mm"
   viewBox="0 0 5.670455 5.9009318"
   version="1.1"
   id="svg1"
   xmlns="http://www.w3.org/2000/svg"
   xmlns:svg="http://www.w3.org/2000/svg">
  <defs
     id="defs1">
    <linearGradient
       id="swatch4">
      <stop
         style="stop-color:#000000;stop-opacity:1;"
         offset="0"
         id="stop4" />
    </linearGradient>
  </defs>
  <g
     id="layer2"
     style="stroke:#ffffff;stroke-opacity:1"
     transform="translate(-57.255938,-195.59426)">
    <path
       id="path237-317-04-45"
       style="fill:#000000;fill-opacity:1;stroke:none;stroke-width:0.200527;stroke-dasharray:none;stroke-opacity:1"
       d="m 60.090906,195.59426 c -0.127651,0 -1.630989,0.48825 -1.734261,0.56328 -0.103272,0.075 -1.032324,1.35396 -1.07177,1.47536 -0.01828,0.0563 -0.02761,0.4279 -0.02894,0.82062 0.0077,-0.005 0.01437,-0.009 0.02274,-0.0139 0.07448,-0.0438 0.177027,-0.097 0.299724,-0.1571 0.245394,-0.12015 0.572008,-0.26755 0.907955,-0.41134 0.335947,-0.14379 0.680484,-0.28357 0.961181,-0.38861 0.140348,-0.0525 0.264064,-0.0963 0.366386,-0.12816 0.05116,-0.0159 0.0965,-0.0286 0.139526,-0.0388 0.04303,-0.0101 0.0759,-0.0207 0.151412,-0.0207 0.07551,0 0.108384,0.0105 0.151412,0.0207 0.04303,0.0101 0.08836,0.0228 0.139527,0.0388 0.102323,0.0319 0.226037,0.0756 0.366386,0.12816 0.280696,0.10504 0.625751,0.24482 0.961698,0.38861 0.335948,0.14379 0.662562,0.29119 0.907955,0.41134 0.120239,0.0589 0.220469,0.11072 0.294556,0.154 -0.0016,-0.38625 -0.01092,-0.74812 -0.02894,-0.80357 -0.03945,-0.1214 -0.969014,-1.40033 -1.072286,-1.47536 -0.103272,-0.075 -1.60661,-0.56328 -1.734261,-0.56328 z m 0.01395,1.83555 c -0.0016,3.3e-4 -0.0019,1.2e-4 -0.0036,5.2e-4 -0.02466,0.006 -0.06222,0.016 -0.10697,0.03 -0.0895,0.0279 -0.208386,0.0699 -0.344682,0.12092 -0.272592,0.102 -0.614527,0.24073 -0.946712,0.38292 -0.332185,0.14218 -0.655693,0.28795 -0.894002,0.40463 -0.119154,0.0583 -0.217007,0.10948 -0.282154,0.14779 -0.03257,0.0191 -0.05671,0.0354 -0.07028,0.046 -9.88e-4,7.7e-4 -6.89e-4,3.6e-4 -0.0015,0.002 8.11e-4,7.4e-4 5.13e-4,8.4e-4 0.0015,0.002 0.01357,0.0106 0.03771,0.0268 0.07028,0.046 0.06515,0.0383 0.163,0.0894 0.282154,0.14779 0.238309,0.11667 0.561817,0.26245 0.894002,0.40463 0.332185,0.14219 0.67412,0.28091 0.946712,0.38292 0.136296,0.051 0.255184,0.093 0.344682,0.12092 0.04475,0.0139 0.08231,0.0242 0.10697,0.03 0.0017,4e-4 0.002,1.9e-4 0.0036,5.2e-4 0.0016,-3.3e-4 0.0019,-1.2e-4 0.0036,-5.2e-4 0.02466,-0.006 0.06222,-0.016 0.10697,-0.03 0.0895,-0.0279 0.208902,-0.0699 0.345199,-0.12092 0.272592,-0.10201 0.61401,-0.24073 0.946195,-0.38292 0.332185,-0.14218 0.656211,-0.28796 0.894519,-0.40463 0.119155,-0.0583 0.217005,-0.10949 0.282153,-0.14779 0.03257,-0.0192 0.05671,-0.0354 0.07028,-0.046 9.87e-4,-7.7e-4 6.89e-4,-8.7e-4 0.0016,-0.002 -8.12e-4,-7.4e-4 -5.15e-4,-3.3e-4 -0.0016,-0.002 -0.01357,-0.0106 -0.0377,-0.0268 -0.07028,-0.046 -0.06515,-0.0383 -0.162998,-0.0895 -0.282153,-0.14779 -0.238308,-0.11668 -0.562334,-0.26245 -0.894519,-0.40463 -0.332185,-0.14219 -0.673603,-0.28092 -0.946195,-0.38292 -0.09834,-0.0368 -0.183036,-0.0665 -0.258899,-0.092 -0.03102,0.0165 -0.06666,0.0399 -0.105937,0.0703 0.02125,0.0481 0.06515,0.092 0.132808,0.13229 0.09453,0.0559 0.205986,0.0476 0.33383,-0.0258 l -0.138493,0.14883 v 0.30386 l -0.220658,0.22272 v -0.40773 c -0.06366,-0.0101 -0.128666,-0.0385 -0.194303,-0.0842 v 0.57258 l 0.104903,0.0558 0.310058,-0.30799 -0.0057,0.11782 -0.22996,0.23771 c 0.07283,0.0325 0.135156,0.0543 0.187068,0.0651 0.05269,0.0108 0.115011,-0.006 0.187069,-0.0491 l -0.138493,0.14883 v 0.3793 l -0.243912,0.23513 v -0.60823 l -0.171049,-0.0822 v 0.6103 l -0.0708,0.0589 v -0.70331 l -0.08113,-0.0388 -0.0016,0.76171 0.258382,0.11265 0.310058,-0.30747 -0.0057,0.11731 -0.413928,0.41547 -0.397392,-0.19017 c -0.03874,-0.0167 -0.0946,-0.0176 -0.167432,-0.003 0.07051,-0.055 0.123005,-0.084 0.157097,-0.0873 v -0.65164 c -0.03952,0.0133 -0.09848,-0.0141 -0.176734,-0.0816 0.06973,0.0284 0.127661,0.0295 0.17415,0.004 l 0.165364,-0.14625 c -0.116997,-0.006 -0.204146,0.003 -0.261482,0.0253 0.07051,-0.055 0.122229,-0.0845 0.155546,-0.0879 v -0.47645 c -0.03874,0.0133 -0.09744,-0.0136 -0.1757,-0.0811 0.06973,0.0284 0.128177,0.0295 0.174666,0.004 l 0.322461,-0.27595 c 0.05483,-0.0604 0.109787,-0.10201 0.164331,-0.12454 -0.0072,-0.002 -0.01692,-0.006 -0.02377,-0.008 -0.04475,-0.0139 -0.08231,-0.0242 -0.10697,-0.03 -0.0017,-4e-4 -0.002,-1.9e-4 -0.0036,-5.2e-4 z m -0.12609,0.30747 v 0.61547 l 0.05943,0.0315 v -0.59066 c -0.01977,-0.0174 -0.03949,-0.0358 -0.05943,-0.0563 z m -2.722831,0.93741 c 0.0018,0.37797 0.01126,0.72746 0.02894,0.78187 0.03945,0.12141 0.968498,1.40033 1.07177,1.47536 0.103271,0.075 1.60661,0.56327 1.734261,0.56327 0.12765,0 1.630989,-0.48824 1.734261,-0.56327 0.103271,-0.075 1.03284,-1.35395 1.072286,-1.47536 0.01741,-0.0536 0.02638,-0.39354 0.02842,-0.76481 -0.07406,0.0433 -0.173985,0.0952 -0.294039,0.15399 -0.245394,0.12014 -0.572008,0.26756 -0.907955,0.41135 -0.335947,0.1438 -0.681001,0.28357 -0.961698,0.3886 -0.140348,0.0525 -0.264063,0.0963 -0.366386,0.12816 -0.05116,0.0159 -0.0965,0.0291 -0.139527,0.0393 -0.04303,0.0101 -0.0759,0.0202 -0.151412,0.0202 -0.07552,0 -0.108384,-0.01 -0.151412,-0.0202 -0.04303,-0.0101 -0.08837,-0.0233 -0.139526,-0.0393 -0.102323,-0.0319 -0.226038,-0.0756 -0.366386,-0.12816 -0.280697,-0.10503 -0.625234,-0.2448 -0.961181,-0.3886 -0.335947,-0.14379 -0.662561,-0.29121 -0.907955,-0.41135 -0.122697,-0.0601 -0.225241,-0.11329 -0.299724,-0.15709 -0.0084,-0.005 -0.01505,-0.009 -0.02274,-0.014 z" />
  </g>
</svg>
