<?xml version="1.0" encoding="UTF-8" standalone="no"?>
<!-- Created with Inkscape (http://www.inkscape.org/) -->

<svg
   width="7.2042155mm"
   height="6.3609805mm"
   viewBox="0 0 7.2042155 6.3609805"
   version="1.1"
   id="svg1"
   xmlns="http://www.w3.org/2000/svg"
   xmlns:svg="http://www.w3.org/2000/svg">
  <defs
     id="defs1">
    <linearGradient
       id="swatch4">
      <stop
         style="stop-color:#000000;stop-opacity:1;"
         offset="0"
         id="stop4" />
    </linearGradient>
  </defs>
  <g
     id="layer2"
     style="stroke:#ffffff;stroke-opacity:1"
     transform="translate(-56.546852,-128.15846)">
    <g
       id="g16">
      <path
         id="path34-39-22"
         style="fill:#000000;fill-opacity:1;stroke:none;stroke-width:0.250658;stroke-dasharray:none;stroke-opacity:1"
         d="m 62.869982,132.24711 c 0.505686,-0.47548 0.881083,-0.85971 0.881083,-0.93534 0,-0.20955 -2.852531,-2.76497 -3.488159,-3.1533 z" />
      <path
         id="path257-0"
         style="fill:#000000;fill-opacity:1;stroke:none;stroke-width:0.250658;stroke-dasharray:none;stroke-opacity:1"
         d="m 60.096073,131.11603 c -0.01972,-0.0174 -0.03953,-0.0358 -0.05943,-0.0563 v 0.61547 l 0.05943,0.0315 z" />
      <path
         id="path816"
         style="fill:#000000;fill-opacity:1;stroke:none;stroke-width:0.250658;stroke-dasharray:none;stroke-opacity:1"
         d="m 60.148783,128.44591 -2.526977,3.961 -0.07286,-0.0465 c 1.008369,0.93865 2.436755,2.15904 2.599841,2.15904 0.164241,0 1.611633,-1.2375 2.621029,-2.17868 l -0.09715,0.062 z m 0.232028,2.32595 c 0.03148,-0.002 0.06267,0.003 0.09405,0.0134 -0.04633,-0.0131 -0.120131,0.0199 -0.220659,0.0977 0.02146,0.0477 0.0652,0.0918 0.132292,0.13177 0.09453,0.0559 0.205985,0.047 0.33383,-0.0263 l -0.138493,0.14883 v 0.30437 l -0.220658,0.22221 v -0.40773 c -0.06366,-0.0101 -0.128667,-0.038 -0.194304,-0.0837 v 0.57205 l 0.104387,0.0558 0.310575,-0.30747 -0.0057,0.1173 -0.230476,0.23772 c 0.07283,0.0325 0.135671,0.0542 0.187585,0.0651 0.05269,0.0109 0.115011,-0.005 0.187069,-0.0486 l -0.138493,0.14883 v 0.37879 l -0.243913,0.23564 v -0.60823 l -0.171049,-0.0822 v 0.61081 l -0.0708,0.0589 v -0.70383 l -0.08113,-0.0388 -0.0016,0.76171 0.258382,0.11266 0.310059,-0.30799 -0.0057,0.11782 -0.413928,0.41548 -0.397392,-0.19017 c -0.03874,-0.0164 -0.0946,-0.0171 -0.167431,-0.002 0.07051,-0.0549 0.123007,-0.0844 0.157096,-0.0879 v -0.65164 c -0.03952,0.0134 -0.09848,-0.0136 -0.176733,-0.0811 0.06973,0.0286 0.127658,0.03 0.174149,0.004 l 0.165365,-0.14779 c -0.116995,-0.006 -0.204145,0.002 -0.261483,0.0248 0.07051,-0.0549 0.122228,-0.0839 0.155546,-0.0873 v -0.47646 c -0.03874,0.0134 -0.09744,-0.0141 -0.1757,-0.0816 0.06973,0.0286 0.128176,0.03 0.174667,0.004 l 0.325044,-0.2775 c 0.0821,-0.0895 0.164012,-0.13688 0.245464,-0.1416 z" />
      <path
         id="path256-1"
         style="fill:#000000;fill-opacity:1;stroke:none;stroke-width:0.250658;stroke-dasharray:none;stroke-opacity:1"
         d="m 60.033979,128.15899 c -0.637186,0.38995 -3.487126,2.94332 -3.487126,3.15278 0,0.0756 0.375057,0.4595 0.880568,0.93482 z" />
    </g>
  </g>
</svg>
