<?xml version="1.0" encoding="UTF-8" standalone="no"?>
<!-- Created with Inkscape (http://www.inkscape.org/) -->

<svg
   width="5.6285949mm"
   height="6.2502718mm"
   viewBox="0 0 5.6285949 6.2502718"
   version="1.1"
   id="svg1"
   xmlns="http://www.w3.org/2000/svg"
   xmlns:svg="http://www.w3.org/2000/svg">
  <defs
     id="defs1">
    <linearGradient
       id="swatch4">
      <stop
         style="stop-color:#000000;stop-opacity:1;"
         offset="0"
         id="stop4" />
    </linearGradient>
  </defs>
  <g
     id="layer2"
     style="stroke:#ffffff;stroke-opacity:1"
     transform="translate(-26.21081,-120.4839)">
    <g
       id="g4">
      <path
         id="path221"
         style="fill:#000000;fill-opacity:1;stroke:none;stroke-width:0.200527;stroke-dasharray:none;stroke-opacity:1"
         d="m 29.025618,120.49497 c -0.0028,0.003 -0.0031,0.003 -0.0062,0.006 -0.02798,0.0271 -0.06783,0.0727 -0.114205,0.13177 -0.09276,0.11817 -0.214314,0.29204 -0.351916,0.50126 -0.275204,0.41845 -0.616638,0.9809 -0.945679,1.55081 -0.32904,0.56992 -0.645445,1.14718 -0.870231,1.59474 -0.112392,0.22378 -0.202422,0.41559 -0.258382,0.555 -0.02798,0.0697 -0.04732,0.12704 -0.05684,0.16485 -0.001,0.004 -8.06e-4,0.005 -0.0016,0.008 0.0036,10e-4 0.0042,0.002 0.0083,0.003 0.0375,0.0106 0.09669,0.023 0.171049,0.0336 0.148715,0.0213 0.35927,0.0391 0.609265,0.0537 0.49999,0.0291 1.158346,0.0439 1.816426,0.0439 0.65808,0 1.316955,-0.0148 1.816944,-0.0439 0.249995,-0.0146 0.46055,-0.0324 0.609265,-0.0537 0.07436,-0.0106 0.133028,-0.0229 0.170532,-0.0336 0.0042,-0.001 0.0052,-0.002 0.0088,-0.003 -7.89e-4,-0.004 -4.57e-4,-0.004 -0.0015,-0.008 -0.0095,-0.0378 -0.02938,-0.0951 -0.05736,-0.16485 -0.05596,-0.13941 -0.145473,-0.33122 -0.257865,-0.555 -0.224786,-0.44756 -0.54119,-1.02482 -0.870231,-1.59474 -0.32904,-0.56991 -0.670992,-1.13236 -0.946196,-1.55081 -0.137602,-0.20922 -0.258644,-0.38309 -0.3514,-0.50126 -0.04638,-0.0591 -0.08623,-0.10462 -0.114205,-0.13177 -0.0031,-0.003 -0.0039,-0.003 -0.0067,-0.006 z m 0.152963,2.08618 c 0.02014,0.10174 0.08221,0.16312 0.186035,0.18397 0.1046,0.0209 0.19718,0.002 0.278536,-0.0574 -0.09143,0.17013 -0.200559,0.25751 -0.327629,0.26251 -0.126295,0.005 -0.228185,-0.0278 -0.306441,-0.0987 l -0.137459,0.0625 z m 0.235644,0.40049 v 1.06454 l 0.221175,10e-4 v 0.0816 l -0.221175,-0.003 v 0.1602 l 0.09198,0.0713 c 0.03487,-0.055 0.09435,-0.0816 0.178801,-0.0791 -0.05811,0.0292 -0.148364,0.156 -0.270785,0.38034 l -0.19637,-0.14625 c -0.07438,0.0742 -0.172652,0.12106 -0.295073,0.14108 0.101501,-0.0642 0.17753,-0.1455 0.227893,-0.24391 v -0.26252 H 28.59412 v -0.0951 l 0.556555,10e-4 v -1.06453 c 0.08833,0.0317 0.175996,0.0295 0.26355,-0.007 z m -0.278536,0.0124 c -0.106924,0.04 -0.210883,0.34547 -0.311609,0.91674 -0.14334,0.12927 -0.296175,0.16392 -0.458886,0.10387 0.118546,0.0275 0.248107,-0.13636 0.389123,-0.49247 0.141017,-0.35611 0.268249,-0.53231 0.381372,-0.52814 z" />
      <path
         id="path218-0-8"
         style="fill:#000000;fill-opacity:1;stroke:none;stroke-width:0.200527;stroke-dasharray:none;stroke-opacity:1"
         d="m 31.809854,124.90431 c 0.0476,-0.7134 0.03775,-2.82464 -0.02997,-2.94194 -0.06656,-0.11529 -1.825067,-1.14247 -2.494938,-1.47743 0.0066,0.008 0.01226,0.015 0.01912,0.0238 0.09909,0.12624 0.221888,0.30233 0.361218,0.51419 0.278661,0.4237 0.621872,0.98866 0.952397,1.56114 0.330524,0.57249 0.648307,1.15189 0.875916,1.60507 0.113804,0.22659 0.204802,0.42158 0.264583,0.57051 0.02211,0.0551 0.03849,0.10164 0.05168,0.14469 z" />
      <path
         id="path217-20-64"
         style="fill:#000000;fill-opacity:1;stroke:none;stroke-width:0.200527;stroke-dasharray:none;stroke-opacity:1"
         d="m 26.305281,125.17768 c 0.303425,0.25318 2.568941,1.5565 2.71973,1.5565 0.150613,0 2.411546,-1.30063 2.719214,-1.55598 -0.02096,0.01 -0.04275,0.0179 -0.06718,0.0248 -0.05274,0.015 -0.117452,0.0274 -0.196887,0.0388 -0.15887,0.0227 -0.373184,0.0411 -0.626319,0.0558 -0.506269,0.0295 -1.167263,0.0439 -1.828312,0.0439 -0.661049,0 -1.321526,-0.0145 -1.827795,-0.0439 -0.253135,-0.0147 -0.467449,-0.0331 -0.626319,-0.0558 -0.07944,-0.0113 -0.144668,-0.0238 -0.197404,-0.0388 -0.02514,-0.007 -0.04722,-0.0148 -0.06873,-0.0253 z" />
      <path
         id="path216-89-6"
         style="fill:#000000;fill-opacity:1;stroke:none;stroke-width:0.200527;stroke-dasharray:none;stroke-opacity:1"
         d="m 28.76818,120.48391 c -0.667836,0.33354 -2.431388,1.36302 -2.498039,1.47846 -0.06782,0.11747 -0.0773,2.23525 -0.02946,2.94556 0.01328,-0.0439 0.02948,-0.0917 0.05219,-0.14831 0.05978,-0.14893 0.15078,-0.34392 0.264584,-0.57051 0.227608,-0.45318 0.545391,-1.03258 0.875915,-1.60507 0.330525,-0.57248 0.673736,-1.13744 0.952397,-1.56114 0.13933,-0.21186 0.262646,-0.38795 0.361735,-0.51419 0.0073,-0.009 0.01368,-0.0161 0.02067,-0.0248 z" />
    </g>
  </g>
</svg>
