<?xml version="1.0" encoding="UTF-8" standalone="no"?>
<!-- Created with Inkscape (http://www.inkscape.org/) -->

<svg
   width="6.9887209mm"
   height="6.2364087mm"
   viewBox="0 0 6.9887209 6.2364087"
   version="1.1"
   id="svg1"
   xmlns="http://www.w3.org/2000/svg"
   xmlns:svg="http://www.w3.org/2000/svg">
  <defs
     id="defs1">
    <linearGradient
       id="swatch4">
      <stop
         style="stop-color:#000000;stop-opacity:1;"
         offset="0"
         id="stop4" />
    </linearGradient>
  </defs>
  <g
     id="layer2"
     style="stroke:#ffffff;stroke-opacity:1"
     transform="translate(-10.137366,-150.4177)">
    <path
       id="path94-48-8"
       style="fill:#000000;fill-opacity:1;stroke:none;stroke-width:0.192506;stroke-dasharray:none;stroke-opacity:1"
       d="m 13.630693,150.41769 v 5.2e-4 c -0.703573,0 -1.400448,0.0158 -1.658297,0.0465 l 0.555521,1.00872 c 0.024,-0.004 0.05257,-0.006 0.0863,-0.009 0.06866,-0.006 0.158762,-0.0104 0.264067,-0.0139 0.21061,-0.007 0.481209,-0.0109 0.752409,-0.0109 0.271199,0 0.542316,0.004 0.752925,0.0109 0.105305,0.004 0.195412,0.008 0.264067,0.0139 0.03433,0.003 0.0636,0.005 0.08785,0.009 l 0.575675,-1.00666 c -0.240758,-0.0323 -0.958826,-0.0491 -1.680517,-0.0491 z m -1.826246,0.13953 c -0.303935,0.40167 -1.458801,2.4017 -1.663981,2.88044 l 1.161687,0.002 c 0.0077,-0.0183 0.01511,-0.0363 0.02584,-0.0589 0.02956,-0.0622 0.07032,-0.14215 0.119889,-0.23513 0.09914,-0.18595 0.231819,-0.42246 0.367419,-0.65732 0.135599,-0.23487 0.274549,-0.46764 0.386023,-0.64647 0.05574,-0.0894 0.104045,-0.16499 0.143144,-0.22169 0.0091,-0.0132 0.01614,-0.0219 0.02429,-0.0331 z m 3.665927,0.0176 -0.577226,1.01234 c 0.0081,0.0112 0.01521,0.0199 0.02429,0.0331 0.0391,0.0567 0.08741,0.13228 0.143143,0.22169 0.111474,0.17884 0.250423,0.41161 0.386023,0.64648 0.1356,0.23486 0.268284,0.47137 0.36742,0.65732 0.04957,0.093 0.09033,0.17292 0.119889,0.23513 0.01065,0.0224 0.01819,0.0402 0.02584,0.0584 l 1.159103,-0.007 c -0.207703,-0.48043 -1.327349,-2.42009 -1.648478,-2.85719 z m -1.840198,1.05781 c -0.269347,1e-5 -0.538658,0.003 -0.745691,0.0103 -0.103584,0.004 -0.191371,0.008 -0.254765,0.0129 -0.0317,0.002 -0.05762,0.005 -0.07441,0.008 -0.0023,3.4e-4 -0.003,0.001 -0.0052,0.002 -0.0012,0.001 -0.0019,0.002 -0.0031,0.003 -0.01059,0.0133 -0.02587,0.0343 -0.04392,0.0605 -0.0361,0.0524 -0.08418,0.1265 -0.13901,0.21445 -0.109652,0.17591 -0.247127,0.40738 -0.381889,0.64079 -0.134761,0.23341 -0.266802,0.46872 -0.364318,0.65164 -0.04876,0.0915 -0.08898,0.17044 -0.116272,0.22789 -0.01365,0.0287 -0.02428,0.0524 -0.03049,0.0682 -7.5e-4,0.002 -5.23e-4,0.003 -0.001,0.005 5.42e-4,0.002 3.15e-4,0.003 0.001,0.005 0.0062,0.0158 0.01684,0.0395 0.03049,0.0682 0.02729,0.0574 0.06751,0.13592 0.116272,0.22738 0.09752,0.18291 0.229557,0.41822 0.364318,0.65163 0.134762,0.23342 0.272237,0.4654 0.381889,0.64131 0.05483,0.088 0.102907,0.1621 0.13901,0.21446 0.01805,0.0262 0.03333,0.0467 0.04392,0.0599 0.0015,0.002 0.0025,0.002 0.0041,0.004 0.0017,3.4e-4 0.0023,7.2e-4 0.0041,0.001 0.0168,0.002 0.04272,0.005 0.07441,0.008 0.06339,0.005 0.151181,0.009 0.254765,0.0129 0.207168,0.007 0.476685,0.0103 0.746208,0.0103 0.269522,0 0.539555,-0.003 0.746724,-0.0103 0.103584,-0.003 0.191371,-0.008 0.254765,-0.0129 0.0317,-0.002 0.05762,-0.005 0.07441,-0.008 0.0018,-2.7e-4 0.0024,-7.2e-4 0.0041,-0.001 0.0016,-0.002 0.0021,-0.002 0.0036,-0.004 0.01059,-0.0133 0.02587,-0.0337 0.04392,-0.0599 0.0361,-0.0524 0.08418,-0.1265 0.13901,-0.21446 0.109652,-0.17591 0.247127,-0.40789 0.381889,-0.64131 0.134761,-0.23341 0.266803,-0.46872 0.364319,-0.65163 0.04876,-0.0915 0.08898,-0.16993 0.116272,-0.22738 0.01365,-0.0287 0.02428,-0.0524 0.03049,-0.0682 7.54e-4,-0.002 5.13e-4,-0.003 0.001,-0.005 -5.48e-4,-0.002 -3.15e-4,-0.003 -0.001,-0.005 -0.0062,-0.0158 -0.01684,-0.0395 -0.03049,-0.0682 -0.02729,-0.0575 -0.06751,-0.13643 -0.116272,-0.22789 -0.09752,-0.18292 -0.229558,-0.41823 -0.364319,-0.65164 -0.134762,-0.23341 -0.272237,-0.46488 -0.381889,-0.64079 -0.05483,-0.0879 -0.102907,-0.16209 -0.13901,-0.21445 -0.01805,-0.0262 -0.03335,-0.0472 -0.04392,-0.0605 -0.0012,-0.001 -0.0019,-0.002 -0.0031,-0.003 -0.0021,-6.9e-4 -0.0029,-0.001 -0.0052,-0.002 -0.0168,-0.002 -0.04272,-0.005 -0.07441,-0.008 -0.06339,-0.005 -0.151181,-0.01 -0.254765,-0.0129 -0.207034,-0.007 -0.476859,-0.0103 -0.746207,-0.0103 z m -0.227377,0.86248 c 0.04339,0.10175 0.113472,0.1681 0.210324,0.19896 0.09685,0.03 0.23236,-0.0316 0.406693,-0.185 -0.123195,0.25019 -0.242929,0.38899 -0.359151,0.41651 -0.115448,0.0275 -0.228716,-0.0302 -0.339514,-0.17363 l -0.136943,0.0713 z m 0.642339,0.0202 v 0.90589 l -0.580844,0.51779 v 0.41032 l 0.533301,-0.001 c 0.07283,-0.17347 0.181187,-0.28809 0.324528,-0.34313 -0.14644,0.0901 -0.250398,0.281 -0.311609,0.57206 l -0.74259,-0.003 c -0.133268,0.008 -0.24214,-0.0163 -0.326595,-0.0713 0.150314,0.004 0.244963,-0.0364 0.283704,-0.12144 v -0.38395 l 0.594795,-0.53434 v -0.60565 c 0.07438,-0.05 0.149378,-0.16414 0.22531,-0.34261 z m -0.252181,0.35915 -10e-4,0.56431 c -0.116222,-0.0592 -0.230008,-0.0629 -0.341581,-0.0103 0.03874,-0.0934 0.130804,-0.131 0.276469,-0.11265 v -0.14108 c -0.0891,-0.0409 -0.173668,-0.0291 -0.254248,0.0351 0.01782,-0.0984 0.102384,-0.14668 0.254248,-0.14418 v -0.14521 z m 3.333129,0.75086 -1.165303,0.006 c -0.0079,0.0188 -0.01562,0.0378 -0.02687,0.0615 -0.02956,0.0622 -0.07032,0.14215 -0.119889,0.23513 -0.09914,0.18595 -0.23182,0.42245 -0.36742,0.65732 -0.1356,0.23487 -0.274549,0.46816 -0.386023,0.64699 -0.05574,0.0894 -0.104043,0.16499 -0.143143,0.22169 -0.01445,0.0209 -0.02665,0.0364 -0.03876,0.0522 l 0.57826,1.01131 c 0.304945,-0.4024 1.476214,-2.43134 1.669148,-2.89181 z m -6.98872,0.004 c 0.198138,0.4686 1.368339,2.49456 1.669665,2.89026 l 0.58291,-1.00407 c -0.01382,-0.0177 -0.02838,-0.0372 -0.04547,-0.062 -0.0391,-0.0567 -0.08741,-0.13228 -0.143144,-0.22169 -0.111474,-0.17883 -0.250424,-0.41212 -0.386023,-0.64699 -0.1356,-0.23487 -0.268283,-0.47136 -0.367419,-0.65732 -0.04957,-0.093 -0.09033,-0.17292 -0.119889,-0.23513 -0.01117,-0.0235 -0.01901,-0.0423 -0.02687,-0.061 z m 4.576981,1.97248 c -0.02025,0.002 -0.04061,0.005 -0.06666,0.007 -0.06865,0.005 -0.158762,0.01 -0.264067,0.0134 -0.210609,0.007 -0.481726,0.0109 -0.752925,0.0109 -0.2712,0 -0.541799,-0.004 -0.752409,-0.0109 -0.105305,-0.004 -0.195411,-0.008 -0.264067,-0.0134 -0.0208,-0.002 -0.03613,-0.004 -0.05323,-0.006 l -0.581876,1.00666 c 0.528329,0.0605 2.795476,0.06 3.309875,-0.001 z m 0.685747,0.98031 -0.01705,0.01 c 0.0022,-0.001 0.0088,-0.002 0.01034,-0.003 0.0015,-8.7e-4 0.0045,-0.005 0.0067,-0.007 z" />
  </g>
</svg>
