<?xml version="1.0" encoding="UTF-8" standalone="no"?>
<!-- Created with Inkscape (http://www.inkscape.org/) -->

<svg
   width="5.7146626mm"
   height="6.4037595mm"
   viewBox="0 0 5.7146626 6.4037595"
   version="1.1"
   id="svg1"
   xmlns="http://www.w3.org/2000/svg"
   xmlns:svg="http://www.w3.org/2000/svg">
  <defs
     id="defs1">
    <linearGradient
       id="swatch4">
      <stop
         style="stop-color:#000000;stop-opacity:1;"
         offset="0"
         id="stop4" />
    </linearGradient>
  </defs>
  <g
     id="layer2"
     style="stroke:#ffffff;stroke-opacity:1"
     transform="translate(-33.984088,-173.68551)">
    <path
       id="path63-83-4"
       style="fill:#000000;fill-opacity:1;stroke:none;stroke-width:0.174705;stroke-dasharray:none;stroke-opacity:1"
       d="m 36.841662,173.68552 c -0.139393,0 -2.055394,1.09552 -2.630847,1.48622 0.04375,-0.01 0.09191,-0.0191 0.149861,-0.0274 0.160719,-0.0229 0.377135,-0.0414 0.633037,-0.0563 0.511803,-0.0298 1.179747,-0.0439 1.847949,-0.0439 0.668203,0 1.336663,0.0141 1.848466,0.0439 0.255901,0.0149 0.4718,0.0333 0.632519,0.0563 0.0582,0.008 0.106505,0.0179 0.150379,0.0279 -0.574861,-0.3904 -2.491932,-1.48673 -2.631364,-1.48673 z m -5.17e-4,1.56632 c -0.664947,0 -1.329878,0.0145 -1.83503,0.0439 -0.252641,0.0147 -0.465807,0.0338 -0.615983,0.0553 -0.07509,0.0107 -0.134385,0.0219 -0.172083,0.0326 -0.0029,8.2e-4 -0.0036,10e-4 -0.0062,0.002 6.7e-4,0.003 -3.12e-4,0.003 5.17e-4,0.007 0.0096,0.038 0.03013,0.095 0.05839,0.16537 0.05651,0.14078 0.146351,0.33454 0.259933,0.56069 0.227165,0.4523 0.548006,1.03629 0.880566,1.6123 0.33256,0.57601 0.677379,1.14447 0.955497,1.56735 0.139059,0.21144 0.261352,0.38658 0.355018,0.50591 0.04683,0.0597 0.0866,0.10603 0.114721,0.13332 0.0022,0.002 0.0031,0.002 0.0052,0.004 0.0021,-0.002 0.002,-0.002 0.0041,-0.004 0.02812,-0.0273 0.06892,-0.0737 0.115755,-0.13332 0.09367,-0.11933 0.215958,-0.29447 0.355017,-0.50591 0.278117,-0.42288 0.623453,-0.99134 0.956014,-1.56735 0.33256,-0.57601 0.651851,-1.16 0.879016,-1.6123 0.113582,-0.22615 0.204974,-0.41991 0.261483,-0.56069 0.02826,-0.0704 0.04778,-0.12736 0.05736,-0.16537 8.63e-4,-0.003 3.82e-4,-0.004 10e-4,-0.007 -0.0026,-8.2e-4 -0.0033,-0.001 -0.0062,-0.002 -0.0377,-0.0107 -0.09699,-0.0219 -0.172082,-0.0326 -0.150176,-0.0215 -0.363341,-0.0406 -0.615983,-0.0553 -0.505152,-0.0294 -1.1706,-0.0439 -1.835547,-0.0439 z m -2.822567,0.21549 c -0.05367,0.65032 -0.04457,2.94002 0.02636,3.06286 0.07146,0.12378 2.077522,1.29183 2.650485,1.55908 -0.0011,-0.001 -0.002,-0.002 -0.0031,-0.003 -0.03992,-0.0387 -0.08372,-0.0891 -0.133842,-0.15297 -0.100242,-0.12771 -0.225015,-0.30621 -0.365869,-0.52038 -0.281706,-0.42833 -0.628114,-0.999 -0.962215,-1.57768 -0.334101,-0.57868 -0.655122,-1.16451 -0.885218,-1.62264 -0.115048,-0.22906 -0.207206,-0.42657 -0.267683,-0.57723 -0.02609,-0.065 -0.04516,-0.11919 -0.05891,-0.16794 z m 5.645651,0.002 c 4.3e-5,5.3e-4 -4.4e-5,0.002 0,0.002 1.38e-4,-4.8e-4 3.78e-4,-0.001 5.16e-4,-0.002 z m 0,0.002 c -0.01369,0.048 -0.0318,0.10118 -0.05736,0.16485 -0.06048,0.15067 -0.153154,0.34816 -0.268201,0.57723 -0.230097,0.45813 -0.550599,1.04395 -0.8847,1.62264 -0.334101,0.57867 -0.681025,1.14934 -0.962732,1.57768 -0.140853,0.21416 -0.26511,0.39267 -0.365353,0.52038 -0.05012,0.0639 -0.09444,0.11421 -0.134358,0.15296 -9.04e-4,8.2e-4 -0.0022,0.002 -0.0031,0.002 0.574471,-0.26826 2.578549,-1.43486 2.649967,-1.55856 0.0708,-0.12262 0.07919,-2.40431 0.02584,-3.05925 z m -2.817916,0.39533 0.504362,0.001 -0.161748,0.23255 -0.463537,0.002 v 0.50281 h 0.04031 v -0.43925 c 0.173558,-0.0592 0.31941,-0.0336 0.437182,0.0765 -0.128619,-0.05 -0.250422,-0.0559 -0.365869,-0.0176 v 0.11989 c 0.07283,-0.0309 0.141621,-0.0174 0.206706,0.0393 -0.08445,-0.0258 -0.153244,0.001 -0.206706,0.0811 l -0.05788,0.14005 0.356568,0.001 c 0.110023,0.002 0.208552,-0.04 0.296106,-0.12506 l -0.146245,0.21136 -10e-4,0.73949 -0.445451,0.47801 -0.31626,-0.20257 c -0.06973,-0.0334 -0.160244,-0.0175 -0.271818,0.0475 0.163486,-0.22184 0.290719,-0.32061 0.381372,-0.29559 l 0.31626,0.21291 0.06615,-0.0615 v -0.8232 h -0.409277 c -0.09375,-0.006 -0.196419,0.003 -0.307992,0.0253 0.07826,-0.0884 0.134115,-0.13413 0.167432,-0.13746 v -0.3266 c -0.03874,0.0134 -0.09744,-0.0263 -0.1757,-0.11885 0.06973,0.0283 0.128177,0.0295 0.174666,0.004 z m 0.131258,0.95808 v 0.75551 l -0.0708,0.0589 v -0.19017 c -0.06198,-0.0425 -0.123791,-0.0473 -0.185001,-0.0139 0.03332,-0.0726 0.09512,-0.11035 0.185001,-0.11369 l 10e-4,-0.41651 z" />
  </g>
</svg>
