<?xml version="1.0" encoding="UTF-8" standalone="no"?>
<!-- Created with Inkscape (http://www.inkscape.org/) -->

<svg
   width="7.2042117mm"
   height="6.3608513mm"
   viewBox="0 0 7.2042117 6.3608513"
   version="1.1"
   id="svg1"
   xmlns="http://www.w3.org/2000/svg"
   xmlns:svg="http://www.w3.org/2000/svg">
  <defs
     id="defs1">
    <linearGradient
       id="swatch4">
      <stop
         style="stop-color:#000000;stop-opacity:1;"
         offset="0"
         id="stop4" />
    </linearGradient>
  </defs>
  <g
     id="layer3"
     transform="translate(-9.5596241,-134.92922)">
    <path
       id="path280-3-7-2"
       style="fill:#000000;fill-opacity:1;stroke:none;stroke-width:0.250658;stroke-dasharray:none;stroke-opacity:1"
       d="m 13.275675,134.92923 2.607076,4.08864 c 0.50569,-0.47548 0.881084,-0.85971 0.881084,-0.93534 0,-0.20955 -2.85254,-2.76497 -3.48816,-3.1533 z m -0.228926,5.2e-4 c -0.63719,0.38995 -3.4871258,2.94332 -3.4871258,3.15278 0,0.0756 0.3750564,0.4595 0.8805668,0.93482 z m 0.114722,0.2868 -2.526978,3.961 -0.07286,-0.0465 c 1.00836,0.93865 2.436752,2.15904 2.599842,2.15904 0.16424,0 1.611628,-1.23749 2.621028,-2.17867 l -0.09767,0.062 z m -0.712618,2.30581 c 0.04339,0.10174 0.113471,0.16809 0.210323,0.19895 0.09685,0.03 0.23236,-0.0321 0.406693,-0.18552 -0.123195,0.2502 -0.242929,0.38951 -0.359151,0.41703 -0.115447,0.0275 -0.228716,-0.0307 -0.339514,-0.17415 l -0.136943,0.0713 z m 0.642338,0.0202 v 0.90537 l -0.580844,0.5178 v 0.41031 l 0.533301,-10e-4 c 0.07283,-0.17347 0.181188,-0.28758 0.324528,-0.34262 -0.14644,0.0901 -0.250398,0.28048 -0.311609,0.57154 l -0.74259,-0.003 c -0.133268,0.007 -0.24214,-0.0163 -0.326595,-0.0713 0.150314,0.004 0.244446,-0.0364 0.283187,-0.12144 v -0.38395 l 0.595312,-0.53434 v -0.60513 c 0.07438,-0.05 0.149378,-0.16414 0.22531,-0.34261 z m 0.745174,0.002 c 0.0039,0.0709 0.05844,0.13429 0.163814,0.19017 0.10615,0.0559 0.218125,0.047 0.335897,-0.0264 l -0.126607,0.14935 v 1.16685 l -0.224276,0.19792 v -0.66198 c 0.100726,-0.004 0.150895,-0.0508 0.150895,-0.14004 0,-0.0901 -0.05017,-0.13467 -0.150895,-0.13384 v -0.28525 c -0.121646,-0.0334 -0.22276,-0.10744 -0.303341,-0.2217 v 0.5054 c -0.100726,0.003 -0.151412,0.0489 -0.151412,0.13643 0,0.0867 0.05069,0.13297 0.151412,0.13797 v 0.71159 l 0.183452,0.12505 0.344165,-0.33279 -0.0057,0.11782 -0.438216,0.44028 -0.311609,-0.19017 c -0.03564,-0.0167 -0.08684,-0.0176 -0.153479,-0.003 0.06431,-0.055 0.11241,-0.084 0.144177,-0.0873 v -1.35238 c -0.03642,0.0134 -0.09072,-0.0141 -0.16278,-0.0816 0.06431,0.0284 0.117582,0.03 0.160197,0.004 z m -0.997355,0.35656 -10e-4,0.56431 c -0.116222,-0.0592 -0.230008,-0.0624 -0.341581,-0.01 0.03874,-0.0934 0.130804,-0.131 0.276469,-0.11265 v -0.1416 c -0.0891,-0.0409 -0.174184,-0.0291 -0.254765,0.0351 0.01782,-0.0984 0.102901,-0.14616 0.254765,-0.14366 v -0.14521 z m 0.989603,0.18294 c 0.0085,0 0.01719,0.002 0.02532,0.006 0.01627,0.008 0.02636,0.0205 0.03101,0.0372 0.0054,0.0158 0.0054,0.0324 0,0.0491 -0.0054,0.0167 -0.01835,0.0289 -0.03927,0.0372 v 0.1881 h 0.102319 c 0.0077,-0.0225 0.01913,-0.0371 0.03462,-0.0429 0.0155,-0.006 0.03075,-0.006 0.04547,0 0.0155,0.005 0.02688,0.0166 0.03462,0.0341 0.0077,0.0175 0.0077,0.0356 0,0.0548 -0.007,0.0183 -0.01861,0.0301 -0.03566,0.0351 -0.01705,0.005 -0.0336,0.004 -0.04909,-0.004 -0.0155,-0.007 -0.02532,-0.0231 -0.02997,-0.0465 h -0.101803 l 5.17e-4,0.64183 c 0.02092,0.008 0.03437,0.021 0.03979,0.0377 0.0054,0.0167 0.0054,0.0329 0,0.0496 -0.0046,0.0158 -0.01525,0.0284 -0.03152,0.0367 -0.01627,0.008 -0.03334,0.009 -0.05116,0.001 -0.01705,-0.008 -0.02791,-0.0214 -0.03256,-0.0398 -0.0046,-0.0183 -0.0034,-0.036 0.0036,-0.0527 0.007,-0.0167 0.0212,-0.0275 0.04289,-0.0325 l -5.17e-4,-0.64183 H 13.70614 c -0.0046,0.0234 -0.01448,0.039 -0.02997,0.0465 -0.0155,0.008 -0.03205,0.009 -0.04909,0.004 -0.01705,-0.005 -0.02946,-0.0168 -0.03721,-0.0351 -0.007,-0.0192 -0.0067,-0.0373 0.001,-0.0548 0.0077,-0.0175 0.01938,-0.0291 0.03411,-0.0341 0.0155,-0.006 0.03101,-0.006 0.04651,0 0.0155,0.006 0.02688,0.0204 0.03462,0.0429 h 0.110588 v -0.1881 c -0.02169,-0.005 -0.03643,-0.0154 -0.04341,-0.032 -0.007,-0.0167 -0.0077,-0.0344 -0.0031,-0.0527 0.0046,-0.0183 0.01551,-0.0313 0.03256,-0.0388 0.0089,-0.004 0.01731,-0.006 0.02584,-0.006 z" />
  </g>
</svg>
