<?xml version="1.0" encoding="UTF-8" standalone="no"?>
<!-- Created with Inkscape (http://www.inkscape.org/) -->

<svg
   width="7.2042117mm"
   height="6.3608513mm"
   viewBox="0 0 7.2042117 6.3608513"
   version="1.1"
   id="svg1"
   xmlns="http://www.w3.org/2000/svg"
   xmlns:svg="http://www.w3.org/2000/svg">
  <defs
     id="defs1">
    <linearGradient
       id="swatch4">
      <stop
         style="stop-color:#000000;stop-opacity:1;"
         offset="0"
         id="stop4" />
    </linearGradient>
  </defs>
  <g
     id="layer3"
     transform="translate(-1.8799886,-134.92922)">
    <path
       id="path280-3-7"
       style="fill:#000000;fill-opacity:1;stroke:none;stroke-width:0.250658;stroke-dasharray:none;stroke-opacity:1"
       d="m 5.5960409,134.92923 2.607076,4.08864 c 0.50569,-0.47548 0.8810831,-0.85971 0.8810831,-0.93534 0,-0.20955 -2.8525391,-2.76497 -3.4881591,-3.1533 z m -0.2289266,5.2e-4 c -0.63719,0.38995 -3.4871257,2.94332 -3.4871257,3.15278 0,0.0756 0.3750564,0.45949 0.8805664,0.93482 z m 0.1147216,0.2868 -2.5269775,3.961 -0.072864,-0.0465 c 1.00836,0.93866 2.4367513,2.15904 2.5998413,2.15904 0.16424,0 1.6116287,-1.2375 2.6210287,-2.17867 l -0.097669,0.062 z m -0.5958292,2.34611 c 0.00155,0.13094 0.083785,0.20135 0.2464966,0.21136 l -0.1100708,0.14624 -0.00155,1.38338 0.1979207,0.0863 c 0.049588,-0.0567 0.1108775,-0.0834 0.1844849,-0.0801 -0.071283,0.0367 -0.1674834,0.14471 -0.2883545,0.32401 l -0.2775025,-0.1049 c -0.035641,0.055 -0.1176186,0.0856 -0.245463,0.0915 0.096077,-0.0459 0.1638308,-0.11131 0.2025716,-0.19637 l 0.00103,-1.49862 c -0.041065,-0.007 -0.072615,-0.0255 -0.095085,-0.0563 l -0.1943034,0.0698 z m 1.0717692,0.002 c 0.00387,0.0709 0.05844,0.13429 0.1638143,0.19017 0.1061496,0.0559 0.2181249,0.0476 0.3358968,-0.0258 l -0.1266073,0.14883 v 1.16685 l -0.2242757,0.19792 v -0.66197 c 0.1007259,-0.004 0.1508952,-0.0508 0.1508952,-0.14004 0,-0.0901 -0.050169,-0.13468 -0.1508952,-0.13385 v -0.28525 c -0.1216459,-0.0334 -0.2227599,-0.10692 -0.3033407,-0.22118 v 0.5054 c -0.1007259,0.003 -0.1514119,0.0483 -0.1514119,0.13591 0,0.0867 0.050686,0.13297 0.1514119,0.13797 v 0.71159 l 0.1834514,0.12506 0.344165,-0.3328 -0.00568,0.11782 -0.4382161,0.44029 -0.3116089,-0.19017 c -0.035642,-0.0167 -0.086845,-0.0176 -0.153479,-0.003 0.06431,-0.055 0.1124098,-0.084 0.1441772,-0.0873 v -1.35237 c -0.036416,0.0133 -0.090723,-0.0141 -0.1627807,-0.0816 0.06431,0.0283 0.1180989,0.03 0.1607137,0.004 z m -0.8149374,0.2744 v 1.34204 l -0.065112,0.0589 v -1.31 z m 0.8071859,0.2651 c 0.00852,0 0.017186,0.002 0.025321,0.006 0.016271,0.008 0.026357,0.0211 0.031006,0.0377 0.00542,0.0158 0.00542,0.0319 0,0.0486 -0.00542,0.0167 -0.018354,0.0294 -0.039274,0.0377 v 0.18758 H 6.069397 c 0.00775,-0.0225 0.019127,-0.0371 0.034623,-0.0429 0.015496,-0.006 0.030754,-0.006 0.045475,0 0.015496,0.005 0.027392,0.0166 0.03514,0.0341 0.00775,0.0175 0.00775,0.0356 0,0.0548 -0.00697,0.0183 -0.019128,0.0301 -0.036174,0.0351 -0.017046,0.005 -0.033596,0.004 -0.049093,-0.004 -0.015496,-0.008 -0.025323,-0.0232 -0.029972,-0.0465 H 5.9675944 l 5.168e-4,0.64182 c 0.02092,0.008 0.034367,0.021 0.039791,0.0377 0.00542,0.0167 0.00542,0.0329 0,0.0496 -0.00465,0.0159 -0.015251,0.0284 -0.031523,0.0367 -0.016271,0.008 -0.033339,0.009 -0.05116,10e-4 -0.017046,-0.008 -0.027907,-0.0215 -0.032556,-0.0398 -0.00465,-0.0183 -0.00336,-0.036 0.00362,-0.0527 0.00697,-0.0167 0.021197,-0.0276 0.042892,-0.0326 l -5.168e-4,-0.64182 H 5.8275513 c -0.00465,0.0234 -0.014476,0.039 -0.029972,0.0465 -0.015496,0.007 -0.032047,0.009 -0.049093,0.004 -0.017046,-0.005 -0.029459,-0.0168 -0.037207,-0.0351 -0.00697,-0.0192 -0.00671,-0.0373 0.00103,-0.0548 0.00775,-0.0175 0.019385,-0.0291 0.034107,-0.0341 0.015496,-0.006 0.031012,-0.006 0.046509,0 0.015496,0.006 0.026875,0.0204 0.034623,0.0429 h 0.1105875 v -0.18758 c -0.021695,-0.005 -0.035918,-0.0159 -0.042891,-0.0326 -0.00697,-0.0167 -0.00827,-0.0344 -0.00362,-0.0527 0.00465,-0.0183 0.01551,-0.0312 0.032556,-0.0388 0.00891,-0.004 0.017315,-0.006 0.025838,-0.006 z" />
  </g>
</svg>
