<?xml version="1.0" encoding="UTF-8" standalone="no"?>
<!-- Created with Inkscape (http://www.inkscape.org/) -->

<svg
   width="5.670455mm"
   height="5.9009318mm"
   viewBox="0 0 5.670455 5.9009318"
   version="1.1"
   id="svg1"
   xmlns="http://www.w3.org/2000/svg"
   xmlns:svg="http://www.w3.org/2000/svg">
  <defs
     id="defs1">
    <linearGradient
       id="swatch4">
      <stop
         style="stop-color:#000000;stop-opacity:1;"
         offset="0"
         id="stop4" />
    </linearGradient>
  </defs>
  <g
     id="layer2"
     style="stroke:#ffffff;stroke-opacity:1"
     transform="translate(-41.900802,-202.28119)">
    <path
       id="path237-317-04-40"
       style="fill:#000000;fill-opacity:1;stroke:none;stroke-width:0.200527;stroke-dasharray:none;stroke-opacity:1"
       d="m 44.735771,202.28119 c -0.127651,0 -1.630989,0.48825 -1.734261,0.56328 -0.103272,0.075 -1.032324,1.35396 -1.07177,1.47536 -0.01828,0.0563 -0.02761,0.4279 -0.02894,0.82062 0.0077,-0.005 0.01437,-0.009 0.02274,-0.0139 0.07448,-0.0438 0.177027,-0.097 0.299724,-0.1571 0.245394,-0.12015 0.572007,-0.26755 0.907954,-0.41134 0.275005,-0.11771 0.547481,-0.22802 0.794267,-0.3235 l 0.02791,-0.0419 c 0.0039,0.009 0.0081,0.0178 0.0124,0.0264 0.04088,-0.0157 0.08796,-0.0352 0.126607,-0.0496 0.140348,-0.0525 0.264064,-0.0963 0.366386,-0.12816 0.05116,-0.0159 0.0965,-0.0286 0.139526,-0.0388 0.04303,-0.0101 0.0759,-0.0207 0.151412,-0.0207 0.07551,0 0.108384,0.0105 0.151412,0.0207 0.04303,0.0101 0.08836,0.0228 0.139527,0.0388 0.102323,0.0319 0.226037,0.0756 0.366386,0.12816 0.104865,0.0392 0.224648,0.087 0.343648,0.13436 0.0087,-0.006 0.01767,-0.012 0.02636,-0.0186 -0.0042,0.008 -0.0087,0.0156 -0.01292,0.0238 0.195536,0.0779 0.39907,0.1611 0.604614,0.24908 0.335948,0.14379 0.662562,0.29119 0.907955,0.41134 0.120239,0.0589 0.220469,0.11072 0.294556,0.154 -0.0016,-0.38625 -0.01092,-0.74812 -0.02894,-0.80357 -0.03945,-0.1214 -0.969014,-1.40033 -1.072286,-1.47536 -0.103272,-0.075 -1.60661,-0.56328 -1.734261,-0.56328 z m 0.01395,1.83555 c -0.0016,3.3e-4 -0.0019,1.2e-4 -0.0036,5.2e-4 -0.02466,0.006 -0.06222,0.016 -0.10697,0.03 -0.0895,0.0279 -0.208386,0.0699 -0.344682,0.12092 -0.06465,0.0242 -0.142544,0.0558 -0.21394,0.0837 0.02514,0.0167 0.05279,0.0301 0.0832,0.0398 0.09685,0.03 0.23236,-0.0316 0.406693,-0.185 -0.123195,0.25019 -0.242929,0.38899 -0.359151,0.41651 -0.115448,0.0275 -0.228716,-0.0307 -0.339514,-0.17415 l -0.136943,0.0713 0.02842,-0.0424 c -0.136828,0.0559 -0.276252,0.11352 -0.415478,0.17311 -0.332185,0.14218 -0.655694,0.28795 -0.894003,0.40463 -0.119154,0.0583 -0.217006,0.10949 -0.282153,0.1478 -0.03257,0.0191 -0.05671,0.0354 -0.07028,0.046 -9.88e-4,7.7e-4 -6.89e-4,8.7e-4 -0.0016,0.002 8.11e-4,7.4e-4 5.13e-4,8.5e-4 0.0016,0.002 0.01357,0.0106 0.03771,0.0268 0.07028,0.046 0.06515,0.0383 0.162999,0.0894 0.282153,0.1478 0.238309,0.11667 0.561818,0.26244 0.894003,0.40462 0.143382,0.0614 0.287226,0.12088 0.427881,0.17829 v -0.33538 l 0.594795,-0.53382 v -0.60565 c 0.07438,-0.05 0.149378,-0.16414 0.22531,-0.34261 v 0.90589 l -0.580844,0.51779 v 0.41031 l 0.533301,-0.002 c 0.07283,-0.17346 0.181187,-0.28757 0.324528,-0.34261 -0.14644,0.0901 -0.250398,0.28048 -0.311609,0.57154 l -0.160713,-5.2e-4 c 0.09054,0.0328 0.174249,0.062 0.238745,0.0822 0.04475,0.0139 0.08231,0.0242 0.10697,0.03 0.0017,4e-4 0.002,1.9e-4 0.0036,5.2e-4 0.0016,-3.3e-4 0.0019,-1.2e-4 0.0036,-5.2e-4 0.02466,-0.006 0.06222,-0.016 0.10697,-0.03 0.0895,-0.0279 0.208901,-0.0699 0.345198,-0.12092 0.02844,-0.0106 0.0642,-0.0253 0.09405,-0.0367 l -0.361735,-0.2465 c -0.05114,-0.0334 -0.121995,-0.0343 -0.211874,-0.003 0.08755,-0.0717 0.154274,-0.10526 0.199988,-0.10026 v -1.0144 c -0.04416,-0.003 -0.10985,-0.0389 -0.197404,-0.10646 0.07981,0.0284 0.144974,0.0295 0.195337,0.004 l 0.381372,-0.42426 c -0.03178,-0.0122 -0.06954,-0.028 -0.09974,-0.0393 -0.136297,-0.051 -0.2557,-0.093 -0.345198,-0.12092 -0.04475,-0.0139 -0.08231,-0.0242 -0.10697,-0.03 -0.0017,-4e-4 -0.002,-1.9e-4 -0.0036,-5.2e-4 z m 0.926559,0.3359 c -0.06365,0.0862 -0.125949,0.1321 -0.187586,0.13539 -0.09375,0.004 -0.174695,-0.0357 -0.242879,-0.11989 l -0.0801,0.0873 v 1.2361 l 0.322977,0.19999 0.04754,-0.0661 v -0.82218 c -0.05656,-0.0117 -0.100525,-0.0486 -0.132292,-0.1111 l -0.225826,0.31884 10e-4,-0.11627 0.379305,-0.49299 c 0.01782,0.10174 0.07394,0.16312 0.168466,0.18397 0.09453,0.0208 0.178832,0.002 0.253214,-0.0574 -0.08291,0.17014 -0.156607,0.26747 -0.221692,0.29249 l -0.0015,0.66818 -0.242362,0.32504 c 0.2041,-0.081 0.418897,-0.16857 0.63717,-0.262 0.332185,-0.14218 0.656211,-0.28795 0.894519,-0.40462 0.119155,-0.0583 0.217005,-0.1095 0.282153,-0.1478 0.03257,-0.0192 0.05671,-0.0354 0.07028,-0.046 9.87e-4,-7.7e-4 6.89e-4,-8.8e-4 0.0016,-0.002 -8.12e-4,-7.4e-4 -5.15e-4,-8.4e-4 -0.0016,-0.002 -0.01357,-0.0106 -0.0377,-0.0268 -0.07028,-0.046 -0.06515,-0.0383 -0.162998,-0.0895 -0.282153,-0.1478 -0.238308,-0.11668 -0.562334,-0.26245 -0.894519,-0.40463 -0.159354,-0.0682 -0.320437,-0.13549 -0.475423,-0.19843 z m -1.332735,0.11937 -10e-4,0.56379 c -0.116222,-0.0592 -0.230008,-0.0624 -0.341581,-0.01 0.03874,-0.0934 0.130804,-0.131 0.276469,-0.11265 v -0.14108 c -0.0891,-0.0409 -0.173668,-0.0296 -0.254248,0.0346 0.01782,-0.0984 0.102384,-0.14616 0.254248,-0.14366 V 204.618 Z m 1.080037,0.50384 0.06511,0.0589 v 0.75447 l -0.06511,0.0584 z m -3.522782,0.28578 c 0.0018,0.37797 0.01126,0.72745 0.02894,0.78186 0.03945,0.12141 0.968499,1.40033 1.07177,1.47536 0.103272,0.075 1.60661,0.56327 1.734261,0.56327 0.12765,0 1.630989,-0.48824 1.734261,-0.56327 0.103271,-0.075 1.03284,-1.35395 1.072286,-1.47536 0.01741,-0.0536 0.02638,-0.39354 0.02842,-0.76481 -0.07406,0.0433 -0.173985,0.0952 -0.294039,0.15399 -0.245394,0.12014 -0.572008,0.26756 -0.907955,0.41135 -0.335947,0.1438 -0.681001,0.28358 -0.961698,0.38861 -0.140348,0.0525 -0.264063,0.0963 -0.366386,0.12815 -0.05116,0.0159 -0.0965,0.0291 -0.139527,0.0393 -0.04303,0.0101 -0.0759,0.0202 -0.151412,0.0202 -0.07552,0 -0.108384,-0.01 -0.151412,-0.0202 -0.04303,-0.0101 -0.08836,-0.0233 -0.139526,-0.0393 -0.102323,-0.0319 -0.226038,-0.0756 -0.366386,-0.12815 -0.04729,-0.0177 -0.104459,-0.0409 -0.155029,-0.0605 l -0.118856,-5.1e-4 c -0.133268,0.007 -0.24214,-0.0163 -0.326595,-0.0713 0.07747,0.002 0.139751,-0.007 0.187585,-0.0289 -0.178265,-0.0717 -0.363111,-0.14811 -0.548287,-0.22737 -0.335947,-0.14379 -0.66256,-0.29121 -0.907954,-0.41135 -0.122697,-0.0601 -0.225241,-0.11329 -0.299724,-0.15709 -0.0084,-0.005 -0.01505,-0.009 -0.02274,-0.014 z" />
  </g>
</svg>
