<?xml version="1.0" encoding="UTF-8" standalone="no"?>
<!-- Created with Inkscape (http://www.inkscape.org/) -->

<svg
   width="7.2042117mm"
   height="6.3448324mm"
   viewBox="0 0 7.2042117 6.3448324"
   version="1.1"
   id="svg1"
   xmlns="http://www.w3.org/2000/svg"
   xmlns:svg="http://www.w3.org/2000/svg">
  <defs
     id="defs1">
    <linearGradient
       id="swatch4">
      <stop
         style="stop-color:#000000;stop-opacity:1;"
         offset="0"
         id="stop4" />
    </linearGradient>
  </defs>
  <g
     id="layer2"
     style="stroke:#ffffff;stroke-opacity:1"
     transform="translate(-48.764985,-158.45493)">
    <path
       id="path34-81-8-39-2-6"
       style="fill:#000000;fill-opacity:1;stroke:none;stroke-width:0.200326;stroke-dasharray:none;stroke-opacity:1"
       d="m 52.29965,158.45493 c -0.534491,0.28392 -3.534668,2.96694 -3.534668,3.18172 0,0.0765 0.383542,0.46818 0.89762,0.95084 z m 0.133842,0 2.635498,4.13463 c 0.515202,-0.48363 0.900204,-0.87635 0.900204,-0.95291 0,-0.2149 -3.003635,-2.90029 -3.535702,-3.18172 z m -0.06666,0.26613 -2.459281,3.85816 2.463416,1.11053 2.450496,-1.11569 z m 0.515214,1.86604 c -0.16581,0.23518 -0.330023,0.36442 -0.491959,0.3886 -0.161162,0.0234 -0.28736,-0.0126 -0.378788,-0.10852 l -0.17415,0.0786 0.276469,-0.3514 c 0.05501,0.0801 0.154057,0.12559 0.296623,0.13643 0.142566,0.01 0.299797,-0.0378 0.471805,-0.14366 z m -0.01499,0.0398 c -0.127785,0.29082 -0.229562,0.61584 -0.305407,0.97462 0.106661,0.003 0.223267,-0.0244 0.350366,-0.0816 -0.127365,0.13296 -0.252913,0.20468 -0.377238,0.21497 -0.03617,0.19111 -0.06524,0.39147 -0.08733,0.601 l 0.197404,0.0863 c 0.04959,-0.0567 0.111394,-0.0834 0.185001,-0.0801 -0.07128,0.0367 -0.167483,0.1447 -0.288354,0.32401 l -0.301274,-0.1049 c -0.108474,0.0992 -0.244241,0.12931 -0.407727,0.0909 0.16736,0.004 0.288904,-0.0613 0.364836,-0.19637 0.06156,-0.27606 0.12202,-0.51912 0.180867,-0.73071 -0.05502,-0.0124 -0.102065,-0.0343 -0.141076,-0.0672 l -0.133842,0.046 0.21394,-0.20877 c 0.02384,0.0364 0.05842,0.0633 0.103353,0.0811 0.121743,-0.40991 0.237415,-0.67901 0.347266,-0.80667 z m -0.525549,1.16737 -0.187069,0.65784 c -0.0953,-0.0517 -0.205984,-0.0178 -0.332279,0.10232 0.06818,-0.15679 0.171367,-0.23127 0.310058,-0.22376 l 0.05013,-0.14521 c -0.07438,-0.035 -0.163342,-0.0164 -0.267168,0.0553 0.05269,-0.10258 0.154319,-0.15806 0.305408,-0.1664 l 0.07338,-0.23047 z m 2.529561,0.97927 -2.404504,1.09347 v 0.93276 c 0.361988,-0.21531 1.517408,-1.20608 2.404504,-2.02623 z m -4.996077,0.0103 c 0.883852,0.81645 2.028021,1.79843 2.390552,2.01538 v -0.93637 z" />
  </g>
</svg>
