<?xml version="1.0" encoding="UTF-8" standalone="no"?>
<!-- Created with Inkscape (http://www.inkscape.org/) -->

<svg
   width="7.2042117mm"
   height="6.3609648mm"
   viewBox="0 0 7.2042117 6.3609648"
   version="1.1"
   id="svg1"
   xmlns="http://www.w3.org/2000/svg"
   xmlns:svg="http://www.w3.org/2000/svg">
  <defs
     id="defs1">
    <linearGradient
       id="swatch4">
      <stop
         style="stop-color:#000000;stop-opacity:1;"
         offset="0"
         id="stop4" />
    </linearGradient>
  </defs>
  <g
     id="layer2"
     style="stroke:#ffffff;stroke-opacity:1"
     transform="translate(-33.239377,-128.15846)">
    <g
       id="g13">
      <path
         id="path34-39-2"
         style="fill:#000000;fill-opacity:1;stroke:none;stroke-width:0.250658;stroke-dasharray:none;stroke-opacity:1"
         d="m 39.562505,132.24711 c 0.505686,-0.47548 0.881083,-0.85971 0.881083,-0.93534 0,-0.20955 -2.852531,-2.76497 -3.488159,-3.1533 z" />
      <path
         id="path257-37"
         style="fill:#000000;fill-opacity:1;stroke:none;stroke-width:0.250658;stroke-dasharray:none;stroke-opacity:1"
         d="m 36.841162,128.44591 -2.526977,3.961 -0.07286,-0.0465 c 1.008369,0.93865 2.436755,2.15904 2.599841,2.15904 0.164241,0 1.611633,-1.2375 2.621029,-2.17868 l -0.09715,0.062 z m 0.0052,2.4014 0.504362,0.001 -0.161748,0.23255 -0.463537,0.001 v 0.50281 h 0.04031 v -0.43925 c 0.173558,-0.0592 0.31941,-0.0336 0.437182,0.0765 -0.128619,-0.0501 -0.250422,-0.0559 -0.365869,-0.0176 v 0.11989 c 0.07283,-0.0308 0.141621,-0.0179 0.206706,0.0388 -0.08445,-0.0258 -0.153243,0.002 -0.206706,0.0816 l -0.05788,0.14004 0.356568,10e-4 c 0.110024,0.002 0.208551,-0.04 0.296106,-0.12506 l -0.146245,0.21136 -0.001,0.73949 -0.445451,0.478 -0.31626,-0.20257 c -0.06973,-0.0334 -0.160245,-0.0175 -0.271818,0.0475 0.163486,-0.22185 0.290719,-0.32062 0.381372,-0.29559 l 0.31626,0.21291 0.06615,-0.061 v -0.8232 h -0.409277 c -0.09375,-0.006 -0.196418,0.002 -0.307992,0.0248 0.07826,-0.0883 0.134114,-0.134 0.167432,-0.13746 v -0.32659 c -0.03874,0.0134 -0.09744,-0.0263 -0.1757,-0.11886 0.06973,0.0286 0.128175,0.03 0.174666,0.004 z m 0.131258,0.95756 v 0.75551 l -0.0708,0.0589 v -0.19017 c -0.06198,-0.0425 -0.123789,-0.0473 -0.185001,-0.014 0.03332,-0.0724 0.09512,-0.11023 0.185001,-0.11368 l 10e-4,-0.41652 z" />
      <path
         id="path256-85"
         style="fill:#000000;fill-opacity:1;stroke:none;stroke-width:0.250658;stroke-dasharray:none;stroke-opacity:1"
         d="m 36.726502,128.15899 c -0.637186,0.38995 -3.487126,2.94332 -3.487126,3.15278 0,0.0756 0.375057,0.4595 0.880568,0.93482 z" />
    </g>
  </g>
</svg>
