<?xml version="1.0" encoding="UTF-8" standalone="no"?>
<!-- Created with Inkscape (http://www.inkscape.org/) -->

<svg
   width="5.7152195mm"
   height="6.4037595mm"
   viewBox="0 0 5.7152195 6.4037595"
   version="1.1"
   id="svg1"
   xmlns="http://www.w3.org/2000/svg"
   xmlns:svg="http://www.w3.org/2000/svg">
  <defs
     id="defs1">
    <linearGradient
       id="swatch4">
      <stop
         style="stop-color:#000000;stop-opacity:1;"
         offset="0"
         id="stop4" />
    </linearGradient>
  </defs>
  <g
     id="layer2"
     style="stroke:#ffffff;stroke-opacity:1"
     transform="translate(-65.222734,-173.67983)">
    <path
       id="path63-83-1"
       style="fill:#000000;fill-opacity:1;stroke:none;stroke-width:0.174705;stroke-dasharray:none;stroke-opacity:1"
       d="m 68.080303,173.67984 c -0.139393,0 -2.055394,1.09551 -2.630847,1.48621 0.04375,-0.01 0.09191,-0.0191 0.149861,-0.0274 0.160719,-0.0229 0.377135,-0.0414 0.633037,-0.0563 0.511803,-0.0298 1.179747,-0.0439 1.847949,-0.0439 0.668203,0 1.336663,0.0141 1.848466,0.0439 0.255901,0.0149 0.4718,0.0333 0.632519,0.0563 0.05819,0.008 0.106505,0.0179 0.150379,0.0279 -0.574861,-0.3904 -2.491932,-1.48673 -2.631364,-1.48673 z m 0,1.56631 c -0.66512,0 -1.330264,0.0145 -1.835547,0.0439 -0.252641,0.0147 -0.465807,0.0338 -0.615983,0.0553 -0.07509,0.0107 -0.134385,0.0219 -0.172083,0.0326 -0.0029,8.2e-4 -0.0031,5.5e-4 -0.0057,0.002 6.7e-4,0.003 -3.12e-4,0.003 5.17e-4,0.007 0.0096,0.038 0.02962,0.095 0.05788,0.16537 0.05651,0.14078 0.146351,0.33453 0.259933,0.56068 0.227165,0.4523 0.548006,1.0363 0.880566,1.61231 0.33256,0.57601 0.67738,1.14447 0.955498,1.56735 0.139059,0.21144 0.261351,0.38658 0.355017,0.50591 0.04683,0.0597 0.0866,0.10603 0.114721,0.13332 0.0022,0.002 0.0031,0.002 0.0052,0.004 0.0021,-0.002 0.0026,-0.002 0.0047,-0.004 0.02812,-0.0273 0.06892,-0.0737 0.115755,-0.13332 0.09367,-0.11933 0.215958,-0.29447 0.355017,-0.50591 0.278117,-0.42288 0.623453,-0.99134 0.956014,-1.56735 0.33256,-0.57601 0.651851,-1.16001 0.879016,-1.61231 0.113582,-0.22615 0.204974,-0.4199 0.261483,-0.56068 0.02826,-0.0704 0.04778,-0.12736 0.05736,-0.16537 8.63e-4,-0.003 3.81e-4,-0.004 0.001,-0.007 -0.0026,-8.2e-4 -0.0033,-5.5e-4 -0.0062,-0.002 -0.0377,-0.0107 -0.097,-0.0219 -0.172082,-0.0326 -0.150176,-0.0215 -0.363341,-0.0406 -0.615983,-0.0553 -0.505283,-0.0294 -1.170944,-0.0439 -1.836064,-0.0439 z m -2.823084,0.21549 c -0.05367,0.65032 -0.04456,2.94002 0.02635,3.06286 0.07146,0.12378 2.077522,1.29183 2.650485,1.55908 -0.0011,-0.001 -0.002,-0.002 -0.0031,-0.003 -0.03992,-0.0387 -0.08372,-0.0891 -0.133842,-0.15296 -0.100242,-0.12771 -0.225015,-0.30621 -0.365869,-0.52038 -0.281706,-0.42833 -0.628114,-0.999 -0.962215,-1.57768 -0.334101,-0.57868 -0.655121,-1.16451 -0.885217,-1.62264 -0.115048,-0.22906 -0.207207,-0.42657 -0.267684,-0.57723 -0.02609,-0.065 -0.04516,-0.1192 -0.05891,-0.16795 z m 5.646167,0.002 c -0.01374,0.0484 -0.03206,0.10208 -0.05788,0.1664 -0.06048,0.15067 -0.153154,0.34815 -0.268201,0.57722 -0.230097,0.45813 -0.550599,1.04395 -0.8847,1.62264 -0.334101,0.57867 -0.681025,1.14934 -0.962732,1.57768 -0.140853,0.21416 -0.26511,0.39268 -0.365353,0.52039 -0.05012,0.0639 -0.09444,0.11421 -0.134358,0.15296 0.577245,-0.27012 2.576052,-1.43346 2.647383,-1.55701 0.07083,-0.12267 0.07927,-2.40641 0.02584,-3.06028 z m -2.778641,0.38499 0.381372,0.31522 c 0.05114,0.0334 0.121478,0.0343 0.211356,0.003 -0.08755,0.0717 -0.154273,0.10525 -0.199987,0.10025 v 0.9772 c 0.04416,0.003 0.110366,0.0384 0.19792,0.10594 -0.07981,-0.0284 -0.144974,-0.0295 -0.195337,-0.004 l -0.418579,0.56792 c -0.05734,-0.0817 -0.124573,-0.13314 -0.202055,-0.15399 -0.07748,-0.0208 -0.155062,-10e-4 -0.232544,0.0579 0.0984,-0.19682 0.194602,-0.29762 0.288355,-0.30179 0.09375,-0.005 0.174696,0.0346 0.242879,0.11885 l 0.0801,-0.11265 v -1.19838 l -0.2651,-0.22479 -0.10542,0.0785 v 0.79685 c 0.05656,0.0117 0.108282,0.0613 0.155546,0.14883 l 0.202055,-0.29404 -10e-4,0.14159 -0.262516,0.40514 c -0.05656,-0.10174 -0.141901,-0.16312 -0.255799,-0.18396 -0.113897,-0.0209 -0.207771,-0.001 -0.282153,0.0579 0.04416,-0.12843 0.117867,-0.19681 0.221692,-0.20515 v -0.62839 c -0.0922,0.0134 -0.173146,-0.0188 -0.242879,-0.0971 0.09298,0.0108 0.174179,-0.0118 0.243913,-0.0677 z m -0.104387,0.31936 v 0.83406 l -0.06511,-0.0584 v -0.71727 z" />
  </g>
</svg>
