<?xml version="1.0" encoding="UTF-8" standalone="no"?>
<!-- Created with Inkscape (http://www.inkscape.org/) -->

<svg
   width="5.670455mm"
   height="5.9009318mm"
   viewBox="0 0 5.670455 5.9009318"
   version="1.1"
   id="svg1"
   xmlns="http://www.w3.org/2000/svg"
   xmlns:svg="http://www.w3.org/2000/svg">
  <defs
     id="defs1">
    <linearGradient
       id="swatch4">
      <stop
         style="stop-color:#000000;stop-opacity:1;"
         offset="0"
         id="stop4" />
    </linearGradient>
  </defs>
  <g
     id="layer2"
     style="stroke:#ffffff;stroke-opacity:1"
     transform="translate(-33.948314,-195.62371)">
    <path
       id="path237-317-04-70"
       style="fill:#000000;fill-opacity:1;stroke:none;stroke-width:0.200527;stroke-dasharray:none;stroke-opacity:1"
       d="m 36.783285,195.62372 c -0.127651,0 -1.63099,0.48824 -1.734262,0.56327 -0.103272,0.075 -1.032323,1.35396 -1.071769,1.47536 -0.01828,0.0563 -0.02761,0.42791 -0.02894,0.82063 0.0077,-0.005 0.01437,-0.009 0.02274,-0.0134 0.07448,-0.0438 0.177026,-0.097 0.299723,-0.1571 0.245394,-0.12015 0.572008,-0.26755 0.907955,-0.41134 0.335947,-0.14379 0.680485,-0.28357 0.961182,-0.38861 0.140348,-0.0525 0.264064,-0.0963 0.366386,-0.12816 0.05116,-0.0159 0.0965,-0.0291 0.139526,-0.0393 0.04303,-0.0101 0.0759,-0.0207 0.151412,-0.0207 0.07551,0 0.108384,0.0105 0.151412,0.0207 0.04303,0.0101 0.08836,0.0233 0.139526,0.0393 0.102323,0.0319 0.226037,0.0756 0.366386,0.12816 0.280696,0.10504 0.625752,0.24482 0.961699,0.38861 0.335948,0.14379 0.662562,0.29119 0.907955,0.41134 0.120239,0.0589 0.220468,0.11072 0.294555,0.154 -0.0016,-0.38625 -0.01092,-0.74812 -0.02894,-0.80357 -0.03945,-0.1214 -0.969014,-1.40033 -1.072286,-1.47536 -0.103272,-0.075 -1.60661,-0.56327 -1.734261,-0.56327 z m 0.01395,1.83555 c -0.0016,3.3e-4 -0.0019,1.1e-4 -0.0036,5.1e-4 -0.02466,0.006 -0.06222,0.0165 -0.10697,0.0305 -0.0895,0.0279 -0.208386,0.0699 -0.344682,0.12092 -0.272592,0.102 -0.614527,0.24074 -0.946712,0.38293 -0.332185,0.14218 -0.655694,0.28794 -0.894003,0.40462 -0.119154,0.0583 -0.217006,0.10949 -0.282153,0.1478 -0.03257,0.0191 -0.05671,0.0354 -0.07028,0.046 -9.88e-4,7.7e-4 -6.89e-4,3.6e-4 -0.0016,0.002 8.11e-4,7.4e-4 5.13e-4,8.5e-4 0.0016,0.002 0.01357,0.0106 0.03771,0.0268 0.07028,0.046 0.06515,0.0383 0.162999,0.0894 0.282153,0.14779 0.238309,0.11667 0.561818,0.26245 0.894003,0.40463 0.332185,0.14219 0.67412,0.28091 0.946712,0.38292 0.136296,0.051 0.255184,0.093 0.344682,0.12092 0.04475,0.0139 0.08231,0.0242 0.10697,0.03 0.0017,4e-4 0.002,1.8e-4 0.0036,5.1e-4 0.0016,-3.3e-4 0.0019,-1.1e-4 0.0036,-5.1e-4 0.02466,-0.006 0.06222,-0.016 0.106971,-0.03 0.0895,-0.0279 0.208901,-0.0699 0.345198,-0.12092 0.272592,-0.10201 0.614011,-0.24073 0.946196,-0.38292 0.332185,-0.14218 0.656211,-0.28796 0.894519,-0.40463 0.119155,-0.0583 0.217005,-0.10949 0.282153,-0.14779 0.03257,-0.0192 0.05671,-0.0354 0.07028,-0.046 9.87e-4,-7.7e-4 6.88e-4,-8.8e-4 0.0016,-0.002 -8.12e-4,-7.4e-4 -5.14e-4,-3.3e-4 -0.0016,-0.002 -0.01357,-0.0106 -0.0377,-0.0268 -0.07028,-0.046 -0.06515,-0.0383 -0.162998,-0.0895 -0.282153,-0.1478 -0.238308,-0.11668 -0.562334,-0.26244 -0.894519,-0.40462 -0.332185,-0.14219 -0.673604,-0.28093 -0.946196,-0.38293 l -0.121956,0.1757 -0.463538,0.002 v 0.50282 h 0.04031 v -0.43925 c 0.173558,-0.0592 0.319411,-0.0336 0.437183,0.0765 -0.12862,-0.05 -0.250422,-0.0559 -0.36587,-0.0176 v 0.11989 c 0.07283,-0.0309 0.141622,-0.018 0.206706,0.0387 -0.08445,-0.0258 -0.153243,0.002 -0.206706,0.0816 l -0.05788,0.14005 0.356567,0.001 c 0.110024,0.002 0.208552,-0.04 0.296106,-0.12506 l -0.146244,0.21136 -0.001,0.73949 -0.445451,0.47801 -0.316259,-0.20309 c -0.06973,-0.0334 -0.160245,-0.0175 -0.271818,0.0475 0.163486,-0.22184 0.290718,-0.32009 0.381372,-0.29507 l 0.316259,0.2129 0.06615,-0.0615 v -0.82321 H 36.54764 c -0.09375,-0.006 -0.196418,0.003 -0.307992,0.0253 0.07826,-0.0884 0.134115,-0.13464 0.167432,-0.13797 v -0.3266 c -0.03874,0.0134 -0.09744,-0.0263 -0.1757,-0.11885 0.06973,0.0283 0.128178,0.03 0.174667,0.004 l 0.382405,-0.3669 0.306958,0.001 c -0.07031,-0.025 -0.135173,-0.0472 -0.187585,-0.0636 -0.04475,-0.0139 -0.08231,-0.0247 -0.106971,-0.0305 -0.0017,-4e-4 -0.002,-1.8e-4 -0.0036,-5.1e-4 z m 0.122473,1.05213 v 0.75551 l -0.0708,0.0589 v -0.19017 c -0.06199,-0.0425 -0.123792,-0.0473 -0.185002,-0.0139 0.03332,-0.0726 0.09512,-0.11036 0.185002,-0.11369 l 10e-4,-0.41651 z m -2.971395,0.19327 c 0.0018,0.37775 0.01127,0.72696 0.02894,0.78134 0.03945,0.12141 0.968497,1.40034 1.071769,1.47537 0.103271,0.075 1.606611,0.56327 1.734262,0.56327 0.12765,0 1.630989,-0.48824 1.734261,-0.56327 0.103271,-0.075 1.03284,-1.35396 1.072286,-1.47537 0.01741,-0.0536 0.02638,-0.39354 0.02842,-0.76481 -0.07406,0.0433 -0.173985,0.0952 -0.294039,0.154 -0.245394,0.12014 -0.572008,0.26755 -0.907955,0.41134 -0.335947,0.1438 -0.681002,0.28358 -0.961699,0.38861 -0.140348,0.0525 -0.264063,0.0963 -0.366386,0.12816 -0.05116,0.0159 -0.0965,0.0296 -0.139526,0.0398 -0.04303,0.0101 -0.0759,0.0202 -0.151412,0.0202 -0.07552,0 -0.108384,-0.01 -0.151412,-0.0202 -0.04303,-0.0101 -0.08837,-0.0238 -0.139526,-0.0398 -0.102323,-0.0319 -0.226038,-0.0756 -0.366386,-0.12816 -0.280697,-0.10503 -0.625235,-0.24481 -0.961182,-0.38861 -0.335947,-0.14379 -0.662561,-0.2912 -0.907955,-0.41134 -0.122697,-0.0601 -0.22524,-0.1133 -0.299723,-0.1571 -0.0084,-0.005 -0.01505,-0.009 -0.02274,-0.0134 z" />
  </g>
</svg>
