<?xml version="1.0" encoding="UTF-8" standalone="no"?>
<!-- Created with Inkscape (http://www.inkscape.org/) -->

<svg
   width="5.7250867mm"
   height="5.6291137mm"
   viewBox="0 0 5.7250867 5.6291137"
   version="1.1"
   id="svg1"
   xmlns="http://www.w3.org/2000/svg"
   xmlns:svg="http://www.w3.org/2000/svg">
  <defs
     id="defs1">
    <linearGradient
       id="swatch4">
      <stop
         style="stop-color:#000000;stop-opacity:1;"
         offset="0"
         id="stop4" />
    </linearGradient>
  </defs>
  <g
     id="layer2"
     style="stroke:#ffffff;stroke-opacity:1"
     transform="translate(-88.408133,-181.08921)">
    <path
       id="path24-11-10-63"
       style="display:inline;fill:#000000;fill-opacity:1;stroke:none;stroke-width:0.200527;stroke-dasharray:none;stroke-opacity:1"
       d="m 91.270398,181.0892 c -1.165468,0 -2.328544,0.0383 -2.640666,0.11421 l 2.666504,1.89446 2.592607,-1.90014 c -0.344045,-0.0724 -1.48079,-0.10853 -2.618445,-0.10853 z m 2.756421,0.2558 -2.569352,1.88361 c 0.0366,0.0272 0.07543,0.0602 0.119889,0.1018 0.09943,0.093 0.222021,0.22296 0.361218,0.37827 0.278395,0.31061 0.62086,0.72419 0.950847,1.1436 0.329988,0.4194 0.646973,0.84394 0.874365,1.17616 0.113695,0.16612 0.204598,0.30943 0.264583,0.41909 0.0049,0.009 0.0084,0.0163 0.01292,0.0248 0.127186,-0.88983 0.122417,-4.44123 -0.01447,-5.12734 z m -5.515943,0.0202 c -0.135481,0.74634 -0.1371,4.35136 -0.0041,5.15162 0.01047,-0.0216 0.0224,-0.0442 0.03617,-0.0693 0.05998,-0.10966 0.150887,-0.25297 0.264583,-0.41909 0.227391,-0.33222 0.544378,-0.75676 0.874365,-1.17616 0.329987,-0.41941 0.67297,-0.83299 0.951364,-1.1436 0.139198,-0.15531 0.261274,-0.28532 0.360701,-0.37827 0.0479,-0.0448 0.09066,-0.0803 0.129708,-0.10852 z m 2.774508,1.98075 c -0.02679,0.0195 -0.06305,0.0504 -0.10697,0.0915 -0.09203,0.086 -0.21267,0.21229 -0.34985,0.36535 -0.27436,0.30611 -0.615356,0.71814 -0.943611,1.13534 -0.328254,0.4172 -0.644068,0.83996 -0.868164,1.16737 -0.112047,0.16371 -0.200791,0.30415 -0.256315,0.40566 -0.02652,0.0485 -0.0436,0.0864 -0.05323,0.11317 0.03645,0.007 0.09037,0.0154 0.160197,0.0227 0.147557,0.0155 0.356937,0.0286 0.606164,0.0393 0.498455,0.0213 1.155267,0.032 1.811776,0.032 0.656509,0 1.313838,-0.0108 1.812293,-0.032 0.249228,-0.0106 0.459641,-0.0238 0.607198,-0.0393 0.07023,-0.007 0.123761,-0.0155 0.160197,-0.0227 -0.0096,-0.0268 -0.02773,-0.0647 -0.05426,-0.11317 -0.05552,-0.10151 -0.144267,-0.24195 -0.256315,-0.40566 -0.224095,-0.32741 -0.540426,-0.75017 -0.868681,-1.16737 -0.328255,-0.4172 -0.669251,-0.82923 -0.943611,-1.13534 -0.137179,-0.15306 -0.2573,-0.27932 -0.349333,-0.36535 -0.04392,-0.0411 -0.0807,-0.072 -0.107487,-0.0915 z m 0.150379,1.01028 c 0.04339,0.10174 0.113471,0.1681 0.210323,0.19895 0.09685,0.03 0.23236,-0.0321 0.406693,-0.18552 -0.123195,0.2502 -0.242929,0.389 -0.359151,0.41652 -0.115447,0.0275 -0.228716,-0.0302 -0.339514,-0.17364 l -0.136943,0.0713 z m -0.869198,0.0196 c 0.0016,0.13093 0.08327,0.20186 0.24598,0.21187 l -0.110071,0.14624 -0.0015,1.38338 0.19792,0.0863 c 0.04959,-0.0567 0.110878,-0.0834 0.184485,-0.0801 -0.07128,0.0367 -0.166966,0.14471 -0.287837,0.32401 l -0.27802,-0.1049 c -0.03564,0.055 -0.117102,0.0856 -0.244946,0.0915 0.09608,-0.0459 0.163314,-0.11131 0.202055,-0.19637 l 0.001,-1.49914 c -0.04106,-0.007 -0.07261,-0.0249 -0.09508,-0.0558 l -0.194304,0.0698 z m 1.512052,0 v 0.90588 l -0.58136,0.5178 v 0.41031 l 0.533301,-0.001 c 0.07283,-0.17347 0.181188,-0.28757 0.324528,-0.34262 -0.14644,0.0901 -0.250398,0.28049 -0.311609,0.57155 l -0.74259,-0.003 c -0.133268,0.008 -0.24214,-0.0163 -0.326595,-0.0713 0.150314,0.004 0.244963,-0.0364 0.283704,-0.12144 v -0.38396 l 0.594795,-0.53433 v -0.60513 c 0.07438,-0.05 0.149895,-0.16466 0.225826,-0.34313 z m -1.25522,0.27646 v 1.34256 l -0.06511,0.0589 v -1.31 z m 1.003039,0.0827 -0.0015,0.5643 c -0.116222,-0.0592 -0.230008,-0.0624 -0.341581,-0.01 0.03874,-0.0934 0.130804,-0.13101 0.276469,-0.11266 v -0.14159 c -0.0891,-0.0409 -0.173668,-0.0291 -0.254248,0.0351 0.01782,-0.0984 0.102384,-0.14617 0.254248,-0.14366 v -0.14521 z" />
  </g>
</svg>
