<?xml version="1.0" encoding="UTF-8" standalone="no"?>
<!-- Created with Inkscape (http://www.inkscape.org/) -->

<svg
   width="7.2042117mm"
   height="6.3448324mm"
   viewBox="0 0 7.2042117 6.3448324"
   version="1.1"
   id="svg1"
   xmlns="http://www.w3.org/2000/svg"
   xmlns:svg="http://www.w3.org/2000/svg">
  <defs
     id="defs1">
    <linearGradient
       id="swatch4">
      <stop
         style="stop-color:#000000;stop-opacity:1;"
         offset="0"
         id="stop4" />
    </linearGradient>
  </defs>
  <g
     id="layer2"
     style="stroke:#ffffff;stroke-opacity:1"
     transform="translate(-95.256206,-158.43943)">
    <path
       id="path34-81-8-39-2-60"
       style="fill:#000000;fill-opacity:1;stroke:none;stroke-width:0.200326;stroke-dasharray:none;stroke-opacity:1"
       d="m 98.790869,158.43942 c -0.534491,0.28392 -3.534668,2.96694 -3.534668,3.18172 0,0.0765 0.383542,0.46819 0.89762,0.95085 z m 0.133842,0 2.635499,4.13464 c 0.5152,-0.48363 0.9002,-0.87636 0.9002,-0.95292 0,-0.2149 -3.003632,-2.90029 -3.535699,-3.18172 z m -0.06666,0.26614 -2.459282,3.85816 2.463416,1.11053 2.450495,-1.1157 z m 0.11007,1.85725 c 0.01705,0.10175 0.0729,0.16312 0.167432,0.18397 0.09453,0.0208 0.176246,0.002 0.24598,-0.0574 -0.07748,0.20349 -0.172907,0.30967 -0.286804,0.31884 -0.113898,0.009 -0.204151,-0.0424 -0.270785,-0.15503 l -0.125574,0.0749 z m -0.800984,0.0263 c 0.0015,0.13094 0.08378,0.20135 0.246496,0.21136 l -0.110587,0.14676 -10e-4,1.38338 0.197404,0.0863 c 0.04959,-0.0567 0.111394,-0.0834 0.185002,-0.0801 -0.07128,0.0367 -0.167484,0.14471 -0.288355,0.32401 l -0.277502,-0.1049 c -0.03564,0.055 -0.117619,0.0856 -0.245463,0.0915 0.09608,-0.0459 0.163314,-0.11182 0.202055,-0.19689 l 0.0015,-1.49862 c -0.04107,-0.007 -0.07313,-0.0255 -0.0956,-0.0563 l -0.193786,0.0703 z m 1.218013,0.11008 0.241846,0.20928 c 0.05036,0.0259 0.115531,0.0242 0.195337,-0.004 -0.08755,0.0675 -0.153757,0.10312 -0.197921,0.10645 v 0.3514 l -0.44235,0.154 0.441316,0.154 v 0.73277 c 0.109249,0.003 0.211398,0.0745 0.305925,0.2129 -0.04416,-0.0575 -0.149675,-0.0861 -0.31626,-0.0853 l -0.227893,-0.20981 v -0.64802 l -0.360185,-0.14263 0.360185,-0.16898 z m -0.961182,0.16639 v 1.34256 l -0.06511,0.0589 v -1.31 z m 0.926559,0.82683 -0.0016,0.5643 c -0.116223,-0.0592 -0.230008,-0.0624 -0.341582,-0.01 0.03874,-0.0934 0.130804,-0.131 0.276469,-0.11265 v -0.14159 c -0.0891,-0.0409 -0.173667,-0.0291 -0.254248,0.0351 0.01782,-0.0984 0.102385,-0.14617 0.254248,-0.14366 v -0.14522 z m -0.387057,0.52296 c 0.02557,0.10175 0.07858,0.16312 0.159164,0.18397 0.08058,0.0208 0.172385,0.002 0.275435,-0.0574 -0.09685,0.18681 -0.204431,0.28893 -0.322977,0.30644 -0.117772,0.0175 -0.226644,-0.03 -0.326596,-0.14263 l -0.173116,0.0625 z m 2.39882,0.5426 -2.404504,1.09348 v 0.93276 c 0.361988,-0.21531 1.517404,-1.20609 2.404504,-2.02624 z m -4.996077,0.0103 c 0.883852,0.81645 2.028021,1.79843 2.390552,2.01538 v -0.93638 z" />
  </g>
</svg>
