<?xml version="1.0" encoding="UTF-8" standalone="no"?>
<!-- Created with Inkscape (http://www.inkscape.org/) -->

<svg
   width="5.7147355mm"
   height="6.4037595mm"
   viewBox="0 0 5.7147355 6.4037595"
   version="1.1"
   id="svg1"
   xmlns="http://www.w3.org/2000/svg"
   xmlns:svg="http://www.w3.org/2000/svg">
  <defs
     id="defs1">
    <linearGradient
       id="swatch4">
      <stop
         style="stop-color:#000000;stop-opacity:1;"
         offset="0"
         id="stop4" />
    </linearGradient>
  </defs>
  <g
     id="layer2"
     style="stroke:#ffffff;stroke-opacity:1"
     transform="translate(-134.77431,-173.66071)">
    <path
       id="path63-83-250"
       style="fill:#000000;fill-opacity:1;stroke:none;stroke-width:0.174705;stroke-dasharray:none;stroke-opacity:1"
       d="m 137.63189,173.66072 c -0.13939,0 -2.05539,1.09551 -2.63085,1.48621 0.0438,-0.01 0.0919,-0.0191 0.14986,-0.0274 0.16072,-0.0229 0.37714,-0.0414 0.63304,-0.0563 0.5118,-0.0298 1.17975,-0.0439 1.84795,-0.0439 0.6682,0 1.33666,0.0141 1.84847,0.0439 0.2559,0.0149 0.47179,0.0333 0.63251,0.0563 0.0582,0.008 0.10651,0.0179 0.15038,0.0279 -0.57486,-0.3904 -2.49193,-1.48673 -2.63136,-1.48673 z m 0,1.56631 c -0.66512,0 -1.33026,0.0145 -1.83555,0.0439 -0.25264,0.0147 -0.4658,0.0338 -0.61598,0.0553 -0.0751,0.0107 -0.13438,0.0219 -0.17208,0.0326 -0.003,8.2e-4 -0.003,10e-4 -0.006,0.002 6.7e-4,0.003 -3.2e-4,0.003 5.1e-4,0.007 0.01,0.038 0.0301,0.095 0.0584,0.16536 0.0565,0.14078 0.14635,0.33454 0.25993,0.56069 0.22717,0.4523 0.54801,1.0363 0.88057,1.61231 0.33256,0.57601 0.67737,1.14447 0.95549,1.56735 0.13905,0.21144 0.26136,0.38658 0.35502,0.50591 0.0468,0.0597 0.0866,0.10603 0.11472,0.13332 0.002,0.002 0.003,0.002 0.005,0.004 0.002,-0.002 0.002,-0.002 0.005,-0.004 0.0281,-0.0273 0.0689,-0.0737 0.11576,-0.13332 0.0937,-0.11933 0.21595,-0.29447 0.35501,-0.50591 0.27812,-0.42288 0.62346,-0.99134 0.95602,-1.56735 0.33256,-0.57601 0.65185,-1.16001 0.87901,-1.61231 0.11358,-0.22615 0.20498,-0.41991 0.26149,-0.56069 0.0283,-0.0704 0.0478,-0.12735 0.0574,-0.16536 8.6e-4,-0.003 3.7e-4,-0.004 0.001,-0.007 -0.003,-8.2e-4 -0.003,-0.001 -0.006,-0.002 -0.0377,-0.0107 -0.097,-0.0219 -0.17208,-0.0326 -0.15017,-0.0215 -0.36335,-0.0406 -0.61599,-0.0553 -0.50528,-0.0294 -1.17094,-0.0439 -1.83606,-0.0439 z m -2.82308,0.21549 c -0.0537,0.65032 -0.0446,2.94002 0.0264,3.06286 0.0715,0.12378 2.07751,1.29183 2.65048,1.55908 l -0.003,-0.003 c -0.0399,-0.0387 -0.0837,-0.0891 -0.13384,-0.15296 -0.10024,-0.12771 -0.22502,-0.30621 -0.36587,-0.52038 -0.28171,-0.42833 -0.62811,-0.999 -0.96221,-1.57768 -0.3341,-0.57868 -0.65512,-1.16451 -0.88522,-1.62264 -0.11505,-0.22906 -0.2072,-0.42657 -0.26768,-0.57723 -0.0261,-0.065 -0.0452,-0.1192 -0.0589,-0.16795 z m 5.64565,0.002 c 4e-5,5.4e-4 -5e-5,0.002 0,0.002 1.4e-4,-4.9e-4 3.7e-4,-0.001 5.1e-4,-0.002 z m 0,0.002 c -0.0137,0.048 -0.0318,0.10118 -0.0574,0.16485 -0.0605,0.15067 -0.15317,0.34815 -0.26821,0.57722 -0.2301,0.45813 -0.55059,1.04395 -0.8847,1.62264 -0.3341,0.57867 -0.68102,1.14934 -0.96273,1.57768 -0.14085,0.21416 -0.26511,0.39268 -0.36535,0.52039 -0.0501,0.0639 -0.0944,0.11421 -0.13436,0.15296 -9e-4,8.2e-4 -0.002,0.002 -0.003,0.002 0.57447,-0.26826 2.57855,-1.43486 2.64997,-1.55856 0.0708,-0.12262 0.0792,-2.4043 0.0258,-3.05924 z m -2.16421,0.32039 c 0.0315,-0.002 0.0627,0.003 0.0941,0.0134 -0.0464,-0.0131 -0.12036,0.0201 -0.22118,0.0982 0.0214,0.0479 0.0654,0.0916 0.13281,0.13178 0.0945,0.0559 0.20599,0.0476 0.33383,-0.0258 l -0.13849,0.14883 v 0.30386 l -0.22066,0.22272 v -0.40773 c -0.0637,-0.0101 -0.1286,-0.0385 -0.1943,-0.0842 v 0.57258 l 0.10438,0.0558 0.31058,-0.30799 -0.006,0.11782 -0.23047,0.23771 c 0.0728,0.0325 0.13515,0.0543 0.18707,0.0651 0.0527,0.0108 0.11552,-0.006 0.18758,-0.0491 l -0.13849,0.14883 v 0.3793 l -0.24391,0.23513 v -0.60823 l -0.17105,-0.0822 v 0.6103 l -0.0708,0.0589 v -0.7028 l -0.0816,-0.0393 -0.001,0.76171 0.25786,0.11265 0.31058,-0.30747 -0.006,0.1173 -0.41392,0.41548 -0.3974,-0.19017 c -0.0387,-0.0167 -0.0946,-0.0176 -0.16743,-0.003 0.0705,-0.055 0.12301,-0.084 0.1571,-0.0873 v -0.65164 c -0.0395,0.0133 -0.0985,-0.0141 -0.17673,-0.0817 0.0697,0.0284 0.12766,0.0295 0.17414,0.004 l 0.16485,-0.14625 c -0.11699,-0.006 -0.20414,0.003 -0.26148,0.0253 0.0705,-0.055 0.12275,-0.0845 0.15606,-0.0879 v -0.47645 c -0.0387,0.0133 -0.0974,-0.0136 -0.1757,-0.0811 0.0697,0.0284 0.12818,0.0295 0.17467,0.004 l 0.32246,-0.27595 c 0.0829,-0.0913 0.16579,-0.13941 0.24805,-0.14418 z m -1.27641,0.0884 c 0.002,0.13093 0.0838,0.20135 0.2465,0.21136 l -0.11008,0.14676 -0.002,1.38337 0.19793,0.0863 c 0.0496,-0.0567 0.11087,-0.0834 0.18448,-0.0801 -0.0713,0.0367 -0.16748,0.1447 -0.28835,0.32401 l -0.27751,-0.10491 c -0.0356,0.055 -0.11762,0.0851 -0.24546,0.091 0.0961,-0.0459 0.16383,-0.1113 0.20257,-0.19637 l 0.001,-1.49861 c -0.0411,-0.007 -0.0726,-0.0255 -0.0951,-0.0563 l -0.1943,0.0703 z m 0.93224,0.2005 v 0.61547 l 0.0594,0.0315 v -0.59066 c -0.0198,-0.0174 -0.0395,-0.0358 -0.0594,-0.0563 z m -0.67541,0.076 v 1.34255 l -0.0651,0.0589 v -1.30999 z" />
  </g>
</svg>
