<?xml version="1.0" encoding="UTF-8" standalone="no"?>
<!-- Created with Inkscape (http://www.inkscape.org/) -->

<svg
   width="7.2042117mm"
   height="6.3608513mm"
   viewBox="0 0 7.2042117 6.3608513"
   version="1.1"
   id="svg1"
   xmlns="http://www.w3.org/2000/svg"
   xmlns:svg="http://www.w3.org/2000/svg">
  <defs
     id="defs1">
    <linearGradient
       id="swatch4">
      <stop
         style="stop-color:#000000;stop-opacity:1;"
         offset="0"
         id="stop4" />
    </linearGradient>
  </defs>
  <g
     id="layer3"
     transform="translate(-48.330384,-134.92922)">
    <path
       id="path280-3-7-3"
       style="fill:#000000;fill-opacity:1;stroke:none;stroke-width:0.250658;stroke-dasharray:none;stroke-opacity:1"
       d="m 52.046436,134.92923 2.607076,4.08864 c 0.50569,-0.47548 0.881083,-0.85971 0.881083,-0.93534 0,-0.20955 -2.852539,-2.76497 -3.488159,-3.1533 z m -0.228927,5.2e-4 c -0.63719,0.38995 -3.487126,2.94332 -3.487126,3.15278 0,0.0756 0.375057,0.4595 0.880567,0.93482 z m 0.114722,0.2868 -2.526978,3.961 -0.07286,-0.0465 c 1.00836,0.93865 2.436752,2.15904 2.599842,2.15904 0.16424,0 1.611628,-1.23749 2.621028,-2.17867 l -0.09767,0.062 z m -0.0041,2.33939 c -0.165811,0.23519 -0.330024,0.36494 -0.49196,0.38913 -0.161162,0.0234 -0.28736,-0.0131 -0.378788,-0.10904 l -0.17415,0.0791 0.276469,-0.3514 c 0.05501,0.0801 0.154057,0.12506 0.296623,0.13591 0.142566,0.01 0.299797,-0.0378 0.471806,-0.14367 z m 0.569474,0.01 c 0.0039,0.0709 0.05844,0.1343 0.163814,0.19017 0.10615,0.0559 0.218125,0.0476 0.335897,-0.0258 l -0.126607,0.14883 v 1.16686 l -0.224276,0.19792 v -0.66198 c 0.100726,-0.004 0.150895,-0.0508 0.150895,-0.14004 0,-0.0901 -0.05017,-0.13468 -0.150895,-0.13384 v -0.28526 c -0.121646,-0.0334 -0.22276,-0.10743 -0.303341,-0.22169 v 0.5054 c -0.100726,0.003 -0.151412,0.0489 -0.151412,0.13642 0,0.0867 0.05069,0.13297 0.151412,0.13798 v 0.71158 l 0.183452,0.12506 0.344165,-0.3328 -0.0062,0.11783 -0.438216,0.44028 -0.311092,-0.19017 c -0.03564,-0.0167 -0.08684,-0.0176 -0.153479,-0.003 0.06431,-0.0551 0.11241,-0.084 0.144177,-0.0873 v -1.35237 c -0.03642,0.0133 -0.09072,-0.0141 -0.16278,-0.0816 0.06431,0.0284 0.117582,0.03 0.160197,0.004 z m -0.584977,0.03 c -0.127844,0.29095 -0.229035,0.61616 -0.304891,0.97513 0.10666,0.003 0.223269,-0.0244 0.350366,-0.0817 -0.127222,0.13281 -0.253048,0.20404 -0.377238,0.21446 -0.03617,0.19111 -0.06576,0.39147 -0.08785,0.601 l 0.197921,0.0863 c 0.04959,-0.0567 0.110877,-0.0834 0.184485,-0.0801 -0.07128,0.0367 -0.166967,0.1447 -0.287838,0.32401 l -0.301274,-0.10491 c -0.108474,0.0993 -0.244241,0.12983 -0.407727,0.0915 0.16736,0.004 0.288904,-0.0613 0.364836,-0.19637 0.06155,-0.27602 0.121513,-0.51914 0.180351,-0.7307 -0.05481,-0.0124 -0.102181,-0.0349 -0.141077,-0.0677 l -0.133325,0.0465 0.21394,-0.20877 c 0.02384,0.0364 0.05842,0.0628 0.103353,0.0806 0.121741,-0.40991 0.237416,-0.67901 0.347266,-0.80667 z m 0.577225,0.50953 c 0.0085,0 0.01667,0.002 0.02481,0.006 0.01627,0.008 0.02687,0.0205 0.03152,0.0372 0.0054,0.0159 0.0054,0.0324 0,0.0491 -0.0054,0.0167 -0.01835,0.0294 -0.03927,0.0377 v 0.18759 h 0.102319 c 0.0077,-0.0225 0.01913,-0.0371 0.03462,-0.0429 0.0155,-0.006 0.03075,-0.006 0.04548,0 0.0155,0.005 0.02687,0.0166 0.03462,0.0341 0.0077,0.0175 0.0077,0.0356 0,0.0548 -0.007,0.0183 -0.01913,0.0301 -0.03617,0.0351 -0.01705,0.005 -0.03308,0.004 -0.04858,-0.004 -0.0155,-0.008 -0.02532,-0.0232 -0.02997,-0.0465 h -0.101803 l 5.17e-4,0.64182 c 0.02092,0.008 0.03385,0.0211 0.03927,0.0377 0.0054,0.0167 0.0054,0.0329 0,0.0496 -0.0046,0.0158 -0.01473,0.0283 -0.03101,0.0367 -0.01627,0.008 -0.03334,0.009 -0.05116,0.001 -0.01705,-0.008 -0.02791,-0.0214 -0.03256,-0.0398 -0.0046,-0.0183 -0.0039,-0.036 0.0031,-0.0527 0.007,-0.0167 0.02171,-0.0275 0.04341,-0.0326 l -0.001,-0.64182 h -0.110588 c -0.0046,0.0233 -0.01499,0.039 -0.03049,0.0465 -0.0155,0.008 -0.03153,0.009 -0.04858,0.004 -0.01705,-0.005 -0.02946,-0.0168 -0.03721,-0.0351 -0.007,-0.0192 -0.0067,-0.0373 10e-4,-0.0548 0.0077,-0.0175 0.01887,-0.0291 0.03359,-0.0341 0.0155,-0.006 0.03101,-0.006 0.04651,0 0.0155,0.006 0.02739,0.0204 0.03514,0.0429 h 0.110588 l -5.17e-4,-0.18759 c -0.0217,-0.005 -0.03592,-0.0159 -0.04289,-0.0326 -0.007,-0.0167 -0.0083,-0.0344 -0.0036,-0.0527 0.0046,-0.0183 0.01551,-0.0312 0.03256,-0.0387 0.0089,-0.004 0.01783,-0.006 0.02635,-0.006 z m -1.102258,0.65784 -0.187069,0.65784 c -0.0953,-0.0517 -0.205984,-0.0173 -0.332279,0.10283 0.06818,-0.15679 0.171367,-0.23126 0.310058,-0.22376 l 0.05013,-0.14521 c -0.07438,-0.035 -0.163859,-0.0169 -0.267684,0.0548 0.05269,-0.10258 0.154835,-0.15806 0.305924,-0.1664 l 0.07338,-0.22996 z" />
  </g>
</svg>
