<?xml version="1.0" encoding="UTF-8" standalone="no"?>
<!-- Created with Inkscape (http://www.inkscape.org/) -->

<svg
   width="7.2042117mm"
   height="6.3608437mm"
   viewBox="0 0 7.2042117 6.3608437"
   version="1.1"
   id="svg1"
   xmlns="http://www.w3.org/2000/svg"
   xmlns:svg="http://www.w3.org/2000/svg">
  <defs
     id="defs1">
    <linearGradient
       id="swatch4">
      <stop
         style="stop-color:#000000;stop-opacity:1;"
         offset="0"
         id="stop4" />
    </linearGradient>
  </defs>
  <g
     id="layer2"
     style="stroke:#ffffff;stroke-opacity:1"
     transform="translate(-71.972873,-128.15858)">
    <path
       id="path34-39-20"
       style="fill:#000000;fill-opacity:1;stroke:none;stroke-width:0.250658;stroke-dasharray:none;stroke-opacity:1"
       d="m 75.68892,128.15859 2.607076,4.08863 c 0.505686,-0.47548 0.881083,-0.85971 0.881083,-0.93534 0,-0.20955 -2.852531,-2.76496 -3.488159,-3.15329 z m -0.228927,5.1e-4 c -0.637186,0.38995 -3.487125,2.94332 -3.487125,3.15278 0,0.0756 0.375055,0.45951 0.880566,0.93483 z m 0.114722,0.28681 -2.147156,3.36517 -0.01033,0.0103 0.0026,0.003 -0.37207,0.58292 -0.07286,-0.0465 c 1.008369,0.93865 2.436755,2.15904 2.599841,2.15904 0.164241,0 1.611633,-1.2375 2.621029,-2.17868 l -0.09715,0.062 z m 0.07183,2.35748 c 0.0039,0.0709 0.05844,0.13429 0.163815,0.19016 0.106149,0.0559 0.218125,0.047 0.335897,-0.0264 l -0.126608,0.14883 v 1.16737 l -0.224275,0.1974 v -0.66146 c 0.100725,-0.004 0.150895,-0.0508 0.150895,-0.14004 0,-0.0901 -0.05017,-0.13467 -0.150895,-0.13384 v -0.28525 c -0.121646,-0.0334 -0.22276,-0.10744 -0.303341,-0.2217 v 0.5054 c -0.100726,0.003 -0.151412,0.0489 -0.151412,0.13642 0,0.0867 0.05069,0.13246 0.151412,0.13746 v 0.71211 l 0.183451,0.12505 0.344165,-0.33279 -0.0062,0.1173 -0.437699,0.44028 -0.311609,-0.18965 c -0.03564,-0.0167 -0.08684,-0.0176 -0.153479,-0.003 0.06431,-0.055 0.11241,-0.0845 0.144177,-0.0879 v -1.35237 c -0.03642,0.0133 -0.09072,-0.0136 -0.162781,-0.0811 0.06431,0.0284 0.117582,0.0295 0.160197,0.004 z m -0.0078,0.53898 c 0.0085,0 0.01719,0.002 0.02532,0.006 0.01627,0.008 0.02636,0.0211 0.03101,0.0377 0.0054,0.0158 0.0054,0.0319 0,0.0486 -0.0054,0.0167 -0.01835,0.0294 -0.03927,0.0377 v 0.18758 h 0.10232 c 0.0077,-0.0225 0.01913,-0.0365 0.03462,-0.0424 0.0155,-0.006 0.03075,-0.006 0.04548,0 0.0155,0.005 0.02687,0.0161 0.03462,0.0336 0.0077,0.0175 0.0077,0.0361 0,0.0553 -0.007,0.0183 -0.01861,0.0301 -0.03566,0.0351 -0.01704,0.005 -0.0336,0.003 -0.04909,-0.004 -0.0155,-0.008 -0.02532,-0.0226 -0.02997,-0.046 h -0.101803 l 5.17e-4,0.64182 c 0.02092,0.008 0.03385,0.0205 0.03927,0.0372 0.0054,0.0167 0.0054,0.0334 0,0.0501 -0.0046,0.0158 -0.01474,0.0278 -0.03101,0.0362 -0.01627,0.008 -0.03334,0.009 -0.05116,0.002 -0.01705,-0.008 -0.02791,-0.022 -0.03256,-0.0403 -0.0046,-0.0183 -0.0034,-0.0355 0.0036,-0.0522 0.007,-0.0167 0.0212,-0.0276 0.04289,-0.0326 l -5.17e-4,-0.64182 h -0.111104 c -0.0046,0.0233 -0.01499,0.0385 -0.03049,0.046 -0.0155,0.008 -0.03153,0.009 -0.04858,0.004 -0.01705,-0.005 -0.02946,-0.0168 -0.03721,-0.0351 -0.007,-0.0192 -0.0067,-0.0378 0.001,-0.0553 0.0077,-0.0175 0.01887,-0.0286 0.03359,-0.0336 0.0155,-0.006 0.03101,-0.006 0.04651,0 0.0155,0.006 0.02739,0.0199 0.03514,0.0424 h 0.110587 v -0.18758 c -0.02169,-0.005 -0.03643,-0.0159 -0.04341,-0.0326 -0.007,-0.0167 -0.0077,-0.0339 -0.0031,-0.0522 0.0046,-0.0183 0.01551,-0.0318 0.03256,-0.0393 0.0089,-0.004 0.01731,-0.006 0.02584,-0.006 z" />
  </g>
</svg>
