<?xml version="1.0" encoding="UTF-8" standalone="no"?>
<!-- Created with Inkscape (http://www.inkscape.org/) -->

<svg
   width="6.2030616mm"
   height="6.4533529mm"
   viewBox="0 0 6.2030616 6.4533529"
   version="1.1"
   id="svg1"
   xmlns="http://www.w3.org/2000/svg"
   xmlns:svg="http://www.w3.org/2000/svg">
  <defs
     id="defs1">
    <linearGradient
       id="swatch4">
      <stop
         style="stop-color:#000000;stop-opacity:1;"
         offset="0"
         id="stop4" />
    </linearGradient>
  </defs>
  <g
     id="layer2"
     style="stroke:#ffffff;stroke-opacity:1"
     transform="translate(-57.047217,-142.56649)">
    <path
       id="path43-16-9"
       style="fill:#000000;fill-opacity:1;stroke:none;stroke-width:0.194062;stroke-dasharray:none;stroke-opacity:1"
       d="m 60.23715,142.56649 v 1.24592 c 0.02026,0.0104 0.04162,0.0223 0.0677,0.0377 0.06087,0.036 0.139192,0.086 0.229444,0.14625 0.180503,0.1205 0.409276,0.28152 0.63562,0.44597 0.226343,0.16445 0.44974,0.33219 0.620117,0.46663 0.08519,0.0672 0.157808,0.12582 0.21084,0.1726 0.02253,0.0199 0.03949,0.0367 0.05529,0.0527 l 1.129131,-0.42116 c -0.185662,-0.29451 -1.060336,-1.49538 -1.133781,-1.54874 -0.07256,-0.0527 -1.455475,-0.50444 -1.81436,-0.5979 z m -0.193787,0.004 c -0.394463,0.1067 -1.725834,0.54273 -1.796789,0.59428 -0.07129,0.0518 -0.903703,1.19231 -1.122412,1.52859 l 1.120345,0.43873 c 0.01554,-0.0154 0.03184,-0.0313 0.05323,-0.0501 0.05303,-0.0468 0.124617,-0.10538 0.209806,-0.1726 0.170377,-0.13443 0.393773,-0.30219 0.620117,-0.46663 0.226344,-0.16445 0.455117,-0.32548 0.63562,-0.44597 0.09025,-0.0602 0.168571,-0.11026 0.229444,-0.14625 0.01946,-0.0115 0.03453,-0.0191 0.05064,-0.0279 z m 0.105937,1.38906 c -0.0011,4.4e-4 -0.0015,5.4e-4 -0.0026,0.001 -0.01544,0.007 -0.03914,0.0206 -0.06718,0.0372 -0.05608,0.0332 -0.132421,0.0818 -0.221175,0.14108 -0.177508,0.11849 -0.405003,0.27892 -0.629936,0.44235 -0.224932,0.16342 -0.447399,0.3303 -0.614949,0.4625 -0.08377,0.0661 -0.153717,0.12331 -0.202572,0.1664 -0.02443,0.0215 -0.04393,0.0393 -0.05581,0.0517 -7.63e-4,9.1e-4 -8.04e-4,0.001 -0.0016,0.002 7.4e-5,0.001 -2.15e-4,0.002 0,0.004 0.0023,0.017 0.0069,0.0426 0.01395,0.0744 0.0142,0.0636 0.03722,0.15101 0.06615,0.25373 0.05784,0.20544 0.140425,0.47146 0.226342,0.73588 0.08592,0.26443 0.17563,0.5279 0.249598,0.72812 0.03698,0.1001 0.06972,0.18465 0.0956,0.24443 0.01294,0.0299 0.02446,0.0536 0.03256,0.0687 5.25e-4,9.1e-4 9.22e-4,9.7e-4 0.0016,0.002 0.0013,3.7e-4 0.0017,5.2e-4 0.0031,5.2e-4 0.01688,0.003 0.04302,0.007 0.07545,0.0103 0.06485,0.006 0.154852,0.0113 0.261482,0.0155 0.213258,0.008 0.49143,0.0124 0.769462,0.0124 0.278032,0 0.556204,-0.004 0.769462,-0.0124 0.106629,-0.004 0.197666,-0.009 0.262517,-0.0155 0.03243,-0.003 0.05856,-0.007 0.07545,-0.0103 0.0012,-2.1e-4 0.0014,-5.2e-4 0.0026,-5.2e-4 5.94e-4,-9.1e-4 0.0015,-9.7e-4 0.0021,-0.002 0.0081,-0.0151 0.0191,-0.0389 0.03204,-0.0687 0.02588,-0.0598 0.05862,-0.14433 0.0956,-0.24443 0.07396,-0.2002 0.164714,-0.46369 0.250631,-0.72812 0.08592,-0.26442 0.167465,-0.53044 0.225309,-0.73588 0.02892,-0.10272 0.05195,-0.19016 0.06615,-0.25373 0.0071,-0.0318 0.01162,-0.0574 0.01395,-0.0744 2.16e-4,-10e-4 -7.3e-5,-0.002 0,-0.004 -6.85e-4,-9.1e-4 -0.0012,-0.001 -0.0021,-0.002 -0.01188,-0.0124 -0.03035,-0.0301 -0.05478,-0.0517 -0.04885,-0.0431 -0.119829,-0.1003 -0.203605,-0.1664 -0.167571,-0.13221 -0.390017,-0.29908 -0.614949,-0.4625 -0.224933,-0.16342 -0.452428,-0.32385 -0.629936,-0.44235 -0.08875,-0.0592 -0.165098,-0.10793 -0.221175,-0.14108 -0.02804,-0.0166 -0.05071,-0.0297 -0.06615,-0.0372 -0.0011,-5e-4 -0.0015,-6.3e-4 -0.0026,-0.001 z m 0.254765,0.73742 c 0.02359,0.001 0.04726,0.006 0.0708,0.014 -0.04639,-0.0131 -0.12045,0.0197 -0.221175,0.0977 0.02125,0.0481 0.06515,0.092 0.132808,0.13229 0.09453,0.0559 0.205985,0.047 0.33383,-0.0264 l -0.138493,0.14935 v 0.30385 l -0.220658,0.22273 v -0.40773 c -0.06366,-0.0101 -0.128667,-0.0385 -0.194304,-0.0842 v 0.57257 l 0.104903,0.0558 0.310059,-0.308 -0.0057,0.11783 -0.22996,0.23771 c 0.07283,0.0325 0.135156,0.0538 0.187069,0.0646 0.05269,0.0109 0.115011,-0.005 0.187069,-0.0486 l -0.138493,0.14883 v 0.3793 l -0.243913,0.23513 v -0.60823 l -0.171049,-0.0822 v 0.6103 l -0.0708,0.0589 v -0.70332 l -0.08113,-0.0388 -0.0016,0.76171 0.258382,0.11265 0.310059,-0.30747 -0.0057,0.1173 -0.413928,0.41548 -0.397392,-0.19017 c -0.03874,-0.0167 -0.0946,-0.0176 -0.167431,-0.003 0.07051,-0.055 0.123004,-0.084 0.157096,-0.0873 v -0.65216 c -0.03952,0.0133 -0.09848,-0.0136 -0.176733,-0.0811 0.06973,0.0283 0.12766,0.0295 0.174149,0.004 l 0.165365,-0.14624 c -0.116997,-0.006 -0.204147,0.003 -0.261483,0.0253 0.07051,-0.055 0.122229,-0.0845 0.155546,-0.0879 v -0.47645 c -0.03874,0.0133 -0.09744,-0.0141 -0.1757,-0.0816 0.06973,0.0283 0.128178,0.03 0.174667,0.004 l 0.322461,-0.27595 c 0.09085,-0.10001 0.181241,-0.14854 0.271301,-0.1447 z m -3.295406,0.0222 c -0.01624,0.026 -0.03562,0.056 -0.03824,0.0641 -0.0016,0.005 -0.0027,0.0311 -0.0041,0.0444 z m -0.04703,0.15657 c -0.02181,0.37474 -0.01888,1.82281 0.0088,1.9079 0.02743,0.0844 0.865507,1.24236 1.111044,1.54409 l 0.699698,-0.88677 c -0.01038,-0.0199 -0.02109,-0.0411 -0.03307,-0.0687 -0.0281,-0.0649 -0.0611,-0.15193 -0.0987,-0.25373 -0.07521,-0.20358 -0.165726,-0.46823 -0.252181,-0.73432 -0.08646,-0.26608 -0.169073,-0.53317 -0.227893,-0.74207 -0.02941,-0.10445 -0.0528,-0.19402 -0.06821,-0.26304 -0.0053,-0.0239 -0.0085,-0.0423 -0.01189,-0.0615 z m 6.175851,0.0248 -1.130164,0.42168 c -0.0033,0.0181 -0.0059,0.0348 -0.01085,0.0568 -0.01541,0.069 -0.0388,0.1586 -0.06821,0.26304 -0.05882,0.2089 -0.140404,0.47598 -0.226859,0.74207 -0.08646,0.26608 -0.176977,0.53074 -0.252181,0.73432 -0.0376,0.10179 -0.07164,0.18885 -0.09974,0.25373 -0.01351,0.0312 -0.0257,0.0559 -0.03721,0.0775 l 0.700216,0.88263 c 0.237735,-0.29016 1.08701,-1.46364 1.11466,-1.54874 0.02691,-0.0828 0.03031,-1.4642 0.01034,-1.88309 z m -3.200838,0.0853 v 0.61598 l 0.05943,0.0315 v -0.59066 c -0.01976,-0.0174 -0.03949,-0.0363 -0.05943,-0.0568 z m -0.992188,2.56263 -0.705383,0.89349 c 0.366818,0.14135 1.72116,0.57825 1.809708,0.57825 0.08784,0 1.4249,-0.43077 1.804541,-0.57567 l -0.709517,-0.89504 c -0.01568,0.002 -0.02893,0.004 -0.04754,0.006 -0.0704,0.007 -0.162357,0.0122 -0.270785,0.0165 -0.216856,0.009 -0.49692,0.0134 -0.776697,0.0134 -0.279776,0 -0.558808,-0.005 -0.775663,-0.0134 -0.108428,-0.004 -0.201421,-0.01 -0.271818,-0.0165 -0.02237,-0.002 -0.03885,-0.005 -0.05684,-0.007 z m 3.014803,0.84491 -0.01499,0.0119 c 0.001,-4.5e-4 0.0065,-0.003 0.0072,-0.003 0.0011,-9.2e-4 0.0063,-0.008 0.0078,-0.009 z" />
  </g>
</svg>
