<?xml version="1.0" encoding="UTF-8" standalone="no"?>
<!-- Created with Inkscape (http://www.inkscape.org/) -->

<svg
   width="5.670455mm"
   height="5.9009318mm"
   viewBox="0 0 5.670455 5.9009318"
   version="1.1"
   id="svg1"
   xmlns="http://www.w3.org/2000/svg"
   xmlns:svg="http://www.w3.org/2000/svg">
  <defs
     id="defs1">
    <linearGradient
       id="swatch4">
      <stop
         style="stop-color:#000000;stop-opacity:1;"
         offset="0"
         id="stop4" />
    </linearGradient>
  </defs>
  <g
     id="layer2"
     style="stroke:#ffffff;stroke-opacity:1"
     transform="translate(-26.132255,-195.60511)">
    <path
       id="path237-317-04-2"
       style="fill:#000000;fill-opacity:1;stroke:none;stroke-width:0.200527;stroke-dasharray:none;stroke-opacity:1"
       d="m 28.967224,195.60511 c -0.127651,0 -1.630989,0.48825 -1.734261,0.56328 -0.103272,0.075 -1.032323,1.35396 -1.071769,1.47536 -0.01828,0.0563 -0.02761,0.4279 -0.02894,0.82062 0.0077,-0.005 0.01437,-0.009 0.02274,-0.0139 0.07448,-0.0438 0.177026,-0.097 0.299723,-0.1571 0.245394,-0.12015 0.572008,-0.26755 0.907955,-0.41134 0.335947,-0.14379 0.680485,-0.28357 0.961182,-0.38861 0.140348,-0.0525 0.264063,-0.0963 0.366385,-0.12816 0.05116,-0.0159 0.0965,-0.0285 0.139527,-0.0387 0.04303,-0.0101 0.0759,-0.0207 0.151412,-0.0207 0.07551,0 0.108384,0.0105 0.151412,0.0207 0.04303,0.0101 0.08836,0.0228 0.139526,0.0387 0.102323,0.0319 0.226037,0.0756 0.366386,0.12816 0.280696,0.10504 0.625751,0.24482 0.961698,0.38861 0.335948,0.14379 0.662562,0.29119 0.907955,0.41134 0.12024,0.0589 0.220469,0.11072 0.294556,0.154 -0.0016,-0.38625 -0.01092,-0.74812 -0.02894,-0.80357 -0.03945,-0.1214 -0.969014,-1.40033 -1.072286,-1.47536 -0.103272,-0.075 -1.60661,-0.56328 -1.734261,-0.56328 z m 0.01395,1.83555 c -0.0016,3.3e-4 -0.0019,1.2e-4 -0.0036,5.2e-4 -0.02466,0.006 -0.06222,0.016 -0.10697,0.03 -0.0895,0.0279 -0.208386,0.0699 -0.344682,0.12092 -0.272592,0.102 -0.614527,0.24074 -0.946712,0.38293 -0.332185,0.14218 -0.655693,0.28794 -0.894002,0.40462 -0.119154,0.0583 -0.217006,0.10949 -0.282153,0.1478 -0.03257,0.0191 -0.05671,0.0354 -0.07028,0.046 -9.88e-4,7.7e-4 -0.0012,8.8e-4 -0.0021,0.002 8.11e-4,7.4e-4 0.001,8.4e-4 0.0021,0.002 0.01357,0.0106 0.03771,0.0268 0.07028,0.046 0.06515,0.0383 0.162999,0.0894 0.282153,0.14779 0.238309,0.11667 0.561817,0.26245 0.894002,0.40463 0.332185,0.14219 0.67412,0.28091 0.946712,0.38292 0.136296,0.051 0.255184,0.093 0.344682,0.12092 0.04475,0.0139 0.08231,0.0242 0.10697,0.03 0.0017,4e-4 0.002,1.9e-4 0.0036,5.2e-4 0.0016,-3.3e-4 0.0014,-1.2e-4 0.0031,-5.2e-4 0.02466,-0.006 0.06222,-0.016 0.106971,-0.03 0.06924,-0.0216 0.160398,-0.0533 0.259415,-0.0894 l -0.190686,-0.14211 c -0.07438,0.0742 -0.172651,0.12106 -0.295072,0.14108 0.101501,-0.0642 0.17753,-0.14551 0.227893,-0.24392 v -0.26251 H 28.53624 v -0.0951 l 0.556555,0.001 v -1.06454 c 0.08833,0.0317 0.175996,0.0295 0.26355,-0.007 v 1.06453 l 0.221175,0.001 v 0.0816 l -0.221175,-0.003 v 0.1602 l 0.09198,0.0713 c 0.03487,-0.055 0.09435,-0.0816 0.1788,-0.0791 -0.05736,0.0288 -0.146131,0.15315 -0.266133,0.37207 0.02566,-0.009 0.04836,-0.0173 0.07545,-0.0274 0.272592,-0.10201 0.614011,-0.24073 0.946196,-0.38292 0.332185,-0.14218 0.656211,-0.28796 0.894519,-0.40463 0.119155,-0.0583 0.217005,-0.10949 0.282153,-0.14779 0.03257,-0.0192 0.05671,-0.0354 0.07028,-0.046 9.87e-4,-7.7e-4 0.0012,-8.7e-4 0.0021,-0.002 -8.12e-4,-7.4e-4 -10e-4,-8.5e-4 -0.0021,-0.002 -0.01357,-0.0106 -0.0377,-0.0268 -0.07028,-0.046 -0.06515,-0.0383 -0.162998,-0.0895 -0.282153,-0.1478 -0.238308,-0.11668 -0.562334,-0.26244 -0.894519,-0.40462 -0.278543,-0.11923 -0.554963,-0.23133 -0.800468,-0.32608 -0.09076,0.16615 -0.198978,0.25189 -0.324528,0.25683 -0.126295,0.005 -0.228185,-0.0278 -0.306442,-0.0987 l -0.137459,0.0625 0.306958,-0.35295 c 0.02014,0.10174 0.08221,0.16311 0.186035,0.18396 0.101747,0.0203 0.192582,0.003 0.272335,-0.0527 -0.04623,-0.0178 -0.09953,-0.0397 -0.142627,-0.0558 -0.136297,-0.051 -0.2557,-0.093 -0.345198,-0.12092 -0.04475,-0.0139 -0.08231,-0.0242 -0.106971,-0.03 -0.0017,-4e-4 -0.0015,-1.9e-4 -0.0031,-5.2e-4 z m 0.09664,0.48886 c -0.106925,0.04 -0.210883,0.34546 -0.311609,0.91674 -0.143341,0.12927 -0.296176,0.16392 -0.458887,0.10387 0.118547,0.0275 0.248107,-0.13688 0.389124,-0.49299 0.141016,-0.35611 0.268249,-0.53179 0.381372,-0.52762 z m -2.945557,0.75603 c 0.0018,0.37797 0.01126,0.72745 0.02894,0.78186 0.03945,0.12141 0.968498,1.40033 1.071769,1.47536 0.103272,0.075 1.60661,0.56328 1.734261,0.56328 0.12765,0 1.630989,-0.48825 1.734261,-0.56328 0.103271,-0.075 1.032839,-1.35395 1.072286,-1.47536 0.01741,-0.0536 0.02638,-0.39354 0.02842,-0.76481 -0.07406,0.0433 -0.173985,0.0952 -0.294039,0.154 -0.245394,0.12014 -0.572008,0.26755 -0.907955,0.41134 -0.335947,0.1438 -0.681001,0.28358 -0.961698,0.38861 -0.140348,0.0525 -0.264063,0.0963 -0.366386,0.12815 -0.05116,0.0159 -0.0965,0.0291 -0.139526,0.0393 -0.04303,0.0101 -0.0759,0.0202 -0.151412,0.0202 -0.07551,0 -0.108384,-0.01 -0.151412,-0.0202 -0.04303,-0.0101 -0.08836,-0.0233 -0.139527,-0.0393 -0.102323,-0.0319 -0.226037,-0.0756 -0.366385,-0.12815 -0.280697,-0.10503 -0.625235,-0.24481 -0.961182,-0.38861 -0.335947,-0.14379 -0.662561,-0.2912 -0.907955,-0.41134 -0.122697,-0.0601 -0.22524,-0.1133 -0.299723,-0.1571 -0.0084,-0.005 -0.01505,-0.009 -0.02274,-0.0139 z" />
  </g>
</svg>
