<?xml version="1.0" encoding="UTF-8" standalone="no"?>
<!-- Created with Inkscape (http://www.inkscape.org/) -->

<svg
   width="6.2030525mm"
   height="6.4538693mm"
   viewBox="0 0 6.2030525 6.4538693"
   version="1.1"
   id="svg1"
   xmlns="http://www.w3.org/2000/svg"
   xmlns:svg="http://www.w3.org/2000/svg">
  <defs
     id="defs1">
    <linearGradient
       id="swatch4">
      <stop
         style="stop-color:#000000;stop-opacity:1;"
         offset="0"
         id="stop4" />
    </linearGradient>
  </defs>
  <g
     id="layer2"
     style="stroke:#ffffff;stroke-opacity:1"
     transform="translate(-2.7497564,-142.60162)">
    <path
       id="path43-16"
       style="fill:#000000;fill-opacity:1;stroke:none;stroke-width:0.194062;stroke-dasharray:none;stroke-opacity:1"
       d="m 5.9396891,142.60163 v 1.24592 c 0.020256,0.0104 0.041619,0.0223 0.067696,0.0377 0.060872,0.036 0.1391919,0.086 0.2294433,0.14625 0.1805033,0.12049 0.409276,0.28152 0.6356201,0.44597 0.2263438,0.16445 0.4497405,0.3322 0.6201172,0.46663 0.085189,0.0672 0.1578081,0.12583 0.2108399,0.1726 0.02253,0.0199 0.039492,0.0367 0.055294,0.0527 l 1.1291301,-0.42116 c -0.1856624,-0.29451 -1.0603365,-1.49538 -1.1337809,-1.54874 -0.072562,-0.0527 -1.4554747,-0.50445 -1.8143596,-0.5979 z m -0.1937866,0.004 c -0.3944633,0.10668 -1.7258343,0.54271 -1.7967895,0.59427 -0.071294,0.0518 -0.9037033,1.19232 -1.1224122,1.52859 l 1.1203451,0.43874 c 0.015537,-0.0154 0.031844,-0.0313 0.053227,-0.0501 0.053032,-0.0468 0.1246178,-0.10538 0.2098063,-0.1726 0.1703769,-0.13443 0.3937731,-0.30219 0.6201172,-0.46664 0.2263437,-0.16445 0.4551169,-0.32547 0.6356201,-0.44596 0.090251,-0.0602 0.1685709,-0.11026 0.2294434,-0.14625 0.019457,-0.0115 0.034535,-0.0191 0.050643,-0.0279 z m 0.1059367,1.38906 c -0.00111,4.4e-4 -0.00148,5.3e-4 -0.00258,0.001 -0.015439,0.007 -0.039141,0.0206 -0.067179,0.0372 -0.056077,0.0332 -0.1324211,0.0818 -0.2211751,0.14108 -0.1775084,0.11849 -0.4050034,0.27892 -0.6299357,0.44235 -0.2249328,0.16342 -0.4473992,0.3303 -0.6149496,0.4625 -0.083775,0.0661 -0.1537174,0.12331 -0.2025716,0.1664 -0.024427,0.0215 -0.043931,0.0393 -0.055811,0.0517 -7.642e-4,7.9e-4 -8.529e-4,0.001 -0.00155,0.002 7.32e-5,0.002 -2.154e-4,0.002 0,0.004 0.00234,0.017 0.00685,0.0426 0.013953,0.0744 0.014197,0.0636 0.037224,0.15102 0.066146,0.25373 0.057844,0.20544 0.1404262,0.47145 0.2263428,0.73588 0.085917,0.26442 0.1756293,0.52789 0.2495972,0.72812 0.036978,0.1001 0.069718,0.18465 0.095601,0.24443 0.012944,0.0299 0.024458,0.0536 0.032556,0.0687 5.232e-4,9.7e-4 9.715e-4,0.001 0.00155,0.002 0.00134,3.6e-4 0.00169,8e-4 0.0031,0.001 0.016884,0.003 0.043022,0.007 0.075448,0.01 0.064851,0.006 0.1548535,0.0113 0.2614828,0.0155 0.2132579,0.008 0.4914302,0.0124 0.769462,0.0124 0.2780319,0 0.5562039,-0.004 0.7694621,-0.0124 0.1066289,-0.004 0.1976654,-0.009 0.2625163,-0.0155 0.032426,-0.003 0.058564,-0.007 0.075448,-0.01 0.0012,-2.1e-4 0.00143,-7.9e-4 0.00258,-0.001 5.74e-4,-9.3e-4 0.00103,-0.001 0.00155,-0.002 0.0081,-0.0151 0.019096,-0.0389 0.032039,-0.0687 0.025883,-0.0598 0.058625,-0.14433 0.095601,-0.24443 0.073957,-0.20021 0.1647143,-0.4637 0.2506307,-0.72812 0.085917,-0.26443 0.167465,-0.53044 0.2253092,-0.73588 0.028924,-0.10271 0.051948,-0.19016 0.066146,-0.25373 0.0071,-0.0318 0.011621,-0.0574 0.013953,-0.0744 2.155e-4,-0.002 -7.31e-5,-0.002 0,-0.004 -6.973e-4,-8.3e-4 -7.862e-4,-0.001 -0.00155,-0.002 -0.011879,-0.0124 -0.030349,-0.0301 -0.054777,-0.0517 -0.048854,-0.0431 -0.1198298,-0.1003 -0.2036052,-0.1664 -0.1675498,-0.1322 -0.3900174,-0.29908 -0.6149495,-0.4625 -0.2249328,-0.16343 -0.4524273,-0.32386 -0.6299357,-0.44235 -0.088754,-0.0593 -0.1650981,-0.10793 -0.2211752,-0.14108 -0.028039,-0.0166 -0.050709,-0.0297 -0.066146,-0.0372 -0.00107,-5.2e-4 -0.0015,-6.3e-4 -0.00258,-0.001 z m -3.0406413,0.75964 c -0.016234,0.026 -0.035621,0.056 -0.03824,0.0641 -0.00157,0.005 -0.00273,0.0312 -0.00413,0.0444 z m 3.0292725,0.0382 c 0.00155,0.13094 0.083269,0.20135 0.2459798,0.21136 l -0.1100708,0.14624 -0.00155,1.3839 0.1979207,0.0863 c 0.049588,-0.0567 0.1108775,-0.0834 0.1844849,-0.0801 -0.071283,0.0367 -0.1669666,0.1447 -0.2878377,0.32401 L 5.7913778,146.759 c -0.035642,0.055 -0.1171019,0.0856 -0.2449463,0.0915 0.096077,-0.0459 0.1633141,-0.11131 0.2020548,-0.19637 l 0.00103,-1.49862 c -0.041065,-0.007 -0.072615,-0.0255 -0.095085,-0.0563 l -0.1943034,0.0703 z m -3.076298,0.11834 c -0.02181,0.37473 -0.018866,1.82281 0.00879,1.9079 0.027432,0.0844 0.8655066,1.24236 1.1110433,1.54409 l 0.6996988,-0.88677 c -0.010379,-0.0199 -0.021094,-0.0411 -0.033073,-0.0687 -0.028097,-0.0649 -0.0611,-0.15194 -0.098702,-0.25373 -0.075204,-0.20358 -0.1657252,-0.46824 -0.2521809,-0.73432 -0.086456,-0.26609 -0.1690732,-0.53317 -0.2278931,-0.74208 -0.02941,-0.10445 -0.052802,-0.19402 -0.068213,-0.26303 -0.00533,-0.0239 -0.0085,-0.0423 -0.011886,-0.0615 z m 6.1758504,0.0248 -1.1301636,0.42168 c -0.00328,0.0181 -0.00593,0.0348 -0.010852,0.0568 -0.015411,0.069 -0.038804,0.15858 -0.068213,0.26303 -0.05882,0.20891 -0.1404039,0.47599 -0.2268596,0.74208 -0.086456,0.26608 -0.1769767,0.53074 -0.252181,0.73432 -0.037602,0.10179 -0.071642,0.18884 -0.099736,0.25373 -0.013505,0.0312 -0.025705,0.0559 -0.037207,0.0775 l 0.7002157,0.88264 c 0.2377358,-0.29016 1.0870102,-1.46365 1.1146606,-1.54874 0.026915,-0.0828 0.030294,-1.46419 0.010335,-1.88309 z m -2.8427206,0.13332 v 1.34204 l -0.065112,0.0589 v -1.30948 z m -1.3503051,2.51458 -0.7053833,0.89348 c 0.3668187,0.14135 1.7211603,0.57826 1.8097086,0.57826 0.087837,0 1.4249003,-0.43077 1.804541,-0.57567 L 6.946346,147.58479 c -0.01568,0.002 -0.028933,0.004 -0.047542,0.006 -0.070397,0.007 -0.1623566,0.0122 -0.2707845,0.0165 -0.2168558,0.009 -0.4969202,0.0134 -0.7766968,0.0134 -0.2797766,0 -0.5588078,-0.005 -0.7756632,-0.0134 -0.1084279,-0.004 -0.2014211,-0.01 -0.2718181,-0.0165 -0.022372,-0.002 -0.038849,-0.004 -0.056844,-0.007 z m 3.0137695,0.84594 -0.013953,0.0109 c 9.872e-4,-6e-4 0.00651,-0.003 0.00723,-0.003 9.147e-4,-6.6e-4 0.00468,-0.006 0.00672,-0.008 z" />
  </g>
  <g
     id="layer3"
     transform="translate(-2.7497564,-142.60162)">
    <path
       style="color:#000000;font-style:normal;font-variant:normal;font-weight:normal;font-stretch:normal;font-size:medium;line-height:normal;font-family:sans-serif;font-variant-ligatures:normal;font-variant-position:normal;font-variant-caps:normal;font-variant-numeric:normal;font-variant-alternates:normal;font-variant-east-asian:normal;font-feature-settings:normal;font-variation-settings:normal;text-indent:0;text-align:start;text-decoration-line:none;text-decoration-style:solid;text-decoration-color:#000000;letter-spacing:normal;word-spacing:normal;text-transform:none;writing-mode:lr-tb;direction:ltr;text-orientation:mixed;dominant-baseline:auto;baseline-shift:baseline;text-anchor:start;white-space:normal;shape-padding:0;shape-margin:0;inline-size:0;clip-rule:nonzero;display:inline;overflow:visible;visibility:visible;isolation:auto;mix-blend-mode:normal;color-interpolation:sRGB;color-interpolation-filters:linearRGB;solid-color:#000000;solid-opacity:1;vector-effect:none;fill:#000000;fill-opacity:1;fill-rule:nonzero;stroke:none;stroke-linecap:butt;stroke-linejoin:miter;stroke-miterlimit:4;stroke-dasharray:none;stroke-dashoffset:0;stroke-opacity:1;-inkscape-stroke:none;color-rendering:auto;image-rendering:auto;shape-rendering:auto;text-rendering:auto;enable-background:accumulate;stop-color:#000000"
       d="m 5.8421606,143.82576 v -1.3266"
       id="path954" />
  </g>
</svg>
