<?xml version="1.0" encoding="UTF-8" standalone="no"?>
<!-- Created with Inkscape (http://www.inkscape.org/) -->

<svg
   width="6.9887209mm"
   height="6.2364087mm"
   viewBox="0 0 6.9887209 6.2364087"
   version="1.1"
   id="svg1"
   xmlns="http://www.w3.org/2000/svg"
   xmlns:svg="http://www.w3.org/2000/svg">
  <defs
     id="defs1">
    <linearGradient
       id="swatch4">
      <stop
         style="stop-color:#000000;stop-opacity:1;"
         offset="0"
         id="stop4" />
    </linearGradient>
  </defs>
  <g
     id="layer2"
     style="stroke:#ffffff;stroke-opacity:1"
     transform="translate(-48.872469,-150.45128)">
    <path
       id="path94-48-16"
       style="fill:#000000;fill-opacity:1;stroke:none;stroke-width:0.192506;stroke-dasharray:none;stroke-opacity:1"
       d="m 52.365796,150.45128 v 5.2e-4 c -0.703573,0 -1.400448,0.0158 -1.658297,0.0465 l 0.555522,1.00872 c 0.024,-0.004 0.05257,-0.006 0.0863,-0.009 0.06866,-0.006 0.158762,-0.0104 0.264067,-0.0139 0.21061,-0.007 0.481209,-0.0109 0.752409,-0.0109 0.271199,0 0.542317,0.004 0.752926,0.0109 0.105305,0.004 0.195411,0.008 0.264066,0.0139 0.03433,0.003 0.0636,0.005 0.08785,0.009 l 0.575675,-1.00666 c -0.240758,-0.0323 -0.958826,-0.0491 -1.680517,-0.0491 z m -1.826245,0.13953 c -0.303935,0.40167 -1.458801,2.4017 -1.663981,2.88044 l 1.161686,0.002 c 0.0077,-0.0183 0.01511,-0.0363 0.02584,-0.0589 0.02956,-0.0622 0.07032,-0.14215 0.119889,-0.23513 0.09914,-0.18595 0.23182,-0.42246 0.36742,-0.65732 0.135599,-0.23487 0.274549,-0.46764 0.386023,-0.64647 0.05574,-0.0894 0.104044,-0.16499 0.143143,-0.22169 0.0091,-0.0132 0.01615,-0.0219 0.02429,-0.0331 z m 3.665926,0.0176 -0.577226,1.01234 c 0.0081,0.0112 0.01521,0.0199 0.02429,0.0331 0.0391,0.0567 0.08741,0.13228 0.143144,0.22169 0.111474,0.17884 0.250423,0.41161 0.386023,0.64648 0.1356,0.23486 0.268283,0.47137 0.367419,0.65732 0.04957,0.093 0.09033,0.17292 0.119889,0.23513 0.01065,0.0224 0.01819,0.0402 0.02584,0.0584 l 1.159102,-0.007 c -0.207703,-0.48043 -1.327348,-2.42009 -1.648478,-2.85719 z m -1.839681,1.05781 c -0.269523,0 -0.53904,0.003 -0.746208,0.0103 -0.103584,0.004 -0.191371,0.008 -0.254765,0.0134 -0.0317,0.002 -0.05762,0.005 -0.07441,0.008 -0.0023,3.4e-4 -0.003,10e-4 -0.0052,0.002 -0.0012,0.001 -0.0019,0.002 -0.0031,0.003 -0.01059,0.0133 -0.02587,0.0343 -0.04393,0.0605 -0.0361,0.0524 -0.08418,0.1265 -0.139009,0.21445 -0.109652,0.17591 -0.247127,0.40738 -0.381889,0.64079 -0.134761,0.23341 -0.266803,0.46872 -0.364319,0.65164 -0.04876,0.0915 -0.08898,0.17044 -0.116272,0.22789 -0.01365,0.0287 -0.02428,0.0524 -0.03049,0.0682 -7.5e-4,0.002 -5.24e-4,0.003 -10e-4,0.005 5.42e-4,0.002 3.16e-4,0.003 10e-4,0.005 0.0062,0.0158 0.01684,0.0395 0.03049,0.0682 0.02729,0.0574 0.06751,0.13591 0.116272,0.22737 0.09752,0.18291 0.229558,0.41823 0.364319,0.65164 0.134762,0.23342 0.272237,0.4654 0.381889,0.64131 0.05483,0.088 0.102906,0.1621 0.139009,0.21446 0.01805,0.0262 0.03334,0.0467 0.04393,0.0599 0.0015,0.002 0.0025,0.002 0.0041,0.004 0.0017,3.4e-4 0.0023,7.2e-4 0.0041,10e-4 0.0168,0.002 0.04272,0.005 0.07441,0.008 0.06339,0.005 0.151181,0.009 0.254765,0.0129 0.207168,0.007 0.476685,0.0103 0.746208,0.0103 0.269522,0 0.539555,-0.003 0.746724,-0.0103 0.103584,-0.003 0.191371,-0.008 0.254765,-0.0129 0.0317,-0.002 0.05762,-0.005 0.07441,-0.008 0.0018,-2.7e-4 0.0024,-7.2e-4 0.0041,-10e-4 0.0016,-0.002 0.0026,-0.002 0.0041,-0.004 0.01059,-0.0133 0.02586,-0.0337 0.04393,-0.0599 0.0361,-0.0524 0.08418,-0.1265 0.13901,-0.21446 0.109652,-0.17591 0.247127,-0.40789 0.381889,-0.64131 0.134761,-0.23341 0.266803,-0.46873 0.364319,-0.65164 0.04876,-0.0915 0.08898,-0.16992 0.116272,-0.22737 0.01365,-0.0287 0.02428,-0.0524 0.03049,-0.0682 7.54e-4,-0.002 5.13e-4,-0.003 10e-4,-0.005 -5.48e-4,-0.002 -3.15e-4,-0.003 -10e-4,-0.005 -0.0062,-0.0158 -0.01684,-0.0395 -0.03049,-0.0682 -0.02729,-0.0574 -0.06751,-0.13643 -0.116272,-0.22789 -0.09752,-0.18292 -0.229558,-0.41823 -0.364319,-0.65164 -0.134762,-0.23341 -0.272237,-0.46488 -0.381889,-0.64079 -0.05483,-0.0879 -0.102907,-0.16209 -0.13901,-0.21445 -0.01805,-0.0262 -0.03334,-0.0472 -0.04393,-0.0605 -0.0012,-0.001 -0.0019,-0.002 -0.0031,-0.003 -0.0021,-6.9e-4 -0.0029,-0.001 -0.0052,-0.002 -0.0168,-0.002 -0.04272,-0.005 -0.07441,-0.008 -0.06339,-0.005 -0.151181,-0.01 -0.254765,-0.0134 -0.207169,-0.007 -0.477201,-0.0103 -0.746724,-0.0103 z m 0.516247,0.863 c -0.16581,0.23518 -0.330023,0.36442 -0.491959,0.38861 -0.161162,0.0233 -0.28736,-0.0126 -0.378788,-0.10852 l -0.17415,0.0786 0.276469,-0.3514 c 0.05501,0.0801 0.154057,0.12558 0.296623,0.13642 0.142566,0.01 0.299797,-0.0377 0.471805,-0.14366 z m -0.01499,0.0398 c -0.127785,0.29082 -0.229562,0.61585 -0.305407,0.97462 0.106661,0.003 0.223267,-0.0239 0.350366,-0.0811 -0.127365,0.13296 -0.252913,0.20416 -0.377238,0.21445 -0.03617,0.19112 -0.06524,0.39147 -0.08733,0.601 l 0.197404,0.0863 c 0.04959,-0.0567 0.111394,-0.0834 0.185001,-0.0801 -0.07128,0.0367 -0.167483,0.14471 -0.288354,0.32401 l -0.301274,-0.1049 c -0.108474,0.0992 -0.244241,0.12931 -0.407727,0.0909 0.16736,0.004 0.288904,-0.0613 0.364836,-0.19637 0.06156,-0.27606 0.12202,-0.51912 0.180867,-0.7307 -0.05502,-0.0124 -0.102065,-0.0343 -0.141076,-0.0672 l -0.133842,0.046 0.21394,-0.20877 c 0.02384,0.0364 0.05842,0.0633 0.103353,0.0811 0.121743,-0.40992 0.237415,-0.67901 0.347266,-0.80667 z m 2.994133,1.08986 -1.165304,0.006 c -0.0079,0.0188 -0.01562,0.0378 -0.02687,0.0615 -0.02956,0.0622 -0.07032,0.14215 -0.119889,0.23513 -0.09914,0.18595 -0.231819,0.42245 -0.367419,0.65732 -0.1356,0.23487 -0.274549,0.46816 -0.386023,0.64699 -0.05574,0.0894 -0.104044,0.16499 -0.143144,0.22169 -0.01445,0.0209 -0.02665,0.0364 -0.03876,0.0522 l 0.578259,1.01131 c 0.304945,-0.4024 1.476215,-2.43134 1.669149,-2.89181 z m -6.988721,0.004 c 0.198138,0.4686 1.36834,2.49456 1.669666,2.89026 l 0.58291,-1.00407 c -0.01382,-0.0177 -0.02838,-0.0372 -0.04548,-0.062 -0.0391,-0.0567 -0.08741,-0.13228 -0.143143,-0.22169 -0.111474,-0.17883 -0.250424,-0.41212 -0.386023,-0.64699 -0.1356,-0.23487 -0.268284,-0.47136 -0.36742,-0.65732 -0.04957,-0.093 -0.09033,-0.17292 -0.119889,-0.23513 -0.01117,-0.0235 -0.01901,-0.0423 -0.02687,-0.061 z m 3.469039,0.0739 -0.187069,0.65784 c -0.0953,-0.0517 -0.205984,-0.0178 -0.332279,0.10232 0.06818,-0.15679 0.171367,-0.23126 0.310058,-0.22376 l 0.05013,-0.14521 c -0.07438,-0.035 -0.163342,-0.0164 -0.267168,0.0553 0.05269,-0.10258 0.154319,-0.15806 0.305408,-0.1664 l 0.07338,-0.23048 z m 1.107943,1.89859 c -0.02025,0.002 -0.04061,0.005 -0.06666,0.007 -0.06865,0.005 -0.158761,0.01 -0.264066,0.0134 -0.210609,0.007 -0.481727,0.0109 -0.752926,0.0109 -0.2712,0 -0.541799,-0.004 -0.752409,-0.0109 -0.105305,-0.004 -0.195411,-0.008 -0.264067,-0.0134 -0.0208,-0.002 -0.03613,-0.004 -0.05323,-0.006 l -0.581877,1.00666 c 0.528329,0.0605 2.795477,0.06 3.309876,-0.001 z m 0.686779,0.97979 -0.01809,0.0103 c 0.0022,-0.001 0.0088,-0.002 0.01033,-0.003 0.0016,-9.4e-4 0.0056,-0.006 0.0078,-0.008 z" />
  </g>
</svg>
