<?xml version="1.0" encoding="UTF-8" standalone="no"?>
<!-- Created with Inkscape (http://www.inkscape.org/) -->

<svg
   width="5.670455mm"
   height="5.9009318mm"
   viewBox="0 0 5.670455 5.9009318"
   version="1.1"
   id="svg1"
   xmlns="http://www.w3.org/2000/svg"
   xmlns:svg="http://www.w3.org/2000/svg">
  <defs
     id="defs1">
    <linearGradient
       id="swatch4">
      <stop
         style="stop-color:#000000;stop-opacity:1;"
         offset="0"
         id="stop4" />
    </linearGradient>
  </defs>
  <g
     id="layer2"
     style="stroke:#ffffff;stroke-opacity:1"
     transform="translate(-18.559591,-195.6077)">
    <path
       id="path237-317-04-5"
       style="fill:#000000;fill-opacity:1;stroke:none;stroke-width:0.200527;stroke-dasharray:none;stroke-opacity:1"
       d="m 21.39456,195.6077 c -0.127651,0 -1.630989,0.48824 -1.734261,0.56327 -0.103272,0.075 -1.032324,1.35396 -1.07177,1.47536 -0.01828,0.0563 -0.02761,0.42791 -0.02894,0.82063 0.0077,-0.005 0.01437,-0.009 0.02274,-0.014 0.07448,-0.0438 0.177027,-0.097 0.299724,-0.15709 0.245394,-0.12015 0.572008,-0.26756 0.907955,-0.41135 0.335947,-0.14379 0.680484,-0.28356 0.961181,-0.3886 0.140348,-0.0525 0.264064,-0.0963 0.366386,-0.12816 0.05116,-0.0159 0.0965,-0.0286 0.139526,-0.0388 0.04303,-0.0101 0.0759,-0.0207 0.151412,-0.0207 0.07551,0 0.108384,0.0105 0.151412,0.0207 0.04303,0.0101 0.08836,0.0228 0.139527,0.0388 0.102323,0.0319 0.226037,0.0756 0.366386,0.12816 0.280696,0.10504 0.625751,0.24481 0.961698,0.3886 0.335948,0.14379 0.662562,0.2912 0.907955,0.41135 0.12024,0.0589 0.220469,0.11071 0.294556,0.15399 -0.0016,-0.38625 -0.01092,-0.74812 -0.02894,-0.80357 -0.03945,-0.1214 -0.969014,-1.40033 -1.072286,-1.47536 -0.103272,-0.075 -1.60661,-0.56327 -1.734261,-0.56327 z m 0.01395,1.83555 c -0.0016,3.3e-4 -0.0019,1.1e-4 -0.0036,5.1e-4 -0.02466,0.006 -0.06222,0.016 -0.10697,0.03 -0.0512,0.016 -0.114228,0.0373 -0.182418,0.0615 0.02115,0.0885 0.07484,0.14298 0.162264,0.16226 0.09453,0.0209 0.176763,0.002 0.246497,-0.0574 -0.07748,0.20349 -0.172907,0.30967 -0.286805,0.31885 -0.113897,0.009 -0.20415,-0.0425 -0.270784,-0.15503 l -0.125574,0.0749 0.245463,-0.3328 c -0.04308,0.0155 -0.08543,0.0306 -0.133325,0.0486 -0.272592,0.102 -0.614527,0.24073 -0.946712,0.38292 -0.332185,0.14218 -0.655694,0.28795 -0.894003,0.40463 -0.119154,0.0583 -0.217006,0.10948 -0.282153,0.14779 -0.03257,0.0191 -0.05671,0.0354 -0.07028,0.046 -9.88e-4,7.7e-4 -6.89e-4,8.8e-4 -0.0015,0.002 8.11e-4,7.4e-4 5.13e-4,8.5e-4 0.0015,0.002 0.01357,0.0106 0.03771,0.0268 0.07028,0.046 0.06515,0.0383 0.162999,0.0894 0.282153,0.14779 0.238309,0.11667 0.561818,0.26245 0.894003,0.40463 0.259485,0.11107 0.515624,0.21441 0.749308,0.30541 l 0.349849,-0.31781 c 0.02557,0.10174 0.0791,0.16312 0.159681,0.18397 0.08058,0.0208 0.172385,0.002 0.275435,-0.0574 -0.09685,0.18682 -0.204948,0.28893 -0.323494,0.30645 -0.117772,0.0175 -0.226644,-0.03 -0.326595,-0.14263 l -0.106971,0.0388 c 0.05555,0.0215 0.118317,0.047 0.169499,0.0661 0.136296,0.051 0.255184,0.093 0.344682,0.12093 0.04475,0.0139 0.08231,0.0242 0.10697,0.03 0.0017,4e-4 0.002,1.8e-4 0.0036,5.1e-4 0.0016,-3.3e-4 0.0019,-1.1e-4 0.0036,-5.1e-4 0.02466,-0.006 0.06222,-0.016 0.10697,-0.03 0.0895,-0.0279 0.208902,-0.0699 0.345199,-0.12093 0.03815,-0.0143 0.08545,-0.034 0.12609,-0.0496 -0.05598,-0.0209 -0.133759,-0.031 -0.234611,-0.0305 l -0.227893,-0.21032 v -0.6475 l -0.360185,-0.14263 0.360185,-0.16898 v -0.66198 l 0.241846,0.20877 c 0.05036,0.0259 0.115014,0.0247 0.19482,-0.004 -0.08755,0.0676 -0.15324,0.10311 -0.197404,0.10645 v 0.3514 l -0.442867,0.154 0.441833,0.15399 v 0.73277 c 0.08993,0.003 0.174808,0.0519 0.254765,0.14625 0.243039,-0.094 0.515155,-0.20395 0.789616,-0.32143 0.332185,-0.14218 0.656211,-0.28796 0.894519,-0.40463 0.119155,-0.0583 0.217005,-0.10949 0.282153,-0.14779 0.03257,-0.0192 0.05671,-0.0354 0.07028,-0.046 9.87e-4,-7.7e-4 6.89e-4,-8.8e-4 0.0016,-0.002 -8.12e-4,-7.4e-4 -5.14e-4,-8.5e-4 -0.0016,-0.002 -0.01357,-0.0106 -0.0377,-0.0268 -0.07028,-0.046 -0.06515,-0.0383 -0.162998,-0.0895 -0.282153,-0.14779 -0.238308,-0.11668 -0.562334,-0.26245 -0.894519,-0.40463 -0.332185,-0.14219 -0.673603,-0.28092 -0.946195,-0.38292 -0.136297,-0.051 -0.255701,-0.093 -0.345199,-0.12093 -0.04475,-0.0139 -0.08231,-0.0242 -0.10697,-0.03 -0.0017,-4e-4 -0.002,-1.8e-4 -0.0036,-5.1e-4 z m 0.08423,1.19992 -0.001,0.56431 c -0.116222,-0.0592 -0.230007,-0.0624 -0.341581,-0.01 0.03874,-0.0934 0.130804,-0.131 0.276469,-0.11265 v -0.1416 c -0.0891,-0.0409 -0.173667,-0.0291 -0.254248,0.0351 0.01782,-0.0984 0.102384,-0.14616 0.254248,-0.14366 v -0.14521 z m -2.933154,0.045 c 0.0018,0.37797 0.01126,0.72746 0.02894,0.78187 0.03945,0.12141 0.968499,1.40033 1.07177,1.47536 0.103272,0.075 1.60661,0.56327 1.734261,0.56327 0.12765,0 1.630989,-0.48824 1.734261,-0.56327 0.103271,-0.075 1.032839,-1.35395 1.072286,-1.47536 0.01741,-0.0536 0.02638,-0.39355 0.02842,-0.76482 -0.07406,0.0433 -0.173985,0.0952 -0.294039,0.154 -0.245394,0.12014 -0.572008,0.26755 -0.907955,0.41134 -0.335947,0.1438 -0.681001,0.28358 -0.961698,0.38861 -0.140348,0.0525 -0.264063,0.0963 -0.366386,0.12816 -0.05116,0.0159 -0.0965,0.0291 -0.139527,0.0393 -0.04303,0.0101 -0.0759,0.0202 -0.151412,0.0202 -0.07551,0 -0.108384,-0.01 -0.151412,-0.0202 -0.04303,-0.0101 -0.08836,-0.0233 -0.139526,-0.0393 -0.102323,-0.0319 -0.226038,-0.0756 -0.366386,-0.12816 -0.280697,-0.10503 -0.625234,-0.24481 -0.961181,-0.38861 -0.335947,-0.14379 -0.662561,-0.2912 -0.907955,-0.41134 -0.122697,-0.0601 -0.225241,-0.1133 -0.299724,-0.1571 -0.0084,-0.005 -0.01505,-0.009 -0.02274,-0.0139 z" />
  </g>
</svg>
