<?xml version="1.0" encoding="UTF-8" standalone="no"?>
<!-- Created with Inkscape (http://www.inkscape.org/) -->

<svg
   width="5.7147512mm"
   height="6.4037595mm"
   viewBox="0 0 5.7147512 6.4037595"
   version="1.1"
   id="svg1"
   xmlns="http://www.w3.org/2000/svg"
   xmlns:svg="http://www.w3.org/2000/svg">
  <defs
     id="defs1">
    <linearGradient
       id="swatch4">
      <stop
         style="stop-color:#000000;stop-opacity:1;"
         offset="0"
         id="stop4" />
    </linearGradient>
  </defs>
  <g
     id="layer2"
     style="stroke:#ffffff;stroke-opacity:1"
     transform="translate(-111.23927,-173.67258)">
    <path
       id="path63-83-9"
       style="fill:#000000;fill-opacity:1;stroke:none;stroke-width:0.174705;stroke-dasharray:none;stroke-opacity:1"
       d="m 114.09687,173.6726 c -0.13939,0 -2.05539,1.09552 -2.63085,1.48622 0.0438,-0.01 0.0919,-0.0191 0.14987,-0.0274 0.16072,-0.0229 0.37713,-0.0414 0.63303,-0.0563 0.5118,-0.0298 1.17975,-0.0439 1.84795,-0.0439 0.6682,0 1.33666,0.0141 1.84847,0.0439 0.2559,0.0149 0.4718,0.0333 0.63252,0.0563 0.0582,0.008 0.10651,0.0179 0.15038,0.0279 -0.57486,-0.3904 -2.49194,-1.48673 -2.63137,-1.48673 z m 0,1.56632 c -0.66512,0 -1.33026,0.0145 -1.83555,0.0439 -0.25264,0.0147 -0.4658,0.0338 -0.61598,0.0553 -0.0751,0.0107 -0.13438,0.0219 -0.17208,0.0326 -0.003,8.2e-4 -0.003,0.001 -0.006,0.002 6.7e-4,0.003 -3.2e-4,0.003 5.1e-4,0.007 0.01,0.038 0.0296,0.095 0.0579,0.16536 0.0565,0.14078 0.14635,0.33454 0.25993,0.56069 0.22717,0.4523 0.54801,1.03629 0.88057,1.6123 0.33256,0.57601 0.67738,1.14447 0.9555,1.56735 0.13905,0.21144 0.26136,0.38658 0.35502,0.50591 0.0468,0.0597 0.0866,0.10604 0.11472,0.13333 0.002,0.002 0.003,0.002 0.005,0.004 0.002,-0.002 0.002,-0.002 0.005,-0.004 0.0281,-0.0273 0.0689,-0.0737 0.11575,-0.13333 0.0937,-0.11933 0.21596,-0.29447 0.35502,-0.50591 0.27812,-0.42288 0.62345,-0.99134 0.95601,-1.56735 0.33256,-0.57601 0.65186,-1.16 0.87902,-1.6123 0.11358,-0.22615 0.20497,-0.41991 0.26148,-0.56069 0.0282,-0.0704 0.0478,-0.12735 0.0574,-0.16536 8.6e-4,-0.003 3.8e-4,-0.004 0.001,-0.007 -0.003,-8.2e-4 -0.003,-10e-4 -0.006,-0.002 -0.0377,-0.0107 -0.097,-0.0219 -0.17208,-0.0326 -0.15017,-0.0215 -0.36334,-0.0406 -0.61598,-0.0553 -0.50528,-0.0294 -1.17095,-0.0439 -1.83607,-0.0439 z m -2.82308,0.21549 c -0.0537,0.65032 -0.0446,2.94002 0.0263,3.06286 0.0715,0.12378 2.07752,1.29183 2.65049,1.55908 l -0.003,-0.003 c -0.0399,-0.0387 -0.0837,-0.0891 -0.13385,-0.15297 -0.10024,-0.12771 -0.22501,-0.30621 -0.36586,-0.52038 -0.28171,-0.42833 -0.62812,-0.999 -0.96222,-1.57768 -0.3341,-0.57868 -0.65512,-1.16451 -0.88522,-1.62264 -0.11505,-0.22906 -0.2072,-0.42656 -0.26768,-0.57722 -0.0261,-0.065 -0.0452,-0.1192 -0.0589,-0.16795 z m 5.64565,0.002 c 4e-5,5.3e-4 -5e-5,0.002 0,0.002 1.4e-4,-4.9e-4 3.8e-4,-10e-4 5.2e-4,-0.002 z m 0,0.002 c -0.0137,0.048 -0.0318,0.10118 -0.0574,0.16485 -0.0605,0.15067 -0.15316,0.34816 -0.2682,0.57723 -0.2301,0.45813 -0.55059,1.04395 -0.8847,1.62264 -0.3341,0.57867 -0.68103,1.14934 -0.96274,1.57768 -0.14085,0.21416 -0.26511,0.39267 -0.36535,0.52038 -0.0501,0.0639 -0.0944,0.11421 -0.13436,0.15296 -9e-4,8.2e-4 -0.002,0.002 -0.003,0.002 0.57447,-0.26826 2.57855,-1.43486 2.64997,-1.55856 0.0708,-0.12262 0.0792,-2.4043 0.0258,-3.05925 z m -3.45302,0.37673 c 0.002,0.13093 0.0838,0.20134 0.2465,0.21135 l -0.11059,0.14676 -10e-4,1.38338 0.19793,0.0863 c 0.0496,-0.0567 0.11087,-0.0834 0.18448,-0.0801 -0.0713,0.0367 -0.16748,0.14471 -0.28835,0.32401 l -0.27751,-0.1049 c -0.0356,0.055 -0.11762,0.0851 -0.24546,0.091 0.0961,-0.0459 0.16383,-0.1113 0.20257,-0.19637 l 0.001,-1.49862 c -0.0411,-0.007 -0.0731,-0.0255 -0.0956,-0.0563 l -0.19378,0.0703 z m 1.0542,0.0362 0.50436,0.002 -0.16123,0.23254 -0.46405,0.002 v 0.50281 h 0.0408 v -0.43924 c 0.17356,-0.0592 0.31941,-0.0336 0.43718,0.0765 -0.12862,-0.05 -0.25094,-0.0559 -0.36638,-0.0176 v 0.11989 c 0.0728,-0.0309 0.14213,-0.018 0.20722,0.0387 -0.0845,-0.0258 -0.15376,0.002 -0.20722,0.0817 l -0.0574,0.14004 0.35605,0.001 c 0.11002,0.002 0.20907,-0.04 0.29662,-0.12506 l -0.14676,0.21136 -0.001,0.73949 -0.44493,0.478 -0.31626,-0.20308 c -0.0697,-0.0334 -0.16024,-0.0175 -0.27182,0.0475 0.16349,-0.22184 0.2902,-0.32009 0.38086,-0.29507 l 0.31626,0.2129 0.0661,-0.0615 v -0.82321 h -0.40876 c -0.0937,-0.006 -0.19642,0.003 -0.30799,0.0253 0.0783,-0.0884 0.1336,-0.13464 0.16692,-0.13797 v -0.3266 c -0.0387,0.0134 -0.0969,-0.0263 -0.17519,-0.11885 0.0697,0.0284 0.12766,0.03 0.17415,0.004 z m -0.79737,0.24029 v 1.34256 l -0.0651,0.0589 v -1.31 z m 0.92863,0.71831 v 0.75551 l -0.0708,0.0589 v -0.19017 c -0.062,-0.0425 -0.12327,-0.0473 -0.18449,-0.0139 0.0333,-0.0726 0.0946,-0.11036 0.18449,-0.11369 l 0.001,-0.41651 z" />
  </g>
</svg>
