<?xml version="1.0" encoding="UTF-8" standalone="no"?>
<!-- Created with Inkscape (http://www.inkscape.org/) -->

<svg
   width="6.2024484mm"
   height="6.2023263mm"
   viewBox="0 0 6.2024484 6.2023263"
   version="1.1"
   id="svg1"
   xmlns="http://www.w3.org/2000/svg"
   xmlns:svg="http://www.w3.org/2000/svg">
  <defs
     id="defs1">
    <linearGradient
       id="swatch4">
      <stop
         style="stop-color:#000000;stop-opacity:1;"
         offset="0"
         id="stop4" />
    </linearGradient>
  </defs>
  <g
     id="layer2"
     style="stroke:#ffffff;stroke-opacity:1"
     transform="translate(-41.679506,-113.25563)">
    <path
       id="path829"
       style="display:inline;fill:#000000;fill-opacity:1;stroke:none;stroke-width:1.00307;stroke-dasharray:none;stroke-opacity:1"
       d="m 18.217682,30.549797 c -7.105349,0 -14.2107987,0.259817 -14.7316371,0.780655 -1.041677,1.041677 -1.0416769,28.421597 0,29.463274 1.0416769,1.041677 28.4215971,1.041677 29.4632741,0 1.041677,-1.041677 1.041677,-28.421597 0,-29.463274 -0.520838,-0.520838 -7.626288,-0.780655 -14.731637,-0.780655 z m 0.217136,10.313955 c 0.05426,0.40883 0.274171,0.666022 0.661747,0.770316 0.387577,0.104293 0.775652,0.0093 1.163228,-0.28693 -0.0073,0.0145 -0.01343,0.02448 -0.02068,0.03877 0.0071,-0.0053 0.01358,-0.01009 0.02068,-0.01551 -0.492221,0.986197 -0.973431,1.491438 -1.442402,1.514781 -0.468965,0.02084 -0.873858,-0.180976 -1.214927,-0.602294 l -0.400668,0.439442 v 6.157354 l 1.289891,0.801335 v -4.353058 l 0.325704,0.294684 v 3.774029 l -0.320534,0.28693 0.320534,0.199041 0.237815,-0.333459 V 45.46238 c -0.282933,-0.05853 -0.502845,-0.242961 -0.661747,-0.555764 l -1.127039,1.594915 v -0.02327 l 0.0052,-0.581614 1.894769,-2.466043 c 0.08914,0.508951 0.369851,0.815949 0.842694,0.920242 0.472844,0.104294 0.897138,0.0067 1.269211,-0.289514 -0.007,0.01446 -0.01366,0.02452 -0.02068,0.03877 0.0069,-0.0053 0.01384,-0.01007 0.02068,-0.01551 -0.414694,0.850839 -0.785953,1.34028 -1.111529,1.465668 l -0.0052,3.319077 v 0.02327 l -1.786201,2.388495 -2.313531,-1.576821 c -0.255799,-0.165072 -0.607656,-0.168742 -1.057245,-0.01034 0.01763,-0.01438 0.03441,-0.02501 0.0517,-0.03877 -0.01783,0.0059 -0.03355,0.0065 -0.0517,0.01292 0.437961,-0.358769 0.771705,-0.523926 1.000376,-0.498895 v -5.050995 c -0.220917,-0.01657 -0.552072,-0.191901 -0.990037,-0.529915 0.02191,0.0078 0.04316,0.01367 0.06462,0.02068 -0.02238,-0.01684 -0.04165,-0.0288 -0.06462,-0.04653 0.399204,0.141839 0.725187,0.147414 0.977112,0.0181 z"
       transform="matrix(0.1999126,0,0,0.1999126,41.138785,107.14833)" />
  </g>
</svg>
