<?xml version="1.0" encoding="UTF-8" standalone="no"?>
<!-- Created with Inkscape (http://www.inkscape.org/) -->

<svg
   width="5.6704469mm"
   height="5.9009318mm"
   viewBox="0 0 5.6704469 5.9009318"
   version="1.1"
   id="svg1"
   xmlns="http://www.w3.org/2000/svg"
   xmlns:svg="http://www.w3.org/2000/svg">
  <defs
     id="defs1">
    <linearGradient
       id="swatch4">
      <stop
         style="stop-color:#000000;stop-opacity:1;"
         offset="0"
         id="stop4" />
    </linearGradient>
  </defs>
  <g
     id="layer2"
     style="stroke:#ffffff;stroke-opacity:1"
     transform="translate(-103.39267,-195.62113)">
    <path
       id="path237-317-04-8"
       style="fill:#000000;fill-opacity:1;stroke:none;stroke-width:0.200527;stroke-dasharray:none;stroke-opacity:1"
       d="m 106.22762,195.62113 c -0.12765,0 -1.63099,0.48825 -1.73426,0.56328 -0.10327,0.075 -1.03232,1.35396 -1.07177,1.47536 -0.0183,0.0563 -0.0276,0.4279 -0.0289,0.82062 0.008,-0.005 0.0144,-0.009 0.0227,-0.0139 0.0745,-0.0438 0.17703,-0.097 0.29973,-0.1571 0.24539,-0.12015 0.572,-0.26755 0.90795,-0.41134 0.33595,-0.14379 0.68049,-0.28357 0.96118,-0.38861 0.14035,-0.0525 0.26407,-0.0963 0.36639,-0.12816 0.0512,-0.0159 0.0965,-0.0285 0.13953,-0.0387 0.043,-0.0101 0.0759,-0.0207 0.15141,-0.0207 0.0755,0 0.10838,0.0105 0.15141,0.0207 0.043,0.0101 0.0884,0.0228 0.13953,0.0387 0.10232,0.0319 0.22603,0.0756 0.36638,0.12816 0.2807,0.10504 0.62575,0.24482 0.9617,0.38861 0.33595,0.14379 0.66256,0.29119 0.90795,0.41134 0.12024,0.0589 0.22047,0.11072 0.29456,0.154 -0.002,-0.38625 -0.0109,-0.74812 -0.0289,-0.80357 -0.0395,-0.1214 -0.96901,-1.40033 -1.07228,-1.47536 -0.10328,-0.075 -1.60662,-0.56328 -1.73427,-0.56328 z m 0.014,1.83555 c -0.002,3.3e-4 -0.002,1.2e-4 -0.004,5.2e-4 -0.0247,0.006 -0.0622,0.016 -0.10697,0.03 -0.0895,0.0279 -0.20838,0.0699 -0.34468,0.12092 -0.0545,0.0204 -0.12097,0.0472 -0.18035,0.0703 0.0406,0.0429 0.10595,0.0673 0.19637,0.0729 l -0.11059,0.14624 -0.001,1.3839 0.1974,0.0863 c 0.0496,-0.0567 0.1114,-0.0834 0.18501,-0.0801 -0.0671,0.0345 -0.1566,0.13303 -0.26769,0.29404 0.12772,0.0476 0.24058,0.0872 0.32556,0.11368 0.0448,0.0139 0.0823,0.0242 0.10697,0.03 0.002,4e-4 0.002,1.8e-4 0.004,5.1e-4 0.002,-3.3e-4 0.002,-1.1e-4 0.004,-5.1e-4 0.0247,-0.006 0.0622,-0.016 0.10697,-0.03 0.0895,-0.0279 0.2089,-0.0699 0.3452,-0.12092 0.0525,-0.0197 0.11653,-0.0461 0.17363,-0.0682 l -0.0584,-0.0434 c -0.0744,0.0742 -0.17317,0.12106 -0.29559,0.14108 0.1015,-0.0642 0.17753,-0.14551 0.22789,-0.24392 v -0.26251 h -0.55655 v -0.0951 l 0.55655,0.001 v -1.06454 c 0.0883,0.0317 0.17651,0.0295 0.26407,-0.007 v 1.06453 l 0.22066,0.001 v 0.0816 l -0.22066,-0.003 v 0.1602 l 0.0915,0.0713 c 0.0349,-0.055 0.0949,-0.0816 0.17931,-0.0791 -0.0373,0.0187 -0.0881,0.0781 -0.15193,0.17725 0.16742,-0.0676 0.34223,-0.14019 0.51574,-0.21446 0.33219,-0.14218 0.6562,-0.28796 0.89451,-0.40463 0.11915,-0.0583 0.21702,-0.10949 0.28216,-0.14779 0.0326,-0.0192 0.0567,-0.0354 0.0703,-0.046 9.9e-4,-7.7e-4 8e-4,-8.8e-4 0.002,-0.002 -8.1e-4,-7.4e-4 -6.2e-4,-3.3e-4 -0.002,-0.002 -0.0136,-0.0106 -0.0377,-0.0268 -0.0703,-0.046 -0.0651,-0.0383 -0.16301,-0.0895 -0.28216,-0.1478 -0.23831,-0.11668 -0.56232,-0.26244 -0.89451,-0.40462 -0.16452,-0.0704 -0.33137,-0.13996 -0.49093,-0.20464 -0.0719,0.0858 -0.15268,0.13031 -0.24236,0.13384 -0.1263,0.005 -0.2287,-0.0278 -0.30696,-0.0987 l -0.13694,0.0625 0.23719,-0.27337 c -0.002,-7.1e-4 -0.004,-0.002 -0.006,-0.003 -0.1363,-0.051 -0.25571,-0.093 -0.3452,-0.12092 -0.0447,-0.0139 -0.0823,-0.0242 -0.10697,-0.03 -0.002,-4e-4 -0.002,-1.9e-4 -0.004,-5.2e-4 z m 0.61133,0.21187 c 0.0285,0.0222 0.0638,0.0379 0.10645,0.0465 0.007,0.001 0.0135,0.002 0.0202,0.003 -0.0433,-0.0171 -0.0853,-0.0336 -0.12661,-0.0496 z m -1.5627,0.13436 c -0.14777,0.0601 -0.29994,0.12339 -0.45113,0.18811 -0.33218,0.14218 -0.65569,0.28794 -0.894,0.40462 -0.11915,0.0583 -0.21702,0.10949 -0.28216,0.1478 -0.0326,0.0191 -0.0567,0.0354 -0.0703,0.046 -9.9e-4,7.7e-4 -8e-4,3.6e-4 -0.002,0.002 8.1e-4,7.4e-4 6.2e-4,8.5e-4 0.002,0.002 0.0136,0.0106 0.0377,0.0268 0.0703,0.046 0.0651,0.0383 0.16301,0.0894 0.28216,0.14779 0.23831,0.11667 0.56182,0.26245 0.894,0.40463 0.20588,0.0881 0.40904,0.17153 0.60358,0.24908 0.008,-0.0126 0.015,-0.0257 0.0212,-0.0393 l 0.001,-1.49862 c -0.0411,-0.007 -0.0731,-0.0255 -0.0956,-0.0563 l -0.19379,0.0703 z m 0.52194,0.0134 v 1.34255 l -0.0651,0.0584 v -1.30948 z m 0.91829,0.12764 c -0.10693,0.04 -0.21089,0.34546 -0.31161,0.91674 -0.14334,0.12927 -0.29618,0.16392 -0.45889,0.10387 0.11855,0.0275 0.24811,-0.13637 0.38912,-0.49248 0.14102,-0.35611 0.26825,-0.5323 0.38138,-0.52813 z m -3.33778,0.75758 c 0.002,0.37797 0.0112,0.72745 0.0289,0.78186 0.0394,0.12141 0.9685,1.40033 1.07177,1.47536 0.10328,0.075 1.60661,0.56328 1.73426,0.56328 0.12766,0 1.63099,-0.48825 1.73427,-0.56328 0.10327,-0.075 1.03284,-1.35395 1.07228,-1.47536 0.0174,-0.0536 0.0264,-0.39354 0.0284,-0.76481 -0.074,0.0433 -0.17398,0.0952 -0.29404,0.154 -0.24539,0.12014 -0.572,0.26755 -0.90795,0.41134 -0.33595,0.1438 -0.681,0.28358 -0.9617,0.38861 -0.14035,0.0525 -0.26406,0.0963 -0.36638,0.12815 -0.0512,0.0159 -0.0965,0.0291 -0.13953,0.0393 -0.043,0.0101 -0.0759,0.0202 -0.15141,0.0202 -0.0755,0 -0.10839,-0.01 -0.15141,-0.0202 -0.043,-0.0101 -0.0884,-0.0233 -0.13953,-0.0393 -0.10232,-0.0319 -0.22604,-0.0756 -0.36639,-0.12815 -0.0677,-0.0253 -0.14762,-0.0579 -0.22169,-0.0868 -0.0298,0.006 -0.0633,0.0102 -0.10128,0.0119 0.0193,-0.009 0.0372,-0.0192 0.0543,-0.03 -0.22074,-0.0869 -0.45464,-0.1819 -0.69247,-0.2837 -0.33595,-0.14379 -0.66256,-0.2912 -0.90795,-0.41134 -0.1227,-0.0601 -0.22524,-0.1133 -0.29973,-0.1571 -0.008,-0.005 -0.0151,-0.009 -0.0227,-0.0139 z" />
  </g>
</svg>
