<?xml version="1.0" encoding="UTF-8" standalone="no"?>
<!-- Created with Inkscape (http://www.inkscape.org/) -->

<svg
   width="7.2042117mm"
   height="6.3608513mm"
   viewBox="0 0 7.2042117 6.3608513"
   version="1.1"
   id="svg1"
   xmlns="http://www.w3.org/2000/svg"
   xmlns:svg="http://www.w3.org/2000/svg">
  <defs
     id="defs1">
    <linearGradient
       id="swatch4">
      <stop
         style="stop-color:#000000;stop-opacity:1;"
         offset="0"
         id="stop4" />
    </linearGradient>
  </defs>
  <g
     id="layer3"
     transform="translate(-40.733434,-134.92922)">
    <path
       id="path280-3-7-8"
       style="fill:#000000;fill-opacity:1;stroke:none;stroke-width:0.250658;stroke-dasharray:none;stroke-opacity:1"
       d="m 44.449483,134.92923 2.607076,4.08864 c 0.50569,-0.47548 0.881083,-0.85971 0.881083,-0.93534 0,-0.20955 -2.852539,-2.76497 -3.488159,-3.1533 z m -0.228926,5.2e-4 c -0.63719,0.38995 -3.487126,2.94332 -3.487126,3.15278 0,0.0756 0.375056,0.4595 0.880566,0.93482 z m 0.114721,0.2868 -2.526977,3.961 -0.07286,-0.0465 c 1.00836,0.93865 2.436751,2.15904 2.599841,2.15904 0.16424,0 1.611629,-1.23749 2.621029,-2.17867 l -0.09767,0.062 z m -0.465088,2.31511 c 0.01085,0.0817 0.05481,0.13314 0.132292,0.15399 0.07748,0.0208 0.155063,10e-4 0.232544,-0.0579 -0.0984,0.19681 -0.194602,0.29782 -0.288354,0.30282 -0.09375,0.004 -0.174696,-0.0357 -0.24288,-0.11989 l -0.0801,0.0873 v 1.2361 l 0.322978,0.19999 0.04754,-0.0661 v -0.82166 c -0.05656,-0.0117 -0.100524,-0.0491 -0.132292,-0.11162 l -0.225309,0.31884 10e-4,-0.11627 0.378789,-0.49299 c 0.01782,0.10174 0.07394,0.16312 0.168465,0.18397 0.09453,0.0208 0.178832,0.002 0.253214,-0.0574 -0.0829,0.17014 -0.156607,0.26747 -0.221691,0.29249 l -10e-4,0.66818 -0.357084,0.47801 -0.462504,-0.31523 c -0.05114,-0.0334 -0.121478,-0.0343 -0.211357,-0.003 0.08755,-0.0717 0.154274,-0.10526 0.199988,-0.10026 v -1.0144 c -0.04416,-0.003 -0.110367,-0.0389 -0.197921,-0.10646 0.07981,0.0284 0.144974,0.03 0.195337,0.004 z m 1.116728,0.0264 c 0.0039,0.0709 0.05844,0.13429 0.163814,0.19017 0.10615,0.0559 0.218125,0.047 0.335897,-0.0263 l -0.126607,0.14882 v 1.16737 l -0.224276,0.19741 v -0.66198 c 0.100726,-0.004 0.150895,-0.0508 0.150895,-0.14004 0,-0.0901 -0.05017,-0.13468 -0.150895,-0.13384 v -0.28526 c -0.121646,-0.0333 -0.22276,-0.10691 -0.30334,-0.22117 v 0.5054 c -0.100726,0.003 -0.151412,0.0488 -0.151412,0.13642 0,0.0867 0.05069,0.13246 0.151412,0.13746 v 0.71158 l 0.183451,0.12558 0.344165,-0.3328 -0.0057,0.11731 -0.438217,0.44028 -0.311608,-0.19017 c -0.03564,-0.0167 -0.08684,-0.0176 -0.153479,-0.003 0.06431,-0.055 0.112409,-0.084 0.144177,-0.0873 v -1.35237 c -0.03642,0.0134 -0.09072,-0.0136 -0.162781,-0.0811 0.06431,0.0284 0.118099,0.0295 0.160714,0.004 z m -0.0078,0.53899 c 0.0085,0 0.01719,0.002 0.02532,0.006 0.01627,0.008 0.02636,0.021 0.03101,0.0377 0.0054,0.0159 0.0054,0.0319 0,0.0486 -0.0054,0.0167 -0.01835,0.0294 -0.03927,0.0377 v 0.18759 h 0.102319 c 0.0077,-0.0225 0.01913,-0.0365 0.03462,-0.0424 0.0155,-0.006 0.03075,-0.006 0.04548,0 0.0155,0.005 0.02688,0.0161 0.03462,0.0336 0.0077,0.0175 0.0077,0.0361 0,0.0553 -0.007,0.0183 -0.01861,0.0296 -0.03566,0.0346 -0.01705,0.005 -0.0336,0.004 -0.04909,-0.004 -0.0155,-0.007 -0.02532,-0.0226 -0.02997,-0.046 h -0.101802 l 5.16e-4,0.6413 c 0.02092,0.008 0.03437,0.0211 0.03979,0.0377 0.0054,0.0167 0.0054,0.0334 0,0.0501 -0.0046,0.0159 -0.01525,0.0278 -0.03152,0.0362 -0.01627,0.008 -0.03334,0.009 -0.05116,0.001 -0.01705,-0.008 -0.02791,-0.0214 -0.03256,-0.0398 -0.0046,-0.0183 -0.0034,-0.036 0.0036,-0.0527 0.007,-0.0167 0.0212,-0.0276 0.04289,-0.0326 l -5.17e-4,-0.6413 H 44.85663 c -0.0046,0.0234 -0.01448,0.0385 -0.02997,0.046 -0.0155,0.008 -0.03205,0.009 -0.04909,0.004 -0.01705,-0.005 -0.02946,-0.0163 -0.03721,-0.0346 -0.007,-0.0192 -0.0067,-0.0378 10e-4,-0.0553 0.0077,-0.0175 0.01938,-0.0286 0.03411,-0.0336 0.0155,-0.006 0.03101,-0.006 0.04651,0 0.0155,0.006 0.02688,0.0199 0.03462,0.0424 h 0.110587 v -0.18759 c -0.0217,-0.005 -0.03643,-0.0159 -0.04341,-0.0325 -0.007,-0.0167 -0.0078,-0.0344 -0.0031,-0.0527 0.0046,-0.0183 0.01551,-0.0313 0.03256,-0.0388 0.0089,-0.004 0.01732,-0.006 0.02584,-0.006 z m -1.097608,0.32142 0.06511,0.0589 v 0.75447 l -0.06511,0.0589 z" />
  </g>
</svg>
