<?xml version="1.0" encoding="UTF-8" standalone="no"?>
<!-- Created with Inkscape (http://www.inkscape.org/) -->

<svg
   width="7.2042117mm"
   height="6.3609648mm"
   viewBox="0 0 7.2042117 6.3609648"
   version="1.1"
   id="svg1"
   xmlns="http://www.w3.org/2000/svg"
   xmlns:svg="http://www.w3.org/2000/svg">
  <defs
     id="defs1">
    <linearGradient
       id="swatch4">
      <stop
         style="stop-color:#000000;stop-opacity:1;"
         offset="0"
         id="stop4" />
    </linearGradient>
  </defs>
  <g
     id="layer2"
     style="stroke:#ffffff;stroke-opacity:1"
     transform="translate(-41.163213,-128.15846)">
    <g
       id="g14">
      <path
         id="path34-39-3"
         style="fill:#000000;fill-opacity:1;stroke:none;stroke-width:0.250658;stroke-dasharray:none;stroke-opacity:1"
         d="m 47.486339,132.24711 c 0.505686,-0.47548 0.881083,-0.85971 0.881083,-0.93534 0,-0.20955 -2.852531,-2.76497 -3.488159,-3.1533 z" />
      <path
         id="path257-1"
         style="fill:#000000;fill-opacity:1;stroke:none;stroke-width:0.250658;stroke-dasharray:none;stroke-opacity:1"
         d="m 44.765226,128.44591 -2.526977,3.961 -0.07286,-0.0465 c 1.008369,0.93865 2.436755,2.15904 2.599841,2.15904 0.164241,0 1.611633,-1.2375 2.621029,-2.17868 l -0.09715,0.062 z m 0.05891,2.38228 c 0.01085,0.0818 0.05481,0.13318 0.132292,0.154 0.07748,0.0208 0.155063,0.002 0.232544,-0.0574 -0.0984,0.19697 -0.194602,0.29798 -0.288355,0.30282 -0.09375,0.004 -0.174695,-0.0362 -0.242879,-0.12041 l -0.0801,0.0879 v 1.23559 l 0.322977,0.2005 0.04754,-0.0667 v -0.82166 c -0.05656,-0.0117 -0.100523,-0.0491 -0.132292,-0.11162 l -0.225309,0.31936 0.001,-0.11627 0.378789,-0.49299 c 0.01782,0.10177 0.07394,0.16315 0.168465,0.18397 0.09453,0.0208 0.179349,0.001 0.253731,-0.0579 -0.08291,0.17012 -0.157124,0.26797 -0.222209,0.293 l -10e-4,0.66766 -0.357084,0.47801 -0.462504,-0.31523 c -0.05114,-0.0331 -0.121478,-0.0337 -0.211357,-0.002 0.08756,-0.0716 0.154275,-0.1051 0.199988,-0.10026 v -1.0144 c -0.04416,-0.003 -0.110366,-0.0389 -0.197921,-0.10646 0.0798,0.0286 0.144971,0.03 0.195337,0.004 z m 0.01137,0.8878 0.06511,0.0589 v 0.75448 l -0.06511,0.0584 z" />
      <path
         id="path256-0"
         style="fill:#000000;fill-opacity:1;stroke:none;stroke-width:0.250658;stroke-dasharray:none;stroke-opacity:1"
         d="m 44.650336,128.15899 c -0.637186,0.38995 -3.487126,2.94332 -3.487126,3.15278 0,0.0756 0.375057,0.4595 0.880568,0.93482 z" />
    </g>
  </g>
</svg>
