<?xml version="1.0" encoding="UTF-8" standalone="no"?>
<!-- Created with Inkscape (http://www.inkscape.org/) -->

<svg
   width="5.670455mm"
   height="5.9009318mm"
   viewBox="0 0 5.670455 5.9009318"
   version="1.1"
   id="svg1"
   xmlns="http://www.w3.org/2000/svg"
   xmlns:svg="http://www.w3.org/2000/svg">
  <defs
     id="defs1">
    <linearGradient
       id="swatch4">
      <stop
         style="stop-color:#000000;stop-opacity:1;"
         offset="0"
         id="stop4" />
    </linearGradient>
  </defs>
  <g
     id="layer2"
     style="stroke:#ffffff;stroke-opacity:1"
     transform="translate(-72.519087,-202.33443)">
    <path
       id="path237-317-04-0"
       style="fill:#000000;fill-opacity:1;stroke:none;stroke-width:0.200527;stroke-dasharray:none;stroke-opacity:1"
       d="m 75.354057,202.33442 c -0.127651,0 -1.630989,0.48824 -1.734261,0.56327 -0.103272,0.075 -1.032323,1.35397 -1.071769,1.47537 -0.01829,0.0563 -0.02761,0.4279 -0.02894,0.82062 0.0077,-0.005 0.01437,-0.009 0.02274,-0.014 0.07448,-0.0438 0.177027,-0.097 0.299724,-0.15709 0.245394,-0.12015 0.572008,-0.26756 0.907955,-0.41135 0.279509,-0.11963 0.556982,-0.23176 0.806669,-0.32814 l 0.03772,-0.0512 c 0.002,0.0117 0.0048,0.023 0.0078,0.0336 0.03498,-0.0134 0.07574,-0.0304 0.109037,-0.0429 0.140348,-0.0525 0.264063,-0.0963 0.366386,-0.12816 0.05116,-0.0159 0.0965,-0.0286 0.139526,-0.0388 0.04303,-0.0101 0.0759,-0.0207 0.151412,-0.0207 0.07551,0 0.108384,0.0105 0.151412,0.0207 0.04303,0.0101 0.08836,0.0228 0.139527,0.0388 0.102323,0.0319 0.226038,0.0756 0.366386,0.12816 0.280696,0.10504 0.625751,0.24481 0.961698,0.3886 0.335948,0.14379 0.662561,0.2912 0.907955,0.41135 0.120239,0.0589 0.220469,0.11071 0.294556,0.15399 -0.0016,-0.38625 -0.01092,-0.74811 -0.02894,-0.80356 -0.03945,-0.1214 -0.969014,-1.40034 -1.072286,-1.47537 -0.103272,-0.075 -1.60661,-0.56327 -1.734261,-0.56327 z m 0.01395,1.83555 c -0.0016,3.3e-4 -0.0019,1.1e-4 -0.0036,5.1e-4 -0.02466,0.006 -0.06222,0.016 -0.10697,0.03 -0.0895,0.0279 -0.208386,0.0699 -0.344682,0.12092 -0.06041,0.0226 -0.133626,0.0522 -0.199988,0.078 0.01488,0.007 0.03102,0.0127 0.04858,0.0165 0.09453,0.0208 0.176247,0.002 0.24598,-0.0574 -0.07748,0.20349 -0.172906,0.30967 -0.286804,0.31884 -0.113898,0.009 -0.204151,-0.0424 -0.270785,-0.15503 l -0.125573,0.0749 0.04547,-0.0615 c -0.133171,0.0545 -0.268314,0.11056 -0.403593,0.16846 -0.332185,0.14218 -0.655693,0.28795 -0.894002,0.40463 -0.119154,0.0583 -0.217007,0.10948 -0.282154,0.14779 -0.03257,0.0191 -0.05671,0.0354 -0.07028,0.046 -9.88e-4,7.7e-4 -6.89e-4,8.8e-4 -0.0016,0.002 8.11e-4,7.4e-4 5.13e-4,8.5e-4 0.0016,0.002 0.01357,0.0106 0.03771,0.0268 0.07028,0.046 0.06515,0.0383 0.163,0.0894 0.282154,0.14779 0.238309,0.11667 0.561817,0.26245 0.894002,0.40463 0.13806,0.0591 0.276111,0.11605 0.411861,0.17157 l 0.211357,-0.19224 c 0.02557,0.10175 0.07858,0.16312 0.159163,0.18397 0.08058,0.0208 0.172385,0.002 0.275435,-0.0574 -0.05885,0.11352 -0.121755,0.19549 -0.188619,0.24649 0.02441,0.009 0.05408,0.0217 0.07752,0.0305 0.136296,0.051 0.255184,0.093 0.344682,0.12093 0.04475,0.0139 0.08231,0.0242 0.10697,0.03 0.0017,4e-4 0.002,1.9e-4 0.0036,5.2e-4 0.0016,-3.3e-4 0.0019,-1.2e-4 0.0036,-5.2e-4 0.02466,-0.006 0.06222,-0.016 0.10697,-0.03 0.0895,-0.0279 0.208902,-0.0699 0.345199,-0.12093 0.0059,-0.002 0.01363,-0.005 0.01964,-0.008 l -0.217558,-0.13281 c -0.03564,-0.0167 -0.08684,-0.0176 -0.153479,-0.003 0.06431,-0.055 0.11241,-0.0845 0.144177,-0.0879 v -1.35237 c -0.03642,0.0133 -0.09072,-0.0136 -0.162781,-0.0811 0.06431,0.0283 0.117582,0.0295 0.160197,0.004 l 0.294039,-0.27285 c -0.02663,-0.0102 -0.05874,-0.0235 -0.08423,-0.0331 -0.136297,-0.051 -0.255701,-0.093 -0.345199,-0.12092 -0.04475,-0.0139 -0.08231,-0.0242 -0.10697,-0.03 -0.0017,-4e-4 -0.002,-1.8e-4 -0.0036,-5.1e-4 z m -0.357084,0.19843 0.241846,0.20929 c 0.05036,0.0259 0.115531,0.0242 0.195337,-0.004 -0.08755,0.0676 -0.153756,0.10312 -0.197921,0.10645 v 0.3514 l -0.442867,0.154 0.441834,0.15399 v 0.73278 c 0.109249,0.003 0.211397,0.0745 0.305924,0.2129 -0.04416,-0.0575 -0.149674,-0.0861 -0.31626,-0.0853 l -0.227893,-0.20981 v -0.64802 l -0.360184,-0.14263 0.360184,-0.16898 z m 0.842843,0.12764 v 0.5054 c -0.100726,0.003 -0.151412,0.0489 -0.151412,0.13643 0,0.0867 0.05069,0.13245 0.151412,0.13746 v 0.7121 l 0.183451,0.12505 0.344165,-0.33279 -0.0062,0.1173 -0.284737,0.28629 c 0.215776,-0.0851 0.445685,-0.17792 0.679545,-0.27802 0.332185,-0.14218 0.656211,-0.28796 0.894519,-0.40463 0.119155,-0.0583 0.217005,-0.10949 0.282153,-0.14779 0.03257,-0.0192 0.05671,-0.0354 0.07028,-0.046 9.87e-4,-7.7e-4 6.89e-4,-8.8e-4 0.0016,-0.002 -8.12e-4,-7.4e-4 -5.14e-4,-8.5e-4 -0.0016,-0.002 -0.01357,-0.0106 -0.03771,-0.0268 -0.07028,-0.046 -0.06515,-0.0383 -0.162998,-0.0895 -0.282153,-0.14779 -0.238308,-0.11668 -0.562334,-0.26245 -0.894519,-0.40463 -0.123672,-0.0529 -0.246766,-0.10373 -0.36897,-0.15399 l -0.01964,0.0232 v 1.16737 l -0.224275,0.1974 v -0.66145 c 0.100725,-0.004 0.150895,-0.0508 0.150895,-0.14005 0,-0.0901 -0.05017,-0.13467 -0.150895,-0.13384 v -0.28525 c -0.121646,-0.0334 -0.22276,-0.10744 -0.303341,-0.2217 z m 0.146761,0.30386 c 0.0085,0 0.01667,0.003 0.02481,0.007 0.01627,0.008 0.02687,0.0205 0.03152,0.0372 0.0054,0.0158 0.0054,0.0324 0,0.0491 -0.0054,0.0167 -0.01835,0.0289 -0.03927,0.0372 v 0.18758 h 0.10232 c 0.0077,-0.0225 0.01913,-0.0365 0.03462,-0.0424 0.0155,-0.006 0.03075,-0.006 0.04547,0 0.0155,0.005 0.02688,0.0161 0.03462,0.0336 0.0077,0.0175 0.0077,0.0361 0,0.0553 -0.007,0.0183 -0.01861,0.0301 -0.03566,0.0351 -0.01704,0.005 -0.0336,0.003 -0.04909,-0.004 -0.0155,-0.008 -0.02532,-0.0226 -0.02997,-0.046 h -0.101803 l 5.17e-4,0.64182 c 0.02092,0.008 0.03385,0.0205 0.03927,0.0372 0.0054,0.0167 0.0054,0.0334 0,0.0501 -0.0046,0.0159 -0.01474,0.0278 -0.03101,0.0362 -0.01627,0.008 -0.03334,0.009 -0.05116,0.002 -0.01705,-0.008 -0.02791,-0.022 -0.03256,-0.0403 -0.0046,-0.0183 -0.0034,-0.0355 0.0036,-0.0522 0.007,-0.0167 0.0212,-0.0275 0.04289,-0.0326 l -5.17e-4,-0.64182 H 75.87802 c -0.0046,0.0234 -0.01499,0.0385 -0.03049,0.046 -0.0155,0.007 -0.03153,0.009 -0.04858,0.004 -0.01705,-0.005 -0.02946,-0.0168 -0.03721,-0.0351 -0.007,-0.0192 -0.0067,-0.0378 10e-4,-0.0553 0.0077,-0.0175 0.01887,-0.0286 0.03359,-0.0336 0.0155,-0.006 0.03101,-0.006 0.04651,0 0.0155,0.006 0.02739,0.0198 0.03514,0.0424 h 0.110587 v -0.18758 c -0.02169,-0.005 -0.03643,-0.0159 -0.04341,-0.0326 -0.007,-0.0167 -0.0077,-0.0338 -0.0031,-0.0522 0.0046,-0.0183 0.01551,-0.0312 0.03256,-0.0388 0.0089,-0.004 0.01731,-0.007 0.02584,-0.007 z m -1.024227,0.56173 -0.0016,0.5643 c -0.116222,-0.0592 -0.230008,-0.0624 -0.341581,-0.01 0.03874,-0.0934 0.130803,-0.131 0.276468,-0.11265 v -0.14159 c -0.0891,-0.0409 -0.173667,-0.0291 -0.254248,0.0351 0.01782,-0.0984 0.102385,-0.14617 0.254248,-0.14367 v -0.14521 z m -2.457214,0.0532 c 0.0018,0.37797 0.01126,0.72746 0.02894,0.78187 0.03945,0.12141 0.968497,1.40033 1.071769,1.47536 0.103271,0.075 1.60661,0.56327 1.734261,0.56327 0.127651,0 1.630989,-0.48824 1.734261,-0.56327 0.103271,-0.075 1.03284,-1.35395 1.072286,-1.47536 0.01741,-0.0536 0.02638,-0.39354 0.02842,-0.76481 -0.07406,0.0433 -0.173985,0.0952 -0.294039,0.15399 -0.245394,0.12014 -0.572008,0.26756 -0.907955,0.41135 -0.335947,0.1438 -0.681001,0.28357 -0.961698,0.3886 -0.140348,0.0525 -0.264063,0.0963 -0.366386,0.12816 -0.05116,0.0159 -0.0965,0.0291 -0.139527,0.0393 -0.04303,0.0101 -0.0759,0.0202 -0.151412,0.0202 -0.07551,0 -0.108384,-0.01 -0.151412,-0.0202 -0.04303,-0.0101 -0.08836,-0.0233 -0.139526,-0.0393 -0.102323,-0.0319 -0.226038,-0.0756 -0.366386,-0.12816 -0.134812,-0.0504 -0.285593,-0.10953 -0.441833,-0.1726 l -0.06821,0.0243 0.03979,-0.0362 c -0.160088,-0.0649 -0.326457,-0.13372 -0.490926,-0.20412 -0.335947,-0.14379 -0.662561,-0.29121 -0.907955,-0.41135 -0.122697,-0.0601 -0.225241,-0.1133 -0.299724,-0.1571 -0.0084,-0.005 -0.01505,-0.009 -0.02274,-0.0139 z" />
  </g>
</svg>
