<?xml version="1.0" encoding="UTF-8" standalone="no"?>
<!-- Created with Inkscape (http://www.inkscape.org/) -->

<svg
   width="7.2042117mm"
   height="6.3608513mm"
   viewBox="0 0 7.2042117 6.3608513"
   version="1.1"
   id="svg1"
   xmlns="http://www.w3.org/2000/svg"
   xmlns:svg="http://www.w3.org/2000/svg">
  <defs
     id="defs1">
    <linearGradient
       id="swatch4">
      <stop
         style="stop-color:#000000;stop-opacity:1;"
         offset="0"
         id="stop4" />
    </linearGradient>
  </defs>
  <g
     id="layer3"
     transform="translate(-64.018831,-134.92922)">
    <path
       id="path280-3-7-35"
       style="fill:#000000;fill-opacity:1;stroke:none;stroke-width:0.250658;stroke-dasharray:none;stroke-opacity:1"
       d="m 67.734884,134.92923 2.607076,4.08864 c 0.50569,-0.47548 0.881083,-0.85971 0.881083,-0.93534 0,-0.20955 -2.852539,-2.76497 -3.488159,-3.1533 z m -0.228927,5.2e-4 c -0.63719,0.38995 -3.487126,2.94332 -3.487126,3.15278 0,0.0756 0.375057,0.4595 0.880567,0.93482 z m 0.114722,0.2868 -2.526978,3.961 -0.07286,-0.0465 c 1.00836,0.93865 2.436752,2.15904 2.599842,2.15904 0.16424,0 1.611628,-1.23749 2.621028,-2.17867 l -0.09767,0.062 z m 0.632519,2.32544 c 0.0039,0.0709 0.05844,0.13378 0.163815,0.18965 0.106149,0.0559 0.218124,0.0476 0.335896,-0.0258 l -0.126607,0.14882 v 1.16686 l -0.224276,0.19792 v -0.66198 c 0.100726,-0.004 0.150896,-0.0508 0.150896,-0.14004 0,-0.0901 -0.05017,-0.13467 -0.150896,-0.13384 v -0.28525 c -0.121646,-0.0334 -0.22276,-0.10692 -0.30334,-0.22118 v 0.5054 c -0.100726,0.003 -0.151412,0.0483 -0.151412,0.1359 0,0.0867 0.05069,0.13298 0.151412,0.13798 v 0.71159 l 0.183451,0.12505 0.344165,-0.33279 -0.0057,0.11782 -0.438216,0.44028 -0.311609,-0.19017 c -0.03564,-0.0167 -0.08685,-0.0176 -0.153479,-0.003 0.06431,-0.055 0.112409,-0.084 0.144177,-0.0873 v -1.35237 c -0.03462,0.0127 -0.08563,-0.0114 -0.152446,-0.0718 -0.06085,0.0425 -0.109663,0.0618 -0.14521,0.0579 v 0.9772 c 0.04416,0.003 0.110366,0.0389 0.19792,0.10645 -0.07981,-0.0283 -0.144974,-0.03 -0.195337,-0.004 l -0.418579,0.56792 c -0.05734,-0.0817 -0.124573,-0.13262 -0.202054,-0.15347 -0.07748,-0.0208 -0.155063,-0.002 -0.232544,0.0574 0.0984,-0.19682 0.194601,-0.29711 0.288354,-0.30128 0.09375,-0.005 0.174696,0.0346 0.242879,0.11886 l 0.0801,-0.11266 v -1.19837 l -0.2651,-0.22531 -0.10542,0.0786 v 0.79685 c 0.05656,0.0117 0.108282,0.0618 0.155546,0.14934 l 0.202055,-0.29404 -0.001,0.14108 -0.262516,0.40514 c -0.05656,-0.10174 -0.141901,-0.1626 -0.255798,-0.18345 -0.113898,-0.0208 -0.208288,-0.002 -0.282671,0.0574 0.04416,-0.12843 0.118384,-0.19681 0.222209,-0.20515 v -0.62787 c -0.0922,0.0133 -0.173146,-0.0193 -0.242879,-0.0977 0.09298,0.0108 0.174179,-0.0118 0.243913,-0.0677 l 0.438216,-0.40256 0.381372,0.31523 c 0.05114,0.0334 0.121478,0.0343 0.211356,0.003 -0.01773,0.0145 -0.03411,0.0269 -0.05013,0.0383 0.05769,0.0222 0.106458,0.0217 0.145728,-0.002 z m -1.186491,0.33125 v 0.83457 l -0.06511,-0.0589 v -0.71675 z m 1.17874,0.20774 c 0.0085,0 0.01719,0.002 0.02532,0.006 0.01627,0.008 0.02636,0.021 0.03101,0.0377 0.0054,0.0159 0.0054,0.0319 0,0.0486 -0.0054,0.0167 -0.01835,0.0294 -0.03927,0.0377 v 0.18759 h 0.102319 c 0.0077,-0.0225 0.01913,-0.0371 0.03462,-0.0429 0.0155,-0.006 0.03075,-0.006 0.04547,0 0.0155,0.005 0.02739,0.0166 0.03514,0.0341 0.0077,0.0175 0.0077,0.0356 0,0.0548 -0.007,0.0183 -0.01913,0.0301 -0.03617,0.0351 -0.01705,0.005 -0.0336,0.004 -0.04909,-0.004 -0.0155,-0.008 -0.02532,-0.0232 -0.02997,-0.0465 h -0.101802 l 5.17e-4,0.64182 c 0.02092,0.008 0.03437,0.0211 0.03979,0.0377 0.0054,0.0167 0.0054,0.0334 0,0.0501 -0.0046,0.0159 -0.01525,0.0278 -0.03152,0.0362 -0.01627,0.008 -0.03334,0.009 -0.05116,0.001 -0.01705,-0.008 -0.02791,-0.0214 -0.03256,-0.0398 -0.0046,-0.0183 -0.0034,-0.036 0.0036,-0.0527 0.007,-0.0167 0.0212,-0.0276 0.04289,-0.0326 l -5.17e-4,-0.64182 H 68.12296 c -0.0046,0.0233 -0.01448,0.039 -0.02997,0.0465 -0.0155,0.008 -0.03205,0.009 -0.04909,0.004 -0.01705,-0.005 -0.02946,-0.0168 -0.03721,-0.0351 -0.007,-0.0192 -0.0067,-0.0373 10e-4,-0.0548 0.0077,-0.0175 0.01938,-0.0291 0.03411,-0.0341 0.0155,-0.006 0.03101,-0.006 0.04651,0 0.0155,0.006 0.02687,0.0204 0.03462,0.0429 h 0.110587 v -0.18759 c -0.02169,-0.005 -0.03592,-0.0159 -0.04289,-0.0325 -0.007,-0.0167 -0.0083,-0.0344 -0.0036,-0.0527 0.0046,-0.0184 0.01551,-0.0313 0.03256,-0.0388 0.0089,-0.004 0.01731,-0.006 0.02584,-0.006 z" />
  </g>
</svg>
