<?xml version="1.0" encoding="UTF-8" standalone="no"?>
<!-- Created with Inkscape (http://www.inkscape.org/) -->

<svg
   width="5.7250705mm"
   height="5.6291137mm"
   viewBox="0 0 5.7250705 5.6291137"
   version="1.1"
   id="svg1"
   xmlns="http://www.w3.org/2000/svg"
   xmlns:svg="http://www.w3.org/2000/svg">
  <defs
     id="defs1">
    <linearGradient
       id="swatch4">
      <stop
         style="stop-color:#000000;stop-opacity:1;"
         offset="0"
         id="stop4" />
    </linearGradient>
  </defs>
  <g
     id="layer2"
     style="stroke:#ffffff;stroke-opacity:1"
     transform="translate(-2.9420404,-188.63138)">
    <path
       id="path24-11-10-53"
       style="display:inline;fill:#000000;fill-opacity:1;stroke:none;stroke-width:0.200527;stroke-dasharray:none;stroke-opacity:1"
       d="m 5.8042969,188.63138 c -1.165468,0 -2.3285434,0.0383 -2.6406657,0.11421 l 2.6665039,1.89445 2.5926066,-1.90014 c -0.3440453,-0.0724 -1.4807891,-0.10852 -2.6184448,-0.10852 z m 2.7564209,0.2558 -2.5693522,1.8836 c 0.036603,0.0272 0.075428,0.0602 0.1198893,0.10181 0.099427,0.093 0.2220207,0.22296 0.3612182,0.37827 0.2783947,0.31061 0.6208591,0.72419 0.9508464,1.1436 0.3299874,0.4194 0.6469741,0.84393 0.8743652,1.17615 0.1136955,0.16612 0.2045987,0.30944 0.2645834,0.4191 0.00493,0.009 0.0084,0.0163 0.012919,0.0248 0.127186,-0.88983 0.1224155,-4.44122 -0.014469,-5.12733 z m -5.5159424,0.0202 c -0.1354807,0.74634 -0.1370706,4.35137 -0.00413,5.15163 0.010469,-0.0216 0.022401,-0.0442 0.036174,-0.0693 0.059985,-0.10966 0.1508877,-0.25298 0.2645833,-0.4191 0.227391,-0.33222 0.5443779,-0.75675 0.8743652,-1.17615 0.3299874,-0.41941 0.6729685,-0.83299 0.9513632,-1.1436 0.1391972,-0.15531 0.2612747,-0.28532 0.3607015,-0.37827 0.047897,-0.0448 0.090657,-0.0803 0.1297078,-0.10852 z m 2.7745076,1.98076 c -0.026791,0.0195 -0.063048,0.0504 -0.1069702,0.0915 -0.092033,0.086 -0.2126696,0.21229 -0.3498494,0.36535 -0.2743598,0.30611 -0.6153571,0.71813 -0.9436117,1.13533 -0.3282546,0.4172 -0.6440686,0.83996 -0.868164,1.16737 -0.1120477,0.16371 -0.200791,0.30415 -0.2563151,0.40566 -0.026525,0.0485 -0.0436,0.0864 -0.053227,0.11317 0.036455,0.007 0.090367,0.0154 0.160197,0.0227 0.1475571,0.0155 0.3569369,0.0286 0.6061645,0.0393 0.4984552,0.0213 1.1552665,0.032 1.8117757,0.032 0.6565092,0 1.3138374,-0.0108 1.8122925,-0.032 0.2492276,-0.0106 0.459641,-0.0238 0.6071981,-0.0393 0.07023,-0.007 0.1237606,-0.0155 0.1601969,-0.0227 -0.00963,-0.0268 -0.027734,-0.0647 -0.05426,-0.11317 -0.055524,-0.10151 -0.1442676,-0.24195 -0.2563151,-0.40566 -0.2240955,-0.32741 -0.5404263,-0.75017 -0.8686808,-1.16737 -0.3282547,-0.4172 -0.669252,-0.82922 -0.9436117,-1.13533 -0.1371799,-0.15306 -0.2572996,-0.27932 -0.3493327,-0.36535 -0.043922,-0.0411 -0.080696,-0.072 -0.107487,-0.0915 z m -0.6273518,1.00459 c 0.04339,0.10175 0.1134712,0.1681 0.210323,0.19895 0.096852,0.03 0.2323602,-0.0321 0.4066936,-0.18551 -0.1231956,0.25019 -0.242929,0.38899 -0.3591513,0.41651 -0.1154474,0.0275 -0.2287156,-0.0302 -0.3395141,-0.17364 l -0.1369426,0.0713 z m 0.642338,0.0196 v 0.90588 l -0.5808431,0.5178 v 0.41031 l 0.5333008,-0.001 c 0.072833,-0.17347 0.1811872,-0.28809 0.324528,-0.34313 -0.14644,0.0901 -0.2503985,0.281 -0.3116089,0.57206 l -0.7425903,-0.003 c -0.1332682,0.008 -0.2421403,-0.0163 -0.3265951,-0.0713 0.1503141,0.004 0.2449629,-0.0364 0.2837036,-0.12144 v -0.38396 L 5.60896,192.86058 v -0.60513 c 0.074382,-0.05 0.1493774,-0.16466 0.2253092,-0.34313 z m 0.5276164,0 c 0.00155,0.13093 0.083786,0.20135 0.2464966,0.21135 l -0.1100708,0.14676 -0.00155,1.38338 0.1979207,0.0863 c 0.049588,-0.0567 0.1108775,-0.0834 0.1844849,-0.0801 -0.071283,0.0367 -0.1669667,0.14471 -0.2878378,0.32402 L 6.31331,193.87913 c -0.035641,0.055 -0.1176186,0.0856 -0.245463,0.0915 0.096077,-0.0459 0.1638309,-0.11182 0.2025716,-0.19689 l 0.00103,-1.49861 c -0.041065,-0.007 -0.072615,-0.0255 -0.095085,-0.0563 l -0.1943034,0.0703 z m 0.2568318,0.27647 v 1.34255 l -0.064596,0.0589 v -1.31 z m -1.0366292,0.0827 -0.00103,0.5643 c -0.1162222,-0.0592 -0.2300079,-0.0624 -0.3415812,-0.01 0.038741,-0.0934 0.1308037,-0.13101 0.2764689,-0.11266 v -0.14159 c -0.089104,-0.0409 -0.1736673,-0.0291 -0.2542481,0.0351 0.017821,-0.0984 0.1023844,-0.14668 0.2542481,-0.14418 v -0.14469 z" />
  </g>
</svg>
