<?xml version="1.0" encoding="UTF-8" standalone="no"?>
<!-- Created with Inkscape (http://www.inkscape.org/) -->

<svg
   width="5.7152195mm"
   height="6.4037595mm"
   viewBox="0 0 5.7152195 6.4037595"
   version="1.1"
   id="svg1"
   xmlns="http://www.w3.org/2000/svg"
   xmlns:svg="http://www.w3.org/2000/svg">
  <defs
     id="defs1">
    <linearGradient
       id="swatch4">
      <stop
         style="stop-color:#000000;stop-opacity:1;"
         offset="0"
         id="stop4" />
    </linearGradient>
  </defs>
  <g
     id="layer2"
     style="stroke:#ffffff;stroke-opacity:1"
     transform="translate(-80.60164,-173.6912)">
    <path
       id="path63-83-0"
       style="fill:#000000;fill-opacity:1;stroke:none;stroke-width:0.174705;stroke-dasharray:none;stroke-opacity:1"
       d="m 83.45921,173.69121 c -0.139393,0 -2.055394,1.09551 -2.630847,1.48621 0.04375,-0.01 0.09191,-0.0191 0.149862,-0.0274 0.160719,-0.0229 0.377134,-0.0414 0.633036,-0.0563 0.511803,-0.0298 1.179747,-0.0439 1.847949,-0.0439 0.668203,0 1.336663,0.0141 1.848466,0.0439 0.255901,0.0149 0.471801,0.0333 0.63252,0.0563 0.0582,0.008 0.106504,0.0179 0.150378,0.0279 -0.574861,-0.3904 -2.491932,-1.48673 -2.631364,-1.48673 z m 0,1.56631 c -0.66512,0 -1.330264,0.0145 -1.835547,0.0439 -0.252641,0.0147 -0.465807,0.0338 -0.615983,0.0553 -0.07509,0.0107 -0.134384,0.0217 -0.172082,0.0325 -0.0029,8.2e-4 -0.0031,0.001 -0.0057,0.002 6.7e-4,0.003 -3.12e-4,0.003 5.17e-4,0.007 0.0096,0.038 0.02962,0.095 0.05788,0.16536 0.05651,0.14078 0.14635,0.33454 0.259932,0.56069 0.227165,0.4523 0.548007,1.0363 0.880567,1.61231 0.33256,0.57601 0.677379,1.14446 0.955497,1.56734 0.139059,0.21144 0.261351,0.38659 0.355017,0.50592 0.04683,0.0597 0.0866,0.10603 0.114722,0.13332 0.0022,0.002 0.0031,0.002 0.0052,0.004 0.0021,-0.002 0.0026,-0.002 0.0047,-0.004 0.02812,-0.0273 0.06892,-0.0737 0.115755,-0.13332 0.09367,-0.11933 0.215958,-0.29448 0.355017,-0.50592 0.278117,-0.42288 0.623453,-0.99133 0.956014,-1.56734 0.33256,-0.57601 0.651851,-1.16001 0.879016,-1.61231 0.113582,-0.22615 0.204974,-0.41991 0.261483,-0.56069 0.02826,-0.0704 0.04778,-0.12735 0.05736,-0.16536 8.63e-4,-0.003 3.82e-4,-0.004 10e-4,-0.007 -0.0026,-8.2e-4 -0.0033,-0.001 -0.0062,-0.002 -0.0377,-0.0107 -0.09699,-0.0217 -0.172082,-0.0325 -0.150176,-0.0215 -0.363341,-0.0406 -0.615983,-0.0553 -0.505283,-0.0294 -1.170944,-0.0439 -1.836064,-0.0439 z m -2.823083,0.21549 c -0.05367,0.65032 -0.04457,2.94002 0.02636,3.06286 0.07146,0.12378 2.077521,1.29183 2.650484,1.55908 -0.0011,-0.001 -0.002,-0.002 -0.0031,-0.003 -0.03992,-0.0387 -0.08372,-0.0891 -0.133842,-0.15296 -0.100242,-0.12771 -0.225015,-0.30621 -0.365869,-0.52038 -0.281706,-0.42833 -0.628114,-0.99901 -0.962215,-1.57769 -0.334101,-0.57868 -0.655121,-1.16451 -0.885217,-1.62264 -0.115048,-0.22906 -0.207207,-0.42656 -0.267684,-0.57722 -0.02609,-0.065 -0.04516,-0.1192 -0.05891,-0.16795 z m 5.646167,0.002 c -0.01374,0.0484 -0.03206,0.10208 -0.05788,0.1664 -0.06048,0.15067 -0.153154,0.34815 -0.268201,0.57722 -0.230097,0.45813 -0.550599,1.04395 -0.8847,1.62264 -0.334101,0.57867 -0.681025,1.14934 -0.962732,1.57768 -0.140853,0.21416 -0.265109,0.39267 -0.365352,0.52038 -0.05012,0.0639 -0.09444,0.11422 -0.134359,0.15297 0.577241,-0.27012 2.576052,-1.43346 2.647383,-1.55701 0.07083,-0.12267 0.07927,-2.40641 0.02584,-3.06028 z m -3.318661,0.38189 c 0.0016,0.13093 0.08327,0.20134 0.24598,0.21135 l -0.110071,0.14676 -0.001,1.38338 0.197404,0.0863 c 0.04959,-0.0567 0.111394,-0.0834 0.185001,-0.0801 -0.07128,0.0367 -0.167483,0.14471 -0.288354,0.32401 l -0.278019,-0.1049 c -0.03564,0.055 -0.117102,0.0851 -0.244947,0.0909 0.09608,-0.0459 0.163314,-0.1113 0.202055,-0.19637 l 10e-4,-1.49862 c -0.04107,-0.007 -0.07261,-0.0255 -0.09508,-0.0563 l -0.194303,0.0703 z m 0.854212,0 c 0.0015,0.13093 0.08379,0.20134 0.246496,0.21135 l -0.110587,0.14676 -0.001,1.38338 0.197404,0.0863 c 0.04959,-0.0567 0.111394,-0.0834 0.185002,-0.0801 -0.07128,0.0367 -0.167484,0.14471 -0.288355,0.32401 l -0.278019,-0.1049 c -0.03564,0.055 -0.117102,0.0851 -0.244946,0.0909 0.09608,-0.0459 0.163314,-0.1113 0.202055,-0.19637 l 0.001,-1.49862 c -0.04106,-0.007 -0.07261,-0.0255 -0.09508,-0.0563 l -0.194303,0.0703 z m -0.59738,0.27647 v 1.34255 l -0.06511,0.0589 v -1.31 z m 0.854212,0 v 1.34255 l -0.06511,0.0589 v -1.31 z" />
  </g>
</svg>
