<?xml version="1.0" encoding="UTF-8" standalone="no"?>
<!-- Created with Inkscape (http://www.inkscape.org/) -->

<svg
   width="7.2042122mm"
   height="6.3448324mm"
   viewBox="0 0 7.2042122 6.3448324"
   version="1.1"
   id="svg1"
   xmlns="http://www.w3.org/2000/svg"
   xmlns:svg="http://www.w3.org/2000/svg">
  <defs
     id="defs1">
    <linearGradient
       id="swatch4">
      <stop
         style="stop-color:#000000;stop-opacity:1;"
         offset="0"
         id="stop4" />
    </linearGradient>
  </defs>
  <g
     id="layer2"
     style="stroke:#ffffff;stroke-opacity:1"
     transform="translate(-2.2494755,-158.49161)">
    <path
       id="path34-81-8-39"
       style="fill:#000000;fill-opacity:1;stroke:none;stroke-width:0.934538;stroke-dasharray:none;stroke-opacity:1"
       d="m -131.91632,104.65417 c -2.3529,1.40363 -15.5601,14.66774 -15.5601,15.72955 0,0.37797 1.68841,2.31455 3.95145,4.70072 z m 0.58919,0 11.60183,20.44049 c 2.26799,-2.39094 3.96282,-4.33242 3.96282,-4.71094 0,-1.0624 -13.22242,-14.33822 -15.56465,-15.72955 z m -0.29346,1.31569 -10.8261,19.07371 10.8443,5.49014 10.78742,-5.51569 z m -0.0478,9.07445 c 0.007,0.6473 0.36656,0.99541 1.08284,1.04489 l -0.48455,0.72554 -0.007,6.83905 0.87128,0.42664 c 0.21829,-0.28036 0.4881,-0.41248 0.81213,-0.39599 -0.3138,0.18142 -0.73501,0.71539 -1.26711,1.60183 l -1.22387,-0.51861 c -0.1569,0.27211 -0.5155,0.42077 -1.07829,0.44963 0.42294,-0.22676 0.71893,-0.55026 0.88947,-0.9708 l 0.005,-7.40876 c -0.18077,-0.033 -0.31966,-0.12591 -0.41857,-0.27846 l -0.85536,0.34744 z m 1.13061,1.36678 v 6.63722 l -0.28664,0.28869 v -6.47372 z m 9.94117,9.59306 -10.58496,5.40584 v 4.61131 c 1.59352,-1.06445 6.67984,-5.96255 10.58496,-10.01715 z m -21.99342,0.0511 c 3.89084,4.03627 8.92763,8.89093 10.52354,9.96349 v -4.62919 z"
       transform="matrix(0.22716232,0,0,0.20227649,35.750561,137.32254)" />
  </g>
</svg>
