<?xml version="1.0" encoding="UTF-8" standalone="no"?>
<!-- Created with Inkscape (http://www.inkscape.org/) -->

<svg
   width="7.2042117mm"
   height="6.3448324mm"
   viewBox="0 0 7.2042117 6.3448324"
   version="1.1"
   id="svg1"
   xmlns="http://www.w3.org/2000/svg"
   xmlns:svg="http://www.w3.org/2000/svg">
  <defs
     id="defs1">
    <linearGradient
       id="swatch4">
      <stop
         style="stop-color:#000000;stop-opacity:1;"
         offset="0"
         id="stop4" />
    </linearGradient>
  </defs>
  <g
     id="layer2"
     style="stroke:#ffffff;stroke-opacity:1"
     transform="translate(-64.478235,-158.44562)">
    <path
       id="path34-81-8-39-2-3"
       style="fill:#000000;fill-opacity:1;stroke:none;stroke-width:0.200326;stroke-dasharray:none;stroke-opacity:1"
       d="m 68.012903,158.44563 c -0.534491,0.28392 -3.534668,2.96693 -3.534668,3.18171 0,0.0765 0.383541,0.46819 0.897619,0.95085 z m 0.133842,0 2.635498,4.13463 c 0.515202,-0.48363 0.900203,-0.87636 0.900203,-0.95292 0,-0.2149 -3.003634,-2.90028 -3.535701,-3.18171 z m -0.06666,0.26613 -2.459281,3.85816 2.463415,1.11053 2.450497,-1.1157 z m 0.04496,1.87327 0.381372,0.31523 c 0.05114,0.0334 0.121478,0.0343 0.211356,0.003 -0.08755,0.0717 -0.154273,0.10526 -0.199987,0.10025 v 0.97669 c 0.04416,0.003 0.110366,0.0389 0.19792,0.10645 -0.07981,-0.0283 -0.144974,-0.0295 -0.195337,-0.004 l -0.418579,0.56793 c -0.05734,-0.0817 -0.124573,-0.13315 -0.202055,-0.154 -0.07748,-0.0209 -0.155062,-0.001 -0.232544,0.0579 0.0984,-0.19682 0.194602,-0.29762 0.288355,-0.30179 0.09375,-0.005 0.174696,0.0346 0.242879,0.11885 l 0.0801,-0.11265 v -1.19838 l -0.2651,-0.22531 -0.10542,0.0791 v 0.79685 c 0.05656,0.0117 0.108282,0.0613 0.155546,0.14883 l 0.202055,-0.29404 -0.001,0.14159 -0.262516,0.40515 c -0.05656,-0.10175 -0.141901,-0.16312 -0.255799,-0.18397 -0.113897,-0.0208 -0.207771,-0.001 -0.282153,0.0579 0.04416,-0.12843 0.117867,-0.19681 0.221692,-0.20515 v -0.62839 c -0.0922,0.0134 -0.173146,-0.0193 -0.242879,-0.0977 0.09298,0.0108 0.174179,-0.0113 0.243913,-0.0672 z m -0.104387,0.31936 v 0.83406 l -0.06511,-0.0589 v -0.71676 z m 2.563668,1.85984 -2.404504,1.09347 v 0.93276 c 0.361988,-0.21531 1.517408,-1.20608 2.404504,-2.02623 z m -4.996077,0.0103 c 0.883852,0.81645 2.02802,1.79843 2.390551,2.01538 v -0.93638 z" />
  </g>
</svg>
