<?xml version="1.0" encoding="UTF-8" standalone="no"?>
<!-- Created with Inkscape (http://www.inkscape.org/) -->

<svg
   width="7.2042117mm"
   height="6.3608513mm"
   viewBox="0 0 7.2042117 6.3608513"
   version="1.1"
   id="svg1"
   xmlns="http://www.w3.org/2000/svg"
   xmlns:svg="http://www.w3.org/2000/svg">
  <defs
     id="defs1">
    <linearGradient
       id="swatch4">
      <stop
         style="stop-color:#000000;stop-opacity:1;"
         offset="0"
         id="stop4" />
    </linearGradient>
  </defs>
  <g
     id="layer3"
     transform="translate(-32.846059,-134.92922)">
    <path
       id="path280-3-7-5"
       style="fill:#000000;fill-opacity:1;stroke:none;stroke-width:0.250658;stroke-dasharray:none;stroke-opacity:1"
       d="m 36.562109,134.92923 2.607076,4.08864 c 0.50569,-0.47548 0.881084,-0.85971 0.881084,-0.93534 0,-0.20955 -2.85254,-2.76497 -3.48816,-3.1533 z m -0.228926,5.2e-4 c -0.63719,0.38995 -3.487126,2.94332 -3.487126,3.15278 0,0.0756 0.375057,0.4595 0.880567,0.93482 z m 0.114721,0.2868 -2.526977,3.961 -0.07286,-0.0465 c 1.00836,0.93865 2.436751,2.15904 2.599841,2.15904 0.16424,0 1.611629,-1.23749 2.621029,-2.17867 l -0.09767,0.062 z m 0.65164,2.32131 c 0.0039,0.0709 0.05844,0.13429 0.163815,0.19017 0.106149,0.0559 0.218125,0.047 0.335896,-0.0264 l -0.126607,0.14883 v 1.16685 l -0.224276,0.19793 v -0.66198 c 0.100726,-0.004 0.150896,-0.0508 0.150896,-0.14004 0,-0.0901 -0.05017,-0.13468 -0.150896,-0.13385 v -0.28525 c -0.121646,-0.0334 -0.22276,-0.10692 -0.30334,-0.22117 v 0.50539 c -0.100726,0.003 -0.150895,0.0489 -0.150895,0.13643 0,0.0867 0.05017,0.13245 0.150895,0.13746 v 0.71158 l 0.183451,0.12506 0.344165,-0.33228 -0.0057,0.1173 -0.438216,0.44029 -0.311609,-0.19017 c -0.03564,-0.0167 -0.08685,-0.0176 -0.153479,-0.003 0.06431,-0.055 0.11241,-0.084 0.144177,-0.0873 v -1.35237 c -0.03642,0.0133 -0.09072,-0.0136 -0.162781,-0.0811 0.06431,0.0283 0.118099,0.0295 0.160714,0.004 z m -1.207678,0.0336 0.504879,0.001 -0.161747,0.23306 -0.463538,0.001 v 0.50281 h 0.04031 v -0.43874 c 0.173558,-0.0592 0.31941,-0.0341 0.437182,0.076 -0.128619,-0.05 -0.250938,-0.0559 -0.366386,-0.0176 v 0.1204 c 0.07283,-0.0309 0.142138,-0.018 0.207223,0.0388 -0.08445,-0.0258 -0.15376,0.001 -0.207223,0.0811 l -0.05736,0.14005 0.356051,0.002 c 0.110024,0.002 0.209069,-0.04 0.296623,-0.12506 l -0.146245,0.21136 -0.0016,0.73897 -0.444934,0.47801 -0.31626,-0.20257 c -0.06973,-0.0334 -0.160244,-0.0175 -0.271818,0.0475 0.163486,-0.22184 0.290719,-0.32009 0.381372,-0.29507 l 0.315743,0.21239 0.06666,-0.061 v -0.82321 h -0.409277 c -0.09375,-0.006 -0.196419,0.002 -0.307992,0.0248 0.07826,-0.0884 0.134115,-0.13413 0.167432,-0.13746 v -0.3266 c -0.03874,0.0134 -0.09744,-0.0263 -0.1757,-0.11885 0.06973,0.0283 0.128177,0.0295 0.174666,0.004 z m 1.200444,0.50539 c 0.0085,0 0.01667,0.002 0.0248,0.006 0.01627,0.008 0.02687,0.0211 0.03152,0.0377 0.0054,0.0158 0.0054,0.0319 0,0.0486 -0.0054,0.0167 -0.01887,0.0294 -0.03979,0.0377 v 0.18758 h 0.102319 c 0.0077,-0.0225 0.01964,-0.0365 0.03514,-0.0424 0.0155,-0.006 0.03024,-0.006 0.04496,0 0.0155,0.005 0.02739,0.0161 0.03514,0.0336 0.0077,0.0175 0.0077,0.0361 0,0.0553 -0.007,0.0183 -0.01913,0.0296 -0.03617,0.0346 -0.01705,0.005 -0.03308,0.004 -0.04858,-0.004 -0.0155,-0.008 -0.02584,-0.0232 -0.03049,-0.0465 h -0.101802 l 5.17e-4,0.64182 c 0.02092,0.008 0.03437,0.021 0.03979,0.0377 0.0054,0.0167 0.0054,0.0335 0,0.0501 -0.0046,0.0159 -0.01525,0.0278 -0.03152,0.0362 -0.01627,0.008 -0.03334,0.009 -0.05116,10e-4 -0.01705,-0.008 -0.02791,-0.0215 -0.03256,-0.0398 -0.0046,-0.0183 -0.0034,-0.036 0.0036,-0.0527 0.007,-0.0167 0.0212,-0.0276 0.04289,-0.0326 l -5.17e-4,-0.64182 H 36.96932 c -0.0046,0.0233 -0.01448,0.039 -0.02997,0.0465 -0.0155,0.007 -0.03205,0.009 -0.04909,0.004 -0.01705,-0.005 -0.02946,-0.0163 -0.03721,-0.0346 -0.007,-0.0192 -0.0062,-0.0378 0.0016,-0.0553 0.0077,-0.0175 0.01887,-0.0286 0.03359,-0.0336 0.0155,-0.006 0.03101,-0.006 0.04651,0 0.0155,0.006 0.02688,0.0199 0.03462,0.0424 h 0.110587 v -0.18758 c -0.0217,-0.005 -0.03592,-0.0159 -0.04289,-0.0326 -0.007,-0.0167 -0.0083,-0.0344 -0.0036,-0.0527 0.0046,-0.0183 0.01551,-0.0312 0.03256,-0.0388 0.0089,-0.004 0.01783,-0.006 0.02635,-0.006 z m -1.068669,0.45269 v 0.75603 l -0.07131,0.0584 v -0.19017 c -0.06198,-0.0425 -0.123274,-0.0468 -0.184484,-0.0134 0.03332,-0.0726 0.09461,-0.11086 0.184484,-0.1142 l 0.0016,-0.41651 z" />
  </g>
</svg>
