<?xml version="1.0" encoding="UTF-8" standalone="no"?>
<!-- Created with Inkscape (http://www.inkscape.org/) -->

<svg
   width="7.2042117mm"
   height="6.3609648mm"
   viewBox="0 0 7.2042117 6.3609648"
   version="1.1"
   id="svg1"
   xmlns="http://www.w3.org/2000/svg"
   xmlns:svg="http://www.w3.org/2000/svg">
  <defs
     id="defs1">
    <linearGradient
       id="swatch4">
      <stop
         style="stop-color:#000000;stop-opacity:1;"
         offset="0"
         id="stop4" />
    </linearGradient>
  </defs>
  <g
     id="layer2"
     style="stroke:#ffffff;stroke-opacity:1"
     transform="translate(-48.764959,-128.15846)">
    <g
       id="g15">
      <path
         id="path34-39-24"
         style="fill:#000000;fill-opacity:1;stroke:none;stroke-width:0.250658;stroke-dasharray:none;stroke-opacity:1"
         d="m 55.088085,132.24711 c 0.505686,-0.47548 0.881083,-0.85971 0.881083,-0.93534 0,-0.20955 -2.852531,-2.76497 -3.488159,-3.1533 z" />
      <path
         id="path257-91"
         style="fill:#000000;fill-opacity:1;stroke:none;stroke-width:0.250658;stroke-dasharray:none;stroke-opacity:1"
         d="m 52.366829,128.44591 -2.526977,3.961 -0.07286,-0.0465 c 1.008369,0.93865 2.436755,2.15904 2.599841,2.15904 0.164241,0 1.611633,-1.2375 2.621029,-2.17868 l -0.09715,0.062 z m 0.515214,2.38125 c -0.16581,0.23515 -0.330023,0.36491 -0.491959,0.38912 -0.161162,0.0234 -0.28736,-0.0126 -0.378788,-0.10852 l -0.17415,0.0785 0.276469,-0.3514 c 0.05501,0.08 0.154057,0.12556 0.296623,0.13642 0.142566,0.01 0.299797,-0.0383 0.471805,-0.14417 z m -0.01499,0.0403 c -0.127785,0.29082 -0.229562,0.61585 -0.305407,0.97462 0.106661,0.003 0.223266,-0.0244 0.350366,-0.0816 -0.127365,0.13294 -0.252913,0.20466 -0.377238,0.21498 -0.03617,0.19111 -0.06524,0.39146 -0.08733,0.60099 l 0.197404,0.0863 c 0.04959,-0.0568 0.111394,-0.0836 0.185001,-0.0801 -0.07128,0.0367 -0.167483,0.14471 -0.288354,0.32402 l -0.301274,-0.10542 c -0.108474,0.0993 -0.244241,0.12985 -0.407727,0.0915 0.16736,0.004 0.288904,-0.0613 0.364836,-0.19637 0.06156,-0.27606 0.12202,-0.51912 0.180867,-0.7307 -0.05502,-0.0124 -0.102065,-0.0343 -0.141076,-0.0672 l -0.133842,0.046 0.21394,-0.20877 c 0.02384,0.0366 0.05842,0.0633 0.103353,0.0811 0.121791,-0.41017 0.237375,-0.67897 0.347266,-0.80667 z m -0.525549,1.16686 -0.187069,0.65836 c -0.0953,-0.0517 -0.205985,-0.0178 -0.332279,0.10232 0.06818,-0.15683 0.171366,-0.2313 0.310058,-0.22376 l 0.05013,-0.14521 c -0.07438,-0.035 -0.163342,-0.0164 -0.267168,0.0553 0.05269,-0.10255 0.154319,-0.15803 0.305408,-0.1664 l 0.07338,-0.23048 z" />
      <path
         id="path256-5"
         style="fill:#000000;fill-opacity:1;stroke:none;stroke-width:0.250658;stroke-dasharray:none;stroke-opacity:1"
         d="m 52.252082,128.15899 c -0.637186,0.38995 -3.487126,2.94332 -3.487126,3.15278 0,0.0756 0.375057,0.4595 0.880568,0.93482 z" />
    </g>
  </g>
</svg>
