<?xml version="1.0" encoding="UTF-8" standalone="no"?>
<!-- Created with Inkscape (http://www.inkscape.org/) -->

<svg
   width="6.747303mm"
   height="6.0509062mm"
   viewBox="0 0 6.747303 6.0509062"
   version="1.1"
   id="svg1"
   xmlns="http://www.w3.org/2000/svg"
   xmlns:svg="http://www.w3.org/2000/svg">
  <defs
     id="defs1">
    <linearGradient
       id="swatch4">
      <stop
         style="stop-color:#000000;stop-opacity:1;"
         offset="0"
         id="stop4" />
    </linearGradient>
  </defs>
  <g
     id="layer2"
     style="stroke:#ffffff;stroke-opacity:1"
     transform="translate(-18.054498,-105.93357)">
    <path
       id="path185"
       style="display:inline;fill:#000000;fill-opacity:1;stroke:none;stroke-width:1.69612;stroke-dasharray:none;stroke-opacity:1"
       onmouseover=""
       d="m 40.851092,14.221 c -2.848072,0 -29.905157,46.864057 -28.481121,49.33056 1.424036,2.466503 55.538205,2.466503 56.962242,0 C 70.756249,61.085057 43.699164,14.221 40.851092,14.221 Z m -2.198589,21.583759 c 0.14418,0.860597 0.616647,1.379707 1.416189,1.556059 0.799541,0.176352 1.495118,0.01129 2.084944,-0.489547 -0.655363,1.721195 -1.462496,2.623654 -2.425879,2.701249 -0.963382,0.07759 -1.726767,-0.363357 -2.290378,-1.315657 l -1.062142,0.638159 z m 3.531729,1.153931 2.045606,1.765865 c 0.425985,0.218676 0.972825,0.209242 1.647848,-0.0306 -0.740559,0.57138 -1.296147,0.867829 -1.669703,0.896045 v 2.976618 l -3.745906,1.298173 3.737164,1.302544 v 6.20238 c 0.924061,0.02822 1.78369,0.625485 2.583232,1.796461 -0.373556,-0.486731 -1.261622,-0.72389 -2.670651,-0.716836 l -1.92759,-1.778977 v -5.481174 l -3.046553,-1.206382 3.046553,-1.429301 z m -0.297225,8.400969 -0.0087,4.768709 c -0.983044,-0.50084 -1.945478,-0.527455 -2.889199,-0.08305 0.327681,-0.790057 1.106378,-1.108057 2.338459,-0.952868 v -1.19327 c -0.753667,-0.345649 -1.468932,-0.25031 -2.150509,0.292854 0.150734,-0.832381 0.865999,-1.236287 2.150509,-1.215124 v -1.228238 z m -3.273842,4.423404 c 0.216269,0.860597 0.669047,1.375335 1.350624,1.551687 0.681576,0.176352 1.458085,0.01566 2.329717,-0.485175 -0.819203,1.580113 -1.733512,2.443838 -2.736216,2.591974 -0.99615,0.148136 -1.917024,-0.254082 -2.762441,-1.206383 l -1.464269,0.528886 z"
       transform="matrix(0.11822696,0,0,0.11822696,16.598449,104.25228)" />
  </g>
</svg>
