<?xml version="1.0" encoding="UTF-8" standalone="no"?>
<!-- Created with Inkscape (http://www.inkscape.org/) -->

<svg
   width="6.1489787mm"
   height="6.1489787mm"
   viewBox="0 0 6.1489787 6.1489787"
   version="1.1"
   id="svg1"
   xmlns="http://www.w3.org/2000/svg"
   xmlns:svg="http://www.w3.org/2000/svg">
  <defs
     id="defs1">
    <linearGradient
       id="swatch4">
      <stop
         style="stop-color:#000000;stop-opacity:1;"
         offset="0"
         id="stop4" />
    </linearGradient>
  </defs>
  <g
     id="layer2"
     style="stroke:#ffffff;stroke-opacity:1"
     transform="translate(-18.378206,-166.15265)">
    <path
       id="path225-00-9"
       style="fill:#000000;fill-opacity:1;stroke:none;stroke-width:0.200527;stroke-dasharray:none;stroke-opacity:1"
       d="m 20.17913,166.15265 -0.01499,0.015 0.03669,-0.015 z m 0.108004,0 0.316776,0.7798 1.697054,-10e-4 0.310576,-0.77876 z m 2.434477,0 0.0078,0.003 -0.0031,-0.003 z m 0.07648,0.0718 -0.312643,0.7891 1.187525,1.18804 0.77773,-0.32453 z m -2.696477,0.006 -1.648478,1.64848 0.780314,0.32091 1.185458,-1.18494 z m 0.483175,0.90175 -1.226798,1.22732 v 1.73529 l 1.226798,1.22784 1.735295,-0.001 1.226798,-1.2268 5.17e-4,-1.73529 -1.227315,-1.2268 z m -2.191081,0.80616 -0.0155,0.0155 v 0.0222 z m 6.133476,0.12557 -0.779281,0.32453 v 1.67276 l 0.779281,0.32867 z m -6.148979,0.001 v 2.32699 l 0.779281,-0.33486 v -1.6707 z m 2.790011,0.11783 c 0.01705,0.10174 0.0729,0.1626 0.167432,0.18345 0.09453,0.0208 0.176763,0.002 0.246496,-0.0574 -0.07748,0.20349 -0.172906,0.30967 -0.286804,0.31884 -0.113898,0.009 -0.20415,-0.0424 -0.270785,-0.15503 l -0.125573,0.0749 z m 0.417546,0.1359 0.241845,0.20929 c 0.05036,0.0259 0.115014,0.0242 0.19482,-0.004 -0.08755,0.0676 -0.153239,0.10312 -0.197404,0.10645 v 0.3514 l -0.442867,0.154 0.441834,0.154 v 0.73328 c 0.109249,0.003 0.21088,0.0739 0.305408,0.21239 -0.04416,-0.0575 -0.149158,-0.0861 -0.315743,-0.0853 l -0.227893,-0.20981 v -0.64802 l -0.360185,-0.14263 0.360185,-0.16898 z m -0.03514,0.99374 -0.001,0.56379 c -0.116222,-0.0592 -0.230008,-0.0624 -0.341581,-0.01 0.03874,-0.0934 0.130804,-0.131 0.276469,-0.11265 v -0.14108 c -0.0891,-0.0409 -0.173668,-0.0296 -0.254248,0.0346 0.01782,-0.0984 0.102384,-0.14617 0.254248,-0.14366 v -0.14522 z m -0.387057,0.52245 c 0.02557,0.10175 0.0791,0.16312 0.15968,0.18397 0.08058,0.0208 0.172385,0.002 0.275436,-0.0574 -0.09685,0.18681 -0.204948,0.28893 -0.323495,0.30644 -0.117772,0.0175 -0.226644,-0.03 -0.326595,-0.14263 l -0.173116,0.0625 z m -1.937866,0.41186 -0.769979,0.33177 1.650029,1.65002 0.318326,-0.78393 z m 4.450374,0.003 -1.203544,1.20354 0.330213,0.77205 1.648478,-1.64848 z m -5.297868,0.23254 v 0.0186 l 0.01395,0.014 z m 2.230872,1.03973 -0.316777,0.7798 h 2.326473 L 22.28236,171.5225 Z m -0.44235,0.7674 0.0124,0.0124 h 0.01757 z" />
  </g>
</svg>
