<?xml version="1.0" encoding="UTF-8" standalone="no"?>
<!-- Created with Inkscape (http://www.inkscape.org/) -->

<svg
   width="5.7250829mm"
   height="5.6291137mm"
   viewBox="0 0 5.7250829 5.6291137"
   version="1.1"
   id="svg1"
   xmlns="http://www.w3.org/2000/svg"
   xmlns:svg="http://www.w3.org/2000/svg">
  <defs
     id="defs1">
    <linearGradient
       id="swatch4">
      <stop
         style="stop-color:#000000;stop-opacity:1;"
         offset="0"
         id="stop4" />
    </linearGradient>
  </defs>
  <g
     id="layer2"
     style="stroke:#ffffff;stroke-opacity:1"
     transform="translate(-33.978895,-181.08921)">
    <path
       id="path24-11-10-5"
       style="display:inline;fill:#000000;fill-opacity:1;stroke:none;stroke-width:0.200527;stroke-dasharray:none;stroke-opacity:1"
       d="m 36.841162,181.0892 c -1.165468,0 -2.328544,0.0383 -2.640666,0.11421 l 2.666504,1.89446 2.592607,-1.90014 c -0.344045,-0.0724 -1.48079,-0.10853 -2.618445,-0.10853 z m 2.756421,0.2558 -2.569352,1.88361 c 0.0366,0.0272 0.07543,0.0602 0.119889,0.1018 0.09943,0.093 0.222021,0.22296 0.361218,0.37827 0.278395,0.31061 0.62086,0.72419 0.950847,1.1436 0.329988,0.4194 0.646973,0.84394 0.874365,1.17616 0.113695,0.16612 0.204598,0.30943 0.264583,0.41909 0.0049,0.009 0.0084,0.0163 0.01292,0.0248 0.127186,-0.88983 0.122417,-4.44123 -0.01447,-5.12734 z m -5.515942,0.0202 c -0.135481,0.74634 -0.1371,4.35136 -0.0041,5.15162 0.01047,-0.0216 0.0224,-0.0442 0.03617,-0.0693 0.05998,-0.10966 0.150887,-0.25297 0.264583,-0.41909 0.227391,-0.33222 0.544379,-0.75676 0.874366,-1.17616 0.329987,-0.41941 0.672969,-0.83299 0.951363,-1.1436 0.139198,-0.15531 0.261274,-0.28532 0.360701,-0.37827 0.0479,-0.0448 0.09066,-0.0803 0.129708,-0.10852 z m 2.774507,1.98075 c -0.02679,0.0195 -0.06305,0.0504 -0.10697,0.0915 -0.09203,0.086 -0.212669,0.21229 -0.349849,0.36535 -0.27436,0.30611 -0.615357,0.71814 -0.943612,1.13534 -0.328254,0.4172 -0.644068,0.83996 -0.868164,1.16737 -0.112047,0.16371 -0.200791,0.30415 -0.256315,0.40566 -0.02652,0.0485 -0.0436,0.0864 -0.05323,0.11317 0.03645,0.007 0.09037,0.0154 0.160197,0.0227 0.147557,0.0155 0.356938,0.0286 0.606165,0.0393 0.498455,0.0213 1.155266,0.032 1.811775,0.032 0.656509,0 1.313838,-0.0108 1.812293,-0.032 0.249228,-0.0106 0.459641,-0.0238 0.607198,-0.0393 0.07023,-0.007 0.123761,-0.0155 0.160197,-0.0227 -0.0096,-0.0268 -0.02773,-0.0647 -0.05426,-0.11317 -0.05552,-0.10151 -0.144268,-0.24195 -0.256316,-0.40566 -0.224095,-0.32741 -0.540425,-0.75017 -0.86868,-1.16737 -0.328255,-0.4172 -0.669252,-0.82923 -0.943612,-1.13534 -0.137179,-0.15306 -0.2573,-0.27932 -0.349333,-0.36535 -0.04392,-0.0411 -0.0807,-0.072 -0.107487,-0.0915 z m -0.01033,1.05834 0.504879,0.001 -0.161748,0.23306 -0.463537,0.001 v 0.50281 h 0.04031 v -0.43874 c 0.173558,-0.0592 0.31941,-0.0341 0.437182,0.076 -0.128619,-0.05 -0.250422,-0.0559 -0.365869,-0.0176 v 0.12041 c 0.07283,-0.0309 0.141621,-0.018 0.206706,0.0387 -0.08445,-0.0258 -0.153244,0.001 -0.206706,0.0811 l -0.05788,0.14005 0.356568,0.002 c 0.110023,0.002 0.208552,-0.04 0.296106,-0.12506 l -0.146245,0.21136 -0.0016,0.73897 -0.444934,0.47801 -0.31626,-0.20257 c -0.06973,-0.0334 -0.160244,-0.0175 -0.271818,0.0475 0.163486,-0.22184 0.290719,-0.32009 0.381372,-0.29507 l 0.315743,0.21239 0.06666,-0.061 V 185.3254 H 36.60547 c -0.09375,-0.006 -0.196419,0.002 -0.307992,0.0248 0.07826,-0.0884 0.134115,-0.13413 0.167432,-0.13746 v -0.3266 c -0.03874,0.0134 -0.09744,-0.0263 -0.1757,-0.11885 0.06973,0.0283 0.128177,0.0295 0.174666,0.004 z m 0.131775,0.95808 v 0.75603 l -0.07131,0.0584 v -0.19017 c -0.06198,-0.0425 -0.123274,-0.0468 -0.184484,-0.0134 0.03332,-0.0726 0.09461,-0.11086 0.184484,-0.1142 l 0.0016,-0.41651 z" />
  </g>
</svg>
