<?xml version="1.0" encoding="UTF-8" standalone="no"?>
<!-- Created with Inkscape (http://www.inkscape.org/) -->

<svg
   width="7.2042117mm"
   height="6.3448324mm"
   viewBox="0 0 7.2042117 6.3448324"
   version="1.1"
   id="svg1"
   xmlns="http://www.w3.org/2000/svg"
   xmlns:svg="http://www.w3.org/2000/svg">
  <defs
     id="defs1">
    <linearGradient
       id="swatch4">
      <stop
         style="stop-color:#000000;stop-opacity:1;"
         offset="0"
         id="stop4" />
    </linearGradient>
  </defs>
  <g
     id="layer2"
     style="stroke:#ffffff;stroke-opacity:1"
     transform="translate(-79.857142,-158.45699)">
    <path
       id="path34-81-8-39-2-7"
       style="fill:#000000;fill-opacity:1;stroke:none;stroke-width:0.200326;stroke-dasharray:none;stroke-opacity:1"
       d="m 83.391809,158.45699 c -0.534491,0.28392 -3.534668,2.96694 -3.534668,3.18172 0,0.0765 0.383542,0.46819 0.89762,0.95085 z m 0.133842,0 2.635498,4.13464 c 0.515202,-0.48363 0.900204,-0.87636 0.900204,-0.95292 0,-0.2149 -3.003635,-2.90029 -3.535702,-3.18172 z m -0.06666,0.26614 -2.459281,3.85816 2.463416,1.11053 2.450496,-1.1157 z m -0.49506,1.87017 c 0.0016,0.13093 0.08327,0.20135 0.24598,0.21135 l -0.110071,0.14677 -0.001,1.38337 0.197404,0.0863 c 0.04959,-0.0567 0.111394,-0.0834 0.185001,-0.0801 -0.07128,0.0367 -0.167483,0.1447 -0.288354,0.32401 l -0.278019,-0.10491 c -0.03564,0.055 -0.117102,0.0851 -0.244947,0.0909 0.09608,-0.0459 0.163314,-0.1113 0.202055,-0.19637 l 0.001,-1.49861 c -0.04107,-0.007 -0.07261,-0.0255 -0.09508,-0.0563 l -0.194303,0.0703 z m 0.854212,0 c 0.0015,0.13093 0.08379,0.20135 0.246496,0.21135 l -0.110587,0.14677 -0.001,1.38337 0.197404,0.0863 c 0.04959,-0.0567 0.111394,-0.0834 0.185002,-0.0801 -0.07128,0.0367 -0.167484,0.1447 -0.288355,0.32401 l -0.278019,-0.10491 c -0.03564,0.055 -0.117102,0.0851 -0.244946,0.0909 0.09608,-0.0459 0.163314,-0.1113 0.202055,-0.19637 l 0.001,-1.49861 c -0.04106,-0.007 -0.07261,-0.0255 -0.09508,-0.0563 l -0.194303,0.0703 z m -0.59738,0.27647 v 1.34255 l -0.06511,0.0584 v -1.30949 z m 0.854212,0 v 1.34255 l -0.06511,0.0584 v -1.30949 z m 1.888256,1.90582 -2.404504,1.09348 v 0.93276 c 0.361988,-0.21531 1.517408,-1.20609 2.404504,-2.02624 z m -4.996077,0.0103 c 0.883852,0.81645 2.028021,1.79843 2.390552,2.01538 v -0.93638 z" />
  </g>
</svg>
