<?xml version="1.0" encoding="UTF-8" standalone="no"?>
<!-- Created with Inkscape (http://www.inkscape.org/) -->

<svg
   width="5.7147274mm"
   height="6.4037595mm"
   viewBox="0 0 5.7147274 6.4037595"
   version="1.1"
   id="svg1"
   xmlns="http://www.w3.org/2000/svg"
   xmlns:svg="http://www.w3.org/2000/svg">
  <defs
     id="defs1">
    <linearGradient
       id="swatch4">
      <stop
         style="stop-color:#000000;stop-opacity:1;"
         offset="0"
         id="stop4" />
    </linearGradient>
  </defs>
  <g
     id="layer2"
     style="stroke:#ffffff;stroke-opacity:1"
     transform="translate(-103.4284,-173.68241)">
    <path
       id="path63-83-67"
       style="fill:#000000;fill-opacity:1;stroke:none;stroke-width:0.174705;stroke-dasharray:none;stroke-opacity:1"
       d="m 106.28596,173.68242 c -0.13939,0 -2.05539,1.09552 -2.63085,1.48622 0.0438,-0.01 0.0919,-0.0191 0.14986,-0.0274 0.16072,-0.0229 0.37714,-0.0414 0.63304,-0.0563 0.5118,-0.0298 1.17975,-0.0439 1.84795,-0.0439 0.6682,0 1.33665,0.0141 1.84846,0.0439 0.2559,0.0149 0.4718,0.0333 0.63252,0.0563 0.0582,0.008 0.10651,0.0179 0.15038,0.0279 -0.57486,-0.3904 -2.49193,-1.48673 -2.63136,-1.48673 z m 0,1.56631 c -0.66512,0 -1.33026,0.0145 -1.83555,0.0439 -0.25264,0.0147 -0.4658,0.0338 -0.61598,0.0553 -0.0751,0.0107 -0.13438,0.0218 -0.17208,0.0326 -0.003,8.2e-4 -0.003,0.001 -0.006,0.002 6.7e-4,0.003 -3.2e-4,0.003 5.1e-4,0.007 0.01,0.038 0.0296,0.095 0.0579,0.16537 0.0565,0.14078 0.14635,0.33454 0.25993,0.56069 0.22717,0.4523 0.54801,1.03629 0.88057,1.6123 0.33256,0.57601 0.67738,1.14447 0.9555,1.56735 0.13905,0.21144 0.26135,0.38658 0.35501,0.50591 0.0468,0.0597 0.0866,0.10603 0.11472,0.13332 0.002,0.002 0.003,0.002 0.005,0.004 0.002,-0.002 0.002,-0.002 0.005,-0.004 0.0281,-0.0273 0.0689,-0.0737 0.11576,-0.13332 0.0937,-0.11933 0.21596,-0.29447 0.35502,-0.50591 0.27812,-0.42288 0.62345,-0.99134 0.95601,-1.56735 0.33256,-0.57601 0.65186,-1.16 0.87902,-1.6123 0.11358,-0.22615 0.20497,-0.41991 0.26148,-0.56069 0.0282,-0.0704 0.0483,-0.12736 0.0579,-0.16537 8.6e-4,-0.003 -1.5e-4,-0.004 5.1e-4,-0.007 -0.003,-8.2e-4 -0.003,-0.001 -0.006,-0.002 -0.0377,-0.0107 -0.097,-0.0218 -0.17208,-0.0326 -0.15017,-0.0215 -0.36335,-0.0406 -0.61599,-0.0553 -0.50528,-0.0294 -1.17094,-0.0439 -1.83606,-0.0439 z m -2.82308,0.21601 c -0.0537,0.65086 -0.0445,2.93953 0.0263,3.06235 0.0715,0.12378 2.07751,1.29183 2.65048,1.55908 l -0.003,-0.003 c -0.0399,-0.0387 -0.0837,-0.0891 -0.13384,-0.15296 -0.10024,-0.12771 -0.22502,-0.30621 -0.36587,-0.52038 -0.28171,-0.42833 -0.62811,-0.999 -0.96221,-1.57768 -0.3341,-0.57868 -0.65512,-1.16451 -0.88522,-1.62264 -0.11505,-0.22906 -0.2072,-0.42657 -0.26768,-0.57723 -0.0261,-0.065 -0.0452,-0.1192 -0.0589,-0.16795 z m 5.64565,0.001 c 4e-5,5.3e-4 -5e-5,0.002 0,0.002 1.3e-4,-4.8e-4 3.7e-4,-0.001 5.1e-4,-0.002 z m 0,0.002 c -0.0137,0.048 -0.0318,0.10118 -0.0574,0.16485 -0.0605,0.15067 -0.15316,0.34816 -0.2682,0.57723 -0.2301,0.45813 -0.55059,1.04395 -0.8847,1.62264 -0.3341,0.57867 -0.68102,1.14934 -0.96273,1.57768 -0.14085,0.21416 -0.26511,0.39267 -0.36535,0.52038 -0.0501,0.0639 -0.0944,0.11421 -0.13436,0.15296 -9e-4,8.2e-4 -0.002,0.002 -0.003,0.002 0.57447,-0.26826 2.57855,-1.43486 2.64997,-1.55856 0.0708,-0.12262 0.0792,-2.40431 0.0258,-3.05925 z m -2.27738,0.37621 c 0.0201,0.10174 0.0822,0.16312 0.18603,0.18397 0.1046,0.0208 0.1977,0.002 0.27905,-0.0574 -0.0914,0.17014 -0.20056,0.25752 -0.32763,0.26252 -0.12629,0.005 -0.2287,-0.0278 -0.30695,-0.0987 l -0.13695,0.0625 z m -1.21802,0.009 c 0.002,0.13094 0.0838,0.20187 0.2465,0.21188 l -0.11059,0.14624 -10e-4,1.38338 0.19792,0.0863 c 0.0496,-0.0567 0.11088,-0.0834 0.18448,-0.0801 -0.0713,0.0367 -0.16748,0.1447 -0.28835,0.32401 l -0.2775,-0.1049 c -0.0357,0.055 -0.11762,0.0856 -0.24547,0.0915 0.0961,-0.0459 0.16383,-0.1113 0.20257,-0.19637 l 10e-4,-1.49913 c -0.0411,-0.007 -0.0731,-0.0255 -0.0956,-0.0563 l -0.19379,0.0703 z m 0.25683,0.27647 v 1.34255 l -0.0651,0.0589 v -1.31 z m 1.19735,0.11524 v 1.06453 l 0.22065,0.002 v 0.0811 l -0.22065,-0.003 v 0.1602 l 0.0915,0.0713 c 0.0349,-0.055 0.0949,-0.0816 0.17932,-0.0791 -0.0581,0.0292 -0.14836,0.156 -0.27078,0.38034 l -0.19637,-0.14625 c -0.0744,0.0742 -0.17317,0.12158 -0.29559,0.1416 0.1015,-0.0642 0.17753,-0.14551 0.22789,-0.24392 v -0.26303 h -0.55656 v -0.0951 l 0.55656,0.002 v -1.06454 c 0.0883,0.0317 0.17651,0.0289 0.26407,-0.008 z m -0.27906,0.0124 c -0.10692,0.04 -0.21088,0.34598 -0.31161,0.91726 -0.14334,0.12927 -0.29617,0.16391 -0.45888,0.10387 0.11854,0.0275 0.24811,-0.13688 0.38912,-0.493 0.14102,-0.35611 0.26825,-0.5323 0.38137,-0.52813 z" />
  </g>
</svg>
