<?xml version="1.0" encoding="UTF-8" standalone="no"?>
<!-- Created with Inkscape (http://www.inkscape.org/) -->

<svg
   width="5.670455mm"
   height="5.9009318mm"
   viewBox="0 0 5.670455 5.9009318"
   version="1.1"
   id="svg1"
   xmlns="http://www.w3.org/2000/svg"
   xmlns:svg="http://www.w3.org/2000/svg">
  <defs
     id="defs1">
    <linearGradient
       id="swatch4">
      <stop
         style="stop-color:#000000;stop-opacity:1;"
         offset="0"
         id="stop4" />
    </linearGradient>
  </defs>
  <g
     id="layer2"
     style="stroke:#ffffff;stroke-opacity:1"
     transform="translate(-57.276092,-202.26983)">
    <path
       id="path237-317-04-30"
       style="fill:#000000;fill-opacity:1;stroke:none;stroke-width:0.200527;stroke-dasharray:none;stroke-opacity:1"
       d="m 60.11106,202.26982 c -0.127651,0 -1.630989,0.48825 -1.734261,0.56328 -0.103272,0.075 -1.032324,1.35396 -1.07177,1.47536 -0.01829,0.0563 -0.02761,0.4279 -0.02894,0.82062 0.0077,-0.005 0.01437,-0.009 0.02274,-0.0139 0.07448,-0.0438 0.177026,-0.097 0.299723,-0.1571 0.245394,-0.12015 0.572008,-0.26755 0.907955,-0.41134 0.302163,-0.12933 0.605322,-0.25195 0.868681,-0.35244 l 10e-4,-0.002 c 1.54e-4,3.7e-4 3.62e-4,6.8e-4 5.16e-4,0.001 0.02894,-0.011 0.06319,-0.0253 0.09095,-0.0357 0.140348,-0.0525 0.264064,-0.0963 0.366386,-0.12816 0.05116,-0.0159 0.0965,-0.0285 0.139526,-0.0387 0.04303,-0.0101 0.0759,-0.0207 0.151412,-0.0207 0.07551,0 0.108384,0.0105 0.151412,0.0207 0.04303,0.0101 0.08837,0.0228 0.139527,0.0387 0.102323,0.0319 0.226036,0.0756 0.366385,0.12816 0.01338,0.005 0.03026,0.0119 0.04393,0.017 1.4e-4,6e-5 3.78e-4,-5e-5 5.17e-4,0 0.07906,-0.0521 0.157711,-0.0643 0.236161,-0.0372 -0.03859,-0.0109 -0.0964,0.0104 -0.172599,0.0625 0.124626,0.0477 0.253742,0.0975 0.392741,0.15399 0.0083,-0.004 0.0164,-0.008 0.02481,-0.0129 l -0.0155,0.0171 c 0.148328,0.0603 0.300304,0.12332 0.451652,0.1881 0.335948,0.14379 0.662562,0.29119 0.907955,0.41134 0.12024,0.0589 0.220468,0.11072 0.294555,0.154 -0.0016,-0.38625 -0.01092,-0.74812 -0.02894,-0.80357 -0.03945,-0.1214 -0.969014,-1.40033 -1.072286,-1.47536 -0.103272,-0.075 -1.60661,-0.56328 -1.734261,-0.56328 z m 0.01395,1.83555 c -0.0016,3.3e-4 -0.0019,1.2e-4 -0.0036,5.2e-4 -0.02466,0.006 -0.06222,0.016 -0.10697,0.03 -0.0895,0.0279 -0.208386,0.0699 -0.344682,0.12092 -0.05815,0.0218 -0.128543,0.0507 -0.192236,0.0755 0.03162,0.0261 0.06766,0.0462 0.109037,0.0594 0.09685,0.03 0.232877,-0.0316 0.40721,-0.185 -0.123195,0.25019 -0.242929,0.38899 -0.359151,0.41651 -0.115448,0.0275 -0.228716,-0.0307 -0.339514,-0.17415 l -0.136943,0.0713 0.05633,-0.0848 c -0.159694,0.0647 -0.326923,0.1337 -0.491442,0.20413 -0.332185,0.14218 -0.655694,0.28794 -0.894003,0.40462 -0.119154,0.0583 -0.217006,0.10949 -0.282153,0.1478 -0.03257,0.0191 -0.05671,0.0354 -0.07028,0.046 -9.88e-4,7.7e-4 -6.89e-4,8.8e-4 -0.0016,0.002 8.11e-4,7.4e-4 5.13e-4,8.4e-4 0.0016,0.002 0.01357,0.0106 0.03771,0.0268 0.07028,0.046 0.06515,0.0383 0.162999,0.0894 0.282153,0.1478 0.238309,0.11667 0.561818,0.26245 0.894003,0.40463 0.159151,0.0681 0.320493,0.13504 0.475423,0.19792 v -0.34365 l 0.595312,-0.53382 v -0.60565 c 0.07438,-0.05 0.149378,-0.16414 0.22531,-0.34261 v 0.90589 l -0.580844,0.51779 v 0.41031 l 0.533301,-0.002 c 0.07283,-0.17346 0.180671,-0.28757 0.324011,-0.34261 -0.14644,0.0901 -0.249881,0.28048 -0.311092,0.57154 l -0.17725,-5.2e-4 c 0.07799,0.028 0.150076,0.053 0.207223,0.0708 0.04475,0.0139 0.08231,0.0242 0.10697,0.03 0.0017,4e-4 0.002,1.9e-4 0.0036,5.2e-4 0.0016,-3.3e-4 0.0019,-1.2e-4 0.0036,-5.2e-4 0.02466,-0.006 0.06222,-0.016 0.10697,-0.03 0.086,-0.0268 0.200543,-0.0674 0.330212,-0.11575 l -0.212907,-0.10181 c -0.03874,-0.0167 -0.0946,-0.0176 -0.167431,-0.003 0.07051,-0.055 0.122487,-0.0845 0.156579,-0.0879 v -0.65164 c -0.03952,0.0133 -0.09848,-0.0136 -0.176733,-0.0811 0.06973,0.0283 0.128177,0.0295 0.174666,0.004 l 0.164848,-0.14624 c -0.116997,-0.006 -0.204146,0.002 -0.261483,0.0248 0.07051,-0.0551 0.122746,-0.084 0.156063,-0.0873 v -0.47697 c -0.03874,0.0133 -0.09744,-0.0136 -0.1757,-0.0811 0.06973,0.0283 0.127661,0.0295 0.17415,0.004 l 0.287837,-0.24598 c -0.03346,-0.0128 -0.07318,-0.0295 -0.104903,-0.0413 -0.136297,-0.051 -0.2557,-0.093 -0.345198,-0.12092 -0.04475,-0.0139 -0.08231,-0.0242 -0.10697,-0.03 -0.0017,-4e-4 -0.002,-1.9e-4 -0.0036,-5.2e-4 z m 0.499711,0.30748 v 0.61546 l 0.05943,0.0315 v -0.59066 c -0.01972,-0.0174 -0.03954,-0.0358 -0.05943,-0.0563 z m 0.545187,0.078 v 0.30385 l -0.221175,0.22221 v -0.40772 c -0.06364,-0.0101 -0.128171,-0.0381 -0.193787,-0.0837 v 0.57206 l 0.104386,0.0558 0.310576,-0.30748 -0.0062,0.11731 -0.22996,0.23771 c 0.07283,0.0325 0.135156,0.0543 0.187069,0.0651 0.05269,0.0109 0.115011,-0.005 0.187069,-0.0486 l -0.137976,0.14883 v 0.37878 l -0.24443,0.23513 v -0.60771 l -0.170532,-0.0816 v 0.60926 l -0.0708,0.0589 v -0.70228 l -0.08165,-0.0393 -10e-4,0.76171 0.257865,0.11265 0.310576,-0.30799 -0.0062,0.11782 -0.153479,0.154 c 0.167898,-0.0678 0.342708,-0.14047 0.516765,-0.21497 0.332185,-0.14218 0.656211,-0.28796 0.894519,-0.40463 0.119155,-0.0583 0.217005,-0.1095 0.282153,-0.1478 0.03257,-0.0192 0.05671,-0.0354 0.07028,-0.046 9.87e-4,-7.7e-4 6.88e-4,-8.7e-4 0.0015,-0.002 -8.12e-4,-7.4e-4 -5.13e-4,-8.5e-4 -0.0015,-0.002 -0.01357,-0.0106 -0.03771,-0.0268 -0.07028,-0.046 -0.06515,-0.0383 -0.162998,-0.0895 -0.282153,-0.1478 -0.238308,-0.11668 -0.562334,-0.26244 -0.894519,-0.40462 -0.119814,-0.0513 -0.238531,-0.10001 -0.357084,-0.14883 z m -1.403015,0.0811 -0.001,0.56379 c -0.116222,-0.0592 -0.230008,-0.0624 -0.341581,-0.01 0.03874,-0.0934 0.130804,-0.131 0.276469,-0.11265 v -0.14108 c -0.0891,-0.0409 -0.174184,-0.0296 -0.254765,0.0346 0.01782,-0.0984 0.102901,-0.14616 0.254765,-0.14366 V 204.618 Z m -2.490805,0.77825 c 0.0018,0.37797 0.01126,0.72745 0.02894,0.78186 0.03945,0.12141 0.968498,1.40033 1.07177,1.47536 0.103271,0.075 1.60661,0.56328 1.734261,0.56328 0.127651,0 1.630989,-0.48825 1.734261,-0.56328 0.103271,-0.075 1.032839,-1.35395 1.072286,-1.47536 0.01741,-0.0536 0.02638,-0.39354 0.02842,-0.76481 -0.07406,0.0433 -0.173985,0.0952 -0.294039,0.154 -0.245394,0.12014 -0.572008,0.26755 -0.907955,0.41134 -0.335947,0.1438 -0.681002,0.28358 -0.961699,0.38861 -0.140348,0.0525 -0.264062,0.0963 -0.366385,0.12815 -0.05116,0.0159 -0.0965,0.0291 -0.139527,0.0393 -0.04303,0.0101 -0.0759,0.0202 -0.151412,0.0202 -0.07552,0 -0.108384,-0.01 -0.151412,-0.0202 -0.04303,-0.0101 -0.08837,-0.0233 -0.139526,-0.0393 -0.102323,-0.0319 -0.226038,-0.0756 -0.366386,-0.12815 -0.03846,-0.0144 -0.08542,-0.0335 -0.126091,-0.0491 l -0.100252,-5.1e-4 c -0.133268,0.007 -0.24214,-0.0163 -0.326595,-0.0713 0.07288,0.002 0.132668,-0.006 0.179317,-0.0253 -0.190368,-0.0761 -0.388088,-0.15698 -0.587561,-0.24236 -0.335947,-0.14379 -0.662561,-0.2912 -0.907955,-0.41134 -0.122697,-0.0601 -0.22524,-0.1133 -0.299723,-0.1571 -0.0084,-0.005 -0.01505,-0.009 -0.02274,-0.014 z" />
  </g>
</svg>
