<?xml version="1.0" encoding="UTF-8" standalone="no"?>
<!-- Created with Inkscape (http://www.inkscape.org/) -->

<svg
   width="7.2042117mm"
   height="6.3609648mm"
   viewBox="0 0 7.2042117 6.3609648"
   version="1.1"
   id="svg1"
   xmlns="http://www.w3.org/2000/svg"
   xmlns:svg="http://www.w3.org/2000/svg">
  <defs
     id="defs1">
    <linearGradient
       id="swatch4">
      <stop
         style="stop-color:#000000;stop-opacity:1;"
         offset="0"
         id="stop4" />
    </linearGradient>
  </defs>
  <g
     id="layer2"
     style="stroke:#ffffff;stroke-opacity:1"
     transform="translate(-17.850487,-128.15846)">
    <g
       id="g11">
      <path
         id="path34-39-7"
         style="fill:#000000;fill-opacity:1;stroke:none;stroke-width:0.250658;stroke-dasharray:none;stroke-opacity:1"
         d="m 24.173616,132.24711 c 0.505686,-0.47548 0.881083,-0.85971 0.881083,-0.93534 0,-0.20955 -2.852531,-2.76497 -3.488159,-3.1533 z" />
      <path
         id="path805"
         style="fill:#000000;fill-opacity:1;stroke:none;stroke-width:0.250658;stroke-dasharray:none;stroke-opacity:1"
         d="m 21.452437,128.44591 -2.526977,3.961 -0.07286,-0.0465 c 1.008369,0.93865 2.436755,2.15904 2.599841,2.15904 0.164241,0 1.611633,-1.2375 2.621029,-2.17868 l -0.09715,0.062 z m -0.28422,2.37763 c 0.01705,0.10178 0.0729,0.16315 0.167432,0.18397 0.09453,0.0208 0.176763,0.002 0.246496,-0.0574 -0.07748,0.20346 -0.172906,0.30964 -0.286804,0.31884 -0.113897,0.009 -0.20415,-0.0424 -0.270785,-0.15503 l -0.125573,0.0749 z m 0.417546,0.13591 0.241845,0.20929 c 0.05037,0.0259 0.115017,0.0245 0.19482,-0.004 -0.08755,0.0676 -0.153239,0.10314 -0.197404,0.10646 v 0.3514 l -0.442867,0.15399 0.441834,0.154 v 0.73277 c 0.109249,0.003 0.21088,0.0746 0.305408,0.21291 -0.04416,-0.0575 -0.149159,-0.0861 -0.315743,-0.0853 l -0.227893,-0.20981 v -0.64802 l -0.360185,-0.14262 0.360185,-0.16899 z m -0.03514,0.99374 -0.001,0.5643 c -0.116223,-0.0595 -0.230008,-0.0629 -0.341581,-0.0103 0.03874,-0.0934 0.130803,-0.13047 0.276469,-0.11214 v -0.14159 c -0.0891,-0.0408 -0.173668,-0.0291 -0.254248,0.0351 0.01782,-0.0987 0.102384,-0.14695 0.254248,-0.14418 v -0.1447 z m -0.387057,0.52296 c 0.02557,0.10178 0.0791,0.16315 0.15968,0.18397 0.08058,0.0208 0.172385,0.001 0.275436,-0.0579 -0.09685,0.18682 -0.204948,0.28946 -0.323495,0.30696 -0.117772,0.0175 -0.226644,-0.03 -0.326595,-0.14263 l -0.173116,0.0625 z" />
      <path
         id="path256-3"
         style="fill:#000000;fill-opacity:1;stroke:none;stroke-width:0.250658;stroke-dasharray:none;stroke-opacity:1"
         d="m 21.337613,128.15899 c -0.637186,0.38995 -3.487126,2.94332 -3.487126,3.15278 0,0.0756 0.375057,0.4595 0.880568,0.93482 z" />
    </g>
  </g>
</svg>
