<?xml version="1.0" encoding="UTF-8" standalone="no"?>
<!-- Created with Inkscape (http://www.inkscape.org/) -->

<svg
   width="5.670455mm"
   height="5.9009318mm"
   viewBox="0 0 5.670455 5.9009318"
   version="1.1"
   id="svg1"
   xmlns="http://www.w3.org/2000/svg"
   xmlns:svg="http://www.w3.org/2000/svg">
  <defs
     id="defs1">
    <linearGradient
       id="swatch4">
      <stop
         style="stop-color:#000000;stop-opacity:1;"
         offset="0"
         id="stop4" />
    </linearGradient>
  </defs>
  <g
     id="layer2"
     style="stroke:#ffffff;stroke-opacity:1"
     transform="translate(-2.9026653,-202.25484)">
    <path
       id="path237-317-04"
       style="fill:#000000;fill-opacity:1;stroke:none;stroke-width:0.200527;stroke-dasharray:none;stroke-opacity:1"
       d="m 5.7376343,202.25484 c -0.127651,0 -1.6309893,0.48824 -1.7342611,0.56327 -0.1032718,0.075 -1.0323229,1.35396 -1.0717692,1.47536 -0.018285,0.0563 -0.027606,0.42791 -0.028939,0.82063 0.00769,-0.005 0.014372,-0.009 0.022738,-0.014 0.074483,-0.0438 0.1770264,-0.097 0.2997233,-0.15709 0.2453939,-0.12015 0.5720079,-0.26756 0.907955,-0.41135 0.3359472,-0.14379 0.6804851,-0.28357 0.9611816,-0.38861 0.1403482,-0.0525 0.2640634,-0.0963 0.3663859,-0.12815 0.051161,-0.0159 0.096499,-0.0286 0.1395264,-0.0388 0.043028,-0.0101 0.075897,-0.0207 0.1514119,-0.0207 0.075514,0 0.1083843,0.0105 0.151412,0.0207 0.043028,0.0101 0.088365,0.0228 0.1395263,0.0388 0.1023225,0.0319 0.2260374,0.0756 0.3663859,0.12815 0.2806964,0.10504 0.6257512,0.24482 0.9616984,0.38861 0.3359473,0.14379 0.6625612,0.2912 0.907955,0.41135 0.120239,0.0589 0.2204685,0.11071 0.2945556,0.15399 -0.00156,-0.38625 -0.010921,-0.74812 -0.028939,-0.80357 -0.039446,-0.1214 -0.9690143,-1.40033 -1.072286,-1.47536 -0.1032719,-0.075 -1.6066101,-0.56327 -1.734261,-0.56327 z m 0.013953,1.83554 c -0.00162,3.3e-4 -0.00193,1.2e-4 -0.00362,5.2e-4 -0.024662,0.006 -0.062222,0.016 -0.1069703,0.03 -0.089497,0.0279 -0.2083856,0.0699 -0.3446818,0.12093 -0.028274,0.0106 -0.063856,0.0253 -0.093534,0.0367 0.036499,0.0368 0.080513,0.0636 0.1322917,0.0801 0.096852,0.03 0.2323602,-0.0321 0.4066935,-0.18552 -0.1231956,0.25019 -0.242929,0.38899 -0.3591512,0.41651 -0.1154474,0.0275 -0.2287157,-0.0302 -0.3395142,-0.17363 l -0.1369425,0.0713 0.084233,-0.12609 c -0.2052483,0.0814 -0.4212182,0.16956 -0.6407878,0.26355 -0.332185,0.14218 -0.6556935,0.28795 -0.8940023,0.40463 -0.1191544,0.0583 -0.2170061,0.10948 -0.2821533,0.14779 -0.032574,0.0191 -0.05671,0.0354 -0.07028,0.046 -9.877e-4,7.7e-4 -7.393e-4,8.8e-4 -0.00155,0.002 8.113e-4,7.4e-4 5.629e-4,8.5e-4 0.00155,0.002 0.01357,0.0106 0.037707,0.0268 0.07028,0.046 0.065147,0.0383 0.1629989,0.0894 0.2821533,0.14779 0.2383088,0.11667 0.5618173,0.26245 0.8940023,0.40463 0.1991863,0.0853 0.3963486,0.16573 0.585494,0.24133 0.00424,-0.007 0.0085,-0.0138 0.011886,-0.0212 v -0.38395 l 0.5947957,-0.53434 v -0.60513 c 0.074382,-0.05 0.1498942,-0.16466 0.225826,-0.34313 v 0.90589 l -0.5813599,0.51779 v 0.41031 l 0.5333008,-0.001 c 0.072833,-0.17347 0.1811873,-0.28757 0.324528,-0.34261 -0.14644,0.0901 -0.2503985,0.28048 -0.3116089,0.57154 l -0.3503662,-0.001 c 0.098877,0.0361 0.1896574,0.0678 0.2588989,0.0894 0.044749,0.0139 0.082309,0.0242 0.1069703,0.03 0.00169,4e-4 0.002,1.8e-4 0.00362,5.1e-4 0.00163,-3.3e-4 0.00193,-1.1e-4 0.00362,-5.1e-4 0.024662,-0.006 0.062222,-0.016 0.1069702,-0.03 0.089497,-0.0279 0.2089022,-0.0699 0.3451985,-0.12092 0.030318,-0.0113 0.068339,-0.0271 0.1002523,-0.0393 l -0.061495,-0.0233 c -0.035642,0.055 -0.1171019,0.0856 -0.2449463,0.0915 0.096077,-0.0459 0.1633141,-0.1113 0.2020548,-0.19637 l 0.00103,-1.49913 c -0.041065,-0.007 -0.072615,-0.0255 -0.095085,-0.0563 l -0.1943034,0.0703 0.3100586,-0.30748 c -0.00535,-0.002 -0.012271,-0.005 -0.01757,-0.007 -0.1362963,-0.051 -0.2557011,-0.093 -0.3451985,-0.12093 -0.044749,-0.0139 -0.082309,-0.0242 -0.1069702,-0.03 -0.00169,-4e-4 -0.00199,-1.9e-4 -0.00362,-5.2e-4 z m 0.5694743,0.19586 c 0.036031,0.063 0.1092357,0.0981 0.2201416,0.1049 l -0.1100708,0.14625 -0.00103,1.38337 0.1974039,0.0863 c 0.049588,-0.0567 0.1108775,-0.0834 0.1844849,-0.0801 -0.029553,0.0152 -0.06321,0.0435 -0.1012858,0.0832 0.1451747,-0.0592 0.2944134,-0.12094 0.442867,-0.18448 0.332185,-0.14218 0.6562106,-0.28796 0.8945191,-0.40463 0.1191547,-0.0583 0.2170059,-0.10949 0.2821533,-0.14779 0.032573,-0.0192 0.05671,-0.0354 0.07028,-0.046 9.877e-4,-7.7e-4 7.387e-4,-8.8e-4 0.00155,-0.002 -8.114e-4,-7.4e-4 -5.634e-4,-8.5e-4 -0.00155,-0.002 -0.01357,-0.0106 -0.037705,-0.0268 -0.07028,-0.046 -0.065147,-0.0383 -0.1629986,-0.0895 -0.2821533,-0.14779 -0.2383085,-0.11668 -0.5623341,-0.26245 -0.8945191,-0.40463 -0.290283,-0.12425 -0.5802122,-0.24171 -0.8325073,-0.33848 z m 0.2309937,0.1695 v 1.34255 l -0.065112,0.0589 v -1.31 z m -1.0366293,0.0827 -0.00155,0.56431 c -0.1162222,-0.0592 -0.2300079,-0.0624 -0.3415812,-0.01 0.038741,-0.0934 0.1308037,-0.131 0.2764689,-0.11266 v -0.14159 c -0.089104,-0.0409 -0.1736673,-0.0291 -0.254248,0.0351 0.017821,-0.0984 0.1023843,-0.14616 0.254248,-0.14366 v -0.14521 z m -2.6127604,0.79685 c 0.00183,0.37797 0.011258,0.72745 0.028939,0.78186 0.039446,0.12141 0.9684974,1.40034 1.0717692,1.47537 0.1032718,0.075 1.6066101,0.56327 1.7342611,0.56327 0.1276509,0 1.6309891,-0.48824 1.734261,-0.56327 0.1032717,-0.075 1.0328398,-1.35396 1.072286,-1.47537 0.017412,-0.0536 0.026382,-0.39354 0.028422,-0.76481 -0.074056,0.0433 -0.1739846,0.0952 -0.2940389,0.154 -0.2453938,0.12014 -0.5720077,0.26755 -0.907955,0.41134 -0.3359472,0.1438 -0.681002,0.28358 -0.9616984,0.38861 -0.1403485,0.0525 -0.2640634,0.0963 -0.3663859,0.12816 -0.051161,0.0159 -0.096499,0.0291 -0.1395263,0.0393 -0.043028,0.0101 -0.075897,0.0202 -0.151412,0.0202 -0.075515,0 -0.1083842,-0.01 -0.1514119,-0.0202 -0.043028,-0.0101 -0.088365,-0.0233 -0.1395264,-0.0393 -0.1023225,-0.0319 -0.2260377,-0.0756 -0.3663859,-0.12816 -0.052037,-0.0195 -0.114568,-0.045 -0.1705322,-0.0667 -0.1035879,-0.003 -0.1904217,-0.0267 -0.2604493,-0.0724 0.025184,7e-4 0.048228,-2.6e-4 0.07028,-0.002 -0.1942866,-0.0775 -0.3962743,-0.16012 -0.6004801,-0.24753 -0.3359471,-0.14379 -0.6625611,-0.2912 -0.907955,-0.41134 -0.1226969,-0.0601 -0.2252403,-0.1133 -0.2997233,-0.1571 -0.00837,-0.005 -0.01505,-0.009 -0.022738,-0.0139 z" />
  </g>
</svg>
