<?xml version="1.0" encoding="UTF-8" standalone="no"?>
<!-- Created with Inkscape (http://www.inkscape.org/) -->

<svg
   width="7.2042117mm"
   height="6.3609648mm"
   viewBox="0 0 7.2042117 6.3609648"
   version="1.1"
   id="svg1"
   xmlns="http://www.w3.org/2000/svg"
   xmlns:svg="http://www.w3.org/2000/svg">
  <defs
     id="defs1">
    <linearGradient
       id="swatch4">
      <stop
         style="stop-color:#000000;stop-opacity:1;"
         offset="0"
         id="stop4" />
    </linearGradient>
  </defs>
  <g
     id="layer2"
     style="stroke:#ffffff;stroke-opacity:1"
     transform="translate(-64.478357,-128.15846)">
    <g
       id="g17">
      <path
         id="path34-39-4"
         style="fill:#000000;fill-opacity:1;stroke:none;stroke-width:0.250658;stroke-dasharray:none;stroke-opacity:1"
         d="m 70.801485,132.24711 c 0.505686,-0.47548 0.881083,-0.85971 0.881083,-0.93534 0,-0.20955 -2.852531,-2.76497 -3.488159,-3.1533 z" />
      <path
         id="path257-10"
         style="fill:#000000;fill-opacity:1;stroke:none;stroke-width:0.250658;stroke-dasharray:none;stroke-opacity:1"
         d="m 68.080082,128.44591 -2.526977,3.961 -0.07286,-0.0465 c 1.008369,0.93865 2.436755,2.15904 2.599841,2.15904 0.164241,0 1.611633,-1.2375 2.621029,-2.17868 l -0.09715,0.062 z m 0.04496,2.39003 0.381372,0.31523 c 0.05114,0.0331 0.121478,0.0337 0.211356,0.002 -0.08756,0.0716 -0.154274,0.1051 -0.199987,0.10026 v 0.9772 c 0.04416,0.003 0.110366,0.0389 0.19792,0.10645 -0.0798,-0.0286 -0.144971,-0.03 -0.195337,-0.004 l -0.418579,0.56844 c -0.05734,-0.0818 -0.124573,-0.13318 -0.202055,-0.154 -0.07748,-0.0208 -0.155062,-0.001 -0.232544,0.0579 0.0984,-0.19684 0.194603,-0.29764 0.288355,-0.30179 0.09375,-0.005 0.174695,0.0346 0.242879,0.11886 l 0.0801,-0.11266 v -1.19838 l -0.2651,-0.22479 -0.10542,0.0786 v 0.79685 c 0.05656,0.0117 0.108284,0.0613 0.155546,0.14883 l 0.202055,-0.29404 -0.001,0.14159 -0.262516,0.40515 c -0.05656,-0.10178 -0.141901,-0.16315 -0.255799,-0.18397 -0.113897,-0.0208 -0.207771,-10e-4 -0.282153,0.0579 0.04416,-0.12841 0.117867,-0.19679 0.221692,-0.20516 v -0.62787 c -0.0922,0.0133 -0.173146,-0.0193 -0.242879,-0.0977 0.09298,0.0109 0.174179,-0.0118 0.243913,-0.0677 z m -0.104387,0.31833 v 0.83457 l -0.06511,-0.0589 v -0.71675 z" />
      <path
         id="path256-37"
         style="fill:#000000;fill-opacity:1;stroke:none;stroke-width:0.250658;stroke-dasharray:none;stroke-opacity:1"
         d="m 67.965482,128.15899 c -0.637186,0.38995 -3.487126,2.94332 -3.487126,3.15278 0,0.0756 0.375057,0.4595 0.880568,0.93482 z" />
    </g>
  </g>
</svg>
