<?xml version="1.0" encoding="UTF-8" standalone="no"?>
<!-- Created with Inkscape (http://www.inkscape.org/) -->

<svg
   width="7.2042117mm"
   height="6.3608513mm"
   viewBox="0 0 7.2042117 6.3608513"
   version="1.1"
   id="svg1"
   xmlns="http://www.w3.org/2000/svg"
   xmlns:svg="http://www.w3.org/2000/svg">
  <defs
     id="defs1">
    <linearGradient
       id="swatch4">
      <stop
         style="stop-color:#000000;stop-opacity:1;"
         offset="0"
         id="stop4" />
    </linearGradient>
  </defs>
  <g
     id="layer3"
     transform="translate(-17.373101,-134.92922)">
    <path
       id="path280-3-7-6"
       style="fill:#000000;fill-opacity:1;stroke:none;stroke-width:0.250658;stroke-dasharray:none;stroke-opacity:1"
       d="m 21.089152,134.92923 2.607076,4.08864 c 0.50569,-0.47548 0.881083,-0.85971 0.881083,-0.93534 0,-0.20955 -2.852539,-2.76497 -3.488159,-3.1533 z m -0.228927,5.2e-4 c -0.63719,0.38995 -3.487125,2.94332 -3.487125,3.15278 0,0.0756 0.375056,0.4595 0.880566,0.93482 z m 0.114722,0.2868 -2.526977,3.961 -0.07286,-0.0465 c 1.00836,0.93865 2.436751,2.15904 2.599841,2.15904 0.16424,0 1.611629,-1.23749 2.621029,-2.17867 l -0.09767,0.062 z m -0.760677,2.31562 c 0.01705,0.10175 0.0729,0.16312 0.167432,0.18397 0.09453,0.0208 0.176763,0.001 0.246496,-0.0579 -0.07748,0.2035 -0.173423,0.31019 -0.287321,0.31936 -0.113897,0.009 -0.20415,-0.0424 -0.270784,-0.15502 l -0.125574,0.0749 z m 1.414384,0.0289 c 0.0039,0.0709 0.05844,0.13429 0.163814,0.19017 0.10615,0.0559 0.218125,0.047 0.335897,-0.0264 l -0.126607,0.14882 v 1.16686 l -0.224276,0.19792 v -0.66198 c 0.100726,-0.004 0.151412,-0.0508 0.151412,-0.14004 0,-0.0901 -0.05069,-0.13467 -0.151412,-0.13384 v -0.28525 c -0.121646,-0.0334 -0.22276,-0.10692 -0.303341,-0.22118 v 0.5054 c -0.100725,0.003 -0.150895,0.0489 -0.150895,0.13642 0,0.0867 0.05017,0.13246 0.150895,0.13746 v 0.71159 l 0.183969,0.12505 0.343648,-0.33279 -0.0057,0.11782 -0.438216,0.44028 -0.311609,-0.19017 c -0.03564,-0.0167 -0.08633,-0.0176 -0.152962,-0.003 0.06431,-0.055 0.111893,-0.084 0.143661,-0.0873 v -1.35238 c -0.03642,0.0134 -0.09021,-0.0136 -0.162264,-0.0811 0.06431,0.0284 0.117582,0.0295 0.160197,0.004 z m -0.996838,0.10749 0.241329,0.20877 c 0.05036,0.0259 0.115531,0.0247 0.195336,-0.004 -0.08755,0.0676 -0.153239,0.10312 -0.197404,0.10646 v 0.3514 l -0.442867,0.15399 0.441834,0.15348 v 0.73329 c 0.109249,0.003 0.21088,0.0739 0.305408,0.21239 -0.04416,-0.0575 -0.149675,-0.0856 -0.31626,-0.0847 l -0.227376,-0.21032 v -0.64802 l -0.360702,-0.14263 0.360702,-0.16898 z m 0.989603,0.4315 c 0.0085,0 0.01667,0.002 0.02481,0.006 0.01627,0.008 0.02687,0.021 0.03152,0.0377 0.0054,0.0159 0.0054,0.0319 0,0.0486 -0.0054,0.0167 -0.01887,0.0294 -0.03979,0.0377 l 5.16e-4,0.18759 h 0.101803 c 0.0077,-0.0225 0.01964,-0.0365 0.03514,-0.0424 0.0155,-0.006 0.03024,-0.006 0.04496,0 0.0155,0.005 0.02739,0.0161 0.03514,0.0336 0.0077,0.0175 0.0077,0.0356 0,0.0548 -0.007,0.0183 -0.01913,0.0301 -0.03617,0.0351 -0.01705,0.005 -0.03308,0.004 -0.04858,-0.004 -0.0155,-0.007 -0.02584,-0.0231 -0.03049,-0.0465 h -0.101803 l 0.001,0.64182 c 0.02092,0.008 0.03385,0.0211 0.03927,0.0377 0.0054,0.0167 0.0054,0.0335 0,0.0501 -0.0046,0.0159 -0.01525,0.0278 -0.03152,0.0362 -0.01627,0.008 -0.03334,0.009 -0.05116,0.001 -0.01705,-0.008 -0.02791,-0.0214 -0.03256,-0.0398 -0.0046,-0.0183 -0.0034,-0.036 0.0036,-0.0527 0.007,-0.0167 0.0212,-0.0275 0.04289,-0.0326 l -5.16e-4,-0.64182 h -0.111105 c -0.0046,0.0234 -0.01448,0.039 -0.02997,0.0465 -0.0155,0.008 -0.03153,0.009 -0.04858,0.004 -0.01705,-0.005 -0.02946,-0.0168 -0.03721,-0.0351 -0.007,-0.0192 -0.0067,-0.0373 0.001,-0.0548 0.0077,-0.0175 0.01887,-0.0286 0.03359,-0.0336 0.0155,-0.006 0.03101,-0.006 0.04651,0 0.0155,0.006 0.02687,0.0199 0.03462,0.0424 h 0.110588 v -0.18759 c -0.0217,-0.005 -0.03592,-0.0159 -0.04289,-0.0326 -0.007,-0.0167 -0.0083,-0.0344 -0.0036,-0.0527 0.0046,-0.0183 0.01551,-0.0313 0.03256,-0.0388 0.0089,-0.004 0.01783,-0.006 0.02635,-0.006 z m -1.024743,0.56172 -10e-4,0.56431 c -0.116222,-0.0592 -0.230008,-0.0629 -0.341581,-0.0103 0.03874,-0.0934 0.130804,-0.131 0.276469,-0.11265 v -0.14108 c -0.0891,-0.0409 -0.174184,-0.0291 -0.254765,0.0351 0.01782,-0.0984 0.102901,-0.14668 0.254765,-0.14418 v -0.14521 z m -0.387057,0.52297 c 0.02557,0.10174 0.07858,0.16311 0.159164,0.18396 0.08058,0.0208 0.172385,0.001 0.275435,-0.0579 -0.09685,0.18681 -0.204431,0.28892 -0.322978,0.30644 -0.117772,0.0175 -0.226644,-0.03 -0.326595,-0.14263 l -0.173116,0.0625 z" />
  </g>
</svg>
