<?xml version="1.0" encoding="UTF-8" standalone="no"?>
<!-- Created with Inkscape (http://www.inkscape.org/) -->

<svg
   width="6.1489787mm"
   height="6.1489787mm"
   viewBox="0 0 6.1489787 6.1489787"
   version="1.1"
   id="svg1"
   xmlns="http://www.w3.org/2000/svg"
   xmlns:svg="http://www.w3.org/2000/svg">
  <defs
     id="defs1">
    <linearGradient
       id="swatch4">
      <stop
         style="stop-color:#000000;stop-opacity:1;"
         offset="0"
         id="stop4" />
    </linearGradient>
  </defs>
  <g
     id="layer2"
     style="stroke:#ffffff;stroke-opacity:1"
     transform="translate(-57.074554,-166.13921)">
    <path
       id="path225-00-87"
       style="fill:#000000;fill-opacity:1;stroke:none;stroke-width:0.200527;stroke-dasharray:none;stroke-opacity:1"
       d="m 58.875476,166.13921 -0.01499,0.015 0.03669,-0.015 z m 0.108004,0 0.316776,0.7798 1.697054,-10e-4 0.310576,-0.77877 z m 2.434477,0 0.0078,0.003 -0.0031,-0.003 z m 0.07648,0.0718 -0.312643,0.7891 1.187525,1.18804 0.77773,-0.32452 z m -2.696477,0.006 -1.648478,1.64848 0.780314,0.32142 1.185458,-1.18494 z m 0.483175,0.90175 -1.226798,1.22732 v 1.73529 l 1.226798,1.22783 1.735295,-0.001 1.226798,-1.2268 5.17e-4,-1.73529 -1.227315,-1.2268 z m -2.191081,0.80615 -0.0155,0.0155 v 0.0222 z m 6.133476,0.12558 -0.779281,0.32453 v 1.67276 l 0.779281,0.32918 z m -6.148979,0.001 v 2.32699 l 0.779281,-0.33486 v -1.6707 z m 3.306259,0.0661 c 0.03148,-0.002 0.06267,0.003 0.09405,0.0134 -0.04633,-0.0131 -0.120132,0.0199 -0.220659,0.0977 0.02129,0.0481 0.06473,0.0925 0.132292,0.13281 0.09453,0.0559 0.205985,0.047 0.33383,-0.0264 l -0.138493,0.14883 v 0.30386 l -0.220658,0.22273 v -0.40773 c -0.06366,-0.0101 -0.128667,-0.038 -0.194304,-0.0837 v 0.57206 l 0.104903,0.0558 0.310059,-0.30747 -0.0057,0.1173 -0.22996,0.23771 c 0.07283,0.0325 0.135156,0.0543 0.187069,0.0651 0.05269,0.0108 0.115011,-0.006 0.187069,-0.0491 l -0.138493,0.14935 v 0.37879 l -0.243913,0.23512 v -0.60771 l -0.171049,-0.0822 v 0.60979 l -0.0708,0.0589 v -0.7028 l -0.08113,-0.0393 -0.0016,0.76223 0.258382,0.11266 0.310059,-0.308 -0.0057,0.11783 -0.413928,0.41496 -0.397392,-0.19017 c -0.03874,-0.0167 -0.0946,-0.0171 -0.167431,-0.002 0.07051,-0.055 0.123004,-0.0845 0.157096,-0.0879 v -0.65164 c -0.03952,0.0134 -0.09848,-0.0136 -0.176733,-0.0811 0.06973,0.0284 0.12766,0.0295 0.174149,0.004 l 0.165365,-0.14625 c -0.116997,-0.006 -0.204147,0.002 -0.261483,0.0248 0.07051,-0.055 0.122229,-0.084 0.155546,-0.0873 v -0.47697 c -0.03874,0.0133 -0.09744,-0.0136 -0.1757,-0.0811 0.06973,0.0284 0.128178,0.0295 0.174667,0.004 l 0.32091,-0.27441 c 0.08342,-0.0923 0.166852,-0.14093 0.249598,-0.14572 z m -0.344165,0.28887 v 0.61546 l 0.05943,0.0315 v -0.59066 c -0.01976,-0.0174 -0.03949,-0.0358 -0.05943,-0.0563 z m -2.1146,1.82676 -0.769979,0.33176 1.650029,1.65003 0.318326,-0.78393 z m 4.450374,0.003 -1.203544,1.20354 0.330213,0.77205 1.648478,-1.64848 z m -5.297868,0.23254 v 0.0186 l 0.01395,0.0139 z m 2.230872,1.03973 -0.316777,0.7798 h 2.326473 l -0.336413,-0.77928 z m -0.44235,0.7674 0.0124,0.0124 h 0.01757 z" />
  </g>
</svg>
