<?xml version="1.0" encoding="UTF-8" standalone="no"?>
<!-- Created with Inkscape (http://www.inkscape.org/) -->

<svg
   width="5.6284466mm"
   height="6.2502642mm"
   viewBox="0 0 5.6284466 6.2502642"
   version="1.1"
   id="svg1"
   xmlns="http://www.w3.org/2000/svg"
   xmlns:svg="http://www.w3.org/2000/svg">
  <defs
     id="defs1">
    <linearGradient
       id="swatch4">
      <stop
         style="stop-color:#000000;stop-opacity:1;"
         offset="0"
         id="stop4" />
    </linearGradient>
  </defs>
  <g
     id="layer2"
     style="stroke:#ffffff;stroke-opacity:1"
     transform="translate(-10.804929,-120.80967)">
    <g
       id="g2">
      <path
         id="path210"
         style="fill:#000000;fill-opacity:1;stroke:none;stroke-width:1.34695;stroke-dasharray:none;stroke-opacity:1"
         d="m 22.592438,74.554454 c -0.01874,0.01703 -0.02431,0.01798 -0.04513,0.03818 -0.187928,0.182396 -0.455599,0.488266 -0.767122,0.885141 -0.623044,0.793751 -1.436092,1.96163 -2.360374,3.367004 -1.848565,2.810748 -4.145472,6.588739 -6.355655,10.416888 -2.210184,3.828151 -4.3355021,7.705654 -5.8453985,10.711935 -0.7549487,1.503148 -1.3562127,2.791548 -1.7320984,3.728008 -0.1879428,0.46821 -0.3178261,0.85334 -0.3818253,1.10729 -0.00697,0.0276 -0.00508,0.0312 -0.010413,0.0555 0.023892,0.008 0.024506,0.0126 0.052067,0.0208 0.2519226,0.0715 0.6494826,0.15081 1.148947,0.22215 0.9989308,0.1427 2.4167125,0.26322 4.0959442,0.361 3.358461,0.19557 7.780686,0.29504 12.201053,0.29504 4.420367,0 8.842592,-0.0995 12.201054,-0.29504 1.67923,-0.0978 3.093543,-0.2183 4.092472,-0.361 0.499466,-0.0714 0.897025,-0.15061 1.148947,-0.22215 0.02826,-0.008 0.03115,-0.0126 0.05554,-0.0208 -0.0053,-0.0243 -0.0034,-0.028 -0.01041,-0.0555 -0.06399,-0.25395 -0.197353,-0.63908 -0.385296,-1.10729 -0.375886,-0.93646 -0.97368,-2.22486 -1.728627,-3.728008 -1.509897,-3.006281 -3.635215,-6.883784 -5.845398,-10.711935 -2.210184,-3.828149 -4.510562,-7.60614 -6.359127,-10.416888 -0.924283,-1.405374 -1.733859,-2.573253 -2.356903,-3.367004 -0.311522,-0.396875 -0.579194,-0.702745 -0.767122,-0.885141 -0.02081,-0.0202 -0.02639,-0.02115 -0.04512,-0.03818 z M 21.13456,86.293846 c 0.291451,0.683433 0.762193,1.129118 1.412753,1.336388 0.65056,0.201669 1.560778,-0.211916 2.731787,-1.242668 -0.827513,1.680573 -1.63177,2.612875 -2.412442,2.797738 -0.775468,0.184863 -1.536298,-0.206245 -2.280538,-1.169773 l -0.919852,0.479017 z m 4.314625,0.135374 v 6.084907 l -3.90156,3.478081 v 2.756084 l 3.582216,-0.01041 c 0.489221,-1.165197 1.217046,-1.931639 2.179875,-2.301365 -0.983647,0.605006 -1.681943,1.884013 -2.093097,3.839073 l -4.988027,-0.0139 c -0.89517,0.0504 -1.626471,-0.10929 -2.193759,-0.479015 1.009669,0.02801 1.645431,-0.244323 1.905655,-0.815718 v -2.579056 l 3.995281,-3.589158 v -4.068175 c 0.49963,-0.336114 1.003377,-1.102556 1.513416,-2.301365 z"
         transform="matrix(0.14887457,0,0,0.14887457,10.256401,109.72127)" />
      <path
         id="path209"
         style="fill:#000000;fill-opacity:1;stroke:none;stroke-width:1.34695;stroke-dasharray:none;stroke-opacity:1"
         d="m 41.291464,104.17021 c 0.319539,-4.79486 0.256929,-18.970012 -0.197855,-19.757722 -0.447192,-0.774559 -12.2645,-7.675414 -16.76213,-9.923986 0.0448,0.05584 0.08547,0.100519 0.131903,0.159672 0.665587,0.847951 1.490435,2.030759 2.426326,3.453784 1.871782,2.846049 4.177154,6.640892 6.397309,10.486311 2.220153,3.845421 4.351249,7.737316 5.88011,10.781357 0.764429,1.522014 1.379141,2.831744 1.780694,3.832134 0.147886,0.36843 0.255216,0.68015 0.343643,0.96845 z"
         transform="matrix(0.14887457,0,0,0.14887457,10.256401,109.72127)" />
      <path
         id="path208"
         style="fill:#000000;fill-opacity:1;stroke:none;stroke-width:1.34695;stroke-dasharray:none;stroke-opacity:1"
         d="m 4.3168913,106.00992 c 2.0381247,1.70065 17.2592147,10.45507 18.2720757,10.45507 1.01078,0 16.170223,-8.72205 18.258191,-10.44813 -0.138637,0.0656 -0.282958,0.1173 -0.444306,0.16314 -0.354231,0.10061 -0.792405,0.18408 -1.325975,0.26034 -1.06714,0.15244 -2.503229,0.27587 -4.203549,0.37488 -3.400643,0.19799 -7.840583,0.29505 -12.28089,0.29505 -4.440307,0 -8.880248,-0.0971 -12.28089,-0.29505 -1.7003206,-0.099 -3.1364094,-0.22244 -4.203549,-0.37488 C 5.5744287,106.36414 5.1327828,106.28065 4.7785528,106.18 4.6095615,106.132 4.461427,106.0803 4.3168913,106.00992 Z"
         transform="matrix(0.14887457,0,0,0.14887457,10.256401,109.72127)" />
      <path
         id="path207"
         style="fill:#000000;fill-opacity:1;stroke:none;stroke-width:1.34695;stroke-dasharray:none;stroke-opacity:1"
         d="M 20.86034,74.48156 C 16.374448,76.721982 4.5285519,83.637053 4.0808538,84.412488 3.6253121,85.20151 3.5651069,99.426789 3.8864701,104.19798 c 0.089224,-0.29504 0.198015,-0.61612 0.350585,-0.99622 0.401553,-1.00039 1.0127924,-2.31012 1.7772232,-3.832134 1.5288604,-3.044041 3.6634269,-6.935936 5.8835807,-10.781357 2.220153,-3.845419 4.525527,-7.640262 6.397309,-10.486311 0.935891,-1.423025 1.760739,-2.605833 2.426326,-3.453784 0.04877,-0.06213 0.09187,-0.108146 0.138846,-0.166614 z"
         transform="matrix(0.14887457,0,0,0.14887457,10.256401,109.72127)" />
    </g>
  </g>
</svg>
