<?xml version="1.0" encoding="UTF-8" standalone="no"?>
<!-- Created with Inkscape (http://www.inkscape.org/) -->

<svg
   width="5.7251358mm"
   height="5.6291137mm"
   viewBox="0 0 5.7251358 5.6291137"
   version="1.1"
   id="svg1"
   xmlns="http://www.w3.org/2000/svg"
   xmlns:svg="http://www.w3.org/2000/svg">
  <defs
     id="defs1">
    <linearGradient
       id="swatch4">
      <stop
         style="stop-color:#000000;stop-opacity:1;"
         offset="0"
         id="stop4" />
    </linearGradient>
  </defs>
  <g
     id="layer2"
     style="stroke:#ffffff;stroke-opacity:1"
     transform="translate(-150.24154,-181.08921)">
    <path
       id="path24-11-10-75"
       style="display:inline;fill:#000000;fill-opacity:1;stroke:none;stroke-width:0.200527;stroke-dasharray:none;stroke-opacity:1"
       d="m 153.10383,181.0892 c -1.16547,0 -2.32853,0.0383 -2.64066,0.11421 l 2.6665,1.89446 2.59261,-1.90014 c -0.34404,-0.0724 -1.4808,-0.10853 -2.61845,-0.10853 z m 2.75642,0.2558 -2.56935,1.88361 c 0.0366,0.0272 0.0754,0.0602 0.11989,0.1018 0.0994,0.093 0.22203,0.22296 0.36122,0.37827 0.2784,0.31061 0.62086,0.72419 0.95085,1.1436 0.32999,0.4194 0.64697,0.84394 0.87436,1.17616 0.11369,0.16612 0.2046,0.30943 0.26458,0.41909 0.005,0.009 0.008,0.0163 0.0129,0.0248 0.12719,-0.88983 0.12244,-4.44123 -0.0145,-5.12734 z m -5.51594,0.0202 c -0.13548,0.74634 -0.1372,4.35136 -0.004,5.15162 0.0105,-0.0216 0.0224,-0.0442 0.0362,-0.0693 0.06,-0.10966 0.15088,-0.25297 0.26458,-0.41909 0.22739,-0.33222 0.54438,-0.75676 0.87437,-1.17616 0.32998,-0.41941 0.67296,-0.83299 0.95136,-1.1436 0.1392,-0.15531 0.26127,-0.28532 0.3607,-0.37827 0.0479,-0.0448 0.0907,-0.0803 0.12971,-0.10852 z m 2.77451,1.98075 c -0.0268,0.0195 -0.063,0.0504 -0.10697,0.0915 -0.092,0.086 -0.21267,0.21229 -0.34985,0.36535 -0.27436,0.30611 -0.61535,0.71814 -0.94361,1.13534 -0.32825,0.4172 -0.64408,0.83996 -0.86817,1.16737 -0.11205,0.16371 -0.20078,0.30415 -0.25631,0.40566 -0.0265,0.0485 -0.0436,0.0864 -0.0532,0.11317 0.0365,0.007 0.0904,0.0154 0.1602,0.0227 0.14756,0.0155 0.35693,0.0286 0.60616,0.0393 0.49845,0.0213 1.15528,0.032 1.81178,0.032 0.65651,0 1.31383,-0.0108 1.81229,-0.032 0.24922,-0.0106 0.45964,-0.0238 0.6072,-0.0393 0.0702,-0.007 0.12377,-0.0155 0.1602,-0.0227 -0.01,-0.0268 -0.0277,-0.0647 -0.0543,-0.11317 -0.0555,-0.10151 -0.14428,-0.24195 -0.25632,-0.40566 -0.2241,-0.32741 -0.54043,-0.75017 -0.86868,-1.16737 -0.0931,-0.11838 -0.18722,-0.23513 -0.2806,-0.35037 l -0.0868,0.10284 v 1.16685 l -0.22427,0.19792 v -0.66198 c 0.10072,-0.004 0.15141,-0.0508 0.15141,-0.14004 0,-0.0901 -0.0507,-0.13467 -0.15141,-0.13384 v -0.28525 c -0.12165,-0.0334 -0.22276,-0.10744 -0.30335,-0.2217 v 0.5054 c -0.10072,0.003 -0.15089,0.0489 -0.15089,0.13643 0,0.0867 0.0502,0.13297 0.15089,0.13797 v 0.71159 l 0.18346,0.12505 0.34416,-0.33279 -0.006,0.11782 -0.43822,0.44028 -0.31161,-0.19017 c -0.0356,-0.0167 -0.0868,-0.0176 -0.15348,-0.003 0.0643,-0.055 0.11241,-0.084 0.14418,-0.0873 v -1.35238 c -0.0364,0.0134 -0.0907,-0.0141 -0.16278,-0.0816 0.0643,0.0284 0.1181,0.03 0.16071,0.004 l 0.39378,-0.3669 c 0.004,0.0709 0.0584,0.13429 0.16381,0.19017 0.0899,0.0473 0.18397,0.0479 0.28215,0.003 -0.23073,-0.28431 -0.45652,-0.55258 -0.64905,-0.7674 -0.13718,-0.15306 -0.2573,-0.27932 -0.34933,-0.36535 -0.0439,-0.0411 -0.0807,-0.072 -0.10749,-0.0915 z m -0.7276,1.00925 c 0.0434,0.10174 0.11347,0.16809 0.21032,0.19895 0.0968,0.03 0.23236,-0.0321 0.40669,-0.18552 -0.12319,0.2502 -0.24293,0.38951 -0.35915,0.41703 -0.11545,0.0275 -0.22872,-0.0307 -0.33951,-0.17415 l -0.13695,0.0713 z m 0.64285,0.0202 v 0.90537 l -0.58136,0.5178 v 0.41031 l 0.5333,-0.001 c 0.0728,-0.17347 0.18119,-0.28758 0.32453,-0.34262 -0.14644,0.0901 -0.2504,0.28048 -0.31161,0.57154 l -0.74259,-0.003 c -0.13327,0.007 -0.24214,-0.0163 -0.3266,-0.0713 0.15032,0.004 0.24497,-0.0364 0.28371,-0.12143 v -0.38396 l 0.59479,-0.53433 v -0.60514 c 0.0744,-0.05 0.1499,-0.16414 0.22583,-0.34261 z m -0.25218,0.35863 -0.002,0.56431 c -0.11622,-0.0592 -0.23001,-0.0624 -0.34158,-0.01 0.0387,-0.0934 0.1308,-0.131 0.27647,-0.11265 v -0.1416 c -0.0891,-0.0409 -0.17367,-0.0291 -0.25425,0.0351 0.0178,-0.0984 0.10238,-0.14616 0.25425,-0.14366 v -0.14521 z m 0.9896,0.18294 c 0.009,0 0.0167,0.002 0.0248,0.006 0.0163,0.008 0.0269,0.0205 0.0315,0.0372 0.005,0.0158 0.005,0.0324 0,0.0491 -0.005,0.0167 -0.0189,0.0289 -0.0398,0.0372 v 0.1881 h 0.10232 c 0.008,-0.0225 0.0196,-0.0371 0.0351,-0.0429 0.0155,-0.006 0.0302,-0.006 0.045,0 0.0155,0.005 0.0274,0.0166 0.0351,0.0341 0.008,0.0175 0.008,0.0356 0,0.0548 -0.007,0.0183 -0.0191,0.0301 -0.0362,0.0351 -0.017,0.005 -0.0331,0.004 -0.0486,-0.004 -0.0155,-0.007 -0.0258,-0.0231 -0.0305,-0.0465 h -0.1018 l 5.1e-4,0.64183 c 0.0209,0.008 0.0344,0.021 0.0398,0.0377 0.005,0.0167 0.005,0.0329 0,0.0496 -0.005,0.0158 -0.0152,0.0283 -0.0315,0.0367 -0.0163,0.008 -0.0333,0.009 -0.0512,0.001 -0.017,-0.008 -0.0279,-0.0214 -0.0326,-0.0398 -0.005,-0.0183 -0.003,-0.036 0.004,-0.0527 0.007,-0.0167 0.0212,-0.0275 0.0429,-0.0325 l -5.1e-4,-0.64183 h -0.11111 c -0.005,0.0234 -0.0145,0.039 -0.03,0.0465 -0.0155,0.008 -0.032,0.009 -0.0491,0.004 -0.017,-0.005 -0.0295,-0.0168 -0.0372,-0.0351 -0.007,-0.0192 -0.006,-0.0373 0.002,-0.0548 0.008,-0.0175 0.0189,-0.0291 0.0336,-0.0341 0.0155,-0.006 0.031,-0.006 0.0465,0 0.0155,0.006 0.0269,0.0204 0.0346,0.0429 h 0.11059 v -0.1881 c -0.0217,-0.005 -0.0359,-0.0154 -0.0429,-0.032 -0.007,-0.0167 -0.008,-0.0344 -0.004,-0.0527 0.005,-0.0183 0.0155,-0.0312 0.0326,-0.0388 0.009,-0.004 0.0178,-0.006 0.0264,-0.006 z" />
  </g>
</svg>
