<?xml version="1.0" encoding="UTF-8" standalone="no"?>
<!-- Created with Inkscape (http://www.inkscape.org/) -->

<svg
   width="5.670455mm"
   height="5.9009318mm"
   viewBox="0 0 5.670455 5.9009318"
   version="1.1"
   id="svg1"
   xmlns="http://www.w3.org/2000/svg"
   xmlns:svg="http://www.w3.org/2000/svg">
  <defs
     id="defs1">
    <linearGradient
       id="swatch4">
      <stop
         style="stop-color:#000000;stop-opacity:1;"
         offset="0"
         id="stop4" />
    </linearGradient>
  </defs>
  <g
     id="layer2"
     style="stroke:#ffffff;stroke-opacity:1"
     transform="translate(-10.738363,-195.59426)">
    <path
       id="path237-317-0"
       style="fill:#000000;fill-opacity:1;stroke:none;stroke-width:0.200527;stroke-dasharray:none;stroke-opacity:1"
       d="m 13.573332,195.59426 c -0.127651,0 -1.630989,0.48825 -1.734261,0.56328 -0.103271,0.075 -1.032324,1.35396 -1.07177,1.47536 -0.01829,0.0563 -0.02761,0.4279 -0.02894,0.82062 0.0077,-0.005 0.01437,-0.009 0.02274,-0.0139 0.07448,-0.0438 0.177028,-0.097 0.299724,-0.1571 0.245394,-0.12015 0.572007,-0.26755 0.907954,-0.41134 0.335948,-0.14379 0.680486,-0.28357 0.961182,-0.38861 0.140348,-0.0525 0.264063,-0.0963 0.366386,-0.12816 0.05116,-0.0159 0.0965,-0.0286 0.139526,-0.0388 0.04303,-0.0101 0.0759,-0.0207 0.151412,-0.0207 0.07551,0 0.108385,0.0105 0.151412,0.0207 0.04303,0.0101 0.08836,0.0228 0.139527,0.0388 0.102322,0.0319 0.226038,0.0756 0.366386,0.12816 0.280697,0.10504 0.625751,0.24482 0.961698,0.38861 0.335947,0.14379 0.662561,0.29119 0.907955,0.41134 0.120239,0.0589 0.220469,0.11072 0.294556,0.154 -0.0016,-0.38625 -0.01092,-0.74812 -0.02894,-0.80357 -0.03945,-0.1214 -0.969014,-1.40033 -1.072286,-1.47536 -0.103271,-0.075 -1.60661,-0.56328 -1.734261,-0.56328 z m 0.01395,1.83555 c -0.0016,3.3e-4 -0.0019,1.2e-4 -0.0036,5.2e-4 -0.02466,0.006 -0.06222,0.016 -0.10697,0.03 -0.03802,0.0119 -0.08356,0.0274 -0.131258,0.0439 0.04341,0.10138 0.113159,0.16765 0.209806,0.19844 0.09144,0.0283 0.217764,-0.026 0.378271,-0.16123 -0.08935,-0.0323 -0.171918,-0.0612 -0.235644,-0.0811 -0.04475,-0.0139 -0.08231,-0.0242 -0.10697,-0.03 -0.0017,-4e-4 -0.002,-1.9e-4 -0.0036,-5.2e-4 z m -0.242879,0.0749 c -0.0643,0.0223 -0.134467,0.0473 -0.21239,0.0765 -0.272592,0.102 -0.614527,0.24073 -0.946712,0.38292 -0.332185,0.14218 -0.655694,0.28795 -0.894003,0.40463 -0.119155,0.0583 -0.217006,0.10948 -0.282153,0.14779 -0.03257,0.0191 -0.05671,0.0354 -0.07028,0.046 -9.88e-4,7.7e-4 -6.89e-4,8.7e-4 -0.0015,0.002 8.11e-4,7.4e-4 5.12e-4,8.5e-4 0.0015,0.002 0.01357,0.0106 0.03771,0.0268 0.07028,0.046 0.06515,0.0383 0.162998,0.0894 0.282153,0.1478 0.238309,0.11667 0.561818,0.26244 0.894003,0.40462 0.288389,0.12345 0.576523,0.23995 0.827856,0.33642 0.0765,-0.0169 0.127946,-0.0539 0.153996,-0.11111 v -0.38447 l 0.594796,-0.53382 v -0.60564 c 0.06975,-0.0469 0.140247,-0.15073 0.211356,-0.31058 -0.009,-0.003 -0.01754,-0.007 -0.02636,-0.01 -0.117959,0.23149 -0.232628,0.36168 -0.344165,0.38809 -0.115447,0.0275 -0.228715,-0.0307 -0.339514,-0.17415 l -0.136942,0.0713 z m 0.642855,0.0563 v 0.86868 l -0.580843,0.5178 v 0.41031 l 0.533301,-0.002 c 0.07283,-0.17347 0.181187,-0.28757 0.324528,-0.34262 -0.145556,0.0895 -0.249223,0.27828 -0.310576,0.56638 0.02997,-0.0109 0.05739,-0.0201 0.0894,-0.032 0.272592,-0.10201 0.614011,-0.24074 0.946196,-0.38293 0.332185,-0.14218 0.65621,-0.28795 0.894519,-0.40462 0.119154,-0.0583 0.217006,-0.1095 0.282153,-0.1478 0.03257,-0.0192 0.05671,-0.0354 0.07028,-0.046 9.88e-4,-7.7e-4 7.89e-4,-8.8e-4 0.0016,-0.002 -8.11e-4,-7.4e-4 -6.14e-4,-8.4e-4 -0.0016,-0.002 -0.01357,-0.0106 -0.03771,-0.0268 -0.07028,-0.046 -0.06515,-0.0383 -0.162999,-0.0895 -0.282153,-0.14779 -0.238309,-0.11668 -0.562334,-0.26245 -0.894519,-0.40463 -0.332185,-0.14219 -0.673604,-0.28092 -0.946196,-0.38292 -0.01998,-0.007 -0.0366,-0.0131 -0.05581,-0.0202 z m -0.252181,0.32194 -0.001,0.56379 c -0.116222,-0.0592 -0.230007,-0.0624 -0.341581,-0.01 0.03874,-0.0934 0.130804,-0.131 0.276469,-0.11265 v -0.14108 c -0.0891,-0.0409 -0.173667,-0.0296 -0.254248,0.0346 0.01782,-0.0984 0.102384,-0.14617 0.254248,-0.14367 V 197.929 Z m -2.996716,0.79168 c 0.0018,0.37797 0.01126,0.72746 0.02894,0.78187 0.03945,0.12141 0.968498,1.40033 1.07177,1.47536 0.103272,0.075 1.60661,0.56327 1.734261,0.56327 0.127651,0 1.630989,-0.48824 1.734261,-0.56327 0.103272,-0.075 1.03284,-1.35395 1.072286,-1.47536 0.01741,-0.0536 0.02638,-0.39354 0.02842,-0.76481 -0.07406,0.0433 -0.173984,0.0952 -0.294039,0.15399 -0.245394,0.12014 -0.572007,0.26756 -0.907955,0.41135 -0.335947,0.1438 -0.681002,0.28357 -0.961698,0.3886 -0.140349,0.0525 -0.264064,0.0963 -0.366386,0.12816 -0.05116,0.0159 -0.0965,0.0291 -0.139527,0.0393 -0.04303,0.0101 -0.0759,0.0202 -0.151412,0.0202 -0.07552,0 -0.108385,-0.01 -0.151412,-0.0202 -0.04303,-0.0101 -0.08836,-0.0233 -0.139526,-0.0393 -0.102322,-0.0319 -0.226037,-0.0756 -0.366386,-0.12816 -0.280696,-0.10503 -0.625235,-0.2448 -0.961182,-0.3886 -0.335947,-0.14379 -0.66256,-0.29121 -0.907954,-0.41135 -0.122697,-0.0601 -0.225241,-0.11329 -0.299724,-0.15709 -0.0084,-0.005 -0.01505,-0.009 -0.02274,-0.014 z m 2.48977,0.90796 c 0.09472,0.0345 0.181676,0.0654 0.248564,0.0863 0.04475,0.0139 0.08231,0.0242 0.10697,0.03 0.0017,4e-4 0.002,1.9e-4 0.0036,5.2e-4 0.0016,-3.3e-4 0.0019,-1.2e-4 0.0036,-5.2e-4 0.02466,-0.006 0.06222,-0.016 0.10697,-0.03 0.0653,-0.0204 0.150283,-0.0503 0.242362,-0.0837 z" />
  </g>
</svg>
