<?xml version="1.0" encoding="UTF-8" standalone="no"?>
<!-- Created with Inkscape (http://www.inkscape.org/) -->

<svg
   width="5.670455mm"
   height="5.9009318mm"
   viewBox="0 0 5.670455 5.9009318"
   version="1.1"
   id="svg1"
   xmlns="http://www.w3.org/2000/svg"
   xmlns:svg="http://www.w3.org/2000/svg">
  <defs
     id="defs1">
    <linearGradient
       id="swatch4">
      <stop
         style="stop-color:#000000;stop-opacity:1;"
         offset="0"
         id="stop4" />
    </linearGradient>
  </defs>
  <g
     id="layer2"
     style="stroke:#ffffff;stroke-opacity:1"
     transform="translate(-72.681868,-195.62217)">
    <path
       id="path237-317-04-03"
       style="fill:#000000;fill-opacity:1;stroke:none;stroke-width:0.200527;stroke-dasharray:none;stroke-opacity:1"
       d="m 75.516838,195.62217 c -0.127651,0 -1.63099,0.48824 -1.734262,0.56327 -0.103272,0.075 -1.032323,1.35396 -1.071769,1.47536 -0.01828,0.0563 -0.02761,0.4279 -0.02894,0.82062 0.0077,-0.005 0.01437,-0.009 0.02274,-0.014 0.07448,-0.0438 0.177026,-0.097 0.299723,-0.15709 0.245394,-0.12015 0.572008,-0.26756 0.907955,-0.41135 0.335947,-0.14379 0.680485,-0.28357 0.961182,-0.38861 0.140348,-0.0525 0.264063,-0.0963 0.366386,-0.12815 0.05116,-0.0159 0.0965,-0.0286 0.139526,-0.0388 0.04303,-0.0101 0.0759,-0.0207 0.151412,-0.0207 0.07551,0 0.108384,0.0105 0.151412,0.0207 0.04303,0.0101 0.08836,0.0228 0.139527,0.0388 0.102323,0.0319 0.226037,0.0756 0.366385,0.12815 0.280696,0.10504 0.625752,0.24482 0.961699,0.38861 0.335948,0.14379 0.662561,0.2912 0.907955,0.41135 0.120239,0.0589 0.220468,0.11071 0.294555,0.15399 -0.0016,-0.38625 -0.01092,-0.74812 -0.02894,-0.80357 -0.03945,-0.1214 -0.969014,-1.40033 -1.072286,-1.47536 -0.103272,-0.075 -1.60661,-0.56327 -1.734261,-0.56327 z m 0.01395,1.83554 c -0.0016,3.3e-4 -0.0019,1.2e-4 -0.0036,5.2e-4 -0.02466,0.006 -0.06222,0.016 -0.10697,0.03 -0.0895,0.0279 -0.208386,0.0699 -0.344682,0.12093 -0.03563,0.0133 -0.08,0.0315 -0.117822,0.046 0.03883,0.0531 0.108995,0.0832 0.210323,0.0894 l -0.110588,0.14624 -0.001,1.38338 0.197404,0.0863 c 0.04959,-0.0567 0.111394,-0.0834 0.185001,-0.0801 -0.07107,0.0366 -0.166961,0.14412 -0.287321,0.32246 0.103164,0.0378 0.197074,0.0712 0.268718,0.0935 0.04475,0.0139 0.08231,0.0242 0.10697,0.03 0.0017,4e-4 0.002,1.9e-4 0.0036,5.2e-4 0.0016,-3.3e-4 0.0019,-1.2e-4 0.0036,-5.2e-4 0.02466,-0.006 0.06222,-0.016 0.10697,-0.03 0.07114,-0.0222 0.16478,-0.0551 0.267167,-0.0925 l -0.297656,-0.1819 c -0.03564,-0.0167 -0.08684,-0.0176 -0.153479,-0.003 0.06431,-0.055 0.11241,-0.084 0.144177,-0.0873 v -1.35237 c -0.03642,0.0133 -0.09072,-0.0141 -0.162781,-0.0816 0.06431,0.0284 0.117582,0.03 0.160197,0.004 l 0.33538,-0.31212 c -0.113366,-0.0418 -0.215798,-0.0777 -0.293005,-0.10181 -0.04475,-0.0139 -0.08231,-0.0242 -0.10697,-0.03 -0.0017,-4e-4 -0.002,-1.9e-4 -0.0036,-5.2e-4 z m 0.499195,0.16847 c 0.02725,0.0353 0.06913,0.0685 0.127124,0.0992 0.06538,0.0344 0.132785,0.0441 0.202571,0.0294 -0.115516,-0.0463 -0.227744,-0.0901 -0.329695,-0.12867 z m -1.335836,0.13229 c -0.182902,0.0733 -0.37375,0.15157 -0.56534,0.23358 -0.332185,0.14218 -0.655694,0.28795 -0.894003,0.40463 -0.119154,0.0583 -0.217006,0.10948 -0.282153,0.14779 -0.03257,0.0191 -0.05671,0.0354 -0.07028,0.046 -9.88e-4,7.7e-4 -6.89e-4,8.8e-4 -0.0015,0.002 8.11e-4,7.4e-4 5.13e-4,3.3e-4 0.0015,0.002 0.01357,0.0106 0.03771,0.0268 0.07028,0.046 0.06515,0.0383 0.162999,0.0894 0.282153,0.1478 0.238309,0.11667 0.561818,0.26244 0.894003,0.40462 0.226474,0.0969 0.449433,0.1876 0.659908,0.27079 0.01605,-0.0214 0.03011,-0.0441 0.04134,-0.0687 l 0.001,-1.49914 c -0.04107,-0.007 -0.07313,-0.0249 -0.0956,-0.0558 l -0.193787,0.0698 z m 1.144633,0.0119 v 0.50539 c -0.100726,0.003 -0.151412,0.0489 -0.151412,0.13643 0,0.0867 0.05069,0.13297 0.151412,0.13797 v 0.71159 l 0.183451,0.12506 0.344165,-0.3328 -0.0057,0.11782 -0.417546,0.4191 c 0.01506,-0.006 0.02789,-0.01 0.04341,-0.0155 0.272592,-0.10201 0.614011,-0.24074 0.946196,-0.38293 0.332185,-0.14218 0.656211,-0.28795 0.894519,-0.40462 0.119155,-0.0583 0.217005,-0.1095 0.282153,-0.1478 0.03257,-0.0192 0.05671,-0.0354 0.07028,-0.046 9.87e-4,-7.7e-4 6.88e-4,-3.6e-4 0.0016,-0.002 -8.12e-4,-7.4e-4 -5.13e-4,-8.5e-4 -0.0016,-0.002 -0.01357,-0.0106 -0.0377,-0.0268 -0.07028,-0.046 -0.06515,-0.0383 -0.162998,-0.0895 -0.282153,-0.14779 -0.238308,-0.11668 -0.562334,-0.26245 -0.894519,-0.40463 -0.171029,-0.0732 -0.343226,-0.14504 -0.508496,-0.21187 l -0.05788,0.0677 v 1.16737 l -0.224276,0.19792 v -0.66197 c 0.100726,-0.004 0.150896,-0.0508 0.150896,-0.14004 0,-0.0901 -0.05017,-0.13468 -0.150896,-0.13385 v -0.28525 c -0.121646,-0.0334 -0.22276,-0.10744 -0.30334,-0.22169 z m -0.660425,0.0387 v 1.34256 l -0.06511,0.0589 v -1.31 z m 0.807186,0.26562 c 0.0085,0 0.01719,0.002 0.02532,0.006 0.01627,0.008 0.02636,0.0205 0.03101,0.0372 0.0054,0.0159 0.0054,0.0324 0,0.0491 -0.0054,0.0167 -0.01835,0.0289 -0.03927,0.0372 v 0.1881 h 0.102319 c 0.0077,-0.0225 0.01913,-0.037 0.03462,-0.0429 0.0155,-0.006 0.03075,-0.006 0.04547,0 0.0155,0.005 0.02688,0.0166 0.03462,0.0341 0.0077,0.0175 0.0077,0.0356 0,0.0548 -0.007,0.0184 -0.01861,0.0301 -0.03566,0.0351 -0.01705,0.005 -0.0336,0.004 -0.04909,-0.004 -0.0155,-0.008 -0.02532,-0.0232 -0.02997,-0.0465 h -0.101802 l 5.17e-4,0.64182 c 0.02092,0.008 0.03437,0.021 0.03979,0.0377 0.0054,0.0167 0.0054,0.0329 0,0.0496 -0.0046,0.0159 -0.01525,0.0283 -0.03152,0.0367 -0.01627,0.008 -0.03334,0.009 -0.05116,0.001 -0.01705,-0.008 -0.02791,-0.0214 -0.03256,-0.0398 -0.0046,-0.0183 -0.0034,-0.036 0.0036,-0.0527 0.007,-0.0167 0.0212,-0.0275 0.04289,-0.0325 l -5.17e-4,-0.64182 H 75.86307 c -0.0046,0.0233 -0.01448,0.039 -0.02997,0.0465 -0.0155,0.008 -0.03205,0.009 -0.04909,0.004 -0.01705,-0.005 -0.02946,-0.0168 -0.03721,-0.0351 -0.007,-0.0192 -0.0067,-0.0373 0.001,-0.0548 0.0077,-0.0175 0.01938,-0.0291 0.03411,-0.0341 0.0155,-0.006 0.03101,-0.006 0.04651,0 0.0155,0.006 0.02688,0.0204 0.03462,0.0429 h 0.110587 v -0.1881 c -0.0217,-0.005 -0.03643,-0.0159 -0.04341,-0.0326 -0.007,-0.0167 -0.0077,-0.0338 -0.0031,-0.0522 0.0046,-0.0183 0.01551,-0.0312 0.03256,-0.0388 0.0089,-0.004 0.01731,-0.006 0.02584,-0.006 z m -3.303675,0.62787 c 0.0018,0.37797 0.01126,0.72745 0.02894,0.78186 0.03945,0.12141 0.968498,1.40034 1.071769,1.47537 0.103272,0.075 1.606611,0.56327 1.734262,0.56327 0.127651,0 1.630989,-0.48824 1.734261,-0.56327 0.103271,-0.075 1.03284,-1.35396 1.072286,-1.47537 0.01741,-0.0536 0.02638,-0.39354 0.02842,-0.76481 -0.07406,0.0433 -0.173985,0.0952 -0.294039,0.154 -0.245394,0.12014 -0.572008,0.26755 -0.907955,0.41134 -0.335948,0.1438 -0.681002,0.28358 -0.961699,0.38861 -0.140348,0.0525 -0.264062,0.0963 -0.366385,0.12816 -0.05116,0.0159 -0.0965,0.0291 -0.139527,0.0393 -0.04303,0.0101 -0.0759,0.0202 -0.151412,0.0202 -0.07552,0 -0.108384,-0.01 -0.151412,-0.0202 -0.04303,-0.0101 -0.08836,-0.0233 -0.139526,-0.0393 -0.102323,-0.0319 -0.226038,-0.0756 -0.366386,-0.12816 -0.06622,-0.0248 -0.144666,-0.0565 -0.217041,-0.0847 -0.0095,7.6e-4 -0.01889,0.002 -0.02894,0.002 0.0052,-0.002 0.01,-0.005 0.01499,-0.008 -0.230788,-0.0903 -0.478619,-0.19049 -0.730188,-0.29818 -0.335947,-0.14379 -0.662561,-0.2912 -0.907955,-0.41134 -0.122697,-0.0601 -0.22524,-0.1133 -0.299723,-0.1571 -0.0084,-0.005 -0.01505,-0.009 -0.02274,-0.014 z" />
  </g>
</svg>
