<?xml version="1.0" encoding="UTF-8" standalone="no"?>
<!-- Created with Inkscape (http://www.inkscape.org/) -->

<svg
   width="6.1489787mm"
   height="6.1489787mm"
   viewBox="0 0 6.1489787 6.1489787"
   version="1.1"
   id="svg1"
   xmlns="http://www.w3.org/2000/svg"
   xmlns:svg="http://www.w3.org/2000/svg">
  <defs
     id="defs1">
    <linearGradient
       id="swatch4">
      <stop
         style="stop-color:#000000;stop-opacity:1;"
         offset="0"
         id="stop4" />
    </linearGradient>
  </defs>
  <g
     id="layer2"
     style="stroke:#ffffff;stroke-opacity:1"
     transform="translate(-65.005852,-166.16298)">
    <path
       id="path225-00-83"
       style="fill:#000000;fill-opacity:1;stroke:none;stroke-width:0.200527;stroke-dasharray:none;stroke-opacity:1"
       d="m 66.806775,166.16298 -0.01499,0.015 0.03669,-0.015 z m 0.108004,0 0.316776,0.7798 1.697054,-0.001 0.310576,-0.77877 z m 2.434476,0 0.0078,0.003 -0.0031,-0.003 z m 0.07648,0.0718 -0.312642,0.7891 1.187524,1.18804 0.777731,-0.32452 z m -2.696476,0.006 -1.648478,1.64847 0.780314,0.32091 1.185458,-1.18494 z m 0.483175,0.90175 -1.226799,1.22731 v 1.7353 l 1.226799,1.22783 1.735294,-10e-4 1.226799,-1.2268 5.17e-4,-1.7353 -1.227316,-1.22679 z m -2.191081,0.80615 -0.0155,0.0155 v 0.0222 z m 6.133476,0.12558 -0.779281,0.32452 v 1.67277 l 0.779281,0.32866 z m -6.148979,10e-4 v 2.32699 l 0.779281,-0.33486 v -1.6707 z m 3.11919,0.12919 0.381372,0.31523 c 0.05114,0.0334 0.121478,0.0343 0.211356,0.003 -0.08755,0.0717 -0.154273,0.10526 -0.199987,0.10025 v 0.9772 c 0.04416,0.003 0.110366,0.0384 0.19792,0.10594 -0.07981,-0.0283 -0.144974,-0.0295 -0.195337,-0.004 L 68.101785,170.27 c -0.05734,-0.0817 -0.124573,-0.13315 -0.202055,-0.154 -0.07748,-0.0208 -0.155062,-0.001 -0.232544,0.0579 0.0984,-0.19682 0.194602,-0.29762 0.288355,-0.30179 0.09375,-0.005 0.174696,0.0346 0.242879,0.11885 l 0.0801,-0.11265 v -1.19838 l -0.2651,-0.22479 -0.10542,0.0785 v 0.79685 c 0.05656,0.0117 0.108282,0.0613 0.155546,0.14883 l 0.202055,-0.29404 -0.001,0.14159 -0.262516,0.40515 c -0.05656,-0.10175 -0.141901,-0.16312 -0.255799,-0.18397 -0.113897,-0.0208 -0.207771,-10e-4 -0.282153,0.0579 0.04416,-0.12843 0.117867,-0.19681 0.221692,-0.20515 v -0.62839 c -0.0922,0.0134 -0.173146,-0.0187 -0.242879,-0.0971 0.09298,0.0108 0.174179,-0.0118 0.243913,-0.0677 z m -0.104387,0.31936 v 0.83406 l -0.06511,-0.0584 v -0.71727 z m -2.167309,1.73323 -0.769979,0.33176 1.650028,1.65003 0.318327,-0.78393 z m 4.450374,0.003 -1.203544,1.20355 0.330212,0.77204 1.648479,-1.64848 z m -5.297868,0.23255 v 0.0186 l 0.01395,0.0139 z m 2.230872,1.03973 -0.316777,0.77979 h 2.326473 l -0.336413,-0.77928 z m -0.44235,0.76739 0.0124,0.0124 h 0.01757 z" />
  </g>
</svg>
