<?xml version="1.0" encoding="UTF-8" standalone="no"?>
<!-- Created with Inkscape (http://www.inkscape.org/) -->

<svg
   width="5.670455mm"
   height="5.9009318mm"
   viewBox="0 0 5.670455 5.9009318"
   version="1.1"
   id="svg1"
   xmlns="http://www.w3.org/2000/svg"
   xmlns:svg="http://www.w3.org/2000/svg">
  <defs
     id="defs1">
    <linearGradient
       id="swatch4">
      <stop
         style="stop-color:#000000;stop-opacity:1;"
         offset="0"
         id="stop4" />
    </linearGradient>
  </defs>
  <g
     id="layer2"
     style="stroke:#ffffff;stroke-opacity:1"
     transform="translate(-65.200156,-202.27654)">
    <path
       id="path237-317-04-300"
       style="fill:#000000;fill-opacity:1;stroke:none;stroke-width:0.200527;stroke-dasharray:none;stroke-opacity:1"
       d="m 68.035124,202.27654 c -0.127651,0 -1.630989,0.48825 -1.734261,0.56328 -0.103272,0.075 -1.032324,1.35396 -1.07177,1.47536 -0.01829,0.0563 -0.02761,0.4279 -0.02894,0.82062 0.0077,-0.005 0.01437,-0.009 0.02274,-0.0139 0.07448,-0.0438 0.177027,-0.097 0.299724,-0.1571 0.245394,-0.12015 0.572007,-0.26755 0.907954,-0.41134 0.258195,-0.11052 0.512814,-0.21359 0.748275,-0.30541 l 0.04754,-0.0713 c 0.0067,0.0157 0.01428,0.0299 0.02222,0.0439 0.04648,-0.0179 0.09948,-0.0395 0.143144,-0.0558 0.140348,-0.0525 0.264064,-0.0963 0.366386,-0.12816 0.05116,-0.0159 0.0965,-0.0286 0.139526,-0.0388 0.04303,-0.0101 0.0759,-0.0207 0.151412,-0.0207 0.07551,0 0.108384,0.0105 0.151412,0.0207 0.04303,0.0101 0.08836,0.0228 0.139527,0.0388 0.102323,0.0319 0.226037,0.0756 0.366386,0.12816 0.280696,0.10504 0.625751,0.24482 0.961698,0.38861 0.335948,0.14379 0.662562,0.29119 0.907955,0.41134 0.120239,0.0589 0.220469,0.11072 0.294556,0.154 -0.0016,-0.38625 -0.01092,-0.74812 -0.02894,-0.80357 -0.03945,-0.1214 -0.969014,-1.40033 -1.072286,-1.47536 -0.103272,-0.075 -1.60661,-0.56328 -1.734261,-0.56328 z m 0.01395,1.83555 c -0.0016,3.3e-4 -0.0019,1.2e-4 -0.0036,5.2e-4 -0.02466,0.006 -0.06222,0.016 -0.10697,0.03 -0.0895,0.0279 -0.208386,0.0699 -0.344682,0.12092 -0.06589,0.0247 -0.145195,0.0568 -0.218075,0.0853 0.01918,0.0106 0.03906,0.0199 0.06098,0.0269 0.09685,0.03 0.232877,-0.0321 0.40721,-0.18552 -0.123196,0.2502 -0.242929,0.38951 -0.359151,0.41703 -0.11422,0.0272 -0.226228,-0.0299 -0.335897,-0.17002 -0.01937,0.008 -0.03934,0.0168 -0.05891,0.0248 l -0.08217,0.0424 0.0078,-0.0114 c -0.122096,0.0502 -0.244991,0.10064 -0.368453,0.15348 -0.332185,0.14218 -0.655694,0.28795 -0.894003,0.40463 -0.119154,0.0583 -0.217006,0.10948 -0.282153,0.14779 -0.03257,0.0191 -0.05671,0.0354 -0.07028,0.046 -9.88e-4,7.7e-4 -6.89e-4,8.7e-4 -0.0016,0.002 8.11e-4,7.4e-4 5.13e-4,3.3e-4 0.0016,0.002 0.01357,0.0106 0.03771,0.0268 0.07028,0.046 0.06515,0.0383 0.162999,0.0894 0.282153,0.14779 0.238309,0.11667 0.561818,0.26245 0.894003,0.40463 0.134566,0.0576 0.269018,0.11317 0.401526,0.16743 v -0.33538 l 0.595312,-0.53382 v -0.60565 c 0.07438,-0.05 0.149378,-0.16414 0.225309,-0.34261 v 0.90537 l -0.580843,0.5178 v 0.41031 l 0.533301,-0.001 c 0.07283,-0.17346 0.180671,-0.28757 0.324011,-0.34261 -0.14644,0.0901 -0.249881,0.28048 -0.311092,0.57154 l -0.164331,-5.2e-4 c 0.102901,0.0377 0.196704,0.0707 0.268201,0.093 0.04475,0.0139 0.08231,0.0242 0.10697,0.03 0.0017,4e-4 0.002,1.9e-4 0.0036,5.2e-4 0.0016,-3.3e-4 0.0019,-1.2e-4 0.0036,-5.2e-4 0.02466,-0.006 0.06222,-0.016 0.10697,-0.03 0.0895,-0.0279 0.208901,-0.0699 0.345198,-0.12092 0.0319,-0.0119 0.07176,-0.0285 0.10542,-0.0413 -0.0376,-0.0316 -0.07833,-0.0532 -0.122473,-0.0651 -0.07748,-0.0209 -0.155062,-0.002 -0.232544,0.0574 0.0984,-0.19682 0.194085,-0.29711 0.287838,-0.30128 0.09375,-0.005 0.175212,0.0346 0.243396,0.11886 l 0.0801,-0.11266 v -1.19837 l -0.2651,-0.22531 -0.105936,0.0786 v 0.79685 c 0.05656,0.0117 0.108799,0.0613 0.156063,0.14883 l 0.202054,-0.29353 -0.001,0.14108 -0.263033,0.40514 c -0.05656,-0.10174 -0.141384,-0.1626 -0.255282,-0.18345 -0.113898,-0.0208 -0.208288,-0.002 -0.28267,0.0574 0.04417,-0.12843 0.118384,-0.19681 0.222209,-0.20515 v -0.62787 c -0.0922,0.0133 -0.173146,-0.0193 -0.242879,-0.0977 0.09298,0.0108 0.174179,-0.0118 0.243912,-0.0677 l 0.336414,-0.30902 c -0.03402,-0.013 -0.07423,-0.0298 -0.106454,-0.0419 -0.136297,-0.051 -0.2557,-0.093 -0.345198,-0.12092 -0.04475,-0.0139 -0.08231,-0.0242 -0.10697,-0.03 -0.0017,-4e-4 -0.002,-1.9e-4 -0.0036,-5.2e-4 z m 0.973584,0.35553 0.07183,0.0594 c 0.03367,0.022 0.07562,0.0295 0.12609,0.0233 -0.06636,-0.0277 -0.132891,-0.0561 -0.19792,-0.0827 z m -0.414445,0.063 v 0.83457 l -0.06511,-0.0589 v -0.71675 z m -0.991154,0.0248 -10e-4,0.56431 c -0.116222,-0.0592 -0.230008,-0.0624 -0.341581,-0.01 0.03874,-0.0934 0.130803,-0.131 0.276469,-0.11265 v -0.1416 c -0.0891,-0.0409 -0.174185,-0.0291 -0.254765,0.0351 0.01782,-0.0984 0.102901,-0.14616 0.254765,-0.14366 v -0.14521 z m 1.640727,0.0103 c -0.06433,0.0461 -0.114962,0.0676 -0.151929,0.0636 v 0.9772 c 0.04417,0.003 0.10985,0.0389 0.197404,0.10645 -0.07981,-0.0283 -0.144457,-0.03 -0.19482,-0.004 l -0.295072,0.39998 c 0.204227,-0.0811 0.419249,-0.1685 0.637687,-0.262 0.332185,-0.14218 0.656211,-0.28796 0.894519,-0.40463 0.119155,-0.0583 0.217005,-0.10949 0.282153,-0.14779 0.03257,-0.0192 0.05671,-0.0354 0.07028,-0.046 9.87e-4,-7.7e-4 6.89e-4,-3.6e-4 0.0016,-0.002 -8.12e-4,-7.4e-4 -5.15e-4,-8.4e-4 -0.0016,-0.002 -0.01357,-0.0106 -0.03771,-0.0268 -0.07028,-0.046 -0.06515,-0.0383 -0.162998,-0.0895 -0.282153,-0.14779 -0.238308,-0.11668 -0.562334,-0.26245 -0.894519,-0.40463 -0.06477,-0.0277 -0.128372,-0.0534 -0.19327,-0.0806 z m -4.057633,0.79116 c 0.0018,0.37797 0.01126,0.72746 0.02894,0.78187 0.03945,0.12141 0.968499,1.40033 1.07177,1.47536 0.103272,0.075 1.60661,0.56327 1.734261,0.56327 0.127651,0 1.630989,-0.48824 1.734261,-0.56327 0.103271,-0.075 1.03284,-1.35395 1.072286,-1.47536 0.01741,-0.0536 0.02638,-0.39354 0.02842,-0.76481 -0.07406,0.0433 -0.173985,0.0952 -0.294039,0.15399 -0.245394,0.12014 -0.572008,0.26756 -0.907955,0.41135 -0.335947,0.1438 -0.681001,0.28357 -0.961698,0.3886 -0.140348,0.0525 -0.264063,0.0963 -0.366386,0.12816 -0.05116,0.0159 -0.0965,0.0291 -0.139527,0.0393 -0.04303,0.0101 -0.0759,0.0202 -0.151412,0.0202 -0.07552,0 -0.108384,-0.01 -0.151412,-0.0202 -0.04303,-0.0101 -0.08836,-0.0233 -0.139526,-0.0393 -0.102323,-0.0319 -0.226038,-0.0756 -0.366386,-0.12816 -0.05613,-0.021 -0.123313,-0.0483 -0.183968,-0.0718 l -0.116272,-5.1e-4 c -0.133268,0.007 -0.24214,-0.0163 -0.326595,-0.0713 0.07669,0.002 0.138906,-0.007 0.186552,-0.0284 -0.16956,-0.0684 -0.345744,-0.14155 -0.520899,-0.21652 -0.335947,-0.14379 -0.66256,-0.29121 -0.907954,-0.41135 -0.122697,-0.0601 -0.225241,-0.11329 -0.299724,-0.15709 -0.0084,-0.005 -0.01505,-0.009 -0.02274,-0.014 z" />
  </g>
</svg>
