<?xml version="1.0" encoding="UTF-8" standalone="no"?>
<!-- Created with Inkscape (http://www.inkscape.org/) -->

<svg
   width="5.7151875mm"
   height="6.4037595mm"
   viewBox="0 0 5.7151875 6.4037595"
   version="1.1"
   id="svg1"
   xmlns="http://www.w3.org/2000/svg"
   xmlns:svg="http://www.w3.org/2000/svg">
  <defs
     id="defs1">
    <linearGradient
       id="swatch4">
      <stop
         style="stop-color:#000000;stop-opacity:1;"
         offset="0"
         id="stop4" />
    </linearGradient>
  </defs>
  <g
     id="layer2"
     style="stroke:#ffffff;stroke-opacity:1"
     transform="translate(-96.000715,-173.67362)">
    <path
       id="path63-83-25"
       style="fill:#000000;fill-opacity:1;stroke:none;stroke-width:0.174705;stroke-dasharray:none;stroke-opacity:1"
       d="m 98.85827,173.67364 c -0.139393,0 -2.055395,1.09551 -2.630848,1.48621 0.04375,-0.01 0.09191,-0.0191 0.149862,-0.0274 0.160719,-0.0229 0.377134,-0.0414 0.633036,-0.0563 0.511803,-0.0298 1.179748,-0.0439 1.84795,-0.0439 0.668203,0 1.33665,0.0141 1.84846,0.0439 0.2559,0.0149 0.4718,0.0333 0.63252,0.0563 0.0582,0.008 0.1065,0.0179 0.15038,0.0279 -0.57487,-0.3904 -2.491928,-1.48673 -2.63136,-1.48673 z m 0,1.56631 c -0.66512,0 -1.330264,0.0145 -1.835547,0.0439 -0.252641,0.0147 -0.465807,0.0338 -0.615983,0.0553 -0.07509,0.0107 -0.134385,0.0219 -0.172083,0.0326 -0.0029,8.2e-4 -0.0031,0.001 -0.0057,0.002 6.7e-4,0.003 -3.13e-4,0.003 5.16e-4,0.007 0.0096,0.038 0.02962,0.095 0.05788,0.16536 0.05651,0.14078 0.14635,0.33454 0.259932,0.56069 0.227165,0.4523 0.548007,1.03629 0.880567,1.6123 0.33256,0.57601 0.677379,1.14447 0.955497,1.56735 0.139059,0.21144 0.261351,0.38658 0.355017,0.50591 0.04683,0.0597 0.0866,0.10604 0.114722,0.13333 0.0022,0.002 0.0031,0.002 0.0052,0.004 0.0021,-0.002 0.0025,-0.002 0.0047,-0.004 0.02812,-0.0273 0.06892,-0.0737 0.115756,-0.13333 0.09367,-0.11933 0.215958,-0.29447 0.355017,-0.50591 0.278117,-0.42288 0.623453,-0.99134 0.956019,-1.56735 0.33256,-0.57601 0.65185,-1.16 0.87901,-1.6123 0.11359,-0.22615 0.20497,-0.41991 0.26148,-0.56069 0.0282,-0.0704 0.0478,-0.12735 0.0574,-0.16536 8.6e-4,-0.003 3.8e-4,-0.004 0.001,-0.007 -0.003,-8.2e-4 -0.003,-0.001 -0.006,-0.002 -0.0377,-0.0107 -0.097,-0.0219 -0.17208,-0.0326 -0.15017,-0.0215 -0.36335,-0.0406 -0.61599,-0.0553 -0.50528,-0.0294 -1.170942,-0.0439 -1.836062,-0.0439 z m -2.823084,0.21601 c -0.05363,0.65086 -0.04456,2.93953 0.02635,3.06234 0.07146,0.12378 2.077521,1.29183 2.650484,1.55908 -0.0011,-0.001 -0.002,-0.002 -0.0031,-0.003 -0.03992,-0.0387 -0.08372,-0.0891 -0.133842,-0.15297 -0.100242,-0.12771 -0.225015,-0.30621 -0.365869,-0.52038 -0.281706,-0.42833 -0.628115,-0.999 -0.962216,-1.57768 -0.334101,-0.57868 -0.655121,-1.16451 -0.885217,-1.62264 -0.115048,-0.22906 -0.207207,-0.42656 -0.267684,-0.57722 -0.02609,-0.065 -0.04516,-0.1192 -0.05891,-0.16795 z m 5.646164,0.002 c -0.0138,0.0484 -0.0321,0.10208 -0.0579,0.1664 -0.0605,0.15067 -0.15316,0.34815 -0.2682,0.57722 -0.2301,0.45813 -0.5506,1.04395 -0.8847,1.62264 -0.3341,0.57867 -0.681021,1.14934 -0.962728,1.57768 -0.140853,0.21416 -0.265109,0.39267 -0.365352,0.52038 -0.05012,0.0639 -0.09444,0.11422 -0.134359,0.15297 -9.04e-4,8.2e-4 -0.0017,0.002 -0.0026,0.002 0.574471,-0.26826 2.578539,-1.43486 2.649959,-1.55856 0.0709,-0.12269 0.0793,-2.40746 0.0258,-3.06079 z m -2.71301,0.36948 c 0.01705,0.10175 0.0729,0.16261 0.167432,0.18346 0.09453,0.0208 0.176246,0.002 0.24598,-0.0574 -0.07748,0.2035 -0.172907,0.30967 -0.286804,0.31885 -0.113898,0.009 -0.204151,-0.0424 -0.270785,-0.15503 l -0.125574,0.0749 z m -0.800984,0.0258 c 0.0015,0.13094 0.08378,0.20187 0.246496,0.21188 l -0.110587,0.14624 -10e-4,1.38338 0.197404,0.0863 c 0.04959,-0.0567 0.111394,-0.0834 0.185002,-0.0801 -0.07128,0.0367 -0.167484,0.1447 -0.288355,0.32401 l -0.277502,-0.1049 c -0.03564,0.055 -0.117619,0.0856 -0.245463,0.0915 0.09608,-0.0459 0.163314,-0.1113 0.202055,-0.19637 l 0.0015,-1.49913 c -0.04107,-0.007 -0.07313,-0.0255 -0.0956,-0.0563 l -0.193786,0.0703 z m 1.218013,0.11007 0.241846,0.20929 c 0.05036,0.0259 0.115531,0.0242 0.195337,-0.004 -0.08755,0.0676 -0.153757,0.10312 -0.197921,0.10645 v 0.3514 l -0.44235,0.154 0.441316,0.15399 v 0.73329 c 0.109249,0.003 0.211398,0.0739 0.305925,0.21239 -0.04416,-0.0575 -0.149675,-0.0861 -0.31626,-0.0853 l -0.227893,-0.20981 v -0.64802 l -0.360185,-0.14263 0.360185,-0.16898 z m -0.961182,0.1664 v 1.34255 l -0.06511,0.0589 v -1.31 z m 0.926559,0.82734 -0.0016,0.56379 c -0.116223,-0.0592 -0.230008,-0.0624 -0.341582,-0.01 0.03874,-0.0934 0.130804,-0.131 0.276469,-0.11265 v -0.14108 c -0.0891,-0.0409 -0.173667,-0.0296 -0.254248,0.0346 0.01782,-0.0984 0.102385,-0.14616 0.254248,-0.14366 v -0.14521 z m -0.387057,0.52245 c 0.02557,0.10175 0.07858,0.16312 0.159164,0.18397 0.08058,0.0208 0.172385,0.002 0.275435,-0.0574 -0.09685,0.18681 -0.204431,0.28892 -0.322977,0.30644 -0.117772,0.0175 -0.226644,-0.03 -0.326596,-0.14263 l -0.173116,0.0625 z" />
  </g>
</svg>
