<?xml version="1.0" encoding="UTF-8" standalone="no"?>
<!-- Created with Inkscape (http://www.inkscape.org/) -->

<svg
   width="5.7152157mm"
   height="6.4037595mm"
   viewBox="0 0 5.7152157 6.4037595"
   version="1.1"
   id="svg1"
   xmlns="http://www.w3.org/2000/svg"
   xmlns:svg="http://www.w3.org/2000/svg">
  <defs
     id="defs1">
    <linearGradient
       id="swatch4">
      <stop
         style="stop-color:#000000;stop-opacity:1;"
         offset="0"
         id="stop4" />
    </linearGradient>
  </defs>
  <g
     id="layer2"
     style="stroke:#ffffff;stroke-opacity:1"
     transform="translate(-26.167381,-173.6669)">
    <path
       id="path63-83-8"
       style="fill:#000000;fill-opacity:1;stroke:none;stroke-width:0.174705;stroke-dasharray:none;stroke-opacity:1"
       d="m 29.024955,173.66692 c -0.139393,0 -2.055394,1.09551 -2.630847,1.48621 0.04375,-0.01 0.09191,-0.0191 0.149861,-0.0274 0.160719,-0.0229 0.377135,-0.0414 0.633037,-0.0563 0.511803,-0.0298 1.179747,-0.0439 1.847949,-0.0439 0.668203,0 1.336663,0.0141 1.848466,0.0439 0.255901,0.0149 0.4718,0.0333 0.632519,0.0563 0.05819,0.008 0.106505,0.0179 0.150379,0.0279 -0.574861,-0.3904 -2.491932,-1.48673 -2.631364,-1.48673 z m 0,1.56631 c -0.66512,0 -1.330264,0.0145 -1.835547,0.0439 -0.252641,0.0147 -0.465807,0.0338 -0.615983,0.0553 -0.07509,0.0107 -0.134385,0.0218 -0.172083,0.0326 -0.0029,8.2e-4 -0.0031,0.001 -0.0057,0.002 6.7e-4,0.003 -3.12e-4,0.003 5.17e-4,0.007 0.0096,0.038 0.02962,0.095 0.05788,0.16537 0.05651,0.14078 0.146351,0.33454 0.259933,0.56069 0.227165,0.4523 0.548006,1.03629 0.880566,1.6123 0.33256,0.57601 0.677379,1.14447 0.955497,1.56735 0.139059,0.21144 0.261351,0.38658 0.355017,0.50591 0.04683,0.0597 0.0866,0.10603 0.114722,0.13332 0.0022,0.002 0.0031,0.002 0.0052,0.004 0.0021,-0.002 0.0026,-0.002 0.0047,-0.004 0.02812,-0.0273 0.06892,-0.0737 0.115755,-0.13332 0.09367,-0.11933 0.215958,-0.29447 0.355017,-0.50591 0.278117,-0.42288 0.623453,-0.99134 0.956014,-1.56735 0.33256,-0.57601 0.651851,-1.16 0.879016,-1.6123 0.113582,-0.22615 0.204974,-0.41991 0.261483,-0.56069 0.02826,-0.0704 0.04778,-0.12736 0.05736,-0.16537 8.63e-4,-0.003 3.81e-4,-0.004 10e-4,-0.007 -0.0026,-8.2e-4 -0.0033,-0.001 -0.0062,-0.002 -0.0377,-0.0107 -0.09699,-0.0218 -0.172083,-0.0326 -0.150176,-0.0215 -0.363341,-0.0406 -0.615983,-0.0553 -0.505283,-0.0294 -1.170943,-0.0439 -1.836063,-0.0439 z m -2.823084,0.21549 c -0.05367,0.65032 -0.04457,2.94002 0.02636,3.06286 0.07146,0.12378 2.077521,1.29183 2.650484,1.55908 -0.0011,-0.001 -0.002,-0.002 -0.0031,-0.003 -0.03992,-0.0387 -0.08372,-0.0891 -0.133842,-0.15296 -0.100242,-0.12771 -0.225015,-0.30621 -0.365869,-0.52038 -0.281706,-0.42833 -0.628114,-0.999 -0.962215,-1.57768 -0.334101,-0.57868 -0.655122,-1.16451 -0.885218,-1.62264 -0.115048,-0.22906 -0.207207,-0.42657 -0.267684,-0.57723 -0.02609,-0.065 -0.04516,-0.1192 -0.05891,-0.16795 z m 5.646167,0.002 c -0.01374,0.0484 -0.03206,0.10208 -0.05788,0.1664 -0.06048,0.15067 -0.153154,0.34815 -0.268201,0.57722 -0.230097,0.45813 -0.5506,1.04395 -0.884701,1.62264 -0.334101,0.57867 -0.681025,1.14934 -0.962732,1.57768 -0.140853,0.21416 -0.265109,0.39268 -0.365352,0.52039 -0.05012,0.0639 -0.09444,0.11421 -0.134359,0.15296 -9.04e-4,8.2e-4 -0.0017,0.002 -0.0026,0.002 0.574471,-0.26826 2.578549,-1.43487 2.649967,-1.55857 0.07083,-0.12269 0.0793,-2.40745 0.02584,-3.06079 z m -2.669604,0.37879 c 0.02014,0.10174 0.08221,0.16312 0.186035,0.18397 0.1046,0.0208 0.19718,0.002 0.278536,-0.0574 -0.09143,0.17014 -0.200559,0.25752 -0.327629,0.26252 -0.126295,0.005 -0.228185,-0.0278 -0.306441,-0.0987 l -0.137459,0.0625 z m 0.235644,0.40049 v 1.06453 l 0.221175,0.002 v 0.0811 l -0.221175,-0.003 v 0.1602 l 0.09198,0.0713 c 0.03487,-0.055 0.09435,-0.0816 0.178801,-0.0791 -0.05811,0.0292 -0.148364,0.156 -0.270785,0.38034 l -0.19637,-0.14625 c -0.07438,0.0742 -0.172652,0.12158 -0.295073,0.1416 0.101501,-0.0642 0.17753,-0.14551 0.227893,-0.24392 v -0.26303 h -0.556551 v -0.0951 l 0.556555,0.002 v -1.06454 c 0.08833,0.0317 0.175996,0.029 0.26355,-0.008 z m -0.278536,0.0124 c -0.106924,0.04 -0.210883,0.34598 -0.311609,0.91726 -0.14334,0.12927 -0.296175,0.16392 -0.458886,0.10387 0.118546,0.0275 0.248107,-0.13688 0.389123,-0.49299 0.141017,-0.35611 0.268249,-0.53231 0.381372,-0.52814 z" />
  </g>
</svg>
