<?xml version="1.0" encoding="UTF-8" standalone="no"?>
<!-- Created with Inkscape (http://www.inkscape.org/) -->

<svg
   width="5.7248201mm"
   height="5.6291137mm"
   viewBox="0 0 5.7248201 5.6291137"
   version="1.1"
   id="svg1"
   xmlns="http://www.w3.org/2000/svg"
   xmlns:svg="http://www.w3.org/2000/svg">
  <defs
     id="defs1">
    <linearGradient
       id="swatch4">
      <stop
         style="stop-color:#000000;stop-opacity:1;"
         offset="0"
         id="stop4" />
    </linearGradient>
  </defs>
  <g
     id="layer2"
     style="stroke:#ffffff;stroke-opacity:1"
     transform="translate(-26.162579,-181.08921)">
    <path
       id="path24-11-10-6"
       style="display:inline;fill:#000000;fill-opacity:1;stroke:none;stroke-width:0.200527;stroke-dasharray:none;stroke-opacity:1"
       d="m 29.024585,181.0892 c -1.165468,0 -2.328544,0.0383 -2.640666,0.11421 l 2.666504,1.89446 2.592607,-1.90014 c -0.344045,-0.0724 -1.48079,-0.10853 -2.618445,-0.10853 z m 2.756421,0.2558 -2.569352,1.88361 c 0.0366,0.0272 0.07543,0.0602 0.119889,0.1018 0.09943,0.093 0.222021,0.22296 0.361218,0.37827 0.278395,0.31061 0.62086,0.72419 0.950847,1.1436 0.329988,0.4194 0.646973,0.84394 0.874365,1.17616 0.113695,0.16612 0.204598,0.30943 0.264583,0.41909 0.0049,0.009 0.0084,0.0163 0.01292,0.0248 0.127186,-0.88983 0.122416,-4.44123 -0.01447,-5.12734 z m -5.515943,0.0202 c -0.135481,0.74634 -0.136583,4.35136 -0.0036,5.15162 0.01047,-0.0216 0.0224,-0.0442 0.03617,-0.0693 0.05998,-0.10966 0.150887,-0.25297 0.264583,-0.41909 0.227391,-0.33222 0.544378,-0.75676 0.874365,-1.17616 0.329987,-0.41941 0.672969,-0.83299 0.951363,-1.1436 0.139198,-0.15531 0.261275,-0.28532 0.360702,-0.37827 0.0479,-0.0448 0.09066,-0.0803 0.129708,-0.10852 z m 2.774508,1.98075 c -0.02679,0.0195 -0.06305,0.0504 -0.10697,0.0915 -0.09203,0.086 -0.21267,0.21229 -0.34985,0.36535 -0.27436,0.30611 -0.615356,0.71814 -0.943611,1.13534 -0.328254,0.4172 -0.644068,0.83996 -0.868164,1.16737 -0.112047,0.16371 -0.200791,0.30415 -0.256315,0.40566 -0.02652,0.0485 -0.0436,0.0864 -0.05323,0.11317 0.03645,0.007 0.09037,0.0154 0.160197,0.0227 0.147557,0.0155 0.356937,0.0286 0.606164,0.0393 0.498455,0.0213 1.155267,0.032 1.811776,0.032 0.656509,0 1.313838,-0.0108 1.812293,-0.032 0.249228,-0.0106 0.459641,-0.0238 0.607198,-0.0393 0.07023,-0.007 0.123761,-0.0155 0.160197,-0.0227 -0.0096,-0.0268 -0.02773,-0.0647 -0.05426,-0.11317 -0.05552,-0.10151 -0.144267,-0.24195 -0.256315,-0.40566 -0.224095,-0.32741 -0.540426,-0.75017 -0.868681,-1.16737 -0.328255,-0.4172 -0.669251,-0.82923 -0.943611,-1.13534 -0.137179,-0.15306 -0.2573,-0.27932 -0.349333,-0.36535 -0.04392,-0.0411 -0.0807,-0.072 -0.107487,-0.0915 z m 0.13901,1.02216 c 0.02014,0.10175 0.08221,0.16312 0.186035,0.18397 0.1046,0.0208 0.19718,0.001 0.278536,-0.0579 -0.09143,0.17013 -0.200559,0.25802 -0.327629,0.26303 -0.126295,0.005 -0.228185,-0.0283 -0.306441,-0.0992 l -0.137459,0.0625 z m 0.235644,0.39998 v 1.06453 l 0.221175,0.002 v 0.0811 l -0.221175,-0.003 v 0.1602 l 0.09198,0.0713 c 0.03487,-0.055 0.09435,-0.0811 0.178801,-0.0785 -0.05811,0.0292 -0.148364,0.15599 -0.270785,0.38033 l -0.19637,-0.14676 c -0.07438,0.0742 -0.172652,0.12158 -0.295073,0.1416 0.101501,-0.0642 0.17753,-0.14551 0.227893,-0.24392 v -0.26251 H 28.59412 v -0.0951 l 0.556555,0.001 v -1.06454 c 0.08833,0.0317 0.175996,0.029 0.26355,-0.008 z m -0.278536,0.0129 c -0.106924,0.04 -0.210883,0.34546 -0.311609,0.91674 -0.14334,0.12927 -0.296175,0.16392 -0.458886,0.10387 0.118546,0.0275 0.248107,-0.13688 0.389123,-0.49299 0.141017,-0.35611 0.268249,-0.53179 0.381372,-0.52762 z" />
  </g>
</svg>
