<?xml version="1.0" encoding="UTF-8" standalone="no"?>
<!-- Created with Inkscape (http://www.inkscape.org/) -->

<svg
   width="6.1494956mm"
   height="6.1494951mm"
   viewBox="0 0 6.1494956 6.1494951"
   version="1.1"
   id="svg1"
   xmlns="http://www.w3.org/2000/svg"
   xmlns:svg="http://www.w3.org/2000/svg">
  <defs
     id="defs1">
    <linearGradient
       id="swatch4">
      <stop
         style="stop-color:#000000;stop-opacity:1;"
         offset="0"
         id="stop4" />
    </linearGradient>
  </defs>
  <g
     id="layer2"
     style="stroke:#ffffff;stroke-opacity:1"
     transform="translate(-25.950353,-166.15005)">
    <path
       id="path225-00-3"
       style="fill:#000000;fill-opacity:1;stroke:none;stroke-width:0.200527;stroke-dasharray:none;stroke-opacity:1"
       d="m 27.751278,166.15007 -0.01499,0.015 0.03669,-0.015 z m 0.108003,0 0.316777,0.77979 1.697054,-0.001 0.310575,-0.77876 z m 2.434477,0 0.0083,0.003 -0.0031,-0.003 z m 0.07648,0.0718 -0.312642,0.78909 1.187524,1.18805 0.777731,-0.32453 z m -2.696476,0.006 -1.648478,1.64847 0.780831,0.32092 1.185457,-1.18495 z m 0.483175,0.90175 -1.226799,1.22732 v 1.73529 l 1.226799,1.22783 1.735294,-0.001 1.226799,-1.2268 5.17e-4,-1.73529 -1.227316,-1.2268 z m -2.191081,0.80615 -0.0155,0.0155 v 0.0222 z m 6.133476,0.12558 -0.779281,0.32452 v 1.67277 l 0.779797,0.32866 z m -6.148979,0.001 v 2.32699 l 0.779281,-0.33486 v -1.6707 z m 3.228227,0.12299 c 0.02014,0.10175 0.08221,0.16312 0.186035,0.18397 0.1046,0.0208 0.19718,0.002 0.278536,-0.0574 -0.09143,0.17013 -0.200559,0.25751 -0.327629,0.26251 -0.126295,0.005 -0.228185,-0.0278 -0.306441,-0.0987 l -0.137459,0.0625 z m 0.235644,0.40049 v 1.06454 l 0.221175,0.002 v 0.0811 l -0.221175,-0.003 v 0.16019 l 0.09198,0.0713 c 0.03487,-0.055 0.09435,-0.0816 0.178801,-0.0791 -0.05811,0.0292 -0.148364,0.156 -0.270785,0.38034 l -0.19637,-0.14625 c -0.07438,0.0742 -0.172652,0.12158 -0.295073,0.1416 0.101501,-0.0642 0.17753,-0.1455 0.227893,-0.24391 v -0.26304 h -0.55655 v -0.0951 l 0.556555,0.002 v -1.06454 c 0.08833,0.0317 0.175996,0.029 0.26355,-0.008 z m -0.278536,0.0124 c -0.106924,0.04 -0.210883,0.34598 -0.311609,0.91726 -0.14334,0.12927 -0.296175,0.16392 -0.458886,0.10387 0.118546,0.0275 0.248107,-0.13688 0.389123,-0.49299 0.141017,-0.35611 0.268249,-0.53231 0.381372,-0.52814 z m -2.337842,1.6459 -0.769978,0.33176 1.650028,1.65003 0.318327,-0.78393 z m 4.450375,0.003 -1.203544,1.20354 0.330212,0.77205 1.648478,-1.64848 z m -5.297868,0.23254 v 0.0186 l 0.01395,0.0139 z m 2.230872,1.03973 -0.316777,0.7798 h 2.326473 l -0.336414,-0.77928 z m -0.442351,0.7674 0.0124,0.0124 h 0.01757 z" />
  </g>
</svg>
