<?xml version="1.0" encoding="UTF-8" standalone="no"?>
<!-- Created with Inkscape (http://www.inkscape.org/) -->

<svg
   width="5.670455mm"
   height="5.9009318mm"
   viewBox="0 0 5.670455 5.9009318"
   version="1.1"
   id="svg1"
   xmlns="http://www.w3.org/2000/svg"
   xmlns:svg="http://www.w3.org/2000/svg">
  <defs
     id="defs1">
    <linearGradient
       id="swatch4">
      <stop
         style="stop-color:#000000;stop-opacity:1;"
         offset="0"
         id="stop4" />
    </linearGradient>
  </defs>
  <g
     id="layer2"
     style="stroke:#ffffff;stroke-opacity:1"
     transform="translate(-3.0158367,-195.6294)">
    <path
       id="path237-317"
       style="fill:#000000;fill-opacity:1;stroke:none;stroke-width:0.200527;stroke-dasharray:none;stroke-opacity:1"
       d="m 5.8508057,195.6294 c -0.127651,0 -1.6309893,0.48825 -1.7342611,0.56328 -0.1032718,0.075 -1.0323229,1.35396 -1.0717692,1.47536 -0.018285,0.0563 -0.027606,0.4279 -0.028939,0.82062 0.00769,-0.005 0.014372,-0.009 0.022738,-0.014 0.074483,-0.0438 0.1770264,-0.097 0.2997233,-0.1571 0.2453939,-0.12015 0.5720078,-0.26755 0.9079549,-0.41134 0.3359472,-0.14379 0.6804852,-0.28357 0.9611817,-0.38861 0.1403482,-0.0525 0.2640634,-0.0963 0.3663859,-0.12816 0.051161,-0.0159 0.096499,-0.0286 0.1395264,-0.0388 0.043028,-0.0101 0.075897,-0.0207 0.1514119,-0.0207 0.075514,0 0.1083842,0.0105 0.1514119,0.0207 0.043028,0.0101 0.088365,0.0228 0.1395264,0.0388 0.1023225,0.0319 0.2260374,0.0756 0.3663859,0.12816 0.2806964,0.10504 0.6257512,0.24482 0.9616984,0.38861 0.3359473,0.14379 0.6625611,0.29119 0.9079549,0.41134 0.120239,0.0589 0.2204686,0.11072 0.2945557,0.154 -0.00156,-0.38625 -0.010921,-0.74812 -0.028939,-0.80357 -0.039446,-0.1214 -0.9690143,-1.40033 -1.072286,-1.47536 -0.1032719,-0.075 -1.6066101,-0.56328 -1.734261,-0.56328 z m 0.013953,1.83555 c -0.00162,3.3e-4 -0.00193,1.2e-4 -0.00362,5.2e-4 -0.024662,0.006 -0.062222,0.016 -0.1069703,0.03 -0.089497,0.0279 -0.2083856,0.0699 -0.3446818,0.12092 -0.2725921,0.102 -0.6145271,0.24073 -0.9467122,0.38292 -0.332185,0.14218 -0.6556935,0.28795 -0.8940023,0.40463 -0.1191544,0.0583 -0.2170061,0.10948 -0.2821533,0.14779 -0.032574,0.0191 -0.05671,0.0354 -0.07028,0.046 -9.877e-4,7.7e-4 -7.392e-4,8.7e-4 -0.00155,0.002 8.113e-4,7.4e-4 5.628e-4,8.5e-4 0.00155,0.002 0.01357,0.0106 0.037707,0.0268 0.07028,0.046 0.065147,0.0383 0.1629989,0.0894 0.2821533,0.1478 0.2383088,0.11667 0.5618173,0.26244 0.8940023,0.40462 0.3321851,0.14219 0.6741201,0.28092 0.9467122,0.38293 0.1362962,0.051 0.2551844,0.093 0.3446818,0.12092 0.044749,0.0139 0.082309,0.0242 0.1069703,0.03 0.00169,4e-4 0.002,1.9e-4 0.00362,5.2e-4 0.00163,-3.3e-4 0.00193,-1.2e-4 0.00362,-5.2e-4 0.024662,-0.006 0.062222,-0.016 0.1069702,-0.03 0.089497,-0.0279 0.2089022,-0.0699 0.3451985,-0.12092 0.272592,-0.10201 0.6140105,-0.24074 0.9461955,-0.38293 0.332185,-0.14218 0.6562106,-0.28795 0.8945191,-0.40462 0.1191547,-0.0583 0.2170059,-0.1095 0.2821533,-0.1478 0.032573,-0.0192 0.05671,-0.0354 0.07028,-0.046 9.877e-4,-7.7e-4 7.387e-4,-8.8e-4 0.00155,-0.002 -8.114e-4,-7.4e-4 -5.634e-4,-8.4e-4 -0.00155,-0.002 -0.01357,-0.0106 -0.037705,-0.0268 -0.07028,-0.046 -0.065147,-0.0383 -0.1629986,-0.0895 -0.2821533,-0.14779 -0.2383085,-0.11668 -0.5623341,-0.26245 -0.8945191,-0.40463 -0.332185,-0.14219 -0.6736035,-0.28092 -0.9461955,-0.38292 -0.1362963,-0.051 -0.2557011,-0.093 -0.3451985,-0.12092 -0.044749,-0.0139 -0.082309,-0.0242 -0.1069702,-0.03 -0.00169,-4e-4 -0.00199,-1.9e-4 -0.00362,-5.2e-4 z m -0.082166,0.0791 c 0.00155,0.13094 0.083269,0.20135 0.2459798,0.21136 l -0.1100708,0.14625 -0.00155,1.38389 0.1979207,0.0863 c 0.049588,-0.0567 0.1108775,-0.0834 0.1844849,-0.0801 -0.071283,0.0367 -0.1669666,0.14471 -0.2878377,0.32401 L 5.7335002,199.5103 c -0.035641,0.055 -0.1171019,0.0856 -0.2449463,0.0915 0.096077,-0.0459 0.1633141,-0.1113 0.2020548,-0.19637 l 0.00103,-1.49862 c -0.041065,-0.007 -0.072615,-0.0255 -0.095085,-0.0563 l -0.1943034,0.0703 z m 0.2568318,0.27647 v 1.34204 l -0.065112,0.0589 v -1.30948 z m -3.023588,0.88935 c 0.00183,0.37797 0.011258,0.72746 0.028939,0.78187 0.039446,0.12141 0.9684974,1.40033 1.0717692,1.47536 0.1032718,0.075 1.6066101,0.56327 1.7342611,0.56327 0.1276509,0 1.6309891,-0.48824 1.734261,-0.56327 0.1032717,-0.075 1.0328398,-1.35395 1.072286,-1.47536 0.017412,-0.0536 0.026382,-0.39354 0.028422,-0.76481 -0.074056,0.0433 -0.1739846,0.0952 -0.2940389,0.15399 -0.2453938,0.12014 -0.5720076,0.26756 -0.9079549,0.41135 -0.3359472,0.1438 -0.681002,0.28357 -0.9616984,0.3886 -0.1403485,0.0525 -0.2640634,0.0963 -0.3663859,0.12816 -0.051161,0.0159 -0.096499,0.0291 -0.1395264,0.0393 -0.043028,0.0101 -0.075897,0.0201 -0.1514119,0.0201 -0.075515,0 -0.1083842,-0.01 -0.1514119,-0.0201 -0.043028,-0.0101 -0.088365,-0.0233 -0.1395264,-0.0393 -0.1023225,-0.0319 -0.2260377,-0.0756 -0.3663859,-0.12816 -0.2806965,-0.10503 -0.6252345,-0.2448 -0.9611817,-0.3886 -0.3359471,-0.14379 -0.662561,-0.29121 -0.9079549,-0.41135 -0.1226969,-0.0601 -0.2252403,-0.11329 -0.2997233,-0.15709 -0.00837,-0.005 -0.01505,-0.009 -0.022738,-0.014 z" />
  </g>
</svg>
