<?xml version="1.0" encoding="UTF-8" standalone="no"?>
<!-- Created with Inkscape (http://www.inkscape.org/) -->

<svg
   width="6.7473021mm"
   height="6.0509062mm"
   viewBox="0 0 6.7473021 6.0509062"
   version="1.1"
   id="svg1"
   xmlns="http://www.w3.org/2000/svg"
   xmlns:svg="http://www.w3.org/2000/svg">
  <defs
     id="defs1">
    <linearGradient
       id="swatch4">
      <stop
         style="stop-color:#000000;stop-opacity:1;"
         offset="0"
         id="stop4" />
    </linearGradient>
  </defs>
  <g
     id="layer2"
     style="stroke:#ffffff;stroke-opacity:1"
     transform="translate(-10.245673,-105.93357)">
    <path
       id="path188"
       style="display:inline;fill:#000000;fill-opacity:1;stroke:none;stroke-width:1.69612;stroke-dasharray:none;stroke-opacity:1"
       onmouseover=""
       d="m 40.852911,14.221 c -2.848073,0 -29.905157,46.864057 -28.481121,49.33056 1.424036,2.466503 55.538205,2.466503 56.962241,0 C 70.758068,61.085057 43.700983,14.221 40.852911,14.221 Z m -1.831429,21.500711 c 0.367003,0.860597 0.959774,1.417445 1.778977,1.678446 0.819203,0.253946 1.965374,-0.266851 3.439939,-1.564801 -1.042026,2.116223 -2.054768,3.290202 -3.037811,3.522987 -0.97649,0.232784 -1.934548,-0.255339 -2.871715,-1.46864 l -1.158303,0.603191 z m 5.433093,0.166096 v 7.662279 l -4.91295,4.379693 v 3.470536 l 4.510822,-0.0087 c 0.616041,-1.467248 1.532538,-2.436743 2.744958,-2.902312 -1.238635,0.76184 -2.117948,2.376771 -2.635684,4.838643 l -6.281057,-0.02185 c -1.127223,0.06349 -2.048097,-0.137623 -2.762442,-0.603192 1.271403,0.03527 2.071971,-0.307658 2.399653,-1.027173 V 48.428114 L 42.54884,43.90855 v -5.118385 c 0.629148,-0.423244 1.26348,-1.39274 1.905735,-2.902312 z"
       transform="matrix(0.11822696,0,0,0.11822696,8.7894083,104.25228)" />
  </g>
</svg>
