<?xml version="1.0" encoding="UTF-8" standalone="no"?>
<!-- Created with Inkscape (http://www.inkscape.org/) -->

<svg
   width="5.7248688mm"
   height="5.6291137mm"
   viewBox="0 0 5.7248688 5.6291137"
   version="1.1"
   id="svg1"
   xmlns="http://www.w3.org/2000/svg"
   xmlns:svg="http://www.w3.org/2000/svg">
  <defs
     id="defs1">
    <linearGradient
       id="swatch4">
      <stop
         style="stop-color:#000000;stop-opacity:1;"
         offset="0"
         id="stop4" />
    </linearGradient>
  </defs>
  <g
     id="layer2"
     style="stroke:#ffffff;stroke-opacity:1"
     transform="translate(-126.83236,-181.08921)">
    <path
       id="path24-11-10-7"
       style="display:inline;fill:#000000;fill-opacity:1;stroke:none;stroke-width:0.200527;stroke-dasharray:none;stroke-opacity:1"
       d="m 129.69441,181.0892 c -1.16547,0 -2.32854,0.0383 -2.64067,0.11421 l 2.66651,1.89446 2.5926,-1.90014 c -0.34404,-0.0724 -1.48079,-0.10853 -2.61844,-0.10853 z m 2.75642,0.2558 -2.56935,1.88361 c 0.0366,0.0272 0.0754,0.0602 0.11989,0.1018 0.0994,0.093 0.22203,0.22296 0.36122,0.37827 0.2784,0.31061 0.62085,0.72419 0.95084,1.1436 0.32999,0.4194 0.64698,0.84394 0.87437,1.17616 0.11369,0.16612 0.2046,0.30943 0.26458,0.41909 0.005,0.009 0.008,0.0163 0.0129,0.0248 0.12719,-0.88983 0.12244,-4.44123 -0.0145,-5.12734 z m -5.51594,0.0202 c -0.13548,0.74634 -0.13669,4.35136 -0.004,5.15162 0.0105,-0.0216 0.0224,-0.0442 0.0362,-0.0693 0.06,-0.10966 0.15089,-0.25297 0.26459,-0.41909 0.22739,-0.33222 0.54437,-0.75676 0.87436,-1.17616 0.32998,-0.41941 0.67297,-0.83299 0.95137,-1.1436 0.1392,-0.15531 0.26127,-0.28532 0.3607,-0.37827 0.0479,-0.0448 0.0907,-0.0803 0.1297,-0.10852 z m 2.77451,1.98075 c -0.0268,0.0195 -0.063,0.0504 -0.10697,0.0915 -0.092,0.086 -0.21267,0.21229 -0.34985,0.36535 -0.27436,0.30611 -0.61536,0.71814 -0.94362,1.13534 -0.32825,0.4172 -0.64407,0.83996 -0.86816,1.16737 -0.11205,0.16371 -0.20079,0.30415 -0.25632,0.40566 -0.0265,0.0485 -0.0431,0.0864 -0.0527,0.11317 0.0365,0.007 0.0899,0.0154 0.15969,0.0227 0.14756,0.0155 0.35745,0.0286 0.60668,0.0393 0.49845,0.0213 1.15476,0.032 1.81126,0.032 0.65651,0 1.31434,-0.0108 1.8128,-0.032 0.24922,-0.0106 0.45964,-0.0238 0.6072,-0.0393 0.0702,-0.007 0.12325,-0.0155 0.15968,-0.0227 -0.01,-0.0268 -0.0277,-0.0647 -0.0543,-0.11317 -0.0555,-0.10151 -0.14427,-0.24195 -0.25631,-0.40566 -0.2241,-0.32741 -0.54043,-0.75017 -0.86868,-1.16737 -0.32826,-0.4172 -0.66925,-0.82923 -0.94361,-1.13534 -0.13718,-0.15306 -0.25731,-0.27932 -0.34934,-0.36535 -0.0439,-0.0411 -0.0807,-0.072 -0.10748,-0.0915 z m 0.88625,0.99168 c -0.16581,0.23518 -0.32951,0.36493 -0.49145,0.38912 -0.16116,0.0233 -0.28787,-0.0131 -0.3793,-0.10904 l -0.17415,0.0791 0.27647,-0.35192 c 0.055,0.0801 0.15405,0.12558 0.29662,0.13643 0.14257,0.01 0.2998,-0.0377 0.47181,-0.14366 z m -1.45159,0.007 c 0.002,0.13094 0.0838,0.20135 0.24649,0.21136 l -0.11059,0.14676 -10e-4,1.38338 0.1974,0.0863 c 0.0496,-0.0567 0.1114,-0.0834 0.18501,-0.0801 -0.0713,0.0367 -0.16749,0.1447 -0.28836,0.32401 l -0.27802,-0.1049 c -0.0356,0.055 -0.1171,0.0856 -0.24494,0.0915 0.0961,-0.0459 0.16331,-0.11182 0.20205,-0.19688 l 0.002,-1.49862 c -0.0411,-0.007 -0.0731,-0.0255 -0.0956,-0.0563 l -0.19379,0.0703 z m 1.4366,0.0326 c -0.12779,0.29082 -0.22956,0.61584 -0.30541,0.97461 0.10666,0.003 0.22327,-0.0239 0.35037,-0.0811 -0.12737,0.13296 -0.25291,0.20417 -0.37724,0.21446 -0.0362,0.19111 -0.0652,0.39147 -0.0873,0.601 l 0.1974,0.0863 c 0.0496,-0.0567 0.1114,-0.0834 0.185,-0.0801 -0.0713,0.0367 -0.16748,0.1447 -0.28835,0.32401 l -0.30076,-0.1049 c -0.10847,0.0992 -0.24476,0.12983 -0.40824,0.0915 0.16736,0.004 0.2889,-0.0618 0.36483,-0.19688 0.0615,-0.27581 0.12156,-0.51875 0.18035,-0.73019 -0.0548,-0.0124 -0.10165,-0.0349 -0.14056,-0.0677 l -0.13384,0.0465 0.21394,-0.20929 c 0.0238,0.0363 0.0585,0.0633 0.10336,0.0811 0.12174,-0.40991 0.23793,-0.67901 0.34778,-0.80667 z m -1.17977,0.24391 v 1.34255 l -0.0651,0.0589 v -1.30999 z m 0.65422,0.92346 -0.18707,0.65784 c -0.0953,-0.0517 -0.20598,-0.0173 -0.33228,0.10283 0.0682,-0.15678 0.17137,-0.23178 0.31006,-0.22427 l 0.0501,-0.1447 c -0.0744,-0.035 -0.16334,-0.0169 -0.26717,0.0548 0.0527,-0.10258 0.15432,-0.15806 0.30541,-0.1664 l 0.0734,-0.22996 z" />
  </g>
</svg>
