<?xml version="1.0" encoding="UTF-8" standalone="no"?>
<!-- Created with Inkscape (http://www.inkscape.org/) -->

<svg
   width="6.2030582mm"
   height="6.4538693mm"
   viewBox="0 0 6.2030582 6.4538693"
   version="1.1"
   id="svg1"
   xmlns="http://www.w3.org/2000/svg"
   xmlns:svg="http://www.w3.org/2000/svg">
  <defs
     id="defs1">
    <linearGradient
       id="swatch4">
      <stop
         style="stop-color:#000000;stop-opacity:1;"
         offset="0"
         id="stop4" />
    </linearGradient>
  </defs>
  <g
     id="layer2"
     style="stroke:#ffffff;stroke-opacity:1"
     transform="translate(-10.530157,-142.60162)">
    <path
       id="path43-16-6"
       style="fill:#000000;fill-opacity:1;stroke:none;stroke-width:0.194062;stroke-dasharray:none;stroke-opacity:1"
       d="m 13.720093,142.60163 v 1.24592 c 0.02026,0.0104 0.04162,0.0223 0.0677,0.0377 0.06087,0.036 0.139191,0.086 0.229443,0.14625 0.180503,0.12049 0.409276,0.28152 0.63562,0.44597 0.226343,0.16445 0.449741,0.3322 0.620118,0.46663 0.08519,0.0672 0.157807,0.12583 0.210839,0.1726 0.02253,0.0199 0.03949,0.0367 0.05529,0.0527 l 1.12913,-0.42116 c -0.185662,-0.29451 -1.060336,-1.49538 -1.133781,-1.54874 -0.07256,-0.0527 -1.455474,-0.50445 -1.814359,-0.5979 z m -0.193787,0.004 c -0.394463,0.1067 -1.725834,0.54272 -1.796789,0.59427 -0.07129,0.0518 -0.903704,1.19232 -1.122413,1.52859 l 1.120346,0.43874 c 0.01554,-0.0154 0.03184,-0.0313 0.05323,-0.0501 0.05303,-0.0468 0.124618,-0.10538 0.209807,-0.1726 0.170377,-0.13443 0.393773,-0.30219 0.620117,-0.46664 0.226344,-0.16445 0.455117,-0.32546 0.63562,-0.44596 0.09025,-0.0602 0.16857,-0.11027 0.229443,-0.14625 0.01946,-0.0115 0.03453,-0.0191 0.05064,-0.0279 z m 0.105937,1.38906 c -0.0011,4.4e-4 -0.0015,5.3e-4 -0.0026,0.001 -0.01544,0.007 -0.03914,0.0206 -0.06718,0.0372 -0.05608,0.0331 -0.132421,0.0818 -0.221175,0.14108 -0.177508,0.1185 -0.405003,0.27893 -0.629936,0.44235 -0.224932,0.16343 -0.4474,0.33029 -0.61495,0.4625 -0.08377,0.0661 -0.153716,0.12331 -0.202571,0.1664 -0.02443,0.0215 -0.04393,0.0393 -0.05581,0.0517 -7.63e-4,9.2e-4 -8.04e-4,0.001 -0.0015,0.002 7.4e-5,10e-4 -2.15e-4,0.002 0,0.004 0.0023,0.017 0.0069,0.0426 0.01395,0.0744 0.0142,0.0636 0.03722,0.15102 0.06615,0.25373 0.05784,0.20544 0.140426,0.47145 0.226343,0.73588 0.08592,0.26442 0.175629,0.52789 0.249597,0.72812 0.03698,0.10009 0.06972,0.18465 0.0956,0.24443 0.01294,0.0299 0.02446,0.0536 0.03256,0.0687 5.25e-4,9.1e-4 9.22e-4,9.7e-4 0.0015,0.002 0.0013,3.6e-4 0.0017,0.001 0.0031,0.001 0.01688,0.003 0.04302,0.007 0.07545,0.01 0.06485,0.006 0.154853,0.0113 0.261483,0.0155 0.213258,0.008 0.49143,0.0124 0.769462,0.0124 0.278032,0 0.556204,-0.004 0.769462,-0.0124 0.106629,-0.004 0.197665,-0.009 0.262516,-0.0155 0.03243,-0.003 0.05856,-0.007 0.07545,-0.01 0.0012,-2.1e-4 0.0014,-0.001 0.0026,-0.001 5.94e-4,-9.1e-4 9.5e-4,-9.7e-4 0.0015,-0.002 0.0081,-0.0151 0.0191,-0.0389 0.03204,-0.0687 0.02588,-0.0598 0.05862,-0.14434 0.0956,-0.24443 0.07396,-0.20021 0.164714,-0.4637 0.250631,-0.72812 0.08592,-0.26443 0.167465,-0.53044 0.225309,-0.73588 0.02892,-0.10271 0.05195,-0.19015 0.06615,-0.25373 0.0071,-0.0318 0.01162,-0.0574 0.01395,-0.0744 2.16e-4,-0.001 -7.3e-5,-0.002 0,-0.004 -6.85e-4,-9.2e-4 -7.26e-4,-0.001 -0.0015,-0.002 -0.01188,-0.0124 -0.03035,-0.0301 -0.05478,-0.0517 -0.04885,-0.0431 -0.119829,-0.1003 -0.203605,-0.1664 -0.167571,-0.13221 -0.390018,-0.29907 -0.61495,-0.4625 -0.224933,-0.16342 -0.452427,-0.32385 -0.629935,-0.44235 -0.08875,-0.0592 -0.165099,-0.10793 -0.221176,-0.14108 -0.02804,-0.0166 -0.05071,-0.0297 -0.06615,-0.0372 -0.0011,-5e-4 -0.0015,-6.3e-4 -0.0026,-0.001 z m -3.040641,0.75964 c -0.01624,0.026 -0.03562,0.056 -0.03824,0.0641 -0.0016,0.005 -0.0027,0.0312 -0.0041,0.0444 z m 2.811197,0.0331 c 0.04339,0.10175 0.113472,0.1681 0.210324,0.19896 0.09685,0.03 0.23236,-0.0316 0.406693,-0.185 -0.123195,0.25019 -0.242929,0.38899 -0.359151,0.41651 -0.115448,0.0275 -0.228716,-0.0307 -0.339514,-0.17415 l -0.136943,0.0713 z m 0.642339,0.0202 v 0.90589 l -0.580844,0.51779 v 0.41032 l 0.533301,-0.002 c 0.07283,-0.17346 0.181187,-0.28757 0.324528,-0.34261 -0.14644,0.0901 -0.250398,0.28048 -0.311609,0.57154 l -0.74259,-0.003 c -0.133268,0.007 -0.24214,-0.0158 -0.326595,-0.0708 0.150314,0.004 0.244963,-0.0364 0.283704,-0.12144 v -0.38395 l 0.594795,-0.53434 v -0.60565 c 0.07438,-0.05 0.149378,-0.16414 0.22531,-0.34261 z m -3.500562,0.10335 c -0.02181,0.37473 -0.01887,1.82282 0.0088,1.9079 0.02743,0.0844 0.865506,1.24236 1.111043,1.54409 l 0.699699,-0.88677 c -0.01038,-0.0199 -0.02109,-0.0411 -0.03307,-0.0687 -0.0281,-0.0649 -0.0611,-0.15194 -0.0987,-0.25373 -0.07521,-0.20358 -0.165726,-0.46824 -0.252181,-0.73432 -0.08646,-0.26609 -0.169073,-0.53317 -0.227893,-0.74208 -0.02941,-0.10445 -0.0528,-0.19402 -0.06821,-0.26303 -0.0053,-0.0239 -0.0085,-0.0423 -0.01189,-0.0615 z m 6.17585,0.0248 -1.130163,0.42168 c -0.0033,0.0181 -0.0059,0.0348 -0.01085,0.0568 -0.01541,0.069 -0.0388,0.15858 -0.06821,0.26303 -0.05882,0.2089 -0.140405,0.476 -0.22686,0.74208 -0.08646,0.26609 -0.176977,0.53075 -0.252181,0.73432 -0.0376,0.1018 -0.07164,0.18884 -0.09973,0.25373 -0.01351,0.0312 -0.0257,0.0559 -0.03721,0.0775 l 0.700216,0.88264 c 0.237735,-0.29016 1.08701,-1.46364 1.11466,-1.54874 0.02691,-0.0828 0.03031,-1.46419 0.01034,-1.88309 z m -2.927469,0.23099 -10e-4,0.56379 c -0.116222,-0.0592 -0.230008,-0.0624 -0.341581,-0.01 0.03874,-0.0934 0.130804,-0.131 0.276469,-0.11265 v -0.14108 c -0.0891,-0.0409 -0.173668,-0.0296 -0.254248,0.0346 0.01782,-0.0984 0.102384,-0.14616 0.254248,-0.14366 v -0.14521 z m -1.265556,2.41691 -0.705384,0.89348 c 0.366818,0.14135 1.721161,0.57826 1.809709,0.57826 0.08784,0 1.4249,-0.43077 1.804541,-0.57567 l -0.709517,-0.89504 c -0.01568,0.002 -0.02893,0.004 -0.04754,0.006 -0.0704,0.007 -0.162356,0.0122 -0.270784,0.0165 -0.216856,0.009 -0.49692,0.0134 -0.776697,0.0134 -0.279776,0 -0.558808,-0.005 -0.775663,-0.0134 -0.108428,-0.004 -0.201421,-0.01 -0.271818,-0.0165 -0.02237,-0.002 -0.03885,-0.005 -0.05684,-0.007 z m 3.013769,0.84594 -0.01395,0.0109 c 10e-4,-4.6e-4 0.0065,-0.003 0.0072,-0.003 9.32e-4,-7.7e-4 0.0046,-0.006 0.0067,-0.008 z" />
  </g>
</svg>
