<?xml version="1.0" encoding="UTF-8" standalone="no"?>
<!-- Created with Inkscape (http://www.inkscape.org/) -->

<svg
   width="5.7250786mm"
   height="5.6291299mm"
   viewBox="0 0 5.7250786 5.6291299"
   version="1.1"
   id="svg1"
   xmlns="http://www.w3.org/2000/svg"
   xmlns:svg="http://www.w3.org/2000/svg">
  <defs
     id="defs1">
    <linearGradient
       id="swatch4">
      <stop
         style="stop-color:#000000;stop-opacity:1;"
         offset="0"
         id="stop4" />
    </linearGradient>
  </defs>
  <g
     id="layer2"
     style="stroke:#ffffff;stroke-opacity:1"
     transform="translate(-18.590158,-181.08921)">
    <path
       id="path24-11-10-4"
       style="display:inline;fill:#000000;fill-opacity:1;stroke:none;stroke-width:0.200527;stroke-dasharray:none;stroke-opacity:1"
       d="m 21.452422,181.0892 c -1.165468,0 -2.328543,0.0383 -2.640665,0.11421 l 2.666504,1.89446 2.592606,-1.90014 c -0.344045,-0.0724 -1.48079,-0.10853 -2.618445,-0.10853 z m 2.756421,0.2558 -2.569352,1.88361 c 0.0366,0.0272 0.07543,0.0602 0.119889,0.1018 0.09943,0.093 0.222022,0.22296 0.361219,0.37827 0.278395,0.31061 0.620859,0.72419 0.950846,1.1436 0.329988,0.4194 0.646973,0.84394 0.874365,1.17616 0.113695,0.16612 0.204599,0.30943 0.264584,0.41909 0.0049,0.009 0.0084,0.0163 0.01292,0.0248 0.127186,-0.88983 0.122415,-4.44123 -0.01447,-5.12734 z m -5.515942,0.0202 c -0.135481,0.74634 -0.1371,4.35136 -0.0041,5.15162 0.01047,-0.0216 0.0224,-0.0442 0.03617,-0.0693 0.05998,-0.10966 0.150888,-0.25297 0.264584,-0.41909 0.227391,-0.33222 0.544378,-0.75676 0.874365,-1.17616 0.329987,-0.41941 0.672969,-0.83299 0.951363,-1.1436 0.139198,-0.15531 0.261274,-0.28532 0.360701,-0.37827 0.0479,-0.0448 0.09066,-0.0803 0.129708,-0.10852 z m 2.774508,1.98075 c -0.02679,0.0195 -0.06305,0.0504 -0.106971,0.0915 -0.09203,0.086 -0.212669,0.21229 -0.349849,0.36535 -0.27436,0.30611 -0.615357,0.71814 -0.943612,1.13534 -0.328254,0.4172 -0.644068,0.83996 -0.868164,1.16737 -0.112047,0.16371 -0.200791,0.30415 -0.256315,0.40566 -0.02652,0.0485 -0.0436,0.0864 -0.05323,0.11317 0.03645,0.007 0.09037,0.0154 0.160197,0.0227 0.147557,0.0155 0.356938,0.0286 0.606165,0.0393 0.498455,0.0213 1.155267,0.032 1.811776,0.032 0.656509,0 1.313837,-0.0108 1.812292,-0.032 0.249228,-0.0106 0.459641,-0.0238 0.607198,-0.0393 0.07023,-0.007 0.123761,-0.0155 0.160197,-0.0227 -0.0096,-0.0268 -0.02773,-0.0647 -0.05426,-0.11317 -0.05552,-0.10151 -0.144267,-0.24195 -0.256315,-0.40566 -0.224095,-0.32741 -0.540426,-0.75017 -0.868681,-1.16737 -0.328255,-0.4172 -0.669252,-0.82923 -0.943612,-1.13534 -0.137179,-0.15306 -0.2573,-0.27932 -0.349333,-0.36535 -0.04392,-0.0411 -0.0807,-0.072 -0.107486,-0.0915 z m -0.29869,1.01906 c 0.01705,0.10175 0.07239,0.16312 0.166915,0.18397 0.09453,0.0209 0.176763,0.001 0.246496,-0.0579 -0.07748,0.2035 -0.172906,0.31019 -0.286804,0.31936 -0.113898,0.009 -0.20415,-0.0424 -0.270785,-0.15502 l -0.125573,0.0749 z m 0.417029,0.13643 0.241845,0.20877 c 0.05036,0.0259 0.115531,0.0247 0.195337,-0.004 -0.08755,0.0676 -0.153756,0.10311 -0.197921,0.10645 v 0.3514 l -0.442867,0.15399 0.441834,0.15348 v 0.73329 c 0.109249,0.003 0.211397,0.0739 0.305924,0.21239 -0.04416,-0.0575 -0.149674,-0.0856 -0.316259,-0.0848 l -0.227893,-0.21032 v -0.64802 l -0.360185,-0.14263 0.360185,-0.16898 z m -0.03462,0.99322 -0.0016,0.56431 c -0.116222,-0.0592 -0.230008,-0.0629 -0.341581,-0.0103 0.03874,-0.0934 0.130804,-0.131 0.276469,-0.11265 v -0.14108 c -0.0891,-0.0409 -0.173668,-0.0291 -0.254248,0.0351 0.01782,-0.0984 0.102384,-0.14668 0.254248,-0.14418 v -0.14521 z m -0.387056,0.52297 c 0.02557,0.10174 0.07858,0.16311 0.159163,0.18396 0.08058,0.0208 0.172385,10e-4 0.275436,-0.0579 -0.09685,0.18681 -0.204431,0.28892 -0.322978,0.30644 -0.117772,0.0175 -0.226644,-0.03 -0.326595,-0.14263 l -0.173633,0.0625 z" />
  </g>
</svg>
