<?xml version="1.0" encoding="UTF-8" standalone="no"?>
<!-- Created with Inkscape (http://www.inkscape.org/) -->

<svg
   width="6.1489787mm"
   height="6.1489787mm"
   viewBox="0 0 6.1489787 6.1489787"
   version="1.1"
   id="svg1"
   xmlns="http://www.w3.org/2000/svg"
   xmlns:svg="http://www.w3.org/2000/svg">
  <defs
     id="defs1">
    <linearGradient
       id="swatch4">
      <stop
         style="stop-color:#000000;stop-opacity:1;"
         offset="0"
         id="stop4" />
    </linearGradient>
  </defs>
  <g
     id="layer2"
     style="stroke:#ffffff;stroke-opacity:1"
     transform="translate(-88.196166,-166.14542)">
    <path
       id="path225-00-99"
       style="fill:#000000;fill-opacity:1;stroke:none;stroke-width:0.200527;stroke-dasharray:none;stroke-opacity:1"
       d="m 89.997091,166.14541 -0.01499,0.015 0.03669,-0.015 z m 0.108003,0 0.316777,0.7798 1.697054,-0.001 0.310575,-0.77877 z m 2.434477,0 0.0078,0.003 -0.0031,-0.003 z m 0.07648,0.0713 -0.312642,0.7891 1.187524,1.18855 0.777731,-0.32452 z m -2.696476,0.006 -1.648478,1.64848 0.780314,0.32142 1.185457,-1.18494 z m 0.483175,0.90175 -1.226799,1.22732 v 1.73529 l 1.226799,1.22783 1.735294,-0.001 1.226799,-1.2268 5.17e-4,-1.73529 -1.227316,-1.2268 z m -2.191081,0.80615 -0.0155,0.0155 v 0.0222 z m 6.133476,0.12558 -0.779281,0.32453 v 1.67276 l 0.779281,0.32918 z m -6.148979,0.001 v 2.32699 l 0.779281,-0.33486 v -1.6707 z m 3.239596,0.11627 c 0.04339,0.10175 0.113471,0.1681 0.210323,0.19896 0.09685,0.03 0.23236,-0.0316 0.406693,-0.185 -0.123195,0.25019 -0.242929,0.38899 -0.359151,0.41651 -0.115447,0.0275 -0.228199,-0.0302 -0.338997,-0.17363 l -0.13746,0.0713 z m -0.869198,0.0202 c 0.0016,0.13093 0.08327,0.20135 0.24598,0.21135 l -0.110071,0.14625 -0.001,1.38389 0.197404,0.0863 c 0.04959,-0.0567 0.111395,-0.0834 0.185002,-0.0801 -0.07128,0.0367 -0.167483,0.14471 -0.288354,0.32402 l -0.27802,-0.10491 c -0.03564,0.055 -0.117102,0.0851 -0.244946,0.0909 0.09608,-0.0459 0.163314,-0.1113 0.202055,-0.19637 l 10e-4,-1.49861 c -0.04106,-0.007 -0.07261,-0.0255 -0.09508,-0.0563 l -0.194304,0.0703 z m 1.512052,0 v 0.90589 l -0.58136,0.51779 v 0.41031 l 0.533301,-0.001 c 0.07283,-0.17347 0.181188,-0.28809 0.324528,-0.34313 -0.14644,0.0901 -0.250398,0.281 -0.311609,0.57206 l -0.74259,-0.003 c -0.133268,0.008 -0.24214,-0.0163 -0.326595,-0.0713 0.150314,0.004 0.244963,-0.0364 0.283704,-0.12144 v -0.38396 l 0.594795,-0.53433 v -0.60565 c 0.07438,-0.05 0.149895,-0.16414 0.225826,-0.34261 z m -1.25522,0.27647 v 1.34255 l -0.06511,0.0584 v -1.30948 z m 1.003039,0.0827 -0.0015,0.56431 c -0.116222,-0.0592 -0.230008,-0.0629 -0.341581,-0.0103 0.03874,-0.0934 0.130804,-0.131 0.276469,-0.11265 v -0.14108 c -0.0891,-0.0409 -0.173668,-0.0291 -0.254248,0.0351 0.01782,-0.0984 0.102384,-0.14668 0.254248,-0.14418 v -0.14521 z m -2.782776,1.6862 -0.769978,0.33176 1.650028,1.65003 0.318327,-0.78393 z m 4.450375,0.003 -1.203544,1.20355 0.330212,0.77204 1.648478,-1.64848 z m -5.297868,0.23255 v 0.0186 l 0.01395,0.0139 z m 2.230872,1.03973 -0.316777,0.77979 h 2.326473 l -0.336414,-0.77928 z m -0.442351,0.76739 0.0124,0.0124 h 0.01757 z" />
  </g>
</svg>
