<?xml version="1.0" encoding="UTF-8" standalone="no"?>
<!-- Created with Inkscape (http://www.inkscape.org/) -->

<svg
   width="6.2030592mm"
   height="6.4538693mm"
   viewBox="0 0 6.2030592 6.4538693"
   version="1.1"
   id="svg1"
   xmlns="http://www.w3.org/2000/svg"
   xmlns:svg="http://www.w3.org/2000/svg">
  <defs
     id="defs1">
    <linearGradient
       id="swatch4">
      <stop
         style="stop-color:#000000;stop-opacity:1;"
         offset="0"
         id="stop4" />
    </linearGradient>
  </defs>
  <g
     id="layer2"
     style="stroke:#ffffff;stroke-opacity:1"
     transform="translate(-33.740109,-142.59594)">
    <path
       id="path43-16-8"
       style="fill:#000000;fill-opacity:1;stroke:none;stroke-width:0.194062;stroke-dasharray:none;stroke-opacity:1"
       d="m 36.930046,142.59595 v 5.1e-4 1.24592 c 0.02026,0.0104 0.04162,0.0218 0.0677,0.0372 0.06087,0.036 0.139191,0.086 0.229443,0.14624 0.180503,0.1205 0.409276,0.28152 0.63562,0.44597 0.226343,0.16445 0.44974,0.33221 0.620117,0.46664 0.08519,0.0672 0.157808,0.12582 0.21084,0.1726 0.02253,0.0199 0.03949,0.0367 0.05529,0.0527 l 1.12913,-0.42116 c -0.185662,-0.29451 -1.060336,-1.49539 -1.133781,-1.54875 -0.07256,-0.0527 -1.455474,-0.50443 -1.814359,-0.59789 z m -0.193787,0.004 c -0.394463,0.1067 -1.725835,0.54273 -1.79679,0.59428 -0.07129,0.0518 -0.903703,1.19232 -1.122412,1.52859 l 1.120345,0.43873 c 0.01554,-0.0154 0.03184,-0.0313 0.05323,-0.0501 0.05303,-0.0468 0.124617,-0.10539 0.209806,-0.1726 0.170377,-0.13444 0.393774,-0.30219 0.620118,-0.46664 0.226344,-0.16445 0.455117,-0.32547 0.63562,-0.44597 0.09025,-0.0602 0.16857,-0.11026 0.229443,-0.14624 0.01946,-0.0115 0.03453,-0.0191 0.05064,-0.0279 z m 0.105937,1.38906 c -0.0011,4.4e-4 -0.0015,5.5e-4 -0.0026,0.001 -0.01544,0.007 -0.03914,0.0206 -0.06718,0.0372 -0.05608,0.0332 -0.132421,0.0818 -0.221175,0.14108 -0.177508,0.1185 -0.405002,0.27893 -0.629935,0.44235 -0.224932,0.16342 -0.4474,0.33031 -0.61495,0.46251 -0.08377,0.0661 -0.153717,0.1233 -0.202572,0.16639 -0.02443,0.0216 -0.04393,0.0393 -0.05581,0.0517 -7.63e-4,9.1e-4 -8.04e-4,0.001 -0.0016,0.002 7.4e-5,0.001 -2.15e-4,0.002 0,0.004 0.0023,0.017 0.0069,0.0426 0.01395,0.0744 0.0142,0.0636 0.03722,0.15101 0.06615,0.25373 0.05784,0.20544 0.140426,0.47145 0.226343,0.73587 0.08592,0.26443 0.175629,0.5279 0.249597,0.72812 0.03698,0.1001 0.06972,0.18465 0.0956,0.24443 0.01294,0.0299 0.02446,0.0536 0.03256,0.0687 5.25e-4,9.2e-4 9.22e-4,9.9e-4 0.0016,0.002 0.0013,3.6e-4 0.0017,5.1e-4 0.0031,5.1e-4 0.01688,0.003 0.04302,0.007 0.07545,0.0103 0.06485,0.006 0.154853,0.0113 0.261483,0.0155 0.213258,0.008 0.49143,0.0124 0.769462,0.0124 0.278032,0 0.556204,-0.004 0.769462,-0.0124 0.106629,-0.004 0.197665,-0.009 0.262516,-0.0155 0.03243,-0.003 0.05856,-0.007 0.07545,-0.0103 0.0012,-2.1e-4 0.0014,-5.1e-4 0.0026,-5.1e-4 5.94e-4,-9.2e-4 9.5e-4,-9.9e-4 0.0016,-0.002 0.0081,-0.0151 0.0191,-0.0388 0.03204,-0.0687 0.02588,-0.0598 0.05862,-0.14433 0.0956,-0.24443 0.07396,-0.2002 0.164713,-0.46369 0.25063,-0.72812 0.08592,-0.26442 0.167466,-0.53043 0.22531,-0.73587 0.02892,-0.10272 0.05194,-0.19015 0.06614,-0.25373 0.0071,-0.0318 0.01162,-0.0574 0.01395,-0.0744 2.16e-4,-10e-4 -7.3e-5,-0.002 0,-0.004 -6.85e-4,-9.1e-4 -7.26e-4,-0.001 -0.0016,-0.002 -0.01188,-0.0124 -0.03035,-0.0301 -0.05478,-0.0517 -0.04885,-0.0431 -0.119829,-0.10028 -0.203605,-0.16639 -0.167571,-0.13221 -0.390018,-0.29909 -0.61495,-0.46251 -0.224933,-0.16342 -0.452428,-0.32385 -0.629936,-0.44235 -0.08875,-0.0592 -0.165098,-0.10793 -0.221175,-0.14108 -0.02804,-0.0166 -0.05071,-0.0297 -0.06615,-0.0372 -0.0011,-5.1e-4 -0.0015,-6.4e-4 -0.0026,-0.001 z m -3.040642,0.75965 c -0.01624,0.026 -0.03562,0.056 -0.03824,0.0641 -0.0016,0.005 -0.0027,0.0312 -0.0041,0.0444 z m 3.044776,0.0527 0.504362,0.002 -0.161748,0.23254 -0.463537,0.001 v 0.50332 h 0.04031 v -0.43925 c 0.173558,-0.0592 0.31941,-0.0336 0.437182,0.0765 -0.128619,-0.05 -0.250422,-0.0559 -0.365869,-0.0176 v 0.11988 c 0.07283,-0.0309 0.141621,-0.018 0.206706,0.0388 -0.08445,-0.0259 -0.153244,0.001 -0.206706,0.0811 l -0.05788,0.14056 0.356568,0.001 c 0.110023,0.002 0.208552,-0.04 0.296106,-0.12506 l -0.146245,0.21136 -10e-4,0.73949 -0.445451,0.47749 -0.31626,-0.20257 c -0.06973,-0.0334 -0.160244,-0.0175 -0.271818,0.0475 0.163486,-0.22184 0.290719,-0.32009 0.381372,-0.29507 l 0.31626,0.21239 0.06615,-0.061 v -0.82321 h -0.409277 c -0.09375,-0.006 -0.196419,0.002 -0.307992,0.0248 0.07826,-0.0884 0.134115,-0.13413 0.167432,-0.13746 v -0.3266 c -0.03874,0.0134 -0.09744,-0.0263 -0.1757,-0.11885 0.06973,0.0284 0.128177,0.03 0.174666,0.004 z m -3.091801,0.10387 c -0.02181,0.37473 -0.01888,1.82281 0.0088,1.90789 0.02743,0.0844 0.865506,1.24237 1.111043,1.54409 l 0.699699,-0.88676 c -0.01038,-0.02 -0.02109,-0.0411 -0.03307,-0.0687 -0.0281,-0.0649 -0.0611,-0.15195 -0.0987,-0.25374 -0.07521,-0.20358 -0.165726,-0.46823 -0.252181,-0.73432 -0.08646,-0.26608 -0.169073,-0.53317 -0.227893,-0.74207 -0.02941,-0.10445 -0.0528,-0.19402 -0.06821,-0.26303 -0.0053,-0.0239 -0.0085,-0.0423 -0.01188,-0.0615 z m 6.17585,0.0248 -1.130163,0.42168 c -0.0033,0.0181 -0.0059,0.0348 -0.01085,0.0568 -0.01541,0.069 -0.0388,0.15858 -0.06821,0.26303 -0.05882,0.2089 -0.140405,0.47599 -0.22686,0.74207 -0.08646,0.26608 -0.176977,0.53074 -0.252181,0.73432 -0.0376,0.10179 -0.07163,0.18886 -0.09973,0.25374 -0.01351,0.0312 -0.0257,0.0559 -0.03721,0.0775 l 0.700215,0.88263 c 0.237735,-0.29016 1.087011,-1.46364 1.114661,-1.54874 0.02691,-0.0828 0.03031,-1.46419 0.01034,-1.88309 z m -2.952791,0.82993 v 0.7555 l -0.0708,0.0589 v -0.19017 c -0.06198,-0.0425 -0.123791,-0.0473 -0.185001,-0.014 0.03332,-0.0725 0.09512,-0.11035 0.185001,-0.11368 l 10e-4,-0.41652 z m -1.240234,1.81797 -0.705384,0.89349 c 0.366818,0.14135 1.721161,0.57826 1.809709,0.57826 0.08784,0 1.4249,-0.43077 1.804541,-0.57568 l -0.709518,-0.89503 c -0.01568,0.002 -0.02893,0.004 -0.04754,0.006 -0.0704,0.007 -0.162356,0.0122 -0.270784,0.0165 -0.216856,0.009 -0.49692,0.0134 -0.776697,0.0134 -0.279776,0 -0.558808,-0.005 -0.775663,-0.0134 -0.108428,-0.004 -0.201421,-0.01 -0.271818,-0.0165 -0.02237,-0.002 -0.03885,-0.005 -0.05684,-0.007 z m 3.014803,0.84491 -0.01499,0.0119 c 10e-4,-4.6e-4 0.0065,-0.003 0.0072,-0.003 0.0011,-9.1e-4 0.0063,-0.008 0.0078,-0.009 z" />
  </g>
</svg>
