<?xml version="1.0" encoding="UTF-8" standalone="no"?>
<!-- Created with Inkscape (http://www.inkscape.org/) -->

<svg
   width="6.1489787mm"
   height="6.1489787mm"
   viewBox="0 0 6.1489787 6.1489787"
   version="1.1"
   id="svg1"
   xmlns="http://www.w3.org/2000/svg"
   xmlns:svg="http://www.w3.org/2000/svg">
  <defs
     id="defs1">
    <linearGradient
       id="swatch4">
      <stop
         style="stop-color:#000000;stop-opacity:1;"
         offset="0"
         id="stop4" />
    </linearGradient>
  </defs>
  <g
     id="layer2"
     style="stroke:#ffffff;stroke-opacity:1"
     transform="translate(-103.21127,-166.16608)">
    <path
       id="path225-00-92"
       style="fill:#000000;fill-opacity:1;stroke:none;stroke-width:0.200527;stroke-dasharray:none;stroke-opacity:1"
       d="m 105.01219,166.16608 -0.015,0.015 0.0367,-0.015 z m 0.10801,0 0.31678,0.7798 1.69705,-10e-4 0.31057,-0.77877 z m 2.43448,0 0.008,0.003 -0.003,-0.003 z m 0.0765,0.0718 -0.31265,0.78909 1.18753,1.18805 0.77773,-0.32453 z m -2.69648,0.006 -1.64848,1.64848 0.78032,0.32143 1.18545,-1.18495 z m 0.48317,0.90175 -1.22679,1.22732 v 1.73529 l 1.22679,1.22784 1.7353,-0.001 1.2268,-1.2268 5.1e-4,-1.73529 -1.22731,-1.2268 z m -2.19108,0.80616 -0.0155,0.0155 v 0.0222 z m 6.13348,0.12557 -0.77928,0.32453 v 1.67276 l 0.77928,0.32918 z m -6.14898,0.001 v 2.32699 l 0.77928,-0.33486 v -1.6707 z m 3.61994,0.12196 c 0.0201,0.10174 0.0822,0.16312 0.18603,0.18397 0.1046,0.0208 0.1977,0.002 0.27905,-0.0574 -0.0914,0.17013 -0.20056,0.25751 -0.32763,0.26251 -0.12629,0.005 -0.2287,-0.0278 -0.30695,-0.0987 l -0.13695,0.0625 z m -1.21802,0.009 c 0.002,0.13094 0.0838,0.20187 0.2465,0.21188 l -0.11059,0.14624 -0.001,1.38338 0.19792,0.0863 c 0.0496,-0.0567 0.11088,-0.0834 0.18448,-0.0801 -0.0713,0.0367 -0.16748,0.14471 -0.28835,0.32401 l -0.2775,-0.1049 c -0.0357,0.055 -0.11762,0.0856 -0.24547,0.0915 0.0961,-0.0459 0.16383,-0.11131 0.20257,-0.19637 l 10e-4,-1.49914 c -0.0411,-0.007 -0.0731,-0.0249 -0.0956,-0.0558 l -0.19379,0.0698 z m 0.25683,0.27647 v 1.34256 l -0.0651,0.0589 v -1.31 z m 1.19735,0.11524 v 1.06454 l 0.22065,0.002 v 0.0811 l -0.22065,-0.003 v 0.1602 l 0.0915,0.0713 c 0.0349,-0.055 0.0949,-0.0816 0.17932,-0.0791 -0.0581,0.0292 -0.14836,0.156 -0.27078,0.38034 l -0.19637,-0.14625 c -0.0744,0.0742 -0.17317,0.12158 -0.29559,0.1416 0.1015,-0.0642 0.17753,-0.14551 0.22789,-0.24392 v -0.26303 h -0.55656 v -0.0951 l 0.55656,0.002 v -1.06454 c 0.0883,0.0317 0.17651,0.029 0.26407,-0.008 z m -0.27906,0.0124 c -0.10692,0.04 -0.21088,0.34598 -0.31161,0.91726 -0.14334,0.12927 -0.29617,0.16392 -0.45888,0.10387 0.11854,0.0275 0.24811,-0.13688 0.38912,-0.49299 0.14102,-0.35611 0.26825,-0.53231 0.38137,-0.52814 z m -2.72955,1.64693 -0.76997,0.33176 1.65002,1.65003 0.31833,-0.78393 z m 4.45038,0.003 -1.20355,1.20355 0.33022,0.77204 1.64848,-1.64848 z m -5.29787,0.23255 v 0.0186 l 0.0139,0.0139 z m 2.23087,1.03973 -0.31677,0.77979 h 2.32647 l -0.33641,-0.77928 z m -0.44235,0.76739 0.0124,0.0124 h 0.0176 z" />
  </g>
</svg>
