<?xml version="1.0" encoding="UTF-8" standalone="no"?>
<!-- Created with Inkscape (http://www.inkscape.org/) -->

<svg
   width="6.2024455mm"
   height="6.2023263mm"
   viewBox="0 0 6.2024455 6.2023263"
   version="1.1"
   id="svg1"
   xmlns="http://www.w3.org/2000/svg"
   xmlns:svg="http://www.w3.org/2000/svg">
  <defs
     id="defs1">
    <linearGradient
       id="swatch4">
      <stop
         style="stop-color:#000000;stop-opacity:1;"
         offset="0"
         id="stop4" />
    </linearGradient>
  </defs>
  <g
     id="layer2"
     style="stroke:#ffffff;stroke-opacity:1"
     transform="translate(-10.518101,-113.25563)">
    <path
       id="path192"
       style="display:inline;fill:#000000;fill-opacity:1;stroke:none;stroke-width:1.00307;stroke-dasharray:none;stroke-opacity:1"
       d="m 18.217498,30.549797 c -7.105349,0 -14.2107985,0.259817 -14.7316369,0.780655 -1.0416769,1.041677 -1.0416769,28.421597 0,29.463274 1.0416769,1.041677 28.4215969,1.041677 29.4632739,0 1.041677,-1.041677 1.041677,-28.421597 0,-29.463274 -0.520838,-0.520838 -7.626288,-0.780655 -14.731637,-0.780655 z m -1.083094,10.3062 c 0.217043,0.508952 0.567604,0.840852 1.052075,0.995207 0.484471,0.150182 1.162309,-0.160399 2.034356,-0.927998 -0.616247,1.25152 -1.215176,1.948389 -1.796541,2.086056 -0.577489,0.137667 -1.144078,-0.153591 -1.698313,-0.871129 l -0.685012,0.356723 z m 3.213094,0.100813 v 4.528835 l -2.905485,2.590121 v 2.052451 l 2.66767,-0.0052 c 0.364322,-0.867721 0.906332,-1.438489 1.623349,-1.713823 -0.73252,0.450547 -1.25254,1.403021 -1.558726,2.858956 l -3.714575,-0.01292 c -0.666632,0.03755 -1.21123,-0.08139 -1.633689,-0.356723 0.751899,0.02086 1.22535,-0.181947 1.419138,-0.607464 v -1.920618 l 2.975279,-2.67284 v -3.026978 c 0.372074,-0.250304 0.747214,-0.821072 1.127039,-1.713823 z"
       transform="matrix(0.1999126,0,0,0.1999126,9.9774163,107.14833)" />
  </g>
</svg>
