<?xml version="1.0" encoding="UTF-8" standalone="no"?>
<!-- Created with Inkscape (http://www.inkscape.org/) -->

<svg
   width="6.9887209mm"
   height="6.2363925mm"
   viewBox="0 0 6.9887209 6.2363925"
   version="1.1"
   id="svg1"
   xmlns="http://www.w3.org/2000/svg"
   xmlns:svg="http://www.w3.org/2000/svg">
  <defs
     id="defs1">
    <linearGradient
       id="swatch4">
      <stop
         style="stop-color:#000000;stop-opacity:1;"
         offset="0"
         id="stop4" />
    </linearGradient>
  </defs>
  <g
     id="layer2"
     style="stroke:#ffffff;stroke-opacity:1"
     transform="translate(-25.530742,-150.42907)">
    <path
       id="path94-48-1"
       style="fill:#000000;fill-opacity:1;stroke:none;stroke-width:0.192506;stroke-dasharray:none;stroke-opacity:1"
       d="m 29.024068,150.42906 c -0.703573,0 -1.400448,0.0158 -1.658297,0.0465 l 0.555522,1.00872 c 0.024,-0.004 0.05257,-0.006 0.0863,-0.009 0.06866,-0.006 0.158761,-0.01 0.264066,-0.0134 0.21061,-0.007 0.481209,-0.0114 0.752409,-0.0114 0.271199,0 0.542317,0.004 0.752926,0.0114 0.105305,0.004 0.195411,0.008 0.264066,0.0134 0.03433,0.003 0.0636,0.005 0.08785,0.009 l 0.575676,-1.00665 c -0.240758,-0.0323 -0.958827,-0.0486 -1.680518,-0.0486 z m -1.826245,0.13901 c -0.303935,0.40167 -1.458801,2.4017 -1.663981,2.88044 l 1.161686,0.002 c 0.0077,-0.0183 0.01511,-0.0363 0.02584,-0.0589 0.02956,-0.0622 0.07032,-0.14215 0.11989,-0.23513 0.09914,-0.18595 0.231819,-0.42246 0.367419,-0.65732 0.135599,-0.23487 0.274549,-0.46764 0.386023,-0.64647 0.05574,-0.0894 0.104045,-0.165 0.143144,-0.2217 0.0091,-0.0132 0.01615,-0.0219 0.02429,-0.0331 z m 3.665926,0.0176 -0.577226,1.01234 c 0.0081,0.0112 0.01521,0.0199 0.02429,0.0331 0.0391,0.0567 0.08741,0.13229 0.143144,0.2217 0.111474,0.17884 0.250423,0.4116 0.386023,0.64647 0.1356,0.23486 0.268283,0.47137 0.367419,0.65732 0.04957,0.093 0.09033,0.17292 0.11989,0.23513 0.01065,0.0224 0.01819,0.0402 0.02584,0.0584 l 1.159102,-0.007 c -0.207702,-0.48043 -1.327348,-2.42009 -1.648478,-2.85719 z m -1.839681,1.05782 c -0.269523,0 -0.539039,0.003 -0.746207,0.0103 -0.103584,0.004 -0.191371,0.008 -0.254765,0.0134 -0.0317,0.002 -0.05762,0.005 -0.07441,0.008 -0.0023,3.4e-4 -0.003,0.001 -0.0052,0.002 -0.0012,0.001 -0.0019,0.002 -0.0031,0.003 -0.01059,0.0133 -0.02586,0.0343 -0.04392,0.0605 -0.0361,0.0524 -0.08418,0.12651 -0.139009,0.21446 -0.109652,0.17591 -0.247127,0.40737 -0.381889,0.64078 -0.134761,0.23341 -0.266803,0.46872 -0.364319,0.65164 -0.04876,0.0915 -0.08898,0.17045 -0.116272,0.2279 -0.01365,0.0287 -0.02428,0.0524 -0.03049,0.0682 -7.5e-4,0.002 -5.23e-4,0.003 -0.001,0.005 5.42e-4,0.002 3.15e-4,0.003 0.001,0.005 0.0062,0.0158 0.01684,0.0395 0.03049,0.0682 0.02729,0.0574 0.06751,0.13591 0.116272,0.22737 0.09752,0.18291 0.229558,0.41823 0.364319,0.65164 0.134762,0.23342 0.272237,0.4654 0.381889,0.64131 0.05483,0.088 0.102906,0.1621 0.139009,0.21446 0.01805,0.0262 0.03333,0.0462 0.04392,0.0594 0.0015,0.002 0.0025,0.002 0.0041,0.004 0.0017,3.4e-4 0.0023,7.2e-4 0.0041,0.001 0.0168,0.002 0.04272,0.005 0.07441,0.008 0.06339,0.005 0.151181,0.009 0.254765,0.0129 0.207168,0.007 0.476684,0.0103 0.746207,0.0103 0.269522,0 0.539556,-0.003 0.746725,-0.0103 0.103584,-0.003 0.19137,-0.008 0.254764,-0.0129 0.0317,-0.002 0.05763,-0.005 0.07442,-0.008 0.0018,-2.7e-4 0.0024,-7.2e-4 0.0041,-0.001 0.0016,-0.002 0.0026,-0.002 0.0041,-0.004 0.01059,-0.0133 0.02588,-0.0332 0.04393,-0.0594 0.0361,-0.0524 0.08418,-0.1265 0.139009,-0.21446 0.109652,-0.17591 0.247127,-0.40789 0.381889,-0.64131 0.134761,-0.23341 0.266803,-0.46873 0.364319,-0.65164 0.04876,-0.0915 0.08898,-0.16992 0.116272,-0.22737 0.01365,-0.0287 0.02428,-0.0524 0.03049,-0.0682 7.54e-4,-0.002 5.14e-4,-0.003 10e-4,-0.005 -5.48e-4,-0.002 -3.16e-4,-0.003 -10e-4,-0.005 -0.0062,-0.0158 -0.01684,-0.0395 -0.03049,-0.0682 -0.02729,-0.0574 -0.06751,-0.13644 -0.116272,-0.2279 -0.09752,-0.18292 -0.229558,-0.41823 -0.364319,-0.65164 -0.134762,-0.23341 -0.272237,-0.46487 -0.381889,-0.64078 -0.05483,-0.0879 -0.102906,-0.1621 -0.139009,-0.21446 -0.01805,-0.0262 -0.03335,-0.0472 -0.04393,-0.0605 -0.0012,-0.001 -0.0019,-0.002 -0.0031,-0.003 -0.0021,-6.9e-4 -0.0029,-0.001 -0.0052,-0.002 -0.0168,-0.002 -0.04273,-0.005 -0.07442,-0.008 -0.06339,-0.005 -0.15118,-0.01 -0.254764,-0.0134 -0.207169,-0.007 -0.477202,-0.0103 -0.746725,-0.0103 z m 0.154513,0.86454 c 0.02014,0.10175 0.08221,0.16312 0.186035,0.18397 0.1046,0.0208 0.19718,0.002 0.278536,-0.0574 -0.09143,0.17013 -0.200559,0.25751 -0.327629,0.26252 -0.126295,0.005 -0.228185,-0.0278 -0.306441,-0.0987 l -0.137459,0.0625 z m 0.235644,0.4005 v 1.06453 l 0.221175,0.002 v 0.0811 l -0.221175,-0.003 v 0.1602 l 0.09198,0.0713 c 0.03487,-0.055 0.09435,-0.0816 0.178801,-0.0791 -0.05811,0.0292 -0.148364,0.156 -0.270785,0.38034 l -0.19637,-0.14624 c -0.07438,0.0742 -0.172652,0.12158 -0.295073,0.14159 0.101501,-0.0642 0.17753,-0.1455 0.227893,-0.24391 v -0.26303 H 28.59412 v -0.0951 l 0.556555,0.002 v -1.06453 c 0.08833,0.0317 0.175996,0.0289 0.26355,-0.008 z m -0.278536,0.0124 c -0.106924,0.04 -0.210883,0.34598 -0.311609,0.91726 -0.14334,0.12926 -0.296175,0.16391 -0.458886,0.10386 0.118546,0.0275 0.248107,-0.13688 0.389123,-0.49299 0.141017,-0.35611 0.268249,-0.5323 0.381372,-0.52813 z m 3.383773,0.7152 -1.165303,0.006 c -0.0079,0.0188 -0.01562,0.0378 -0.02687,0.0615 -0.02956,0.0622 -0.07032,0.14214 -0.11989,0.23512 -0.09914,0.18595 -0.231819,0.42246 -0.367419,0.65733 -0.1356,0.23487 -0.274549,0.46816 -0.386023,0.64699 -0.05574,0.0894 -0.104044,0.16499 -0.143144,0.22169 -0.01445,0.0209 -0.02665,0.0364 -0.03876,0.0522 l 0.578259,1.01131 c 0.304945,-0.4024 1.476215,-2.43134 1.669149,-2.89181 z m -6.988721,0.004 c 0.198138,0.4686 1.36834,2.49457 1.669666,2.89027 l 0.58291,-1.00408 c -0.01382,-0.0177 -0.02838,-0.0372 -0.04547,-0.062 -0.0391,-0.0567 -0.08741,-0.13228 -0.143144,-0.22169 -0.111474,-0.17883 -0.250424,-0.41212 -0.386023,-0.64699 -0.1356,-0.23487 -0.268283,-0.47136 -0.367419,-0.65732 -0.04957,-0.093 -0.09033,-0.17292 -0.11989,-0.23513 -0.01117,-0.0235 -0.01901,-0.0423 -0.02687,-0.061 z m 4.576982,1.97249 c -0.02024,0.002 -0.04061,0.005 -0.06666,0.007 -0.06865,0.005 -0.158761,0.01 -0.264066,0.0134 -0.210609,0.007 -0.481727,0.0109 -0.752926,0.0109 -0.2712,0 -0.541799,-0.004 -0.752409,-0.0109 -0.105305,-0.004 -0.19541,-0.008 -0.264066,-0.0134 -0.0208,-0.002 -0.03613,-0.004 -0.05323,-0.006 l -0.581877,1.00665 c 0.528329,0.0605 2.795477,0.06 3.309876,-0.001 z m 0.685746,0.98031 -0.01705,0.01 c 0.0022,-10e-4 0.0088,-0.002 0.01033,-0.003 0.0015,-8.6e-4 0.0045,-0.004 0.0067,-0.007 z" />
  </g>
</svg>
