<?xml version="1.0" encoding="UTF-8" standalone="no"?>
<!-- Created with Inkscape (http://www.inkscape.org/) -->

<svg
   width="7.2042198mm"
   height="6.3448324mm"
   viewBox="0 0 7.2042198 6.3448324"
   version="1.1"
   id="svg1"
   xmlns="http://www.w3.org/2000/svg"
   xmlns:svg="http://www.w3.org/2000/svg">
  <defs
     id="defs1">
    <linearGradient
       id="swatch4">
      <stop
         style="stop-color:#000000;stop-opacity:1;"
         offset="0"
         id="stop4" />
    </linearGradient>
  </defs>
  <g
     id="layer2"
     style="stroke:#ffffff;stroke-opacity:1"
     transform="translate(-102.68365,-158.44822)">
    <path
       id="path34-81-8-39-2-77"
       style="fill:#000000;fill-opacity:1;stroke:none;stroke-width:0.200326;stroke-dasharray:none;stroke-opacity:1"
       d="m 106.21832,158.44821 c -0.53449,0.28392 -3.53467,2.96694 -3.53467,3.18172 0,0.0765 0.38354,0.46818 0.89762,0.95084 z m 0.13384,0 2.6355,4.13463 c 0.51521,-0.48363 0.90021,-0.87635 0.90021,-0.95291 0,-0.2149 -3.00365,-2.90029 -3.53571,-3.18172 z m -0.0667,0.26613 -2.45928,3.85817 2.46342,1.11052 2.45049,-1.11569 z m 0.54571,1.86604 c 0.0201,0.10175 0.0822,0.16312 0.18603,0.18397 0.1046,0.0208 0.1977,0.002 0.27905,-0.0574 -0.0914,0.17013 -0.20056,0.25751 -0.32763,0.26251 -0.12629,0.005 -0.2287,-0.0278 -0.30695,-0.0987 l -0.13695,0.0625 z m -1.21802,0.009 c 0.002,0.13094 0.0838,0.20135 0.2465,0.21136 l -0.11059,0.14676 -0.001,1.38338 0.19792,0.0863 c 0.0496,-0.0567 0.11088,-0.0834 0.18448,-0.0801 -0.0713,0.0367 -0.16748,0.14471 -0.28835,0.32401 l -0.2775,-0.1049 c -0.0357,0.055 -0.11762,0.0856 -0.24547,0.0915 0.0961,-0.0459 0.16383,-0.11182 0.20257,-0.19689 l 0.001,-1.49862 c -0.0411,-0.007 -0.0731,-0.0255 -0.0956,-0.0563 l -0.19379,0.0703 z m 0.25683,0.27647 v 1.34256 l -0.0651,0.0589 v -1.31 z m 1.19735,0.11524 v 1.06454 l 0.22065,0.002 v 0.0811 l -0.22065,-0.003 v 0.1602 l 0.0915,0.0713 c 0.0349,-0.055 0.0949,-0.0816 0.17932,-0.0791 -0.0581,0.0292 -0.14836,0.156 -0.27078,0.38034 l -0.19637,-0.14625 c -0.0744,0.0742 -0.17317,0.12158 -0.29559,0.1416 0.1015,-0.0642 0.17753,-0.14551 0.22789,-0.24392 v -0.26303 h -0.55656 v -0.0951 l 0.55656,0.002 v -1.06454 c 0.0883,0.0317 0.17651,0.029 0.26407,-0.008 z m -0.27906,0.0124 c -0.10692,0.04 -0.21088,0.34598 -0.31161,0.91726 -0.14334,0.12927 -0.29617,0.16392 -0.45888,0.10387 0.11854,0.0275 0.24811,-0.13688 0.38912,-0.49299 0.14102,-0.35611 0.26825,-0.53231 0.38137,-0.52814 z m 2.00143,1.77354 -2.4045,1.09347 v 0.93276 c 0.36199,-0.21531 1.5174,-1.20608 2.4045,-2.02623 z m -4.99608,0.0103 c 0.88385,0.81645 2.02803,1.79844 2.39056,2.01539 v -0.93638 z" />
  </g>
</svg>
