<?xml version="1.0" encoding="UTF-8" standalone="no"?>
<!-- Created with Inkscape (http://www.inkscape.org/) -->

<svg
   width="5.628593mm"
   height="6.2502718mm"
   viewBox="0 0 5.628593 6.2502718"
   version="1.1"
   id="svg1"
   xmlns="http://www.w3.org/2000/svg"
   xmlns:svg="http://www.w3.org/2000/svg">
  <defs
     id="defs1">
    <linearGradient
       id="swatch4">
      <stop
         style="stop-color:#000000;stop-opacity:1;"
         offset="0"
         id="stop4" />
    </linearGradient>
  </defs>
  <g
     id="layer2"
     style="stroke:#ffffff;stroke-opacity:1"
     transform="translate(-49.552765,-120.4839)">
    <g
       id="g7">
      <path
         id="path241"
         style="fill:#000000;fill-opacity:1;stroke:none;stroke-width:0.200527;stroke-dasharray:none;stroke-opacity:1"
         d="m 52.367346,120.49497 c -0.0028,0.003 -0.0031,0.003 -0.0062,0.006 -0.02798,0.0271 -0.06783,0.0727 -0.114205,0.13177 -0.09276,0.11817 -0.214314,0.29204 -0.351916,0.50126 -0.275204,0.41845 -0.616638,0.9809 -0.945679,1.55081 -0.32904,0.56992 -0.645445,1.14718 -0.870231,1.59474 -0.112392,0.22378 -0.202422,0.41559 -0.258382,0.555 -0.02798,0.0697 -0.04732,0.12704 -0.05684,0.16485 -0.001,0.004 -8.07e-4,0.005 -0.0016,0.008 0.0036,10e-4 0.0042,0.002 0.0083,0.003 0.0375,0.0106 0.09669,0.023 0.171049,0.0336 0.148715,0.0213 0.359271,0.0391 0.609266,0.0537 0.49999,0.0291 1.158346,0.0439 1.816426,0.0439 0.65808,0 1.316955,-0.0148 1.816944,-0.0439 0.249995,-0.0146 0.46055,-0.0324 0.609265,-0.0537 0.07436,-0.0106 0.133028,-0.0229 0.170532,-0.0336 0.0042,-0.001 0.0052,-0.002 0.0088,-0.003 -7.89e-4,-0.004 -4.57e-4,-0.004 -0.0016,-0.008 -0.0095,-0.0378 -0.02938,-0.0951 -0.05736,-0.16485 -0.05596,-0.13941 -0.145474,-0.33122 -0.257866,-0.555 -0.224786,-0.44756 -0.54119,-1.02482 -0.870231,-1.59474 -0.32904,-0.56991 -0.670991,-1.13236 -0.946195,-1.55081 -0.137602,-0.20922 -0.258644,-0.38309 -0.3514,-0.50126 -0.04638,-0.0591 -0.08623,-0.10462 -0.114205,-0.13177 -0.0031,-0.003 -0.0039,-0.003 -0.0067,-0.006 z m 0.514697,2.10685 c -0.16581,0.23518 -0.330023,0.36494 -0.491959,0.38912 -0.161162,0.0234 -0.28736,-0.0126 -0.378788,-0.10852 l -0.17415,0.0786 0.276469,-0.3514 c 0.05501,0.0801 0.154057,0.12558 0.296623,0.13643 0.142566,0.01 0.299797,-0.0383 0.471805,-0.14418 z m -0.01499,0.0403 c -0.127785,0.29082 -0.229562,0.61584 -0.305407,0.97461 0.106661,0.003 0.223267,-0.0244 0.350366,-0.0816 -0.127365,0.13296 -0.252913,0.20468 -0.377238,0.21497 -0.03617,0.19111 -0.06524,0.39147 -0.08733,0.601 l 0.197404,0.0863 c 0.04959,-0.0567 0.111394,-0.0834 0.185001,-0.0801 -0.07128,0.0367 -0.167483,0.1447 -0.288354,0.32401 l -0.301274,-0.10542 c -0.108474,0.0992 -0.244241,0.12983 -0.407727,0.0915 0.16736,0.004 0.288904,-0.0613 0.364836,-0.19637 0.06156,-0.27607 0.12202,-0.51913 0.180867,-0.73071 -0.05502,-0.0124 -0.102065,-0.0343 -0.141076,-0.0672 l -0.133842,0.046 0.21394,-0.20877 c 0.02384,0.0364 0.05842,0.0633 0.103353,0.0811 0.121791,-0.41016 0.237375,-0.67896 0.347266,-0.80667 z m -0.525549,1.16685 -0.187069,0.65836 c -0.0953,-0.0517 -0.205984,-0.0178 -0.332279,0.10232 0.06818,-0.15679 0.171367,-0.23127 0.310058,-0.22376 l 0.05013,-0.14521 c -0.07438,-0.035 -0.163342,-0.0164 -0.267168,0.0553 0.05269,-0.10258 0.154319,-0.15806 0.305408,-0.1664 l 0.07338,-0.23047 z" />
      <path
         id="path218-0-5"
         style="fill:#000000;fill-opacity:1;stroke:none;stroke-width:0.200527;stroke-dasharray:none;stroke-opacity:1"
         d="m 55.15181,124.90431 c 0.0476,-0.7134 0.03775,-2.82464 -0.02997,-2.94194 -0.06656,-0.11529 -1.825067,-1.14247 -2.494938,-1.47743 0.0066,0.008 0.01226,0.015 0.01912,0.0238 0.09909,0.12624 0.221888,0.30233 0.361218,0.51419 0.278661,0.4237 0.621872,0.98866 0.952397,1.56114 0.330524,0.57249 0.648307,1.15189 0.875916,1.60507 0.113804,0.22659 0.204802,0.42158 0.264583,0.57051 0.02211,0.0551 0.03849,0.10164 0.05168,0.14469 z" />
      <path
         id="path217-20-2"
         style="fill:#000000;fill-opacity:1;stroke:none;stroke-width:0.200527;stroke-dasharray:none;stroke-opacity:1"
         d="m 49.647237,125.17768 c 0.303425,0.25318 2.568941,1.5565 2.71973,1.5565 0.150613,0 2.411546,-1.30063 2.719214,-1.55598 -0.02096,0.01 -0.04275,0.0179 -0.06718,0.0248 -0.05274,0.015 -0.117452,0.0274 -0.196887,0.0388 -0.15887,0.0227 -0.373184,0.0411 -0.626319,0.0558 -0.506269,0.0295 -1.167263,0.0439 -1.828312,0.0439 -0.661049,0 -1.321526,-0.0145 -1.827795,-0.0439 -0.253135,-0.0147 -0.467449,-0.0331 -0.626319,-0.0558 -0.07944,-0.0113 -0.144668,-0.0238 -0.197404,-0.0388 -0.02514,-0.007 -0.04722,-0.0148 -0.06873,-0.0253 z" />
      <path
         id="path216-89-7"
         style="fill:#000000;fill-opacity:1;stroke:none;stroke-width:0.200527;stroke-dasharray:none;stroke-opacity:1"
         d="m 52.110136,120.48391 c -0.667836,0.33354 -2.431388,1.36302 -2.498039,1.47846 -0.06782,0.11747 -0.0773,2.23525 -0.02946,2.94556 0.01328,-0.0439 0.02948,-0.0917 0.05219,-0.14831 0.05978,-0.14893 0.15078,-0.34392 0.264584,-0.57051 0.227608,-0.45318 0.545391,-1.03258 0.875915,-1.60507 0.330525,-0.57248 0.673736,-1.13744 0.952397,-1.56114 0.13933,-0.21186 0.262646,-0.38795 0.361735,-0.51419 0.0073,-0.009 0.01368,-0.0161 0.02067,-0.0248 z" />
    </g>
  </g>
</svg>
