<?xml version="1.0" encoding="UTF-8" standalone="no"?>
<!-- Created with Inkscape (http://www.inkscape.org/) -->

<svg
   width="5.670455mm"
   height="5.9009318mm"
   viewBox="0 0 5.670455 5.9009318"
   version="1.1"
   id="svg1"
   xmlns="http://www.w3.org/2000/svg"
   xmlns:svg="http://www.w3.org/2000/svg">
  <defs
     id="defs1">
    <linearGradient
       id="swatch4">
      <stop
         style="stop-color:#000000;stop-opacity:1;"
         offset="0"
         id="stop4" />
    </linearGradient>
  </defs>
  <g
     id="layer2"
     style="stroke:#ffffff;stroke-opacity:1"
     transform="translate(-10.742497,-202.26052)">
    <path
       id="path237-317-06"
       style="fill:#000000;fill-opacity:1;stroke:none;stroke-width:0.200527;stroke-dasharray:none;stroke-opacity:1"
       d="m 13.577466,202.26052 c -0.127651,0 -1.630989,0.48825 -1.734261,0.56328 -0.103272,0.075 -1.032323,1.35396 -1.071769,1.47536 -0.01829,0.0563 -0.02761,0.4279 -0.02894,0.82062 0.0077,-0.005 0.01437,-0.009 0.02274,-0.0139 0.07448,-0.0438 0.177027,-0.097 0.299724,-0.1571 0.245394,-0.12015 0.572008,-0.26755 0.907955,-0.41134 0.335947,-0.14379 0.680484,-0.28357 0.961181,-0.38861 0.140348,-0.0525 0.264063,-0.0963 0.366386,-0.12816 0.05116,-0.0159 0.0965,-0.0286 0.139527,-0.0388 0.04303,-0.0101 0.0759,-0.0207 0.151411,-0.0207 0.07551,0 0.108384,0.0105 0.151412,0.0207 0.04303,0.0101 0.08836,0.0228 0.139527,0.0388 0.102323,0.0319 0.226038,0.0756 0.366386,0.12816 0.07308,0.0274 0.159275,0.062 0.239778,0.0935 0.02276,-0.0178 0.04602,-0.037 0.07028,-0.0584 -0.01238,0.0251 -0.0249,0.0484 -0.03721,0.0713 0.0097,0.004 0.01867,0.008 0.02842,0.0114 0.01157,-0.0243 0.02302,-0.0497 0.03462,-0.077 v 0.0904 c 0.20192,0.0802 0.412402,0.16601 0.625802,0.25735 0.335947,0.14379 0.662561,0.29119 0.907955,0.41134 0.120239,0.0589 0.220469,0.11072 0.294556,0.154 -0.0016,-0.38625 -0.01092,-0.74812 -0.02894,-0.80357 -0.03945,-0.1214 -0.969014,-1.40033 -1.072286,-1.47536 -0.103272,-0.075 -1.60661,-0.56328 -1.734261,-0.56328 z m 0.01395,1.83555 c -0.0016,3.3e-4 -0.0014,1.2e-4 -0.0031,5.2e-4 -0.02466,0.006 -0.06222,0.016 -0.10697,0.03 -0.0895,0.0279 -0.208386,0.0699 -0.344682,0.12092 -0.07167,0.0268 -0.157375,0.0617 -0.237195,0.093 0.01717,0.0105 0.03826,0.0192 0.06718,0.0284 0.09685,0.03 0.232361,-0.0316 0.406694,-0.185 -0.123196,0.25019 -0.242929,0.38902 -0.359151,0.41651 -0.115036,0.0274 -0.228061,-0.0298 -0.338481,-0.17208 -0.0064,0.003 -0.01321,0.006 -0.01964,0.008 l -0.118339,0.0615 0.01964,-0.0207 c -0.121802,0.0501 -0.244268,0.10025 -0.367419,0.15296 -0.332185,0.14218 -0.655695,0.28795 -0.894003,0.40463 -0.119155,0.0583 -0.217006,0.10948 -0.282153,0.14779 -0.03257,0.0191 -0.05671,0.0354 -0.07028,0.046 -9.87e-4,7.7e-4 -7.89e-4,8.7e-4 -0.0015,0.002 8.12e-4,7.4e-4 6.13e-4,8.5e-4 0.0015,0.002 0.01357,0.0106 0.03771,0.0268 0.07028,0.046 0.06515,0.0383 0.162998,0.0894 0.282153,0.1478 0.238308,0.11667 0.561818,0.26244 0.894003,0.40462 0.130262,0.0558 0.260115,0.10958 0.388606,0.16227 v -0.32091 l 0.594796,-0.53434 v -0.60513 -10e-4 c 0.07438,-0.05 0.149892,-0.16414 0.225826,-0.34262 v 0.90589 l -0.58136,0.5178 v 0.41031 l 0.533301,-0.001 c 0.07283,-0.17346 0.181187,-0.28753 0.324528,-0.34262 -0.146439,0.0901 -0.250393,0.28048 -0.311609,0.57154 l -0.127124,-5.1e-4 c 0.09288,0.0337 0.178594,0.0637 0.24443,0.0842 0.04475,0.0139 0.08231,0.0242 0.10697,0.03 0.0017,4e-4 0.0015,1.9e-4 0.0031,5.2e-4 0.0016,-3.3e-4 0.0019,-1.2e-4 0.0036,-5.2e-4 0.02466,-0.006 0.06222,-0.016 0.10697,-0.03 0.06662,-0.0208 0.153661,-0.051 0.248047,-0.0853 -0.04585,2e-5 -0.08868,2.2e-4 -0.143144,-5.1e-4 -0.111413,-0.002 -0.24214,-0.0162 -0.326595,-0.0713 0.150314,0.004 0.244966,-0.0364 0.283704,-0.12144 v -0.38395 l 0.594795,-0.53434 v -0.60513 -0.001 c 0.03642,-0.0245 0.07276,-0.0646 0.109555,-0.11989 -0.01188,-0.005 -0.02181,-0.008 -0.03359,-0.0129 -0.07979,0.11528 -0.158378,0.18287 -0.235128,0.20102 -0.115447,0.0275 -0.228716,-0.0302 -0.339514,-0.17363 l -0.136943,0.0713 0.197404,-0.29662 c -0.08243,-0.0296 -0.158903,-0.0563 -0.218591,-0.0749 -0.04475,-0.0139 -0.08231,-0.0242 -0.10697,-0.03 -0.0017,-4e-4 -0.002,-1.9e-4 -0.0036,-5.2e-4 z m 0.375171,0.12247 c 0.04356,0.0745 0.105123,0.1248 0.185519,0.15038 0.04501,0.0139 0.09845,0.008 0.160197,-0.0176 -0.09,-0.0355 -0.185007,-0.0739 -0.2651,-0.10387 -0.02887,-0.0108 -0.05339,-0.019 -0.08062,-0.0289 z m 0.61805,0.24185 v 0.6351 l -0.581359,0.5178 v 0.41031 l 0.532267,-10e-4 c 4.92e-4,-2e-4 0.0011,-3.2e-4 0.0015,-5.2e-4 0.07283,-0.17309 0.180849,-0.28708 0.324011,-0.3421 -0.108745,0.0669 -0.182188,0.14895 -0.237711,0.30593 0.122643,-0.0504 0.245864,-0.10138 0.370003,-0.15452 0.332185,-0.14218 0.656211,-0.28795 0.894519,-0.40462 0.119155,-0.0583 0.217005,-0.1095 0.282153,-0.1478 0.03257,-0.0192 0.05671,-0.0354 0.07028,-0.046 9.88e-4,-7.7e-4 7.89e-4,-8.8e-4 0.0016,-0.002 -8.12e-4,-7.4e-4 -6.14e-4,-8.4e-4 -0.0016,-0.002 -0.01357,-0.0106 -0.0377,-0.0268 -0.07028,-0.046 -0.06515,-0.0383 -0.162998,-0.0895 -0.282153,-0.14779 -0.238308,-0.11668 -0.562334,-0.26245 -0.894519,-0.40463 -0.137112,-0.0587 -0.273992,-0.11484 -0.408761,-0.17001 z m -1.437638,0.0889 -0.0015,0.56431 c -0.116222,-0.0595 -0.230008,-0.0629 -0.341581,-0.0103 0.03874,-0.0934 0.130803,-0.13102 0.276469,-0.11265 v -0.14108 c -0.0891,-0.0408 -0.173669,-0.0291 -0.254249,0.0351 0.01782,-0.0986 0.102385,-0.14729 0.254249,-0.14418 v -0.14469 z m 1.185457,0 -0.0015,0.56431 c -0.116222,-0.0595 -0.230008,-0.0629 -0.341581,-0.0103 0.03874,-0.0934 0.130803,-0.13102 0.276469,-0.11265 v -0.14108 c -0.0891,-0.0408 -0.173668,-0.0291 -0.254248,0.0351 0.01782,-0.0987 0.102384,-0.14729 0.254248,-0.14418 v -0.14521 z m -3.589961,0.79168 c 0.0018,0.37797 0.01126,0.72746 0.02894,0.78187 0.03945,0.12141 0.968497,1.40033 1.071769,1.47536 0.103271,0.075 1.60661,0.56327 1.734261,0.56327 0.127651,0 1.630989,-0.48824 1.734261,-0.56327 0.103272,-0.075 1.032839,-1.35395 1.072286,-1.47536 0.01741,-0.0536 0.02638,-0.39354 0.02842,-0.76481 -0.07406,0.0433 -0.173985,0.0952 -0.294039,0.15399 -0.245394,0.12014 -0.572008,0.26756 -0.907955,0.41135 -0.335947,0.1438 -0.681002,0.28357 -0.961698,0.3886 -0.140349,0.0525 -0.264064,0.0963 -0.366386,0.12816 -0.05116,0.0159 -0.0965,0.0291 -0.139527,0.0393 -0.04303,0.0101 -0.0759,0.0202 -0.151412,0.0202 -0.07551,0 -0.108383,-0.01 -0.151411,-0.0202 -0.04303,-0.0101 -0.08837,-0.0233 -0.139527,-0.0393 -0.102322,-0.0319 -0.226038,-0.0756 -0.366386,-0.12816 -0.280696,-0.10503 -0.625233,-0.2448 -0.961181,-0.3886 -0.335947,-0.14379 -0.662562,-0.29121 -0.907955,-0.41135 -0.122697,-0.0601 -0.225241,-0.11329 -0.299724,-0.15709 -0.0084,-0.005 -0.01505,-0.009 -0.02274,-0.014 z" />
  </g>
</svg>
