<?xml version="1.0" encoding="UTF-8" standalone="no"?>
<!-- Created with Inkscape (http://www.inkscape.org/) -->

<svg
   width="7.2042117mm"
   height="6.3448324mm"
   viewBox="0 0 7.2042117 6.3448324"
   version="1.1"
   id="svg1"
   xmlns="http://www.w3.org/2000/svg"
   xmlns:svg="http://www.w3.org/2000/svg">
  <defs
     id="defs1">
    <linearGradient
       id="swatch4">
      <stop
         style="stop-color:#000000;stop-opacity:1;"
         offset="0"
         id="stop4" />
    </linearGradient>
  </defs>
  <g
     id="layer2"
     style="stroke:#ffffff;stroke-opacity:1"
     transform="translate(-41.163381,-158.4291)">
    <path
       id="path34-81-8-39-2"
       style="fill:#000000;fill-opacity:1;stroke:none;stroke-width:0.200326;stroke-dasharray:none;stroke-opacity:1"
       d="m 44.698047,158.42909 c -0.534491,0.28392 -3.534668,2.96694 -3.534668,3.18172 0,0.0765 0.383542,0.46818 0.89762,0.95084 z m 0.133842,0 2.635498,4.13463 c 0.515202,-0.48363 0.900203,-0.87635 0.900203,-0.95291 0,-0.2149 -3.003634,-2.90029 -3.535701,-3.18172 z m -0.06666,0.26613 -2.459281,3.85817 2.463415,1.11052 2.450497,-1.11569 z m 0.05891,1.86707 c 0.01085,0.0817 0.05481,0.13315 0.132292,0.154 0.07748,0.0209 0.155063,0.002 0.232544,-0.0574 -0.0984,0.19682 -0.194602,0.29782 -0.288355,0.30282 -0.09375,0.004 -0.174695,-0.0362 -0.242879,-0.1204 l -0.0801,0.0879 v 1.2361 l 0.322977,0.19998 0.04754,-0.0661 v -0.82217 c -0.05656,-0.0117 -0.100524,-0.0486 -0.132292,-0.11111 l -0.225309,0.31884 0.001,-0.11627 0.378789,-0.49299 c 0.01782,0.10175 0.07394,0.16312 0.168465,0.18397 0.09453,0.0208 0.179349,0.002 0.253731,-0.0574 -0.08291,0.17013 -0.157124,0.26747 -0.222209,0.29249 l -10e-4,0.66817 -0.357084,0.47749 -0.462504,-0.31522 c -0.05114,-0.0334 -0.121478,-0.0338 -0.211357,-0.002 0.08755,-0.0717 0.154274,-0.10526 0.199988,-0.10025 v -1.01441 c -0.04417,-0.003 -0.110367,-0.0389 -0.197921,-0.10646 0.07981,0.0284 0.144974,0.0295 0.195337,0.004 z m 0.01137,0.88729 0.06511,0.0589 v 0.75396 l -0.06511,0.0589 z m 2.43396,1.29811 -2.404504,1.09347 v 0.93276 c 0.361988,-0.21531 1.517408,-1.20608 2.404504,-2.02623 z m -4.996077,0.0103 c 0.883852,0.81645 2.02802,1.79843 2.390551,2.01538 V 163.837 Z" />
  </g>
</svg>
