<?xml version="1.0" encoding="UTF-8" standalone="no"?>
<!-- Created with Inkscape (http://www.inkscape.org/) -->

<svg
   width="6.9887209mm"
   height="6.2364087mm"
   viewBox="0 0 6.9887209 6.2364087"
   version="1.1"
   id="svg1"
   xmlns="http://www.w3.org/2000/svg"
   xmlns:svg="http://www.w3.org/2000/svg">
  <defs
     id="defs1">
    <linearGradient
       id="swatch4">
      <stop
         style="stop-color:#000000;stop-opacity:1;"
         offset="0"
         id="stop4" />
    </linearGradient>
  </defs>
  <g
     id="layer2"
     style="stroke:#ffffff;stroke-opacity:1"
     transform="translate(-72.080869,-150.44559)">
    <path
       id="path94-48-3"
       style="fill:#000000;fill-opacity:1;stroke:none;stroke-width:0.192506;stroke-dasharray:none;stroke-opacity:1"
       d="m 75.574198,150.4456 c -0.703573,0 -1.400447,0.0158 -1.658296,0.0465 l 0.555521,1.00872 c 0.024,-0.004 0.05257,-0.006 0.0863,-0.009 0.06866,-0.006 0.158762,-0.0105 0.264067,-0.014 0.21061,-0.007 0.481208,-0.0109 0.752408,-0.0109 0.271199,0 0.542317,0.004 0.752926,0.0109 0.105305,0.004 0.195412,0.008 0.264067,0.014 0.03433,0.003 0.0636,0.005 0.08785,0.009 l 0.575675,-1.00666 c -0.240758,-0.0323 -0.958827,-0.0486 -1.680518,-0.0486 z m -1.826245,0.13901 c -0.303935,0.40167 -1.458801,2.4017 -1.663981,2.88044 l 1.161686,0.002 c 0.0077,-0.0183 0.01511,-0.0363 0.02584,-0.0589 0.02956,-0.0622 0.07032,-0.14215 0.119889,-0.23513 0.09914,-0.18595 0.231819,-0.42246 0.367419,-0.65732 0.135599,-0.23487 0.274549,-0.46765 0.386023,-0.64648 0.05574,-0.0894 0.104045,-0.16499 0.143144,-0.22169 0.0091,-0.0132 0.01615,-0.0219 0.02429,-0.0331 z m 3.665926,0.0176 -0.577225,1.01234 c 0.0081,0.0112 0.01521,0.0204 0.02429,0.0336 0.0391,0.0567 0.08741,0.13228 0.143143,0.22169 0.111474,0.17884 0.250423,0.4116 0.386023,0.64647 0.1356,0.23486 0.268284,0.47138 0.36742,0.65733 0.04957,0.093 0.09033,0.17291 0.119889,0.23512 0.01065,0.0224 0.01819,0.0402 0.02584,0.0584 l 1.159103,-0.007 c -0.207743,-0.48052 -1.327597,-2.4211 -1.648479,-2.8577 z m -1.839681,1.05781 c -0.269523,0 -0.539039,0.003 -0.746207,0.0109 -0.103584,0.004 -0.191371,0.008 -0.254765,0.0134 -0.0317,0.002 -0.05762,0.005 -0.07441,0.008 -0.0023,3.4e-4 -0.003,0.001 -0.0052,0.002 -0.0012,0.001 -0.0019,0.002 -0.0031,0.003 -0.01059,0.0133 -0.02586,0.0343 -0.04393,0.0605 -0.0361,0.0524 -0.08418,0.12651 -0.13901,0.21446 -0.109652,0.17591 -0.247127,0.40738 -0.381889,0.64079 -0.134761,0.23341 -0.266803,0.46872 -0.364319,0.65164 -0.04876,0.0915 -0.08898,0.17044 -0.116272,0.22789 -0.01365,0.0287 -0.02428,0.0524 -0.03049,0.0682 -7.5e-4,0.002 -5.23e-4,0.003 -0.001,0.005 5.42e-4,0.002 3.15e-4,0.003 0.001,0.005 0.0062,0.0158 0.01684,0.0395 0.03049,0.0682 0.02729,0.0574 0.06751,0.13592 0.116272,0.22738 0.09752,0.18291 0.229558,0.41823 0.364319,0.65164 0.134762,0.23342 0.272237,0.46539 0.381889,0.6413 0.05483,0.088 0.102907,0.1621 0.13901,0.21446 0.01805,0.0262 0.03333,0.0468 0.04393,0.06 0.0015,0.002 0.0025,0.002 0.0041,0.004 0.0017,3.4e-4 0.0023,7.2e-4 0.0041,0.001 0.0168,0.002 0.04272,0.005 0.07441,0.008 0.06339,0.005 0.151181,0.009 0.254765,0.0129 0.207168,0.007 0.476684,0.0103 0.746207,0.0103 0.269522,0 0.539556,-0.003 0.746725,-0.0103 0.103584,-0.003 0.191371,-0.008 0.254765,-0.0129 0.0317,-0.002 0.05762,-0.005 0.07441,-0.008 0.0018,-2.7e-4 0.0024,-7.2e-4 0.0041,-0.001 0.0016,-0.002 0.0026,-0.002 0.0041,-0.004 0.01059,-0.0133 0.02586,-0.0337 0.04393,-0.06 0.0361,-0.0524 0.08418,-0.1265 0.13901,-0.21446 0.109652,-0.17591 0.247126,-0.40788 0.381888,-0.6413 0.134761,-0.23341 0.266803,-0.46873 0.364319,-0.65164 0.04876,-0.0915 0.08898,-0.16993 0.116272,-0.22738 0.01365,-0.0287 0.02428,-0.0524 0.03049,-0.0682 7.54e-4,-0.002 5.14e-4,-0.003 0.001,-0.005 -5.48e-4,-0.002 -3.16e-4,-0.003 -0.001,-0.005 -0.0062,-0.0158 -0.01684,-0.0395 -0.03049,-0.0682 -0.02729,-0.0574 -0.06751,-0.13643 -0.116272,-0.22789 -0.09752,-0.18292 -0.229558,-0.41823 -0.364319,-0.65164 -0.134762,-0.23341 -0.272236,-0.46488 -0.381888,-0.64079 -0.05483,-0.0879 -0.102907,-0.1621 -0.13901,-0.21446 -0.01805,-0.0262 -0.03334,-0.0472 -0.04393,-0.0605 -0.0012,-0.001 -0.0019,-0.002 -0.0031,-0.003 -0.0021,-6.9e-4 -0.0029,-0.001 -0.0052,-0.002 -0.0168,-0.002 -0.04272,-0.005 -0.07441,-0.008 -0.06339,-0.005 -0.151181,-0.01 -0.254765,-0.0134 -0.207169,-0.007 -0.477202,-0.0109 -0.746725,-0.0109 z m -0.594795,0.86455 c 0.0015,0.13094 0.08378,0.20135 0.246496,0.21136 l -0.110587,0.14624 -0.001,1.38338 0.197921,0.0863 c 0.04959,-0.0567 0.110877,-0.0829 0.184485,-0.0796 -0.07128,0.0367 -0.167484,0.1447 -0.288355,0.32401 l -0.277502,-0.10542 c -0.03564,0.055 -0.117619,0.0856 -0.245463,0.0915 0.09608,-0.0459 0.163831,-0.11131 0.202571,-0.19637 l 0.001,-1.49862 c -0.04107,-0.007 -0.07313,-0.0255 -0.0956,-0.0563 l -0.193787,0.0698 z m 1.071769,0.003 c 0.0039,0.0709 0.05844,0.13378 0.163814,0.18966 0.10615,0.0559 0.218125,0.0476 0.335897,-0.0258 l -0.126607,0.14883 v 1.16685 L 76.2,154.20454 v -0.66197 c 0.100726,-0.004 0.150895,-0.0508 0.150895,-0.14005 0,-0.0901 -0.05017,-0.13467 -0.150895,-0.13384 v -0.28525 c -0.121646,-0.0334 -0.22276,-0.10692 -0.303341,-0.22118 v 0.5054 c -0.100726,0.003 -0.151412,0.0488 -0.151412,0.13642 0,0.0867 0.05069,0.13246 0.151412,0.13746 v 0.71159 l 0.183452,0.12505 0.344165,-0.33279 -0.0057,0.11782 -0.438216,0.44028 -0.311609,-0.19017 c -0.03564,-0.0167 -0.08685,-0.0176 -0.153479,-0.003 0.06431,-0.055 0.11241,-0.084 0.144178,-0.0873 v -1.35238 c -0.03642,0.0134 -0.09072,-0.0136 -0.162781,-0.0811 0.06431,0.0284 0.117582,0.0295 0.160197,0.004 z m -0.814937,0.27389 v 1.34204 l -0.06511,0.0589 v -1.31 z m 0.807185,0.2651 c 0.0085,0 0.01719,0.002 0.02532,0.006 0.01627,0.008 0.02636,0.021 0.03101,0.0377 0.0054,0.0159 0.0054,0.0319 0,0.0486 -0.0054,0.0167 -0.01835,0.0294 -0.03927,0.0377 v 0.18759 h 0.102319 c 0.0077,-0.0225 0.01913,-0.037 0.03462,-0.0429 0.0155,-0.006 0.03075,-0.006 0.04547,0 0.0155,0.005 0.02688,0.0166 0.03462,0.0341 0.0077,0.0175 0.0077,0.0356 0,0.0548 -0.007,0.0183 -0.01861,0.0301 -0.03566,0.0351 -0.01705,0.005 -0.0336,0.004 -0.04909,-0.004 -0.0155,-0.007 -0.02532,-0.0232 -0.02997,-0.0465 H 76.06099 l 5.17e-4,0.64182 c 0.02092,0.008 0.03437,0.021 0.03979,0.0377 0.0054,0.0167 0.0054,0.0334 0,0.0501 -0.0046,0.0158 -0.01525,0.0278 -0.03152,0.0362 -0.01627,0.008 -0.03334,0.009 -0.05116,0.001 -0.01705,-0.008 -0.02791,-0.0214 -0.03256,-0.0398 -0.0046,-0.0183 -0.0034,-0.036 0.0036,-0.0527 0.007,-0.0167 0.0212,-0.0276 0.04289,-0.0326 l -5.16e-4,-0.64182 h -0.111105 c -0.0046,0.0233 -0.01448,0.039 -0.02997,0.0465 -0.0155,0.008 -0.03205,0.009 -0.04909,0.004 -0.01705,-0.005 -0.02946,-0.0168 -0.03721,-0.0351 -0.007,-0.0192 -0.0067,-0.0373 0.001,-0.0548 0.0077,-0.0175 0.01939,-0.0291 0.03411,-0.0341 0.0155,-0.006 0.03101,-0.006 0.04651,0 0.0155,0.006 0.02688,0.0204 0.03462,0.0429 h 0.110588 v -0.18759 c -0.0217,-0.005 -0.03644,-0.0159 -0.04341,-0.0325 -0.007,-0.0167 -0.0078,-0.0344 -0.0031,-0.0527 0.0046,-0.0183 0.01551,-0.0312 0.03256,-0.0388 0.0089,-0.004 0.01731,-0.006 0.02584,-0.006 z m 3.026172,0.58653 -1.165303,0.006 c -0.0079,0.0188 -0.01562,0.0378 -0.02687,0.0615 -0.02956,0.0622 -0.07032,0.14215 -0.119889,0.23513 -0.09914,0.18595 -0.23182,0.42245 -0.36742,0.65732 -0.1356,0.23487 -0.274549,0.46816 -0.386023,0.64699 -0.05574,0.0894 -0.104043,0.165 -0.143143,0.2217 -0.01445,0.0209 -0.02665,0.0364 -0.03876,0.0522 l 0.57826,1.01131 c 0.304945,-0.4024 1.476214,-2.43135 1.669148,-2.89182 z m -6.98872,0.004 c 0.198138,0.4686 1.368339,2.49456 1.669665,2.89026 l 0.58291,-1.00407 c -0.01382,-0.0177 -0.02838,-0.0372 -0.04548,-0.062 -0.0391,-0.0567 -0.08741,-0.13228 -0.143144,-0.22169 -0.111474,-0.17883 -0.250424,-0.41212 -0.386023,-0.64699 -0.1356,-0.23487 -0.268283,-0.47137 -0.367419,-0.65733 -0.04957,-0.093 -0.09033,-0.17291 -0.119889,-0.23512 -0.01117,-0.0235 -0.01901,-0.0423 -0.02687,-0.061 z m 4.576981,1.97249 c -0.02025,0.002 -0.04061,0.005 -0.06666,0.007 -0.06865,0.005 -0.158762,0.01 -0.264067,0.0134 -0.210609,0.007 -0.481727,0.0108 -0.752926,0.0108 -0.2712,0 -0.541798,-0.004 -0.752408,-0.0108 -0.105305,-0.004 -0.195411,-0.008 -0.264067,-0.0134 -0.0208,-0.002 -0.03613,-0.004 -0.05323,-0.006 l -0.581876,1.00666 c 0.528329,0.0605 2.795476,0.06 3.309875,-0.001 z m 0.685746,0.9803 -0.01705,0.01 c 0.0022,-0.001 0.0088,-0.002 0.01034,-0.003 0.0015,-8.7e-4 0.0045,-0.005 0.0067,-0.007 z" />
  </g>
</svg>
