<?xml version="1.0" encoding="UTF-8" standalone="no"?>
<!-- Created with Inkscape (http://www.inkscape.org/) -->

<svg
   width="6.1489787mm"
   height="6.1494951mm"
   viewBox="0 0 6.1489787 6.1494951"
   version="1.1"
   id="svg1"
   xmlns="http://www.w3.org/2000/svg"
   xmlns:svg="http://www.w3.org/2000/svg">
  <defs
     id="defs1">
    <linearGradient
       id="swatch4">
      <stop
         style="stop-color:#000000;stop-opacity:1;"
         offset="0"
         id="stop4" />
    </linearGradient>
  </defs>
  <g
     id="layer2"
     style="stroke:#ffffff;stroke-opacity:1"
     transform="translate(-111.02217,-166.15574)">
    <path
       id="path225-00-33"
       style="fill:#000000;fill-opacity:1;stroke:none;stroke-width:0.200527;stroke-dasharray:none;stroke-opacity:1"
       d="m 112.82309,166.15575 -0.015,0.015 0.0367,-0.015 z m 0.108,0 0.31678,0.7798 1.69705,-0.001 0.31058,-0.77876 z m 2.43448,0 0.008,0.003 -0.003,-0.003 z m 0.0765,0.0718 -0.31264,0.7891 1.18752,1.18804 0.77773,-0.32453 z m -2.69648,0.006 -1.64848,1.64848 0.78032,0.32091 1.18546,-1.18494 z m 0.48318,0.90175 -1.2268,1.22732 v 1.73529 l 1.2268,1.22784 1.73529,-0.001 1.2268,-1.2268 5.2e-4,-1.73529 -1.22732,-1.2268 z m -2.19108,0.80616 -0.0155,0.0155 v 0.0222 z m 6.13347,0.12557 -0.77928,0.32453 v 1.67276 l 0.77928,0.32867 z m -6.14898,0.001 v 2.32699 l 0.77928,-0.33486 v -1.6707 z m 2.4443,0.12248 c 0.002,0.13093 0.0838,0.20135 0.2465,0.21135 l -0.11059,0.14677 -0.001,1.38337 0.19793,0.0863 c 0.0496,-0.0567 0.11087,-0.0834 0.18448,-0.0801 -0.0713,0.0367 -0.16748,0.14471 -0.28835,0.32402 l -0.27751,-0.10491 c -0.0356,0.055 -0.11762,0.0851 -0.24546,0.091 0.0961,-0.0459 0.16383,-0.1113 0.20257,-0.19637 l 0.001,-1.49861 c -0.0411,-0.007 -0.0731,-0.0255 -0.0956,-0.0563 l -0.19378,0.0703 z m 1.0542,0.0367 0.50436,10e-4 -0.16123,0.23255 -0.46405,0.002 v 0.50281 h 0.0408 v -0.43925 c 0.17356,-0.0592 0.31941,-0.0336 0.43718,0.0765 -0.12862,-0.05 -0.25094,-0.0559 -0.36638,-0.0176 v 0.11989 c 0.0728,-0.0309 0.14213,-0.018 0.20722,0.0388 -0.0845,-0.0259 -0.15376,0.002 -0.20722,0.0816 l -0.0574,0.14005 0.35605,10e-4 c 0.11002,0.002 0.20907,-0.04 0.29662,-0.12506 l -0.14676,0.21136 -10e-4,0.73949 -0.44493,0.47801 -0.31626,-0.20309 c -0.0697,-0.0334 -0.16024,-0.0175 -0.27182,0.0475 0.16349,-0.22184 0.2902,-0.32009 0.38086,-0.29507 l 0.31626,0.21291 0.0661,-0.0615 v -0.82321 h -0.40876 c -0.0937,-0.006 -0.19642,0.003 -0.30799,0.0253 0.0783,-0.0884 0.1336,-0.13464 0.16692,-0.13798 v -0.32608 c -0.0387,0.0134 -0.0969,-0.0263 -0.17519,-0.11885 0.0697,0.0284 0.12766,0.0295 0.17415,0.004 z m -0.79737,0.23978 v 1.34255 l -0.0651,0.0589 v -1.31 z m 0.92863,0.7183 v 0.75551 l -0.0708,0.0589 v -0.19017 c -0.062,-0.0425 -0.12327,-0.0473 -0.18449,-0.0139 0.0333,-0.0726 0.0946,-0.11035 0.18449,-0.11369 l 10e-4,-0.41651 z m -2.78226,1.06453 -0.76998,0.33177 1.65003,1.65002 0.31832,-0.78393 z m 4.45037,0.003 -1.20354,1.20355 0.33021,0.77204 1.64848,-1.64847 z m -5.29787,0.23255 v 0.0186 l 0.014,0.0139 z m 2.23088,1.03973 -0.31678,0.77979 h 2.32647 l -0.33641,-0.77928 z m -0.44235,0.76739 0.0124,0.0124 h 0.0176 z" />
  </g>
</svg>
