<?xml version="1.0" encoding="UTF-8" standalone="no"?>
<!-- Created with Inkscape (http://www.inkscape.org/) -->

<svg
   width="5.670455mm"
   height="5.9009318mm"
   viewBox="0 0 5.670455 5.9009318"
   version="1.1"
   id="svg1"
   xmlns="http://www.w3.org/2000/svg"
   xmlns:svg="http://www.w3.org/2000/svg">
  <defs
     id="defs1">
    <linearGradient
       id="swatch4">
      <stop
         style="stop-color:#000000;stop-opacity:1;"
         offset="0"
         id="stop4" />
    </linearGradient>
  </defs>
  <g
     id="layer2"
     style="stroke:#ffffff;stroke-opacity:1"
     transform="translate(-33.975704,-202.2719)">
    <path
       id="path237-317-04-7"
       style="fill:#000000;fill-opacity:1;stroke:none;stroke-width:0.200527;stroke-dasharray:none;stroke-opacity:1"
       d="m 36.810673,202.27189 c -0.127651,0 -1.630989,0.48824 -1.734261,0.56327 -0.103272,0.075 -1.032323,1.35397 -1.071769,1.47537 -0.01829,0.0563 -0.02761,0.4279 -0.02894,0.82062 0.0077,-0.005 0.01437,-0.009 0.02274,-0.0139 0.07448,-0.0438 0.177026,-0.097 0.299723,-0.1571 0.245394,-0.12015 0.572008,-0.26756 0.907955,-0.41135 0.288975,-0.12368 0.576919,-0.24028 0.832507,-0.33848 l 0.02532,-0.0377 c 0.0035,0.008 0.007,0.016 0.01085,0.0238 0.02945,-0.0112 0.06427,-0.0256 0.0925,-0.0362 0.140348,-0.0525 0.264064,-0.0963 0.366386,-0.12816 0.05116,-0.0159 0.0965,-0.0286 0.139527,-0.0388 0.04303,-0.0101 0.0759,-0.0207 0.151412,-0.0207 0.07551,0 0.108384,0.0105 0.151412,0.0207 0.04303,0.0101 0.08837,0.0228 0.139526,0.0388 0.102323,0.0319 0.226037,0.0756 0.366386,0.12816 0.05403,0.0202 0.118975,0.0467 0.17725,0.0692 l 0.279053,5.2e-4 -0.05891,0.0853 c 0.183383,0.0735 0.373311,0.15183 0.564306,0.23357 0.335948,0.14379 0.662562,0.2912 0.907955,0.41135 0.12024,0.0589 0.220469,0.11072 0.294556,0.154 -0.0016,-0.38625 -0.01092,-0.74812 -0.02894,-0.80357 -0.03945,-0.1214 -0.969014,-1.40034 -1.072286,-1.47537 -0.103272,-0.075 -1.60661,-0.56327 -1.734261,-0.56327 z m 0.01395,1.83555 c -0.0016,3.3e-4 -0.0019,1.1e-4 -0.0036,5.1e-4 -0.02466,0.006 -0.06222,0.016 -0.10697,0.03 -0.0895,0.0279 -0.208386,0.0699 -0.344682,0.12092 -0.05466,0.0205 -0.12127,0.0477 -0.180867,0.0708 0.02586,0.0175 0.05426,0.0318 0.08578,0.0419 0.09685,0.03 0.23236,-0.0315 0.406693,-0.185 -0.123195,0.2502 -0.242929,0.38899 -0.359151,0.41652 -0.115447,0.0275 -0.228716,-0.0307 -0.339514,-0.17415 l -0.136943,0.0713 0.03204,-0.0481 c -0.148874,0.0606 -0.302346,0.12442 -0.454753,0.18965 -0.332185,0.14218 -0.655693,0.28795 -0.894002,0.40463 -0.119154,0.0583 -0.217007,0.10948 -0.282154,0.14779 -0.03257,0.0191 -0.05671,0.0354 -0.07028,0.046 -9.88e-4,7.7e-4 -6.89e-4,3.6e-4 -0.0016,0.002 8.11e-4,7.4e-4 5.13e-4,8.4e-4 0.0016,0.002 0.01357,0.0106 0.03771,0.0268 0.07028,0.046 0.06515,0.0383 0.163,0.0894 0.282154,0.1478 0.238309,0.11667 0.561817,0.26245 0.894002,0.40463 0.155198,0.0664 0.311632,0.13174 0.463021,0.19327 v -0.36071 l 0.595312,-0.53381 v -0.60565 c 0.07438,-0.05 0.149378,-0.16414 0.22531,-0.34262 v 0.90538 l -0.580843,0.51831 v 0.41031 l 0.5333,-0.002 c 0.07283,-0.17347 0.181188,-0.28757 0.324528,-0.34261 -0.14644,0.0901 -0.250398,0.28048 -0.311609,0.57154 l -0.224792,-0.001 c 0.102516,0.0375 0.195885,0.0708 0.267167,0.093 0.04475,0.0139 0.08231,0.0242 0.10697,0.03 0.0017,4e-4 0.002,1.9e-4 0.0036,5.2e-4 0.0016,-3.3e-4 0.0019,-1.2e-4 0.0036,-5.2e-4 0.02466,-0.006 0.06222,-0.016 0.10697,-0.03 0.0895,-0.0279 0.208902,-0.0699 0.345199,-0.12092 0.01392,-0.005 0.03172,-0.0127 0.04599,-0.0181 l -0.215491,-0.13797 c -0.06973,-0.0334 -0.160245,-0.0175 -0.271818,0.0475 0.163486,-0.22184 0.290202,-0.32009 0.380855,-0.29507 l 0.31626,0.21239 0.06615,-0.061 v -0.82321 h -0.408761 c -0.09375,-0.006 -0.196418,0.002 -0.307991,0.0248 0.07826,-0.0884 0.133598,-0.13413 0.166915,-0.13746 v -0.3266 c -0.03874,0.0134 -0.09693,-0.0263 -0.175183,-0.11885 0.06973,0.0284 0.12766,0.0295 0.174149,0.004 l 0.315743,-0.3023 c -0.02748,-0.0105 -0.06054,-0.0243 -0.08682,-0.0341 -0.136297,-0.051 -0.255701,-0.093 -0.345199,-0.12092 -0.04475,-0.0139 -0.08231,-0.0242 -0.10697,-0.03 -0.0017,-4e-4 -0.002,-1.8e-4 -0.0036,-5.1e-4 z m 0.957047,0.34881 -0.0047,0.007 -0.464054,0.001 v 0.50281 h 0.04082 v -0.43874 c 0.173559,-0.0592 0.319411,-0.0341 0.437183,0.076 -0.128619,-0.05 -0.250939,-0.0559 -0.366386,-0.0176 v 0.1204 c 0.07283,-0.0309 0.141621,-0.018 0.206706,0.0388 -0.08445,-0.0259 -0.153244,10e-4 -0.206706,0.0811 l -0.05736,0.14005 0.356051,0.002 c 0.110024,0.002 0.209068,-0.04 0.296623,-0.12506 l -0.146762,0.21136 -0.001,0.73897 -0.293005,0.31471 c 0.207019,-0.082 0.425412,-0.17107 0.647505,-0.26613 0.332185,-0.14218 0.656211,-0.28796 0.894519,-0.40463 0.119155,-0.0583 0.217006,-0.1095 0.282154,-0.1478 0.03257,-0.0192 0.05671,-0.0354 0.07028,-0.046 9.87e-4,-7.7e-4 6.88e-4,-8.7e-4 0.0016,-0.002 -8.12e-4,-7.4e-4 -5.13e-4,-3.3e-4 -0.0016,-0.002 -0.01357,-0.0106 -0.03771,-0.0268 -0.07028,-0.046 -0.06515,-0.0383 -0.162999,-0.0895 -0.282154,-0.14779 -0.238308,-0.11668 -0.562334,-0.26245 -0.894519,-0.40463 -0.149112,-0.0638 -0.299161,-0.12609 -0.444934,-0.18552 z m -1.327567,0.0956 -0.001,0.56379 c -0.116222,-0.0592 -0.230008,-0.0624 -0.341581,-0.01 0.03874,-0.0934 0.130804,-0.13101 0.276469,-0.11266 v -0.14159 c -0.0891,-0.0409 -0.174184,-0.0291 -0.254765,0.0351 0.01782,-0.0984 0.102901,-0.14616 0.254765,-0.14366 v -0.14521 z m 1.111043,0.6351 v 0.75551 l -0.0708,0.0589 v -0.19017 c -0.06198,-0.0425 -0.123791,-0.0468 -0.185001,-0.0134 0.03332,-0.0726 0.09512,-0.11086 0.185001,-0.1142 l 10e-4,-0.41651 z m -3.589445,0.16536 c 0.0018,0.37797 0.01126,0.72746 0.02894,0.78187 0.03945,0.12141 0.968497,1.40033 1.071769,1.47536 0.103271,0.075 1.60661,0.56327 1.734261,0.56327 0.127651,0 1.630989,-0.48824 1.734261,-0.56327 0.103271,-0.075 1.032839,-1.35395 1.072286,-1.47536 0.01741,-0.0536 0.02638,-0.39354 0.02842,-0.76481 -0.07406,0.0433 -0.173985,0.0952 -0.294039,0.15399 -0.245394,0.12014 -0.572008,0.26756 -0.907955,0.41135 -0.335947,0.1438 -0.681001,0.28357 -0.961698,0.3886 -0.140348,0.0525 -0.264063,0.0963 -0.366386,0.12816 -0.05116,0.0159 -0.0965,0.0291 -0.139526,0.0393 -0.04303,0.0101 -0.0759,0.0202 -0.151412,0.0202 -0.07552,0 -0.108384,-0.01 -0.151412,-0.0202 -0.04303,-0.0101 -0.08837,-0.0233 -0.139527,-0.0393 -0.102323,-0.0319 -0.226038,-0.0756 -0.366386,-0.12816 -0.05599,-0.0209 -0.122953,-0.0483 -0.183451,-0.0718 h -0.05478 c -0.133268,0.008 -0.24214,-0.0163 -0.326595,-0.0713 0.06116,0.002 0.112341,-0.004 0.155029,-0.0171 -0.179218,-0.072 -0.365102,-0.14867 -0.551387,-0.22841 -0.335947,-0.14379 -0.662561,-0.29121 -0.907955,-0.41135 -0.122697,-0.0601 -0.22524,-0.11329 -0.299723,-0.15709 -0.0084,-0.005 -0.01505,-0.009 -0.02274,-0.014 z" />
  </g>
</svg>
