<?xml version="1.0" encoding="UTF-8" standalone="no"?>
<!-- Created with Inkscape (http://www.inkscape.org/) -->

<svg
   width="5.724812mm"
   height="5.6291137mm"
   viewBox="0 0 5.724812 5.6291137"
   version="1.1"
   id="svg1"
   xmlns="http://www.w3.org/2000/svg"
   xmlns:svg="http://www.w3.org/2000/svg">
  <defs
     id="defs1">
    <linearGradient
       id="swatch4">
      <stop
         style="stop-color:#000000;stop-opacity:1;"
         offset="0"
         id="stop4" />
    </linearGradient>
  </defs>
  <g
     id="layer2"
     style="stroke:#ffffff;stroke-opacity:1"
     transform="translate(-72.712716,-181.08921)">
    <path
       id="path24-11-10-49"
       style="display:inline;fill:#000000;fill-opacity:1;stroke:none;stroke-width:0.200527;stroke-dasharray:none;stroke-opacity:1"
       d="m 75.574715,181.0892 c -1.165468,0 -2.328544,0.0383 -2.640666,0.11421 l 2.666504,1.89446 2.592607,-1.90014 c -0.344045,-0.0724 -1.48079,-0.10853 -2.618445,-0.10853 z m 2.756421,0.2558 -2.569352,1.88361 c 0.0366,0.0272 0.07543,0.0602 0.119889,0.1018 0.09943,0.093 0.222021,0.22296 0.361218,0.37827 0.278395,0.31061 0.62086,0.72419 0.950847,1.1436 0.329988,0.4194 0.646973,0.84394 0.874365,1.17616 0.113695,0.16612 0.204598,0.30943 0.264583,0.41909 0.0049,0.009 0.0084,0.0163 0.01292,0.0248 0.127186,-0.88983 0.122417,-4.44123 -0.01447,-5.12734 z m -5.515942,0.0202 c -0.135481,0.74634 -0.136584,4.35136 -0.0036,5.15162 0.01047,-0.0216 0.0224,-0.0442 0.03617,-0.0693 0.05998,-0.10966 0.150887,-0.25297 0.264583,-0.41909 0.227391,-0.33222 0.544378,-0.75676 0.874365,-1.17616 0.329987,-0.41941 0.67297,-0.83299 0.951364,-1.1436 0.139198,-0.15531 0.261274,-0.28532 0.360701,-0.37827 0.0479,-0.0448 0.09066,-0.0803 0.129708,-0.10852 z m 2.774507,1.98075 c -0.02679,0.0195 -0.06305,0.0504 -0.10697,0.0915 -0.09203,0.086 -0.212669,0.21229 -0.349849,0.36535 -0.27436,0.30611 -0.615357,0.71814 -0.943612,1.13534 -0.328254,0.4172 -0.644068,0.83996 -0.868164,1.16737 -0.112047,0.16371 -0.200791,0.30415 -0.256315,0.40566 -0.02652,0.0485 -0.0436,0.0864 -0.05323,0.11317 0.03645,0.007 0.09037,0.0154 0.160197,0.0227 0.147557,0.0155 0.356938,0.0286 0.606165,0.0393 0.498455,0.0213 1.155266,0.032 1.811775,0.032 0.656509,0 1.313838,-0.0108 1.812293,-0.032 0.249228,-0.0106 0.459641,-0.0238 0.607198,-0.0393 0.07023,-0.007 0.123761,-0.0155 0.160197,-0.0227 -0.0096,-0.0268 -0.02773,-0.0647 -0.05426,-0.11317 -0.05552,-0.10151 -0.144268,-0.24195 -0.256316,-0.40566 -0.224095,-0.32741 -0.540425,-0.75017 -0.86868,-1.16737 -0.328255,-0.4172 -0.669252,-0.82923 -0.943612,-1.13534 -0.137179,-0.15306 -0.2573,-0.27932 -0.349333,-0.36535 -0.04392,-0.0411 -0.0807,-0.072 -0.107487,-0.0915 z m -0.610298,1.03818 c 0.0015,0.13094 0.08378,0.20135 0.246496,0.21136 l -0.110071,0.14625 -0.0015,1.38389 0.197921,0.0863 c 0.04959,-0.0567 0.110877,-0.0834 0.184485,-0.0801 -0.07128,0.0367 -0.167484,0.14471 -0.288355,0.32401 l -0.277502,-0.1049 c -0.03564,0.055 -0.117619,0.0851 -0.245463,0.0909 0.09608,-0.0459 0.163831,-0.1113 0.202571,-0.19637 l 0.001,-1.49862 c -0.04107,-0.007 -0.07261,-0.0255 -0.09508,-0.0563 l -0.194303,0.0703 z m 1.071769,0.003 c 0.0039,0.0709 0.05844,0.13429 0.163814,0.19017 0.10615,0.0559 0.218125,0.047 0.335897,-0.0264 l -0.126607,0.14883 v 1.16737 L 76.2,186.0641 v -0.66146 c 0.100726,-0.004 0.150895,-0.0513 0.150895,-0.14056 0,-0.0901 -0.05017,-0.13468 -0.150895,-0.13385 v -0.28473 c -0.121646,-0.0334 -0.22276,-0.10744 -0.303341,-0.22169 v 0.50539 c -0.100726,0.003 -0.151412,0.0489 -0.151412,0.13643 0,0.0867 0.05069,0.13245 0.151412,0.13746 v 0.7121 l 0.183452,0.12505 0.344165,-0.33279 -0.0057,0.1173 -0.438216,0.44029 -0.311609,-0.19017 c -0.03564,-0.0167 -0.08685,-0.0171 -0.153479,-0.002 0.06431,-0.055 0.11241,-0.0845 0.144178,-0.0879 v -1.35237 c -0.03642,0.0133 -0.09072,-0.0136 -0.162781,-0.0811 0.06431,0.0284 0.118099,0.0295 0.160713,0.004 z m -0.814937,0.27388 v 1.34256 l -0.06511,0.0584 v -1.30948 z m 0.807185,0.2651 c 0.0085,0 0.01719,0.002 0.02532,0.006 0.01627,0.008 0.02636,0.0211 0.03101,0.0377 0.0054,0.0158 0.0054,0.0319 0,0.0486 -0.0054,0.0167 -0.01835,0.0294 -0.03927,0.0377 v 0.18758 h 0.102319 c 0.0077,-0.0225 0.01913,-0.0365 0.03462,-0.0424 0.0155,-0.006 0.03075,-0.006 0.04547,0 0.0155,0.005 0.02739,0.0161 0.03514,0.0336 0.0077,0.0175 0.0077,0.0361 0,0.0553 -0.007,0.0183 -0.01913,0.0301 -0.03617,0.0351 -0.01705,0.005 -0.0336,0.003 -0.04909,-0.004 -0.0155,-0.008 -0.02532,-0.0226 -0.02997,-0.046 H 76.06099 l 5.17e-4,0.64182 c 0.02092,0.008 0.03437,0.0205 0.03979,0.0372 0.0054,0.0167 0.0054,0.0334 0,0.0501 -0.0046,0.0159 -0.01525,0.0278 -0.03152,0.0362 -0.01627,0.008 -0.03334,0.009 -0.05116,0.002 -0.01705,-0.008 -0.02791,-0.022 -0.03256,-0.0403 -0.0046,-0.0183 -0.0034,-0.036 0.0036,-0.0527 0.007,-0.0167 0.0212,-0.027 0.04289,-0.032 l -5.16e-4,-0.64182 h -0.111105 c -0.0046,0.0233 -0.01448,0.0385 -0.02997,0.046 -0.0155,0.007 -0.03205,0.009 -0.04909,0.004 -0.01705,-0.005 -0.02946,-0.0168 -0.03721,-0.0351 -0.007,-0.0192 -0.0067,-0.0378 0.001,-0.0553 0.0077,-0.0175 0.01939,-0.0286 0.03411,-0.0336 0.0155,-0.006 0.03101,-0.006 0.04651,0 0.0155,0.006 0.02688,0.0199 0.03462,0.0424 h 0.110588 v -0.18758 c -0.0217,-0.005 -0.03592,-0.0159 -0.04289,-0.0326 -0.007,-0.0167 -0.0083,-0.0344 -0.0036,-0.0527 0.0046,-0.0183 0.01551,-0.0312 0.03256,-0.0388 0.0089,-0.004 0.01731,-0.006 0.02584,-0.006 z" />
  </g>
</svg>
