<?xml version="1.0" encoding="UTF-8" standalone="no"?>
<!-- Created with Inkscape (http://www.inkscape.org/) -->

<svg
   width="7.2042117mm"
   height="6.3448324mm"
   viewBox="0 0 7.2042117 6.3448324"
   version="1.1"
   id="svg1"
   xmlns="http://www.w3.org/2000/svg"
   xmlns:svg="http://www.w3.org/2000/svg">
  <defs
     id="defs1">
    <linearGradient
       id="swatch4">
      <stop
         style="stop-color:#000000;stop-opacity:1;"
         offset="0"
         id="stop4" />
    </linearGradient>
  </defs>
  <g
     id="layer2"
     style="stroke:#ffffff;stroke-opacity:1"
     transform="translate(-33.239316,-158.45131)">
    <path
       id="path34-81-8-39-63"
       style="fill:#000000;fill-opacity:1;stroke:none;stroke-width:0.200326;stroke-dasharray:none;stroke-opacity:1"
       d="m 36.773983,158.45131 c -0.534491,0.28392 -3.534668,2.96694 -3.534668,3.18172 0,0.0765 0.383541,0.46818 0.897619,0.95084 z m 0.133842,0 2.635498,4.13463 c 0.515202,-0.48363 0.900203,-0.87635 0.900203,-0.95291 0,-0.2149 -3.003634,-2.90029 -3.535701,-3.18172 z m -0.06666,0.26613 -2.459281,3.85817 2.463415,1.11052 2.450497,-1.11569 z m 0.0052,1.88516 0.504362,0.001 -0.161748,0.23255 -0.463537,0.002 v 0.50281 h 0.04031 v -0.43925 c 0.173558,-0.0592 0.31941,-0.0336 0.437182,0.0765 -0.128619,-0.05 -0.250422,-0.0559 -0.365869,-0.0176 v 0.11989 c 0.07283,-0.0309 0.141621,-0.018 0.206706,0.0388 -0.08445,-0.0259 -0.153244,0.002 -0.206706,0.0816 l -0.05788,0.14004 0.356568,0.001 c 0.110023,0.002 0.208552,-0.04 0.296106,-0.12505 l -0.146245,0.21135 -0.001,0.73949 -0.445451,0.47801 -0.31626,-0.20257 c -0.06973,-0.0334 -0.160244,-0.0175 -0.271818,0.0475 0.163486,-0.22184 0.290719,-0.32061 0.381372,-0.29559 l 0.31626,0.21291 0.06615,-0.0615 v -0.8232 H 36.60559 c -0.09375,-0.006 -0.196419,0.003 -0.307992,0.0253 0.07826,-0.0884 0.134115,-0.13464 0.167432,-0.13798 v -0.32608 c -0.03874,0.0134 -0.09744,-0.0263 -0.1757,-0.11885 0.06973,0.0283 0.128177,0.0295 0.174666,0.004 z m 0.131258,0.95808 v 0.75551 l -0.0708,0.0589 v -0.19017 c -0.06198,-0.0425 -0.123791,-0.0473 -0.185001,-0.014 0.03332,-0.0726 0.09512,-0.11035 0.185001,-0.11369 l 10e-4,-0.41651 z m 2.367814,1.20923 -2.404504,1.09347 v 0.93276 c 0.361988,-0.21531 1.517408,-1.20608 2.404504,-2.02623 z m -4.996077,0.0103 c 0.883852,0.81645 2.02802,1.79844 2.390551,2.01539 v -0.93638 z" />
  </g>
</svg>
