<?xml version="1.0" encoding="UTF-8" standalone="no"?>
<!-- Created with Inkscape (http://www.inkscape.org/) -->

<svg
   width="7.2042117mm"
   height="6.3609648mm"
   viewBox="0 0 7.2042117 6.3609648"
   version="1.1"
   id="svg1"
   xmlns="http://www.w3.org/2000/svg"
   xmlns:svg="http://www.w3.org/2000/svg">
  <defs
     id="defs1">
    <linearGradient
       id="swatch4">
      <stop
         style="stop-color:#000000;stop-opacity:1;"
         offset="0"
         id="stop4" />
    </linearGradient>
  </defs>
  <g
     id="layer2"
     style="stroke:#ffffff;stroke-opacity:1"
     transform="translate(-25.423001,-128.15846)">
    <g
       id="g12">
      <path
         id="path34-39-16"
         style="fill:#000000;fill-opacity:1;stroke:none;stroke-width:0.250658;stroke-dasharray:none;stroke-opacity:1"
         d="m 31.746129,132.24711 c 0.505686,-0.47548 0.881083,-0.85971 0.881083,-0.93534 0,-0.20955 -2.852531,-2.76497 -3.488159,-3.1533 z" />
      <path
         id="path257-3"
         style="fill:#000000;fill-opacity:1;stroke:none;stroke-width:0.250658;stroke-dasharray:none;stroke-opacity:1"
         d="m 29.025102,128.44591 -2.526978,3.961 -0.07286,-0.0465 c 1.008369,0.93865 2.436756,2.15904 2.599842,2.15904 0.164241,0 1.611632,-1.2375 2.621028,-2.17868 l -0.09715,0.062 z m 0.153479,2.38331 c 0.02014,0.10178 0.08221,0.16315 0.186035,0.18397 0.1046,0.0208 0.19718,0.001 0.278536,-0.0579 -0.09143,0.1703 -0.200559,0.25768 -0.327629,0.26252 -0.126294,0.005 -0.228185,-0.0278 -0.306441,-0.0987 l -0.137459,0.0625 z m 0.235644,0.39998 v 1.06505 l 0.221175,0.001 v 0.0811 l -0.221175,-0.002 v 0.1602 l 0.09198,0.0713 c 0.03487,-0.0553 0.09435,-0.0818 0.178801,-0.0791 -0.05811,0.0292 -0.148364,0.156 -0.270785,0.38034 l -0.19637,-0.14624 c -0.07438,0.0743 -0.172652,0.12109 -0.295073,0.14108 0.101498,-0.0642 0.177528,-0.14551 0.227893,-0.24392 V 132.3955 H 28.59412 v -0.0951 l 0.556555,0.001 v -1.06454 c 0.08833,0.0319 0.175996,0.029 0.26355,-0.008 z m -0.278536,0.0129 c -0.106924,0.04 -0.210883,0.34546 -0.311609,0.91674 -0.143341,0.12925 -0.296175,0.1639 -0.458886,0.10387 0.118547,0.0275 0.248107,-0.13688 0.389123,-0.493 0.141016,-0.35609 0.268249,-0.53176 0.381372,-0.52761 z" />
      <path
         id="path256-8"
         style="fill:#000000;fill-opacity:1;stroke:none;stroke-width:0.250658;stroke-dasharray:none;stroke-opacity:1"
         d="m 28.910126,128.15899 c -0.637186,0.38995 -3.487126,2.94332 -3.487126,3.15278 0,0.0756 0.375057,0.4595 0.880568,0.93482 z" />
    </g>
  </g>
</svg>
