<?xml version="1.0" encoding="UTF-8" standalone="no"?>
<!-- Created with Inkscape (http://www.inkscape.org/) -->

<svg
   width="6.747303mm"
   height="6.0509062mm"
   viewBox="0 0 6.747303 6.0509062"
   version="1.1"
   id="svg1"
   xmlns="http://www.w3.org/2000/svg"
   xmlns:svg="http://www.w3.org/2000/svg">
  <defs
     id="defs1">
    <linearGradient
       id="swatch4">
      <stop
         style="stop-color:#000000;stop-opacity:1;"
         offset="0"
         id="stop4" />
    </linearGradient>
  </defs>
  <g
     id="layer2"
     style="stroke:#ffffff;stroke-opacity:1"
     transform="translate(-25.747568,-105.93357)">
    <path
       id="path183"
       style="display:inline;fill:#000000;fill-opacity:1;stroke:none;stroke-width:1.69612;stroke-dasharray:none;stroke-opacity:1"
       onmouseover=""
       d="m 40.850563,14.221 c -2.848072,0 -29.905157,46.864057 -28.481121,49.33056 1.424036,2.466503 55.538206,2.466503 56.962242,0 C 70.75572,61.085057 43.698635,14.221 40.850563,14.221 Z m 0.485176,21.605614 c 0.170394,0.860597 0.695357,1.379707 1.573542,1.556059 0.884739,0.176352 1.667813,0.01566 2.355943,-0.485176 -0.773327,1.439032 -1.696389,2.178119 -2.771183,2.220444 -1.06824,0.04232 -1.930059,-0.235256 -2.591974,-0.834852 l -1.162674,0.528885 z m 1.993154,3.387488 v 9.00416 l 1.870767,0.01311 v 0.686239 l -1.870767,-0.02186 v 1.354995 l 0.778029,0.603192 c 0.294913,-0.465569 0.798005,-0.689918 1.512349,-0.668756 -0.491521,0.246893 -1.254906,1.319474 -2.290378,3.21702 l -1.660962,-1.236979 c -0.629148,0.627813 -1.460341,1.028343 -2.495813,1.197641 0.858524,-0.543164 1.501604,-1.230708 1.927589,-2.063089 V 49.07496 h -4.707515 v -0.804255 l 4.707515,0.01311 v -9.00416 c 0.747113,0.268055 1.488626,0.244815 2.229186,-0.06556 z m -2.355943,0.104902 c -0.9044,0.338596 -1.783713,2.926398 -2.635684,7.758439 -1.21242,1.093382 -2.505145,1.386455 -3.881405,0.878562 1.002704,0.232784 2.098567,-1.157798 3.291326,-4.169888 1.19276,-3.01209 2.268934,-4.502383 3.225763,-4.467113 z"
       transform="matrix(0.11822696,0,0,0.11822696,24.291582,104.25228)" />
  </g>
</svg>
