<?xml version="1.0" encoding="UTF-8" standalone="no"?>
<!-- Created with Inkscape (http://www.inkscape.org/) -->

<svg
   width="6.9887209mm"
   height="6.2363925mm"
   viewBox="0 0 6.9887209 6.2363925"
   version="1.1"
   id="svg1"
   xmlns="http://www.w3.org/2000/svg"
   xmlns:svg="http://www.w3.org/2000/svg">
  <defs
     id="defs1">
    <linearGradient
       id="swatch4">
      <stop
         style="stop-color:#000000;stop-opacity:1;"
         offset="0"
         id="stop4" />
    </linearGradient>
  </defs>
  <g
     id="layer2"
     style="stroke:#ffffff;stroke-opacity:1"
     transform="translate(-102.79114,-150.44457)">
    <path
       id="path94-48-86"
       style="fill:#000000;fill-opacity:1;stroke:none;stroke-width:0.192506;stroke-dasharray:none;stroke-opacity:1"
       d="m 106.28447,150.44456 c -0.70357,0 -1.40045,0.0158 -1.6583,0.0465 l 0.55552,1.00873 c 0.024,-0.004 0.0526,-0.006 0.0863,-0.009 0.0687,-0.006 0.15877,-0.0104 0.26407,-0.0139 0.21061,-0.007 0.48121,-0.0109 0.75241,-0.0109 0.2712,0 0.54231,0.004 0.75292,0.0109 0.1053,0.004 0.19542,0.008 0.26407,0.0139 0.0343,0.003 0.0635,0.005 0.0878,0.009 l 0.57568,-1.00666 c -0.24076,-0.0323 -0.95883,-0.0486 -1.68052,-0.0486 z m -1.82625,0.13901 c -0.30393,0.40167 -1.4588,2.40171 -1.66398,2.88045 l 1.16169,0.002 c 0.008,-0.0183 0.0151,-0.0363 0.0258,-0.0589 0.0296,-0.0622 0.0703,-0.14214 0.11989,-0.23512 0.0991,-0.18595 0.23182,-0.42247 0.36742,-0.65733 0.1356,-0.23487 0.27455,-0.46764 0.38602,-0.64647 0.0557,-0.0894 0.10404,-0.16499 0.14314,-0.22169 0.009,-0.0132 0.0161,-0.0219 0.0243,-0.0331 z m 3.66593,0.0176 -0.57723,1.01234 c 0.008,0.0112 0.0152,0.0199 0.0243,0.0331 0.0391,0.0567 0.0874,0.13228 0.14315,0.22169 0.11147,0.17884 0.25042,0.4116 0.38602,0.64647 0.1356,0.23486 0.26828,0.47138 0.36742,0.65733 0.0496,0.093 0.0903,0.17291 0.11989,0.23512 0.0106,0.0224 0.0182,0.0407 0.0258,0.0589 l 1.1591,-0.007 c -0.20775,-0.48052 -1.3276,-2.42111 -1.64848,-2.85771 z m -1.83968,1.05782 c -0.26952,0 -0.53904,0.003 -0.74621,0.0103 -0.10358,0.004 -0.19137,0.008 -0.25476,0.0134 -0.0317,0.002 -0.0576,0.005 -0.0744,0.008 -0.002,3.4e-4 -0.003,0.001 -0.005,0.002 l -0.003,0.003 c -0.0106,0.0133 -0.0259,0.0348 -0.0439,0.061 -0.0361,0.0524 -0.0842,0.12651 -0.13901,0.21446 -0.10965,0.17591 -0.24713,0.40737 -0.38189,0.64078 -0.13476,0.23341 -0.2668,0.46872 -0.36432,0.65164 -0.0488,0.0915 -0.089,0.17045 -0.11627,0.2279 -0.0136,0.0287 -0.0243,0.0519 -0.0305,0.0677 -7.5e-4,0.002 -5.3e-4,0.003 -10e-4,0.005 5.4e-4,0.002 3.2e-4,0.003 10e-4,0.005 0.006,0.0158 0.0168,0.0395 0.0305,0.0682 0.0273,0.0574 0.0675,0.13592 0.11627,0.22738 0.0975,0.18291 0.22956,0.41823 0.36432,0.65164 0.13476,0.23342 0.27224,0.46539 0.38189,0.6413 0.0548,0.088 0.10291,0.1621 0.13901,0.21446 0.0181,0.0262 0.0333,0.0467 0.0439,0.0599 0.002,0.002 0.003,0.002 0.004,0.004 0.002,3.4e-4 0.002,7.2e-4 0.004,0.001 0.0168,0.002 0.0427,0.005 0.0744,0.008 0.0634,0.005 0.15118,0.009 0.25476,0.0129 0.20717,0.007 0.47669,0.0103 0.74621,0.0103 0.26952,0 0.53955,-0.003 0.74672,-0.0103 0.10359,-0.003 0.19137,-0.008 0.25477,-0.0129 0.0317,-0.002 0.0576,-0.005 0.0744,-0.008 0.002,-2.7e-4 0.002,-7.2e-4 0.004,-0.001 0.002,-0.002 0.003,-0.002 0.004,-0.004 0.0106,-0.0133 0.0259,-0.0337 0.0439,-0.0599 0.0361,-0.0524 0.0842,-0.1265 0.139,-0.21446 0.10965,-0.17591 0.24713,-0.40788 0.38189,-0.6413 0.13476,-0.23341 0.2668,-0.46873 0.36432,-0.65164 0.0488,-0.0915 0.089,-0.16993 0.11627,-0.22738 0.0136,-0.0287 0.0243,-0.0524 0.0305,-0.0682 7.5e-4,-0.002 5.2e-4,-0.003 0.001,-0.005 -5.5e-4,-0.002 -3.2e-4,-0.003 -0.001,-0.005 -0.006,-0.0158 -0.0168,-0.039 -0.0305,-0.0677 -0.0273,-0.0575 -0.0675,-0.13644 -0.11627,-0.2279 -0.0975,-0.18292 -0.22956,-0.41823 -0.36432,-0.65164 -0.13476,-0.23341 -0.27224,-0.46487 -0.38189,-0.64078 -0.0548,-0.0879 -0.10289,-0.1621 -0.139,-0.21446 -0.0181,-0.0262 -0.0333,-0.0477 -0.0439,-0.061 l -0.003,-0.003 c -0.002,-6.9e-4 -0.003,-0.001 -0.005,-0.002 -0.0168,-0.002 -0.0427,-0.005 -0.0744,-0.008 -0.0634,-0.005 -0.15119,-0.01 -0.25477,-0.0134 -0.20717,-0.007 -0.47719,-0.0103 -0.74672,-0.0103 z m 0.54674,0.86351 c 0.0201,0.10175 0.0822,0.16312 0.18603,0.18397 0.1046,0.0209 0.1977,0.002 0.27905,-0.0574 -0.0914,0.17013 -0.20056,0.25751 -0.32763,0.26252 -0.12629,0.005 -0.2287,-0.0278 -0.30695,-0.0987 l -0.13695,0.0625 z m -1.21802,0.009 c 0.002,0.13093 0.0838,0.20186 0.2465,0.21187 l -0.11059,0.14625 -0.001,1.38337 0.19792,0.0863 c 0.0496,-0.0567 0.11088,-0.0834 0.18448,-0.0801 -0.0713,0.0367 -0.16748,0.1447 -0.28835,0.32401 l -0.2775,-0.10491 c -0.0357,0.055 -0.11762,0.0856 -0.24547,0.0915 0.0961,-0.0459 0.16383,-0.1113 0.20257,-0.19637 l 0.001,-1.49913 c -0.0411,-0.007 -0.0731,-0.0255 -0.0956,-0.0563 l -0.19379,0.0703 z m 0.25683,0.27647 v 1.34255 l -0.0651,0.0589 v -1.31 z m 1.19735,0.11524 v 1.06453 l 0.22065,0.002 v 0.0811 l -0.22065,-0.003 v 0.1602 l 0.0915,0.0713 c 0.0349,-0.055 0.0949,-0.0816 0.17932,-0.0791 -0.0581,0.0292 -0.14836,0.156 -0.27078,0.38034 l -0.19637,-0.14624 c -0.0744,0.0742 -0.17317,0.12158 -0.29559,0.14159 0.1015,-0.0642 0.17753,-0.1455 0.22789,-0.24391 v -0.26303 h -0.55656 v -0.0951 l 0.55656,0.002 v -1.06453 c 0.0883,0.0317 0.17651,0.0289 0.26407,-0.008 z m -0.27906,0.0124 c -0.10692,0.04 -0.21088,0.34598 -0.31161,0.91725 -0.14334,0.12927 -0.29617,0.16392 -0.45888,0.10387 0.11854,0.0275 0.24811,-0.13688 0.38912,-0.49299 0.14102,-0.35611 0.26825,-0.5323 0.38137,-0.52813 z m 2.99155,0.71623 -1.1653,0.006 c -0.008,0.0188 -0.0156,0.0378 -0.0269,0.0615 -0.0296,0.0622 -0.0703,0.14215 -0.11989,0.23513 -0.0991,0.18595 -0.23182,0.42245 -0.36742,0.65732 -0.1356,0.23487 -0.27455,0.46816 -0.38602,0.64699 -0.0557,0.0894 -0.10405,0.16499 -0.14315,0.22169 -0.0144,0.0209 -0.0268,0.0364 -0.0388,0.0522 l 0.57826,1.0113 c 0.30495,-0.4024 1.47622,-2.43134 1.66915,-2.89181 z m -6.98872,0.004 c 0.19814,0.4686 1.36834,2.49456 1.66967,2.89026 l 0.58291,-1.00407 c -0.0138,-0.0177 -0.0284,-0.0372 -0.0455,-0.062 -0.0391,-0.0567 -0.0874,-0.13229 -0.14314,-0.2217 -0.11147,-0.17883 -0.25042,-0.41212 -0.38602,-0.64699 -0.1356,-0.23487 -0.26829,-0.47136 -0.36742,-0.65732 -0.0496,-0.093 -0.0903,-0.17292 -0.11989,-0.23513 -0.0112,-0.0235 -0.019,-0.0423 -0.0269,-0.061 z m 4.57698,1.97249 c -0.0202,0.002 -0.0406,0.005 -0.0667,0.007 -0.0686,0.005 -0.15877,0.01 -0.26407,0.0134 -0.21061,0.007 -0.48172,0.0109 -0.75292,0.0109 -0.2712,0 -0.5418,-0.004 -0.75241,-0.0109 -0.1053,-0.004 -0.19541,-0.008 -0.26407,-0.0134 -0.0208,-0.002 -0.0361,-0.004 -0.0532,-0.006 l -0.58188,1.00666 c 0.52833,0.0605 2.79548,0.06 3.30988,-0.001 z m 0.68678,0.97978 -0.0181,0.0103 c 0.002,-0.001 0.009,-0.002 0.0103,-0.003 0.002,-9.4e-4 0.006,-0.005 0.008,-0.007 z" />
  </g>
</svg>
