<?xml version="1.0" encoding="UTF-8" standalone="no"?>
<!-- Created with Inkscape (http://www.inkscape.org/) -->

<svg
   width="7.2042122mm"
   height="6.3609648mm"
   viewBox="0 0 7.2042122 6.3609648"
   version="1.1"
   id="svg1"
   xmlns="http://www.w3.org/2000/svg"
   xmlns:svg="http://www.w3.org/2000/svg">
  <defs
     id="defs1">
    <linearGradient
       id="swatch4">
      <stop
         style="stop-color:#000000;stop-opacity:1;"
         offset="0"
         id="stop4" />
    </linearGradient>
  </defs>
  <g
     id="layer2"
     style="stroke:#ffffff;stroke-opacity:1"
     transform="translate(-10.029502,-128.15846)">
    <g
       id="g10">
      <path
         id="path34-39-1"
         style="fill:#000000;fill-opacity:1;stroke:none;stroke-width:0.250658;stroke-dasharray:none;stroke-opacity:1"
         d="m 16.352631,132.24711 c 0.505686,-0.47548 0.881083,-0.85971 0.881083,-0.93534 0,-0.20955 -2.852531,-2.76497 -3.488159,-3.1533 z" />
      <path
         id="path257-2"
         style="fill:#000000;fill-opacity:1;stroke:none;stroke-width:0.250658;stroke-dasharray:none;stroke-opacity:1"
         d="m 13.631209,128.44591 -2.526977,3.961 -0.07286,-0.0465 c 1.008369,0.93865 2.436755,2.15904 2.599841,2.15904 0.164241,0 1.611633,-1.2375 2.621029,-2.17868 l -0.09715,0.062 z m -0.22841,2.38125 c 0.04339,0.10175 0.113472,0.1681 0.210324,0.19895 0.09685,0.03 0.23236,-0.0315 0.406693,-0.185 -0.123195,0.25018 -0.242928,0.38898 -0.359151,0.41651 -0.115447,0.0275 -0.228716,-0.0307 -0.339514,-0.17415 l -0.136943,0.0713 z m 0.642339,0.0196 v 0.90537 l -0.580844,0.5178 v 0.41031 l 0.533301,-0.001 c 0.07283,-0.17346 0.181187,-0.28756 0.324528,-0.34261 -0.146437,0.0901 -0.250396,0.28048 -0.311609,0.57154 l -0.74259,-0.002 c -0.133268,0.008 -0.24214,-0.0157 -0.326595,-0.0708 0.150313,0.004 0.244962,-0.0364 0.283704,-0.12144 v -0.38395 l 0.594795,-0.53434 v -0.60564 -5.2e-4 c 0.07438,-0.05 0.149377,-0.16414 0.22531,-0.34262 z m -0.252181,0.35967 -10e-4,0.56379 v 5.2e-4 c -0.116223,-0.0595 -0.230008,-0.0629 -0.341581,-0.0103 0.03874,-0.0934 0.130803,-0.13098 0.276469,-0.11265 v -0.1416 c -0.0891,-0.0408 -0.173668,-0.029 -0.254248,0.0351 0.01782,-0.0987 0.102384,-0.14642 0.254248,-0.14366 v -0.14521 z" />
      <path
         id="path256-6"
         style="fill:#000000;fill-opacity:1;stroke:none;stroke-width:0.250658;stroke-dasharray:none;stroke-opacity:1"
         d="m 13.516628,128.15899 c -0.637186,0.38995 -3.487126,2.94332 -3.487126,3.15278 0,0.0756 0.375057,0.4595 0.880568,0.93482 z" />
    </g>
  </g>
</svg>
