<?xml version="1.0" encoding="UTF-8" standalone="no"?>
<!-- Created with Inkscape (http://www.inkscape.org/) -->

<svg
   width="7.2042117mm"
   height="6.3608513mm"
   viewBox="0 0 7.2042117 6.3608513"
   version="1.1"
   id="svg1"
   xmlns="http://www.w3.org/2000/svg"
   xmlns:svg="http://www.w3.org/2000/svg">
  <defs
     id="defs1">
    <linearGradient
       id="swatch4">
      <stop
         style="stop-color:#000000;stop-opacity:1;"
         offset="0"
         id="stop4" />
    </linearGradient>
  </defs>
  <g
     id="layer3"
     transform="translate(-24.988139,-134.92922)">
    <path
       id="path280-3-7-7"
       style="fill:#000000;fill-opacity:1;stroke:none;stroke-width:0.250658;stroke-dasharray:none;stroke-opacity:1"
       d="m 28.704191,134.92923 2.607076,4.08864 c 0.50569,-0.47548 0.881083,-0.85971 0.881083,-0.93534 0,-0.20955 -2.852539,-2.76497 -3.488159,-3.1533 z m -0.228927,5.2e-4 c -0.63719,0.38995 -3.487125,2.94332 -3.487125,3.15278 0,0.0756 0.375056,0.4595 0.880566,0.93482 z m 0.114722,0.2868 -2.526977,3.961 -0.07286,-0.0465 c 1.00836,0.93865 2.436751,2.15904 2.599841,2.15904 0.16424,0 1.611629,-1.23749 2.621029,-2.17867 l -0.09767,0.062 z m -0.365352,2.31872 c 0.02015,0.10175 0.08221,0.16312 0.186035,0.18397 0.1046,0.0208 0.19718,10e-4 0.278536,-0.0579 -0.09143,0.17014 -0.200559,0.25803 -0.327629,0.26304 -0.126294,0.005 -0.228701,-0.0283 -0.306958,-0.0992 l -0.136942,0.0625 z m 1.044897,0.0114 c 0.0039,0.0709 0.05844,0.13378 0.163815,0.18966 0.106149,0.0559 0.218125,0.0476 0.335896,-0.0258 l -0.126607,0.14883 v 1.16685 l -0.224792,0.19792 v -0.66198 c 0.100726,-0.004 0.151412,-0.0508 0.151412,-0.14004 0,-0.0901 -0.05069,-0.13467 -0.151412,-0.13384 v -0.28525 c -0.121646,-0.0334 -0.22276,-0.10692 -0.303341,-0.22118 v 0.5054 c -0.100726,0.003 -0.150895,0.0483 -0.150895,0.13591 0,0.0867 0.05017,0.13297 0.150895,0.13797 v 0.71159 l 0.183968,0.12505 0.344165,-0.33279 -0.0062,0.11782 -0.438216,0.44028 -0.311092,-0.19017 c -0.03564,-0.0167 -0.08685,-0.0176 -0.153479,-0.003 0.06431,-0.055 0.112409,-0.084 0.144177,-0.0873 v -1.35238 c -0.03642,0.0134 -0.09072,-0.0136 -0.162781,-0.0811 0.06431,0.0284 0.117582,0.0295 0.160197,0.004 z m -0.809253,0.38861 v 1.06453 l 0.221175,0.002 v 0.0811 l -0.221175,-0.003 v 0.1602 l 0.09198,0.0713 c 0.03487,-0.055 0.09435,-0.081 0.178801,-0.0785 -0.05811,0.0292 -0.148364,0.15599 -0.270785,0.38033 l -0.19637,-0.14676 c -0.07438,0.0742 -0.172652,0.12158 -0.295073,0.1416 0.101501,-0.0642 0.177531,-0.14551 0.227894,-0.24392 v -0.26251 h -0.557072 v -0.0951 l 0.557072,0.001 V 137.943 c 0.08833,0.0317 0.175995,0.0289 0.263549,-0.008 z m -0.278536,0.0129 c -0.106924,0.04 -0.210883,0.34546 -0.311609,0.91674 -0.14334,0.12927 -0.296692,0.16392 -0.459403,0.10387 0.118547,0.0275 0.248624,-0.13688 0.38964,-0.49299 0.141017,-0.35611 0.268249,-0.53179 0.381372,-0.52762 z m 1.080038,0.13746 c 0.0085,0 0.01667,0.002 0.0248,0.006 0.01627,0.008 0.02687,0.021 0.03152,0.0377 0.0054,0.0159 0.0054,0.0319 0,0.0486 -0.0054,0.0167 -0.01835,0.0294 -0.03927,0.0377 v 0.18759 h 0.102319 c 0.0077,-0.0225 0.01913,-0.0371 0.03462,-0.0429 0.0155,-0.006 0.03075,-0.006 0.04547,0 0.0155,0.005 0.02688,0.0166 0.03462,0.0341 0.0077,0.0175 0.0077,0.0356 0,0.0548 -0.007,0.0183 -0.01913,0.0301 -0.03617,0.0351 -0.01705,0.005 -0.03308,0.004 -0.04858,-0.004 -0.0155,-0.007 -0.02532,-0.0232 -0.02997,-0.0465 H 29.27935 l 5.17e-4,0.64183 c 0.02092,0.008 0.03385,0.021 0.03927,0.0377 0.0054,0.0167 0.0054,0.0334 0,0.0501 -0.0046,0.0158 -0.01473,0.0278 -0.03101,0.0362 -0.01627,0.008 -0.03334,0.009 -0.05116,0.001 -0.01705,-0.008 -0.02791,-0.0214 -0.03256,-0.0398 -0.0046,-0.0183 -0.0039,-0.036 0.0031,-0.0527 0.007,-0.0167 0.02171,-0.0276 0.04341,-0.0326 l -0.001,-0.64183 H 29.13933 c -0.0046,0.0234 -0.01499,0.039 -0.03049,0.0465 -0.0155,0.008 -0.03153,0.009 -0.04858,0.004 -0.01705,-0.005 -0.02946,-0.0168 -0.03721,-0.0351 -0.007,-0.0192 -0.0067,-0.0373 10e-4,-0.0548 0.0077,-0.0175 0.01887,-0.0291 0.03359,-0.0341 0.0155,-0.006 0.03101,-0.006 0.04651,0 0.0155,0.006 0.02739,0.0204 0.03514,0.0429 h 0.110587 l -5.17e-4,-0.18759 c -0.02169,-0.005 -0.03592,-0.0159 -0.04289,-0.0325 -0.007,-0.0167 -0.0083,-0.0344 -0.0036,-0.0527 0.0046,-0.0183 0.01551,-0.0312 0.03256,-0.0388 0.0089,-0.004 0.01783,-0.006 0.02636,-0.006 z" />
  </g>
</svg>
