<?xml version="1.0" encoding="UTF-8" standalone="no"?>
<!-- Created with Inkscape (http://www.inkscape.org/) -->

<svg
   width="5.7250829mm"
   height="5.6291137mm"
   viewBox="0 0 5.7250829 5.6291137"
   version="1.1"
   id="svg1"
   xmlns="http://www.w3.org/2000/svg"
   xmlns:svg="http://www.w3.org/2000/svg">
  <defs
     id="defs1">
    <linearGradient
       id="swatch4">
      <stop
         style="stop-color:#000000;stop-opacity:1;"
         offset="0"
         id="stop4" />
    </linearGradient>
  </defs>
  <g
     id="layer2"
     style="stroke:#ffffff;stroke-opacity:1"
     transform="translate(-49.504564,-181.08921)">
    <path
       id="path24-11-10-1"
       style="display:inline;fill:#000000;fill-opacity:1;stroke:none;stroke-width:0.200527;stroke-dasharray:none;stroke-opacity:1"
       d="m 52.366829,181.0892 c -1.165468,0 -2.328543,0.0383 -2.640665,0.11421 l 2.666504,1.89446 2.592606,-1.90014 c -0.344045,-0.0724 -1.48079,-0.10853 -2.618445,-0.10853 z m 2.756421,0.2558 -2.569352,1.88361 c 0.0366,0.0272 0.07543,0.0602 0.119889,0.1018 0.09943,0.093 0.222022,0.22296 0.361219,0.37827 0.278395,0.31061 0.620859,0.72419 0.950846,1.1436 0.329988,0.4194 0.646973,0.84394 0.874365,1.17616 0.113695,0.16612 0.204599,0.30943 0.264584,0.41909 0.0049,0.009 0.0084,0.0163 0.01292,0.0248 0.127186,-0.88983 0.122416,-4.44123 -0.01447,-5.12734 z m -5.515942,0.0202 c -0.135481,0.74634 -0.1371,4.35136 -0.0041,5.15162 0.01047,-0.0216 0.0224,-0.0442 0.03617,-0.0693 0.05998,-0.10966 0.150888,-0.25297 0.264584,-0.41909 0.227391,-0.33222 0.544378,-0.75676 0.874365,-1.17616 0.329987,-0.41941 0.672969,-0.83299 0.951363,-1.1436 0.139198,-0.15531 0.261275,-0.28532 0.360702,-0.37827 0.0479,-0.0448 0.09066,-0.0803 0.129707,-0.10852 z m 2.774508,1.98075 c -0.02679,0.0195 -0.06305,0.0504 -0.106971,0.0915 -0.09203,0.086 -0.212669,0.21229 -0.349849,0.36535 -0.27436,0.30611 -0.615357,0.71814 -0.943612,1.13534 -0.328254,0.4172 -0.644068,0.83996 -0.868164,1.16737 -0.112047,0.16371 -0.200791,0.30415 -0.256315,0.40566 -0.02652,0.0485 -0.0436,0.0864 -0.05323,0.11317 0.03645,0.007 0.09037,0.0154 0.160197,0.0227 0.147557,0.0155 0.356938,0.0286 0.606165,0.0393 0.498455,0.0213 1.155267,0.032 1.811776,0.032 0.656509,0 1.313837,-0.0108 1.812292,-0.032 0.249228,-0.0106 0.459641,-0.0238 0.607198,-0.0393 0.07023,-0.007 0.123761,-0.0155 0.160197,-0.0227 -0.0096,-0.0268 -0.02773,-0.0647 -0.05426,-0.11317 -0.05552,-0.10151 -0.144267,-0.24195 -0.256315,-0.40566 -0.224095,-0.32741 -0.540426,-0.75017 -0.868681,-1.16737 -0.328255,-0.4172 -0.669252,-0.82923 -0.943612,-1.13534 -0.137179,-0.15306 -0.257299,-0.27932 -0.349332,-0.36535 -0.04392,-0.0411 -0.0807,-0.072 -0.107487,-0.0915 z m 0.500227,1.04284 c -0.16581,0.23518 -0.330023,0.36493 -0.491959,0.38912 -0.161162,0.0233 -0.28736,-0.0131 -0.378788,-0.10904 l -0.17415,0.0791 0.276469,-0.3514 c 0.05501,0.0801 0.154057,0.12506 0.296623,0.13591 0.142566,0.01 0.299797,-0.0377 0.471805,-0.14366 z m -0.01499,0.0398 c -0.127785,0.29082 -0.229562,0.61584 -0.305407,0.97461 0.106661,0.003 0.223267,-0.0239 0.350366,-0.0811 -0.127363,0.13296 -0.252914,0.20416 -0.377238,0.21446 -0.03617,0.19111 -0.06524,0.39147 -0.08733,0.601 l 0.197404,0.0863 c 0.04959,-0.0567 0.111394,-0.0834 0.185001,-0.0801 -0.07128,0.0367 -0.167483,0.1447 -0.288354,0.32401 l -0.301274,-0.10491 c -0.108474,0.0993 -0.244241,0.12984 -0.407727,0.0915 0.16736,0.004 0.288904,-0.0613 0.364836,-0.19637 0.06155,-0.27602 0.122029,-0.51914 0.180867,-0.7307 -0.05502,-0.0124 -0.102065,-0.0348 -0.141076,-0.0677 l -0.133842,0.0465 0.21394,-0.20929 c 0.02384,0.0364 0.05842,0.0633 0.103353,0.0811 0.121741,-0.4099 0.237416,-0.67901 0.347266,-0.80667 z m -0.525549,1.16737 -0.187069,0.65784 c -0.0953,-0.0517 -0.205984,-0.0173 -0.332279,0.10283 0.06818,-0.15678 0.171367,-0.23126 0.310058,-0.22376 l 0.05013,-0.14521 c -0.07438,-0.035 -0.163342,-0.0169 -0.267168,0.0548 0.05269,-0.10258 0.154319,-0.15806 0.305408,-0.1664 l 0.07338,-0.22996 z" />
  </g>
</svg>
