<?xml version="1.0" encoding="UTF-8" standalone="no"?>
<!-- Created with Inkscape (http://www.inkscape.org/) -->

<svg
   width="5.7250814mm"
   height="5.6291137mm"
   viewBox="0 0 5.7250814 5.6291137"
   version="1.1"
   id="svg1"
   xmlns="http://www.w3.org/2000/svg"
   xmlns:svg="http://www.w3.org/2000/svg">
  <defs
     id="defs1">
    <linearGradient
       id="swatch4">
      <stop
         style="stop-color:#000000;stop-opacity:1;"
         offset="0"
         id="stop4" />
    </linearGradient>
  </defs>
  <g
     id="layer2"
     style="stroke:#ffffff;stroke-opacity:1"
     transform="translate(-10.782378,-188.63138)">
    <path
       id="path24-11-10-21"
       style="display:inline;fill:#000000;fill-opacity:1;stroke:none;stroke-width:0.200527;stroke-dasharray:none;stroke-opacity:1"
       d="m 13.644645,188.63138 c -1.165468,0 -2.328544,0.0383 -2.640666,0.11421 l 2.666504,1.89445 2.592607,-1.90014 c -0.344045,-0.0724 -1.48079,-0.10852 -2.618445,-0.10852 z m 2.756421,0.2558 -2.569352,1.8836 c 0.0366,0.0272 0.07543,0.0602 0.119889,0.10181 0.09943,0.093 0.222021,0.22296 0.361218,0.37827 0.278395,0.31061 0.62086,0.72419 0.950847,1.1436 0.329988,0.4194 0.646973,0.84393 0.874365,1.17615 0.113695,0.16612 0.204598,0.30944 0.264583,0.4191 0.0049,0.009 0.0084,0.0163 0.01292,0.0248 0.127186,-0.88983 0.122416,-4.44122 -0.01447,-5.12733 z m -5.515942,0.0202 c -0.135481,0.74634 -0.1371,4.35137 -0.0041,5.15163 0.01047,-0.0216 0.0224,-0.0442 0.03617,-0.0693 0.05998,-0.10966 0.150887,-0.25298 0.264583,-0.4191 0.227391,-0.33222 0.544379,-0.75675 0.874366,-1.17615 0.329987,-0.41941 0.672969,-0.83299 0.951363,-1.1436 0.139198,-0.15531 0.261274,-0.28532 0.360701,-0.37827 0.0479,-0.0448 0.09066,-0.0803 0.129708,-0.10852 z m 2.774507,1.98076 c -0.02679,0.0195 -0.06305,0.0504 -0.10697,0.0915 -0.09203,0.086 -0.212669,0.21229 -0.349849,0.36535 -0.27436,0.30611 -0.615357,0.71813 -0.943612,1.13533 -0.328254,0.4172 -0.644068,0.83996 -0.868164,1.16737 -0.112047,0.16371 -0.200791,0.30415 -0.256315,0.40566 -0.02652,0.0485 -0.0436,0.0864 -0.05323,0.11317 0.03645,0.007 0.09037,0.0154 0.160197,0.0227 0.147557,0.0155 0.356938,0.0286 0.606165,0.0393 0.498455,0.0213 1.155266,0.032 1.811775,0.032 0.656509,0 1.313838,-0.0108 1.812293,-0.032 0.249228,-0.0107 0.459641,-0.0238 0.607198,-0.0393 0.07023,-0.007 0.123761,-0.0155 0.160197,-0.0227 -0.0096,-0.0268 -0.02773,-0.0647 -0.05426,-0.11317 -0.05552,-0.10151 -0.144268,-0.24195 -0.256316,-0.40566 -0.224095,-0.32741 -0.540425,-0.75017 -0.86868,-1.16737 -0.136225,-0.17314 -0.27382,-0.34331 -0.408761,-0.50746 v 0.85628 l -0.580843,0.51779 v 0.41032 l 0.533301,-0.001 c 0.07283,-0.17347 0.181187,-0.28809 0.324528,-0.34313 -0.14644,0.0901 -0.250399,0.281 -0.311609,0.57206 l -0.74259,-0.003 c -0.133269,0.008 -0.242141,-0.0163 -0.326596,-0.0713 0.150315,0.004 0.244963,-0.0364 0.283704,-0.12144 v -0.38395 l 0.594796,-0.53434 v -0.60513 c 0.06972,-0.0469 0.139759,-0.15135 0.21084,-0.31109 -0.0062,-0.008 -0.01237,-0.0157 -0.0186,-0.0233 -0.120455,0.24033 -0.237627,0.37459 -0.3514,0.40153 -0.115447,0.0275 -0.228715,-0.0302 -0.339514,-0.17363 l -0.136942,0.0713 0.218591,-0.32763 c 0.04339,0.10175 0.113471,0.16758 0.210323,0.19844 0.0946,0.0293 0.226286,-0.0295 0.394808,-0.17518 -0.176875,-0.21423 -0.347636,-0.41451 -0.497644,-0.58188 -0.137179,-0.15306 -0.2573,-0.27932 -0.349333,-0.36535 -0.04392,-0.0411 -0.0807,-0.072 -0.107487,-0.0915 z m -0.836124,1.01544 c 0.04339,0.10175 0.113471,0.16758 0.210323,0.19844 0.09685,0.03 0.23236,-0.0315 0.406693,-0.185 -0.123195,0.25019 -0.242929,0.38899 -0.359151,0.41651 -0.115447,0.0275 -0.228716,-0.0302 -0.339514,-0.17363 l -0.136943,0.0713 z m 0.642338,0.0196 v 0.90589 l -0.580843,0.51779 v 0.41032 l 0.5333,-0.001 c 0.07283,-0.17347 0.181188,-0.28809 0.324528,-0.34313 -0.14644,0.0901 -0.250398,0.281 -0.311608,0.57206 l -0.742591,-0.003 c -0.133268,0.008 -0.24214,-0.0163 -0.326595,-0.0713 0.150314,0.004 0.244963,-0.0364 0.283704,-0.12144 v -0.38395 l 0.594795,-0.53434 v -0.60513 c 0.07438,-0.05 0.149378,-0.16466 0.22531,-0.34313 z m -0.252181,0.35915 -10e-4,0.56431 c -0.116222,-0.0592 -0.230008,-0.0629 -0.341581,-0.0103 0.03874,-0.0934 0.130804,-0.13048 0.276469,-0.11214 v -0.14159 c -0.0891,-0.0409 -0.173667,-0.0291 -0.254248,0.0351 0.01782,-0.0984 0.102384,-0.14668 0.254248,-0.14418 v -0.14469 z m 1.185457,0 -10e-4,0.56431 c -0.116223,-0.0592 -0.230008,-0.0629 -0.341582,-0.0103 0.03874,-0.0934 0.130804,-0.13048 0.276469,-0.11214 v -0.14159 c -0.0891,-0.0409 -0.173667,-0.0291 -0.254248,0.0351 0.01782,-0.0984 0.102385,-0.14668 0.254248,-0.14418 v -0.14469 z" />
  </g>
</svg>
