<?xml version="1.0" encoding="UTF-8" standalone="no"?>
<!-- Created with Inkscape (http://www.inkscape.org/) -->

<svg
   width="5.7250676mm"
   height="5.6291461mm"
   viewBox="0 0 5.7250676 5.6291461"
   version="1.1"
   id="svg1"
   xmlns="http://www.w3.org/2000/svg"
   xmlns:svg="http://www.w3.org/2000/svg">
  <defs
     id="defs1">
    <linearGradient
       id="swatch4">
      <stop
         style="stop-color:#000000;stop-opacity:1;"
         offset="0"
         id="stop4" />
    </linearGradient>
  </defs>
  <g
     id="layer2"
     style="stroke:#ffffff;stroke-opacity:1"
     transform="translate(-2.9422953,-181.07731)">
    <path
       id="path24-11-10"
       style="display:inline;fill:#000000;fill-opacity:1;stroke:none;stroke-width:0.200527;stroke-dasharray:none;stroke-opacity:1"
       d="m 5.8045496,181.07732 c -1.1654679,0 -2.3285435,0.0383 -2.6406657,0.1142 l 2.6665039,1.89446 2.5926066,-1.90014 c -0.3440453,-0.0724 -1.480789,-0.10852 -2.6184448,-0.10852 z m 2.7564208,0.2558 -2.5693521,1.8836 c 0.036603,0.0272 0.075428,0.0602 0.1198893,0.10181 0.099427,0.093 0.2220209,0.22296 0.3612183,0.37827 0.2783947,0.31061 0.6208591,0.72419 0.9508464,1.1436 0.3299873,0.4194 0.646974,0.84393 0.8743652,1.17615 0.1136954,0.16612 0.2045985,0.30944 0.2645832,0.4191 0.00493,0.009 0.0084,0.0163 0.012919,0.0248 0.127186,-0.88983 0.1224146,-4.44122 -0.014469,-5.12733 z m -5.5159423,0.0202 c -0.1354808,0.74634 -0.1370665,4.35136 -0.00413,5.15162 0.010469,-0.0216 0.022399,-0.0441 0.036173,-0.0692 0.059985,-0.10966 0.1508877,-0.25298 0.2645833,-0.4191 0.2273911,-0.33222 0.5443779,-0.75675 0.8743652,-1.17615 0.3299874,-0.41941 0.6729685,-0.83299 0.9513632,-1.1436 0.1391973,-0.15531 0.2612747,-0.28532 0.3607014,-0.37827 0.047897,-0.0448 0.090657,-0.0803 0.1297079,-0.10852 z m 2.7745076,1.98076 c -0.026791,0.0195 -0.063048,0.0504 -0.1069702,0.0915 -0.092033,0.086 -0.2126695,0.21229 -0.3498494,0.36535 -0.2743597,0.30611 -0.615357,0.71813 -0.9436117,1.13533 -0.3282546,0.4172 -0.6440687,0.83996 -0.868164,1.16737 -0.1120478,0.16371 -0.2007911,0.30415 -0.2563151,0.40566 -0.026525,0.0485 -0.0436,0.0864 -0.053227,0.11317 0.036455,0.007 0.090367,0.0154 0.160197,0.0227 0.147557,0.0155 0.356937,0.0286 0.6061645,0.0393 0.4984552,0.0213 1.1552665,0.032 1.8117757,0.032 0.6565091,0 1.3138375,-0.0108 1.8122925,-0.032 0.2492276,-0.0106 0.459641,-0.0238 0.607198,-0.0393 0.07023,-0.007 0.1237608,-0.0155 0.160197,-0.0227 -0.00963,-0.0268 -0.027734,-0.0647 -0.05426,-0.11317 -0.055524,-0.10151 -0.1442674,-0.24195 -0.256315,-0.40566 -0.2240954,-0.32741 -0.5404263,-0.75017 -0.8686808,-1.16737 -0.3282547,-0.4172 -0.669252,-0.82922 -0.9436117,-1.13533 -0.1371799,-0.15306 -0.2572997,-0.27932 -0.3493327,-0.36535 -0.043922,-0.0411 -0.080696,-0.072 -0.1074871,-0.0915 z m -0.025838,1.06143 c 0.00155,0.13094 0.083269,0.20135 0.2459799,0.21136 l -0.1100708,0.14624 -0.00155,1.38338 0.1979206,0.0863 c 0.049588,-0.0567 0.1108776,-0.0834 0.184485,-0.0801 -0.071283,0.0367 -0.1669667,0.14471 -0.2878378,0.32401 l -0.2780191,-0.1049 c -0.035641,0.055 -0.1171019,0.0856 -0.2449463,0.0915 0.096077,-0.0459 0.163314,-0.11131 0.2020548,-0.19637 l 0.00103,-1.49862 c -0.041065,-0.007 -0.072615,-0.0255 -0.095085,-0.0563 l -0.1943035,0.0698 z m 0.2568318,0.27647 v 1.34204 l -0.065112,0.0589 v -1.31 z" />
  </g>
</svg>
