<?xml version="1.0" encoding="UTF-8" standalone="no"?>
<!-- Created with Inkscape (http://www.inkscape.org/) -->

<svg
   width="5.7250867mm"
   height="5.6291137mm"
   viewBox="0 0 5.7250867 5.6291137"
   version="1.1"
   id="svg1"
   xmlns="http://www.w3.org/2000/svg"
   xmlns:svg="http://www.w3.org/2000/svg">
  <defs
     id="defs1">
    <linearGradient
       id="swatch4">
      <stop
         style="stop-color:#000000;stop-opacity:1;"
         offset="0"
         id="stop4" />
    </linearGradient>
  </defs>
  <g
     id="layer2"
     style="stroke:#ffffff;stroke-opacity:1"
     transform="translate(-80.596716,-181.08921)">
    <path
       id="path24-11-10-44"
       style="display:inline;fill:#000000;fill-opacity:1;stroke:none;stroke-width:0.200527;stroke-dasharray:none;stroke-opacity:1"
       d="m 83.458988,181.0892 c -1.165468,0 -2.328543,0.0383 -2.640665,0.11421 l 2.666504,1.89446 2.592606,-1.90014 c -0.344045,-0.0724 -1.48079,-0.10853 -2.618445,-0.10853 z m 2.756421,0.2558 -2.569352,1.88361 c 0.0366,0.0272 0.07543,0.0602 0.119889,0.1018 0.09943,0.093 0.222022,0.22296 0.361219,0.37827 0.278395,0.31061 0.620859,0.72419 0.950846,1.1436 0.329988,0.4194 0.646973,0.84394 0.874365,1.17616 0.113695,0.16612 0.204599,0.30943 0.264584,0.41909 0.0049,0.009 0.0084,0.0163 0.01292,0.0248 0.127186,-0.88983 0.122416,-4.44123 -0.01447,-5.12734 z m -5.515942,0.0202 c -0.135481,0.74634 -0.1371,4.35136 -0.0041,5.15162 0.01047,-0.0216 0.0224,-0.0442 0.03617,-0.0693 0.05998,-0.10966 0.150888,-0.25297 0.264584,-0.41909 0.227391,-0.33222 0.544378,-0.75676 0.874365,-1.17616 0.329987,-0.41941 0.672969,-0.83299 0.951363,-1.1436 0.139198,-0.15531 0.261275,-0.28532 0.360702,-0.37827 0.0479,-0.0448 0.09066,-0.0803 0.129707,-0.10852 z m 2.774508,1.98075 c -0.02679,0.0195 -0.06305,0.0504 -0.106971,0.0915 -0.09203,0.086 -0.212669,0.21229 -0.349849,0.36535 -0.27436,0.30611 -0.615357,0.71814 -0.943612,1.13534 -0.328254,0.4172 -0.644068,0.83996 -0.868164,1.16737 -0.112047,0.16371 -0.200791,0.30415 -0.256315,0.40566 -0.02652,0.0485 -0.0436,0.0864 -0.05323,0.11317 0.03645,0.007 0.09037,0.0154 0.160197,0.0227 0.147557,0.0155 0.356938,0.0286 0.606165,0.0393 0.498455,0.0213 1.155267,0.032 1.811776,0.032 0.656509,0 1.313837,-0.0108 1.812292,-0.032 0.249228,-0.0106 0.459641,-0.0238 0.607198,-0.0393 0.07023,-0.007 0.123761,-0.0155 0.160197,-0.0227 -0.0096,-0.0268 -0.02773,-0.0647 -0.05426,-0.11317 -0.05552,-0.10151 -0.144267,-0.24195 -0.256315,-0.40566 -0.224095,-0.32741 -0.540426,-0.75017 -0.868681,-1.16737 -0.328255,-0.4172 -0.669252,-0.82923 -0.943612,-1.13534 -0.137179,-0.15306 -0.257299,-0.27932 -0.349332,-0.36535 -0.04392,-0.0411 -0.0807,-0.072 -0.107487,-0.0915 z m -0.510564,1.04955 c 0.0016,0.13094 0.08379,0.20135 0.246497,0.21136 l -0.110588,0.14624 -0.001,1.38338 0.197921,0.0863 c 0.04959,-0.0567 0.110877,-0.0834 0.184485,-0.0801 -0.07128,0.0367 -0.167484,0.14471 -0.288355,0.32401 l -0.277502,-0.1049 c -0.03564,0.055 -0.117619,0.0856 -0.245463,0.0915 0.09608,-0.0459 0.16383,-0.11131 0.202571,-0.19637 l 0.001,-1.49862 c -0.04107,-0.007 -0.07313,-0.0255 -0.0956,-0.0563 l -0.193786,0.0698 z m 0.854212,0 c 0.0016,0.13094 0.08379,0.20135 0.246496,0.21136 l -0.110587,0.14624 -10e-4,1.38338 0.197921,0.0863 c 0.04959,-0.0567 0.110878,-0.0834 0.184485,-0.0801 -0.07128,0.0367 -0.167483,0.14471 -0.288355,0.32401 l -0.277502,-0.1049 c -0.03564,0.055 -0.117619,0.0856 -0.245463,0.0915 0.09608,-0.0459 0.163831,-0.11131 0.202572,-0.19637 l 10e-4,-1.49862 c -0.04106,-0.007 -0.07313,-0.0255 -0.0956,-0.0563 l -0.193787,0.0698 z m -0.59738,0.27647 v 1.34204 l -0.06511,0.0589 v -1.31 z m 0.854212,0 v 1.34204 l -0.06511,0.0589 v -1.31 z" />
  </g>
</svg>
