<?xml version="1.0" encoding="UTF-8" standalone="no"?>
<!-- Created with Inkscape (http://www.inkscape.org/) -->

<svg
   width="6.9887209mm"
   height="6.2364087mm"
   viewBox="0 0 6.9887209 6.2364087"
   version="1.1"
   id="svg1"
   xmlns="http://www.w3.org/2000/svg"
   xmlns:svg="http://www.w3.org/2000/svg">
  <defs
     id="defs1">
    <linearGradient
       id="swatch4">
      <stop
         style="stop-color:#000000;stop-opacity:1;"
         offset="0"
         id="stop4" />
    </linearGradient>
  </defs>
  <g
     id="layer2"
     style="stroke:#ffffff;stroke-opacity:1"
     transform="translate(-41.270866,-150.42545)">
    <path
       id="path94-48-2"
       style="fill:#000000;fill-opacity:1;stroke:none;stroke-width:0.192506;stroke-dasharray:none;stroke-opacity:1"
       d="m 44.764193,150.42544 c -0.703573,0 -1.400448,0.0158 -1.658297,0.0465 l 0.555522,1.00873 c 0.024,-0.004 0.05257,-0.006 0.0863,-0.009 0.06866,-0.006 0.158762,-0.0104 0.264067,-0.0139 0.21061,-0.007 0.481209,-0.0109 0.752409,-0.0109 0.271199,0 0.542316,0.004 0.752925,0.0109 0.105305,0.004 0.195412,0.008 0.264067,0.0139 0.03433,0.003 0.0636,0.005 0.08785,0.009 l 0.575675,-1.00666 c -0.240758,-0.0323 -0.958826,-0.0486 -1.680517,-0.0486 z m -1.826245,0.13901 c -0.303935,0.40167 -1.458802,2.40171 -1.663982,2.88045 l 1.161687,0.002 c 0.0077,-0.0183 0.01511,-0.0363 0.02584,-0.0589 0.02956,-0.0622 0.07032,-0.14214 0.119889,-0.23512 0.09914,-0.18595 0.23182,-0.42247 0.36742,-0.65733 0.135599,-0.23487 0.274549,-0.46764 0.386023,-0.64647 0.05574,-0.0894 0.104044,-0.16499 0.143143,-0.22169 0.0091,-0.0132 0.01615,-0.0219 0.02429,-0.0331 z m 3.665926,0.0176 -0.577226,1.01234 c 0.0081,0.0112 0.01521,0.0199 0.02429,0.0331 0.0391,0.0567 0.08741,0.13228 0.143144,0.22169 0.111474,0.17884 0.250423,0.4116 0.386023,0.64647 0.1356,0.23486 0.268283,0.47138 0.367419,0.65733 0.04957,0.093 0.09033,0.17291 0.119889,0.23512 0.01065,0.0224 0.01819,0.0402 0.02584,0.0584 l 1.159102,-0.007 c -0.207743,-0.48052 -1.327596,-2.42111 -1.648478,-2.85771 z m -1.839681,1.05782 c -0.269523,0 -0.53904,0.003 -0.746208,0.0103 -0.103584,0.004 -0.191371,0.008 -0.254765,0.0134 -0.0317,0.002 -0.05762,0.005 -0.07441,0.008 -0.0023,3.4e-4 -0.003,5.5e-4 -0.0052,0.002 -0.0012,10e-4 -0.0019,0.002 -0.0031,0.003 -0.01059,0.0133 -0.02586,0.0343 -0.04393,0.0605 -0.0361,0.0524 -0.08418,0.12651 -0.13901,0.21446 -0.109652,0.17591 -0.247126,0.40738 -0.381888,0.64079 -0.134761,0.23341 -0.266803,0.46872 -0.364319,0.65164 -0.04876,0.0915 -0.08898,0.17044 -0.116272,0.22789 -0.01365,0.0287 -0.02428,0.0524 -0.03049,0.0682 -7.5e-4,0.002 -5.24e-4,0.003 -0.001,0.005 5.42e-4,0.002 3.16e-4,0.003 0.001,0.005 0.0062,0.0158 0.01684,0.0395 0.03049,0.0682 0.02729,0.0574 0.06751,0.13592 0.116272,0.22738 0.09752,0.18291 0.229558,0.41823 0.364319,0.65164 0.134762,0.23342 0.272236,0.46539 0.381888,0.6413 0.05483,0.088 0.102907,0.1621 0.13901,0.21446 0.01805,0.0262 0.03334,0.0467 0.04393,0.0599 0.0015,0.002 0.0025,0.002 0.0041,0.004 0.0017,3.4e-4 0.0023,7.2e-4 0.0041,0.001 0.0168,0.002 0.04272,0.005 0.07441,0.008 0.06339,0.005 0.151181,0.009 0.254765,0.0129 0.207168,0.007 0.476685,0.0103 0.746208,0.0103 0.269522,0 0.539555,-0.003 0.746724,-0.0103 0.103584,-0.003 0.191371,-0.008 0.254765,-0.0129 0.0317,-0.002 0.05762,-0.005 0.07441,-0.008 0.0018,-2.7e-4 0.0024,-7.2e-4 0.0041,-0.001 0.0016,-0.002 0.0026,-0.002 0.0041,-0.004 0.01059,-0.0133 0.02588,-0.0337 0.04393,-0.0599 0.0361,-0.0524 0.08418,-0.1265 0.13901,-0.21446 0.109652,-0.17591 0.247127,-0.40788 0.381889,-0.6413 0.134761,-0.23341 0.266803,-0.46873 0.364319,-0.65164 0.04876,-0.0915 0.08898,-0.16993 0.116271,-0.22738 0.01365,-0.0287 0.02428,-0.0524 0.03049,-0.0682 7.54e-4,-0.002 5.13e-4,-0.003 10e-4,-0.005 -5.48e-4,-0.002 -3.15e-4,-0.003 -10e-4,-0.005 -0.0062,-0.0158 -0.01684,-0.0395 -0.03049,-0.0682 -0.02729,-0.0574 -0.06751,-0.13643 -0.116271,-0.22789 -0.09752,-0.18292 -0.229558,-0.41823 -0.364319,-0.65164 -0.134762,-0.23341 -0.272237,-0.46488 -0.381889,-0.64079 -0.05483,-0.0879 -0.102907,-0.1621 -0.13901,-0.21446 -0.01805,-0.0262 -0.03334,-0.0472 -0.04393,-0.0605 -0.0012,-0.001 -0.0019,-0.002 -0.0031,-0.003 -0.0021,-6.9e-4 -0.0029,-5.5e-4 -0.0052,-0.002 -0.0168,-0.002 -0.04272,-0.005 -0.07441,-0.008 -0.06339,-0.005 -0.151181,-0.01 -0.254765,-0.0134 -0.207169,-0.007 -0.477201,-0.0103 -0.746724,-0.0103 z m 0.05994,0.86506 c 0.01085,0.0817 0.05481,0.13263 0.132292,0.15348 0.07748,0.0208 0.155063,0.002 0.232544,-0.0574 -0.0984,0.19682 -0.194602,0.29782 -0.288355,0.30283 -0.09375,0.004 -0.174695,-0.0362 -0.242879,-0.12041 l -0.0801,0.0878 v 1.2361 l 0.322977,0.19999 0.04754,-0.0661 v -0.82217 c -0.05656,-0.0117 -0.100524,-0.0486 -0.132292,-0.11111 l -0.225309,0.31885 0.001,-0.11627 0.378789,-0.493 c 0.01782,0.10175 0.07394,0.16312 0.168465,0.18397 0.09453,0.0208 0.179349,0.002 0.253731,-0.0574 -0.08291,0.17013 -0.157124,0.26747 -0.222209,0.29249 l -10e-4,0.66818 -0.357084,0.47749 -0.462504,-0.31523 c -0.05114,-0.0334 -0.121478,-0.0338 -0.211357,-0.002 0.08755,-0.0717 0.154274,-0.10525 0.199988,-0.10025 v -1.01441 c -0.04417,-0.003 -0.110367,-0.0389 -0.197921,-0.10645 0.07981,0.0283 0.144974,0.0295 0.195337,0.004 z m 0.01137,0.88677 0.06511,0.0589 v 0.75396 l -0.06511,0.0589 z m 3.424081,0.24081 -1.165304,0.006 c -0.0079,0.0188 -0.01562,0.0378 -0.02687,0.0615 -0.02956,0.0622 -0.07032,0.14215 -0.119889,0.23513 -0.09914,0.18595 -0.231819,0.42245 -0.367419,0.65732 -0.1356,0.23487 -0.274549,0.46816 -0.386023,0.64699 -0.05574,0.0894 -0.104044,0.16499 -0.143144,0.22169 -0.01445,0.0209 -0.02665,0.0364 -0.03876,0.0522 l 0.578259,1.0113 c 0.304945,-0.4024 1.476215,-2.43134 1.669149,-2.89181 z m -6.988721,0.004 c 0.198138,0.4686 1.368339,2.49456 1.669665,2.89026 l 0.582911,-1.00407 c -0.01382,-0.0177 -0.02838,-0.0372 -0.04548,-0.062 -0.0391,-0.0567 -0.08741,-0.13229 -0.143143,-0.2217 -0.111474,-0.17883 -0.250424,-0.41212 -0.386023,-0.64699 -0.1356,-0.23487 -0.268284,-0.47136 -0.36742,-0.65732 -0.04957,-0.093 -0.09033,-0.17292 -0.119889,-0.23513 -0.01117,-0.0235 -0.01901,-0.0423 -0.02687,-0.061 z m 4.576981,1.97249 c -0.02024,0.002 -0.04061,0.005 -0.06666,0.007 -0.06865,0.005 -0.158762,0.01 -0.264067,0.0134 -0.210609,0.007 -0.481726,0.0109 -0.752925,0.0109 -0.2712,0 -0.541799,-0.004 -0.752409,-0.0109 -0.105305,-0.004 -0.195411,-0.008 -0.264067,-0.0134 -0.0208,-0.002 -0.03613,-0.004 -0.05323,-0.006 l -0.581877,1.00666 c 0.528329,0.0605 2.795476,0.06 3.309875,-0.001 z m 0.685747,0.9803 -0.01705,0.01 c 0.0022,-0.001 0.0088,-0.002 0.01034,-0.003 0.0015,-8.7e-4 0.0045,-0.004 0.0067,-0.007 z" />
  </g>
</svg>
