<?xml version="1.0" encoding="UTF-8" standalone="no"?>
<!-- Created with Inkscape (http://www.inkscape.org/) -->

<svg
   width="6.1489787mm"
   height="6.1489787mm"
   viewBox="0 0 6.1489787 6.1489787"
   version="1.1"
   id="svg1"
   xmlns="http://www.w3.org/2000/svg"
   xmlns:svg="http://www.w3.org/2000/svg">
  <defs
     id="defs1">
    <linearGradient
       id="swatch4">
      <stop
         style="stop-color:#000000;stop-opacity:1;"
         offset="0"
         id="stop4" />
    </linearGradient>
  </defs>
  <g
     id="layer2"
     style="stroke:#ffffff;stroke-opacity:1"
     transform="translate(-33.766933,-166.16918)">
    <path
       id="path225-00-0"
       style="fill:#000000;fill-opacity:1;stroke:none;stroke-width:0.200527;stroke-dasharray:none;stroke-opacity:1"
       d="m 35.567855,166.16919 -0.01499,0.015 0.03669,-0.015 z m 0.108004,0 0.316776,0.77979 1.697054,-0.001 0.310575,-0.77876 z m 2.434476,0 0.0078,0.003 -0.0031,-0.003 z m 0.07648,0.0718 -0.312642,0.78909 1.187524,1.18805 0.777731,-0.32453 z m -2.696476,0.006 -1.648478,1.64848 0.780314,0.32143 1.185457,-1.18494 z m 0.483175,0.90175 -1.226799,1.22732 v 1.73529 l 1.226799,1.22784 1.735294,-0.001 1.226799,-1.2268 5.17e-4,-1.73529 -1.227316,-1.2268 z m -2.191081,0.80616 -0.0155,0.0155 v 0.0222 z m 6.133476,0.12557 -0.779281,0.32453 v 1.67276 l 0.779281,0.32918 z m -6.148979,0.001 v 2.32699 l 0.779281,-0.33486 v -1.6707 z m 3.079399,0.14108 0.504362,10e-4 -0.161748,0.23255 -0.463537,0.002 v 0.50281 h 0.04031 v -0.43925 c 0.173558,-0.0592 0.31941,-0.0336 0.437182,0.0765 -0.128619,-0.05 -0.250422,-0.0559 -0.365869,-0.0176 v 0.11989 c 0.07283,-0.0309 0.141621,-0.018 0.206706,0.0388 -0.08445,-0.0259 -0.153244,0.002 -0.206706,0.0816 l -0.05788,0.14004 0.356568,0.001 c 0.110023,0.002 0.208552,-0.04 0.296106,-0.12505 l -0.146245,0.21135 -10e-4,0.73949 -0.445451,0.47801 -0.31626,-0.20257 c -0.06973,-0.0334 -0.160244,-0.0175 -0.271818,0.0475 0.163486,-0.22184 0.290719,-0.32061 0.381372,-0.29559 l 0.31626,0.21291 0.06615,-0.0615 v -0.8232 h -0.409277 c -0.09375,-0.006 -0.196419,0.003 -0.307992,0.0253 0.07826,-0.0884 0.134115,-0.13412 0.167432,-0.13746 v -0.3266 c -0.03874,0.0134 -0.09744,-0.0263 -0.1757,-0.11885 0.06973,0.0283 0.128177,0.0295 0.174666,0.004 z m 0.131258,0.95808 v 0.75551 l -0.0708,0.0589 v -0.19017 c -0.06198,-0.0425 -0.123791,-0.0473 -0.185001,-0.0139 0.03332,-0.0726 0.09512,-0.11035 0.185001,-0.11369 l 10e-4,-0.41651 z m -2.363163,1.08262 -0.769979,0.33177 1.650028,1.65002 0.318327,-0.78393 z m 4.450374,0.003 -1.203544,1.20355 0.330212,0.77204 1.648478,-1.64848 z m -5.297868,0.23255 v 0.0186 l 0.01395,0.014 z m 2.230872,1.03973 -0.316777,0.77979 h 2.326473 l -0.336413,-0.77928 z m -0.442351,0.76739 0.0124,0.0124 h 0.01757 z" />
  </g>
</svg>
