<?xml version="1.0" encoding="UTF-8" standalone="no"?>
<!-- Created with Inkscape (http://www.inkscape.org/) -->

<svg
   width="6.1489797mm"
   height="6.1490755mm"
   viewBox="0 0 6.1489797 6.1490755"
   version="1.1"
   id="svg1"
   xmlns="http://www.w3.org/2000/svg"
   xmlns:svg="http://www.w3.org/2000/svg">
  <defs
     id="defs1">
    <linearGradient
       id="swatch4">
      <stop
         style="stop-color:#000000;stop-opacity:1;"
         offset="0"
         id="stop4" />
    </linearGradient>
  </defs>
  <g
     id="layer2"
     style="stroke:#ffffff;stroke-opacity:1"
     transform="translate(-10.570563,-166.13921)">
    <path
       id="path225-00-1"
       style="fill:#000000;fill-opacity:1;stroke:none;stroke-width:0.200527;stroke-dasharray:none;stroke-opacity:1"
       d="m 12.371489,166.13921 -0.01499,0.015 0.03669,-0.015 z m 0.108004,0 0.316776,0.7798 1.697054,-10e-4 0.310576,-0.77877 z m 2.434476,0 0.0078,0.003 -0.0031,-0.003 z m 0.07648,0.0718 -0.312643,0.7891 1.187525,1.18804 0.77773,-0.32452 z m -2.696477,0.006 -1.648478,1.64848 0.780314,0.32142 1.185458,-1.18494 z m 0.483175,0.90175 -1.226798,1.22732 v 1.73529 l 1.226798,1.22783 1.735295,-5.1e-4 1.226798,-1.2268 5.17e-4,-1.7353 -1.227315,-1.2268 z m -2.191081,0.80615 -0.0155,0.0155 v 0.0227 z m 6.133476,0.12558 -0.779281,0.32453 v 1.67276 l 0.779281,0.32918 z m -6.148979,0.001 v 2.32699 l 0.779281,-0.33486 v -1.6707 z m 2.845821,0.12144 c 0.04339,0.10175 0.113472,0.1681 0.210324,0.19895 0.09685,0.03 0.23236,-0.0315 0.406693,-0.185 -0.123195,0.2502 -0.242929,0.38899 -0.359151,0.41652 -0.115448,0.0275 -0.228716,-0.0302 -0.339514,-0.17364 l -0.136943,0.0713 z m 0.642339,0.0201 v 0.90589 l -0.580844,0.5178 v 0.41031 l 0.533301,-0.001 c 0.07283,-0.17347 0.181187,-0.28809 0.324528,-0.34313 -0.14644,0.0901 -0.250398,0.28099 -0.311609,0.57205 l -0.74259,-0.003 c -0.133268,0.008 -0.24214,-0.0163 -0.326595,-0.0713 0.150314,0.004 0.244963,-0.0364 0.283704,-0.12144 v -0.38396 l 0.594795,-0.53433 v -0.60565 c 0.07438,-0.05 0.149378,-0.16414 0.22531,-0.34262 z m -0.252181,0.35916 -10e-4,0.5643 c -0.116222,-0.0592 -0.230008,-0.0629 -0.341581,-0.0103 0.03874,-0.0934 0.130804,-0.13101 0.276469,-0.11266 v -0.14107 c -0.0891,-0.0409 -0.173668,-0.0291 -0.254248,0.0351 0.01782,-0.0984 0.102384,-0.14668 0.254248,-0.14418 v -0.1447 z m -2.388485,1.68103 -0.769979,0.33176 1.650028,1.65003 0.318327,-0.78393 z m 4.450374,0.003 -1.203544,1.20354 0.330212,0.77205 1.648479,-1.64848 z m -5.297868,0.23254 v 0.0186 l 0.01395,0.0139 z m 2.230872,1.03973 -0.316777,0.7798 h 2.326473 l -0.336413,-0.77928 z m -0.44235,0.7674 0.0124,0.0124 h 0.01757 z" />
  </g>
</svg>
