<?xml version="1.0" encoding="UTF-8" standalone="no"?>
<!-- Created with Inkscape (http://www.inkscape.org/) -->

<svg
   width="7.2042122mm"
   height="6.3609648mm"
   viewBox="0 0 7.2042122 6.3609648"
   version="1.1"
   id="svg1"
   xmlns="http://www.w3.org/2000/svg"
   xmlns:svg="http://www.w3.org/2000/svg">
  <defs
     id="defs1">
    <linearGradient
       id="swatch4">
      <stop
         style="stop-color:#000000;stop-opacity:1;"
         offset="0"
         id="stop4" />
    </linearGradient>
  </defs>
  <g
     id="layer2"
     style="stroke:#ffffff;stroke-opacity:1"
     transform="translate(-2.2494743,-128.15846)">
    <g
       id="g9">
      <path
         id="path34-39"
         style="fill:#000000;fill-opacity:1;stroke:none;stroke-width:0.250658;stroke-dasharray:none;stroke-opacity:1"
         d="m 8.5726033,132.24711 c 0.5056861,-0.47548 0.8810832,-0.85971 0.8810832,-0.93534 0,-0.20955 -2.8525318,-2.76497 -3.4881592,-3.1533 z" />
      <path
         id="path257"
         style="fill:#000000;fill-opacity:1;stroke:none;stroke-width:0.250658;stroke-dasharray:none;stroke-opacity:1"
         d="m 5.8513224,128.44591 -2.5269775,3.961 -0.072864,-0.0465 c 1.008369,0.93865 2.4367547,2.15904 2.5998413,2.15904 0.1642406,0 1.6116329,-1.2375 2.6210287,-2.17868 l -0.097152,0.062 z m -0.010852,2.38641 c 0.00155,0.13092 0.083269,0.20133 0.2459798,0.21136 l -0.1100708,0.14625 -0.00155,1.38389 0.1979207,0.0863 c 0.049588,-0.0568 0.1108774,-0.0836 0.1844849,-0.0801 -0.071283,0.0367 -0.1669666,0.1447 -0.2878377,0.32401 l -0.2780192,-0.10542 c -0.035642,0.0553 -0.1171018,0.0859 -0.2449463,0.0915 0.096077,-0.0459 0.1633141,-0.11131 0.2020548,-0.19637 l 0.00103,-1.49862 c -0.041065,-0.007 -0.072615,-0.0255 -0.095085,-0.0563 l -0.1943034,0.0703 z m 0.2568318,0.27699 v 1.34204 l -0.065112,0.0589 v -1.31 z" />
      <path
         id="path256"
         style="fill:#000000;fill-opacity:1;stroke:none;stroke-width:0.250658;stroke-dasharray:none;stroke-opacity:1"
         d="m 5.7365999,128.15899 c -0.6371858,0.38995 -3.4871256,2.94332 -3.4871256,3.15278 0,0.0756 0.3750563,0.4595 0.8805675,0.93482 z" />
    </g>
  </g>
</svg>
