<?xml version="1.0" encoding="UTF-8" standalone="no"?>
<!-- Created with Inkscape (http://www.inkscape.org/) -->

<svg
   width="6.2024484mm"
   height="6.2023263mm"
   viewBox="0 0 6.2024484 6.2023263"
   version="1.1"
   id="svg1"
   xmlns="http://www.w3.org/2000/svg"
   xmlns:svg="http://www.w3.org/2000/svg">
  <defs
     id="defs1">
    <linearGradient
       id="swatch4">
      <stop
         style="stop-color:#000000;stop-opacity:1;"
         offset="0"
         id="stop4" />
    </linearGradient>
  </defs>
  <g
     id="layer2"
     style="stroke:#ffffff;stroke-opacity:1"
     transform="translate(-18.326926,-113.25563)">
    <path
       id="path195"
       style="display:inline;fill:#000000;fill-opacity:1;stroke:none;stroke-width:1.00307;stroke-dasharray:none;stroke-opacity:1"
       d="m 18.216418,30.549797 c -7.105349,0 -14.210799,0.259817 -14.7316375,0.780655 -1.0416769,1.041677 -1.0416769,28.421597 0,29.463274 1.0416769,1.041677 28.4215975,1.041677 29.4632745,0 1.041677,-1.041677 1.041677,-28.421597 0,-29.463274 -0.520839,-0.520838 -7.626289,-0.780655 -14.731637,-0.780655 z m -1.300231,10.288106 c 0.08527,0.508951 0.364681,0.815949 0.837524,0.920242 0.472844,0.104294 0.884203,0.0067 1.233022,-0.289514 -0.387577,1.017903 -0.86491,1.551611 -1.434648,1.5975 -0.569738,0.04589 -1.021198,-0.214887 -1.354514,-0.778071 l -0.628143,0.377403 z m 2.088641,0.682427 1.209757,1.04432 c 0.251925,0.129324 0.575322,0.123744 0.974527,-0.0181 -0.437962,0.337911 -0.766533,0.513229 -0.987452,0.529915 v 1.760352 l -2.215303,0.767731 2.210133,0.770315 v 3.668046 c 0.546484,0.01669 1.054863,0.369907 1.527706,1.062415 -0.220918,-0.28785 -0.746115,-0.428104 -1.579405,-0.423932 l -1.139963,-1.052075 v -3.241529 l -1.801711,-0.713447 1.801711,-0.845279 z m -0.175777,4.968276 -0.0052,2.820182 c -0.581365,-0.296193 -1.150542,-0.311933 -1.708653,-0.04911 0.193789,-0.467234 0.654305,-0.655298 1.382949,-0.56352 v -0.705691 c -0.445713,-0.204415 -0.868716,-0.148032 -1.271796,0.173192 0.08914,-0.492265 0.512146,-0.731132 1.271796,-0.718617 v -0.726371 z m -1.936128,2.615971 c 0.1279,0.508951 0.39567,0.813364 0.79875,0.917657 0.403079,0.104294 0.862301,0.0093 1.377779,-0.286929 -0.484471,0.934468 -1.025187,1.44527 -1.61818,1.532876 -0.589117,0.08761 -1.133715,-0.150263 -1.633689,-0.713447 l -0.865959,0.31278 z"
       transform="matrix(0.1999126,0,0,0.1999126,17.786458,107.14833)" />
  </g>
</svg>
