<?xml version="1.0" encoding="UTF-8" standalone="no"?>
<!-- Created with Inkscape (http://www.inkscape.org/) -->

<svg
   width="6.202446mm"
   height="6.2023263mm"
   viewBox="0 0 6.202446 6.2023263"
   version="1.1"
   id="svg1"
   xmlns="http://www.w3.org/2000/svg"
   xmlns:svg="http://www.w3.org/2000/svg">
  <defs
     id="defs1">
    <linearGradient
       id="swatch4">
      <stop
         style="stop-color:#000000;stop-opacity:1;"
         offset="0"
         id="stop4" />
    </linearGradient>
  </defs>
  <g
     id="layer2"
     style="stroke:#ffffff;stroke-opacity:1"
     transform="translate(-2.7500995,-113.25563)">
    <path
       id="path191"
       style="display:inline;fill:#000000;fill-opacity:1;stroke:none;stroke-width:1.00307;stroke-dasharray:none;stroke-opacity:1"
       d="m 18.215641,30.549797 c -7.105349,0 -14.2107988,0.259817 -14.7316372,0.780655 -1.0416769,1.041677 -1.0416769,28.421597 0,29.463274 1.0416769,1.041677 28.4215972,1.041677 29.4632742,0 1.041677,-1.041677 1.041677,-28.421597 0,-29.463274 C 32.42644,30.809614 25.32099,30.549797 18.215641,30.549797 Z m -0.05428,10.329465 c 0.0078,0.654962 0.416525,1.009769 1.230437,1.05983 l -0.550595,0.731541 -0.0078,6.919915 0.990037,0.431686 c 0.248049,-0.283677 0.554629,-0.417354 0.922827,-0.400667 -0.35657,0.183556 -0.835198,0.723842 -1.439818,1.620764 l -1.390703,-0.524745 c -0.178286,0.275335 -0.585766,0.428335 -1.225267,0.457537 0.480595,-0.229446 0.816927,-0.556765 1.010716,-0.982282 l 0.0052,-7.496358 c -0.205415,-0.03337 -0.363233,-0.127406 -0.475631,-0.28176 l -0.971941,0.348968 z m 1.284721,1.382949 v 6.715703 l -0.325704,0.294685 v -6.552852 z"
       transform="matrix(0.1999126,0,0,0.1999126,2.2097863,107.14833)" />
  </g>
</svg>
