<?xml version="1.0" encoding="UTF-8" standalone="no"?>
<!-- Created with Inkscape (http://www.inkscape.org/) -->

<svg
   width="5.670455mm"
   height="5.9009318mm"
   viewBox="0 0 5.670455 5.9009318"
   version="1.1"
   id="svg1"
   xmlns="http://www.w3.org/2000/svg"
   xmlns:svg="http://www.w3.org/2000/svg">
  <defs
     id="defs1">
    <linearGradient
       id="swatch4">
      <stop
         style="stop-color:#000000;stop-opacity:1;"
         offset="0"
         id="stop4" />
    </linearGradient>
  </defs>
  <g
     id="layer2"
     style="stroke:#ffffff;stroke-opacity:1"
     transform="translate(-80.566138,-195.6294)">
    <path
       id="path237-317-04-77"
       style="fill:#000000;fill-opacity:1;stroke:none;stroke-width:0.200527;stroke-dasharray:none;stroke-opacity:1"
       d="m 83.401111,195.6294 c -0.127651,0 -1.630989,0.48825 -1.734261,0.56328 -0.103272,0.075 -1.032323,1.35396 -1.071769,1.47536 -0.01828,0.0563 -0.02761,0.4279 -0.02894,0.82062 0.0077,-0.005 0.01437,-0.009 0.02274,-0.014 0.07448,-0.0438 0.177027,-0.097 0.299724,-0.1571 0.245394,-0.12015 0.572008,-0.26755 0.907955,-0.41134 0.335947,-0.14379 0.680484,-0.28357 0.961181,-0.38861 0.140348,-0.0525 0.264063,-0.0963 0.366386,-0.12816 0.05116,-0.0159 0.0965,-0.0286 0.139527,-0.0388 0.04303,-0.0101 0.0759,-0.0207 0.151411,-0.0207 0.07551,0 0.108384,0.0105 0.151412,0.0207 0.04303,0.0101 0.08836,0.0228 0.139527,0.0388 0.102323,0.0319 0.226038,0.0756 0.366386,0.12816 0.280696,0.10504 0.625751,0.24482 0.961698,0.38861 0.335948,0.14379 0.662561,0.29119 0.907955,0.41134 0.120239,0.0589 0.220469,0.11072 0.294556,0.154 -0.0016,-0.38625 -0.01092,-0.74812 -0.02894,-0.80357 -0.03945,-0.1214 -0.969014,-1.40033 -1.072286,-1.47536 -0.103272,-0.075 -1.60661,-0.56328 -1.734261,-0.56328 z m 0.01395,1.83555 c -0.0016,3.3e-4 -0.0019,1.2e-4 -0.0036,5.2e-4 -0.02466,0.006 -0.06222,0.016 -0.10697,0.03 -0.0895,0.0279 -0.208386,0.0699 -0.344682,0.12092 -0.01138,0.004 -0.02611,0.0101 -0.03772,0.0145 0.03138,0.0755 0.107927,0.11704 0.22996,0.12454 l -0.11007,0.14625 -0.001,1.38389 0.197404,0.0863 c 0.04959,-0.0567 0.110878,-0.0834 0.184485,-0.0801 -0.07128,0.0367 -0.166967,0.14471 -0.287838,0.32401 l -0.278019,-0.10542 c -0.0056,0.009 -0.01271,0.0168 -0.02067,0.0243 0.03977,0.0153 0.08614,0.0346 0.123507,0.0486 0.136296,0.051 0.255184,0.093 0.344682,0.12092 0.04475,0.0139 0.08231,0.0242 0.10697,0.03 0.0017,4e-4 0.002,1.9e-4 0.0036,5.2e-4 0.0016,-3.3e-4 0.0019,-1.2e-4 0.0036,-5.2e-4 0.02466,-0.006 0.06222,-0.016 0.10697,-0.03 0.0895,-0.0279 0.208902,-0.0699 0.345199,-0.12092 0.0048,-0.002 0.01114,-0.004 0.01602,-0.006 l -0.1757,-0.0667 c -0.03564,0.055 -0.117101,0.0856 -0.244946,0.0915 0.09608,-0.0459 0.163314,-0.1113 0.202055,-0.19637 l 0.001,-1.49862 c -0.04107,-0.007 -0.07261,-0.0255 -0.09509,-0.0563 l -0.194303,0.0703 0.356567,-0.35347 c -0.07936,-0.0285 -0.152971,-0.0538 -0.21084,-0.0718 -0.04475,-0.0139 -0.08231,-0.0242 -0.10697,-0.03 -0.0017,-4e-4 -0.002,-1.9e-4 -0.0036,-5.2e-4 z m 0.347266,0.11214 c 0.01442,0.10958 0.09561,0.16916 0.243913,0.17828 l -0.110071,0.14625 -0.001,1.38389 0.197404,0.0863 c 0.04959,-0.0567 0.111394,-0.0834 0.185001,-0.0801 -0.05541,0.0285 -0.126506,0.10029 -0.211873,0.21498 0.234171,-0.0912 0.490936,-0.19497 0.751375,-0.30645 0.332185,-0.14218 0.656211,-0.28795 0.894519,-0.40462 0.119155,-0.0583 0.217005,-0.1095 0.282153,-0.1478 0.03257,-0.0192 0.05671,-0.0354 0.07028,-0.046 9.87e-4,-7.7e-4 6.89e-4,-8.8e-4 0.0016,-0.002 -8.12e-4,-7.4e-4 -5.14e-4,-8.4e-4 -0.0016,-0.002 -0.01357,-0.0106 -0.0377,-0.0268 -0.07028,-0.046 -0.06515,-0.0383 -0.162998,-0.0895 -0.282153,-0.14779 -0.238308,-0.11668 -0.562334,-0.26245 -0.894519,-0.40463 -0.332185,-0.14219 -0.673603,-0.28092 -0.946195,-0.38292 -0.03886,-0.0145 -0.07271,-0.0263 -0.108521,-0.0393 z m -1.011824,0.12144 c -0.230715,0.09 -0.48242,0.1916 -0.737423,0.30075 -0.332185,0.14218 -0.655693,0.28795 -0.894002,0.40463 -0.119154,0.0583 -0.217007,0.10948 -0.282154,0.14779 -0.03257,0.0191 -0.05671,0.0354 -0.07028,0.046 -9.88e-4,7.7e-4 -6.89e-4,8.7e-4 -0.0015,0.002 8.11e-4,7.4e-4 5.13e-4,8.5e-4 0.0015,0.002 0.01357,0.0106 0.03771,0.0268 0.07028,0.046 0.06515,0.0383 0.163,0.0894 0.282154,0.1478 0.238309,0.11667 0.561817,0.26244 0.894002,0.40462 0.255033,0.10917 0.506688,0.21073 0.737423,0.30076 0.02598,-0.0286 0.04747,-0.0603 0.06356,-0.0956 l 10e-4,-1.49862 c -0.04107,-0.007 -0.07261,-0.0255 -0.09508,-0.0563 l -0.194303,0.0703 z m 0.412377,0.12195 v 1.34204 l -0.06511,0.0589 v -1.30948 z m 0.854212,0 v 1.34204 l -0.06511,0.0589 v -1.30948 z m -3.450952,0.88935 c 0.0018,0.37797 0.01126,0.72746 0.02894,0.78187 0.03945,0.12141 0.968498,1.40033 1.071769,1.47536 0.103272,0.075 1.60661,0.56327 1.734261,0.56327 0.127651,0 1.630989,-0.48824 1.734261,-0.56327 0.103271,-0.075 1.03284,-1.35395 1.072286,-1.47536 0.01741,-0.0536 0.02638,-0.39354 0.02842,-0.76481 -0.07406,0.0433 -0.173985,0.0952 -0.294039,0.15399 -0.245394,0.12014 -0.572008,0.26756 -0.907955,0.41135 -0.335948,0.1438 -0.681001,0.28357 -0.961698,0.3886 -0.140348,0.0525 -0.264063,0.0963 -0.366386,0.12816 -0.05116,0.0159 -0.0965,0.0291 -0.139527,0.0393 -0.04303,0.0101 -0.0759,0.0201 -0.151412,0.0201 -0.07552,0 -0.108383,-0.01 -0.151411,-0.0201 -0.04303,-0.0101 -0.08836,-0.0233 -0.139527,-0.0393 -0.102323,-0.0319 -0.226038,-0.0756 -0.366386,-0.12816 -0.280697,-0.10503 -0.625234,-0.2448 -0.961181,-0.3886 -0.335947,-0.14379 -0.662561,-0.29121 -0.907955,-0.41135 -0.122697,-0.0601 -0.225241,-0.11329 -0.299724,-0.15709 -0.0084,-0.005 -0.01505,-0.009 -0.02274,-0.014 z" />
  </g>
</svg>
