<?xml version="1.0" encoding="UTF-8" standalone="no"?>
<!-- Created with Inkscape (http://www.inkscape.org/) -->

<svg
   width="5.7146544mm"
   height="6.4037595mm"
   viewBox="0 0 5.7146544 6.4037595"
   version="1.1"
   id="svg1"
   xmlns="http://www.w3.org/2000/svg"
   xmlns:svg="http://www.w3.org/2000/svg">
  <defs
     id="defs1">
    <linearGradient
       id="swatch4">
      <stop
         style="stop-color:#000000;stop-opacity:1;"
         offset="0"
         id="stop4" />
    </linearGradient>
  </defs>
  <g
     id="layer2"
     style="stroke:#ffffff;stroke-opacity:1"
     transform="translate(-88.413331,-173.66173)">
    <path
       id="path63-83-81"
       style="fill:#000000;fill-opacity:1;stroke:none;stroke-width:0.174705;stroke-dasharray:none;stroke-opacity:1"
       d="m 91.270898,173.66175 c -0.139393,0 -2.055394,1.09552 -2.630847,1.48622 0.04375,-0.01 0.09191,-0.0191 0.149861,-0.0274 0.160719,-0.0229 0.377134,-0.0414 0.633036,-0.0563 0.511803,-0.0298 1.179748,-0.0439 1.84795,-0.0439 0.668203,0 1.336663,0.0141 1.848466,0.0439 0.255901,0.0149 0.4718,0.0333 0.632519,0.0563 0.05819,0.008 0.106505,0.0179 0.150379,0.0279 -0.574861,-0.3904 -2.491932,-1.48673 -2.631364,-1.48673 z m -5.17e-4,1.56631 c -0.664947,1e-5 -1.329879,0.0145 -1.83503,0.0439 -0.252641,0.0147 -0.465807,0.0338 -0.615983,0.0553 -0.07509,0.0107 -0.134385,0.0219 -0.172083,0.0326 -0.0029,8.2e-4 -0.0036,0.001 -0.0062,0.002 6.7e-4,0.003 -3.12e-4,0.003 5.17e-4,0.007 0.0096,0.038 0.02962,0.095 0.05788,0.16537 0.05651,0.14078 0.146351,0.33454 0.259933,0.56069 0.227165,0.4523 0.548006,1.03629 0.880566,1.6123 0.33256,0.57601 0.67738,1.14447 0.955498,1.56735 0.139059,0.21144 0.261351,0.38658 0.355017,0.50591 0.04683,0.0597 0.0866,0.10604 0.114721,0.13333 0.0022,0.002 0.0036,0.002 0.0057,0.004 0.0021,-0.002 0.002,-0.002 0.0041,-0.004 0.02812,-0.0273 0.06892,-0.0737 0.115755,-0.13333 0.09367,-0.11933 0.215958,-0.29447 0.355017,-0.50591 0.278117,-0.42288 0.623453,-0.99134 0.956014,-1.56735 0.33256,-0.57601 0.651851,-1.16 0.879016,-1.6123 0.113582,-0.22615 0.204974,-0.41991 0.261483,-0.56069 0.02826,-0.0704 0.04778,-0.12736 0.05736,-0.16537 8.63e-4,-0.003 3.81e-4,-0.004 10e-4,-0.007 -0.0026,-8.2e-4 -0.0033,-0.001 -0.0062,-0.002 -0.0377,-0.0107 -0.097,-0.0219 -0.172082,-0.0326 -0.150176,-0.0215 -0.363341,-0.0406 -0.615983,-0.0553 -0.505152,-0.0294 -1.1706,-0.0439 -1.835547,-0.0439 z m -2.822567,0.21549 c -0.05367,0.65032 -0.04456,2.94003 0.02636,3.06287 0.07146,0.12378 2.077521,1.29182 2.650484,1.55907 -0.0011,-0.001 -0.002,-0.002 -0.0031,-0.003 -0.03992,-0.0387 -0.08372,-0.0891 -0.133842,-0.15296 -0.100242,-0.12771 -0.225015,-0.30621 -0.365869,-0.52038 -0.281706,-0.42833 -0.628114,-0.999 -0.962215,-1.57768 -0.334101,-0.57868 -0.655122,-1.16451 -0.885218,-1.62264 -0.115048,-0.22906 -0.207207,-0.42657 -0.267684,-0.57723 -0.02609,-0.065 -0.04516,-0.1192 -0.05891,-0.16795 z m 5.64565,0.002 c 4.4e-5,5.4e-4 -4.3e-5,0.002 0,0.002 1.39e-4,-4.8e-4 3.79e-4,-0.001 5.17e-4,-0.002 z m 0,0.002 c -0.01369,0.048 -0.0318,0.10118 -0.05736,0.16485 -0.06048,0.15067 -0.153154,0.34816 -0.268201,0.57723 -0.230097,0.45813 -0.5506,1.04395 -0.884701,1.62264 -0.334101,0.57867 -0.681025,1.14934 -0.962732,1.57768 -0.140853,0.21416 -0.265109,0.39267 -0.365352,0.52038 -0.05012,0.0639 -0.09444,0.11421 -0.134359,0.15296 -9.04e-4,8.2e-4 -0.0022,0.002 -0.0031,0.002 0.574471,-0.26826 2.578549,-1.43486 2.649967,-1.55856 0.0708,-0.12262 0.07919,-2.40431 0.02584,-3.05925 z m -2.657718,0.37052 c 0.04339,0.10175 0.113471,0.1681 0.210323,0.19896 0.09685,0.03 0.23236,-0.0316 0.406693,-0.18501 -0.123195,0.2502 -0.242929,0.389 -0.359151,0.41652 -0.115447,0.0275 -0.228199,-0.0302 -0.338997,-0.17364 l -0.13746,0.0713 z m -0.869198,0.0202 c 0.0016,0.13093 0.08327,0.20134 0.24598,0.21135 l -0.110071,0.14625 -10e-4,1.38389 0.197404,0.0863 c 0.04959,-0.0567 0.111395,-0.0834 0.185002,-0.0801 -0.07128,0.0367 -0.167483,0.14471 -0.288354,0.32401 l -0.27802,-0.1049 c -0.03564,0.055 -0.117102,0.0851 -0.244946,0.0909 0.09608,-0.0459 0.163314,-0.1113 0.202055,-0.19637 l 0.001,-1.49862 c -0.04106,-0.007 -0.07261,-0.0255 -0.09508,-0.0563 l -0.194304,0.0703 z m 1.512052,0 v 0.90588 l -0.58136,0.5178 v 0.41031 l 0.533301,-0.001 c 0.07283,-0.17347 0.181188,-0.28809 0.324528,-0.34313 -0.14644,0.0901 -0.250398,0.281 -0.311609,0.57206 l -0.74259,-0.003 c -0.133268,0.008 -0.24214,-0.0163 -0.326595,-0.0713 0.150314,0.004 0.244963,-0.0364 0.283704,-0.12144 v -0.38396 l 0.594795,-0.53433 v -0.60565 c 0.07438,-0.05 0.149895,-0.16414 0.225826,-0.34261 z m -1.25522,0.27646 v 1.34256 l -0.06511,0.0584 v -1.30948 z m 1.003039,0.0827 -0.0015,0.5643 c -0.116222,-0.0592 -0.230008,-0.0629 -0.341581,-0.0103 0.03874,-0.0934 0.130804,-0.131 0.276469,-0.11266 v -0.14107 c -0.0891,-0.0409 -0.173668,-0.0291 -0.254248,0.0351 0.01782,-0.0984 0.102384,-0.14668 0.254248,-0.14418 v -0.14521 z" />
  </g>
</svg>
