<?xml version="1.0" encoding="UTF-8" standalone="no"?>
<!-- Created with Inkscape (http://www.inkscape.org/) -->

<svg
   width="6.1489811mm"
   height="6.1491237mm"
   viewBox="0 0 6.1489811 6.1491237"
   version="1.1"
   id="svg1"
   xmlns="http://www.w3.org/2000/svg"
   xmlns:svg="http://www.w3.org/2000/svg">
  <defs
     id="defs1">
    <linearGradient
       id="swatch4">
      <stop
         style="stop-color:#000000;stop-opacity:1;"
         offset="0"
         id="stop4" />
    </linearGradient>
  </defs>
  <g
     id="layer2"
     style="stroke:#ffffff;stroke-opacity:1"
     transform="translate(-2.7303381,-166.10458)">
    <path
       id="path225-00"
       style="fill:#000000;fill-opacity:1;stroke:none;stroke-width:0.200527;stroke-dasharray:none;stroke-opacity:1"
       d="m 4.5312636,166.10459 -0.014987,0.015 0.036691,-0.015 z m 0.1080031,0 0.3167776,0.77979 1.6970526,-0.001 0.3105765,-0.77876 z m 2.4344758,0 0.00775,0.003 -0.0031,-0.003 z m 0.076482,0.0718 -0.3126427,0.7891 1.1875233,1.18804 0.777731,-0.32453 z m -2.6964756,0.006 -1.6484792,1.64848 0.7803138,0.32143 1.1854588,-1.18494 z m 0.4831743,0.90176 -1.2267982,1.22731 -2e-6,1.7353 1.2267993,1.22783 1.7352948,-10e-4 1.2267975,-1.2268 5.179e-4,-1.7353 -1.2273142,-1.2268 z m -2.1910809,0.80615 -0.015504,0.0155 10e-8,0.0222 z m 6.1334765,0.12557 -0.7792812,0.32453 -9e-7,1.67277 0.7792808,0.32918 z m -6.1489798,0.001 4e-7,2.32699 0.7792813,-0.33487 -2.1e-6,-1.67069 z m 3.0633778,0.19637 c 0.00155,0.13094 0.08327,0.20135 0.2459813,0.21135 l -0.1100705,0.14676 -0.00155,1.38339 0.1979221,0.0863 c 0.049588,-0.0567 0.110876,-0.0834 0.1844844,-0.0801 -0.071284,0.0367 -0.1669661,0.14471 -0.2878376,0.32402 l -0.2780207,-0.1049 c -0.03564,0.055 -0.1171015,0.0851 -0.2449453,0.0909 0.096078,-0.0459 0.1633146,-0.1113 0.2020562,-0.19637 l 0.00103,-1.49861 c -0.041064,-0.007 -0.072615,-0.0255 -0.095084,-0.0563 l -0.1943018,0.0703 z m 0.2568323,0.27647 4e-7,1.34255 -0.065111,0.0589 -3e-7,-1.31 z m -2.4727168,1.70894 -0.7699785,0.33176 1.6500286,1.65003 0.3183272,-0.78394 z m 4.4503751,0.003 -1.2035441,1.20354 0.3302117,0.77205 1.6484793,-1.64848 z m -5.2978674,0.23254 -2e-6,0.0186 0.013953,0.0139 z m 2.2308702,1.03973 -0.3167762,0.7798 h 2.3264728 l -0.3364141,-0.77928 z m -0.4423509,0.7674 0.012403,0.0124 h 0.01757 z" />
  </g>
</svg>
