<?xml version="1.0" encoding="UTF-8" standalone="no"?>
<!-- Created with Inkscape (http://www.inkscape.org/) -->

<svg
   width="5.7152267mm"
   height="6.4037595mm"
   viewBox="0 0 5.7152267 6.4037595"
   version="1.1"
   id="svg1"
   xmlns="http://www.w3.org/2000/svg"
   xmlns:svg="http://www.w3.org/2000/svg">
  <defs
     id="defs1">
    <linearGradient
       id="swatch4">
      <stop
         style="stop-color:#000000;stop-opacity:1;"
         offset="0"
         id="stop4" />
    </linearGradient>
  </defs>
  <g
     id="layer2"
     style="stroke:#ffffff;stroke-opacity:1"
     transform="translate(-10.787441,-173.65606)">
    <path
       id="path63-83-2"
       style="fill:#000000;fill-opacity:1;stroke:none;stroke-width:0.174705;stroke-dasharray:none;stroke-opacity:1"
       d="m 13.645018,173.65607 c -0.139394,0 -2.055395,1.09551 -2.630847,1.48621 0.04375,-0.01 0.09191,-0.0191 0.149862,-0.0274 0.16072,-0.0229 0.377134,-0.0414 0.633036,-0.0563 0.511803,-0.0298 1.179746,-0.0439 1.847949,-0.0439 0.668202,0 1.336663,0.0141 1.848466,0.0439 0.255901,0.0149 0.471802,0.0333 0.63252,0.0563 0.0582,0.008 0.106504,0.0179 0.150378,0.0279 -0.574862,-0.3904 -2.491932,-1.48673 -2.631364,-1.48673 z m 0,1.56631 c -0.665121,0 -1.330264,0.0145 -1.835547,0.0439 -0.252642,0.0147 -0.465807,0.0338 -0.615983,0.0553 -0.07509,0.0107 -0.134383,0.0213 -0.172082,0.032 -0.0029,8.2e-4 -0.0031,0.001 -0.0057,0.002 6.7e-4,0.003 -3.12e-4,0.003 5.17e-4,0.007 0.0096,0.038 0.02962,0.095 0.05788,0.16536 0.05651,0.14078 0.146349,0.33454 0.259932,0.56069 0.227165,0.4523 0.548005,1.0363 0.880566,1.61231 0.33256,0.57601 0.67738,1.14446 0.955498,1.56734 0.139059,0.21144 0.26135,0.38659 0.355017,0.50592 0.04683,0.0597 0.0866,0.10603 0.114721,0.13332 0.0022,0.002 0.0031,0.002 0.0052,0.004 0.0021,-0.002 0.0026,-0.002 0.0047,-0.004 0.02812,-0.0273 0.06892,-0.0737 0.115755,-0.13332 0.09367,-0.11933 0.215958,-0.29448 0.355017,-0.50592 0.278118,-0.42288 0.623454,-0.99133 0.956014,-1.56734 0.332561,-0.57601 0.651851,-1.16001 0.879016,-1.61231 0.113583,-0.22615 0.204973,-0.41991 0.261483,-0.56069 0.02826,-0.0704 0.04778,-0.12735 0.05736,-0.16536 8.63e-4,-0.003 3.81e-4,-0.004 0.001,-0.007 -0.0026,-8.2e-4 -0.0033,-0.001 -0.0062,-0.002 -0.0377,-0.0107 -0.097,-0.0213 -0.172082,-0.032 -0.150176,-0.0215 -0.363342,-0.0406 -0.615983,-0.0553 -0.505283,-0.0294 -1.170943,-0.0439 -1.836064,-0.0439 z m -2.823083,0.21549 c -0.05367,0.65032 -0.04458,2.94002 0.02636,3.06286 0.07146,0.12378 2.077521,1.29183 2.650484,1.55908 -0.0011,-0.001 -0.002,-0.002 -0.0031,-0.003 -0.03992,-0.0387 -0.08372,-0.0891 -0.133842,-0.15296 -0.100242,-0.12771 -0.225016,-0.30621 -0.365869,-0.52038 -0.281707,-0.42833 -0.628114,-0.99901 -0.962215,-1.57769 -0.334101,-0.57868 -0.655121,-1.16451 -0.885217,-1.62264 -0.115049,-0.22906 -0.207208,-0.42656 -0.267684,-0.57722 -0.02609,-0.065 -0.04516,-0.1192 -0.05891,-0.16795 z m 5.646167,0.002 c -0.01374,0.0484 -0.03206,0.10208 -0.05788,0.1664 -0.06048,0.15067 -0.153153,0.34815 -0.268201,0.57722 -0.230096,0.45813 -0.550599,1.04395 -0.8847,1.62264 -0.334102,0.57867 -0.681026,1.14935 -0.962732,1.57769 -0.140854,0.21416 -0.26511,0.39267 -0.365353,0.52038 -0.05012,0.0639 -0.09444,0.11421 -0.134358,0.15296 -9.05e-4,8.2e-4 -0.0017,0.002 -0.0026,0.002 0.574471,-0.26826 2.57855,-1.43486 2.649967,-1.55856 0.07085,-0.1227 0.0793,-2.40746 0.02584,-3.0608 z m -3.052011,0.37724 c 0.04339,0.10174 0.113472,0.1681 0.210324,0.19895 0.09685,0.03 0.23236,-0.0316 0.406693,-0.185 -0.123195,0.2502 -0.242929,0.38899 -0.359151,0.41651 -0.115448,0.0275 -0.228716,-0.0302 -0.339514,-0.17363 l -0.136943,0.0713 z m 0.642339,0.0202 v 0.90589 l -0.580844,0.5178 v 0.41031 l 0.533301,-0.001 c 0.07283,-0.17347 0.181187,-0.28809 0.324528,-0.34314 -0.14644,0.0901 -0.250398,0.281 -0.311609,0.57206 l -0.74259,-0.003 c -0.133268,0.007 -0.24214,-0.0163 -0.326595,-0.0713 0.150314,0.004 0.244963,-0.0364 0.283704,-0.12143 v -0.38396 l 0.594795,-0.53434 v -0.60564 c 0.07438,-0.05 0.149378,-0.16415 0.22531,-0.34262 z m -0.252181,0.35915 -10e-4,0.56431 c -0.116222,-0.0592 -0.230008,-0.0629 -0.341581,-0.0103 0.03874,-0.0934 0.130804,-0.131 0.276469,-0.11265 v -0.14108 c -0.0891,-0.0409 -0.173668,-0.0291 -0.254248,0.0351 0.01782,-0.0984 0.102384,-0.14668 0.254248,-0.14417 v -0.1447 z" />
  </g>
</svg>
