<?xml version="1.0" encoding="UTF-8" standalone="no"?>
<!-- Created with Inkscape (http://www.inkscape.org/) -->

<svg
   width="5.7250867mm"
   height="5.6291137mm"
   viewBox="0 0 5.7250867 5.6291137"
   version="1.1"
   id="svg1"
   xmlns="http://www.w3.org/2000/svg"
   xmlns:svg="http://www.w3.org/2000/svg">
  <defs
     id="defs1">
    <linearGradient
       id="swatch4">
      <stop
         style="stop-color:#000000;stop-opacity:1;"
         offset="0"
         id="stop4" />
    </linearGradient>
  </defs>
  <g
     id="layer2"
     style="stroke:#ffffff;stroke-opacity:1"
     transform="translate(-95.995779,-181.08921)">
    <path
       id="path24-11-10-87"
       style="display:inline;fill:#000000;fill-opacity:1;stroke:none;stroke-width:0.200527;stroke-dasharray:none;stroke-opacity:1"
       d="m 98.858049,181.0892 c -1.165468,0 -2.328544,0.0383 -2.640666,0.11421 l 2.666504,1.89446 2.592603,-1.90014 c -0.34405,-0.0724 -1.480786,-0.10853 -2.618441,-0.10853 z m 2.756421,0.2558 -2.569353,1.88361 c 0.0366,0.0272 0.07543,0.0602 0.11989,0.1018 0.09943,0.093 0.222021,0.22296 0.361218,0.37827 0.278395,0.31061 0.620855,0.72419 0.950845,1.1436 0.32998,0.4194 0.64698,0.84394 0.87437,1.17616 0.1137,0.16612 0.20459,0.30943 0.26458,0.41909 0.005,0.009 0.008,0.0163 0.0129,0.0248 0.12718,-0.88983 0.12244,-4.44123 -0.0145,-5.12734 z m -5.515943,0.0202 c -0.135481,0.74634 -0.1371,4.35136 -0.0041,5.15162 0.01047,-0.0216 0.0224,-0.0442 0.03617,-0.0693 0.05998,-0.10966 0.150888,-0.25297 0.264584,-0.41909 0.227391,-0.33222 0.544378,-0.75676 0.874365,-1.17616 0.329987,-0.41941 0.672969,-0.83299 0.951363,-1.1436 0.139198,-0.15531 0.261275,-0.28532 0.360702,-0.37827 0.0479,-0.0448 0.09066,-0.0803 0.129707,-0.10852 z m 2.774508,1.98075 c -0.02679,0.0195 -0.06305,0.0504 -0.106971,0.0915 -0.09203,0.086 -0.212669,0.21229 -0.349849,0.36535 -0.27436,0.30611 -0.615357,0.71814 -0.943612,1.13534 -0.328254,0.4172 -0.644068,0.83996 -0.868164,1.16737 -0.112047,0.16371 -0.200791,0.30415 -0.256315,0.40566 -0.02652,0.0485 -0.0436,0.0864 -0.05323,0.11317 0.03645,0.007 0.09037,0.0154 0.160197,0.0227 0.147557,0.0155 0.356938,0.0286 0.606165,0.0393 0.498455,0.0213 1.155267,0.032 1.811776,0.032 0.656509,0 1.313848,-0.0108 1.812298,-0.032 0.24923,-0.0106 0.45964,-0.0238 0.6072,-0.0393 0.0702,-0.007 0.12375,-0.0155 0.16019,-0.0227 -0.01,-0.0268 -0.0277,-0.0647 -0.0543,-0.11317 -0.0555,-0.10151 -0.14426,-0.24195 -0.25631,-0.40566 -0.22409,-0.32741 -0.54042,-0.75017 -0.86868,-1.16737 -0.32826,-0.4172 -0.669259,-0.82923 -0.943619,-1.13534 -0.137179,-0.15306 -0.257299,-0.27932 -0.349332,-0.36535 -0.04392,-0.0411 -0.0807,-0.072 -0.107487,-0.0915 z m 0.09508,1.01906 c 0.01705,0.10175 0.0729,0.16312 0.167432,0.18397 0.09453,0.0209 0.176763,0.001 0.246497,-0.0579 -0.07748,0.2035 -0.173424,0.31019 -0.287321,0.31936 -0.113898,0.009 -0.204151,-0.0424 -0.270785,-0.15502 l -0.125574,0.0749 z m -0.800984,0.0264 c 0.0015,0.13093 0.08378,0.20135 0.246496,0.21136 l -0.110071,0.14624 -0.0016,1.38338 0.197921,0.0868 c 0.04959,-0.0567 0.110877,-0.0834 0.184485,-0.0801 -0.07128,0.0367 -0.166967,0.1447 -0.287838,0.32401 l -0.278019,-0.10542 c -0.03564,0.055 -0.117619,0.0856 -0.245463,0.0915 0.09608,-0.0459 0.163831,-0.1113 0.202571,-0.19637 l 10e-4,-1.49861 c -0.04107,-0.007 -0.07261,-0.0255 -0.09508,-0.0563 l -0.194303,0.0698 z m 1.218013,0.11007 0.241846,0.20877 c 0.05036,0.0259 0.115531,0.0247 0.195337,-0.004 -0.08755,0.0676 -0.15324,0.10311 -0.197404,0.10645 v 0.3514 l -0.442867,0.15399 0.441316,0.15348 v 0.73329 c 0.109249,0.003 0.211398,0.0739 0.305925,0.21239 -0.04416,-0.0575 -0.149675,-0.0856 -0.31626,-0.0848 l -0.227893,-0.21032 v -0.64802 l -0.360185,-0.14263 0.360185,-0.16898 z m -0.961182,0.1664 v 1.34203 l -0.06459,0.0589 v -1.31 z m 0.926559,0.82682 -0.001,0.56431 c -0.116222,-0.0592 -0.230008,-0.0629 -0.341581,-0.0103 0.03874,-0.0934 0.130804,-0.131 0.276469,-0.11265 v -0.14108 c -0.0891,-0.0409 -0.174184,-0.0291 -0.254765,0.0351 0.01782,-0.0984 0.102901,-0.14668 0.254765,-0.14418 v -0.14521 z m -0.387057,0.52297 c 0.02557,0.10174 0.07858,0.16311 0.159164,0.18396 0.08058,0.0208 0.172385,0.001 0.275435,-0.0579 -0.09685,0.18681 -0.204431,0.28892 -0.322977,0.30644 -0.117772,0.0175 -0.226644,-0.03 -0.326596,-0.14263 l -0.173116,0.0625 z" />
  </g>
</svg>
