<?xml version="1.0" encoding="UTF-8" standalone="no"?>
<!-- Created with Inkscape (http://www.inkscape.org/) -->

<svg
   width="6.2030616mm"
   height="6.4533529mm"
   viewBox="0 0 6.2030616 6.4533529"
   version="1.1"
   id="svg1"
   xmlns="http://www.w3.org/2000/svg"
   xmlns:svg="http://www.w3.org/2000/svg">
  <defs
     id="defs1">
    <linearGradient
       id="swatch4">
      <stop
         style="stop-color:#000000;stop-opacity:1;"
         offset="0"
         id="stop4" />
    </linearGradient>
  </defs>
  <g
     id="layer2"
     style="stroke:#ffffff;stroke-opacity:1"
     transform="translate(-72.473666,-142.59439)">
    <path
       id="path43-16-0"
       style="fill:#000000;fill-opacity:1;stroke:none;stroke-width:0.194062;stroke-dasharray:none;stroke-opacity:1"
       d="m 75.663599,142.5944 v 1.24592 c 0.02026,0.0104 0.04162,0.0223 0.0677,0.0377 0.06087,0.036 0.139191,0.086 0.229443,0.14624 0.180503,0.1205 0.409276,0.28152 0.63562,0.44597 0.226343,0.16445 0.44974,0.33221 0.620117,0.46664 0.08519,0.0672 0.157808,0.12582 0.21084,0.1726 0.02253,0.0199 0.03949,0.0367 0.05529,0.0527 l 1.12913,-0.42116 c -0.185662,-0.29451 -1.060336,-1.49539 -1.133781,-1.54875 -0.07256,-0.0527 -1.455474,-0.50443 -1.814359,-0.59789 z m -0.193787,0.004 c -0.394463,0.1067 -1.725835,0.54273 -1.79679,0.59428 -0.07129,0.0518 -0.903703,1.19232 -1.122412,1.52859 l 1.120345,0.43874 c 0.01554,-0.0154 0.03184,-0.0308 0.05323,-0.0496 0.05303,-0.0468 0.124617,-0.10539 0.209806,-0.1726 0.170377,-0.13444 0.393774,-0.30219 0.620118,-0.46664 0.226344,-0.16445 0.455117,-0.32599 0.63562,-0.44649 0.09025,-0.0602 0.16857,-0.10974 0.229443,-0.14572 0.01946,-0.0115 0.03453,-0.0191 0.05064,-0.0279 z m 0.105937,1.38907 c -0.0011,4.4e-4 -0.0015,5.4e-4 -0.0026,0.001 -0.01544,0.007 -0.03914,0.0206 -0.06718,0.0372 -0.05608,0.0332 -0.132422,0.0818 -0.221176,0.14107 -0.177508,0.1185 -0.405002,0.27893 -0.629935,0.44235 -0.224932,0.16342 -0.4474,0.33031 -0.61495,0.46251 -0.08377,0.0661 -0.153716,0.12331 -0.202571,0.1664 -0.02443,0.0216 -0.04393,0.0393 -0.05581,0.0517 -7.63e-4,9.1e-4 -8.04e-4,10e-4 -0.0015,0.002 7.4e-5,0.001 -2.15e-4,0.002 0,0.004 0.0023,0.017 0.0069,0.0426 0.01395,0.0744 0.0142,0.0636 0.03722,0.15101 0.06615,0.25373 0.05784,0.20544 0.140426,0.47145 0.226343,0.73587 0.08592,0.26443 0.175629,0.5279 0.249597,0.72812 0.03698,0.1001 0.06972,0.18465 0.0956,0.24443 0.01294,0.0299 0.02446,0.0536 0.03256,0.0687 5.25e-4,9.2e-4 9.22e-4,9.9e-4 0.0015,0.002 0.0013,3.6e-4 0.0017,0.001 0.0031,0.001 0.01688,0.003 0.04302,0.007 0.07545,0.01 0.06485,0.006 0.154853,0.0113 0.261483,0.0155 0.213258,0.008 0.49143,0.0124 0.769462,0.0124 0.278032,0 0.556204,-0.004 0.769462,-0.0124 0.106629,-0.004 0.197665,-0.009 0.262516,-0.0155 0.03243,-0.003 0.05856,-0.007 0.07545,-0.01 0.0012,-2.1e-4 0.0014,-0.001 0.0026,-0.001 5.94e-4,-9.2e-4 9.5e-4,-9.9e-4 0.0015,-0.002 0.0081,-0.0151 0.0191,-0.0388 0.03204,-0.0687 0.02588,-0.0598 0.05862,-0.14433 0.0956,-0.24443 0.07396,-0.2002 0.164713,-0.46369 0.25063,-0.72812 0.08592,-0.26442 0.167466,-0.53043 0.22531,-0.73587 0.02892,-0.10272 0.05195,-0.19015 0.06615,-0.25373 0.0071,-0.0318 0.01162,-0.0574 0.01395,-0.0744 2.16e-4,-0.001 -7.3e-5,-0.002 0,-0.004 -6.85e-4,-9.1e-4 -7.26e-4,-0.001 -0.0015,-0.002 -0.01188,-0.0124 -0.03035,-0.0301 -0.05478,-0.0517 -0.04885,-0.0431 -0.119829,-0.10029 -0.203605,-0.1664 -0.167571,-0.13221 -0.390018,-0.29909 -0.61495,-0.46251 -0.224933,-0.16342 -0.452428,-0.32385 -0.629936,-0.44235 -0.08875,-0.0592 -0.165098,-0.10792 -0.221175,-0.14107 -0.02804,-0.0166 -0.05071,-0.0297 -0.06615,-0.0372 -0.0011,-5.1e-4 -0.0015,-6.3e-4 -0.0026,-0.001 z m -3.040642,0.75964 c -0.01624,0.026 -0.03562,0.056 -0.03824,0.0641 -0.0016,0.005 -0.0027,0.0312 -0.0041,0.0444 z m 2.444296,0.0346 c 0.0015,0.13094 0.08378,0.20135 0.246496,0.21136 l -0.110587,0.14676 -0.001,1.38338 0.197921,0.0863 c 0.04959,-0.0567 0.110877,-0.0834 0.184485,-0.0801 -0.07128,0.0367 -0.167484,0.14471 -0.288355,0.32401 l -0.277502,-0.1049 c -0.03564,0.055 -0.117619,0.0856 -0.245463,0.0915 0.09608,-0.0459 0.163831,-0.11183 0.202571,-0.19689 l 0.001,-1.49862 c -0.04107,-0.007 -0.07313,-0.0255 -0.0956,-0.0563 l -0.193787,0.0703 z m 1.071769,0.003 c 0.0039,0.0709 0.05844,0.13429 0.163814,0.19017 0.10615,0.0559 0.218125,0.047 0.335897,-0.0264 l -0.126607,0.14883 v 1.16737 L 76.2,146.46134 v -0.66145 c 0.100726,-0.004 0.150895,-0.0508 0.150895,-0.14005 0,-0.0901 -0.05017,-0.13467 -0.150895,-0.13384 v -0.28525 c -0.121646,-0.0334 -0.22276,-0.10744 -0.303341,-0.22169 v 0.50539 c -0.100726,0.003 -0.151412,0.0489 -0.151412,0.13643 0,0.0867 0.05069,0.13245 0.151412,0.13746 v 0.7121 l 0.183452,0.12505 0.344165,-0.33279 -0.0057,0.11782 -0.438216,0.44028 -0.311609,-0.19017 c -0.03564,-0.0167 -0.08685,-0.0176 -0.153479,-0.003 0.06431,-0.055 0.11241,-0.0845 0.144178,-0.0879 v -1.35186 c -0.03642,0.0134 -0.09072,-0.0141 -0.162781,-0.0816 0.06431,0.0283 0.117582,0.03 0.160197,0.004 z m -3.56309,0.11937 c -0.02181,0.37473 -0.01888,1.82281 0.0088,1.90789 0.02743,0.0844 0.865506,1.24238 1.111043,1.5441 l 0.699699,-0.88677 c -0.01038,-0.02 -0.02109,-0.0406 -0.03307,-0.0682 -0.0281,-0.0649 -0.0611,-0.15195 -0.0987,-0.25374 -0.07521,-0.20358 -0.165726,-0.46874 -0.252181,-0.73483 -0.08646,-0.26608 -0.169073,-0.53266 -0.227893,-0.74156 -0.02941,-0.10445 -0.0528,-0.19402 -0.06821,-0.26303 -0.0053,-0.0239 -0.0085,-0.0428 -0.01189,-0.062 z m 6.17585,0.0248 -1.130163,0.42168 c -0.0033,0.0181 -0.0059,0.0348 -0.01085,0.0568 -0.01541,0.069 -0.0388,0.15858 -0.06821,0.26303 -0.05882,0.2089 -0.140405,0.476 -0.22686,0.74208 -0.08646,0.26608 -0.176977,0.53074 -0.252181,0.73432 -0.0376,0.10179 -0.07164,0.18885 -0.09973,0.25373 -0.01351,0.0312 -0.0257,0.0559 -0.03721,0.0775 l 0.700215,0.88264 c 0.237735,-0.29016 1.087011,-1.46365 1.114661,-1.54875 0.02691,-0.0828 0.0303,-1.46419 0.01033,-1.88309 z m -3.427697,0.12971 v 1.34256 l -0.06511,0.0589 v -1.31 z m 0.807185,0.26562 c 0.0085,0 0.01719,0.002 0.02532,0.006 0.01627,0.008 0.02636,0.0205 0.03101,0.0372 0.0054,0.0158 0.0054,0.0324 0,0.0491 -0.0054,0.0167 -0.01835,0.0289 -0.03927,0.0372 v 0.18758 h 0.102319 c 0.0077,-0.0225 0.01913,-0.0365 0.03462,-0.0424 0.0155,-0.006 0.03075,-0.006 0.04547,0 0.0155,0.005 0.02688,0.0166 0.03462,0.0341 0.0077,0.0175 0.0077,0.0356 0,0.0548 -0.007,0.0183 -0.01861,0.0301 -0.03566,0.0351 -0.01705,0.005 -0.0336,0.004 -0.04909,-0.004 -0.0155,-0.007 -0.02532,-0.0231 -0.02997,-0.0465 H 76.06099 l 5.17e-4,0.64182 c 0.02092,0.008 0.03437,0.0205 0.03979,0.0372 0.0054,0.0167 0.0054,0.0334 0,0.0501 -0.0046,0.0159 -0.01525,0.0278 -0.03152,0.0362 -0.01627,0.008 -0.03334,0.009 -0.05116,0.002 -0.01705,-0.008 -0.02791,-0.022 -0.03256,-0.0403 -0.0046,-0.0183 -0.0034,-0.0355 0.0036,-0.0522 0.007,-0.0167 0.0212,-0.0275 0.04289,-0.0326 l -5.16e-4,-0.64182 h -0.111105 c -0.0046,0.0234 -0.01448,0.039 -0.02997,0.0465 -0.0155,0.008 -0.03205,0.009 -0.04909,0.004 -0.01705,-0.005 -0.02946,-0.0168 -0.03721,-0.0351 -0.007,-0.0192 -0.0067,-0.0373 0.001,-0.0548 0.0077,-0.0175 0.01939,-0.0291 0.03411,-0.0341 0.0155,-0.006 0.03101,-0.006 0.04651,0 0.0155,0.006 0.02688,0.0199 0.03462,0.0424 h 0.110588 v -0.18758 c -0.0217,-0.005 -0.03644,-0.0159 -0.04341,-0.0326 -0.007,-0.0167 -0.0078,-0.0338 -0.0031,-0.0522 0.0046,-0.0183 0.01551,-0.0312 0.03256,-0.0388 0.0089,-0.004 0.01731,-0.006 0.02584,-0.006 z m -1.572513,2.25309 -0.705384,0.89297 c 0.366818,0.14135 1.721161,0.57826 1.809709,0.57826 0.08784,0 1.4249,-0.43077 1.804541,-0.57568 l -0.709517,-0.89503 c -0.01568,0.002 -0.02893,0.004 -0.04754,0.006 -0.0704,0.007 -0.162356,0.0122 -0.270784,0.0165 -0.216856,0.009 -0.49692,0.0134 -0.776697,0.0134 -0.279776,0 -0.558808,-0.005 -0.775663,-0.0134 -0.108428,-0.004 -0.201421,-0.01 -0.271818,-0.0165 -0.02237,-0.002 -0.03885,-0.005 -0.05684,-0.007 z m 3.014803,0.84439 -0.01499,0.0119 c 0.001,-4.6e-4 0.0065,-0.003 0.0072,-0.003 0.0011,-9.1e-4 0.0063,-0.008 0.0078,-0.009 z" />
  </g>
</svg>
