<?xml version="1.0" encoding="UTF-8" standalone="no"?>
<!-- Created with Inkscape (http://www.inkscape.org/) -->

<svg
   width="7.2042117mm"
   height="6.3448324mm"
   viewBox="0 0 7.2042117 6.3448324"
   version="1.1"
   id="svg1"
   xmlns="http://www.w3.org/2000/svg"
   xmlns:svg="http://www.w3.org/2000/svg">
  <defs
     id="defs1">
    <linearGradient
       id="swatch4">
      <stop
         style="stop-color:#000000;stop-opacity:1;"
         offset="0"
         id="stop4" />
    </linearGradient>
  </defs>
  <g
     id="layer2"
     style="stroke:#ffffff;stroke-opacity:1"
     transform="translate(-71.972873,-158.44924)">
    <path
       id="path34-81-8-39-2-0"
       style="fill:#000000;fill-opacity:1;stroke:none;stroke-width:0.200326;stroke-dasharray:none;stroke-opacity:1"
       d="m 75.507536,158.44924 c -0.534491,0.28392 -3.534668,2.96694 -3.534668,3.18172 0,0.0765 0.383541,0.46819 0.897619,0.95085 z m 0.133842,0 2.635498,4.13463 c 0.515202,-0.48363 0.900203,-0.87635 0.900203,-0.95291 0,-0.2149 -3.003634,-2.90029 -3.535701,-3.18172 z m -0.06666,0.26614 -2.459281,3.85816 2.463415,1.11053 2.450497,-1.1157 z m -0.595312,1.86707 c 0.0015,0.13093 0.08378,0.20135 0.246496,0.21135 l -0.110587,0.14625 -10e-4,1.38338 0.197921,0.0863 c 0.04959,-0.0567 0.110877,-0.0829 0.184485,-0.0796 -0.07128,0.0367 -0.167484,0.14419 -0.288355,0.3235 l -0.277502,-0.10491 c -0.03564,0.055 -0.117619,0.0856 -0.245463,0.0915 0.09608,-0.0459 0.163831,-0.1113 0.202571,-0.19637 l 10e-4,-1.49862 c -0.04107,-0.007 -0.07313,-0.0255 -0.0956,-0.0563 l -0.193787,0.0698 z m 1.071769,0.003 c 0.0039,0.0709 0.05844,0.13378 0.163814,0.18965 0.10615,0.0559 0.218125,0.0476 0.335897,-0.0258 l -0.126607,0.14883 v 1.16686 L 76.2,162.26245 v -0.66198 c 0.100726,-0.004 0.150895,-0.0508 0.150895,-0.14004 0,-0.0901 -0.05017,-0.13468 -0.150895,-0.13384 v -0.28526 c -0.121646,-0.0334 -0.22276,-0.10692 -0.303341,-0.22117 v 0.50539 c -0.100726,0.003 -0.151412,0.0483 -0.151412,0.13591 0,0.0867 0.05069,0.13297 0.151412,0.13798 v 0.71158 l 0.183452,0.12506 0.344165,-0.3328 -0.0057,0.11783 -0.438216,0.44028 -0.311609,-0.19017 c -0.03564,-0.0167 -0.08685,-0.0176 -0.153479,-0.003 0.06431,-0.055 0.11241,-0.084 0.144178,-0.0873 v -1.35237 c -0.03642,0.0133 -0.09072,-0.0136 -0.162781,-0.0811 0.06431,0.0283 0.117582,0.0295 0.160197,0.004 z m -0.814937,0.27389 v 1.34203 l -0.06511,0.0589 v -1.30999 z m 0.807185,0.2651 c 0.0085,0 0.01719,0.002 0.02532,0.006 0.01627,0.008 0.02636,0.021 0.03101,0.0377 0.0054,0.0159 0.0054,0.0319 0,0.0486 -0.0054,0.0167 -0.01835,0.0294 -0.03927,0.0377 v 0.18759 h 0.102319 c 0.0077,-0.0225 0.01913,-0.0371 0.03462,-0.0429 0.0155,-0.006 0.03075,-0.006 0.04547,0 0.0155,0.005 0.02688,0.0166 0.03462,0.0341 0.0077,0.0175 0.0077,0.0356 0,0.0548 -0.007,0.0183 -0.01861,0.0301 -0.03566,0.0351 -0.01705,0.005 -0.0336,0.004 -0.04909,-0.004 -0.0155,-0.008 -0.02532,-0.0232 -0.02997,-0.0465 H 76.06099 l 5.17e-4,0.64182 c 0.02092,0.008 0.03437,0.0211 0.03979,0.0377 0.0054,0.0167 0.0054,0.0334 0,0.0501 -0.0046,0.0159 -0.01525,0.0278 -0.03152,0.0362 -0.01627,0.008 -0.03334,0.009 -0.05116,0.001 -0.01705,-0.008 -0.02791,-0.0214 -0.03256,-0.0398 -0.0046,-0.0183 -0.0034,-0.036 0.0036,-0.0527 0.007,-0.0167 0.0212,-0.0275 0.04289,-0.0326 l -5.16e-4,-0.64182 h -0.111105 c -0.0046,0.0234 -0.01448,0.039 -0.02997,0.0465 -0.0155,0.008 -0.03205,0.009 -0.04909,0.004 -0.01705,-0.005 -0.02946,-0.0168 -0.03721,-0.0351 -0.007,-0.0192 -0.0067,-0.0373 0.001,-0.0548 0.0077,-0.0175 0.01939,-0.0291 0.03411,-0.0341 0.0155,-0.006 0.03101,-0.006 0.04651,0 0.0155,0.006 0.02688,0.0204 0.03462,0.0429 h 0.110588 v -0.18759 c -0.0217,-0.005 -0.03644,-0.0159 -0.04341,-0.0326 -0.007,-0.0167 -0.0078,-0.0344 -0.0031,-0.0527 0.0046,-0.0183 0.01551,-0.0312 0.03256,-0.0387 0.0089,-0.004 0.01731,-0.006 0.02584,-0.006 z m 2.035535,1.64382 -2.404504,1.09348 v 0.93276 c 0.361988,-0.21531 1.517408,-1.20609 2.404504,-2.02624 z m -4.996077,0.0103 c 0.883852,0.81645 2.02802,1.79843 2.390551,2.01538 v -0.93638 z" />
  </g>
</svg>
