<?xml version="1.0" encoding="UTF-8" standalone="no"?>
<!-- Created with Inkscape (http://www.inkscape.org/) -->

<svg
   width="5.628593mm"
   height="6.2502718mm"
   viewBox="0 0 5.628593 6.2502718"
   version="1.1"
   id="svg1"
   xmlns="http://www.w3.org/2000/svg"
   xmlns:svg="http://www.w3.org/2000/svg">
  <defs
     id="defs1">
    <linearGradient
       id="swatch4">
      <stop
         style="stop-color:#000000;stop-opacity:1;"
         offset="0"
         id="stop4" />
    </linearGradient>
  </defs>
  <g
     id="layer2"
     style="stroke:#ffffff;stroke-opacity:1"
     transform="translate(-41.951019,-120.4839)">
    <g
       id="g6">
      <path
         id="path824"
         style="fill:#000000;fill-opacity:1;stroke:none;stroke-width:0.200527;stroke-dasharray:none;stroke-opacity:1"
         d="m 44.765743,120.49497 c -0.0028,0.003 -0.0031,0.003 -0.0062,0.006 -0.02798,0.0271 -0.06783,0.0727 -0.114205,0.13178 -0.09276,0.11817 -0.214315,0.29204 -0.351917,0.50126 -0.275204,0.41845 -0.616637,0.9809 -0.945678,1.55081 -0.32904,0.56992 -0.645445,1.14717 -0.870231,1.59473 -0.112392,0.22378 -0.202423,0.4156 -0.258383,0.55501 -0.02798,0.0697 -0.04732,0.12704 -0.05684,0.16485 -0.001,0.004 -7.56e-4,0.005 -0.0016,0.008 0.0036,0.001 0.0042,0.002 0.0083,0.003 0.0375,0.0106 0.09669,0.023 0.171049,0.0336 0.148715,0.0213 0.35927,0.0391 0.609265,0.0537 0.49999,0.0291 1.158347,0.0439 1.816427,0.0439 0.65808,0 1.316954,-0.0148 1.816943,-0.0439 0.249995,-0.0146 0.46055,-0.0324 0.609265,-0.0537 0.07436,-0.0106 0.133029,-0.0229 0.170533,-0.0336 0.0042,-10e-4 0.0052,-0.002 0.0088,-0.003 -7.89e-4,-0.004 -4.09e-4,-0.004 -0.0016,-0.008 -0.0095,-0.0378 -0.02938,-0.0951 -0.05736,-0.16485 -0.05596,-0.13941 -0.145474,-0.33123 -0.257866,-0.55501 -0.224786,-0.44756 -0.54119,-1.02481 -0.870231,-1.59473 -0.32904,-0.56991 -0.670991,-1.13236 -0.946195,-1.55081 -0.137602,-0.20922 -0.258644,-0.38309 -0.3514,-0.50126 -0.04638,-0.0591 -0.08623,-0.10463 -0.114205,-0.13178 -0.0031,-0.003 -0.0039,-0.003 -0.0067,-0.006 z m 0.05839,2.08256 c 0.01085,0.0817 0.05481,0.13315 0.132292,0.154 0.07748,0.0208 0.155063,0.002 0.232544,-0.0574 -0.0012,0.002 -0.0024,0.004 -0.0036,0.007 0.0012,-9.1e-4 0.0024,-0.002 0.0036,-0.003 -0.0984,0.19715 -0.194601,0.29764 -0.288355,0.30231 -0.09375,0.004 -0.174695,-0.0357 -0.242879,-0.11989 l -0.0801,0.0879 v 1.23145 l 0.257865,0.16019 v -0.87074 l 0.06511,0.0589 v 0.75396 l -0.0646,0.0584 0.0646,0.0398 0.04754,-0.0667 v -0.81752 c -0.05656,-0.0117 -0.100525,-0.0491 -0.132292,-0.11162 l -0.225309,0.31936 v -0.004 l 10e-4,-0.11627 0.378789,-0.49299 c 0.01782,0.10174 0.07394,0.16312 0.168465,0.18397 0.09453,0.0209 0.179349,10e-4 0.253731,-0.0579 -0.0012,0.003 -0.0024,0.004 -0.0036,0.007 0.0012,-9.3e-4 0.0024,-0.002 0.0036,-0.003 -0.0829,0.1701 -0.157122,0.26794 -0.222209,0.29301 l -10e-4,0.66352 v 0.004 l -0.357084,0.478 -0.462504,-0.31522 c -0.05114,-0.033 -0.121478,-0.0337 -0.211357,-0.002 0.0035,-0.003 0.0069,-0.005 0.01034,-0.008 -0.0036,10e-4 -0.0067,10e-4 -0.01034,0.003 0.08755,-0.0717 0.154274,-0.10477 0.199988,-0.0997 v -1.00976 c -0.04416,-0.003 -0.110366,-0.0389 -0.197921,-0.10645 0.004,0.001 0.0079,0.003 0.01189,0.004 -0.0041,-0.003 -0.0076,-0.006 -0.01189,-0.009 0.07981,0.0284 0.144974,0.0296 0.195337,0.004 z" />
      <path
         id="path218-0-1"
         style="fill:#000000;fill-opacity:1;stroke:none;stroke-width:0.200527;stroke-dasharray:none;stroke-opacity:1"
         d="m 47.550064,124.90431 c 0.0476,-0.7134 0.03775,-2.82464 -0.02997,-2.94194 -0.06656,-0.11529 -1.825067,-1.14247 -2.494938,-1.47743 0.0066,0.008 0.01226,0.015 0.01912,0.0238 0.09909,0.12624 0.221888,0.30233 0.361218,0.51419 0.278661,0.4237 0.621872,0.98866 0.952397,1.56114 0.330524,0.57249 0.648307,1.15189 0.875916,1.60507 0.113804,0.22659 0.204802,0.42158 0.264583,0.57051 0.02211,0.0551 0.03849,0.10164 0.05168,0.14469 z" />
      <path
         id="path217-20-6"
         style="fill:#000000;fill-opacity:1;stroke:none;stroke-width:0.200527;stroke-dasharray:none;stroke-opacity:1"
         d="m 42.045491,125.17768 c 0.303425,0.25318 2.568941,1.5565 2.71973,1.5565 0.150613,0 2.411546,-1.30063 2.719214,-1.55598 -0.02096,0.01 -0.04275,0.0179 -0.06718,0.0248 -0.05274,0.015 -0.117452,0.0274 -0.196887,0.0388 -0.15887,0.0227 -0.373184,0.0411 -0.626319,0.0558 -0.506269,0.0295 -1.167263,0.0439 -1.828312,0.0439 -0.661049,0 -1.321526,-0.0145 -1.827795,-0.0439 -0.253135,-0.0147 -0.467449,-0.0331 -0.626319,-0.0558 -0.07944,-0.0113 -0.144668,-0.0238 -0.197404,-0.0388 -0.02514,-0.007 -0.04722,-0.0148 -0.06873,-0.0253 z" />
      <path
         id="path216-89-0"
         style="fill:#000000;fill-opacity:1;stroke:none;stroke-width:0.200527;stroke-dasharray:none;stroke-opacity:1"
         d="m 44.50839,120.48391 c -0.667836,0.33354 -2.431388,1.36302 -2.498039,1.47846 -0.06782,0.11747 -0.0773,2.23525 -0.02946,2.94556 0.01328,-0.0439 0.02948,-0.0917 0.05219,-0.14831 0.05978,-0.14893 0.15078,-0.34392 0.264584,-0.57051 0.227608,-0.45318 0.545391,-1.03258 0.875915,-1.60507 0.330525,-0.57248 0.673736,-1.13744 0.952397,-1.56114 0.13933,-0.21186 0.262646,-0.38795 0.361735,-0.51419 0.0073,-0.009 0.01368,-0.0161 0.02067,-0.0248 z" />
    </g>
  </g>
</svg>
