<?xml version="1.0" encoding="UTF-8" standalone="no"?>
<!-- Created with Inkscape (http://www.inkscape.org/) -->

<svg
   width="5.670455mm"
   height="5.9009318mm"
   viewBox="0 0 5.670455 5.9009318"
   version="1.1"
   id="svg1"
   xmlns="http://www.w3.org/2000/svg"
   xmlns:svg="http://www.w3.org/2000/svg">
  <defs
     id="defs1">
    <linearGradient
       id="swatch4">
      <stop
         style="stop-color:#000000;stop-opacity:1;"
         offset="0"
         id="stop4" />
    </linearGradient>
  </defs>
  <g
     id="layer2"
     style="stroke:#ffffff;stroke-opacity:1"
     transform="translate(-126.80156,-195.5767)">
    <path
       id="path237-317-04-71"
       style="fill:#000000;fill-opacity:1;stroke:none;stroke-width:0.200527;stroke-dasharray:none;stroke-opacity:1"
       d="m 129.63653,195.57669 c -0.12765,0 -1.63099,0.48825 -1.73426,0.56328 -0.10327,0.075 -1.03232,1.35396 -1.07177,1.47536 -0.0183,0.0563 -0.0276,0.4279 -0.0289,0.82062 0.008,-0.005 0.0144,-0.009 0.0227,-0.0139 0.0745,-0.0438 0.17702,-0.097 0.29972,-0.1571 0.24539,-0.12015 0.57201,-0.26755 0.90796,-0.41134 0.33595,-0.14379 0.68049,-0.28357 0.96118,-0.38861 0.14035,-0.0525 0.26407,-0.0963 0.36639,-0.12816 0.0512,-0.0159 0.0965,-0.0286 0.13952,-0.0388 0.043,-0.0101 0.0759,-0.0207 0.15141,-0.0207 0.0755,0 0.10839,0.0105 0.15142,0.0207 0.043,0.0101 0.0884,0.0228 0.13952,0.0388 0.10232,0.0319 0.22604,0.0756 0.36639,0.12816 0.0484,0.0181 0.10684,0.042 0.15865,0.062 0.0234,-0.0125 0.0473,-0.026 0.0713,-0.0408 -0.0131,0.0185 -0.0262,0.036 -0.0393,0.0532 0.004,0.002 0.008,0.003 0.0119,0.005 l 0.0124,-0.0176 c -0.003,0.006 -0.006,0.0128 -0.008,0.0191 0.23724,0.0924 0.49444,0.19648 0.755,0.308 0.33595,0.14379 0.66256,0.29119 0.90795,0.41134 0.12024,0.0589 0.22047,0.11072 0.29456,0.154 -0.002,-0.38625 -0.0109,-0.74812 -0.0289,-0.80357 -0.0394,-0.1214 -0.96901,-1.40033 -1.07229,-1.47536 -0.10327,-0.075 -1.60661,-0.56328 -1.73426,-0.56328 z m 0.0139,1.83555 c -0.002,3.3e-4 -0.002,1.2e-4 -0.004,5.2e-4 -0.0247,0.006 -0.0622,0.016 -0.10697,0.03 -0.0895,0.0279 -0.20839,0.0699 -0.34469,0.12092 -0.0257,0.01 -0.0584,0.0228 -0.0853,0.0331 0.0353,0.0653 0.10969,0.10157 0.22272,0.10852 l -0.11058,0.14625 -0.001,1.38338 0.19741,0.0863 c 0.0496,-0.0567 0.11139,-0.0829 0.185,-0.0796 -0.0713,0.0367 -0.16748,0.14418 -0.28836,0.32349 l -0.27802,-0.1049 c -0.001,0.002 -0.003,0.004 -0.005,0.006 0.0532,0.0206 0.11361,0.0452 0.16278,0.0636 0.1363,0.051 0.25519,0.093 0.34469,0.12092 0.0447,0.0139 0.0823,0.0242 0.10697,0.03 0.002,4e-4 0.002,1.9e-4 0.004,5.2e-4 0.002,-3.3e-4 0.002,-1.2e-4 0.004,-5.2e-4 0.0247,-0.006 0.0622,-0.016 0.10697,-0.03 0.0883,-0.0275 0.20606,-0.0688 0.34003,-0.11885 l -0.20567,-0.0718 c -0.10848,0.0992 -0.24424,0.12983 -0.40773,0.0915 0.16736,0.004 0.2889,-0.0613 0.36484,-0.19637 0.0616,-0.27606 0.12202,-0.51912 0.18086,-0.7307 -0.055,-0.0124 -0.10206,-0.0348 -0.14107,-0.0677 l -0.13385,0.0465 0.21395,-0.20877 c 0.0238,0.0363 0.0585,0.0633 0.10335,0.0811 0.11764,-0.39618 0.22988,-0.65955 0.33641,-0.7922 -0.009,-0.004 -0.0177,-0.007 -0.0269,-0.0109 -0.11417,0.11826 -0.2272,0.1858 -0.33951,0.20257 -0.16117,0.0233 -0.28788,-0.0131 -0.37931,-0.10904 l -0.17415,0.0791 0.27647,-0.3514 c 0.055,0.0801 0.15406,0.12558 0.29662,0.13642 0.0554,0.004 0.11282,-0.001 0.1726,-0.015 -0.0426,-0.0164 -0.0919,-0.0368 -0.13177,-0.0517 -0.1363,-0.051 -0.25571,-0.093 -0.3452,-0.12092 -0.0447,-0.0139 -0.0823,-0.0242 -0.10697,-0.03 -0.002,-4e-4 -0.002,-1.9e-4 -0.004,-5.2e-4 z m -0.75189,0.26717 c -0.20785,0.0823 -0.42709,0.17171 -0.65009,0.26716 -0.33218,0.14218 -0.65569,0.28795 -0.894,0.40463 -0.11915,0.0583 -0.21701,0.10948 -0.28215,0.14779 -0.0326,0.0191 -0.0567,0.0354 -0.0703,0.046 -9.9e-4,7.7e-4 -8.1e-4,3.6e-4 -0.002,0.002 8.1e-4,7.4e-4 6.3e-4,8.4e-4 0.002,0.002 0.0136,0.0106 0.0377,0.0268 0.0703,0.046 0.0651,0.0383 0.163,0.0894 0.28215,0.14779 0.23831,0.11667 0.56182,0.26245 0.894,0.40463 0.24051,0.10294 0.47693,0.19907 0.69763,0.28577 0.019,-0.0238 0.0353,-0.0494 0.0481,-0.0775 l 0.001,-1.49861 c -0.0411,-0.007 -0.0726,-0.0255 -0.0951,-0.0563 l -0.1943,0.0698 z m 1.5534,0.0191 c -0.0951,0.24533 -0.17339,0.51292 -0.23462,0.80253 0.10666,0.003 0.22327,-0.0244 0.35037,-0.0816 -0.12736,0.13296 -0.25291,0.20417 -0.37724,0.21446 -0.0362,0.19126 -0.0652,0.39128 -0.0873,0.601 l 0.1974,0.0863 c 0.0496,-0.0567 0.1114,-0.0829 0.18501,-0.0796 -0.0571,0.0294 -0.13064,0.10531 -0.21963,0.22634 0.24248,-0.0938 0.51349,-0.20382 0.78703,-0.32091 0.33219,-0.14218 0.65621,-0.28796 0.89452,-0.40463 0.11915,-0.0583 0.21701,-0.10949 0.28215,-0.14779 0.0326,-0.0192 0.0567,-0.0354 0.0703,-0.046 9.9e-4,-7.7e-4 8.1e-4,-8.7e-4 0.002,-0.002 -8.1e-4,-7.4e-4 -6.3e-4,-3.3e-4 -0.002,-0.002 -0.0136,-0.0106 -0.0377,-0.0268 -0.0703,-0.046 -0.0651,-0.0383 -0.163,-0.0895 -0.28215,-0.14779 -0.23831,-0.11668 -0.56233,-0.26245 -0.89452,-0.40463 -0.20496,-0.0877 -0.40734,-0.17076 -0.60099,-0.24804 z m -1.10898,0.0718 v 1.34203 l -0.0651,0.0589 v -1.31 z m -2.54145,0.88676 c 0.002,0.37797 0.0113,0.72746 0.0289,0.78187 0.0395,0.12141 0.9685,1.40033 1.07177,1.47536 0.10328,0.075 1.60661,0.56327 1.73426,0.56327 0.12766,0 1.63098,-0.48824 1.73426,-0.56327 0.10327,-0.075 1.03285,-1.35395 1.07229,-1.47536 0.0174,-0.0536 0.0264,-0.39354 0.0284,-0.76481 -0.074,0.0433 -0.17398,0.0952 -0.29404,0.15399 -0.24539,0.12014 -0.572,0.26756 -0.90795,0.41135 -0.33595,0.1438 -0.681,0.28357 -0.9617,0.3886 -0.14035,0.0525 -0.26407,0.0963 -0.36639,0.12816 -0.0512,0.0159 -0.0965,0.0291 -0.13952,0.0393 -0.043,0.0101 -0.0759,0.0202 -0.15142,0.0202 -0.0755,0 -0.10839,-0.01 -0.15141,-0.0202 -0.043,-0.0101 -0.0884,-0.0233 -0.13952,-0.0393 -0.10232,-0.0319 -0.22604,-0.0756 -0.36639,-0.12816 -0.0599,-0.0224 -0.13131,-0.0517 -0.19637,-0.077 -0.002,8e-5 -0.003,4.4e-4 -0.005,5.1e-4 7.1e-4,-3.4e-4 10e-4,-6.9e-4 0.002,-0.001 -0.239,-0.093 -0.49891,-0.19838 -0.76223,-0.31109 -0.33595,-0.14379 -0.66257,-0.29121 -0.90796,-0.41135 -0.1227,-0.0601 -0.22523,-0.11329 -0.29972,-0.15709 -0.008,-0.005 -0.0151,-0.009 -0.0227,-0.014 z m 3.19567,0.0362 -0.18707,0.65836 c -0.0953,-0.0517 -0.20598,-0.0178 -0.33228,0.10232 0.0682,-0.15679 0.17137,-0.23127 0.31006,-0.22376 l 0.0501,-0.14521 c -0.0744,-0.035 -0.16334,-0.017 -0.26717,0.0548 0.0527,-0.10258 0.15432,-0.15806 0.30541,-0.1664 l 0.0734,-0.22996 z" />
  </g>
</svg>
