<?xml version="1.0" encoding="UTF-8" standalone="no"?>
<!-- Created with Inkscape (http://www.inkscape.org/) -->

<svg
   width="6.1489787mm"
   height="6.1489787mm"
   viewBox="0 0 6.1489787 6.1489787"
   version="1.1"
   id="svg1"
   xmlns="http://www.w3.org/2000/svg"
   xmlns:svg="http://www.w3.org/2000/svg">
  <defs
     id="defs1">
    <linearGradient
       id="swatch4">
      <stop
         style="stop-color:#000000;stop-opacity:1;"
         offset="0"
         id="stop4" />
    </linearGradient>
  </defs>
  <g
     id="layer2"
     style="stroke:#ffffff;stroke-opacity:1"
     transform="translate(-95.78382,-166.15731)">
    <path
       id="path225-00-4"
       style="fill:#000000;fill-opacity:1;stroke:none;stroke-width:0.200527;stroke-dasharray:none;stroke-opacity:1"
       d="m 97.584741,166.1573 -0.01499,0.015 0.03669,-0.015 z m 0.108004,0 0.316776,0.7798 1.697055,-10e-4 0.310574,-0.77876 z m 2.434475,0 0.008,0.003 -0.003,-0.003 z m 0.0765,0.0718 -0.31264,0.7891 1.18752,1.18804 0.77774,-0.32453 z m -2.696473,0.006 -1.648479,1.64848 0.780314,0.32143 1.185458,-1.18494 z m 0.483174,0.90176 -1.226798,1.22731 v 1.7353 l 1.226798,1.22783 1.735295,-0.001 1.226794,-1.2268 5.2e-4,-1.7353 -1.227314,-1.2268 z m -2.191081,0.80615 -0.0155,0.0155 v 0.0222 z m 6.13348,0.12557 -0.77928,0.32453 v 1.67277 l 0.77928,0.32918 z m -6.148982,0.001 v 2.32699 l 0.77928,-0.33487 v -1.67069 z m 3.184301,0.11369 c 0.01705,0.10174 0.0729,0.1626 0.167432,0.18345 0.09453,0.0208 0.176246,0.002 0.24598,-0.0574 -0.07748,0.20349 -0.172907,0.30967 -0.286804,0.31884 -0.113898,0.009 -0.204151,-0.0424 -0.270785,-0.15503 l -0.125574,0.0749 z m -0.800984,0.0258 c 0.0015,0.13094 0.08378,0.20187 0.246496,0.21188 l -0.110587,0.14624 -0.001,1.38338 0.197404,0.0863 c 0.04959,-0.0567 0.111394,-0.0834 0.185002,-0.0801 -0.07128,0.0367 -0.167484,0.14471 -0.288355,0.32401 l -0.277502,-0.1049 c -0.03564,0.055 -0.117619,0.0856 -0.245463,0.0915 0.09608,-0.0459 0.163314,-0.11131 0.202055,-0.19637 l 0.0015,-1.49914 c -0.04107,-0.007 -0.07313,-0.0249 -0.0956,-0.0558 l -0.193786,0.0698 z m 1.218013,0.11007 0.241846,0.20929 c 0.05036,0.0259 0.115531,0.0242 0.195337,-0.004 -0.08755,0.0676 -0.153757,0.10312 -0.197921,0.10645 v 0.3514 l -0.44235,0.154 0.441316,0.154 v 0.73328 c 0.109249,0.003 0.211398,0.0739 0.305925,0.21239 -0.04416,-0.0575 -0.149675,-0.0861 -0.31626,-0.0853 l -0.227893,-0.20981 v -0.64802 l -0.360185,-0.14263 0.360185,-0.16898 z m -0.961182,0.1664 v 1.34256 l -0.06511,0.0589 v -1.31 z m 0.926559,0.82734 -0.0016,0.56379 c -0.116223,-0.0592 -0.230008,-0.0624 -0.341582,-0.01 0.03874,-0.0934 0.130804,-0.131 0.276469,-0.11265 v -0.14108 c -0.0891,-0.0409 -0.173667,-0.0296 -0.254248,0.0346 0.01782,-0.0984 0.102385,-0.14617 0.254248,-0.14366 v -0.14522 z m -0.387057,0.52245 c 0.02557,0.10175 0.07858,0.16312 0.159164,0.18397 0.08058,0.0208 0.172385,0.002 0.275435,-0.0574 -0.09685,0.18681 -0.204431,0.28893 -0.322977,0.30644 -0.117772,0.0175 -0.226644,-0.03 -0.326596,-0.14263 l -0.173116,0.0625 z m -2.332157,0.416 -0.769979,0.33176 1.650029,1.65003 0.318326,-0.78393 z m 4.450379,0.003 -1.203549,1.20354 0.330209,0.77205 1.64848,-1.64848 z m -5.297872,0.23254 v 0.0186 l 0.01395,0.014 z m 2.230871,1.03973 -0.316776,0.7798 h 2.326477 l -0.336438,-0.7794 z m -0.44235,0.7674 0.0124,0.0124 h 0.01757 z" />
  </g>
</svg>
