<?xml version="1.0" encoding="UTF-8" standalone="no"?>
<!-- Created with Inkscape (http://www.inkscape.org/) -->

<svg
   width="6.9887209mm"
   height="6.2363925mm"
   viewBox="0 0 6.9887209 6.2363925"
   version="1.1"
   id="svg1"
   xmlns="http://www.w3.org/2000/svg"
   xmlns:svg="http://www.w3.org/2000/svg">
  <defs
     id="defs1">
    <linearGradient
       id="swatch4">
      <stop
         style="stop-color:#000000;stop-opacity:1;"
         offset="0"
         id="stop4" />
    </linearGradient>
  </defs>
  <g
     id="layer2"
     style="stroke:#ffffff;stroke-opacity:1"
     transform="translate(-95.363691,-150.43578)">
    <path
       id="path94-48-79"
       style="fill:#000000;fill-opacity:1;stroke:none;stroke-width:0.192506;stroke-dasharray:none;stroke-opacity:1"
       d="m 98.857015,150.43578 c -0.703573,0 -1.400448,0.0158 -1.658297,0.0465 l 0.555522,1.00872 c 0.024,-0.004 0.05257,-0.006 0.0863,-0.009 0.06866,-0.006 0.158761,-0.0105 0.264066,-0.014 0.21061,-0.007 0.481209,-0.0108 0.752409,-0.0108 0.271199,0 0.542317,0.004 0.752926,0.0108 0.105305,0.004 0.195415,0.008 0.264066,0.014 0.0343,0.003 0.06355,0.005 0.08785,0.009 l 0.575673,-1.00666 c -0.24076,-0.0323 -0.958824,-0.0486 -1.680515,-0.0486 z m -1.826245,0.13901 c -0.303935,0.40167 -1.458801,2.4017 -1.663981,2.88044 l 1.161686,0.002 c 0.0077,-0.0183 0.01511,-0.0363 0.02584,-0.0589 0.02956,-0.0622 0.07032,-0.14215 0.119889,-0.23513 0.09914,-0.18595 0.23182,-0.42246 0.36742,-0.65732 0.135599,-0.23487 0.274549,-0.46765 0.386023,-0.64648 0.05574,-0.0894 0.104045,-0.16499 0.143144,-0.22169 0.0091,-0.0132 0.01615,-0.0219 0.02429,-0.0331 z m 3.66593,0.0181 -0.57723,1.01234 c 0.008,0.0112 0.0152,0.0199 0.0243,0.0331 0.0391,0.0567 0.0874,0.13228 0.14314,0.22169 0.11147,0.17884 0.25042,0.4116 0.38602,0.64647 0.1356,0.23486 0.26828,0.47138 0.36742,0.65733 0.0496,0.093 0.0903,0.17292 0.11989,0.23513 0.0106,0.0224 0.0182,0.0402 0.0258,0.0584 l 1.1591,-0.007 c -0.2077,-0.48043 -1.32735,-2.4201 -1.64847,-2.85719 z m -1.839685,1.05729 c -0.269523,0 -0.53904,0.003 -0.746208,0.0109 -0.103584,0.004 -0.191371,0.008 -0.254765,0.0134 -0.0317,0.002 -0.05762,0.005 -0.07441,0.008 -0.0023,3.4e-4 -0.003,0.001 -0.0052,0.002 -0.0012,0.001 -0.0019,0.002 -0.0031,0.003 -0.01059,0.0133 -0.02586,0.0343 -0.04393,0.0605 -0.0361,0.0524 -0.08418,0.12651 -0.139009,0.21446 -0.109652,0.17591 -0.247127,0.40738 -0.381889,0.64079 -0.134761,0.23341 -0.266803,0.46872 -0.364319,0.65164 -0.04876,0.0915 -0.08898,0.17044 -0.116272,0.22789 -0.01365,0.0287 -0.02428,0.0524 -0.03049,0.0682 -7.5e-4,0.002 -5.24e-4,0.003 -0.001,0.005 5.42e-4,0.002 3.16e-4,0.003 0.001,0.005 0.0062,0.0158 0.01684,0.0395 0.03049,0.0682 0.02729,0.0574 0.06751,0.13591 0.116272,0.22737 0.09752,0.18291 0.229558,0.41823 0.364319,0.65164 0.134762,0.23342 0.272237,0.4654 0.381889,0.64131 0.05483,0.088 0.102906,0.16209 0.139009,0.21445 0.01805,0.0262 0.03333,0.0468 0.04393,0.0599 0.0015,0.002 0.0025,0.002 0.0041,0.004 0.0017,3.4e-4 0.0023,7.3e-4 0.0041,0.001 0.0168,0.002 0.04272,0.005 0.07441,0.008 0.06339,0.005 0.151181,0.009 0.254765,0.0129 0.207168,0.007 0.476685,0.0103 0.746208,0.0103 0.269522,0 0.539555,-0.003 0.746724,-0.0103 0.103584,-0.003 0.191371,-0.008 0.254765,-0.0129 0.0317,-0.002 0.05761,-0.005 0.07441,-0.008 0.002,-2.7e-4 0.0021,-7.3e-4 0.0041,-0.001 0.002,-0.002 0.0026,-0.002 0.0036,-0.004 0.0106,-0.0133 0.02593,-0.0337 0.04393,-0.0599 0.0361,-0.0524 0.0842,-0.12649 0.139006,-0.21445 0.10966,-0.17591 0.24713,-0.40789 0.38189,-0.64131 0.13476,-0.23341 0.26681,-0.46873 0.36432,-0.65164 0.0488,-0.0915 0.089,-0.16992 0.11627,-0.22737 0.0136,-0.0287 0.0243,-0.0524 0.0305,-0.0682 7.6e-4,-0.002 5.2e-4,-0.003 0.001,-0.005 -5.5e-4,-0.002 -3.2e-4,-0.003 -0.001,-0.005 -0.006,-0.0158 -0.0168,-0.0395 -0.0305,-0.0682 -0.0273,-0.0574 -0.0675,-0.13643 -0.11627,-0.22789 -0.0975,-0.18292 -0.22956,-0.41823 -0.36432,-0.65164 -0.13476,-0.23341 -0.27223,-0.46488 -0.38189,-0.64079 -0.0548,-0.0879 -0.1029,-0.1621 -0.139006,-0.21446 -0.0181,-0.0262 -0.03333,-0.0472 -0.04393,-0.0605 l -0.0026,-0.003 c -0.002,-6.9e-4 -0.0032,-0.001 -0.0052,-0.002 -0.0168,-0.002 -0.04271,-0.005 -0.07441,-0.008 -0.06339,-0.005 -0.151181,-0.01 -0.254765,-0.0134 -0.207169,-0.007 -0.477201,-0.0109 -0.746724,-0.0109 z m 0.111104,0.85525 c 0.01705,0.10175 0.0729,0.1626 0.167432,0.18345 0.09453,0.0208 0.176246,0.002 0.24598,-0.0574 -0.07748,0.20349 -0.172907,0.30967 -0.286804,0.31884 -0.113898,0.009 -0.204151,-0.0424 -0.270785,-0.15503 l -0.125574,0.0749 z m -0.800984,0.0258 c 0.0015,0.13093 0.08378,0.20186 0.246496,0.21187 l -0.110587,0.14625 -0.001,1.38337 0.197404,0.0863 c 0.04959,-0.0567 0.111394,-0.0834 0.185002,-0.0801 -0.07128,0.0367 -0.167484,0.1447 -0.288355,0.32401 l -0.277502,-0.10491 c -0.03564,0.055 -0.117619,0.0856 -0.245463,0.0915 0.09608,-0.0459 0.163314,-0.1113 0.202055,-0.19637 l 0.0015,-1.49913 c -0.04107,-0.007 -0.07313,-0.0255 -0.0956,-0.0563 l -0.193786,0.0703 z m 1.218013,0.11007 0.241846,0.20929 c 0.05036,0.0259 0.115531,0.0242 0.195337,-0.004 -0.08755,0.0676 -0.153757,0.10312 -0.197921,0.10646 v 0.3514 l -0.44235,0.15399 0.441316,0.154 v 0.73329 c 0.109249,0.003 0.211398,0.0739 0.305925,0.21239 -0.04416,-0.0575 -0.149675,-0.0861 -0.31626,-0.0853 l -0.227893,-0.2098 v -0.64803 l -0.360185,-0.14262 0.360185,-0.16899 z m -0.961182,0.1664 v 1.34255 l -0.06511,0.0589 v -1.31 z m 0.926559,0.82734 -0.0016,0.56379 c -0.116223,-0.0592 -0.230008,-0.0624 -0.341582,-0.01 0.03874,-0.0934 0.130804,-0.131 0.276469,-0.11266 v -0.14107 c -0.0891,-0.0409 -0.173667,-0.0296 -0.254248,0.0346 0.01782,-0.0984 0.102385,-0.14616 0.254248,-0.14366 v -0.14521 z m 3.001885,0.008 -1.1653,0.006 c -0.008,0.0188 -0.0156,0.0378 -0.0269,0.0615 -0.0296,0.0622 -0.0703,0.14215 -0.11989,0.23513 -0.0991,0.18595 -0.23182,0.42246 -0.36742,0.65733 -0.1356,0.23487 -0.27455,0.46816 -0.38602,0.64699 -0.0557,0.0894 -0.10404,0.16499 -0.14314,0.22169 -0.0145,0.0209 -0.0267,0.0364 -0.0388,0.0522 l 0.57826,1.01131 c 0.30494,-0.4024 1.47622,-2.43135 1.66915,-2.89182 z m -6.988722,0.004 c 0.198138,0.4686 1.36834,2.49457 1.669666,2.89027 l 0.58291,-1.00408 c -0.01382,-0.0177 -0.02837,-0.0372 -0.04547,-0.062 -0.0391,-0.0567 -0.08741,-0.13228 -0.143144,-0.22169 -0.111474,-0.17883 -0.250424,-0.41212 -0.386023,-0.64699 -0.1356,-0.23487 -0.268284,-0.47136 -0.36742,-0.65732 -0.04957,-0.093 -0.09033,-0.17292 -0.119889,-0.23513 -0.01117,-0.0235 -0.01901,-0.0423 -0.02687,-0.061 z m 3.59978,0.51057 c 0.02557,0.10174 0.07858,0.16311 0.159164,0.18396 0.08058,0.0208 0.172385,0.002 0.275435,-0.0574 -0.09685,0.18681 -0.204431,0.28893 -0.322977,0.30644 -0.117772,0.0175 -0.226644,-0.03 -0.326596,-0.14262 l -0.173116,0.0625 z m 0.977202,1.46192 c -0.0203,0.002 -0.04056,0.005 -0.06666,0.007 -0.06865,0.005 -0.158761,0.01 -0.264066,0.0134 -0.210609,0.007 -0.481727,0.0109 -0.752926,0.0109 -0.2712,0 -0.541799,-0.004 -0.752409,-0.0109 -0.105305,-0.004 -0.19541,-0.008 -0.264066,-0.0134 -0.0208,-0.002 -0.03613,-0.004 -0.05323,-0.006 l -0.581877,1.00665 c 0.528329,0.0605 2.795474,0.06 3.309874,-0.001 z m 0.68678,0.97979 -0.0181,0.0103 c 0.002,-0.001 0.009,-0.002 0.0103,-0.003 0.002,-9.4e-4 0.006,-0.006 0.008,-0.008 z" />
  </g>
</svg>
