<?xml version="1.0" encoding="UTF-8" standalone="no"?>
<!-- Created with Inkscape (http://www.inkscape.org/) -->

<svg
   width="5.7250786mm"
   height="5.6291137mm"
   viewBox="0 0 5.7250786 5.6291137"
   version="1.1"
   id="svg1"
   xmlns="http://www.w3.org/2000/svg"
   xmlns:svg="http://www.w3.org/2000/svg">
  <defs
     id="defs1">
    <linearGradient
       id="swatch4">
      <stop
         style="stop-color:#000000;stop-opacity:1;"
         offset="0"
         id="stop4" />
    </linearGradient>
  </defs>
  <g
     id="layer2"
     style="stroke:#ffffff;stroke-opacity:1"
     transform="translate(-65.21781,-181.08921)">
    <path
       id="path24-11-10-15"
       style="display:inline;fill:#000000;fill-opacity:1;stroke:none;stroke-width:0.200527;stroke-dasharray:none;stroke-opacity:1"
       d="m 68.080082,181.0892 c -1.165468,0 -2.328543,0.0383 -2.640665,0.11421 l 2.666503,1.89446 2.592607,-1.90014 c -0.344045,-0.0724 -1.48079,-0.10853 -2.618445,-0.10853 z m 2.756421,0.2558 -2.569352,1.88361 c 0.0366,0.0272 0.07543,0.0602 0.119889,0.1018 0.09943,0.093 0.222021,0.22296 0.361218,0.37827 0.278395,0.31061 0.62086,0.72419 0.950847,1.1436 0.329988,0.4194 0.646973,0.84394 0.874365,1.17616 0.113695,0.16612 0.204598,0.30943 0.264583,0.41909 0.0049,0.009 0.0084,0.0163 0.01292,0.0248 0.127186,-0.88983 0.122417,-4.44123 -0.01447,-5.12734 z m -5.515942,0.0202 c -0.135481,0.74634 -0.1371,4.35136 -0.0041,5.15162 0.01047,-0.0216 0.0224,-0.0442 0.03617,-0.0693 0.05998,-0.10966 0.150887,-0.25297 0.264583,-0.41909 0.227391,-0.33222 0.544379,-0.75676 0.874366,-1.17616 0.329987,-0.41941 0.672969,-0.83299 0.951363,-1.1436 0.139198,-0.15531 0.261274,-0.28532 0.360701,-0.37827 0.0479,-0.0448 0.09066,-0.0803 0.129708,-0.10852 z m 2.774507,1.98075 c -0.02679,0.0195 -0.06305,0.0504 -0.10697,0.0915 -0.09203,0.086 -0.212669,0.21229 -0.349849,0.36535 -0.27436,0.30611 -0.615357,0.71814 -0.943612,1.13534 -0.328254,0.4172 -0.644068,0.83996 -0.868164,1.16737 -0.112047,0.16371 -0.200791,0.30415 -0.256315,0.40566 -0.02652,0.0485 -0.0436,0.0864 -0.05323,0.11317 0.03645,0.007 0.09037,0.0154 0.160197,0.0227 0.147557,0.0155 0.356938,0.0286 0.606165,0.0393 0.498455,0.0213 1.155266,0.032 1.811775,0.032 0.656509,0 1.313838,-0.0108 1.812293,-0.032 0.249228,-0.0106 0.459641,-0.0238 0.607198,-0.0393 0.07023,-0.007 0.123761,-0.0155 0.160197,-0.0227 -0.0096,-0.0268 -0.02773,-0.0647 -0.05426,-0.11317 -0.05552,-0.10151 -0.144267,-0.24195 -0.256315,-0.40566 -0.224095,-0.32741 -0.540426,-0.75017 -0.868681,-1.16737 -0.328255,-0.4172 -0.669252,-0.82923 -0.943612,-1.13534 -0.137179,-0.15306 -0.2573,-0.27932 -0.349333,-0.36535 -0.04392,-0.0411 -0.0807,-0.072 -0.107487,-0.0915 z m 0.02997,1.04128 0.381372,0.31523 c 0.05114,0.0334 0.121478,0.0343 0.211356,0.003 -0.08755,0.0717 -0.154273,0.10474 -0.199987,0.0997 v 0.9772 c 0.04416,0.003 0.110366,0.0389 0.19792,0.10646 -0.07981,-0.0284 -0.144974,-0.03 -0.195337,-0.004 l -0.418579,0.56793 c -0.05734,-0.0817 -0.124573,-0.13263 -0.202055,-0.15348 -0.07748,-0.0208 -0.155062,-0.002 -0.232544,0.0574 0.0984,-0.19682 0.194602,-0.29711 0.288355,-0.30128 0.09375,-0.005 0.174696,0.0346 0.242879,0.11886 l 0.0801,-0.11266 v -1.19837 l -0.2651,-0.22531 -0.10542,0.0785 v 0.79685 c 0.05656,0.0117 0.108282,0.0613 0.155546,0.14883 l 0.202055,-0.29353 -10e-4,0.14108 -0.262516,0.40514 c -0.05656,-0.10174 -0.141901,-0.1626 -0.255799,-0.18345 -0.113897,-0.0208 -0.208287,-0.002 -0.28267,0.0574 0.04416,-0.12843 0.118384,-0.19681 0.222209,-0.20515 v -0.62787 c -0.0922,0.0133 -0.173146,-0.0193 -0.242879,-0.0977 0.09298,0.0108 0.174179,-0.0118 0.243913,-0.0677 z m -0.104387,0.31885 v 0.83457 l -0.06511,-0.0589 V 184.765 Z" />
  </g>
</svg>
