<?xml version="1.0" encoding="UTF-8" standalone="no"?>
<!-- Created with Inkscape (http://www.inkscape.org/) -->

<svg
   width="6.2030616mm"
   height="6.4538693mm"
   viewBox="0 0 6.2030616 6.4538693"
   version="1.1"
   id="svg1"
   xmlns="http://www.w3.org/2000/svg"
   xmlns:svg="http://www.w3.org/2000/svg">
  <defs
     id="defs1">
    <linearGradient
       id="swatch4">
      <stop
         style="stop-color:#000000;stop-opacity:1;"
         offset="0"
         id="stop4" />
    </linearGradient>
  </defs>
  <g
     id="layer2"
     style="stroke:#ffffff;stroke-opacity:1"
     transform="translate(-41.663656,-142.57371)">
    <path
       id="path43-16-5"
       style="fill:#000000;fill-opacity:1;stroke:none;stroke-width:0.194062;stroke-dasharray:none;stroke-opacity:1"
       d="m 44.853593,142.57373 v 1.24592 c 0.02026,0.0104 0.04162,0.0223 0.0677,0.0377 0.06087,0.036 0.139191,0.086 0.229443,0.14624 0.180503,0.12049 0.409277,0.28152 0.635621,0.44597 0.226343,0.16445 0.44974,0.33221 0.620117,0.46664 0.08519,0.0672 0.157808,0.12583 0.21084,0.1726 0.02253,0.0199 0.03949,0.0367 0.05529,0.0527 l 1.12913,-0.42116 c -0.185662,-0.29451 -1.060336,-1.49539 -1.133781,-1.54875 -0.07256,-0.0527 -1.455474,-0.50444 -1.814359,-0.59789 z m -0.193787,0.004 c -0.394463,0.1067 -1.725834,0.54273 -1.796789,0.59428 -0.07129,0.0518 -0.903703,1.19232 -1.122412,1.52859 l 1.120345,0.43873 c 0.01554,-0.0154 0.03184,-0.0313 0.05323,-0.0501 0.05303,-0.0468 0.124618,-0.10538 0.209807,-0.1726 0.170377,-0.13443 0.393773,-0.30219 0.620117,-0.46664 0.226344,-0.16445 0.455117,-0.32547 0.63562,-0.44597 0.09025,-0.0602 0.16857,-0.11026 0.229443,-0.14624 0.01946,-0.0115 0.03453,-0.0191 0.05064,-0.0279 z m 0.105937,1.38906 c -0.0011,4.4e-4 -0.0015,5.4e-4 -0.0026,0.001 -0.01544,0.007 -0.03914,0.0206 -0.06718,0.0372 -0.05608,0.0331 -0.132421,0.0818 -0.221175,0.14108 -0.177508,0.1185 -0.405003,0.27893 -0.629936,0.44235 -0.224932,0.16343 -0.4474,0.33029 -0.61495,0.4625 -0.08378,0.0661 -0.153716,0.12331 -0.202571,0.1664 -0.02443,0.0215 -0.04393,0.0393 -0.05581,0.0517 -7.63e-4,9.2e-4 -8.04e-4,10e-4 -0.0015,0.002 7.4e-5,0.001 -2.15e-4,0.002 0,0.004 0.0023,0.017 0.0069,0.0426 0.01395,0.0744 0.0142,0.0636 0.03722,0.15103 0.06615,0.25374 0.05784,0.20544 0.140426,0.47144 0.226343,0.73587 0.08592,0.26442 0.175629,0.52789 0.249597,0.72812 0.03698,0.10009 0.06972,0.18465 0.0956,0.24443 0.01294,0.0299 0.02446,0.0536 0.03256,0.0687 5.25e-4,9.1e-4 9.22e-4,4.6e-4 0.0015,0.002 0.0013,3.6e-4 0.0017,0.001 0.0031,0.001 0.01688,0.003 0.04302,0.007 0.07545,0.0103 0.06485,0.006 0.154853,0.0113 0.261483,0.0155 0.213258,0.008 0.49143,0.0124 0.769462,0.0124 0.278032,0 0.556204,-0.004 0.769462,-0.0124 0.106629,-0.004 0.197666,-0.009 0.262517,-0.0155 0.03243,-0.003 0.05856,-0.007 0.07545,-0.0103 0.0012,-2.1e-4 0.0014,-0.001 0.0026,-0.001 5.94e-4,-9.1e-4 9.5e-4,-4.6e-4 0.0016,-0.002 0.0081,-0.0151 0.0191,-0.0389 0.03204,-0.0687 0.02588,-0.0598 0.05862,-0.14434 0.0956,-0.24443 0.07396,-0.20021 0.164714,-0.4637 0.250631,-0.72812 0.08592,-0.26443 0.167465,-0.53043 0.225309,-0.73587 0.02892,-0.10271 0.05195,-0.19016 0.06615,-0.25374 0.0071,-0.0318 0.01162,-0.0574 0.01395,-0.0744 2.16e-4,-0.001 -7.3e-5,-0.002 0,-0.004 -6.85e-4,-9.2e-4 -7.26e-4,-0.001 -0.0016,-0.002 -0.01188,-0.0124 -0.03035,-0.0301 -0.05478,-0.0517 -0.04885,-0.0431 -0.119829,-0.1003 -0.203605,-0.1664 -0.167571,-0.13221 -0.390018,-0.29907 -0.61495,-0.4625 -0.224933,-0.16342 -0.452427,-0.32385 -0.629935,-0.44235 -0.08875,-0.0592 -0.165098,-0.10793 -0.221175,-0.14108 -0.02804,-0.0166 -0.05071,-0.0297 -0.06615,-0.0372 -0.0011,-5e-4 -0.0015,-6.4e-4 -0.0026,-0.001 z m -3.040641,0.75965 c -0.01624,0.026 -0.03562,0.056 -0.03824,0.0641 -0.0016,0.005 -0.0027,0.0312 -0.0041,0.0444 z m 3.099035,0.0351 c 0.01085,0.0817 0.05481,0.13314 0.132292,0.15399 0.07748,0.0209 0.155063,0.002 0.232544,-0.0574 -0.0984,0.19682 -0.194602,0.2973 -0.288355,0.30231 -0.09375,0.004 -0.174695,-0.0357 -0.242879,-0.11989 l -0.0801,0.0873 v 1.2361 l 0.322977,0.20051 0.04754,-0.0667 v -0.82165 c -0.05656,-0.0117 -0.100524,-0.0491 -0.132292,-0.11162 l -0.225309,0.31936 10e-4,-0.11679 0.378789,-0.49248 c 0.01782,0.10175 0.07394,0.16312 0.168465,0.18397 0.09453,0.0208 0.179349,0.001 0.253731,-0.0579 -0.08291,0.17014 -0.157124,0.26799 -0.222209,0.29301 l -10e-4,0.66766 -0.357084,0.47801 -0.462504,-0.31523 c -0.05114,-0.0334 -0.121478,-0.0343 -0.211357,-0.003 0.08755,-0.0717 0.154274,-0.10474 0.199988,-0.0997 v -1.01492 c -0.04417,-0.003 -0.110367,-0.0384 -0.197921,-0.10594 0.07981,0.0283 0.144974,0.0295 0.195337,0.004 z m -3.146061,0.12144 c -0.02181,0.37473 -0.01887,1.82281 0.0088,1.90789 0.02743,0.0844 0.865506,1.24236 1.111043,1.54409 l 0.699699,-0.88677 c -0.01038,-0.0199 -0.02109,-0.0411 -0.03307,-0.0687 -0.0281,-0.0649 -0.0611,-0.15194 -0.0987,-0.25373 -0.0752,-0.20358 -0.165726,-0.46824 -0.252181,-0.73432 -0.08646,-0.26609 -0.169073,-0.53316 -0.227893,-0.74207 -0.02941,-0.10445 -0.0528,-0.19403 -0.06821,-0.26304 -0.0053,-0.0239 -0.0085,-0.0423 -0.01189,-0.0615 z m 6.175851,0.0248 -1.130164,0.42168 c -0.0033,0.0181 -0.0059,0.0348 -0.01085,0.0568 -0.01541,0.069 -0.0388,0.15859 -0.06821,0.26304 -0.05882,0.2089 -0.140404,0.47599 -0.226859,0.74207 -0.08646,0.26609 -0.176977,0.53075 -0.252181,0.73432 -0.0376,0.1018 -0.07164,0.18884 -0.09974,0.25373 -0.01351,0.0312 -0.0257,0.0559 -0.03721,0.0775 l 0.700216,0.88263 c 0.237735,-0.29016 1.08701,-1.46364 1.11466,-1.54874 0.02691,-0.0828 0.03031,-1.46419 0.01034,-1.88309 z m -3.018421,0.74052 0.06511,0.0589 v 0.75447 l -0.06511,0.0589 z m -1.174605,1.90738 -0.705383,0.89349 c 0.366818,0.14135 1.72116,0.57826 1.809708,0.57826 0.08784,0 1.4249,-0.43078 1.804541,-0.57568 l -0.709517,-0.89504 c -0.01568,0.002 -0.02893,0.004 -0.04754,0.006 -0.0704,0.007 -0.162357,0.0122 -0.270785,0.0165 -0.216856,0.009 -0.49692,0.0134 -0.776697,0.0134 -0.279776,0 -0.558808,-0.005 -0.775663,-0.0134 -0.108428,-0.004 -0.201421,-0.01 -0.271818,-0.0165 -0.02237,-0.002 -0.03885,-0.005 -0.05684,-0.007 z m 3.014803,0.84491 -0.01499,0.0119 c 0.001,-4.6e-4 0.0065,-0.003 0.0072,-0.003 0.0011,-9.1e-4 0.0063,-0.008 0.0078,-0.009 z" />
  </g>
</svg>
