<?xml version="1.0" encoding="UTF-8" standalone="no"?>
<!-- Created with Inkscape (http://www.inkscape.org/) -->

<svg
   width="5.6287303mm"
   height="6.2502642mm"
   viewBox="0 0 5.6287303 6.2502642"
   version="1.1"
   id="svg1"
   xmlns="http://www.w3.org/2000/svg"
   xmlns:svg="http://www.w3.org/2000/svg">
  <defs
     id="defs1">
    <linearGradient
       id="swatch4">
      <stop
         style="stop-color:#000000;stop-opacity:1;"
         offset="0"
         id="stop4" />
    </linearGradient>
  </defs>
  <g
     id="layer2"
     style="stroke:#ffffff;stroke-opacity:1"
     transform="translate(-3.037141,-120.80967)">
    <g
       id="g1">
      <path
         id="path205"
         style="fill:#000000;fill-opacity:1;stroke:none;stroke-width:1.34695;stroke-dasharray:none;stroke-opacity:1"
         d="m 22.593413,74.554454 c -0.01874,0.01703 -0.02431,0.01798 -0.04513,0.03818 -0.187928,0.182396 -0.455599,0.488266 -0.767121,0.885141 -0.623045,0.793751 -1.436092,1.96163 -2.360375,3.367004 -1.848565,2.810748 -4.145472,6.588739 -6.355655,10.416888 -2.210184,3.828151 -4.3355021,7.705654 -5.8453985,10.711935 -0.7549487,1.503148 -1.3562127,2.791548 -1.7320983,3.728008 -0.1879428,0.46821 -0.3212972,0.85334 -0.3852964,1.10729 -0.00697,0.0276 -0.00508,0.0312 -0.010414,0.0555 0.023892,0.008 0.027977,0.0126 0.055538,0.0208 0.2519225,0.0715 0.6494826,0.15081 1.148947,0.22215 0.9989308,0.1427 2.4167126,0.26322 4.0959442,0.361 3.358461,0.19557 7.780686,0.29504 12.201053,0.29504 4.420367,0 8.842592,-0.0995 12.201054,-0.29504 1.67923,-0.0978 3.093543,-0.2183 4.092472,-0.361 0.499466,-0.0714 0.897025,-0.15061 1.148947,-0.22215 0.02826,-0.008 0.03116,-0.0126 0.05554,-0.0208 -0.0053,-0.0243 -0.0034,-0.028 -0.01041,-0.0555 -0.06399,-0.25395 -0.197353,-0.63908 -0.385296,-1.10729 -0.375886,-0.93646 -0.977151,-2.22486 -1.732099,-3.728008 -1.509896,-3.006281 -3.635214,-6.883784 -5.845398,-10.711935 -2.210183,-3.82815 -4.50709,-7.60614 -6.355655,-10.416888 -0.924282,-1.405374 -1.737331,-2.573253 -2.360375,-3.367004 -0.311522,-0.396875 -0.579193,-0.702745 -0.767121,-0.885141 -0.02081,-0.0202 -0.02291,-0.02115 -0.04165,-0.03818 z m -0.07984,12.010141 c 0.01041,0.879499 0.559321,1.352472 1.652262,1.419695 l -0.739353,0.982333 -0.01041,9.29571 1.329446,0.57968 c 0.333087,-0.38093 0.744771,-0.560434 1.239197,-0.538026 -0.478812,0.246484 -1.121526,0.971993 -1.933425,2.176403 l -1.867472,-0.708112 c -0.239406,0.369722 -0.786581,0.575182 -1.64532,0.614392 0.645355,-0.30811 1.096991,-0.747638 1.357215,-1.319033 l 0.0069,-10.066303 c -0.275837,-0.04481 -0.487759,-0.171083 -0.638689,-0.378354 l -1.305148,0.472075 z m 1.725156,1.857059 v 9.018019 l -0.437364,0.392239 v -8.795867 z"
         transform="matrix(0.14887457,0,0,0.14887457,2.4887713,109.72127)" />
      <path
         id="path180"
         style="fill:#000000;fill-opacity:1;stroke:none;stroke-width:1.34695;stroke-dasharray:none;stroke-opacity:1"
         d="m 41.292439,104.16674 c 0.31931,-4.797817 0.256834,-18.966707 -0.197855,-19.754252 -0.447218,-0.774603 -12.268559,-7.675822 -16.765601,-9.923986 0.04493,0.05599 0.08533,0.100344 0.131903,0.159672 0.665587,0.847951 1.490435,2.030759 2.426326,3.453784 1.871782,2.84605 4.180625,6.640892 6.40078,10.486311 2.220154,3.845421 4.351249,7.737316 5.88011,10.781357 0.764429,1.522014 1.379141,2.831744 1.780694,3.832134 0.147342,0.36708 0.255317,0.67748 0.343643,0.96498 z"
         transform="matrix(0.14887457,0,0,0.14887457,2.4887713,109.72127)" />
      <path
         id="path179"
         style="fill:#000000;fill-opacity:1;stroke:none;stroke-width:1.34695;stroke-dasharray:none;stroke-opacity:1"
         d="m 4.3178664,106.00992 c 2.0381247,1.70065 17.2557436,10.45507 18.2686046,10.45507 1.011609,0 16.196974,-8.73563 18.265133,-10.4516 -0.140785,0.0673 -0.283721,0.12 -0.447777,0.16661 -0.354231,0.10061 -0.792405,0.18408 -1.325975,0.26034 -1.067139,0.15244 -2.5067,0.27587 -4.20702,0.37488 -3.400643,0.19799 -7.837112,0.29505 -12.277419,0.29505 -4.440307,0 -8.880248,-0.0971 -12.28089,-0.29505 -1.7003205,-0.099 -3.1398805,-0.22244 -4.2070201,-0.37488 -0.5335703,-0.0762 -0.971745,-0.15969 -1.3259751,-0.26034 -0.1689913,-0.048 -0.3171257,-0.0997 -0.4616614,-0.17008 z"
         transform="matrix(0.14887457,0,0,0.14887457,2.4887713,109.72127)" />
      <path
         id="path178"
         style="fill:#000000;fill-opacity:1;stroke:none;stroke-width:1.34695;stroke-dasharray:none;stroke-opacity:1"
         d="M 20.861315,74.48156 C 16.375423,76.721982 4.5295269,83.637053 4.0818289,84.412488 3.6263853,85.20134 3.5628475,99.420237 3.883974,104.19451 c 0.089151,-0.29438 0.2019502,-0.6138 0.3540562,-0.99275 0.4015529,-1.00039 1.0127934,-2.31012 1.7772231,-3.832134 1.5288604,-3.044041 3.663427,-6.935936 5.8835807,-10.781357 2.220153,-3.845419 4.522056,-7.640262 6.393838,-10.486311 0.935891,-1.423025 1.76421,-2.605833 2.429797,-3.453784 0.04877,-0.06213 0.09187,-0.108146 0.138846,-0.166614 z"
         transform="matrix(0.14887457,0,0,0.14887457,2.4887713,109.72127)" />
    </g>
  </g>
</svg>
