<?xml version="1.0" encoding="UTF-8" standalone="no"?>
<!-- Created with Inkscape (http://www.inkscape.org/) -->

<svg
   width="6.9887209mm"
   height="6.2363925mm"
   viewBox="0 0 6.9887209 6.2363925"
   version="1.1"
   id="svg1"
   xmlns="http://www.w3.org/2000/svg"
   xmlns:svg="http://www.w3.org/2000/svg">
  <defs
     id="defs1">
    <linearGradient
       id="swatch4">
      <stop
         style="stop-color:#000000;stop-opacity:1;"
         offset="0"
         id="stop4" />
    </linearGradient>
  </defs>
  <g
     id="layer2"
     style="stroke:#ffffff;stroke-opacity:1"
     transform="translate(-33.34732,-150.44767)">
    <path
       id="path94-48-7"
       style="fill:#000000;fill-opacity:1;stroke:none;stroke-width:0.192506;stroke-dasharray:none;stroke-opacity:1"
       d="m 36.840645,150.44766 c -0.703573,0 -1.400447,0.0158 -1.658296,0.0465 l 0.555521,1.00873 c 0.024,-0.004 0.05257,-0.006 0.0863,-0.009 0.06866,-0.006 0.158761,-0.0105 0.264066,-0.0139 0.21061,-0.007 0.481209,-0.0109 0.752409,-0.0109 0.271199,0 0.542317,0.004 0.752926,0.0109 0.105305,0.004 0.195412,0.008 0.264067,0.0139 0.03433,0.003 0.0636,0.005 0.08785,0.009 l 0.575676,-1.00666 c -0.240758,-0.0323 -0.958827,-0.0486 -1.680518,-0.0486 z m -1.826245,0.13901 c -0.303935,0.40167 -1.458801,2.40171 -1.663981,2.88045 l 1.161686,0.002 c 0.0077,-0.0183 0.01511,-0.0363 0.02584,-0.0589 0.02956,-0.0622 0.07032,-0.14214 0.119889,-0.23512 0.09914,-0.18595 0.231819,-0.42247 0.367419,-0.65733 0.135599,-0.23487 0.274549,-0.46764 0.386023,-0.64647 0.05574,-0.0894 0.104045,-0.16499 0.143144,-0.22169 0.0091,-0.0132 0.01614,-0.0219 0.02429,-0.0331 z m 3.665926,0.0176 -0.577225,1.01235 c 0.0081,0.0112 0.01521,0.0199 0.02429,0.0331 0.0391,0.0567 0.08741,0.13228 0.143143,0.22169 0.111474,0.17884 0.250423,0.4116 0.386023,0.64647 0.1356,0.23486 0.268284,0.47138 0.36742,0.65733 0.04957,0.093 0.09033,0.17291 0.119889,0.23512 0.01065,0.0224 0.01819,0.0402 0.02584,0.0584 l 1.159103,-0.007 c -0.207743,-0.48052 -1.327597,-2.42111 -1.648479,-2.85771 z m -1.840197,1.05782 c -0.269348,0 -0.538658,0.003 -0.745691,0.0103 -0.103584,0.004 -0.191371,0.008 -0.254765,0.0134 -0.0317,0.002 -0.05762,0.005 -0.07441,0.008 -0.0023,3.4e-4 -0.003,0.001 -0.0052,0.002 -0.0012,0.001 -0.0019,0.002 -0.0031,0.003 -0.01059,0.0133 -0.02586,0.0343 -0.04393,0.0605 -0.0361,0.0524 -0.08418,0.12651 -0.13901,0.21446 -0.109652,0.17591 -0.247127,0.40737 -0.381889,0.64078 -0.134761,0.23341 -0.266803,0.46872 -0.364319,0.65164 -0.04876,0.0915 -0.08898,0.17045 -0.116272,0.2279 -0.01365,0.0287 -0.02428,0.0524 -0.03049,0.0682 -7.5e-4,0.002 -5.23e-4,0.003 -10e-4,0.005 5.42e-4,0.002 3.15e-4,0.003 10e-4,0.005 0.0062,0.0158 0.01684,0.0395 0.03049,0.0682 0.02729,0.0574 0.06751,0.13592 0.116272,0.22738 0.09752,0.18291 0.229558,0.41823 0.364319,0.65164 0.134762,0.23342 0.272237,0.46539 0.381889,0.6413 0.05483,0.088 0.102907,0.1621 0.13901,0.21446 0.01805,0.0262 0.03334,0.0467 0.04393,0.0599 0.0015,0.002 0.002,0.002 0.0036,0.004 0.0017,3.4e-4 0.0023,7.2e-4 0.0041,10e-4 0.0168,0.002 0.04272,0.005 0.07441,0.008 0.06339,0.005 0.151181,0.009 0.254765,0.0129 0.207168,0.007 0.476685,0.0103 0.746208,0.0103 0.269522,0 0.539555,-0.003 0.746724,-0.0103 0.103584,-0.003 0.191371,-0.008 0.254765,-0.0129 0.0317,-0.002 0.05762,-0.005 0.07441,-0.008 0.0018,-2.7e-4 0.0024,-7.2e-4 0.0041,-10e-4 0.0016,-0.002 0.0026,-0.002 0.0041,-0.004 0.01059,-0.0133 0.02586,-0.0337 0.04392,-0.0599 0.0361,-0.0524 0.08418,-0.1265 0.13901,-0.21446 0.109652,-0.17591 0.247127,-0.40788 0.381889,-0.6413 0.134761,-0.23341 0.266802,-0.46873 0.364318,-0.65164 0.04876,-0.0915 0.08898,-0.16993 0.116272,-0.22738 0.01365,-0.0287 0.02428,-0.0524 0.03049,-0.0682 7.54e-4,-0.002 5.14e-4,-0.003 10e-4,-0.005 -5.48e-4,-0.002 -3.16e-4,-0.003 -10e-4,-0.005 -0.0062,-0.0158 -0.01684,-0.0395 -0.03049,-0.0682 -0.02729,-0.0574 -0.06751,-0.13644 -0.116272,-0.2279 -0.09752,-0.18292 -0.229557,-0.41823 -0.364318,-0.65164 -0.134762,-0.23341 -0.272237,-0.46487 -0.381889,-0.64078 -0.05483,-0.0879 -0.102907,-0.1621 -0.13901,-0.21446 -0.01805,-0.0262 -0.03333,-0.0472 -0.04392,-0.0605 -0.0012,-0.001 -0.0018,-0.002 -0.0031,-0.003 -0.0021,-6.9e-4 -0.0029,-10e-4 -0.0052,-0.002 -0.0168,-0.002 -0.04272,-0.005 -0.07441,-0.008 -0.06339,-0.005 -0.151181,-0.01 -0.254765,-0.0134 -0.207034,-0.007 -0.476859,-0.0103 -0.746208,-0.0103 z m 0.0062,0.88263 0.504362,10e-4 -0.161748,0.23254 -0.463537,0.002 v 0.50281 h 0.04031 v -0.43925 c 0.173558,-0.0592 0.31941,-0.0336 0.437182,0.0765 -0.128619,-0.05 -0.250422,-0.0559 -0.365869,-0.0176 v 0.11989 c 0.07283,-0.0308 0.141621,-0.0179 0.206706,0.0388 -0.08445,-0.0258 -0.153244,0.002 -0.206706,0.0817 l -0.05788,0.14004 0.356568,0.001 c 0.110023,0.002 0.208552,-0.04 0.296106,-0.12506 l -0.146245,0.21136 -10e-4,0.73949 -0.445451,0.478 -0.31626,-0.20257 c -0.06973,-0.0334 -0.160244,-0.0175 -0.271818,0.0475 0.163486,-0.22184 0.290719,-0.3206 0.381372,-0.29559 l 0.31626,0.21291 0.06615,-0.0615 v -0.82321 h -0.409277 c -0.09375,-0.006 -0.196419,0.003 -0.307992,0.0253 0.07826,-0.0884 0.134115,-0.13412 0.167432,-0.13746 v -0.32659 c -0.03874,0.0133 -0.09744,-0.0263 -0.1757,-0.11886 0.06973,0.0284 0.128177,0.0295 0.174666,0.004 z m 0.131258,0.95809 v 0.7555 l -0.0708,0.0589 v -0.19017 c -0.06198,-0.0425 -0.123791,-0.0473 -0.185001,-0.014 0.03332,-0.0726 0.09512,-0.11035 0.185001,-0.11368 l 10e-4,-0.41652 z m 3.358451,0.15192 -1.165303,0.006 c -0.0079,0.0188 -0.01562,0.0378 -0.02687,0.0615 -0.02956,0.0622 -0.07032,0.14215 -0.119889,0.23513 -0.09914,0.18595 -0.23182,0.42245 -0.36742,0.65732 -0.1356,0.23487 -0.274549,0.46816 -0.386023,0.64699 -0.05574,0.0894 -0.104043,0.16499 -0.143143,0.22169 -0.01445,0.0209 -0.02665,0.0364 -0.03876,0.0522 l 0.578259,1.0113 c 0.304945,-0.4024 1.476215,-2.43134 1.669149,-2.89181 z m -6.98872,0.004 c 0.198138,0.4686 1.368339,2.49456 1.669665,2.89026 l 0.58291,-1.00407 c -0.01382,-0.0177 -0.02837,-0.0372 -0.04547,-0.062 -0.0391,-0.0567 -0.08741,-0.13229 -0.143144,-0.2217 -0.111474,-0.17883 -0.250424,-0.41211 -0.386023,-0.64698 -0.1356,-0.23487 -0.268283,-0.47137 -0.367419,-0.65733 -0.04957,-0.093 -0.09033,-0.17292 -0.119889,-0.23513 -0.01117,-0.0235 -0.01901,-0.0423 -0.02687,-0.061 z m 4.576981,1.97249 c -0.02025,0.002 -0.04061,0.005 -0.06666,0.007 -0.06865,0.005 -0.158762,0.01 -0.264067,0.0134 -0.210609,0.007 -0.481727,0.0109 -0.752926,0.0109 -0.2712,0 -0.541799,-0.004 -0.752409,-0.0109 -0.105305,-0.004 -0.19541,-0.008 -0.264066,-0.0134 -0.0208,-0.002 -0.03613,-0.004 -0.05323,-0.006 l -0.581876,1.00666 c 0.528329,0.0605 2.795476,0.06 3.309875,-0.001 z m 0.685746,0.9803 -0.01705,0.01 c 0.0022,-0.001 0.0088,-0.002 0.01033,-0.003 0.0015,-8.7e-4 0.0045,-0.004 0.0067,-0.007 z" />
  </g>
</svg>
