<?xml version="1.0" encoding="UTF-8" standalone="no"?>
<!-- Created with Inkscape (http://www.inkscape.org/) -->

<svg
   width="6.2030492mm"
   height="6.4538693mm"
   viewBox="0 0 6.2030492 6.4538693"
   version="1.1"
   id="svg1"
   xmlns="http://www.w3.org/2000/svg"
   xmlns:svg="http://www.w3.org/2000/svg">
  <defs
     id="defs1">
    <linearGradient
       id="swatch4">
      <stop
         style="stop-color:#000000;stop-opacity:1;"
         offset="0"
         id="stop4" />
    </linearGradient>
  </defs>
  <g
     id="layer2"
     style="stroke:#ffffff;stroke-opacity:1"
     transform="translate(-49.265778,-142.60008)">
    <path
       id="path43-16-3"
       style="fill:#000000;fill-opacity:1;stroke:none;stroke-width:0.194062;stroke-dasharray:none;stroke-opacity:1"
       d="m 52.455713,142.60008 v 1.24592 c 0.02026,0.0104 0.04162,0.0223 0.0677,0.0377 0.06087,0.036 0.139191,0.086 0.229443,0.14625 0.180503,0.1205 0.409276,0.28152 0.63562,0.44597 0.226343,0.16445 0.449741,0.33219 0.620118,0.46663 0.08519,0.0672 0.157808,0.12582 0.21084,0.1726 0.02253,0.0199 0.03949,0.0367 0.05529,0.0527 l 1.12913,-0.42116 c -0.185662,-0.29451 -1.060336,-1.49538 -1.133781,-1.54874 -0.07256,-0.0527 -1.455474,-0.50444 -1.814359,-0.5979 z m -0.193787,0.004 c -0.394463,0.1067 -1.725834,0.54272 -1.796789,0.59427 -0.07129,0.0518 -0.903703,1.19231 -1.122412,1.52859 l 1.120345,0.43874 c 0.01554,-0.0154 0.03184,-0.0313 0.05323,-0.0501 0.05303,-0.0468 0.124618,-0.10538 0.209807,-0.1726 0.170377,-0.13443 0.393773,-0.3022 0.620117,-0.46664 0.226344,-0.16445 0.455117,-0.32547 0.63562,-0.44596 0.09025,-0.0602 0.16857,-0.11026 0.229443,-0.14625 0.01946,-0.0115 0.03453,-0.0191 0.05064,-0.0279 z m 0.10542,1.38906 c -7.13e-4,2.6e-4 -0.0012,1.1e-4 -0.0021,5.1e-4 -0.01544,0.007 -0.03914,0.0206 -0.06718,0.0372 -0.05608,0.0332 -0.132421,0.0818 -0.221175,0.14108 -0.177508,0.11849 -0.405003,0.27892 -0.629936,0.44235 -0.224932,0.16342 -0.4474,0.3303 -0.61495,0.4625 -0.08377,0.0661 -0.153716,0.12331 -0.202571,0.1664 -0.02443,0.0215 -0.04393,0.0398 -0.05581,0.0522 -7.63e-4,9.1e-4 -0.0013,5.5e-4 -0.0021,0.002 7.4e-5,0.001 -2.15e-4,0.002 0,0.004 0.0023,0.017 0.0069,0.0426 0.01395,0.0744 0.0142,0.0636 0.03722,0.15101 0.06615,0.25373 0.05784,0.20544 0.140425,0.47146 0.226342,0.73588 0.08592,0.26443 0.17563,0.5279 0.249598,0.72812 0.03698,0.1001 0.06972,0.18465 0.0956,0.24443 0.01294,0.0299 0.02446,0.0536 0.03256,0.0687 5.25e-4,9.1e-4 0.0014,9.7e-4 0.0021,0.002 0.0013,3.7e-4 0.0017,0.001 0.0031,0.001 0.01688,0.003 0.04302,0.007 0.07545,0.01 0.06485,0.006 0.154853,0.0113 0.261483,0.0155 0.213258,0.008 0.49143,0.0124 0.769462,0.0124 0.278032,0 0.556204,-0.004 0.769462,-0.0124 0.106629,-0.004 0.197666,-0.009 0.262517,-0.0155 0.03243,-0.003 0.05856,-0.007 0.07545,-0.01 0.0012,-2.1e-4 0.0014,-0.001 0.0026,-0.001 5.94e-4,-9.1e-4 9.5e-4,-9.7e-4 0.0016,-0.002 0.0081,-0.0151 0.0191,-0.0389 0.03204,-0.0687 0.02588,-0.0598 0.05862,-0.14433 0.0956,-0.24443 0.07396,-0.2002 0.164714,-0.46369 0.250631,-0.72812 0.08592,-0.26442 0.167465,-0.53044 0.225309,-0.73588 0.02892,-0.10272 0.05195,-0.19016 0.06615,-0.25373 0.0071,-0.0318 0.01162,-0.0574 0.01395,-0.0744 2.16e-4,-0.001 -7.3e-5,-0.002 0,-0.004 -6.85e-4,-9.1e-4 -7.26e-4,-5.5e-4 -0.0016,-0.002 -0.01188,-0.0124 -0.03035,-0.0306 -0.05478,-0.0522 -0.04885,-0.0431 -0.119829,-0.1003 -0.203605,-0.1664 -0.167571,-0.13221 -0.390018,-0.29908 -0.61495,-0.4625 -0.224933,-0.16342 -0.452427,-0.32385 -0.629935,-0.44235 -0.08875,-0.0592 -0.165098,-0.10793 -0.221175,-0.14108 -0.02804,-0.0166 -0.05122,-0.0297 -0.06666,-0.0372 -8.88e-4,-4e-4 -0.0014,-2.6e-4 -0.0021,-5.1e-4 z m -3.040124,0.75964 c -0.01624,0.026 -0.03562,0.056 -0.03824,0.0641 -0.0016,0.005 -0.0027,0.0311 -0.0041,0.0444 z m 3.554821,0.0331 c -0.16581,0.23519 -0.330023,0.36494 -0.491959,0.38913 -0.161162,0.0233 -0.28736,-0.0126 -0.378788,-0.10852 l -0.17415,0.0786 0.276469,-0.3514 c 0.05501,0.0801 0.154057,0.12558 0.296623,0.13642 0.142566,0.01 0.299797,-0.0383 0.471805,-0.14418 z m -0.01499,0.0403 c -0.127785,0.29082 -0.229562,0.61585 -0.305407,0.97462 0.106661,0.003 0.223267,-0.0244 0.350366,-0.0816 -0.127365,0.13296 -0.252913,0.20468 -0.377238,0.21497 -0.03617,0.19112 -0.06524,0.39147 -0.08733,0.601 l 0.197404,0.0863 c 0.04959,-0.0567 0.111394,-0.0834 0.185001,-0.0801 -0.07128,0.0367 -0.167483,0.14471 -0.288354,0.32401 l -0.301274,-0.10542 c -0.108474,0.0993 -0.244241,0.12983 -0.407727,0.0915 0.16736,0.004 0.288904,-0.0613 0.364836,-0.19637 0.06156,-0.27606 0.12202,-0.51912 0.180867,-0.7307 -0.05502,-0.0124 -0.102065,-0.0348 -0.141076,-0.0677 l -0.133842,0.0465 0.21394,-0.20877 c 0.02384,0.0364 0.05842,0.0633 0.103353,0.0811 0.121791,-0.41017 0.237375,-0.67897 0.347266,-0.80667 z m -3.586861,0.0832 c -0.02181,0.37474 -0.01887,1.82281 0.0088,1.9079 0.02743,0.0844 0.865506,1.24236 1.111043,1.54409 l 0.699699,-0.88677 c -0.01038,-0.0199 -0.02109,-0.0411 -0.03307,-0.0687 -0.0281,-0.0649 -0.0611,-0.15193 -0.0987,-0.25373 -0.07521,-0.20358 -0.165726,-0.46823 -0.252181,-0.73432 -0.08646,-0.26608 -0.169073,-0.53318 -0.227893,-0.74208 -0.02941,-0.10445 -0.0528,-0.19401 -0.06821,-0.26303 -0.0053,-0.0239 -0.0085,-0.0423 -0.01188,-0.0615 z m 6.175851,0.0248 -1.130164,0.42168 c -0.0033,0.0181 -0.0059,0.0343 -0.01085,0.0563 -0.01541,0.069 -0.0388,0.1586 -0.06821,0.26304 -0.05882,0.2089 -0.140405,0.47598 -0.22686,0.74207 -0.08646,0.26608 -0.176976,0.53074 -0.25218,0.73432 -0.0376,0.10179 -0.07164,0.18885 -0.09974,0.25373 -0.01351,0.0312 -0.0257,0.0559 -0.03721,0.0775 l 0.700216,0.88263 c 0.237735,-0.29016 1.08701,-1.46364 1.11466,-1.54874 0.0269,-0.0828 0.03029,-1.46326 0.01034,-1.88257 z m -3.114539,1.05885 -0.187069,0.65835 c -0.0953,-0.0517 -0.205984,-0.0178 -0.332279,0.10232 0.06818,-0.15679 0.171367,-0.23126 0.310058,-0.22376 l 0.05013,-0.14521 c -0.07438,-0.035 -0.163342,-0.0164 -0.267168,0.0553 0.05269,-0.10258 0.154319,-0.15806 0.305408,-0.1664 l 0.07338,-0.23048 z m -1.078487,1.58905 -0.705383,0.89348 c 0.366818,0.14135 1.72116,0.57826 1.809708,0.57826 0.08784,0 1.4249,-0.43077 1.804541,-0.57567 l -0.709517,-0.89504 c -0.01568,0.002 -0.02893,0.004 -0.04754,0.006 -0.0704,0.007 -0.162356,0.0122 -0.270784,0.0165 -0.216856,0.009 -0.49692,0.0134 -0.776697,0.0134 -0.279776,0 -0.558808,-0.005 -0.775663,-0.0134 -0.108428,-0.004 -0.201421,-0.01 -0.271818,-0.0165 -0.02237,-0.002 -0.03885,-0.005 -0.05684,-0.007 z m 3.013253,0.84594 -0.01344,0.0109 c 10e-4,-4.5e-4 0.006,-0.003 0.0067,-0.003 9.06e-4,-7.6e-4 0.0046,-0.005 0.0067,-0.008 z" />
  </g>
</svg>
