<?xml version="1.0" encoding="UTF-8" standalone="no"?>
<!-- Created with Inkscape (http://www.inkscape.org/) -->

<svg
   width="6.1489787mm"
   height="6.1489787mm"
   viewBox="0 0 6.1489787 6.1489787"
   version="1.1"
   id="svg1"
   xmlns="http://www.w3.org/2000/svg"
   xmlns:svg="http://www.w3.org/2000/svg">
  <defs
     id="defs1">
    <linearGradient
       id="swatch4">
      <stop
         style="stop-color:#000000;stop-opacity:1;"
         offset="0"
         id="stop4" />
    </linearGradient>
  </defs>
  <g
     id="layer2"
     style="stroke:#ffffff;stroke-opacity:1"
     transform="translate(-49.292599,-166.17281)">
    <path
       id="path225-00-8"
       style="fill:#000000;fill-opacity:1;stroke:none;stroke-width:0.200527;stroke-dasharray:none;stroke-opacity:1"
       d="m 51.093522,166.1728 -0.01499,0.015 0.03669,-0.015 z m 0.108004,0 0.316776,0.7798 1.697054,-10e-4 0.310576,-0.77877 z m 2.434477,0 0.0078,0.003 -0.0031,-0.003 z m 0.07648,0.0718 -0.312643,0.7891 1.187525,1.18804 0.77773,-0.32452 z m -2.696477,0.006 -1.648478,1.64848 0.780314,0.32142 1.185458,-1.18494 z m 0.483175,0.90227 -1.226798,1.2268 v 1.73581 l 1.226798,1.22731 1.735295,-5.1e-4 1.226798,-1.2268 5.17e-4,-1.7353 -1.227315,-1.2268 z m -2.191081,0.80563 -0.0155,0.0155 v 0.0222 z m 6.133476,0.12558 -0.77928,0.32453 v 1.67328 l 0.77928,0.32866 z m -6.148979,0.001 v 2.32699 l 0.779281,-0.33486 v -1.6707 z m 3.589445,0.12196 c -0.16581,0.23518 -0.330023,0.36494 -0.491959,0.38912 -0.161162,0.0233 -0.28736,-0.0131 -0.378788,-0.10904 l -0.17415,0.0785 0.276469,-0.3514 c 0.05501,0.0801 0.154057,0.12559 0.296623,0.13643 0.142566,0.01 0.299797,-0.0377 0.471805,-0.14366 z m -0.01499,0.0398 c -0.127785,0.29082 -0.229562,0.61584 -0.305407,0.97462 0.106661,0.003 0.223267,-0.0239 0.350366,-0.0811 -0.127365,0.13296 -0.252913,0.20417 -0.377238,0.21446 -0.03617,0.19111 -0.06524,0.39147 -0.08733,0.601 l 0.197404,0.0863 c 0.04959,-0.0567 0.111394,-0.0834 0.185001,-0.0801 -0.07128,0.0367 -0.167483,0.1447 -0.288354,0.32401 l -0.301274,-0.1049 c -0.108474,0.0992 -0.244241,0.12931 -0.407727,0.091 0.16736,0.004 0.288904,-0.0613 0.364836,-0.19637 0.06151,-0.2758 0.121557,-0.51875 0.18035,-0.73019 -0.05483,-0.0124 -0.101655,-0.0349 -0.140559,-0.0677 l -0.133842,0.046 0.21394,-0.20877 c 0.02384,0.0364 0.05842,0.0633 0.103353,0.0811 0.121743,-0.40991 0.237415,-0.67901 0.347266,-0.80667 z m -0.525549,1.16737 -0.187069,0.65784 c -0.0953,-0.0517 -0.205984,-0.0173 -0.332279,0.10284 0.06818,-0.15679 0.171367,-0.23179 0.310058,-0.22428 l 0.05013,-0.14521 c -0.07438,-0.035 -0.163342,-0.0164 -0.267168,0.0553 0.05269,-0.10258 0.154319,-0.15806 0.305408,-0.1664 l 0.07338,-0.22996 z m -2.201416,0.85266 -0.769979,0.33176 1.650029,1.65003 0.318326,-0.78393 z m 4.450374,0.003 -1.203544,1.20354 0.330213,0.77205 1.648478,-1.64848 z m -5.297868,0.23254 v 0.0186 l 0.01395,0.0139 z m 2.230872,1.03973 -0.316776,0.7798 h 2.326473 l -0.336414,-0.77928 z m -0.44235,0.7674 0.0124,0.0124 h 0.01757 z" />
  </g>
</svg>
