<?xml version="1.0" encoding="UTF-8" standalone="no"?>
<!-- Created with Inkscape (http://www.inkscape.org/) -->

<svg
   width="5.670455mm"
   height="5.9009318mm"
   viewBox="0 0 5.670455 5.9009318"
   version="1.1"
   id="svg1"
   xmlns="http://www.w3.org/2000/svg"
   xmlns:svg="http://www.w3.org/2000/svg">
  <defs
     id="defs1">
    <linearGradient
       id="swatch4">
      <stop
         style="stop-color:#000000;stop-opacity:1;"
         offset="0"
         id="stop4" />
    </linearGradient>
  </defs>
  <g
     id="layer2"
     style="stroke:#ffffff;stroke-opacity:1"
     transform="translate(-49.473983,-195.62786)">
    <path
       id="path237-317-04-6"
       style="fill:#000000;fill-opacity:1;stroke:none;stroke-width:0.200527;stroke-dasharray:none;stroke-opacity:1"
       d="m 52.308952,195.62785 c -0.127651,0 -1.630989,0.48825 -1.734261,0.56328 -0.103272,0.075 -1.032323,1.35396 -1.071769,1.47536 -0.01828,0.0563 -0.02761,0.4279 -0.02894,0.82062 0.0077,-0.005 0.01437,-0.009 0.02274,-0.0139 0.07448,-0.0438 0.177027,-0.097 0.299724,-0.1571 0.245394,-0.12015 0.572008,-0.26755 0.907955,-0.41134 0.335947,-0.14379 0.680484,-0.28357 0.961181,-0.38861 0.140348,-0.0525 0.264064,-0.0963 0.366386,-0.12816 0.05116,-0.0159 0.0965,-0.0286 0.139527,-0.0388 0.04303,-0.0101 0.0759,-0.0207 0.151411,-0.0207 0.07551,0 0.108384,0.0105 0.151412,0.0207 0.04303,0.0101 0.08837,0.0228 0.139527,0.0388 0.102323,0.0319 0.226037,0.0756 0.366386,0.12816 0.280696,0.10504 0.625751,0.24482 0.961698,0.38861 0.335948,0.14379 0.662562,0.29119 0.907955,0.41134 0.120239,0.0589 0.220469,0.11072 0.294556,0.154 -0.0016,-0.38625 -0.01092,-0.74812 -0.02894,-0.80357 -0.03945,-0.1214 -0.969014,-1.40033 -1.072286,-1.47536 -0.103272,-0.075 -1.60661,-0.56328 -1.734261,-0.56328 z m 0.01395,1.83555 c -0.0016,3.3e-4 -0.0019,1.2e-4 -0.0036,5.2e-4 -0.02466,0.006 -0.06222,0.016 -0.10697,0.03 -0.045,0.014 -0.09772,0.0317 -0.156063,0.0522 0.05514,0.0795 0.1541,0.12459 0.296106,0.13539 0.113688,0.008 0.236559,-0.0216 0.36897,-0.0873 -0.111193,-0.0409 -0.211821,-0.0765 -0.287838,-0.10025 -0.04475,-0.0139 -0.08231,-0.0242 -0.10697,-0.03 -0.0017,-4e-4 -0.002,-1.9e-4 -0.0036,-5.2e-4 z m -0.2682,0.0832 c -0.05731,0.0202 -0.11986,0.043 -0.187069,0.0682 -0.272592,0.102 -0.614527,0.24073 -0.946712,0.38292 -0.332185,0.14218 -0.655693,0.28795 -0.894002,0.40463 -0.119154,0.0583 -0.217007,0.10948 -0.282154,0.14779 -0.03257,0.0191 -0.05671,0.0354 -0.07028,0.046 -9.88e-4,7.7e-4 -7.89e-4,8.7e-4 -0.0016,0.002 8.11e-4,7.4e-4 6.13e-4,8.5e-4 0.0016,0.002 0.01357,0.0106 0.03771,0.0268 0.07028,0.046 0.06515,0.0383 0.163,0.0894 0.282154,0.1478 0.238309,0.11667 0.561817,0.26244 0.894002,0.40462 0.332185,0.14219 0.67412,0.28092 0.946712,0.38293 0.01022,0.004 0.01841,0.007 0.02842,0.0103 0.106098,-0.0238 0.187263,-0.0856 0.243396,-0.18552 0.06156,-0.27606 0.122021,-0.51912 0.180868,-0.7307 -0.05503,-0.0124 -0.102065,-0.0343 -0.141077,-0.0672 l -0.133842,0.046 0.21394,-0.20877 c 0.02384,0.0364 0.05842,0.0633 0.103353,0.0811 0.121791,-0.41017 0.237375,-0.67897 0.347266,-0.80667 l 0.07235,-0.10387 c -0.0011,-4.1e-4 -0.0025,-0.001 -0.0036,-0.002 -0.0034,-0.001 -0.006,-0.002 -0.0093,-0.004 -0.147105,0.18845 -0.293143,0.29372 -0.437183,0.31523 -0.161161,0.0233 -0.28736,-0.0126 -0.378788,-0.10852 l -0.17415,0.0785 z m 0.736389,0.0729 c -0.119349,0.28006 -0.215086,0.59107 -0.287321,0.93276 0.106662,0.003 0.223267,-0.0244 0.350366,-0.0816 -0.127364,0.13296 -0.252912,0.20468 -0.377238,0.21498 -0.03617,0.19111 -0.06524,0.39146 -0.08733,0.60099 l 0.197404,0.0863 c 0.04959,-0.0567 0.111394,-0.0834 0.185002,-0.0801 -0.07128,0.0367 -0.167484,0.14471 -0.288355,0.32402 l -0.301273,-0.10542 c -0.06441,0.0589 -0.138409,0.0935 -0.222209,0.10387 0.09609,0.035 0.184514,0.0662 0.252181,0.0873 0.04475,0.0139 0.08231,0.0242 0.10697,0.03 0.0017,4e-4 0.002,1.9e-4 0.0036,5.2e-4 0.0016,-3.3e-4 0.0019,-1.2e-4 0.0036,-5.2e-4 0.02466,-0.006 0.06222,-0.016 0.10697,-0.03 0.0895,-0.0279 0.208902,-0.0699 0.345199,-0.12092 0.272592,-0.10201 0.61401,-0.24074 0.946195,-0.38293 0.332185,-0.14218 0.656211,-0.28795 0.894519,-0.40462 0.119155,-0.0583 0.217005,-0.1095 0.282153,-0.1478 0.03257,-0.0192 0.05671,-0.0354 0.07028,-0.046 9.87e-4,-7.7e-4 7.89e-4,-8.8e-4 0.0016,-0.002 -8.12e-4,-7.4e-4 -6.15e-4,-8.4e-4 -0.0016,-0.002 -0.01357,-0.0106 -0.03771,-0.0268 -0.07028,-0.046 -0.06515,-0.0383 -0.162998,-0.0895 -0.282153,-0.14779 -0.238308,-0.11668 -0.562334,-0.26245 -0.894519,-0.40463 -0.327638,-0.14024 -0.663088,-0.27668 -0.933793,-0.37827 z m -3.31711,1.08882 c 0.0018,0.37797 0.01126,0.72746 0.02894,0.78187 0.03945,0.12141 0.968498,1.40033 1.071769,1.47536 0.103272,0.075 1.60661,0.56327 1.734261,0.56327 0.12765,0 1.630989,-0.48824 1.734261,-0.56327 0.103271,-0.075 1.03284,-1.35395 1.072286,-1.47536 0.01741,-0.0536 0.02638,-0.39354 0.02842,-0.76481 -0.07406,0.0433 -0.173985,0.0952 -0.294039,0.15399 -0.245394,0.12014 -0.572008,0.26756 -0.907955,0.41135 -0.335948,0.1438 -0.681001,0.28357 -0.961698,0.3886 -0.140348,0.0525 -0.264063,0.0963 -0.366386,0.12816 -0.05116,0.0159 -0.0965,0.0291 -0.139527,0.0393 -0.04303,0.0101 -0.0759,0.0202 -0.151412,0.0202 -0.07551,0 -0.108383,-0.01 -0.151411,-0.0202 -0.04303,-0.0101 -0.08836,-0.0233 -0.139527,-0.0393 -0.102323,-0.0319 -0.226038,-0.0756 -0.366386,-0.12816 -0.280697,-0.10503 -0.625234,-0.2448 -0.961181,-0.3886 -0.335947,-0.14379 -0.662561,-0.29121 -0.907955,-0.41135 -0.122697,-0.0601 -0.225241,-0.11329 -0.299724,-0.15709 -0.0084,-0.005 -0.01505,-0.009 -0.02274,-0.014 z m 2.809647,0.0362 -0.187068,0.65836 c -0.0953,-0.0517 -0.205985,-0.0178 -0.33228,0.10232 0.06818,-0.15679 0.171367,-0.23127 0.310059,-0.22376 l 0.05013,-0.14521 c -0.07438,-0.035 -0.163342,-0.0164 -0.267167,0.0553 0.05269,-0.10258 0.154319,-0.15806 0.305408,-0.1664 l 0.07338,-0.23048 z" />
  </g>
</svg>
