<?xml version="1.0" encoding="UTF-8" standalone="no"?>
<!-- Created with Inkscape (http://www.inkscape.org/) -->

<svg
   width="7.2042117mm"
   height="6.3448324mm"
   viewBox="0 0 7.2042117 6.3448324"
   version="1.1"
   id="svg1"
   xmlns="http://www.w3.org/2000/svg"
   xmlns:svg="http://www.w3.org/2000/svg">
  <defs
     id="defs1">
    <linearGradient
       id="swatch4">
      <stop
         style="stop-color:#000000;stop-opacity:1;"
         offset="0"
         id="stop4" />
    </linearGradient>
  </defs>
  <g
     id="layer2"
     style="stroke:#ffffff;stroke-opacity:1"
     transform="translate(-10.054167,-158.48542)">
    <path
       id="path34-81-8-39-8"
       style="fill:#000000;fill-opacity:1;stroke:none;stroke-width:0.200326;stroke-dasharray:none;stroke-opacity:1"
       d="m 13.588835,158.48542 c -0.534491,0.28392 -3.534668,2.96693 -3.534668,3.18171 0,0.0765 0.383541,0.46819 0.897619,0.95085 z m 0.133842,0 2.635498,4.13463 c 0.515202,-0.48363 0.900203,-0.87636 0.900203,-0.95292 0,-0.2149 -3.003634,-2.90028 -3.535701,-3.18171 z m -0.06666,0.26613 -2.459281,3.85816 2.463415,1.11053 2.450497,-1.11569 z m -0.253215,1.80144 c 0.04339,0.10175 0.113472,0.1681 0.210324,0.19895 0.09685,0.03 0.23236,-0.0315 0.406693,-0.185 -0.123195,0.2502 -0.242929,0.38899 -0.359151,0.41652 -0.115448,0.0275 -0.228716,-0.0302 -0.339514,-0.17364 l -0.136943,0.0713 z m 0.642339,0.0202 v 0.90589 l -0.580844,0.5178 v 0.41031 l 0.533301,-0.001 c 0.07283,-0.17347 0.181187,-0.28809 0.324528,-0.34313 -0.14644,0.0901 -0.250398,0.28099 -0.311609,0.57205 l -0.74259,-0.003 c -0.133268,0.008 -0.24214,-0.0163 -0.326595,-0.0713 0.150314,0.004 0.244963,-0.0364 0.283704,-0.12144 v -0.38396 l 0.594795,-0.53433 v -0.60565 c 0.07438,-0.05 0.149378,-0.16414 0.22531,-0.34262 z m -0.252181,0.35916 -0.001,0.5643 c -0.116222,-0.0592 -0.230008,-0.0629 -0.341581,-0.0103 0.03874,-0.0934 0.130804,-0.13101 0.276469,-0.11266 v -0.14107 c -0.0891,-0.0409 -0.173668,-0.0291 -0.254248,0.0351 0.01782,-0.0984 0.102384,-0.14668 0.254248,-0.14418 v -0.14521 z m 2.367297,1.87172 -2.404504,1.09347 v 0.93276 c 0.361988,-0.21531 1.517408,-1.20608 2.404504,-2.02623 z m -4.996078,0.0103 c 0.883852,0.81645 2.028021,1.79843 2.390552,2.01538 v -0.93637 z" />
  </g>
</svg>
