<?xml version="1.0" encoding="UTF-8" standalone="no"?>
<!-- Created with Inkscape (http://www.inkscape.org/) -->

<svg
   width="7.2042117mm"
   height="6.3448324mm"
   viewBox="0 0 7.2042117 6.3448324"
   version="1.1"
   id="svg1"
   xmlns="http://www.w3.org/2000/svg"
   xmlns:svg="http://www.w3.org/2000/svg">
  <defs
     id="defs1">
    <linearGradient
       id="swatch4">
      <stop
         style="stop-color:#000000;stop-opacity:1;"
         offset="0"
         id="stop4" />
    </linearGradient>
  </defs>
  <g
     id="layer2"
     style="stroke:#ffffff;stroke-opacity:1"
     transform="translate(-17.85059,-158.43529)">
    <path
       id="path34-81-8-39-6"
       style="fill:#000000;fill-opacity:1;stroke:none;stroke-width:0.200326;stroke-dasharray:none;stroke-opacity:1"
       d="m 21.385258,158.43529 c -0.534491,0.28392 -3.534668,2.96694 -3.534668,3.18172 0,0.0765 0.383542,0.46818 0.89762,0.95084 z m 0.133842,0 2.635498,4.13463 c 0.515202,-0.48363 0.900203,-0.87635 0.900203,-0.95291 0,-0.2149 -3.003634,-2.90029 -3.535701,-3.18172 z m -0.06666,0.26613 -2.459281,3.85817 2.463415,1.11052 2.450497,-1.11569 z m -0.28422,1.86139 c 0.01705,0.10175 0.0729,0.16312 0.167432,0.18397 0.09453,0.0208 0.176763,0.002 0.246496,-0.0574 -0.07748,0.20349 -0.172906,0.30967 -0.286804,0.31884 -0.113898,0.009 -0.20415,-0.0424 -0.270785,-0.15503 l -0.125573,0.0749 z m 0.417546,0.13643 0.241845,0.20928 c 0.05036,0.0259 0.115014,0.0242 0.19482,-0.004 -0.08755,0.0675 -0.153239,0.10312 -0.197404,0.10645 v 0.3514 l -0.442867,0.154 0.441834,0.154 v 0.73277 c 0.109249,0.003 0.21088,0.0745 0.305408,0.2129 -0.04416,-0.0575 -0.149158,-0.0861 -0.315743,-0.0853 l -0.227893,-0.20981 v -0.64802 l -0.360185,-0.14263 0.360185,-0.16898 z m -0.03514,0.99322 -0.001,0.5643 c -0.116222,-0.0592 -0.230008,-0.0624 -0.341581,-0.01 0.03874,-0.0934 0.130804,-0.131 0.276469,-0.11265 v -0.14159 c -0.0891,-0.0409 -0.173668,-0.0291 -0.254248,0.0351 0.01782,-0.0984 0.102384,-0.14617 0.254248,-0.14366 v -0.14522 z m -0.387057,0.52296 c 0.02557,0.10175 0.0791,0.16312 0.15968,0.18397 0.08058,0.0208 0.172385,0.002 0.275436,-0.0574 -0.09685,0.18681 -0.204948,0.28893 -0.323495,0.30644 -0.117772,0.0175 -0.226644,-0.03 -0.326595,-0.14263 l -0.173116,0.0625 z m 2.793111,0.53847 -2.404504,1.09347 v 0.93276 c 0.361988,-0.21531 1.517408,-1.20608 2.404504,-2.02623 z m -4.996077,0.0103 c 0.883852,0.81645 2.028021,1.79843 2.390552,2.01538 v -0.93638 z" />
  </g>
</svg>
