<?xml version="1.0" encoding="UTF-8" standalone="no"?>
<!-- Created with Inkscape (http://www.inkscape.org/) -->

<svg
   width="6.2024484mm"
   height="6.2023263mm"
   viewBox="0 0 6.2024484 6.2023263"
   version="1.1"
   id="svg1"
   xmlns="http://www.w3.org/2000/svg"
   xmlns:svg="http://www.w3.org/2000/svg">
  <defs
     id="defs1">
    <linearGradient
       id="swatch4">
      <stop
         style="stop-color:#000000;stop-opacity:1;"
         offset="0"
         id="stop4" />
    </linearGradient>
  </defs>
  <g
     id="layer2"
     style="stroke:#ffffff;stroke-opacity:1"
     transform="translate(-33.774564,-113.25563)">
    <path
       id="path200"
       style="display:inline;fill:#000000;fill-opacity:1;stroke:none;stroke-width:1.00307;stroke-dasharray:none;stroke-opacity:1"
       d="m 18.215702,30.549797 c -7.105349,0 -14.2107988,0.259817 -14.7316373,0.780655 -1.0416769,1.041677 -1.0416768,28.421597 0,29.463274 1.0416769,1.041677 28.4215973,1.041677 29.4632743,0 1.041677,-1.041677 1.041677,-28.421597 0,-29.463274 -0.520838,-0.520838 -7.626288,-0.780655 -14.731637,-0.780655 z m -0.147342,10.401844 2.522912,0.0078 -0.80909,1.163228 -2.318701,0.0052 v 2.517743 h 0.201626 v -2.197209 c 0.868172,-0.296193 1.597752,-0.168096 2.186869,0.382573 -0.643377,-0.250304 -1.252656,-0.279788 -1.830145,-0.08789 v 0.599708 c 0.364322,-0.154354 0.708416,-0.08981 1.03398,0.193872 -0.422459,-0.129324 -0.766553,0.0054 -1.03398,0.405837 l -0.289515,0.703107 1.783616,0.0052 c 0.550359,0.0083 1.043216,-0.200042 1.481177,-0.625558 l -0.731541,1.057245 -0.0052,3.699065 -2.228228,2.388495 -1.58199,-1.013301 c -0.348819,-0.166869 -0.801574,-0.08758 -1.359684,0.237815 0.817787,-1.10968 1.454229,-1.601159 1.907694,-1.476007 l 1.58199,1.065 0.330874,-0.307609 v -4.117827 h -2.047282 c -0.468968,-0.0292 -0.98252,0.01144 -1.540631,0.124077 0.391453,-0.442203 0.670867,-0.67091 0.837525,-0.687597 v -1.633689 c -0.193789,0.06675 -0.487431,-0.131476 -0.878884,-0.594539 0.348819,0.141839 0.641168,0.150004 0.873714,0.02068 z m 0.656577,4.795084 v 3.779199 l -0.354138,0.294684 v -0.951262 c -0.310061,-0.212758 -0.619227,-0.236663 -0.925413,-0.06979 0.166658,-0.362941 0.475824,-0.552003 0.925413,-0.56869 l 0.0052,-2.08347 z"
       transform="matrix(0.1999126,0,0,0.1999126,33.234237,107.14833)" />
  </g>
</svg>
