<?xml version="1.0" encoding="UTF-8" standalone="no"?>
<!-- Created with Inkscape (http://www.inkscape.org/) -->

<svg
   width="5.7152038mm"
   height="6.4037595mm"
   viewBox="0 0 5.7152038 6.4037595"
   version="1.1"
   id="svg1"
   xmlns="http://www.w3.org/2000/svg"
   xmlns:svg="http://www.w3.org/2000/svg">
  <defs
     id="defs1">
    <linearGradient
       id="swatch4">
      <stop
         style="stop-color:#000000;stop-opacity:1;"
         offset="0"
         id="stop4" />
    </linearGradient>
  </defs>
  <g
     id="layer2"
     style="stroke:#ffffff;stroke-opacity:1"
     transform="translate(-57.291445,-173.65554)">
    <path
       id="path63-83-61"
       style="fill:#000000;fill-opacity:1;stroke:none;stroke-width:0.174705;stroke-dasharray:none;stroke-opacity:1"
       d="m 60.148994,173.65555 c -0.139393,0 -2.055394,1.09551 -2.630847,1.48621 0.04375,-0.01 0.09191,-0.0191 0.149862,-0.0274 0.160719,-0.0229 0.377134,-0.0414 0.633036,-0.0563 0.511803,-0.0298 1.179747,-0.0439 1.847949,-0.0439 0.668203,0 1.336663,0.0141 1.848466,0.0439 0.255901,0.0149 0.471801,0.0333 0.63252,0.0563 0.0582,0.008 0.106504,0.0179 0.150378,0.0279 -0.574861,-0.3904 -2.491932,-1.48673 -2.631364,-1.48673 z m 0,1.56631 c -0.66512,0 -1.330264,0.0145 -1.835547,0.0439 -0.252641,0.0147 -0.465807,0.0338 -0.615983,0.0553 -0.07509,0.0107 -0.134384,0.0219 -0.172082,0.0326 -0.0029,8.2e-4 -0.0031,0.001 -0.0057,0.002 6.7e-4,0.003 -3.12e-4,0.003 5.17e-4,0.007 0.0096,0.038 0.02962,0.095 0.05788,0.16536 0.05651,0.14078 0.14635,0.33454 0.259932,0.56069 0.227165,0.4523 0.548007,1.0363 0.880567,1.61231 0.33256,0.57601 0.677379,1.14446 0.955497,1.56734 0.139059,0.21144 0.261351,0.38659 0.355017,0.50592 0.04683,0.0597 0.0866,0.10603 0.114722,0.13332 0.0022,0.002 0.0031,0.002 0.0052,0.004 0.0021,-0.002 0.0026,-0.002 0.0047,-0.004 0.02812,-0.0273 0.06892,-0.0737 0.115755,-0.13332 0.09367,-0.11933 0.215959,-0.29448 0.355018,-0.50592 0.278117,-0.42288 0.623453,-0.99133 0.956014,-1.56734 0.33256,-0.57601 0.651851,-1.16001 0.879016,-1.61231 0.113582,-0.22615 0.204973,-0.41991 0.261482,-0.56069 0.02826,-0.0704 0.04778,-0.12735 0.05736,-0.16536 8.63e-4,-0.003 3.82e-4,-0.004 10e-4,-0.007 -0.0026,-8.2e-4 -0.0033,-0.001 -0.0062,-0.002 -0.0377,-0.0107 -0.09699,-0.0219 -0.172083,-0.0326 -0.150176,-0.0215 -0.363341,-0.0406 -0.615983,-0.0553 -0.505283,-0.0294 -1.170944,-0.0439 -1.836064,-0.0439 z m -2.823083,0.21601 c -0.05363,0.65086 -0.04456,2.93953 0.02636,3.06235 0.07146,0.12378 2.077521,1.29182 2.650484,1.55907 -0.0011,-0.001 -0.002,-0.002 -0.0031,-0.003 -0.03992,-0.0387 -0.08372,-0.0891 -0.133841,-0.15296 -0.100242,-0.12771 -0.225016,-0.30621 -0.36587,-0.52038 -0.281706,-0.42833 -0.628114,-0.99901 -0.962215,-1.57769 -0.334101,-0.57868 -0.655121,-1.16451 -0.885217,-1.62264 -0.115048,-0.22906 -0.207207,-0.42656 -0.267684,-0.57722 -0.02609,-0.065 -0.04516,-0.1192 -0.05891,-0.16795 z m 5.646167,0.002 c -0.01374,0.0484 -0.03206,0.10208 -0.05788,0.1664 -0.06048,0.15067 -0.153153,0.34815 -0.2682,0.57722 -0.230097,0.45813 -0.5506,1.04395 -0.884701,1.62264 -0.334101,0.57867 -0.681025,1.14935 -0.962732,1.57769 -0.140853,0.21416 -0.265109,0.39267 -0.365352,0.52038 -0.05012,0.0639 -0.09444,0.11421 -0.134359,0.15296 -9.04e-4,8.2e-4 -0.0017,0.002 -0.0026,0.002 0.574471,-0.26826 2.57855,-1.43486 2.649968,-1.55856 0.07084,-0.1227 0.0793,-2.40746 0.02584,-3.0608 z m -2.591056,0.32194 c 0.03148,-0.002 0.06267,0.003 0.09405,0.0134 -0.04633,-0.0131 -0.120132,0.0199 -0.220659,0.0977 0.02129,0.0481 0.06473,0.0925 0.132292,0.13281 0.09453,0.0559 0.205985,0.047 0.33383,-0.0264 l -0.138493,0.14883 v 0.30386 l -0.220658,0.22272 v -0.40772 c -0.06366,-0.0101 -0.128667,-0.038 -0.194304,-0.0837 v 0.57206 l 0.104903,0.0558 0.310059,-0.30799 -0.0057,0.11782 -0.22996,0.23771 c 0.07283,0.0325 0.135156,0.0543 0.187069,0.0651 0.05269,0.0109 0.115011,-0.006 0.187069,-0.0491 l -0.138493,0.14935 v 0.37878 l -0.243913,0.23513 v -0.60771 l -0.171049,-0.0822 v 0.60978 l -0.0708,0.0589 v -0.70279 l -0.08113,-0.0393 -0.0016,0.76223 0.258382,0.11265 0.310059,-0.30799 -0.0057,0.11782 -0.413928,0.41497 -0.397392,-0.19017 c -0.03874,-0.0167 -0.0946,-0.0176 -0.167431,-0.003 0.07051,-0.055 0.123004,-0.084 0.157096,-0.0873 v -0.65164 c -0.03952,0.0133 -0.09848,-0.0141 -0.176733,-0.0816 0.06973,0.0284 0.12766,0.03 0.174149,0.004 l 0.165365,-0.14677 c -0.116997,-0.006 -0.204147,0.003 -0.261483,0.0253 0.07051,-0.055 0.122229,-0.0845 0.155546,-0.0879 v -0.47646 c -0.03874,0.0133 -0.09744,-0.0136 -0.1757,-0.0811 0.06973,0.0284 0.128178,0.0295 0.174667,0.004 l 0.32091,-0.2744 c 0.08342,-0.0923 0.166852,-0.14093 0.249598,-0.14573 z m -0.344165,0.28888 v 0.61546 l 0.05943,0.0315 v -0.59066 c -0.01976,-0.0174 -0.03949,-0.0358 -0.05943,-0.0563 z" />
  </g>
</svg>
