<?xml version="1.0" encoding="UTF-8" standalone="no"?>
<!-- Created with Inkscape (http://www.inkscape.org/) -->

<svg
   width="6.1489787mm"
   height="6.1494951mm"
   viewBox="0 0 6.1489787 6.1494951"
   version="1.1"
   id="svg1"
   xmlns="http://www.w3.org/2000/svg"
   xmlns:svg="http://www.w3.org/2000/svg">
  <defs
     id="defs1">
    <linearGradient
       id="swatch4">
      <stop
         style="stop-color:#000000;stop-opacity:1;"
         offset="0"
         id="stop4" />
    </linearGradient>
  </defs>
  <g
     id="layer2"
     style="stroke:#ffffff;stroke-opacity:1"
     transform="translate(-41.690995,-166.14643)">
    <path
       id="path225-00-06"
       style="fill:#000000;fill-opacity:1;stroke:none;stroke-width:0.200527;stroke-dasharray:none;stroke-opacity:1"
       d="m 43.491919,166.14645 -0.01499,0.015 0.03669,-0.015 z m 0.108004,0 0.316776,0.7798 1.697054,-0.001 0.310576,-0.77876 z m 2.434476,0 0.0078,0.003 -0.0031,-0.003 z m 0.07648,0.0718 -0.312643,0.7891 1.187525,1.18804 0.77773,-0.32453 z m -2.696477,0.006 -1.648478,1.64848 0.780314,0.32142 1.185458,-1.18494 z m 0.483175,0.90175 -1.226799,1.22732 v 1.73529 l 1.226799,1.22783 1.735295,-0.001 1.226798,-1.2268 5.17e-4,-1.73529 -1.227315,-1.2268 z m -2.191081,0.80616 -0.0155,0.0155 v 0.0222 z m 6.133476,0.12557 -0.779281,0.32453 v 1.67276 l 0.779281,0.32918 z m -6.148979,0.001 v 2.32699 l 0.779281,-0.33486 v -1.6707 z m 3.133142,0.12351 c 0.01085,0.0817 0.05481,0.13263 0.132292,0.15348 0.07748,0.0208 0.155063,0.002 0.232544,-0.0574 -0.0984,0.19682 -0.194602,0.29782 -0.288355,0.30282 -0.09375,0.004 -0.174695,-0.0362 -0.242879,-0.1204 l -0.0801,0.0879 v 1.2361 l 0.322977,0.19998 0.04754,-0.0661 v -0.82217 c -0.05656,-0.0117 -0.100524,-0.0486 -0.132292,-0.11111 l -0.225309,0.31884 10e-4,-0.11627 0.378789,-0.49299 c 0.01782,0.10175 0.07394,0.16312 0.168465,0.18397 0.09453,0.0208 0.179349,0.002 0.253731,-0.0574 -0.08291,0.17013 -0.157124,0.26747 -0.222209,0.29249 l -0.001,0.66817 -0.357084,0.47801 -0.462504,-0.31574 c -0.05114,-0.0334 -0.121478,-0.0338 -0.211357,-0.002 0.08755,-0.0717 0.154274,-0.10526 0.199988,-0.10025 v -1.01441 c -0.04417,-0.003 -0.110367,-0.0389 -0.197921,-0.10646 0.07981,0.0284 0.144974,0.0295 0.195337,0.004 z m 0.01137,0.88677 0.06511,0.0589 v 0.75396 l -0.06511,0.0589 z m -2.297017,1.1715 -0.769979,0.33176 1.650028,1.65003 0.318327,-0.78393 z m 4.450374,0.003 -1.203544,1.20355 0.330212,0.77204 1.648479,-1.64848 z m -5.297868,0.23255 v 0.0186 l 0.01395,0.0139 z m 2.230872,1.03973 -0.316777,0.77979 h 2.326473 l -0.336413,-0.77928 z m -0.44235,0.76739 0.0124,0.0124 h 0.01757 z" />
  </g>
</svg>
