<?xml version="1.0" encoding="UTF-8" standalone="no"?>
<!-- Created with Inkscape (http://www.inkscape.org/) -->

<svg
   width="7.2042117mm"
   height="6.3448324mm"
   viewBox="0 0 7.2042117 6.3448324"
   version="1.1"
   id="svg1"
   xmlns="http://www.w3.org/2000/svg"
   xmlns:svg="http://www.w3.org/2000/svg">
  <defs
     id="defs1">
    <linearGradient
       id="swatch4">
      <stop
         style="stop-color:#000000;stop-opacity:1;"
         offset="0"
         id="stop4" />
    </linearGradient>
  </defs>
  <g
     id="layer2"
     style="stroke:#ffffff;stroke-opacity:1"
     transform="translate(-25.423256,-158.4327)">
    <path
       id="path34-81-8-39-1"
       style="fill:#000000;fill-opacity:1;stroke:none;stroke-width:0.200326;stroke-dasharray:none;stroke-opacity:1"
       d="m 28.957922,158.43271 c -0.534491,0.28392 -3.534668,2.96693 -3.534668,3.18171 0,0.0764 0.383542,0.46819 0.89762,0.95085 z m 0.133842,0 2.635498,4.13463 c 0.515202,-0.48363 0.900204,-0.87636 0.900204,-0.95292 0,-0.2149 -3.003635,-2.90028 -3.535702,-3.18171 z m -0.06666,0.26613 -2.459282,3.85816 2.463416,1.11053 2.450496,-1.11569 z m 0.153479,1.86707 c 0.02014,0.10175 0.08221,0.16312 0.186035,0.18397 0.1046,0.0208 0.19718,0.002 0.278536,-0.0574 -0.09143,0.17013 -0.200559,0.25751 -0.327629,0.26251 -0.126295,0.005 -0.228185,-0.0278 -0.306441,-0.0987 l -0.137459,0.0625 z m 0.235644,0.40049 v 1.06454 l 0.221175,0.001 v 0.0816 l -0.221175,-0.003 v 0.16019 l 0.09198,0.0713 c 0.03487,-0.055 0.09435,-0.0816 0.178801,-0.0791 -0.05811,0.0292 -0.148364,0.156 -0.270785,0.38034 l -0.19637,-0.14625 c -0.07438,0.0742 -0.172652,0.12158 -0.295073,0.1416 0.101501,-0.0642 0.17753,-0.1455 0.227893,-0.24391 v -0.26304 H 28.59412 v -0.0951 l 0.556555,0.002 v -1.06454 c 0.08833,0.0317 0.175996,0.0289 0.26355,-0.008 z m -0.278536,0.0124 c -0.106924,0.04 -0.210883,0.34598 -0.311609,0.91726 -0.14334,0.12927 -0.296175,0.16392 -0.458886,0.10387 0.118546,0.0275 0.248107,-0.13688 0.389123,-0.49299 0.141017,-0.35611 0.268249,-0.53231 0.381372,-0.52814 z m 2.393653,1.77251 -2.404505,1.09347 v 0.93276 c 0.361988,-0.21531 1.517409,-1.20608 2.404505,-2.02623 z m -4.996078,0.0103 c 0.883852,0.81645 2.028021,1.79843 2.390552,2.01538 v -0.93637 z" />
  </g>
</svg>
