<?xml version="1.0" encoding="UTF-8" standalone="no"?>
<!-- Created with Inkscape (http://www.inkscape.org/) -->

<svg
   width="5.670455mm"
   height="5.9009318mm"
   viewBox="0 0 5.670455 5.9009318"
   version="1.1"
   id="svg1"
   xmlns="http://www.w3.org/2000/svg"
   xmlns:svg="http://www.w3.org/2000/svg">
  <defs
     id="defs1">
    <linearGradient
       id="swatch4">
      <stop
         style="stop-color:#000000;stop-opacity:1;"
         offset="0"
         id="stop4" />
    </linearGradient>
  </defs>
  <g
     id="layer2"
     style="stroke:#ffffff;stroke-opacity:1"
     transform="translate(-18.563724,-202.26258)">
    <path
       id="path237-317-04-3"
       style="fill:#000000;fill-opacity:1;stroke:none;stroke-width:0.200527;stroke-dasharray:none;stroke-opacity:1"
       d="m 21.398694,202.26259 c -0.127651,0 -1.630989,0.48824 -1.734261,0.56327 -0.103272,0.075 -1.032323,1.35396 -1.071769,1.47536 -0.01828,0.0563 -0.02761,0.42791 -0.02894,0.82063 0.0077,-0.005 0.01437,-0.009 0.02274,-0.014 0.07448,-0.0438 0.177027,-0.097 0.299724,-0.15709 0.245394,-0.12015 0.572008,-0.26756 0.907955,-0.41135 0.262536,-0.11237 0.5217,-0.21725 0.76016,-0.31006 l 0.03617,-0.0543 c 0.0051,0.0118 0.01076,0.0227 0.01654,0.0336 0.04826,-0.0186 0.103065,-0.0409 0.148311,-0.0579 0.140348,-0.0525 0.264064,-0.0963 0.366386,-0.12816 0.05116,-0.0159 0.0965,-0.0286 0.139527,-0.0388 0.04303,-0.0101 0.0759,-0.0207 0.151411,-0.0207 0.07551,0 0.108384,0.0105 0.151412,0.0207 0.04303,0.0101 0.08836,0.0228 0.139527,0.0388 0.102323,0.0319 0.226037,0.0756 0.366386,0.12816 0.280696,0.10504 0.625751,0.24481 0.961698,0.3886 0.335948,0.14379 0.662562,0.2912 0.907955,0.41135 0.120239,0.0589 0.220469,0.11071 0.294556,0.15399 -0.0016,-0.38625 -0.01092,-0.74812 -0.02894,-0.80357 -0.03945,-0.1214 -0.969014,-1.40033 -1.072286,-1.47536 -0.103272,-0.075 -1.60661,-0.56327 -1.734261,-0.56327 z m 0.01395,1.83555 c -0.0016,3.3e-4 -0.0019,1.1e-4 -0.0036,5.1e-4 -0.02466,0.006 -0.06222,0.016 -0.10697,0.03 -0.0895,0.0279 -0.208386,0.0699 -0.344682,0.12092 -0.06965,0.0261 -0.153097,0.0601 -0.230477,0.0904 0.02274,0.014 0.04705,0.0256 0.0739,0.0341 0.09685,0.03 0.232876,-0.0321 0.40721,-0.18552 -0.123196,0.25019 -0.242929,0.38899 -0.359151,0.41651 -0.115448,0.0275 -0.228716,-0.0302 -0.339515,-0.17363 l -0.136942,0.0713 0.01912,-0.0289 c -0.126056,0.0517 -0.253189,0.104 -0.380855,0.15865 -0.332185,0.14218 -0.655693,0.28795 -0.894002,0.40463 -0.119154,0.0583 -0.217007,0.10948 -0.282154,0.14779 -0.03257,0.0191 -0.05671,0.0354 -0.07028,0.046 -9.88e-4,7.7e-4 -6.89e-4,8.8e-4 -0.0016,0.002 8.11e-4,7.4e-4 5.13e-4,8.5e-4 0.0016,0.002 0.01357,0.0106 0.03771,0.0268 0.07028,0.046 0.06515,0.0383 0.163,0.0894 0.282154,0.14779 0.238309,0.11667 0.561817,0.26245 0.894002,0.40463 0.134775,0.0577 0.26934,0.11362 0.402043,0.16795 v -0.32401 l 0.595312,-0.53434 v -0.60513 c 0.07438,-0.05 0.149377,-0.16466 0.225309,-0.34313 v 0.90589 l -0.580843,0.5178 v 0.41031 l 0.533301,-0.001 c 0.07283,-0.17346 0.18067,-0.28757 0.324011,-0.34261 -0.14644,0.0901 -0.249882,0.28048 -0.311092,0.57154 l -0.131775,-5.2e-4 c 0.0892,0.0323 0.171402,0.0613 0.235128,0.0811 0.04475,0.0139 0.08231,0.0242 0.10697,0.03 0.0017,4e-4 0.002,1.9e-4 0.0036,5.2e-4 0.0016,-3.3e-4 0.0019,-1.2e-4 0.0036,-5.2e-4 0.02466,-0.006 0.06222,-0.016 0.10697,-0.03 0.06337,-0.0198 0.145366,-0.0485 0.234094,-0.0806 -0.09599,-0.003 -0.185694,-0.0511 -0.269234,-0.14521 l -0.173116,0.0625 0.38809,-0.35295 c 0.02557,0.10174 0.07858,0.16312 0.159163,0.18397 0.08058,0.0208 0.172385,0.002 0.275436,-0.0574 -0.0523,0.10087 -0.107772,0.17689 -0.166398,0.22841 0.09487,-0.0363 0.192529,-0.074 0.297656,-0.11628 l -0.144177,-0.13332 v -0.64802 l -0.360185,-0.14263 0.360185,-0.16898 v -0.6165 c -0.0078,-0.003 -0.01505,-0.006 -0.02274,-0.009 -0.07396,0.17291 -0.162897,0.26441 -0.267684,0.27285 -0.113898,0.009 -0.20415,-0.0424 -0.270784,-0.15503 l -0.125574,0.0749 0.256832,-0.34727 c -0.06418,-0.0227 -0.122948,-0.0427 -0.171566,-0.0579 -0.04475,-0.0139 -0.08231,-0.0242 -0.10697,-0.03 -0.0017,-4e-4 -0.002,-1.8e-4 -0.0036,-5.1e-4 z m 0.300757,0.0956 c 0.02166,0.0867 0.07532,0.13958 0.161748,0.15864 0.07291,0.0161 0.138208,0.008 0.19637,-0.0233 -0.06752,-0.0263 -0.141669,-0.0566 -0.203088,-0.0796 -0.05553,-0.0208 -0.105987,-0.0384 -0.15503,-0.0558 z m 0.506946,0.19378 0.146244,0.12661 c 0.04539,0.0233 0.102771,0.0243 0.172083,0.004 -0.109703,-0.0456 -0.214199,-0.0886 -0.318327,-0.13023 z m 0.326595,0.13333 c -0.07976,0.0598 -0.141452,0.0925 -0.182934,0.0956 v 0.35192 l -0.442867,0.15348 0.441833,0.15399 v 0.73329 c 0.0081,2.5e-4 0.01624,0.002 0.02429,0.003 0.14041,-0.0573 0.28413,-0.11697 0.427364,-0.17828 0.332185,-0.14218 0.656211,-0.28796 0.894519,-0.40463 0.119155,-0.0583 0.217005,-0.10949 0.282153,-0.14779 0.03257,-0.0192 0.05671,-0.0354 0.07028,-0.046 9.87e-4,-7.7e-4 6.89e-4,-8.8e-4 0.0016,-0.002 -8.12e-4,-7.4e-4 -5.15e-4,-8.5e-4 -0.0016,-0.002 -0.01357,-0.0106 -0.0377,-0.0268 -0.07028,-0.046 -0.06515,-0.0383 -0.162998,-0.0895 -0.282153,-0.14779 -0.238308,-0.11668 -0.562334,-0.26245 -0.894519,-0.40463 -0.08974,-0.0384 -0.178131,-0.0744 -0.267684,-0.11162 z m -1.565796,0.0331 -10e-4,0.56431 c -0.116222,-0.0592 -0.230008,-0.0624 -0.341581,-0.01 0.03874,-0.0934 0.130803,-0.131 0.276468,-0.11265 v -0.1416 c -0.0891,-0.0409 -0.174184,-0.0291 -0.254764,0.0351 0.01782,-0.0984 0.102901,-0.14616 0.254764,-0.14366 v -0.14521 z m 1.108977,0.74466 -0.0016,0.56379 c -0.116222,-0.0592 -0.230008,-0.0624 -0.341581,-0.01 0.03874,-0.0934 0.130804,-0.131 0.276469,-0.11265 v -0.14108 c -0.0891,-0.0409 -0.173667,-0.0296 -0.254248,0.0346 0.01782,-0.0984 0.102384,-0.14616 0.254248,-0.14366 v -0.14521 z m -3.5264,0.0444 c 0.0018,0.37797 0.01126,0.72746 0.02894,0.78187 0.03945,0.12141 0.968498,1.40033 1.071769,1.47536 0.103272,0.075 1.60661,0.56327 1.734261,0.56327 0.127651,0 1.630989,-0.48824 1.734261,-0.56327 0.103271,-0.075 1.03284,-1.35395 1.072286,-1.47536 0.01741,-0.0536 0.02638,-0.39355 0.02842,-0.76482 -0.07406,0.0433 -0.173985,0.0952 -0.294039,0.154 -0.245394,0.12014 -0.572008,0.26756 -0.907955,0.41135 -0.15151,0.0649 -0.304209,0.1277 -0.452685,0.1881 0.03061,0.0299 0.06071,0.0652 0.08992,0.108 -0.02931,-0.0382 -0.08629,-0.063 -0.169499,-0.0754 -0.151628,0.0611 -0.298383,0.11892 -0.429431,0.16795 -0.140348,0.0525 -0.264063,0.0963 -0.366386,0.12816 -0.05116,0.0159 -0.0965,0.0291 -0.139527,0.0393 -0.04303,0.0101 -0.0759,0.0202 -0.151412,0.0202 -0.07551,0 -0.108383,-0.01 -0.151411,-0.0202 -0.04303,-0.0101 -0.08836,-0.0233 -0.139527,-0.0393 -0.102323,-0.0319 -0.226038,-0.0756 -0.366386,-0.12816 -0.04636,-0.0173 -0.102407,-0.0403 -0.151928,-0.0594 l -0.147795,-5.1e-4 c -0.133268,0.008 -0.24214,-0.0163 -0.326595,-0.0713 0.08414,0.002 0.150291,-0.01 0.199471,-0.0357 -0.173836,-0.07 -0.354283,-0.14463 -0.534334,-0.22169 -0.335947,-0.14379 -0.662561,-0.29121 -0.907955,-0.41135 -0.122697,-0.0601 -0.225241,-0.1133 -0.299724,-0.1571 -0.0084,-0.005 -0.01505,-0.009 -0.02274,-0.0139 z" />
  </g>
</svg>
