<?xml version="1.0" encoding="UTF-8" standalone="no"?>
<!-- Created with Inkscape (http://www.inkscape.org/) -->

<svg
   width="7.2042117mm"
   height="6.3448324mm"
   viewBox="0 0 7.2042117 6.3448324"
   version="1.1"
   id="svg1"
   xmlns="http://www.w3.org/2000/svg"
   xmlns:svg="http://www.w3.org/2000/svg">
  <defs
     id="defs1">
    <linearGradient
       id="swatch4">
      <stop
         style="stop-color:#000000;stop-opacity:1;"
         offset="0"
         id="stop4" />
    </linearGradient>
  </defs>
  <g
     id="layer2"
     style="stroke:#ffffff;stroke-opacity:1"
     transform="translate(-56.546938,-158.42133)">
    <path
       id="path34-81-8-39-2-2"
       style="fill:#000000;fill-opacity:1;stroke:none;stroke-width:0.200326;stroke-dasharray:none;stroke-opacity:1"
       d="m 60.081604,158.42134 c -0.534491,0.28392 -3.534668,2.96694 -3.534668,3.18172 0,0.0765 0.383542,0.46818 0.89762,0.95084 z m 0.133842,0 2.635498,4.13463 c 0.515202,-0.48363 0.900203,-0.87635 0.900203,-0.95291 0,-0.2149 -3.003634,-2.90029 -3.535701,-3.18172 z m -0.06666,0.26613 -2.459281,3.85816 2.463415,1.11053 2.450497,-1.11569 z m 0.232028,1.81023 c 0.03148,-0.002 0.06267,0.003 0.09405,0.0134 -0.04633,-0.0131 -0.120132,0.0199 -0.220659,0.0977 0.02129,0.0481 0.06473,0.0925 0.132292,0.13281 0.09453,0.0559 0.205985,0.047 0.33383,-0.0264 l -0.138493,0.14883 v 0.30386 l -0.220658,0.22273 v -0.40773 c -0.06366,-0.0101 -0.128667,-0.038 -0.194304,-0.0837 v 0.57206 l 0.104903,0.0558 0.310059,-0.30799 -0.0057,0.11782 -0.22996,0.23771 c 0.07283,0.0325 0.135156,0.0543 0.187069,0.0651 0.05269,0.0108 0.115011,-0.006 0.187069,-0.0491 l -0.138493,0.14883 v 0.37931 l -0.243913,0.23512 v -0.60771 l -0.171049,-0.0822 v 0.60979 l -0.0708,0.0589 v -0.7028 l -0.08113,-0.0393 -0.0016,0.76223 0.258382,0.11214 0.310059,-0.30748 -0.0057,0.11783 -0.413928,0.41496 -0.397392,-0.19017 c -0.03874,-0.0167 -0.0946,-0.0176 -0.167431,-0.003 0.07051,-0.055 0.123004,-0.084 0.157096,-0.0873 v -0.65164 c -0.03952,0.0134 -0.09848,-0.0141 -0.176733,-0.0816 0.06973,0.0284 0.12766,0.03 0.174149,0.004 l 0.165365,-0.14676 c -0.116997,-0.006 -0.204147,0.003 -0.261483,0.0253 0.07051,-0.055 0.122229,-0.0845 0.155546,-0.0879 v -0.47646 c -0.03874,0.0133 -0.09744,-0.0136 -0.1757,-0.0811 0.06973,0.0283 0.128178,0.0295 0.174667,0.004 l 0.32091,-0.27441 c 0.08342,-0.0923 0.166852,-0.14093 0.249598,-0.14572 z m -0.344165,0.28887 v 0.61546 l 0.05943,0.0315 v -0.59066 c -0.01976,-0.0174 -0.03949,-0.0358 -0.05943,-0.0563 z m 2.616377,1.95337 -2.404504,1.09347 v 0.93276 c 0.361988,-0.21531 1.517408,-1.20608 2.404504,-2.02623 z m -4.996077,0.0103 c 0.883852,0.81645 2.028021,1.79843 2.390552,2.01538 v -0.93637 z" />
  </g>
</svg>
