<?xml version="1.0" encoding="UTF-8" standalone="no"?>
<!-- Created with Inkscape (http://www.inkscape.org/) -->

<svg
   width="7.2042117mm"
   height="6.3448324mm"
   viewBox="0 0 7.2042117 6.3448324"
   version="1.1"
   id="svg1"
   xmlns="http://www.w3.org/2000/svg"
   xmlns:svg="http://www.w3.org/2000/svg">
  <defs
     id="defs1">
    <linearGradient
       id="swatch4">
      <stop
         style="stop-color:#000000;stop-opacity:1;"
         offset="0"
         id="stop4" />
    </linearGradient>
  </defs>
  <g
     id="layer2"
     style="stroke:#ffffff;stroke-opacity:1"
     transform="translate(-87.668551,-158.42754)">
    <path
       id="path34-81-8-39-2-20"
       style="fill:#000000;fill-opacity:1;stroke:none;stroke-width:0.200326;stroke-dasharray:none;stroke-opacity:1"
       d="m 91.203219,158.42754 c -0.534491,0.28392 -3.534668,2.96694 -3.534668,3.18172 0,0.0765 0.383541,0.46818 0.897619,0.95084 z m 0.133842,0 2.635498,4.13463 c 0.515202,-0.48363 0.900203,-0.87635 0.900203,-0.95291 0,-0.2149 -3.003634,-2.90029 -3.535701,-3.18172 z m -0.06666,0.26613 -2.459281,3.85817 2.463415,1.11052 2.450496,-1.11569 z m 0.165365,1.86035 c 0.04339,0.10175 0.113471,0.1681 0.210323,0.19896 0.09685,0.03 0.23236,-0.0316 0.406693,-0.185 -0.123195,0.25019 -0.242929,0.38899 -0.359151,0.41651 -0.115447,0.0275 -0.228199,-0.0302 -0.338997,-0.17363 l -0.13746,0.0713 z m -0.869198,0.0202 c 0.0016,0.13093 0.08327,0.20135 0.24598,0.21135 l -0.110071,0.14625 -0.001,1.38389 0.197404,0.0863 c 0.04959,-0.0567 0.111395,-0.0834 0.185002,-0.0801 -0.07128,0.0367 -0.167483,0.14471 -0.288354,0.32402 l -0.27802,-0.10491 c -0.03564,0.0551 -0.117102,0.0851 -0.244946,0.091 0.09608,-0.0459 0.163314,-0.1113 0.202055,-0.19637 l 10e-4,-1.49861 c -0.04106,-0.007 -0.07261,-0.0255 -0.09508,-0.0563 l -0.194304,0.0703 z m 1.512052,0 v 0.90589 l -0.58136,0.51779 v 0.41031 l 0.533301,-0.002 c 0.07283,-0.17346 0.181188,-0.28757 0.324528,-0.34261 -0.14644,0.0901 -0.250398,0.28048 -0.311609,0.57154 l -0.74259,-0.002 c -0.133268,0.008 -0.24214,-0.0163 -0.326595,-0.0713 0.150314,0.004 0.244963,-0.0364 0.283704,-0.12144 v -0.38396 l 0.594795,-0.53433 v -0.60565 c 0.07438,-0.05 0.149895,-0.16414 0.225826,-0.34261 z m -1.25522,0.27647 v 1.34255 l -0.06511,0.0584 v -1.30949 z m 1.003039,0.0827 -0.0015,0.56431 c -0.116222,-0.0592 -0.230008,-0.0629 -0.341581,-0.0103 0.03874,-0.0934 0.130804,-0.131 0.276469,-0.11265 v -0.14108 c -0.0891,-0.0409 -0.173668,-0.0291 -0.254248,0.0351 0.01782,-0.0984 0.102384,-0.14668 0.254248,-0.14418 v -0.14521 z m 1.948202,1.81281 -2.404505,1.09347 v 0.93276 c 0.361988,-0.21531 1.517409,-1.20608 2.404505,-2.02623 z m -4.996078,0.0103 c 0.883852,0.81645 2.028021,1.79843 2.390552,2.01538 v -0.93637 z" />
  </g>
</svg>
