<?xml version="1.0" encoding="UTF-8" standalone="no"?>
<!-- Created with Inkscape (http://www.inkscape.org/) -->

<svg
   width="5.628593mm"
   height="6.2502718mm"
   viewBox="0 0 5.628593 6.2502718"
   version="1.1"
   id="svg1"
   xmlns="http://www.w3.org/2000/svg"
   xmlns:svg="http://www.w3.org/2000/svg">
  <defs
     id="defs1">
    <linearGradient
       id="swatch4">
      <stop
         style="stop-color:#000000;stop-opacity:1;"
         offset="0"
         id="stop4" />
    </linearGradient>
  </defs>
  <g
     id="layer2"
     style="stroke:#ffffff;stroke-opacity:1"
     transform="translate(-34.027187,-120.4839)">
    <g
       id="g5">
      <path
         id="path223"
         style="fill:#000000;fill-opacity:1;stroke:none;stroke-width:0.200527;stroke-dasharray:none;stroke-opacity:1"
         d="m 36.841679,120.49497 c -0.0028,0.003 -0.0031,0.003 -0.0062,0.006 -0.02798,0.0271 -0.06783,0.0727 -0.114205,0.13177 -0.09276,0.11817 -0.214315,0.29204 -0.351917,0.50126 -0.275204,0.41845 -0.616637,0.9809 -0.945678,1.55081 -0.32904,0.56992 -0.645446,1.14718 -0.870232,1.59474 -0.112392,0.22378 -0.202422,0.41559 -0.258382,0.555 -0.02798,0.0697 -0.04732,0.12704 -0.05684,0.16485 -10e-4,0.004 -2.89e-4,0.005 -10e-4,0.008 0.0036,10e-4 0.0042,0.002 0.0083,0.003 0.0375,0.0106 0.09669,0.023 0.171049,0.0336 0.148715,0.0213 0.35927,0.0391 0.609265,0.0537 0.49999,0.0291 1.158347,0.0439 1.816427,0.0439 0.65808,0 1.316954,-0.0148 1.816943,-0.0439 0.249995,-0.0146 0.46055,-0.0324 0.609265,-0.0537 0.07436,-0.0106 0.133028,-0.0229 0.170532,-0.0336 0.0042,-0.001 0.0052,-0.002 0.0088,-0.003 -7.89e-4,-0.004 -4.57e-4,-0.004 -0.0016,-0.008 -0.0095,-0.0378 -0.02938,-0.0951 -0.05736,-0.16485 -0.05596,-0.13941 -0.145473,-0.33122 -0.257865,-0.555 -0.224786,-0.44756 -0.54119,-1.02482 -0.870231,-1.59474 -0.32904,-0.56991 -0.670992,-1.13236 -0.946196,-1.55081 -0.137602,-0.20922 -0.258644,-0.38309 -0.3514,-0.50126 -0.04638,-0.0591 -0.08623,-0.10462 -0.114204,-0.13177 -0.0031,-0.003 -0.0039,-0.003 -0.0067,-0.006 z m 0.0047,2.12235 0.504362,0.002 -0.161748,0.23255 -0.463537,0.002 v 0.50281 h 0.04031 v -0.43925 c 0.173558,-0.0592 0.31941,-0.0336 0.437182,0.0765 -0.128619,-0.05 -0.250422,-0.0559 -0.365869,-0.0176 v 0.11989 c 0.07283,-0.0309 0.141621,-0.0179 0.206706,0.0388 -0.08445,-0.0259 -0.153244,0.002 -0.206706,0.0816 l -0.05788,0.14005 0.356568,0.001 c 0.110023,0.002 0.208552,-0.04 0.296106,-0.12506 l -0.146245,0.21136 -0.001,0.73949 -0.445451,0.47801 -0.31626,-0.20309 c -0.06973,-0.0334 -0.160244,-0.0175 -0.271818,0.0475 0.163486,-0.22184 0.290719,-0.32009 0.381372,-0.29507 l 0.31626,0.21291 0.06615,-0.0615 v -0.8232 h -0.409277 c -0.09375,-0.006 -0.196419,0.003 -0.307992,0.0253 0.07826,-0.0884 0.134115,-0.13464 0.167432,-0.13798 v -0.32659 c -0.03874,0.0133 -0.09744,-0.0263 -0.1757,-0.11886 0.06973,0.0284 0.128177,0.03 0.174666,0.004 z m 0.131258,0.9586 v 0.75551 l -0.0708,0.0589 v -0.19017 c -0.06198,-0.0425 -0.123791,-0.0473 -0.185001,-0.0139 0.03332,-0.0726 0.09512,-0.11035 0.185001,-0.11369 l 10e-4,-0.41651 z" />
      <path
         id="path218-0-0"
         style="fill:#000000;fill-opacity:1;stroke:none;stroke-width:0.200527;stroke-dasharray:none;stroke-opacity:1"
         d="m 39.62623,124.90431 c 0.0476,-0.7134 0.03775,-2.82464 -0.02997,-2.94194 -0.06656,-0.11529 -1.825067,-1.14247 -2.494938,-1.47743 0.0066,0.008 0.01226,0.015 0.01912,0.0238 0.09909,0.12624 0.221888,0.30233 0.361218,0.51419 0.278661,0.4237 0.621872,0.98866 0.952397,1.56114 0.330524,0.57249 0.648307,1.15189 0.875916,1.60507 0.113804,0.22659 0.204802,0.42158 0.264583,0.57051 0.02211,0.0551 0.03849,0.10164 0.05168,0.14469 z" />
      <path
         id="path217-20-0"
         style="fill:#000000;fill-opacity:1;stroke:none;stroke-width:0.200527;stroke-dasharray:none;stroke-opacity:1"
         d="m 34.121657,125.17768 c 0.303425,0.25318 2.568941,1.5565 2.71973,1.5565 0.150613,0 2.411546,-1.30063 2.719214,-1.55598 -0.02096,0.01 -0.04275,0.0179 -0.06718,0.0248 -0.05274,0.015 -0.117452,0.0274 -0.196887,0.0388 -0.15887,0.0227 -0.373184,0.0411 -0.626319,0.0558 -0.506269,0.0295 -1.167263,0.0439 -1.828312,0.0439 -0.661049,0 -1.321526,-0.0145 -1.827795,-0.0439 -0.253135,-0.0147 -0.467449,-0.0331 -0.626319,-0.0558 -0.07944,-0.0113 -0.144668,-0.0238 -0.197404,-0.0388 -0.02514,-0.007 -0.04722,-0.0148 -0.06873,-0.0253 z" />
      <path
         id="path216-89-72"
         style="fill:#000000;fill-opacity:1;stroke:none;stroke-width:0.200527;stroke-dasharray:none;stroke-opacity:1"
         d="m 36.584556,120.48391 c -0.667836,0.33354 -2.431388,1.36302 -2.498039,1.47846 -0.06782,0.11747 -0.0773,2.23525 -0.02946,2.94556 0.01328,-0.0439 0.02948,-0.0917 0.05219,-0.14831 0.05978,-0.14893 0.15078,-0.34392 0.264584,-0.57051 0.227608,-0.45318 0.545391,-1.03258 0.875915,-1.60507 0.330525,-0.57248 0.673736,-1.13744 0.952397,-1.56114 0.13933,-0.21186 0.262646,-0.38795 0.361735,-0.51419 0.0073,-0.009 0.01368,-0.0161 0.02067,-0.0248 z" />
    </g>
  </g>
</svg>
