<?xml version="1.0" encoding="UTF-8" standalone="no"?>
<!-- Created with Inkscape (http://www.inkscape.org/) -->

<svg
   width="6.9887209mm"
   height="6.2358432mm"
   viewBox="0 0 6.9887209 6.2358432"
   version="1.1"
   id="svg1"
   xmlns="http://www.w3.org/2000/svg"
   xmlns:svg="http://www.w3.org/2000/svg">
  <defs
     id="defs1">
    <linearGradient
       id="swatch4">
      <stop
         style="stop-color:#000000;stop-opacity:1;"
         offset="0"
         id="stop4" />
    </linearGradient>
  </defs>
  <g
     id="layer2"
     style="stroke:#ffffff;stroke-opacity:1"
     transform="translate(-2.414323,-150.45335)">
    <path
       id="path94-48"
       style="fill:#000000;fill-opacity:1;stroke:none;stroke-width:0.192506;stroke-dasharray:none;stroke-opacity:1"
       d="m 5.9076497,150.45335 c -0.7035732,0 -1.4004473,0.0158 -1.6582967,0.0465 l 0.5555217,1.00872 c 0.024002,-0.004 0.052572,-0.006 0.0863,-0.009 0.068656,-0.006 0.1587616,-0.0104 0.2640666,-0.0139 0.21061,-0.007 0.4812094,-0.0109 0.7524088,-0.0109 0.2711994,0 0.5423161,0.004 0.7529257,0.0109 0.1053048,0.004 0.1954112,0.008 0.2640665,0.0139 0.034328,0.003 0.063596,0.005 0.08785,0.009 l 0.5756754,-1.00666 c -0.240758,-0.0323 -0.9588267,-0.0486 -1.6805176,-0.0486 z m -1.8262451,0.13901 c -0.3039347,0.40168 -1.4588017,2.40169 -1.6639811,2.88044 l 1.1616862,0.002 c 0.00768,-0.0183 0.015111,-0.0363 0.025838,-0.0589 0.029556,-0.0622 0.070321,-0.14216 0.1198893,-0.23513 0.099136,-0.18596 0.2318198,-0.42245 0.3674195,-0.65732 0.1355997,-0.23486 0.2745491,-0.46765 0.3860229,-0.64648 0.055737,-0.0894 0.1040443,-0.16499 0.1431437,-0.22169 0.00908,-0.0132 0.016144,-0.0219 0.024288,-0.0331 z m 3.6659261,0.0176 -0.5772257,1.01234 c 0.00814,0.0112 0.015211,0.0199 0.024288,0.0331 0.0391,0.0567 0.087407,0.13228 0.1431437,0.22169 0.1114737,0.17883 0.2504232,0.41162 0.386023,0.64648 0.1355997,0.23487 0.2682831,0.47136 0.3674194,0.65732 0.049568,0.093 0.090333,0.17291 0.1198893,0.23513 0.010648,0.0224 0.018196,0.0402 0.025838,0.0584 l 1.1591024,-0.007 C 9.188106,152.98669 8.0684605,151.04703 7.7473307,150.60993 Z m -1.839681,1.05781 c -0.2695226,0 -0.5390393,0.003 -0.7462076,0.0103 -0.1035842,0.004 -0.191371,0.008 -0.2547649,0.0134 -0.031697,0.003 -0.057616,0.005 -0.074414,0.008 -0.00227,3.4e-4 -0.00304,0.001 -0.00517,0.002 -0.00123,0.001 -0.00195,0.002 -0.0031,0.003 -0.01059,0.0133 -0.025874,0.0343 -0.043925,0.0605 -0.036103,0.0523 -0.084183,0.1265 -0.1390096,0.21445 -0.1096522,0.17591 -0.2471276,0.40738 -0.3818889,0.64079 -0.1347612,0.23341 -0.2668027,0.46872 -0.3643188,0.65164 -0.048758,0.0915 -0.088981,0.17045 -0.116272,0.22789 -0.013645,0.0287 -0.024281,0.0524 -0.030489,0.0682 -7.514e-4,0.002 -4.947e-4,0.003 -0.00103,0.005 5.423e-4,0.002 2.856e-4,0.003 0.00103,0.005 0.00621,0.0158 0.016844,0.0395 0.030489,0.0682 0.027291,0.0575 0.067514,0.13592 0.116272,0.22738 0.097516,0.18291 0.2295575,0.41821 0.3643188,0.65163 0.1347613,0.23341 0.2722367,0.4654 0.3818889,0.64131 0.054826,0.088 0.1029067,0.1621 0.1390096,0.21446 0.018051,0.0262 0.033335,0.0466 0.043925,0.0599 0.00154,0.002 0.0025,0.002 0.00413,0.004 0.00172,4.1e-4 0.00234,7.9e-4 0.00413,0.001 0.016798,0.003 0.042717,0.005 0.074414,0.008 0.063394,0.005 0.1511807,0.009 0.2547649,0.0129 0.2071683,0.007 0.476685,0.0103 0.7462076,0.0103 0.2695226,0 0.5395558,-0.003 0.7467245,-0.0103 0.1035841,-0.003 0.1913712,-0.008 0.2547648,-0.0129 0.031697,-0.003 0.057616,-0.005 0.074414,-0.008 0.00179,-2.6e-4 0.00242,-6.5e-4 0.00413,-0.001 0.00165,-0.002 0.00259,-0.002 0.00413,-0.004 0.01059,-0.0133 0.025874,-0.0337 0.043925,-0.0599 0.036103,-0.0524 0.084184,-0.1265 0.1390096,-0.21446 0.1096522,-0.17591 0.2471277,-0.4079 0.3818888,-0.64131 0.1347615,-0.23342 0.2668029,-0.46872 0.3643188,-0.65163 0.048758,-0.0915 0.088981,-0.16993 0.116272,-0.22738 0.013647,-0.0287 0.024282,-0.0524 0.030489,-0.0682 7.523e-4,-0.002 4.943e-4,-0.003 0.00103,-0.005 -5.422e-4,-0.002 -2.856e-4,-0.003 -0.00103,-0.005 -0.00621,-0.0158 -0.016843,-0.0395 -0.030489,-0.0682 -0.027291,-0.0574 -0.067514,-0.13643 -0.116272,-0.22789 -0.097516,-0.18292 -0.2295573,-0.41823 -0.3643188,-0.65164 -0.1347611,-0.23341 -0.2722366,-0.46488 -0.3818888,-0.64079 -0.054826,-0.088 -0.1029067,-0.1621 -0.1390096,-0.21445 -0.018051,-0.0262 -0.033334,-0.0472 -0.043925,-0.0605 -0.00115,-10e-4 -0.00186,-0.002 -0.0031,-0.003 -0.00212,-5.3e-4 -0.0029,-0.001 -0.00517,-0.002 -0.016798,-0.003 -0.042717,-0.005 -0.074414,-0.008 -0.063394,-0.005 -0.1511807,-0.01 -0.2547648,-0.0134 -0.2071687,-0.007 -0.4772019,-0.0103 -0.7467245,-0.0103 z m -0.067179,0.86765 c 0.00155,0.13094 0.083269,0.20135 0.2459798,0.21136 l -0.1100708,0.14676 -0.00155,1.38338 0.1979207,0.0863 c 0.049588,-0.0567 0.1108775,-0.0834 0.1844849,-0.0801 -0.071283,0.0367 -0.1669666,0.1447 -0.2878377,0.32401 l -0.2780192,-0.1049 c -0.035642,0.055 -0.1171019,0.0851 -0.2449463,0.091 0.096077,-0.0459 0.1633141,-0.11131 0.2020548,-0.19637 l 0.00103,-1.49862 c -0.041065,-0.007 -0.072615,-0.0255 -0.095085,-0.0563 l -0.1943034,0.0703 z m 0.2568318,0.27647 v 1.34255 l -0.065112,0.0584 v -1.30948 z m 3.3057414,0.84853 -1.1653035,0.006 c -0.00789,0.0188 -0.015621,0.0378 -0.026872,0.0615 -0.029556,0.0622 -0.070321,0.14215 -0.1198893,0.23513 -0.099136,0.18595 -0.2318197,0.42246 -0.3674194,0.65732 -0.1355998,0.23487 -0.2745493,0.46816 -0.386023,0.64699 -0.055737,0.0894 -0.1040441,0.16498 -0.1431437,0.22169 -0.014449,0.0209 -0.026654,0.0364 -0.038757,0.0522 l 0.5782593,1.01131 c 0.3049446,-0.40241 1.4762145,-2.43134 1.6691487,-2.89181 z m -6.9887207,0.004 c 0.1981377,0.4686 1.3683392,2.49456 1.6696655,2.89026 l 0.5829102,-1.00407 c -0.013823,-0.0177 -0.028383,-0.0367 -0.045475,-0.0615 -0.039099,-0.0567 -0.087407,-0.13279 -0.1431437,-0.22221 -0.1114738,-0.17883 -0.2504232,-0.41212 -0.3860229,-0.64699 -0.1355998,-0.23486 -0.2682833,-0.47085 -0.3674195,-0.6568 -0.049568,-0.093 -0.090333,-0.17292 -0.1198893,-0.23513 -0.011172,-0.0235 -0.019011,-0.0428 -0.026872,-0.0615 z m 4.5769816,1.97248 c -0.020246,0.003 -0.040606,0.005 -0.066663,0.007 -0.068655,0.005 -0.1587617,0.01 -0.2640665,0.0134 -0.2106096,0.007 -0.4817263,0.0109 -0.7529257,0.0109 -0.2711994,0 -0.5417988,-0.004 -0.7524088,-0.0109 -0.105305,-0.004 -0.1954111,-0.008 -0.2640666,-0.0134 -0.020801,-0.002 -0.036131,-0.004 -0.053227,-0.006 l -0.5818766,1.00666 c 0.5283291,0.0604 2.7954766,0.06 3.3098755,-0.001 z m 0.6857463,0.98031 -0.017053,0.01 c 0.0022,-8.9e-4 0.00877,-0.002 0.010335,-0.003 0.00145,-8.3e-4 0.00456,-0.005 0.00672,-0.007 z" />
  </g>
</svg>
