<?xml version="1.0" encoding="UTF-8" standalone="no"?>
<!-- Created with Inkscape (http://www.inkscape.org/) -->

<svg
   width="5.670455mm"
   height="5.9009318mm"
   viewBox="0 0 5.670455 5.9009318"
   version="1.1"
   id="svg1"
   xmlns="http://www.w3.org/2000/svg"
   xmlns:svg="http://www.w3.org/2000/svg">
  <defs
     id="defs1">
    <linearGradient
       id="swatch4">
      <stop
         style="stop-color:#000000;stop-opacity:1;"
         offset="0"
         id="stop4" />
    </linearGradient>
  </defs>
  <g
     id="layer2"
     style="stroke:#ffffff;stroke-opacity:1"
     transform="translate(-26.123987,-202.20264)">
    <path
       id="path237-317-04-4"
       style="fill:#000000;fill-opacity:1;stroke:none;stroke-width:0.200527;stroke-dasharray:none;stroke-opacity:1"
       d="m 28.958956,202.20264 c -0.127651,0 -1.630989,0.48825 -1.734261,0.56328 -0.103272,0.075 -1.032323,1.35396 -1.071769,1.47536 -0.01828,0.0563 -0.02761,0.4279 -0.02894,0.82062 0.0077,-0.005 0.01437,-0.009 0.02274,-0.014 0.07448,-0.0438 0.177027,-0.097 0.299724,-0.1571 0.245394,-0.12015 0.572008,-0.26755 0.907955,-0.41134 0.269489,-0.11535 0.536123,-0.22297 0.77928,-0.31729 l 0.03566,-0.0537 c 0.005,0.0116 0.01036,0.0229 0.01602,0.0336 0.04212,-0.0162 0.09046,-0.0363 0.130224,-0.0512 0.140348,-0.0525 0.264064,-0.0963 0.366386,-0.12816 0.05116,-0.0159 0.0965,-0.0285 0.139527,-0.0387 0.04303,-0.0101 0.0759,-0.0207 0.151412,-0.0207 0.07551,0 0.108383,0.0105 0.151411,0.0207 0.04303,0.0101 0.08836,0.0228 0.139527,0.0387 0.102323,0.0319 0.226037,0.0756 0.366386,0.12816 0.02242,0.008 0.05018,0.0201 0.07338,0.0289 0.12831,0.0488 0.263444,0.10097 0.408244,0.15968 0.01935,-0.009 0.03814,-0.0198 0.05633,-0.0331 -0.0087,0.0162 -0.01786,0.0308 -0.02687,0.0455 0.147879,0.0602 0.299759,0.12302 0.450618,0.18759 0.335948,0.14379 0.662562,0.29119 0.907955,0.41134 0.12024,0.0589 0.220469,0.11072 0.294556,0.154 -0.0016,-0.38625 -0.01092,-0.74812 -0.02894,-0.80357 -0.03945,-0.1214 -0.969014,-1.40033 -1.072286,-1.47536 -0.103272,-0.075 -1.60661,-0.56328 -1.734261,-0.56328 z m 0.01395,1.83555 c -0.0016,3.3e-4 -0.0019,1.2e-4 -0.0036,5.2e-4 -0.02466,0.006 -0.06222,0.016 -0.10697,0.03 -0.0895,0.0279 -0.208386,0.0699 -0.344682,0.12092 -0.0643,0.0241 -0.141926,0.0555 -0.212907,0.0832 0.02298,0.0143 0.04774,0.026 0.07493,0.0346 0.09685,0.03 0.23236,-0.0316 0.406694,-0.18501 -0.123196,0.2502 -0.242929,0.38899 -0.359152,0.41652 -0.115447,0.0275 -0.228198,-0.0302 -0.338997,-0.17364 l -0.137459,0.0713 0.02015,-0.0305 c -0.132028,0.0541 -0.265926,0.10902 -0.399976,0.1664 -0.332185,0.14218 -0.655693,0.28794 -0.894002,0.40462 -0.119154,0.0583 -0.217007,0.10949 -0.282154,0.1478 -0.03257,0.0191 -0.05671,0.0354 -0.07028,0.046 -9.88e-4,7.7e-4 -6.89e-4,8.8e-4 -0.0015,0.002 8.11e-4,7.4e-4 5.13e-4,8.4e-4 0.0015,0.002 0.01357,0.0106 0.03771,0.0268 0.07028,0.046 0.06515,0.0383 0.163,0.0894 0.282154,0.14779 0.238309,0.11667 0.561817,0.26245 0.894002,0.40463 0.141009,0.0603 0.282173,0.11913 0.420646,0.1757 v -0.33797 l 0.595313,-0.53433 v -0.60565 c 0.07438,-0.05 0.149377,-0.16414 0.225309,-0.34261 v 0.90588 l -0.58136,0.5178 v 0.41031 l 0.533818,-0.001 c 0.07283,-0.17347 0.18067,-0.28809 0.324011,-0.34313 -0.14644,0.0901 -0.250399,0.281 -0.311609,0.57206 l -0.167442,-4e-4 c 0.09631,0.0351 0.184904,0.0662 0.252698,0.0873 0.04475,0.0139 0.08231,0.0242 0.10697,0.03 0.0017,4e-4 0.002,1.9e-4 0.0036,5.2e-4 0.0016,-3.3e-4 0.0019,-1.2e-4 0.0036,-5.2e-4 0.02466,-0.006 0.06222,-0.016 0.10697,-0.03 0.0895,-0.0279 0.208902,-0.0699 0.345199,-0.12092 0.03955,-0.0148 0.08853,-0.0349 0.130741,-0.0512 0.04757,-0.0462 0.08653,-0.0985 0.116272,-0.15658 v -0.26252 h -0.556555 v -0.0951 l 0.556555,0.001 v -1.06453 c 0.08833,0.0317 0.175996,0.0295 0.26355,-0.007 v 1.06454 l 0.221175,0.001 v 0.0816 l -0.221175,-0.003 v 0.16019 l 0.09198,0.0713 c 0.03487,-0.055 0.09435,-0.0816 0.1788,-0.0791 -0.01633,0.008 -0.03544,0.025 -0.05684,0.0486 0.07435,-0.0311 0.147388,-0.0607 0.221692,-0.0925 0.332185,-0.14218 0.656211,-0.28796 0.894519,-0.40463 0.119155,-0.0583 0.217005,-0.10949 0.282153,-0.14779 0.03257,-0.0192 0.05671,-0.0354 0.07028,-0.046 9.87e-4,-7.7e-4 6.89e-4,-8.7e-4 0.0016,-0.002 -8.12e-4,-7.4e-4 -5.14e-4,-8.5e-4 -0.0016,-0.002 -0.01357,-0.0106 -0.0377,-0.0268 -0.07028,-0.046 -0.06515,-0.0383 -0.162998,-0.0895 -0.282153,-0.1478 -0.238308,-0.11668 -0.562334,-0.26244 -0.894519,-0.40462 -0.11555,-0.0495 -0.230183,-0.0964 -0.344682,-0.14366 -0.05809,0.0506 -0.121222,0.0774 -0.189652,0.0801 -0.126295,0.005 -0.228702,-0.0278 -0.306958,-0.0987 l -0.136943,0.0625 0.19172,-0.22066 c -0.05217,-0.0202 -0.111393,-0.0445 -0.15968,-0.0625 -0.136297,-0.051 -0.255701,-0.093 -0.345199,-0.12092 -0.04475,-0.0139 -0.08231,-0.0242 -0.10697,-0.03 -0.0017,-4e-4 -0.002,-1.9e-4 -0.0036,-5.2e-4 z m -0.412895,0.44959 -10e-4,0.5643 c -0.116222,-0.0592 -0.230524,-0.0629 -0.342098,-0.0103 0.03874,-0.0934 0.131321,-0.131 0.276986,-0.11266 v -0.14107 c -0.0891,-0.0409 -0.174184,-0.0291 -0.254765,0.0351 0.01782,-0.0984 0.102901,-0.14668 0.254765,-0.14418 v -0.14521 z m 1.100708,0.045 c -0.106925,0.04 -0.210883,0.34546 -0.311609,0.91674 -0.143341,0.12926 -0.296176,0.16391 -0.458887,0.10386 0.118547,0.0275 0.248107,-0.13636 0.389124,-0.49247 0.141016,-0.35611 0.268249,-0.5323 0.381372,-0.52813 z m -3.536735,0.75034 c 0.0018,0.37797 0.01126,0.72745 0.02894,0.78186 0.03945,0.12141 0.968498,1.40033 1.071769,1.47536 0.103272,0.075 1.60661,0.56328 1.734261,0.56328 0.127651,0 1.630989,-0.48825 1.734261,-0.56328 0.103271,-0.075 1.032839,-1.35395 1.072286,-1.47536 0.01741,-0.0536 0.02638,-0.39354 0.02842,-0.76481 -0.07406,0.0433 -0.173985,0.0952 -0.294039,0.154 -0.245394,0.12014 -0.572008,0.26755 -0.907955,0.41134 -0.206262,0.0883 -0.410555,0.17145 -0.606681,0.2496 -0.01486,0.0259 -0.03004,0.0534 -0.04599,0.0827 l -0.05684,-0.0424 c -0.08513,0.0334 -0.175216,0.0699 -0.252181,0.0987 -0.140348,0.0525 -0.264063,0.0963 -0.366386,0.12815 -0.05116,0.0159 -0.0965,0.0291 -0.139527,0.0393 -0.04303,0.0101 -0.0759,0.0202 -0.151411,0.0202 -0.07551,0 -0.108384,-0.01 -0.151412,-0.0202 -0.04303,-0.0101 -0.08836,-0.0233 -0.139527,-0.0393 -0.102323,-0.0319 -0.226038,-0.0756 -0.366386,-0.12815 -0.05125,-0.0192 -0.112886,-0.0443 -0.167948,-0.0656 l -0.113171,-5.2e-4 c -0.133269,0.008 -0.242141,-0.0163 -0.326596,-0.0713 0.07575,0.002 0.137588,-0.007 0.185002,-0.0279 -0.175138,-0.0705 -0.356916,-0.14553 -0.538468,-0.22324 -0.335947,-0.14379 -0.662561,-0.2912 -0.907955,-0.41134 -0.122697,-0.0601 -0.225241,-0.1133 -0.299724,-0.1571 -0.0084,-0.005 -0.01505,-0.009 -0.02274,-0.0139 z" />
  </g>
</svg>
