<?xml version="1.0" encoding="UTF-8" standalone="no"?>
<!-- Created with Inkscape (http://www.inkscape.org/) -->

<svg
   width="5.670455mm"
   height="5.9009318mm"
   viewBox="0 0 5.670455 5.9009318"
   version="1.1"
   id="svg1"
   xmlns="http://www.w3.org/2000/svg"
   xmlns:svg="http://www.w3.org/2000/svg">
  <defs
     id="defs1">
    <linearGradient
       id="swatch4">
      <stop
         style="stop-color:#000000;stop-opacity:1;"
         offset="0"
         id="stop4" />
    </linearGradient>
  </defs>
  <g
     id="layer2"
     style="stroke:#ffffff;stroke-opacity:1"
     transform="translate(-41.872379,-195.60149)">
    <path
       id="path237-317-04-38"
       style="fill:#000000;fill-opacity:1;stroke:none;stroke-width:0.200527;stroke-dasharray:none;stroke-opacity:1"
       d="m 44.707349,195.6015 c -0.127651,0 -1.630989,0.48824 -1.734261,0.56327 -0.103272,0.075 -1.032324,1.35396 -1.07177,1.47536 -0.01828,0.0563 -0.02761,0.4279 -0.02894,0.82062 0.0077,-0.005 0.01437,-0.009 0.02274,-0.0139 0.07448,-0.0438 0.177026,-0.097 0.299723,-0.15709 0.245394,-0.12015 0.572008,-0.26756 0.907955,-0.41135 0.335947,-0.14379 0.680485,-0.28357 0.961182,-0.38861 0.140348,-0.0525 0.264064,-0.0963 0.366386,-0.12815 0.05116,-0.0159 0.0965,-0.0286 0.139526,-0.0388 0.04303,-0.0101 0.0759,-0.0207 0.151412,-0.0207 0.07551,0 0.108384,0.0105 0.151412,0.0207 0.04303,0.0101 0.08836,0.0228 0.139527,0.0388 0.102323,0.0319 0.226036,0.0756 0.366385,0.12815 0.280696,0.10504 0.625752,0.24482 0.961699,0.38861 0.335948,0.14379 0.662562,0.2912 0.907955,0.41135 0.120239,0.0589 0.220468,0.11071 0.294555,0.15399 -0.0016,-0.38625 -0.01092,-0.74812 -0.02894,-0.80357 -0.03945,-0.1214 -0.969014,-1.40033 -1.072286,-1.47536 -0.103272,-0.075 -1.60661,-0.56327 -1.734261,-0.56327 z m 0.01395,1.83554 c -0.0016,3.3e-4 -0.0019,1.2e-4 -0.0036,5.2e-4 -0.02466,0.006 -0.06222,0.016 -0.10697,0.03 -0.0895,0.0279 -0.208386,0.0699 -0.344682,0.12093 -0.272592,0.102 -0.614527,0.24073 -0.946712,0.38292 -0.332185,0.14218 -0.655694,0.28795 -0.894003,0.40463 -0.119154,0.0583 -0.217006,0.10948 -0.282153,0.14779 -0.03257,0.0191 -0.05671,0.0354 -0.07028,0.046 -9.88e-4,7.7e-4 -6.89e-4,8.8e-4 -0.0016,0.002 8.11e-4,7.4e-4 5.13e-4,8.5e-4 0.0016,0.002 0.01357,0.0106 0.03771,0.0268 0.07028,0.046 0.06515,0.0383 0.162999,0.0894 0.282153,0.14779 0.238309,0.11667 0.561818,0.26245 0.894003,0.40463 0.332185,0.14219 0.67412,0.28091 0.946712,0.38292 0.136296,0.051 0.255184,0.093 0.344682,0.12092 0.04475,0.0139 0.08231,0.0242 0.10697,0.03 0.0017,4e-4 0.002,1.8e-4 0.0036,5.1e-4 0.0016,-3.3e-4 0.0019,-1.1e-4 0.0036,-5.1e-4 0.02466,-0.006 0.06222,-0.016 0.10697,-0.03 0.0895,-0.0279 0.208901,-0.0699 0.345198,-0.12092 0.272592,-0.10201 0.614011,-0.24073 0.946196,-0.38292 0.332185,-0.14218 0.656211,-0.28796 0.894519,-0.40463 0.119155,-0.0583 0.217005,-0.10949 0.282153,-0.14779 0.03257,-0.0192 0.05671,-0.0354 0.07028,-0.046 9.87e-4,-7.7e-4 6.88e-4,-8.8e-4 0.0016,-0.002 -8.12e-4,-7.4e-4 -5.14e-4,-8.5e-4 -0.0016,-0.002 -0.01357,-0.0106 -0.0377,-0.0268 -0.07028,-0.046 -0.06515,-0.0383 -0.162998,-0.0895 -0.282153,-0.14779 -0.238308,-0.11668 -0.562334,-0.26245 -0.894519,-0.40463 -0.332185,-0.14219 -0.673604,-0.28092 -0.946196,-0.38292 -0.136297,-0.051 -0.2557,-0.093 -0.345198,-0.12093 -0.04475,-0.0139 -0.08231,-0.0242 -0.10697,-0.03 -0.0017,-4e-4 -0.002,-1.9e-4 -0.0036,-5.2e-4 z m 0.04496,0.076 c 0.01085,0.0817 0.05481,0.13314 0.132291,0.15399 0.07748,0.0208 0.155063,0.002 0.232544,-0.0574 -0.0984,0.19682 -0.194602,0.29731 -0.288354,0.30231 -0.09375,0.004 -0.174696,-0.0357 -0.242879,-0.11989 l -0.0801,0.0879 v 1.23558 l 0.322978,0.20051 0.04754,-0.0667 v -0.82166 c -0.05656,-0.0117 -0.100524,-0.0491 -0.132291,-0.11162 l -0.22531,0.31936 0.001,-0.11627 0.378788,-0.49299 c 0.01782,0.10174 0.07394,0.16311 0.168465,0.18396 0.09453,0.0209 0.179349,0.001 0.253732,-0.0579 -0.08291,0.17013 -0.157125,0.26798 -0.222209,0.293 l -10e-4,0.66766 -0.357084,0.47801 -0.462504,-0.31523 c -0.05114,-0.0334 -0.121478,-0.0343 -0.211356,-0.003 0.08755,-0.0717 0.154273,-0.10474 0.199987,-0.0997 v -1.01492 c -0.04416,-0.003 -0.110366,-0.0384 -0.19792,-0.10594 0.07981,0.0284 0.144974,0.0295 0.195336,0.004 z m 0.01137,0.88728 0.06511,0.0584 v 0.75447 l -0.06511,0.0589 z m -2.905249,0.28164 c 0.0018,0.37797 0.01126,0.72745 0.02894,0.78186 0.03945,0.12141 0.968498,1.40034 1.07177,1.47537 0.103271,0.075 1.60661,0.56327 1.734261,0.56327 0.12765,0 1.630989,-0.48824 1.734261,-0.56327 0.103271,-0.075 1.03284,-1.35396 1.072286,-1.47537 0.01741,-0.0536 0.02638,-0.39354 0.02842,-0.76481 -0.07406,0.0433 -0.173985,0.0952 -0.294039,0.154 -0.245394,0.12014 -0.572008,0.26755 -0.907955,0.41134 -0.335947,0.1438 -0.681002,0.28358 -0.961699,0.38861 -0.140348,0.0525 -0.264062,0.0963 -0.366385,0.12816 -0.05116,0.0159 -0.0965,0.0291 -0.139527,0.0393 -0.04303,0.0101 -0.0759,0.0202 -0.151412,0.0202 -0.07552,0 -0.108384,-0.01 -0.151412,-0.0202 -0.04303,-0.0101 -0.08837,-0.0233 -0.139526,-0.0393 -0.102323,-0.0319 -0.226038,-0.0756 -0.366386,-0.12816 -0.280697,-0.10503 -0.625235,-0.24481 -0.961182,-0.38861 -0.335947,-0.14379 -0.662561,-0.2912 -0.907955,-0.41134 -0.122697,-0.0601 -0.22524,-0.1133 -0.299723,-0.1571 -0.0084,-0.005 -0.01505,-0.009 -0.02274,-0.0139 z" />
  </g>
</svg>
