<?xml version="1.0" encoding="UTF-8" standalone="no"?>
<!-- Created with Inkscape (http://www.inkscape.org/) -->

<svg
   width="5.6705198mm"
   height="5.9009962mm"
   viewBox="0 0 5.6705198 5.9009962"
   version="1.1"
   id="svg1"
   xmlns="http://www.w3.org/2000/svg"
   xmlns:svg="http://www.w3.org/2000/svg">
  <defs
     id="defs1">
    <linearGradient
       id="swatch4">
      <stop
         style="stop-color:#000000;stop-opacity:1;"
         offset="0"
         id="stop4" />
    </linearGradient>
  </defs>
  <g
     id="layer3"
     transform="translate(-162.56565,-202.37235)">
    <path
       id="path237-317-04-52"
       style="fill:#ffffff;fill-opacity:1;stroke:none;stroke-width:0.200527;stroke-dasharray:none;stroke-opacity:1"
       d="m 165.40068,202.3724 c -0.12765,0 -1.63099,0.48824 -1.73426,0.56327 -0.10327,0.075 -1.03232,1.35396 -1.07177,1.47536 -0.0183,0.0563 -0.0276,0.42791 -0.0289,0.82063 0.008,-0.005 0.0144,-0.009 0.0227,-0.014 0.0745,-0.0438 0.17703,-0.097 0.29973,-0.15709 0.24539,-0.12015 0.572,-0.26756 0.90795,-0.41135 0.33595,-0.14379 0.68049,-0.28357 0.96118,-0.38861 0.14035,-0.0525 0.26407,-0.0963 0.36639,-0.12815 0.0512,-0.0159 0.0965,-0.0286 0.13952,-0.0388 0.043,-0.0101 0.0759,-0.0207 0.15142,-0.0207 0.0755,0 0.10838,0.0105 0.15141,0.0207 0.043,0.0101 0.0884,0.0228 0.13953,0.0388 0.10232,0.0319 0.22603,0.0756 0.36638,0.12815 0.2807,0.10504 0.62575,0.24482 0.9617,0.38861 0.33595,0.14379 0.66256,0.2912 0.90796,0.41135 0.12024,0.0589 0.22047,0.11071 0.29455,0.15399 -0.002,-0.38625 -0.0109,-0.74812 -0.0289,-0.80357 -0.0394,-0.1214 -0.96901,-1.40033 -1.07228,-1.47536 -0.10327,-0.075 -1.60662,-0.56327 -1.73427,-0.56327 z m 0.0139,1.83554 c -0.002,3.3e-4 -0.002,1.2e-4 -0.004,5.2e-4 -0.0247,0.006 -0.0622,0.016 -0.10697,0.03 -0.0895,0.0279 -0.20838,0.0699 -0.34468,0.12093 -0.0283,0.0106 -0.0639,0.0253 -0.0935,0.0367 0.0365,0.0368 0.0805,0.0636 0.13229,0.0801 0.0968,0.03 0.23236,-0.0321 0.4067,-0.18552 -0.1232,0.25019 -0.24293,0.38899 -0.35916,0.41651 -0.11544,0.0275 -0.22871,-0.0302 -0.33951,-0.17363 l -0.13694,0.0713 0.0842,-0.12609 c -0.20525,0.0814 -0.42122,0.16956 -0.64079,0.26355 -0.33218,0.14218 -0.65569,0.28795 -0.894,0.40463 -0.11916,0.0583 -0.21701,0.10948 -0.28216,0.14779 -0.0326,0.0191 -0.0567,0.0354 -0.0703,0.046 -9.8e-4,7.7e-4 -7.3e-4,8.8e-4 -0.001,0.002 8.2e-4,7.4e-4 5.7e-4,8.5e-4 0.001,0.002 0.0136,0.0106 0.0377,0.0268 0.0703,0.046 0.0651,0.0383 0.163,0.0894 0.28216,0.14779 0.23831,0.11667 0.56182,0.26245 0.894,0.40463 0.19919,0.0853 0.39635,0.16573 0.58549,0.24133 0.004,-0.007 0.008,-0.0138 0.0119,-0.0212 v -0.38395 l 0.5948,-0.53434 v -0.60513 c 0.0744,-0.05 0.14989,-0.16466 0.22583,-0.34313 v 0.90589 l -0.58136,0.51779 v 0.41031 l 0.5333,-0.001 c 0.0728,-0.17347 0.18119,-0.28757 0.32453,-0.34261 -0.14644,0.0901 -0.2504,0.28048 -0.31161,0.57154 l -0.35037,-0.001 c 0.0989,0.0361 0.18966,0.0678 0.2589,0.0894 0.0447,0.0139 0.0823,0.0242 0.10697,0.03 0.002,4e-4 0.002,1.8e-4 0.004,5.1e-4 0.002,-3.3e-4 0.002,-1.1e-4 0.004,-5.1e-4 0.0247,-0.006 0.0622,-0.016 0.10697,-0.03 0.0895,-0.0279 0.2089,-0.0699 0.3452,-0.12092 0.0303,-0.0113 0.0683,-0.0271 0.10025,-0.0393 l -0.0615,-0.0233 c -0.0357,0.055 -0.11711,0.0856 -0.24495,0.0915 0.0961,-0.0459 0.16331,-0.1113 0.20205,-0.19637 l 10e-4,-1.49913 c -0.0411,-0.007 -0.0726,-0.0255 -0.0951,-0.0563 l -0.1943,0.0703 0.31006,-0.30748 c -0.005,-0.002 -0.0123,-0.005 -0.0176,-0.007 -0.1363,-0.051 -0.25571,-0.093 -0.3452,-0.12093 -0.0448,-0.0139 -0.0823,-0.0242 -0.10698,-0.03 -0.002,-4e-4 -0.002,-1.9e-4 -0.004,-5.2e-4 z m 0.56947,0.19586 c 0.036,0.063 0.10924,0.0981 0.22015,0.1049 l -0.11008,0.14625 -0.001,1.38337 0.19741,0.0863 c 0.0496,-0.0567 0.11088,-0.0834 0.18448,-0.0801 -0.0296,0.0152 -0.0632,0.0435 -0.10128,0.0832 0.14517,-0.0592 0.29441,-0.12094 0.44286,-0.18448 0.33219,-0.14218 0.65622,-0.28796 0.89452,-0.40463 0.11916,-0.0583 0.21701,-0.10949 0.28216,-0.14779 0.0326,-0.0192 0.0567,-0.0354 0.0703,-0.046 9.8e-4,-7.7e-4 7.4e-4,-8.8e-4 0.002,-0.002 -8.1e-4,-7.4e-4 -5.7e-4,-8.5e-4 -0.002,-0.002 -0.0136,-0.0106 -0.0377,-0.0268 -0.0703,-0.046 -0.0652,-0.0383 -0.163,-0.0895 -0.28216,-0.14779 -0.2383,-0.11668 -0.56233,-0.26245 -0.89452,-0.40463 -0.29028,-0.12425 -0.58021,-0.24171 -0.8325,-0.33848 z m 0.231,0.1695 v 1.34255 l -0.0651,0.0589 v -1.31 z m -1.03663,0.0827 -10e-4,0.56431 c -0.11622,-0.0592 -0.23001,-0.0624 -0.34158,-0.01 0.0387,-0.0934 0.1308,-0.131 0.27647,-0.11266 v -0.14159 c -0.0891,-0.0409 -0.17367,-0.0291 -0.25425,0.0351 0.0178,-0.0984 0.10239,-0.14616 0.25425,-0.14366 v -0.14521 z m -2.61276,0.79685 c 0.002,0.37797 0.0113,0.72745 0.0289,0.78186 0.0394,0.12141 0.9685,1.40034 1.07177,1.47537 0.10327,0.075 1.60661,0.56327 1.73426,0.56327 0.12765,0 1.63099,-0.48824 1.73426,-0.56327 0.10327,-0.075 1.03284,-1.35396 1.07228,-1.47537 0.0174,-0.0536 0.0264,-0.39354 0.0284,-0.76481 -0.0741,0.0433 -0.17399,0.0952 -0.29404,0.154 -0.2454,0.12014 -0.57201,0.26755 -0.90796,0.41134 -0.33595,0.1438 -0.681,0.28358 -0.9617,0.38861 -0.14034,0.0525 -0.26406,0.0963 -0.36638,0.12816 -0.0512,0.0159 -0.0965,0.0291 -0.13953,0.0393 -0.043,0.0101 -0.0759,0.0202 -0.15141,0.0202 -0.0755,0 -0.10838,-0.01 -0.15141,-0.0202 -0.043,-0.0101 -0.0884,-0.0233 -0.13952,-0.0393 -0.10233,-0.0319 -0.22604,-0.0756 -0.36639,-0.12816 -0.052,-0.0195 -0.11457,-0.045 -0.17053,-0.0667 -0.10359,-0.003 -0.19042,-0.0267 -0.26045,-0.0724 0.0252,7e-4 0.0482,-2.6e-4 0.0703,-0.002 -0.19429,-0.0775 -0.39628,-0.16012 -0.60048,-0.24753 -0.33595,-0.14379 -0.66256,-0.2912 -0.90796,-0.41134 -0.12269,-0.0601 -0.22524,-0.1133 -0.29972,-0.1571 -0.008,-0.005 -0.0151,-0.009 -0.0227,-0.0139 z" />
  </g>
</svg>
