<?xml version="1.0" encoding="UTF-8" standalone="no"?>
<!-- Created with Inkscape (http://www.inkscape.org/) -->

<svg
   width="7.2042117mm"
   height="6.3608594mm"
   viewBox="0 0 7.2042117 6.3608594"
   version="1.1"
   id="svg1"
   xmlns="http://www.w3.org/2000/svg"
   xmlns:svg="http://www.w3.org/2000/svg">
  <defs
     id="defs1">
    <linearGradient
       id="swatch4">
      <stop
         style="stop-color:#000000;stop-opacity:1;"
         offset="0"
         id="stop4" />
    </linearGradient>
  </defs>
  <g
     id="layer3"
     transform="translate(-208.56249,-135.35983)">
    <path
       id="path280-3-7-3-9"
       style="fill:#ffffff;fill-opacity:1;stroke:none;stroke-width:0.250658;stroke-dasharray:none;stroke-opacity:1"
       d="m 212.27854,135.35983 2.60707,4.08864 c 0.50569,-0.47548 0.88108,-0.85971 0.88108,-0.93534 0,-0.20955 -2.85253,-2.76497 -3.48815,-3.1533 z m -0.22893,5.2e-4 c -0.63719,0.38995 -3.48713,2.94332 -3.48713,3.15278 0,0.0756 0.37506,0.4595 0.88057,0.93482 z m 0.11472,0.2868 -2.52698,3.961 -0.0729,-0.0465 c 1.00836,0.93865 2.43675,2.15904 2.59985,2.15904 0.16423,0 1.61162,-1.23749 2.62102,-2.17867 l -0.0977,0.062 z m -0.004,2.33939 c -0.16581,0.23519 -0.33002,0.36494 -0.49196,0.38913 -0.16116,0.0234 -0.28736,-0.0131 -0.37879,-0.10904 l -0.17415,0.0791 0.27647,-0.3514 c 0.055,0.0801 0.15406,0.12506 0.29662,0.13591 0.14257,0.01 0.2998,-0.0378 0.47181,-0.14367 z m 0.56947,0.01 c 0.004,0.0709 0.0584,0.1343 0.16382,0.19017 0.10615,0.0559 0.21812,0.0476 0.3359,-0.0258 l -0.12661,0.14883 v 1.16686 l -0.22428,0.19792 v -0.66198 c 0.10073,-0.004 0.1509,-0.0508 0.1509,-0.14004 0,-0.0901 -0.0502,-0.13468 -0.1509,-0.13384 v -0.28526 c -0.12164,-0.0334 -0.22276,-0.10743 -0.30334,-0.22169 v 0.5054 c -0.10072,0.003 -0.15141,0.0489 -0.15141,0.13642 0,0.0867 0.0507,0.13297 0.15141,0.13798 v 0.71158 l 0.18345,0.12506 0.34417,-0.3328 -0.006,0.11783 -0.43822,0.44028 -0.31109,-0.19017 c -0.0356,-0.0167 -0.0868,-0.0176 -0.15348,-0.003 0.0643,-0.0551 0.11241,-0.084 0.14418,-0.0873 v -1.35237 c -0.0364,0.0133 -0.0907,-0.0141 -0.16278,-0.0816 0.0643,0.0284 0.11758,0.03 0.1602,0.004 z m -0.58497,0.03 c -0.12785,0.29095 -0.22904,0.61616 -0.30489,0.97513 0.10666,0.003 0.22327,-0.0244 0.35036,-0.0817 -0.12722,0.13281 -0.25305,0.20404 -0.37724,0.21446 -0.0362,0.19111 -0.0658,0.39147 -0.0879,0.601 l 0.19793,0.0863 c 0.0496,-0.0567 0.11087,-0.0834 0.18448,-0.0801 -0.0713,0.0367 -0.16697,0.1447 -0.28784,0.32401 l -0.30127,-0.10491 c -0.10848,0.0993 -0.24424,0.12983 -0.40773,0.0915 0.16736,0.004 0.28891,-0.0613 0.36484,-0.19637 0.0615,-0.27602 0.12151,-0.51914 0.18035,-0.7307 -0.0548,-0.0124 -0.10218,-0.0349 -0.14108,-0.0677 l -0.13332,0.0465 0.21394,-0.20877 c 0.0238,0.0364 0.0584,0.0628 0.10335,0.0806 0.12174,-0.40991 0.23742,-0.67901 0.34727,-0.80667 z m 0.57722,0.50953 c 0.009,0 0.0167,0.002 0.0248,0.006 0.0163,0.008 0.0269,0.0205 0.0315,0.0372 0.005,0.0159 0.005,0.0324 0,0.0491 -0.005,0.0167 -0.0183,0.0294 -0.0393,0.0377 v 0.18759 h 0.10232 c 0.008,-0.0225 0.0191,-0.0371 0.0346,-0.0429 0.0155,-0.006 0.0307,-0.006 0.0455,0 0.0155,0.005 0.0269,0.0166 0.0346,0.0341 0.008,0.0175 0.008,0.0356 0,0.0548 -0.007,0.0183 -0.0191,0.0301 -0.0362,0.0351 -0.0171,0.005 -0.0331,0.004 -0.0486,-0.004 -0.0155,-0.008 -0.0253,-0.0232 -0.03,-0.0465 h -0.1018 l 5.2e-4,0.64182 c 0.0209,0.008 0.0339,0.0211 0.0393,0.0377 0.005,0.0167 0.005,0.0329 0,0.0496 -0.005,0.0158 -0.0147,0.0283 -0.031,0.0367 -0.0163,0.008 -0.0333,0.009 -0.0512,0.001 -0.017,-0.008 -0.0279,-0.0214 -0.0326,-0.0398 -0.005,-0.0183 -0.004,-0.036 0.003,-0.0527 0.007,-0.0167 0.0217,-0.0275 0.0434,-0.0326 l -0.001,-0.64182 h -0.11059 c -0.005,0.0233 -0.015,0.039 -0.0305,0.0465 -0.0155,0.008 -0.0315,0.009 -0.0486,0.004 -0.0171,-0.005 -0.0295,-0.0168 -0.0372,-0.0351 -0.007,-0.0192 -0.007,-0.0373 0.001,-0.0548 0.008,-0.0175 0.0189,-0.0291 0.0336,-0.0341 0.0155,-0.006 0.031,-0.006 0.0465,0 0.0155,0.006 0.0274,0.0204 0.0351,0.0429 h 0.11059 l -5.2e-4,-0.18759 c -0.0217,-0.005 -0.0359,-0.0159 -0.0429,-0.0326 -0.007,-0.0167 -0.008,-0.0344 -0.004,-0.0527 0.005,-0.0183 0.0155,-0.0312 0.0326,-0.0387 0.009,-0.004 0.0178,-0.006 0.0263,-0.006 z m -1.10226,0.65784 -0.18706,0.65784 c -0.0953,-0.0517 -0.20599,-0.0173 -0.33228,0.10283 0.0682,-0.15679 0.17136,-0.23126 0.31005,-0.22376 l 0.0501,-0.14521 c -0.0744,-0.035 -0.16385,-0.0169 -0.26768,0.0548 0.0527,-0.10258 0.15484,-0.15806 0.30592,-0.1664 l 0.0734,-0.22996 z" />
  </g>
</svg>
