<?xml version="1.0" encoding="UTF-8" standalone="no"?>
<!-- Created with Inkscape (http://www.inkscape.org/) -->

<svg
   width="5.6286135mm"
   height="6.2502642mm"
   viewBox="0 0 5.6286135 6.2502642"
   version="1.1"
   id="svg1"
   xmlns="http://www.w3.org/2000/svg"
   xmlns:svg="http://www.w3.org/2000/svg">
  <defs
     id="defs1">
    <linearGradient
       id="swatch4">
      <stop
         style="stop-color:#000000;stop-opacity:1;"
         offset="0"
         id="stop4" />
    </linearGradient>
  </defs>
  <g
     id="layer3"
     transform="translate(-209.21583,-120.60146)">
    <path
       id="path241-5"
       style="fill:#ffffff;fill-opacity:1;stroke:none;stroke-width:0.200527;stroke-dasharray:none;stroke-opacity:1"
       d="m 212.0304,120.61253 c -0.003,0.003 -0.003,0.003 -0.006,0.006 -0.028,0.0271 -0.0678,0.0727 -0.11421,0.13177 -0.0928,0.11817 -0.21431,0.29204 -0.35191,0.50126 -0.27521,0.41845 -0.61664,0.9809 -0.94568,1.55081 -0.32904,0.56992 -0.64545,1.14718 -0.87023,1.59474 -0.1124,0.22378 -0.20242,0.41559 -0.25839,0.555 -0.028,0.0697 -0.0473,0.12704 -0.0568,0.16485 -0.001,0.004 -8e-4,0.005 -0.002,0.008 0.004,0.001 0.004,0.002 0.008,0.003 0.0375,0.0106 0.0967,0.023 0.17105,0.0336 0.14872,0.0213 0.35927,0.0391 0.60927,0.0537 0.49999,0.0291 1.15835,0.0439 1.81643,0.0439 0.65808,0 1.31695,-0.0148 1.81694,-0.0439 0.24999,-0.0146 0.46055,-0.0324 0.60926,-0.0537 0.0744,-0.0106 0.13303,-0.0229 0.17054,-0.0336 0.004,-0.001 0.005,-0.002 0.009,-0.003 -7.9e-4,-0.004 -4.6e-4,-0.004 -0.002,-0.008 -0.009,-0.0378 -0.0294,-0.0951 -0.0574,-0.16485 -0.056,-0.13941 -0.14548,-0.33122 -0.25787,-0.555 -0.22479,-0.44756 -0.54119,-1.02482 -0.87023,-1.59474 -0.32904,-0.56991 -0.67099,-1.13236 -0.9462,-1.55081 -0.1376,-0.20922 -0.25864,-0.38309 -0.3514,-0.50126 -0.0464,-0.0591 -0.0862,-0.10462 -0.1142,-0.13177 -0.003,-0.003 -0.004,-0.003 -0.007,-0.006 z m 0.51469,2.10685 c -0.16581,0.23518 -0.33002,0.36494 -0.49195,0.38912 -0.16117,0.0234 -0.28736,-0.0126 -0.37879,-0.10852 l -0.17415,0.0786 0.27647,-0.3514 c 0.055,0.0801 0.15405,0.12558 0.29662,0.13643 0.14257,0.01 0.2998,-0.0383 0.4718,-0.14418 z m -0.015,0.0403 c -0.12778,0.29082 -0.22956,0.61584 -0.3054,0.97461 0.10666,0.003 0.22326,-0.0244 0.35036,-0.0816 -0.12736,0.13296 -0.25291,0.20468 -0.37723,0.21497 -0.0362,0.19111 -0.0652,0.39147 -0.0873,0.601 l 0.1974,0.0863 c 0.0496,-0.0567 0.11139,-0.0834 0.185,-0.0801 -0.0713,0.0367 -0.16748,0.1447 -0.28835,0.32401 l -0.30128,-0.10542 c -0.10847,0.0992 -0.24424,0.12983 -0.40772,0.0915 0.16736,0.004 0.2889,-0.0613 0.36483,-0.19637 0.0616,-0.27607 0.12202,-0.51913 0.18087,-0.73071 -0.055,-0.0124 -0.10207,-0.0343 -0.14108,-0.0672 l -0.13384,0.046 0.21394,-0.20877 c 0.0238,0.0364 0.0584,0.0633 0.10335,0.0811 0.12179,-0.41016 0.23738,-0.67896 0.34727,-0.80667 z m -0.52554,1.16685 -0.18707,0.65836 c -0.0953,-0.0517 -0.20599,-0.0178 -0.33228,0.10232 0.0682,-0.15679 0.17137,-0.23127 0.31006,-0.22376 l 0.0501,-0.14521 c -0.0744,-0.035 -0.16335,-0.0164 -0.26717,0.0553 0.0527,-0.10258 0.15432,-0.15806 0.30541,-0.1664 l 0.0734,-0.23047 z" />
    <path
       id="path218-0-5-6"
       style="fill:#ffffff;fill-opacity:1;stroke:none;stroke-width:0.200527;stroke-dasharray:none;stroke-opacity:1"
       d="m 214.81486,125.02187 c 0.0476,-0.7134 0.0378,-2.82464 -0.03,-2.94194 -0.0666,-0.11529 -1.82507,-1.14247 -2.49494,-1.47743 0.007,0.008 0.0123,0.015 0.0191,0.0238 0.0991,0.12624 0.22189,0.30233 0.36122,0.51419 0.27866,0.4237 0.62187,0.98866 0.9524,1.56114 0.33052,0.57249 0.64831,1.15189 0.87591,1.60507 0.11381,0.22659 0.20481,0.42158 0.26459,0.57051 0.0221,0.0551 0.0385,0.10164 0.0517,0.14469 z" />
    <path
       id="path217-20-2-8"
       style="fill:#ffffff;fill-opacity:1;stroke:none;stroke-width:0.200527;stroke-dasharray:none;stroke-opacity:1"
       d="m 209.31029,125.29524 c 0.30342,0.25318 2.56894,1.5565 2.71973,1.5565 0.15061,0 2.41154,-1.30063 2.71921,-1.55598 -0.021,0.01 -0.0427,0.0179 -0.0672,0.0248 -0.0527,0.015 -0.11745,0.0274 -0.19688,0.0388 -0.15887,0.0227 -0.37319,0.0411 -0.62632,0.0558 -0.50627,0.0295 -1.16727,0.0439 -1.82832,0.0439 -0.66104,0 -1.32152,-0.0145 -1.82779,-0.0439 -0.25314,-0.0147 -0.46745,-0.0331 -0.62632,-0.0558 -0.0794,-0.0113 -0.14467,-0.0238 -0.1974,-0.0388 -0.0251,-0.007 -0.0472,-0.0148 -0.0687,-0.0253 z" />
    <path
       id="path216-89-7-0"
       style="fill:#ffffff;fill-opacity:1;stroke:none;stroke-width:0.200527;stroke-dasharray:none;stroke-opacity:1"
       d="m 211.77319,120.60147 c -0.66784,0.33354 -2.43139,1.36302 -2.49804,1.47846 -0.0678,0.11747 -0.0773,2.23525 -0.0295,2.94556 0.0133,-0.0439 0.0295,-0.0917 0.0522,-0.14831 0.0598,-0.14893 0.15078,-0.34392 0.26458,-0.57051 0.22761,-0.45318 0.54539,-1.03258 0.87592,-1.60507 0.33052,-0.57248 0.67373,-1.13744 0.95239,-1.56114 0.13933,-0.21186 0.26265,-0.38795 0.36174,-0.51419 0.007,-0.009 0.0137,-0.0161 0.0207,-0.0248 z" />
  </g>
</svg>
