<?xml version="1.0" encoding="UTF-8" standalone="no"?>
<!-- Created with Inkscape (http://www.inkscape.org/) -->

<svg
   width="5.7147355mm"
   height="6.4037595mm"
   viewBox="0 0 5.7147355 6.4037595"
   version="1.1"
   id="svg1"
   xmlns="http://www.w3.org/2000/svg"
   xmlns:svg="http://www.w3.org/2000/svg">
  <defs
     id="defs1">
    <linearGradient
       id="swatch4">
      <stop
         style="stop-color:#000000;stop-opacity:1;"
         offset="0"
         id="stop4" />
    </linearGradient>
  </defs>
  <g
     id="layer3"
     transform="translate(-193.64713,-173.80307)">
    <path
       id="path63-83-4-6"
       style="fill:#ffffff;fill-opacity:1;stroke:none;stroke-width:0.174705;stroke-dasharray:none;stroke-opacity:1"
       d="m 196.50471,173.80308 c -0.13939,0 -2.05539,1.09552 -2.63084,1.48622 0.0438,-0.01 0.0919,-0.0191 0.14986,-0.0274 0.16072,-0.0229 0.37713,-0.0414 0.63303,-0.0563 0.51181,-0.0298 1.17975,-0.0439 1.84795,-0.0439 0.66821,0 1.33667,0.0141 1.84847,0.0439 0.2559,0.0149 0.4718,0.0333 0.63252,0.0563 0.0582,0.008 0.1065,0.0179 0.15038,0.0279 -0.57486,-0.3904 -2.49193,-1.48673 -2.63137,-1.48673 z m -5.1e-4,1.56632 c -0.66495,0 -1.32988,0.0145 -1.83503,0.0439 -0.25264,0.0147 -0.46581,0.0338 -0.61599,0.0553 -0.0751,0.0107 -0.13438,0.0219 -0.17208,0.0326 -0.003,8.2e-4 -0.004,10e-4 -0.006,0.002 6.7e-4,0.003 -3.1e-4,0.003 5.2e-4,0.007 0.01,0.038 0.0301,0.095 0.0584,0.16537 0.0565,0.14078 0.14635,0.33454 0.25993,0.56069 0.22717,0.4523 0.54801,1.03629 0.88057,1.6123 0.33256,0.57601 0.67738,1.14447 0.95549,1.56735 0.13906,0.21144 0.26136,0.38658 0.35502,0.50591 0.0468,0.0597 0.0866,0.10603 0.11472,0.13332 0.002,0.002 0.003,0.002 0.005,0.004 0.002,-0.002 0.002,-0.002 0.004,-0.004 0.0281,-0.0273 0.0689,-0.0737 0.11576,-0.13332 0.0937,-0.11933 0.21596,-0.29447 0.35501,-0.50591 0.27812,-0.42288 0.62346,-0.99134 0.95602,-1.56735 0.33256,-0.57601 0.65185,-1.16 0.87902,-1.6123 0.11358,-0.22615 0.20497,-0.41991 0.26148,-0.56069 0.0283,-0.0704 0.0478,-0.12736 0.0574,-0.16537 8.6e-4,-0.003 3.8e-4,-0.004 0.001,-0.007 -0.003,-8.2e-4 -0.003,-0.001 -0.006,-0.002 -0.0377,-0.0107 -0.097,-0.0219 -0.17208,-0.0326 -0.15018,-0.0215 -0.36335,-0.0406 -0.61599,-0.0553 -0.50515,-0.0294 -1.1706,-0.0439 -1.83554,-0.0439 z m -2.82257,0.21549 c -0.0537,0.65032 -0.0446,2.94002 0.0264,3.06286 0.0715,0.12378 2.07752,1.29183 2.65048,1.55908 -0.001,-0.001 -0.002,-0.002 -0.003,-0.003 -0.0399,-0.0387 -0.0837,-0.0891 -0.13384,-0.15297 -0.10024,-0.12771 -0.22501,-0.30621 -0.36587,-0.52038 -0.2817,-0.42833 -0.62811,-0.999 -0.96221,-1.57768 -0.3341,-0.57868 -0.65512,-1.16451 -0.88522,-1.62264 -0.11505,-0.22906 -0.20721,-0.42657 -0.26768,-0.57723 -0.0261,-0.065 -0.0452,-0.11919 -0.0589,-0.16794 z m 5.64565,0.002 c 4e-5,5.3e-4 -4e-5,0.002 0,0.002 1.4e-4,-4.8e-4 3.8e-4,-0.001 5.2e-4,-0.002 z m 0,0.002 c -0.0137,0.048 -0.0318,0.10118 -0.0574,0.16485 -0.0605,0.15067 -0.15315,0.34816 -0.2682,0.57723 -0.2301,0.45813 -0.5506,1.04395 -0.8847,1.62264 -0.3341,0.57867 -0.68103,1.14934 -0.96273,1.57768 -0.14086,0.21416 -0.26511,0.39267 -0.36536,0.52038 -0.0501,0.0639 -0.0944,0.11421 -0.13435,0.15296 -9.1e-4,8.2e-4 -0.002,0.002 -0.003,0.002 0.57447,-0.26826 2.57855,-1.43486 2.64996,-1.55856 0.0708,-0.12262 0.0792,-2.40431 0.0258,-3.05925 z m -2.81792,0.39533 0.50437,0.001 -0.16175,0.23255 -0.46354,0.002 v 0.50281 h 0.0403 v -0.43925 c 0.17356,-0.0592 0.31941,-0.0336 0.43718,0.0765 -0.12862,-0.05 -0.25042,-0.0559 -0.36587,-0.0176 v 0.11989 c 0.0728,-0.0309 0.14163,-0.0174 0.20671,0.0393 -0.0844,-0.0258 -0.15324,0.001 -0.20671,0.0811 l -0.0579,0.14005 0.35657,0.001 c 0.11003,0.002 0.20855,-0.04 0.29611,-0.12506 l -0.14625,0.21136 -0.001,0.73949 -0.44545,0.47801 -0.31626,-0.20257 c -0.0697,-0.0334 -0.16024,-0.0175 -0.27182,0.0475 0.16349,-0.22184 0.29072,-0.32061 0.38138,-0.29559 l 0.31626,0.21291 0.0661,-0.0615 v -0.8232 h -0.40928 c -0.0937,-0.006 -0.19642,0.003 -0.30799,0.0253 0.0783,-0.0884 0.13411,-0.13413 0.16743,-0.13746 v -0.3266 c -0.0387,0.0134 -0.0974,-0.0263 -0.1757,-0.11885 0.0697,0.0283 0.12818,0.0295 0.17467,0.004 z m 0.13126,0.95808 v 0.75551 l -0.0708,0.0589 v -0.19017 c -0.062,-0.0425 -0.12379,-0.0473 -0.185,-0.0139 0.0333,-0.0726 0.0951,-0.11035 0.185,-0.11369 l 0.001,-0.41651 z" />
  </g>
</svg>
