<?xml version="1.0" encoding="UTF-8" standalone="no"?>
<!-- Created with Inkscape (http://www.inkscape.org/) -->

<svg
   width="6.9887209mm"
   height="6.236845mm"
   viewBox="0 0 6.9887209 6.236845"
   version="1.1"
   id="svg1"
   xmlns="http://www.w3.org/2000/svg"
   xmlns:svg="http://www.w3.org/2000/svg">
  <defs
     id="defs1">
    <linearGradient
       id="swatch4">
      <stop
         style="stop-color:#000000;stop-opacity:1;"
         offset="0"
         id="stop4" />
    </linearGradient>
  </defs>
  <g
     id="layer3"
     transform="translate(-208.53552,-150.56882)">
    <path
       id="path94-48-16-4"
       style="fill:#ffffff;fill-opacity:1;stroke:none;stroke-width:0.192506;stroke-dasharray:none;stroke-opacity:1"
       d="m 212.02885,150.56884 v 5.2e-4 c -0.70357,0 -1.40045,0.0158 -1.6583,0.0465 l 0.55552,1.00872 c 0.024,-0.004 0.0526,-0.006 0.0863,-0.009 0.0687,-0.006 0.15877,-0.0104 0.26407,-0.0139 0.21061,-0.007 0.48121,-0.0109 0.75241,-0.0109 0.2712,0 0.54232,0.004 0.75293,0.0109 0.1053,0.004 0.19541,0.008 0.26406,0.0139 0.0343,0.003 0.0636,0.005 0.0879,0.009 l 0.57568,-1.00666 c -0.24076,-0.0323 -0.95883,-0.0491 -1.68052,-0.0491 z m -1.82625,0.13953 c -0.30393,0.40167 -1.4588,2.4017 -1.66398,2.88044 l 1.16169,0.002 c 0.008,-0.0183 0.0151,-0.0363 0.0258,-0.0589 0.0296,-0.0622 0.0703,-0.14215 0.11989,-0.23513 0.0991,-0.18595 0.23182,-0.42246 0.36742,-0.65732 0.1356,-0.23487 0.27455,-0.46764 0.38602,-0.64647 0.0557,-0.0894 0.10404,-0.16499 0.14314,-0.22169 0.009,-0.0132 0.0162,-0.0219 0.0243,-0.0331 z m 3.66593,0.0176 -0.57723,1.01234 c 0.008,0.0112 0.0152,0.0199 0.0243,0.0331 0.0391,0.0567 0.0874,0.13228 0.14315,0.22169 0.11147,0.17884 0.25042,0.41161 0.38602,0.64648 0.1356,0.23486 0.26828,0.47137 0.36742,0.65732 0.0496,0.093 0.0903,0.17292 0.11989,0.23513 0.0106,0.0224 0.0182,0.0402 0.0258,0.0584 l 1.1591,-0.007 c -0.2077,-0.48043 -1.32735,-2.42009 -1.64848,-2.85719 z m -1.83968,1.05781 c -0.26953,0 -0.53904,0.003 -0.74621,0.0103 -0.10358,0.004 -0.19137,0.008 -0.25477,0.0134 -0.0317,0.002 -0.0576,0.005 -0.0744,0.008 -0.002,3.4e-4 -0.003,0.001 -0.005,0.002 -10e-4,0.001 -0.002,0.002 -0.003,0.003 -0.0106,0.0133 -0.0259,0.0343 -0.0439,0.0605 -0.0361,0.0524 -0.0842,0.1265 -0.139,0.21445 -0.10966,0.17591 -0.24713,0.40738 -0.38189,0.64079 -0.13476,0.23341 -0.26681,0.46872 -0.36432,0.65164 -0.0488,0.0915 -0.089,0.17044 -0.11627,0.22789 -0.0136,0.0287 -0.0243,0.0524 -0.0305,0.0682 -7.5e-4,0.002 -5.3e-4,0.003 -10e-4,0.005 5.4e-4,0.002 3.1e-4,0.003 10e-4,0.005 0.006,0.0158 0.0168,0.0395 0.0305,0.0682 0.0273,0.0574 0.0675,0.13591 0.11627,0.22737 0.0975,0.18291 0.22956,0.41823 0.36432,0.65164 0.13476,0.23342 0.27223,0.4654 0.38189,0.64131 0.0548,0.088 0.1029,0.1621 0.139,0.21446 0.018,0.0262 0.0333,0.0467 0.0439,0.0599 0.001,0.002 0.002,0.002 0.004,0.004 0.002,3.4e-4 0.002,7.2e-4 0.004,10e-4 0.0168,0.002 0.0427,0.005 0.0744,0.008 0.0634,0.005 0.15119,0.009 0.25477,0.0129 0.20717,0.007 0.47668,0.0103 0.74621,0.0103 0.26952,0 0.53955,-0.003 0.74672,-0.0103 0.10359,-0.003 0.19137,-0.008 0.25477,-0.0129 0.0317,-0.002 0.0576,-0.005 0.0744,-0.008 0.002,-2.7e-4 0.002,-7.2e-4 0.004,-10e-4 0.002,-0.002 0.003,-0.002 0.004,-0.004 0.0106,-0.0133 0.0259,-0.0337 0.0439,-0.0599 0.0361,-0.0524 0.0842,-0.1265 0.13901,-0.21446 0.10965,-0.17591 0.24712,-0.40789 0.38189,-0.64131 0.13476,-0.23341 0.2668,-0.46873 0.36432,-0.65164 0.0487,-0.0915 0.089,-0.16992 0.11627,-0.22737 0.0137,-0.0287 0.0243,-0.0524 0.0305,-0.0682 7.5e-4,-0.002 5.1e-4,-0.003 0.001,-0.005 -5.5e-4,-0.002 -3.2e-4,-0.003 -0.001,-0.005 -0.006,-0.0158 -0.0168,-0.0395 -0.0305,-0.0682 -0.0273,-0.0574 -0.0675,-0.13643 -0.11627,-0.22789 -0.0975,-0.18292 -0.22956,-0.41823 -0.36432,-0.65164 -0.13477,-0.23341 -0.27224,-0.46488 -0.38189,-0.64079 -0.0548,-0.0879 -0.10291,-0.16209 -0.13901,-0.21445 -0.0181,-0.0262 -0.0333,-0.0472 -0.0439,-0.0605 -0.001,-0.001 -0.002,-0.002 -0.003,-0.003 -0.002,-6.9e-4 -0.003,-10e-4 -0.005,-0.002 -0.0168,-0.002 -0.0427,-0.005 -0.0744,-0.008 -0.0634,-0.005 -0.15118,-0.01 -0.25477,-0.0134 -0.20717,-0.007 -0.4772,-0.0103 -0.74672,-0.0103 z m 0.51625,0.863 c -0.16581,0.23518 -0.33003,0.36442 -0.49196,0.38861 -0.16117,0.0233 -0.28736,-0.0126 -0.37879,-0.10852 l -0.17415,0.0786 0.27647,-0.3514 c 0.055,0.0801 0.15405,0.12558 0.29662,0.13642 0.14257,0.01 0.2998,-0.0377 0.47181,-0.14366 z m -0.015,0.0398 c -0.12778,0.29082 -0.22956,0.61585 -0.3054,0.97462 0.10666,0.003 0.22326,-0.0239 0.35036,-0.0811 -0.12736,0.13296 -0.25291,0.20416 -0.37723,0.21445 -0.0362,0.19112 -0.0652,0.39147 -0.0873,0.601 l 0.1974,0.0863 c 0.0496,-0.0567 0.11139,-0.0834 0.185,-0.0801 -0.0713,0.0367 -0.16748,0.14471 -0.28835,0.32401 l -0.30128,-0.1049 c -0.10847,0.0992 -0.24424,0.12931 -0.40772,0.0909 0.16736,0.004 0.2889,-0.0613 0.36483,-0.19637 0.0616,-0.27606 0.12202,-0.51912 0.18087,-0.7307 -0.055,-0.0124 -0.10207,-0.0343 -0.14108,-0.0672 l -0.13384,0.046 0.21394,-0.20877 c 0.0238,0.0364 0.0584,0.0633 0.10335,0.0811 0.12175,-0.40992 0.23742,-0.67901 0.34727,-0.80667 z m 2.99414,1.08986 -1.16531,0.006 c -0.008,0.0188 -0.0156,0.0378 -0.0269,0.0615 -0.0296,0.0622 -0.0703,0.14215 -0.11989,0.23513 -0.0991,0.18595 -0.23181,0.42245 -0.36741,0.65732 -0.1356,0.23487 -0.27455,0.46816 -0.38603,0.64699 -0.0557,0.0894 -0.10404,0.16499 -0.14314,0.22169 -0.0144,0.0209 -0.0266,0.0364 -0.0388,0.0522 l 0.57826,1.01131 c 0.30494,-0.4024 1.47621,-2.43134 1.66915,-2.89181 z m -6.98872,0.004 c 0.19813,0.4686 1.36834,2.49456 1.66966,2.89026 l 0.58291,-1.00407 c -0.0138,-0.0177 -0.0284,-0.0372 -0.0455,-0.062 -0.0391,-0.0567 -0.0874,-0.13228 -0.14314,-0.22169 -0.11147,-0.17883 -0.25042,-0.41212 -0.38602,-0.64699 -0.1356,-0.23487 -0.26829,-0.47136 -0.36742,-0.65732 -0.0496,-0.093 -0.0903,-0.17292 -0.11989,-0.23513 -0.0112,-0.0235 -0.019,-0.0423 -0.0269,-0.061 z m 3.46904,0.0739 -0.18707,0.65784 c -0.0953,-0.0517 -0.20599,-0.0178 -0.33228,0.10232 0.0682,-0.15679 0.17137,-0.23126 0.31006,-0.22376 l 0.0501,-0.14521 c -0.0744,-0.035 -0.16335,-0.0164 -0.26717,0.0553 0.0527,-0.10258 0.15432,-0.15806 0.30541,-0.1664 l 0.0734,-0.23048 z m 1.10794,1.89859 c -0.0203,0.002 -0.0406,0.005 -0.0667,0.007 -0.0687,0.005 -0.15876,0.01 -0.26407,0.0134 -0.21061,0.007 -0.48172,0.0109 -0.75292,0.0109 -0.2712,0 -0.5418,-0.004 -0.75241,-0.0109 -0.10531,-0.004 -0.19541,-0.008 -0.26407,-0.0134 -0.0208,-0.002 -0.0361,-0.004 -0.0532,-0.006 l -0.58188,1.00666 c 0.52833,0.0605 2.79548,0.06 3.30988,-0.001 z m 0.68678,0.97979 -0.0181,0.0103 c 0.002,-0.001 0.009,-0.002 0.0103,-0.003 0.002,-9.4e-4 0.006,-0.006 0.008,-0.008 z" />
  </g>
</svg>
