<?xml version="1.0" encoding="UTF-8" standalone="no"?>
<!-- Created with Inkscape (http://www.inkscape.org/) -->

<svg
   width="5.628581mm"
   height="6.2502642mm"
   viewBox="0 0 5.628581 6.2502642"
   version="1.1"
   id="svg1"
   xmlns="http://www.w3.org/2000/svg"
   xmlns:svg="http://www.w3.org/2000/svg">
  <defs
     id="defs1">
    <linearGradient
       id="swatch4">
      <stop
         style="stop-color:#000000;stop-opacity:1;"
         offset="0"
         id="stop4" />
    </linearGradient>
  </defs>
  <g
     id="layer3"
     transform="translate(-201.61407,-120.60146)">
    <path
       id="path824-7"
       style="fill:#ffffff;fill-opacity:1;stroke:none;stroke-width:0.200527;stroke-dasharray:none;stroke-opacity:1"
       d="m 204.4288,120.61253 c -0.003,0.003 -0.003,0.003 -0.006,0.006 -0.028,0.0271 -0.0678,0.0727 -0.1142,0.13178 -0.0928,0.11817 -0.21431,0.29204 -0.35192,0.50126 -0.2752,0.41845 -0.61663,0.9809 -0.94568,1.55081 -0.32904,0.56992 -0.64544,1.14717 -0.87023,1.59473 -0.11239,0.22378 -0.20242,0.4156 -0.25838,0.55501 -0.028,0.0697 -0.0473,0.12704 -0.0568,0.16485 -0.001,0.004 -7.6e-4,0.005 -0.002,0.008 0.004,10e-4 0.004,0.002 0.008,0.003 0.0375,0.0106 0.0967,0.023 0.17105,0.0336 0.14871,0.0213 0.35927,0.0391 0.60926,0.0537 0.49999,0.0291 1.15835,0.0439 1.81643,0.0439 0.65808,0 1.31696,-0.0148 1.81694,-0.0439 0.25,-0.0146 0.46055,-0.0324 0.60927,-0.0537 0.0744,-0.0106 0.13303,-0.0229 0.17053,-0.0336 0.004,-0.001 0.005,-0.002 0.009,-0.003 -7.9e-4,-0.004 -4.1e-4,-0.004 -0.002,-0.008 -0.01,-0.0378 -0.0294,-0.0951 -0.0574,-0.16485 -0.056,-0.13941 -0.14547,-0.33123 -0.25786,-0.55501 -0.22479,-0.44756 -0.54119,-1.02481 -0.87023,-1.59473 -0.32904,-0.56991 -0.671,-1.13236 -0.9462,-1.55081 -0.1376,-0.20922 -0.25864,-0.38309 -0.3514,-0.50126 -0.0464,-0.0591 -0.0862,-0.10463 -0.1142,-0.13178 -0.003,-0.003 -0.004,-0.003 -0.007,-0.006 z m 0.0584,2.08256 c 0.0109,0.0817 0.0548,0.13315 0.1323,0.154 0.0775,0.0208 0.15506,0.002 0.23254,-0.0574 -10e-4,0.002 -0.002,0.004 -0.004,0.007 0.001,-9.1e-4 0.002,-0.002 0.004,-0.003 -0.0984,0.19715 -0.1946,0.29764 -0.28835,0.30231 -0.0937,0.004 -0.1747,-0.0357 -0.24288,-0.11989 l -0.0801,0.0879 v 1.23145 l 0.25786,0.16019 v -0.87074 l 0.0651,0.0589 v 0.75396 l -0.0646,0.0584 0.0646,0.0398 0.0475,-0.0667 v -0.81752 c -0.0566,-0.0117 -0.10052,-0.0491 -0.13229,-0.11162 l -0.22531,0.31936 v -0.004 l 0.001,-0.11627 0.37879,-0.49299 c 0.0178,0.10174 0.0739,0.16312 0.16846,0.18397 0.0945,0.0209 0.17935,10e-4 0.25374,-0.0579 -0.001,0.003 -0.002,0.004 -0.004,0.007 0.001,-9.3e-4 0.002,-0.002 0.004,-0.003 -0.0829,0.1701 -0.15713,0.26794 -0.22221,0.29301 l -0.001,0.66352 v 0.004 l -0.35709,0.478 -0.4625,-0.31522 c -0.0511,-0.033 -0.12148,-0.0337 -0.21136,-0.002 0.004,-0.003 0.007,-0.005 0.0103,-0.008 -0.004,0.001 -0.007,0.001 -0.0103,0.003 0.0876,-0.0717 0.15428,-0.10477 0.19999,-0.0997 v -1.00976 c -0.0442,-0.003 -0.11037,-0.0389 -0.19792,-0.10645 0.004,0.001 0.008,0.003 0.0119,0.004 -0.004,-0.003 -0.008,-0.006 -0.0119,-0.009 0.0798,0.0284 0.14497,0.0296 0.19534,0.004 z" />
    <path
       id="path218-0-1-7"
       style="fill:#ffffff;fill-opacity:1;stroke:none;stroke-width:0.200527;stroke-dasharray:none;stroke-opacity:1"
       d="m 207.21312,125.02187 c 0.0476,-0.7134 0.0377,-2.82464 -0.03,-2.94194 -0.0666,-0.11529 -1.82507,-1.14247 -2.49494,-1.47743 0.007,0.008 0.0123,0.015 0.0191,0.0238 0.0991,0.12624 0.22189,0.30233 0.36122,0.51419 0.27866,0.4237 0.62187,0.98866 0.95239,1.56114 0.33053,0.57249 0.64831,1.15189 0.87592,1.60507 0.1138,0.22659 0.2048,0.42158 0.26458,0.57051 0.0221,0.0551 0.0385,0.10164 0.0517,0.14469 z" />
    <path
       id="path217-20-6-4"
       style="fill:#ffffff;fill-opacity:1;stroke:none;stroke-width:0.200527;stroke-dasharray:none;stroke-opacity:1"
       d="m 201.70854,125.29524 c 0.30343,0.25318 2.56894,1.5565 2.71973,1.5565 0.15062,0 2.41155,-1.30063 2.71922,-1.55598 -0.021,0.01 -0.0427,0.0179 -0.0672,0.0248 -0.0527,0.015 -0.11746,0.0274 -0.19689,0.0388 -0.15887,0.0227 -0.37318,0.0411 -0.62632,0.0558 -0.50627,0.0295 -1.16726,0.0439 -1.82831,0.0439 -0.66105,0 -1.32153,-0.0145 -1.8278,-0.0439 -0.25313,-0.0147 -0.46745,-0.0331 -0.62632,-0.0558 -0.0794,-0.0113 -0.14466,-0.0238 -0.1974,-0.0388 -0.0251,-0.007 -0.0472,-0.0148 -0.0687,-0.0253 z" />
    <path
       id="path216-89-0-3"
       style="fill:#ffffff;fill-opacity:1;stroke:none;stroke-width:0.200527;stroke-dasharray:none;stroke-opacity:1"
       d="m 204.17144,120.60147 c -0.66783,0.33354 -2.43139,1.36302 -2.49804,1.47846 -0.0678,0.11747 -0.0773,2.23525 -0.0295,2.94556 0.0133,-0.0439 0.0295,-0.0917 0.0522,-0.14831 0.0598,-0.14893 0.15078,-0.34392 0.26459,-0.57051 0.2276,-0.45318 0.54539,-1.03258 0.87591,-1.60507 0.33053,-0.57248 0.67374,-1.13744 0.9524,-1.56114 0.13933,-0.21186 0.26264,-0.38795 0.36173,-0.51419 0.007,-0.009 0.0137,-0.0161 0.0207,-0.0248 z" />
  </g>
</svg>
