<?xml version="1.0" encoding="UTF-8" standalone="no"?>
<!-- Created with Inkscape (http://www.inkscape.org/) -->

<svg
   width="7.2042117mm"
   height="6.3609805mm"
   viewBox="0 0 7.2042117 6.3609805"
   version="1.1"
   id="svg1"
   xmlns="http://www.w3.org/2000/svg"
   xmlns:svg="http://www.w3.org/2000/svg">
  <defs
     id="defs1">
    <linearGradient
       id="swatch4">
      <stop
         style="stop-color:#000000;stop-opacity:1;"
         offset="0"
         id="stop4" />
    </linearGradient>
  </defs>
  <g
     id="layer3"
     transform="translate(-224.14141,-128.27602)">
    <path
       id="path34-39-4-0"
       style="fill:#ffffff;fill-opacity:1;stroke:none;stroke-width:0.250658;stroke-dasharray:none;stroke-opacity:1"
       d="m 230.46454,132.36467 c 0.50568,-0.47548 0.88108,-0.85971 0.88108,-0.93534 0,-0.20955 -2.85253,-2.76497 -3.48816,-3.1533 z" />
    <path
       id="path257-10-7"
       style="fill:#ffffff;fill-opacity:1;stroke:none;stroke-width:0.250658;stroke-dasharray:none;stroke-opacity:1"
       d="m 227.74313,128.56347 -2.52697,3.961 -0.0729,-0.0465 c 1.00837,0.93865 2.43675,2.15904 2.59984,2.15904 0.16424,0 1.61163,-1.2375 2.62103,-2.17868 l -0.0971,0.062 z m 0.045,2.39003 0.38138,0.31523 c 0.0511,0.0331 0.12147,0.0337 0.21135,0.002 -0.0876,0.0716 -0.15427,0.1051 -0.19999,0.10026 v 0.9772 c 0.0442,0.003 0.11037,0.0389 0.19792,0.10645 -0.0798,-0.0286 -0.14497,-0.03 -0.19533,-0.004 l -0.41858,0.56844 c -0.0573,-0.0818 -0.12457,-0.13318 -0.20206,-0.154 -0.0775,-0.0208 -0.15506,-0.001 -0.23254,0.0579 0.0984,-0.19684 0.1946,-0.29764 0.28835,-0.30179 0.0937,-0.005 0.1747,0.0346 0.24288,0.11886 l 0.0801,-0.11266 v -1.19838 l -0.2651,-0.22479 -0.10542,0.0786 v 0.79685 c 0.0566,0.0117 0.10829,0.0613 0.15555,0.14883 l 0.20206,-0.29404 -0.001,0.14159 -0.26251,0.40515 c -0.0566,-0.10178 -0.1419,-0.16315 -0.2558,-0.18397 -0.1139,-0.0208 -0.20777,-0.001 -0.28215,0.0579 0.0442,-0.12841 0.11786,-0.19679 0.22169,-0.20516 v -0.62787 c -0.0922,0.0133 -0.17315,-0.0193 -0.24288,-0.0977 0.093,0.0109 0.17418,-0.0118 0.24391,-0.0677 z m -0.10438,0.31833 v 0.83457 l -0.0651,-0.0589 v -0.71675 z" />
    <path
       id="path256-37-9"
       style="fill:#ffffff;fill-opacity:1;stroke:none;stroke-width:0.250658;stroke-dasharray:none;stroke-opacity:1"
       d="m 227.62853,128.27655 c -0.63718,0.38995 -3.48712,2.94332 -3.48712,3.15278 0,0.0756 0.37505,0.4595 0.88057,0.93482 z" />
  </g>
</svg>
