<?xml version="1.0" encoding="UTF-8" standalone="no"?>
<!-- Created with Inkscape (http://www.inkscape.org/) -->

<svg
   width="5.7147675mm"
   height="6.4037595mm"
   viewBox="0 0 5.7147675 6.4037595"
   version="1.1"
   id="svg1"
   xmlns="http://www.w3.org/2000/svg"
   xmlns:svg="http://www.w3.org/2000/svg">
  <defs
     id="defs1">
    <linearGradient
       id="swatch4">
      <stop
         style="stop-color:#000000;stop-opacity:1;"
         offset="0"
         id="stop4" />
    </linearGradient>
  </defs>
  <g
     id="layer3"
     transform="translate(-216.95448,-173.77309)">
    <path
       id="path63-83-61-8"
       style="fill:#ffffff;fill-opacity:1;stroke:none;stroke-width:0.174705;stroke-dasharray:none;stroke-opacity:1"
       d="m 219.81205,173.77311 c -0.1394,0 -2.0554,1.09551 -2.63085,1.48621 0.0437,-0.01 0.0919,-0.0191 0.14986,-0.0274 0.16072,-0.0229 0.37713,-0.0414 0.63304,-0.0563 0.5118,-0.0298 1.17974,-0.0439 1.84795,-0.0439 0.6682,0 1.33666,0.0141 1.84846,0.0439 0.2559,0.0149 0.4718,0.0333 0.63252,0.0563 0.0582,0.008 0.10651,0.0179 0.15038,0.0279 -0.57486,-0.3904 -2.49193,-1.48673 -2.63136,-1.48673 z m 0,1.56631 c -0.66512,0 -1.33027,0.0145 -1.83555,0.0439 -0.25264,0.0147 -0.46581,0.0338 -0.61598,0.0553 -0.0751,0.0107 -0.13439,0.0219 -0.17209,0.0326 -0.003,8.2e-4 -0.003,0.001 -0.006,0.002 6.7e-4,0.003 -3.1e-4,0.003 5.2e-4,0.007 0.01,0.038 0.0296,0.095 0.0579,0.16536 0.0565,0.14078 0.14635,0.33454 0.25993,0.56069 0.22717,0.4523 0.54801,1.0363 0.88057,1.61231 0.33256,0.57601 0.67738,1.14446 0.9555,1.56734 0.13906,0.21144 0.26135,0.38659 0.35501,0.50592 0.0468,0.0597 0.0866,0.10603 0.11473,0.13332 0.002,0.002 0.003,0.002 0.005,0.004 0.002,-0.002 0.003,-0.002 0.005,-0.004 0.0281,-0.0273 0.0689,-0.0737 0.11575,-0.13332 0.0937,-0.11933 0.21596,-0.29448 0.35502,-0.50592 0.27812,-0.42288 0.62345,-0.99133 0.95601,-1.56734 0.33256,-0.57601 0.65185,-1.16001 0.87902,-1.61231 0.11358,-0.22615 0.20497,-0.41991 0.26148,-0.56069 0.0283,-0.0704 0.0478,-0.12735 0.0574,-0.16536 8.6e-4,-0.003 3.8e-4,-0.004 0.001,-0.007 -0.003,-8.2e-4 -0.003,-0.001 -0.006,-0.002 -0.0377,-0.0107 -0.097,-0.0219 -0.17208,-0.0326 -0.15018,-0.0215 -0.36334,-0.0406 -0.61599,-0.0553 -0.50528,-0.0294 -1.17094,-0.0439 -1.83606,-0.0439 z m -2.82309,0.21601 c -0.0536,0.65086 -0.0446,2.93953 0.0264,3.06235 0.0715,0.12378 2.07752,1.29182 2.65049,1.55907 -0.001,-0.001 -0.002,-0.002 -0.003,-0.003 -0.0399,-0.0387 -0.0837,-0.0891 -0.13384,-0.15296 -0.10025,-0.12771 -0.22502,-0.30621 -0.36587,-0.52038 -0.28171,-0.42833 -0.62812,-0.99901 -0.96222,-1.57769 -0.3341,-0.57868 -0.65512,-1.16451 -0.88522,-1.62264 -0.11504,-0.22906 -0.2072,-0.42656 -0.26768,-0.57722 -0.0261,-0.065 -0.0452,-0.1192 -0.0589,-0.16795 z m 5.64617,0.002 c -0.0137,0.0484 -0.0321,0.10208 -0.0579,0.1664 -0.0605,0.15067 -0.15315,0.34815 -0.2682,0.57722 -0.2301,0.45813 -0.5506,1.04395 -0.8847,1.62264 -0.3341,0.57867 -0.68103,1.14935 -0.96273,1.57769 -0.14086,0.21416 -0.26511,0.39267 -0.36536,0.52038 -0.0501,0.0639 -0.0944,0.11421 -0.13435,0.15296 -9.1e-4,8.2e-4 -0.002,0.002 -0.003,0.002 0.57447,-0.26826 2.57855,-1.43486 2.64996,-1.55856 0.0708,-0.1227 0.0793,-2.40746 0.0258,-3.0608 z m -2.59106,0.32194 c 0.0315,-0.002 0.0627,0.003 0.0941,0.0134 -0.0463,-0.0131 -0.12013,0.0199 -0.22066,0.0977 0.0213,0.0481 0.0647,0.0925 0.1323,0.13281 0.0945,0.0559 0.20598,0.047 0.33383,-0.0264 l -0.1385,0.14883 v 0.30386 l -0.22065,0.22272 v -0.40772 c -0.0637,-0.0101 -0.12867,-0.038 -0.19431,-0.0837 v 0.57206 l 0.1049,0.0558 0.31006,-0.30799 -0.006,0.11782 -0.22996,0.23771 c 0.0728,0.0325 0.13516,0.0543 0.18707,0.0651 0.0527,0.0109 0.11501,-0.006 0.18707,-0.0491 l -0.13849,0.14935 v 0.37878 l -0.24391,0.23513 v -0.60771 l -0.17105,-0.0822 v 0.60978 l -0.0708,0.0589 v -0.70279 l -0.0811,-0.0393 -0.002,0.76223 0.25838,0.11265 0.31006,-0.30799 -0.006,0.11782 -0.41393,0.41497 -0.39739,-0.19017 c -0.0387,-0.0167 -0.0946,-0.0176 -0.16743,-0.003 0.0705,-0.055 0.123,-0.084 0.15709,-0.0873 v -0.65164 c -0.0395,0.0133 -0.0985,-0.0141 -0.17673,-0.0816 0.0697,0.0284 0.12766,0.03 0.17415,0.004 l 0.16536,-0.14677 c -0.11699,-0.006 -0.20414,0.003 -0.26148,0.0253 0.0705,-0.055 0.12223,-0.0845 0.15555,-0.0879 v -0.47646 c -0.0387,0.0133 -0.0974,-0.0136 -0.1757,-0.0811 0.0697,0.0284 0.12818,0.0295 0.17466,0.004 l 0.32091,-0.2744 c 0.0834,-0.0923 0.16686,-0.14093 0.2496,-0.14573 z m -0.34416,0.28888 v 0.61546 l 0.0594,0.0315 v -0.59066 c -0.0198,-0.0174 -0.0395,-0.0358 -0.0594,-0.0563 z" />
  </g>
</svg>
