<?xml version="1.0" encoding="UTF-8" standalone="no"?>
<!-- Created with Inkscape (http://www.inkscape.org/) -->

<svg
   width="5.7147999mm"
   height="6.4037595mm"
   viewBox="0 0 5.7147999 6.4037595"
   version="1.1"
   id="svg1"
   xmlns="http://www.w3.org/2000/svg"
   xmlns:svg="http://www.w3.org/2000/svg">
  <defs
     id="defs1">
    <linearGradient
       id="swatch4">
      <stop
         style="stop-color:#000000;stop-opacity:1;"
         offset="0"
         id="stop4" />
    </linearGradient>
  </defs>
  <g
     id="layer3"
     transform="translate(-201.57092,-173.80307)">
    <path
       id="path63-83-6-4"
       style="fill:#ffffff;fill-opacity:1;stroke:none;stroke-width:0.174705;stroke-dasharray:none;stroke-opacity:1"
       d="m 204.4285,173.80308 c -0.13939,0 -2.05539,1.09552 -2.63085,1.48622 0.0438,-0.01 0.0919,-0.0191 0.14987,-0.0274 0.16071,-0.0229 0.37713,-0.0414 0.63303,-0.0563 0.5118,-0.0298 1.17975,-0.0439 1.84795,-0.0439 0.6682,0 1.33666,0.0141 1.84847,0.0439 0.2559,0.0149 0.4718,0.0333 0.63252,0.0563 0.0582,0.008 0.1065,0.0179 0.15037,0.0279 -0.57486,-0.3904 -2.49193,-1.48673 -2.63136,-1.48673 z m 0,1.56632 c -0.66512,0 -1.33026,0.0145 -1.83555,0.0439 -0.25264,0.0147 -0.4658,0.0338 -0.61598,0.0553 -0.0751,0.0107 -0.13438,0.0219 -0.17208,0.0326 -0.003,8.2e-4 -0.003,10e-4 -0.006,0.002 6.7e-4,0.003 -3.1e-4,0.003 5.2e-4,0.007 0.01,0.038 0.0296,0.095 0.0579,0.16537 0.0565,0.14078 0.14635,0.33454 0.25993,0.56069 0.22716,0.4523 0.548,1.03629 0.88056,1.6123 0.33256,0.57601 0.67738,1.14447 0.9555,1.56735 0.13906,0.21144 0.26135,0.38658 0.35502,0.50591 0.0468,0.0597 0.0866,0.10603 0.11472,0.13332 0.002,0.002 0.003,0.002 0.005,0.004 0.002,-0.002 0.003,-0.002 0.005,-0.004 0.0281,-0.0273 0.0689,-0.0737 0.11576,-0.13332 0.0937,-0.11933 0.21595,-0.29447 0.35501,-0.50591 0.27812,-0.42288 0.62346,-0.99134 0.95602,-1.56735 0.33256,-0.57601 0.65185,-1.16 0.87901,-1.6123 0.11359,-0.22615 0.20498,-0.41991 0.26149,-0.56069 0.0283,-0.0704 0.0478,-0.12736 0.0574,-0.16537 8.6e-4,-0.003 3.8e-4,-0.004 0.001,-0.007 -0.003,-8.2e-4 -0.003,-0.001 -0.006,-0.002 -0.0377,-0.0107 -0.097,-0.0219 -0.17209,-0.0326 -0.15017,-0.0215 -0.36334,-0.0406 -0.61598,-0.0553 -0.50528,-0.0294 -1.17094,-0.0439 -1.83606,-0.0439 z m -2.82308,0.21549 c -0.0537,0.65032 -0.0446,2.94002 0.0264,3.06286 0.0715,0.12378 2.07752,1.29183 2.65048,1.55908 -0.001,-0.001 -0.002,-0.002 -0.003,-0.003 -0.0399,-0.0387 -0.0837,-0.0891 -0.13384,-0.15297 -0.10024,-0.12771 -0.22502,-0.30621 -0.36587,-0.52038 -0.2817,-0.42833 -0.62811,-0.999 -0.96221,-1.57768 -0.33411,-0.57868 -0.65513,-1.16451 -0.88522,-1.62264 -0.11505,-0.22906 -0.20721,-0.42657 -0.26769,-0.57723 -0.0261,-0.065 -0.0452,-0.11919 -0.0589,-0.16794 z m 5.64617,0.002 c -0.0138,0.0484 -0.0321,0.10208 -0.0579,0.1664 -0.0605,0.15067 -0.15315,0.34816 -0.2682,0.57723 -0.23009,0.45813 -0.5506,1.04395 -0.8847,1.62264 -0.3341,0.57867 -0.68102,1.14934 -0.96273,1.57768 -0.14085,0.21416 -0.26511,0.39267 -0.36535,0.52038 -0.0501,0.0639 -0.0944,0.11421 -0.13436,0.15296 -9e-4,8.2e-4 -0.002,0.002 -0.003,0.002 0.57447,-0.26826 2.57855,-1.43486 2.64997,-1.55856 0.0708,-0.1227 0.0793,-2.40746 0.0258,-3.0608 z m -2.76418,0.37931 c 0.0109,0.0817 0.0548,0.13314 0.13229,0.15399 0.0775,0.0208 0.15507,0.001 0.23255,-0.0579 -0.0984,0.19682 -0.1946,0.29782 -0.28836,0.30282 -0.0937,0.004 -0.17469,-0.0357 -0.24288,-0.11989 l -0.0801,0.0873 v 1.2361 l 0.32298,0.19999 0.0475,-0.0661 v -0.82218 c -0.0566,-0.0117 -0.10052,-0.0485 -0.13229,-0.1111 l -0.22531,0.31884 0.001,-0.11627 0.37879,-0.49299 c 0.0178,0.10174 0.0739,0.16312 0.16846,0.18397 0.0945,0.0208 0.17935,0.002 0.25373,-0.0574 -0.0829,0.17013 -0.15712,0.26746 -0.2222,0.29248 l -0.001,0.66818 -0.35709,0.47801 -0.4625,-0.31523 c -0.0511,-0.0334 -0.12148,-0.0343 -0.21136,-0.003 0.0875,-0.0717 0.15427,-0.10526 0.19999,-0.10026 v -1.0144 c -0.0442,-0.003 -0.11037,-0.0389 -0.19792,-0.10646 0.0798,0.0284 0.14497,0.0295 0.19533,0.004 z m 0.0114,0.88677 0.0651,0.0589 v 0.75447 l -0.0651,0.0584 z" />
  </g>
</svg>
