<?xml version="1.0" encoding="UTF-8" standalone="no"?>
<!-- Created with Inkscape (http://www.inkscape.org/) -->

<svg
   width="5.670568mm"
   height="5.9010124mm"
   viewBox="0 0 5.670568 5.9010124"
   version="1.1"
   id="svg1"
   xmlns="http://www.w3.org/2000/svg"
   xmlns:svg="http://www.w3.org/2000/svg">
  <defs
     id="defs1">
    <linearGradient
       id="swatch4">
      <stop
         style="stop-color:#000000;stop-opacity:1;"
         offset="0"
         id="stop4" />
    </linearGradient>
  </defs>
  <g
     id="layer3"
     transform="translate(-178.22253,-195.72521)">
    <path
       id="path237-317-04-5-6"
       style="fill:#ffffff;fill-opacity:1;stroke:none;stroke-width:0.200527;stroke-dasharray:none;stroke-opacity:1"
       d="m 181.05761,195.72526 c -0.12765,0 -1.63099,0.48824 -1.73426,0.56327 -0.10327,0.075 -1.03232,1.35396 -1.07177,1.47536 -0.0183,0.0563 -0.0276,0.42791 -0.0289,0.82063 0.008,-0.005 0.0144,-0.009 0.0227,-0.014 0.0745,-0.0438 0.17703,-0.097 0.29973,-0.15709 0.24539,-0.12015 0.572,-0.26756 0.90795,-0.41135 0.33595,-0.14379 0.68048,-0.28356 0.96118,-0.3886 0.14035,-0.0525 0.26407,-0.0963 0.36639,-0.12816 0.0512,-0.0159 0.0965,-0.0286 0.13952,-0.0388 0.043,-0.0101 0.0759,-0.0207 0.15142,-0.0207 0.0755,0 0.10838,0.0105 0.15141,0.0207 0.043,0.0101 0.0884,0.0228 0.13952,0.0388 0.10233,0.0319 0.22604,0.0756 0.36639,0.12816 0.2807,0.10504 0.62575,0.24481 0.9617,0.3886 0.33595,0.14379 0.66256,0.2912 0.90795,0.41135 0.12024,0.0589 0.22047,0.11071 0.29456,0.15399 -0.002,-0.38625 -0.0109,-0.74812 -0.0289,-0.80357 -0.0394,-0.1214 -0.96902,-1.40033 -1.07229,-1.47536 -0.10327,-0.075 -1.60661,-0.56327 -1.73426,-0.56327 z m 0.0139,1.83555 c -0.002,3.3e-4 -0.002,1.1e-4 -0.004,5.1e-4 -0.0247,0.006 -0.0622,0.016 -0.10697,0.03 -0.0512,0.016 -0.11423,0.0373 -0.18242,0.0615 0.0212,0.0885 0.0748,0.14298 0.16227,0.16226 0.0945,0.0209 0.17676,0.002 0.2465,-0.0574 -0.0775,0.20349 -0.17291,0.30967 -0.28681,0.31885 -0.1139,0.009 -0.20415,-0.0425 -0.27078,-0.15503 l -0.12558,0.0749 0.24547,-0.3328 c -0.0431,0.0155 -0.0854,0.0306 -0.13333,0.0486 -0.27259,0.102 -0.61453,0.24073 -0.94671,0.38292 -0.33219,0.14218 -0.6557,0.28795 -0.894,0.40463 -0.11916,0.0583 -0.21701,0.10948 -0.28216,0.14779 -0.0326,0.0191 -0.0567,0.0354 -0.0703,0.046 -9.9e-4,7.7e-4 -6.9e-4,8.8e-4 -0.002,0.002 8.1e-4,7.4e-4 5.2e-4,8.5e-4 0.002,0.002 0.0136,0.0106 0.0377,0.0268 0.0703,0.046 0.0652,0.0383 0.163,0.0894 0.28216,0.14779 0.2383,0.11667 0.56181,0.26245 0.894,0.40463 0.25948,0.11107 0.51562,0.21441 0.74931,0.30541 l 0.34985,-0.31781 c 0.0256,0.10174 0.0791,0.16312 0.15968,0.18397 0.0806,0.0208 0.17238,0.002 0.27543,-0.0574 -0.0969,0.18682 -0.20495,0.28893 -0.32349,0.30645 -0.11777,0.0175 -0.22665,-0.03 -0.3266,-0.14263 l -0.10697,0.0388 c 0.0556,0.0215 0.11832,0.047 0.1695,0.0661 0.1363,0.051 0.25518,0.093 0.34468,0.12093 0.0447,0.0139 0.0823,0.0242 0.10697,0.03 0.002,4e-4 0.002,1.8e-4 0.004,5.1e-4 0.002,-3.3e-4 0.002,-1.1e-4 0.004,-5.1e-4 0.0247,-0.006 0.0622,-0.016 0.10697,-0.03 0.0895,-0.0279 0.2089,-0.0699 0.3452,-0.12093 0.0382,-0.0143 0.0854,-0.034 0.12609,-0.0496 -0.056,-0.0209 -0.13376,-0.031 -0.23461,-0.0305 l -0.22789,-0.21032 v -0.6475 l -0.36019,-0.14263 0.36019,-0.16898 v -0.66198 l 0.24184,0.20877 c 0.0504,0.0259 0.11502,0.0247 0.19482,-0.004 -0.0876,0.0676 -0.15324,0.10311 -0.1974,0.10645 v 0.3514 l -0.44287,0.154 0.44184,0.15399 v 0.73277 c 0.0899,0.003 0.1748,0.0519 0.25476,0.14625 0.24304,-0.094 0.51516,-0.20395 0.78962,-0.32143 0.33218,-0.14218 0.65621,-0.28796 0.89451,-0.40463 0.11916,-0.0583 0.21701,-0.10949 0.28216,-0.14779 0.0326,-0.0192 0.0567,-0.0354 0.0703,-0.046 9.8e-4,-7.7e-4 6.9e-4,-8.8e-4 0.002,-0.002 -8.1e-4,-7.4e-4 -5.2e-4,-8.5e-4 -0.002,-0.002 -0.0136,-0.0106 -0.0377,-0.0268 -0.0703,-0.046 -0.0651,-0.0383 -0.163,-0.0895 -0.28216,-0.14779 -0.2383,-0.11668 -0.56233,-0.26245 -0.89451,-0.40463 -0.33219,-0.14219 -0.67361,-0.28092 -0.9462,-0.38292 -0.1363,-0.051 -0.2557,-0.093 -0.3452,-0.12093 -0.0447,-0.0139 -0.0823,-0.0242 -0.10697,-0.03 -0.002,-4e-4 -0.002,-1.8e-4 -0.004,-5.1e-4 z m 0.0842,1.19992 -0.001,0.56431 c -0.11622,-0.0592 -0.23001,-0.0624 -0.34158,-0.01 0.0387,-0.0934 0.13081,-0.131 0.27647,-0.11265 v -0.1416 c -0.0891,-0.0409 -0.17367,-0.0291 -0.25425,0.0351 0.0178,-0.0984 0.10239,-0.14616 0.25425,-0.14366 v -0.14521 z m -2.93315,0.045 c 0.002,0.37797 0.0113,0.72746 0.0289,0.78187 0.0395,0.12141 0.9685,1.40033 1.07177,1.47536 0.10327,0.075 1.60661,0.56327 1.73426,0.56327 0.12765,0 1.63099,-0.48824 1.73426,-0.56327 0.10327,-0.075 1.03284,-1.35395 1.07229,-1.47536 0.0174,-0.0536 0.0264,-0.39355 0.0284,-0.76482 -0.0741,0.0433 -0.17399,0.0952 -0.29404,0.154 -0.2454,0.12014 -0.57201,0.26755 -0.90796,0.41134 -0.33595,0.1438 -0.681,0.28358 -0.9617,0.38861 -0.14034,0.0525 -0.26406,0.0963 -0.36638,0.12816 -0.0512,0.0159 -0.0965,0.0291 -0.13953,0.0393 -0.043,0.0101 -0.0759,0.0202 -0.15141,0.0202 -0.0755,0 -0.10838,-0.01 -0.15141,-0.0202 -0.043,-0.0101 -0.0884,-0.0233 -0.13953,-0.0393 -0.10232,-0.0319 -0.22604,-0.0756 -0.36638,-0.12816 -0.2807,-0.10503 -0.62524,-0.24481 -0.96119,-0.38861 -0.33594,-0.14379 -0.66256,-0.2912 -0.90795,-0.41134 -0.1227,-0.0601 -0.22524,-0.1133 -0.29972,-0.1571 -0.008,-0.005 -0.015,-0.009 -0.0227,-0.0139 z" />
  </g>
</svg>
