<?xml version="1.0" encoding="UTF-8" standalone="no"?>
<!-- Created with Inkscape (http://www.inkscape.org/) -->

<svg
   width="7.2042279mm"
   height="6.3609805mm"
   viewBox="0 0 7.2042279 6.3609805"
   version="1.1"
   id="svg1"
   xmlns="http://www.w3.org/2000/svg"
   xmlns:svg="http://www.w3.org/2000/svg">
  <defs
     id="defs1">
    <linearGradient
       id="swatch4">
      <stop
         style="stop-color:#000000;stop-opacity:1;"
         offset="0"
         id="stop4" />
    </linearGradient>
  </defs>
  <g
     id="layer3"
     transform="translate(-169.69256,-128.27602)">
    <path
       id="path34-39-1-5"
       style="fill:#ffffff;fill-opacity:1;stroke:none;stroke-width:0.250658;stroke-dasharray:none;stroke-opacity:1"
       d="m 176.01568,132.36467 c 0.50569,-0.47548 0.88109,-0.85971 0.88109,-0.93534 0,-0.20955 -2.85254,-2.76497 -3.48816,-3.1533 z" />
    <path
       id="path257-2-2"
       style="fill:#ffffff;fill-opacity:1;stroke:none;stroke-width:0.250658;stroke-dasharray:none;stroke-opacity:1"
       d="m 173.29426,128.56347 -2.52698,3.961 -0.0729,-0.0465 c 1.00837,0.93865 2.43676,2.15904 2.59985,2.15904 0.16424,0 1.61163,-1.2375 2.62102,-2.17868 l -0.0971,0.062 z m -0.22841,2.38125 c 0.0434,0.10175 0.11347,0.1681 0.21033,0.19895 0.0968,0.03 0.23236,-0.0315 0.40669,-0.185 -0.1232,0.25018 -0.24293,0.38898 -0.35915,0.41651 -0.11545,0.0275 -0.22872,-0.0307 -0.33952,-0.17415 l -0.13694,0.0713 z m 0.64234,0.0196 v 0.90537 l -0.58084,0.5178 v 0.41031 l 0.5333,-0.001 c 0.0728,-0.17346 0.18118,-0.28756 0.32453,-0.34261 -0.14644,0.0901 -0.2504,0.28048 -0.31161,0.57154 l -0.74259,-0.002 c -0.13327,0.008 -0.24214,-0.0157 -0.3266,-0.0708 0.15031,0.004 0.24496,-0.0364 0.28371,-0.12144 v -0.38395 l 0.59479,-0.53434 v -0.60564 -5.2e-4 c 0.0744,-0.05 0.14938,-0.16414 0.22531,-0.34262 z m -0.25218,0.35967 -0.001,0.56379 v 5.2e-4 c -0.11622,-0.0595 -0.23001,-0.0629 -0.34158,-0.0103 0.0387,-0.0934 0.1308,-0.13098 0.27647,-0.11265 v -0.1416 c -0.0891,-0.0408 -0.17367,-0.029 -0.25425,0.0351 0.0178,-0.0987 0.10238,-0.14642 0.25425,-0.14366 v -0.14521 z" />
    <path
       id="path256-6-2"
       style="fill:#ffffff;fill-opacity:1;stroke:none;stroke-width:0.250658;stroke-dasharray:none;stroke-opacity:1"
       d="m 173.17968,128.27655 c -0.63719,0.38995 -3.48713,2.94332 -3.48713,3.15278 0,0.0756 0.37506,0.4595 0.88057,0.93482 z" />
  </g>
</svg>
