<?xml version="1.0" encoding="UTF-8" standalone="no"?>
<!-- Created with Inkscape (http://www.inkscape.org/) -->

<svg
   width="6.7473111mm"
   height="6.0509062mm"
   viewBox="0 0 6.7473111 6.0509062"
   version="1.1"
   id="svg1"
   xmlns="http://www.w3.org/2000/svg"
   xmlns:svg="http://www.w3.org/2000/svg">
  <defs
     id="defs1">
    <linearGradient
       id="swatch4">
      <stop
         style="stop-color:#000000;stop-opacity:1;"
         offset="0"
         id="stop4" />
    </linearGradient>
  </defs>
  <g
     id="layer3"
     transform="translate(-177.71754,-106.05113)">
    <path
       id="path185-3"
       style="display:inline;fill:#ffffff;fill-opacity:1;stroke:none;stroke-width:0.200527;stroke-dasharray:none;stroke-opacity:1"
       onmouseover=""
       d="m 181.0912,106.05114 c -0.33672,0 -3.5356,5.5406 -3.36724,5.8322 0.16836,0.29161 6.56612,0.29161 6.73448,0 0.16836,-0.2916 -3.03052,-5.8322 -3.36724,-5.8322 z m -0.25993,2.55178 c 0.017,0.10175 0.0729,0.16312 0.16743,0.18397 0.0945,0.0209 0.17676,0.001 0.2465,-0.0579 -0.0775,0.20349 -0.17291,0.31019 -0.28681,0.31936 -0.1139,0.009 -0.20415,-0.043 -0.27078,-0.15554 l -0.12558,0.0755 z m 0.41754,0.13643 0.24185,0.20877 c 0.0504,0.0259 0.11501,0.0247 0.19482,-0.004 -0.0875,0.0675 -0.15324,0.1026 -0.1974,0.10594 v 0.35192 l -0.44287,0.15347 0.44183,0.154 v 0.73329 c 0.10925,0.003 0.21088,0.074 0.30541,0.21239 -0.0442,-0.0575 -0.14916,-0.0856 -0.31574,-0.0847 l -0.2279,-0.21032 v -0.64803 l -0.36018,-0.14262 0.36018,-0.16899 z m -0.0351,0.99322 -0.001,0.56379 c -0.11622,-0.0592 -0.23,-0.0624 -0.34158,-0.01 0.0387,-0.0934 0.13081,-0.131 0.27647,-0.11265 v -0.14108 c -0.0891,-0.0409 -0.17366,-0.0296 -0.25425,0.0346 0.0178,-0.0984 0.10239,-0.14616 0.25425,-0.14366 v -0.14521 z m -0.38705,0.52297 c 0.0256,0.10174 0.0791,0.1626 0.15968,0.18345 0.0806,0.0208 0.17238,0.002 0.27543,-0.0574 -0.0968,0.18681 -0.20495,0.28892 -0.32349,0.30644 -0.11777,0.0175 -0.22665,-0.03 -0.3266,-0.14263 l -0.17311,0.0625 z" />
  </g>
</svg>
