<?xml version="1.0" encoding="UTF-8" standalone="no"?>
<!-- Created with Inkscape (http://www.inkscape.org/) -->

<svg
   width="5.7248282mm"
   height="5.6291461mm"
   viewBox="0 0 5.7248282 5.6291461"
   version="1.1"
   id="svg1"
   xmlns="http://www.w3.org/2000/svg"
   xmlns:svg="http://www.w3.org/2000/svg">
  <defs
     id="defs1">
    <linearGradient
       id="swatch4">
      <stop
         style="stop-color:#000000;stop-opacity:1;"
         offset="0"
         id="stop4" />
    </linearGradient>
  </defs>
  <g
     id="layer3"
     transform="translate(-232.37573,-181.20675)">
    <path
       id="path24-11-10-49-9"
       style="display:inline;fill:#ffffff;fill-opacity:1;stroke:none;stroke-width:0.200527;stroke-dasharray:none;stroke-opacity:1"
       d="m 235.23777,181.20676 c -1.16547,0 -2.32855,0.0383 -2.64067,0.11421 l 2.66651,1.89446 2.5926,-1.90014 c -0.34404,-0.0724 -1.48079,-0.10853 -2.61844,-0.10853 z m 2.75642,0.2558 -2.56935,1.88361 c 0.0366,0.0272 0.0754,0.0602 0.11988,0.1018 0.0994,0.093 0.22203,0.22296 0.36122,0.37827 0.2784,0.31061 0.62086,0.72419 0.95085,1.1436 0.32999,0.4194 0.64697,0.84394 0.87436,1.17616 0.1137,0.16612 0.2046,0.30943 0.26459,0.41909 0.005,0.009 0.008,0.0163 0.0129,0.0248 0.12718,-0.88983 0.12241,-4.44123 -0.0145,-5.12734 z m -5.51594,0.0202 c -0.13548,0.74634 -0.13659,4.35136 -0.004,5.15162 0.0105,-0.0216 0.0224,-0.0442 0.0362,-0.0693 0.06,-0.10966 0.15088,-0.25297 0.26458,-0.41909 0.22739,-0.33222 0.54438,-0.75676 0.87436,-1.17616 0.32999,-0.41941 0.67297,-0.83299 0.95137,-1.1436 0.1392,-0.15531 0.26127,-0.28532 0.3607,-0.37827 0.0479,-0.0448 0.0907,-0.0803 0.12971,-0.10852 z m 2.7745,1.98075 c -0.0268,0.0195 -0.0631,0.0504 -0.10697,0.0915 -0.092,0.086 -0.21267,0.21229 -0.34985,0.36535 -0.27436,0.30611 -0.61535,0.71814 -0.94361,1.13534 -0.32825,0.4172 -0.64407,0.83996 -0.86816,1.16737 -0.11205,0.16371 -0.20079,0.30415 -0.25632,0.40566 -0.0265,0.0485 -0.0436,0.0864 -0.0532,0.11317 0.0365,0.007 0.0904,0.0154 0.1602,0.0227 0.14756,0.0155 0.35694,0.0286 0.60617,0.0393 0.49845,0.0213 1.15526,0.032 1.81177,0.032 0.65651,0 1.31384,-0.0108 1.81229,-0.032 0.24923,-0.0106 0.45964,-0.0238 0.6072,-0.0393 0.0702,-0.007 0.12376,-0.0155 0.1602,-0.0227 -0.01,-0.0268 -0.0277,-0.0647 -0.0543,-0.11317 -0.0555,-0.10151 -0.14427,-0.24195 -0.25632,-0.40566 -0.22409,-0.32741 -0.54042,-0.75017 -0.86868,-1.16737 -0.32825,-0.4172 -0.66925,-0.82923 -0.94361,-1.13534 -0.13718,-0.15306 -0.2573,-0.27932 -0.34933,-0.36535 -0.0439,-0.0411 -0.0807,-0.072 -0.10749,-0.0915 z m -0.61029,1.03818 c 0.001,0.13094 0.0838,0.20135 0.24649,0.21136 l -0.11007,0.14625 -10e-4,1.38389 0.19792,0.0863 c 0.0496,-0.0567 0.11088,-0.0834 0.18449,-0.0801 -0.0713,0.0367 -0.16749,0.14471 -0.28836,0.32401 l -0.2775,-0.1049 c -0.0356,0.055 -0.11762,0.0851 -0.24546,0.0909 0.0961,-0.0459 0.16383,-0.1113 0.20257,-0.19637 l 0.001,-1.49862 c -0.0411,-0.007 -0.0726,-0.0255 -0.0951,-0.0563 l -0.19431,0.0703 z m 1.07176,0.003 c 0.004,0.0709 0.0584,0.13429 0.16382,0.19017 0.10615,0.0559 0.21812,0.047 0.3359,-0.0264 l -0.12661,0.14883 v 1.16737 l -0.22428,0.197 v -0.66146 c 0.10073,-0.004 0.1509,-0.0513 0.1509,-0.14056 0,-0.0901 -0.0502,-0.13468 -0.1509,-0.13385 v -0.28473 c -0.12164,-0.0334 -0.22276,-0.10744 -0.30334,-0.22169 v 0.50539 c -0.10072,0.003 -0.15141,0.0489 -0.15141,0.13643 0,0.0867 0.0507,0.13245 0.15141,0.13746 v 0.7121 l 0.18345,0.12505 0.34417,-0.33279 -0.006,0.1173 -0.43822,0.44029 -0.31161,-0.19017 c -0.0356,-0.0167 -0.0868,-0.0171 -0.15348,-0.002 0.0643,-0.055 0.11241,-0.0845 0.14418,-0.0879 v -1.35237 c -0.0364,0.0133 -0.0907,-0.0136 -0.16278,-0.0811 0.0643,0.0284 0.1181,0.0295 0.16071,0.004 z m -0.81493,0.27388 v 1.34256 l -0.0651,0.0584 v -1.30948 z m 0.80718,0.2651 c 0.008,0 0.0172,0.002 0.0253,0.006 0.0163,0.008 0.0264,0.0211 0.031,0.0377 0.005,0.0158 0.005,0.0319 0,0.0486 -0.005,0.0167 -0.0183,0.0294 -0.0393,0.0377 v 0.18758 h 0.10232 c 0.008,-0.0225 0.0191,-0.0365 0.0346,-0.0424 0.0155,-0.006 0.0308,-0.006 0.0455,0 0.0155,0.005 0.0274,0.0161 0.0351,0.0336 0.008,0.0175 0.008,0.0361 0,0.0553 -0.007,0.0183 -0.0191,0.0301 -0.0362,0.0351 -0.0171,0.005 -0.0336,0.003 -0.0491,-0.004 -0.0155,-0.008 -0.0253,-0.0226 -0.03,-0.046 h -0.10181 l 5.2e-4,0.64182 c 0.0209,0.008 0.0344,0.0205 0.0398,0.0372 0.005,0.0167 0.005,0.0334 0,0.0501 -0.005,0.0159 -0.0152,0.0278 -0.0315,0.0362 -0.0163,0.008 -0.0333,0.009 -0.0512,0.002 -0.0171,-0.008 -0.0279,-0.022 -0.0326,-0.0403 -0.005,-0.0183 -0.003,-0.036 0.004,-0.0527 0.007,-0.0167 0.0212,-0.027 0.0429,-0.032 l -5.2e-4,-0.64182 h -0.1111 c -0.005,0.0233 -0.0145,0.0385 -0.03,0.046 -0.0155,0.007 -0.032,0.009 -0.0491,0.004 -0.0171,-0.005 -0.0295,-0.0168 -0.0372,-0.0351 -0.007,-0.0192 -0.007,-0.0378 0.001,-0.0553 0.008,-0.0175 0.0194,-0.0286 0.0341,-0.0336 0.0155,-0.006 0.031,-0.006 0.0465,0 0.0155,0.006 0.0269,0.0199 0.0346,0.0424 h 0.11059 v -0.18758 c -0.0217,-0.005 -0.0359,-0.0159 -0.0429,-0.0326 -0.007,-0.0167 -0.008,-0.0344 -0.004,-0.0527 0.005,-0.0183 0.0155,-0.0312 0.0326,-0.0388 0.009,-0.004 0.0173,-0.006 0.0258,-0.006 z" />
  </g>
</svg>
