<?xml version="1.0" encoding="UTF-8" standalone="no"?>
<!-- Created with Inkscape (http://www.inkscape.org/) -->

<svg
   width="7.2042117mm"
   height="6.3448806mm"
   viewBox="0 0 7.2042117 6.3448806"
   version="1.1"
   id="svg1"
   xmlns="http://www.w3.org/2000/svg"
   xmlns:svg="http://www.w3.org/2000/svg">
  <defs
     id="defs1">
    <linearGradient
       id="swatch4">
      <stop
         style="stop-color:#000000;stop-opacity:1;"
         offset="0"
         id="stop4" />
    </linearGradient>
  </defs>
  <g
     id="layer3"
     transform="translate(-169.71723,-158.60299)">
    <path
       id="path34-81-8-39-8-7"
       style="fill:#ffffff;fill-opacity:1;stroke:none;stroke-width:0.200326;stroke-dasharray:none;stroke-opacity:1"
       d="m 173.25189,158.60298 c -0.53449,0.28392 -3.53467,2.96693 -3.53467,3.18171 0,0.0765 0.38354,0.46819 0.89762,0.95085 z m 0.13384,0 2.6355,4.13463 c 0.5152,-0.48363 0.9002,-0.87636 0.9002,-0.95292 0,-0.2149 -3.00363,-2.90028 -3.5357,-3.18171 z m -0.0667,0.26613 -2.45928,3.85816 2.46341,1.11053 2.4505,-1.11569 z m -0.25322,1.80144 c 0.0434,0.10175 0.11348,0.1681 0.21033,0.19895 0.0968,0.03 0.23236,-0.0315 0.40669,-0.185 -0.12319,0.2502 -0.24293,0.38899 -0.35915,0.41652 -0.11545,0.0275 -0.22872,-0.0302 -0.33951,-0.17364 l -0.13695,0.0713 z m 0.64234,0.0202 v 0.90589 l -0.58084,0.5178 v 0.41031 l 0.5333,-0.001 c 0.0728,-0.17347 0.18119,-0.28809 0.32453,-0.34313 -0.14644,0.0901 -0.2504,0.28099 -0.31161,0.57205 l -0.74259,-0.003 c -0.13327,0.008 -0.24214,-0.0163 -0.3266,-0.0713 0.15032,0.004 0.24497,-0.0364 0.28371,-0.12144 v -0.38396 l 0.59479,-0.53433 v -0.60565 c 0.0744,-0.05 0.14938,-0.16414 0.22531,-0.34262 z m -0.25218,0.35916 -0.001,0.5643 c -0.11622,-0.0592 -0.23001,-0.0629 -0.34158,-0.0103 0.0387,-0.0934 0.13081,-0.13101 0.27647,-0.11266 v -0.14107 c -0.0891,-0.0409 -0.17367,-0.0291 -0.25425,0.0351 0.0178,-0.0984 0.10239,-0.14668 0.25425,-0.14418 v -0.14521 z m 2.3673,1.87172 -2.4045,1.09347 v 0.93276 c 0.36198,-0.21531 1.5174,-1.20608 2.4045,-2.02623 z m -4.99608,0.0103 c 0.88385,0.81645 2.02802,1.79843 2.39055,2.01538 v -0.93637 z" />
  </g>
</svg>
