<?xml version="1.0" encoding="UTF-8" standalone="no"?>
<!-- Created with Inkscape (http://www.inkscape.org/) -->

<svg
   width="6.9887209mm"
   height="6.237216mm"
   viewBox="0 0 6.9887209 6.237216"
   version="1.1"
   id="svg1"
   xmlns="http://www.w3.org/2000/svg"
   xmlns:svg="http://www.w3.org/2000/svg">
  <defs
     id="defs1">
    <linearGradient
       id="swatch4">
      <stop
         style="stop-color:#000000;stop-opacity:1;"
         offset="0"
         id="stop4" />
    </linearGradient>
  </defs>
  <g
     id="layer3"
     transform="translate(-177.62117,-150.54917)">
    <path
       id="path94-48-5-8"
       style="fill:#ffffff;fill-opacity:1;stroke:none;stroke-width:0.192506;stroke-dasharray:none;stroke-opacity:1"
       d="m 181.11446,150.5492 c -0.70358,0 -1.40045,0.0158 -1.6583,0.0465 l 0.55552,1.00873 c 0.024,-0.004 0.0526,-0.006 0.0863,-0.009 0.0687,-0.006 0.15876,-0.0105 0.26407,-0.014 0.21061,-0.007 0.48121,-0.0109 0.75241,-0.0109 0.2712,0 0.54231,0.004 0.75292,0.0109 0.10531,0.004 0.19541,0.008 0.26407,0.014 0.0343,0.003 0.0636,0.005 0.0879,0.009 l 0.57567,-1.00666 c -0.24075,-0.0323 -0.95882,-0.0486 -1.68051,-0.0486 z m -1.82625,0.13901 c -0.30393,0.40167 -1.4588,2.40171 -1.66398,2.88045 l 1.16169,0.002 c 0.008,-0.0183 0.0151,-0.0363 0.0258,-0.0589 0.0296,-0.0622 0.0703,-0.14214 0.11989,-0.23512 0.0991,-0.18595 0.23181,-0.42247 0.36741,-0.65733 0.1356,-0.23487 0.27455,-0.46764 0.38603,-0.64647 0.0557,-0.0894 0.10404,-0.16499 0.14314,-0.22169 0.009,-0.0132 0.0161,-0.0219 0.0243,-0.0331 z m 3.66593,0.0176 -0.57723,1.01235 c 0.008,0.0112 0.0152,0.0199 0.0243,0.0331 0.0391,0.0567 0.0874,0.13228 0.14315,0.22169 0.11147,0.17884 0.25042,0.4116 0.38602,0.64647 0.1356,0.23486 0.26828,0.47138 0.36742,0.65733 0.0496,0.093 0.0903,0.17291 0.11989,0.23512 0.0106,0.0224 0.0182,0.0402 0.0258,0.0584 l 1.1591,-0.007 c -0.2077,-0.48042 -1.32735,-2.42009 -1.64848,-2.85719 z m -1.83968,1.05782 c -0.26953,0 -0.53904,0.003 -0.74621,0.0103 -0.10359,0.004 -0.19137,0.008 -0.25477,0.0134 -0.0317,0.002 -0.0576,0.005 -0.0744,0.008 -0.002,3.4e-4 -0.003,0.001 -0.005,0.002 -10e-4,0.001 -0.002,0.002 -0.003,0.003 -0.0106,0.0133 -0.0259,0.0343 -0.0439,0.0605 -0.0361,0.0524 -0.0842,0.12651 -0.13901,0.21446 -0.10965,0.17591 -0.24712,0.40738 -0.38188,0.64079 -0.13477,0.23341 -0.26681,0.46872 -0.36432,0.65164 -0.0488,0.0915 -0.089,0.17044 -0.11628,0.22789 -0.0137,0.0287 -0.0243,0.0524 -0.0305,0.0682 -7.5e-4,0.002 -5.2e-4,0.003 -10e-4,0.005 5.5e-4,0.002 3.2e-4,0.003 10e-4,0.005 0.006,0.0158 0.0168,0.0395 0.0305,0.0682 0.0273,0.0574 0.0675,0.13592 0.11628,0.22738 0.0975,0.18291 0.22955,0.41823 0.36432,0.65164 0.13476,0.23342 0.27223,0.4654 0.38188,0.64131 0.0548,0.088 0.10291,0.16209 0.13901,0.21445 0.0181,0.0262 0.0333,0.0468 0.0439,0.0599 0.002,0.002 0.002,0.002 0.004,0.004 0.002,3.4e-4 0.002,7.2e-4 0.004,10e-4 0.0168,0.002 0.0427,0.005 0.0744,0.008 0.0634,0.005 0.15118,0.009 0.25477,0.0129 0.20717,0.007 0.47668,0.0103 0.74621,0.0103 0.26952,0 0.53955,-0.003 0.74672,-0.0103 0.10358,-0.003 0.19137,-0.008 0.25477,-0.0129 0.0317,-0.002 0.0576,-0.005 0.0744,-0.008 0.002,-2.7e-4 0.002,-7.2e-4 0.004,-10e-4 0.002,-0.002 0.003,-0.002 0.004,-0.004 0.0106,-0.0133 0.0259,-0.0337 0.0439,-0.0599 0.0361,-0.0524 0.0842,-0.12649 0.13901,-0.21445 0.10965,-0.17591 0.24712,-0.40789 0.38188,-0.64131 0.13477,-0.23341 0.26681,-0.46873 0.36432,-0.65164 0.0488,-0.0915 0.089,-0.16993 0.11628,-0.22738 0.0136,-0.0287 0.0243,-0.0524 0.0305,-0.0682 7.5e-4,-0.002 5.1e-4,-0.003 0.001,-0.005 -5.5e-4,-0.002 -3.2e-4,-0.003 -0.001,-0.005 -0.006,-0.0158 -0.0168,-0.0395 -0.0305,-0.0682 -0.0273,-0.0575 -0.0675,-0.13643 -0.11628,-0.22789 -0.0975,-0.18292 -0.22955,-0.41823 -0.36432,-0.65164 -0.13476,-0.23341 -0.27223,-0.46488 -0.38188,-0.64079 -0.0548,-0.0879 -0.10291,-0.1621 -0.13901,-0.21446 -0.018,-0.0262 -0.0333,-0.0472 -0.0439,-0.0605 -0.001,-0.001 -0.002,-0.002 -0.003,-0.003 -0.002,-6.9e-4 -0.003,-10e-4 -0.005,-0.002 -0.0168,-0.002 -0.0427,-0.005 -0.0744,-0.008 -0.0634,-0.005 -0.15119,-0.01 -0.25477,-0.0134 -0.20717,-0.007 -0.4772,-0.0103 -0.74672,-0.0103 z m -0.28319,0.85938 c 0.017,0.10175 0.0729,0.1626 0.16743,0.18345 0.0945,0.0208 0.17676,0.002 0.2465,-0.0574 -0.0775,0.20349 -0.17291,0.30967 -0.28681,0.31884 -0.11389,0.009 -0.20415,-0.0424 -0.27078,-0.15503 l -0.12557,0.0749 z m 0.41755,0.13591 0.24184,0.20929 c 0.0504,0.0259 0.11501,0.0242 0.19482,-0.004 -0.0875,0.0676 -0.15324,0.10312 -0.1974,0.10646 v 0.3514 l -0.44287,0.15399 0.44183,0.154 v 0.73329 c 0.10925,0.003 0.21088,0.0739 0.30541,0.21239 -0.0442,-0.0575 -0.14916,-0.0861 -0.31574,-0.0853 l -0.22789,-0.2098 v -0.64803 l -0.36019,-0.14262 0.36019,-0.16899 z m -0.0351,0.99374 -0.001,0.56379 c -0.11623,-0.0592 -0.23001,-0.0624 -0.34159,-0.01 0.0387,-0.0934 0.13081,-0.131 0.27647,-0.11266 v -0.14107 c -0.0891,-0.0409 -0.17366,-0.0296 -0.25425,0.0346 0.0178,-0.0984 0.10239,-0.14616 0.25425,-0.14366 v -0.14521 z m 3.39617,0.004 -1.1653,0.006 c -0.008,0.0188 -0.0156,0.0378 -0.0269,0.0615 -0.0296,0.0622 -0.0703,0.14215 -0.11989,0.23513 -0.0991,0.18595 -0.23182,0.42246 -0.36742,0.65733 -0.1356,0.23487 -0.27455,0.46815 -0.38602,0.64698 -0.0557,0.0894 -0.10405,0.165 -0.14315,0.2217 -0.0144,0.0209 -0.0267,0.0364 -0.0388,0.0522 l 0.57826,1.01131 c 0.30495,-0.4024 1.47622,-2.43135 1.66915,-2.89182 z m -6.98872,0.004 c 0.19814,0.4686 1.36834,2.49456 1.66967,2.89026 l 0.58291,-1.00407 c -0.0138,-0.0177 -0.0284,-0.0372 -0.0455,-0.062 -0.0391,-0.0567 -0.0874,-0.13229 -0.14315,-0.2217 -0.11147,-0.17883 -0.25042,-0.41211 -0.38602,-0.64698 -0.1356,-0.23487 -0.26828,-0.47137 -0.36742,-0.65733 -0.0496,-0.093 -0.0903,-0.17292 -0.11989,-0.23513 -0.0112,-0.0235 -0.019,-0.0423 -0.0269,-0.061 z m 3.20549,0.5147 c 0.0256,0.10174 0.0791,0.16311 0.15968,0.18396 0.0806,0.0208 0.17238,0.002 0.27543,-0.0574 -0.0968,0.18681 -0.20494,0.28893 -0.32349,0.30644 -0.11777,0.0175 -0.22664,-0.03 -0.3266,-0.14262 l -0.17311,0.0625 z m 1.37149,1.45779 c -0.0202,0.002 -0.0406,0.005 -0.0667,0.007 -0.0686,0.005 -0.15876,0.01 -0.26407,0.0134 -0.2106,0.007 -0.48172,0.0109 -0.75292,0.0109 -0.2712,0 -0.5418,-0.004 -0.75241,-0.0109 -0.1053,-0.004 -0.19541,-0.008 -0.26407,-0.0134 -0.0208,-0.002 -0.0361,-0.004 -0.0532,-0.006 l -0.58187,1.00718 c 0.52833,0.0605 2.79547,0.06 3.30987,-0.001 z m 0.68678,0.97875 c -5.4e-4,5.1e-4 -0.001,10e-4 -0.002,0.002 l 0.002,-0.001 z m -0.002,0.002 -0.016,0.009 c 0.002,-0.001 0.009,-0.002 0.0103,-0.003 0.001,-7.4e-4 0.004,-0.004 0.006,-0.006 z" />
  </g>
</svg>
