<?xml version="1.0" encoding="UTF-8" standalone="no"?>
<!-- Created with Inkscape (http://www.inkscape.org/) -->

<svg
   width="7.2042117mm"
   height="6.3448324mm"
   viewBox="0 0 7.2042117 6.3448324"
   version="1.1"
   id="svg1"
   xmlns="http://www.w3.org/2000/svg"
   xmlns:svg="http://www.w3.org/2000/svg">
  <defs
     id="defs1">
    <linearGradient
       id="swatch4">
      <stop
         style="stop-color:#000000;stop-opacity:1;"
         offset="0"
         id="stop4" />
    </linearGradient>
  </defs>
  <g
     id="layer3"
     transform="translate(-216.21001,-158.5389)">
    <path
       id="path34-81-8-39-2-2-1"
       style="fill:#ffffff;fill-opacity:1;stroke:none;stroke-width:0.200326;stroke-dasharray:none;stroke-opacity:1"
       d="m 219.74466,158.5389 c -0.5345,0.28392 -3.53467,2.96694 -3.53467,3.18172 0,0.0765 0.38354,0.46818 0.89762,0.95084 z m 0.13384,0 2.6355,4.13463 c 0.5152,-0.48363 0.9002,-0.87635 0.9002,-0.95291 0,-0.2149 -3.00364,-2.90029 -3.5357,-3.18172 z m -0.0667,0.26613 -2.45928,3.85816 2.46341,1.11053 2.4505,-1.11569 z m 0.23203,1.81023 c 0.0315,-0.002 0.0627,0.003 0.094,0.0134 -0.0463,-0.0131 -0.12014,0.0199 -0.22066,0.0977 0.0213,0.0481 0.0647,0.0925 0.13229,0.13281 0.0945,0.0559 0.20598,0.047 0.33383,-0.0264 l -0.13849,0.14883 v 0.30386 l -0.22066,0.22273 v -0.40773 c -0.0637,-0.0101 -0.12867,-0.038 -0.19431,-0.0837 v 0.57206 l 0.10491,0.0558 0.31006,-0.30799 -0.006,0.11782 -0.22996,0.23771 c 0.0728,0.0325 0.13515,0.0543 0.18706,0.0651 0.0527,0.0108 0.11502,-0.006 0.18707,-0.0491 l -0.13849,0.14883 v 0.37931 l -0.24391,0.23512 v -0.60771 l -0.17105,-0.0822 v 0.60979 l -0.0708,0.0589 v -0.7028 l -0.0811,-0.0393 -0.002,0.76223 0.25838,0.11214 0.31006,-0.30748 -0.006,0.11783 -0.41393,0.41496 -0.39739,-0.19017 c -0.0387,-0.0167 -0.0946,-0.0176 -0.16743,-0.003 0.0705,-0.055 0.123,-0.084 0.1571,-0.0873 v -0.65164 c -0.0395,0.0134 -0.0985,-0.0141 -0.17674,-0.0816 0.0697,0.0284 0.12766,0.03 0.17415,0.004 l 0.16537,-0.14676 c -0.117,-0.006 -0.20415,0.003 -0.26149,0.0253 0.0705,-0.055 0.12223,-0.0845 0.15555,-0.0879 v -0.47646 c -0.0387,0.0133 -0.0974,-0.0136 -0.1757,-0.0811 0.0697,0.0283 0.12818,0.0295 0.17467,0.004 l 0.32091,-0.27441 c 0.0834,-0.0923 0.16685,-0.14093 0.24959,-0.14572 z m -0.34417,0.28887 v 0.61546 l 0.0594,0.0315 v -0.59066 c -0.0198,-0.0174 -0.0395,-0.0358 -0.0594,-0.0563 z m 2.61638,1.95337 -2.40451,1.09347 v 0.93276 c 0.36199,-0.21531 1.51741,-1.20608 2.40451,-2.02623 z m -4.99608,0.0103 c 0.88385,0.81645 2.02802,1.79843 2.39055,2.01538 v -0.93637 z" />
  </g>
</svg>
