<?xml version="1.0" encoding="UTF-8" standalone="no"?>
<!-- Created with Inkscape (http://www.inkscape.org/) -->

<svg
   width="7.2041955mm"
   height="6.3448324mm"
   viewBox="0 0 7.2041955 6.3448324"
   version="1.1"
   id="svg1"
   xmlns="http://www.w3.org/2000/svg"
   xmlns:svg="http://www.w3.org/2000/svg">
  <defs
     id="defs1">
    <linearGradient
       id="swatch4">
      <stop
         style="stop-color:#000000;stop-opacity:1;"
         offset="0"
         id="stop4" />
    </linearGradient>
  </defs>
  <g
     id="layer3"
     transform="translate(-177.51365,-158.55286)">
    <path
       id="path34-81-8-39-6-8"
       style="fill:#ffffff;fill-opacity:1;stroke:none;stroke-width:0.200326;stroke-dasharray:none;stroke-opacity:1"
       d="m 181.04831,158.55285 c -0.53449,0.28392 -3.53467,2.96694 -3.53467,3.18172 0,0.0765 0.38354,0.46818 0.89762,0.95084 z m 0.13384,0 2.6355,4.13463 c 0.5152,-0.48363 0.9002,-0.87635 0.9002,-0.95291 0,-0.2149 -3.00363,-2.90029 -3.5357,-3.18172 z m -0.0667,0.26613 -2.45928,3.85817 2.46342,1.11052 2.45049,-1.11569 z m -0.28422,1.86139 c 0.017,0.10175 0.0729,0.16312 0.16743,0.18397 0.0945,0.0208 0.17677,0.002 0.2465,-0.0574 -0.0775,0.20349 -0.17291,0.30967 -0.2868,0.31884 -0.1139,0.009 -0.20415,-0.0424 -0.27079,-0.15503 l -0.12557,0.0749 z m 0.41755,0.13643 0.24184,0.20928 c 0.0504,0.0259 0.11502,0.0242 0.19482,-0.004 -0.0875,0.0675 -0.15324,0.10312 -0.1974,0.10645 v 0.3514 l -0.44287,0.154 0.44184,0.154 v 0.73277 c 0.10925,0.003 0.21088,0.0745 0.3054,0.2129 -0.0442,-0.0575 -0.14915,-0.0861 -0.31574,-0.0853 l -0.22789,-0.20981 v -0.64802 l -0.36019,-0.14263 0.36019,-0.16898 z m -0.0351,0.99322 -0.001,0.5643 c -0.11622,-0.0592 -0.23001,-0.0624 -0.34158,-0.01 0.0387,-0.0934 0.1308,-0.131 0.27647,-0.11265 v -0.14159 c -0.0891,-0.0409 -0.17367,-0.0291 -0.25425,0.0351 0.0178,-0.0984 0.10238,-0.14617 0.25425,-0.14366 v -0.14522 z m -0.38706,0.52296 c 0.0256,0.10175 0.0791,0.16312 0.15968,0.18397 0.0806,0.0208 0.17239,0.002 0.27544,-0.0574 -0.0969,0.18681 -0.20495,0.28893 -0.3235,0.30644 -0.11777,0.0175 -0.22664,-0.03 -0.32659,-0.14263 l -0.17312,0.0625 z m 2.79311,0.53847 -2.4045,1.09347 v 0.93276 c 0.36199,-0.21531 1.51741,-1.20608 2.4045,-2.02623 z m -4.99607,0.0103 c 0.88385,0.81645 2.02802,1.79843 2.39055,2.01538 v -0.93638 z" />
  </g>
</svg>
