<?xml version="1.0" encoding="UTF-8" standalone="no"?>
<!-- Created with Inkscape (http://www.inkscape.org/) -->

<svg
   width="5.7148328mm"
   height="6.4037595mm"
   viewBox="0 0 5.7148328 6.4037595"
   version="1.1"
   id="svg1"
   xmlns="http://www.w3.org/2000/svg"
   xmlns:svg="http://www.w3.org/2000/svg">
  <defs
     id="defs1">
    <linearGradient
       id="swatch4">
      <stop
         style="stop-color:#000000;stop-opacity:1;"
         offset="0"
         id="stop4" />
    </linearGradient>
  </defs>
  <g
     id="layer3"
     transform="translate(-209.17252,-173.80721)">
    <path
       id="path63-83-3-5"
       style="fill:#ffffff;fill-opacity:1;stroke:none;stroke-width:0.174705;stroke-dasharray:none;stroke-opacity:1"
       d="m 212.0301,173.80722 c -0.13939,0 -2.05539,1.09551 -2.63085,1.48621 0.0437,-0.01 0.0919,-0.0191 0.14987,-0.0274 0.16072,-0.0229 0.37713,-0.0414 0.63303,-0.0563 0.51181,-0.0298 1.17975,-0.0439 1.84795,-0.0439 0.6682,0 1.33666,0.0141 1.84847,0.0439 0.2559,0.0149 0.4718,0.0333 0.63252,0.0563 0.0582,0.008 0.1065,0.0179 0.15038,0.0279 -0.57487,-0.3904 -2.49194,-1.48673 -2.63137,-1.48673 z m 0,1.56631 c -0.66512,0 -1.33026,0.014 -1.83554,0.0434 -0.25265,0.0147 -0.46581,0.0343 -0.61599,0.0558 -0.0751,0.0107 -0.13438,0.0213 -0.17208,0.032 -0.003,8.2e-4 -0.003,0.001 -0.006,0.002 6.7e-4,0.003 -3.1e-4,0.003 5.2e-4,0.007 0.01,0.038 0.0296,0.095 0.0579,0.16536 0.0565,0.14078 0.14635,0.33454 0.25993,0.56069 0.22716,0.4523 0.548,1.0363 0.88056,1.61231 0.33256,0.57601 0.67738,1.14446 0.9555,1.56734 0.13906,0.21144 0.26135,0.38659 0.35502,0.50592 0.0468,0.0597 0.0866,0.10603 0.11472,0.13332 0.002,0.002 0.003,0.002 0.005,0.004 0.002,-0.002 0.003,-0.002 0.005,-0.004 0.0281,-0.0273 0.0689,-0.0737 0.11576,-0.13332 0.0937,-0.11933 0.21595,-0.29448 0.35501,-0.50592 0.27812,-0.42288 0.62346,-0.99133 0.95602,-1.56734 0.33256,-0.57601 0.65185,-1.16001 0.87901,-1.61231 0.11359,-0.22615 0.20498,-0.41991 0.26149,-0.56069 0.0283,-0.0704 0.0478,-0.12735 0.0574,-0.16536 8.6e-4,-0.003 3.8e-4,-0.004 10e-4,-0.007 -0.003,-8.2e-4 -0.003,-0.001 -0.006,-0.002 -0.0377,-0.0107 -0.097,-0.0213 -0.17209,-0.032 -0.15017,-0.0215 -0.36334,-0.0411 -0.61598,-0.0558 -0.50528,-0.0294 -1.17094,-0.0434 -1.83606,-0.0434 z m -2.82308,0.21549 c -0.0537,0.65032 -0.0446,2.94002 0.0264,3.06286 0.0715,0.12378 2.07752,1.29183 2.65048,1.55908 -0.001,-0.001 -0.002,-0.002 -0.003,-0.003 -0.0399,-0.0387 -0.0837,-0.0891 -0.13384,-0.15296 -0.10024,-0.12771 -0.22502,-0.30621 -0.36587,-0.52038 -0.28171,-0.42833 -0.62811,-0.99901 -0.96221,-1.57769 -0.33411,-0.57868 -0.65513,-1.16451 -0.88522,-1.62264 -0.11505,-0.22906 -0.20721,-0.42656 -0.26769,-0.57722 -0.0261,-0.065 -0.0452,-0.1192 -0.0589,-0.16795 z m 5.64617,0.002 c -0.0137,0.0484 -0.0321,0.10208 -0.0579,0.1664 -0.0605,0.15067 -0.15316,0.34815 -0.2682,0.57722 -0.2301,0.45813 -0.5506,1.04395 -0.88471,1.62264 -0.3341,0.57867 -0.68102,1.14935 -0.96273,1.57769 -0.14085,0.21416 -0.26511,0.39267 -0.36535,0.52038 -0.0501,0.0639 -0.0944,0.11421 -0.13436,0.15296 -9e-4,8.2e-4 -0.002,0.002 -0.003,0.002 0.57447,-0.26826 2.57855,-1.43486 2.64997,-1.55856 0.0709,-0.1227 0.0793,-2.40746 0.0258,-3.0608 z m -2.30787,0.37775 c -0.16581,0.23519 -0.33003,0.36494 -0.49196,0.38913 -0.16117,0.0233 -0.28736,-0.0131 -0.37879,-0.10904 l -0.17415,0.0785 0.27647,-0.3514 c 0.055,0.0801 0.15405,0.12558 0.29662,0.13643 0.14257,0.01 0.2998,-0.0377 0.47181,-0.14367 z m -0.015,0.0398 c -0.12779,0.29082 -0.22957,0.61584 -0.30541,0.97461 0.10666,0.003 0.22327,-0.0239 0.35036,-0.0811 -0.12736,0.13296 -0.25291,0.20417 -0.37723,0.21446 -0.0362,0.19111 -0.0652,0.39147 -0.0873,0.601 l 0.1974,0.0863 c 0.0496,-0.0567 0.11139,-0.0834 0.185,-0.0801 -0.0713,0.0367 -0.16748,0.1447 -0.28835,0.32401 l -0.30128,-0.10491 c -0.10847,0.0992 -0.24424,0.12932 -0.40772,0.091 0.16736,0.004 0.2889,-0.0613 0.36483,-0.19638 0.0615,-0.2758 0.12156,-0.51874 0.18035,-0.73018 -0.0548,-0.0124 -0.10165,-0.0349 -0.14056,-0.0677 l -0.13384,0.046 0.21394,-0.20877 c 0.0238,0.0364 0.0584,0.0633 0.10335,0.0811 0.12175,-0.40991 0.23742,-0.67901 0.34727,-0.80667 z m -0.52555,1.16737 -0.18707,0.65784 c -0.0953,-0.0517 -0.20599,-0.0173 -0.33228,0.10283 0.0682,-0.15679 0.17137,-0.23178 0.31006,-0.22427 l 0.0501,-0.14521 c -0.0744,-0.035 -0.16334,-0.0164 -0.26717,0.0553 0.0527,-0.10258 0.15432,-0.15806 0.30541,-0.1664 l 0.0734,-0.22996 z" />
  </g>
</svg>
