<?xml version="1.0" encoding="UTF-8" standalone="no"?>
<!-- Created with Inkscape (http://www.inkscape.org/) -->

<svg
   width="7.2042117mm"
   height="6.3448324mm"
   viewBox="0 0 7.2042117 6.3448324"
   version="1.1"
   id="svg1"
   xmlns="http://www.w3.org/2000/svg"
   xmlns:svg="http://www.w3.org/2000/svg">
  <defs
     id="defs1">
    <linearGradient
       id="swatch4">
      <stop
         style="stop-color:#000000;stop-opacity:1;"
         offset="0"
         id="stop4" />
    </linearGradient>
  </defs>
  <g
     id="layer3"
     transform="translate(-185.08633,-158.55027)">
    <path
       id="path34-81-8-39-1-5"
       style="fill:#ffffff;fill-opacity:1;stroke:none;stroke-width:0.200326;stroke-dasharray:none;stroke-opacity:1"
       d="m 188.62097,158.55027 c -0.53449,0.28392 -3.53466,2.96693 -3.53466,3.18171 0,0.0764 0.38354,0.46819 0.89762,0.95085 z m 0.13385,0 2.63549,4.13463 c 0.51521,-0.48363 0.90021,-0.87636 0.90021,-0.95292 0,-0.2149 -3.00364,-2.90028 -3.5357,-3.18171 z m -0.0667,0.26613 -2.45929,3.85816 2.46342,1.11053 2.4505,-1.11569 z m 0.15348,1.86707 c 0.0201,0.10175 0.0822,0.16312 0.18603,0.18397 0.1046,0.0208 0.19718,0.002 0.27854,-0.0574 -0.0914,0.17013 -0.20056,0.25751 -0.32763,0.26251 -0.1263,0.005 -0.22819,-0.0278 -0.30644,-0.0987 l -0.13746,0.0625 z m 0.23564,0.40049 v 1.06454 l 0.22117,10e-4 v 0.0816 l -0.22117,-0.003 v 0.16019 l 0.092,0.0713 c 0.0349,-0.055 0.0943,-0.0816 0.1788,-0.0791 -0.0581,0.0292 -0.14836,0.156 -0.27078,0.38034 l -0.19637,-0.14625 c -0.0744,0.0742 -0.17266,0.12158 -0.29508,0.1416 0.1015,-0.0642 0.17753,-0.1455 0.2279,-0.24391 v -0.26304 h -0.55656 v -0.0951 l 0.55656,0.002 v -1.06454 c 0.0883,0.0317 0.17599,0.0289 0.26355,-0.008 z m -0.27854,0.0124 c -0.10692,0.04 -0.21088,0.34598 -0.31161,0.91726 -0.14334,0.12927 -0.29617,0.16392 -0.45888,0.10387 0.11854,0.0275 0.24811,-0.13688 0.38912,-0.49299 0.14102,-0.35611 0.26825,-0.53231 0.38137,-0.52814 z m 2.39366,1.77251 -2.40451,1.09347 v 0.93276 c 0.36199,-0.21531 1.51741,-1.20608 2.40451,-2.02623 z m -4.99608,0.0103 c 0.88385,0.81645 2.02802,1.79843 2.39055,2.01538 v -0.93637 z" />
  </g>
</svg>
