<?xml version="1.0" encoding="UTF-8" standalone="no"?>
<!-- Created with Inkscape (http://www.inkscape.org/) -->

<svg
   width="5.7250705mm"
   height="5.6291461mm"
   viewBox="0 0 5.7250705 5.6291461"
   version="1.1"
   id="svg1"
   xmlns="http://www.w3.org/2000/svg"
   xmlns:svg="http://www.w3.org/2000/svg">
  <defs
     id="defs1">
    <linearGradient
       id="swatch4">
      <stop
         style="stop-color:#000000;stop-opacity:1;"
         offset="0"
         id="stop4" />
    </linearGradient>
  </defs>
  <g
     id="layer3"
     transform="translate(-278.75094,-181.20675)">
    <path
       id="path24-11-10-0-6"
       style="display:inline;fill:#ffffff;fill-opacity:1;stroke:none;stroke-width:0.200527;stroke-dasharray:none;stroke-opacity:1"
       d="m 281.61323,181.20676 c -1.16547,0 -2.32854,0.0383 -2.64067,0.11421 l 2.66651,1.89446 2.5926,-1.90014 c -0.34404,-0.0724 -1.48079,-0.10853 -2.61844,-0.10853 z m 2.75642,0.2558 -2.56935,1.88361 c 0.0366,0.0272 0.0754,0.0602 0.11989,0.1018 0.0994,0.093 0.22203,0.22296 0.36122,0.37827 0.2784,0.31061 0.62085,0.72419 0.95084,1.1436 0.32999,0.4194 0.64698,0.84394 0.87437,1.17616 0.11369,0.16612 0.2046,0.30943 0.26458,0.41909 0.005,0.009 0.008,0.0163 0.0129,0.0248 0.12719,-0.88983 0.12244,-4.44123 -0.0145,-5.12734 z m -5.51594,0.0202 c -0.13548,0.74634 -0.13721,4.35136 -0.004,5.15162 0.0105,-0.0216 0.0224,-0.0442 0.0362,-0.0693 0.06,-0.10966 0.15088,-0.25297 0.26458,-0.41909 0.22739,-0.33222 0.54438,-0.75676 0.87437,-1.17616 0.32998,-0.41941 0.67296,-0.83299 0.95136,-1.1436 0.1392,-0.15531 0.26127,-0.28532 0.3607,-0.37827 0.0479,-0.0448 0.0907,-0.0803 0.12971,-0.10852 z m 2.77451,1.98075 c -0.0268,0.0195 -0.063,0.0504 -0.10698,0.0915 -0.092,0.086 -0.21266,0.21229 -0.34984,0.36535 -0.27436,0.30611 -0.61536,0.71814 -0.94362,1.13534 -0.32825,0.4172 -0.64407,0.83996 -0.86816,1.16737 -0.11205,0.16371 -0.20079,0.30415 -0.25632,0.40566 -0.0265,0.0485 -0.0436,0.0864 -0.0532,0.11317 0.0364,0.007 0.0904,0.0154 0.16019,0.0227 0.14756,0.0155 0.35694,0.0286 0.60617,0.0393 0.49845,0.0213 1.15528,0.032 1.81178,0.032 0.65651,0 1.31383,-0.0108 1.81229,-0.032 0.24922,-0.0106 0.45964,-0.0238 0.6072,-0.0393 0.0702,-0.007 0.12376,-0.0155 0.16019,-0.0227 -0.01,-0.0268 -0.0277,-0.0647 -0.0543,-0.11317 -0.0555,-0.10151 -0.14427,-0.24195 -0.25631,-0.40566 -0.2241,-0.32741 -0.54043,-0.75017 -0.86868,-1.16737 -0.32826,-0.4172 -0.66926,-0.82923 -0.94362,-1.13534 -0.13718,-0.15306 -0.2573,-0.27932 -0.34933,-0.36535 -0.0439,-0.0411 -0.0807,-0.072 -0.10748,-0.0915 z m 0.4625,1.02371 c 0.0108,0.0817 0.0548,0.13263 0.13229,0.15348 0.0775,0.0208 0.15506,0.002 0.23254,-0.0574 -0.0984,0.19682 -0.1946,0.29782 -0.28835,0.30283 -0.0937,0.004 -0.1747,-0.0357 -0.24288,-0.11989 l -0.0801,0.0873 v 1.2361 l 0.32298,0.19999 0.0475,-0.0661 v -0.82217 c -0.0566,-0.0117 -0.10052,-0.0486 -0.13229,-0.1111 l -0.22531,0.31884 10e-4,-0.11627 0.37878,-0.49299 c 0.0178,0.10174 0.0739,0.16311 0.16847,0.18396 0.0945,0.0209 0.17935,0.002 0.25373,-0.0574 -0.0829,0.17013 -0.15712,0.26747 -0.22221,0.29249 l -10e-4,0.66818 -0.35709,0.478 -0.4625,-0.31522 c -0.0511,-0.0334 -0.12148,-0.0343 -0.21136,-0.003 0.0876,-0.0717 0.15428,-0.10525 0.19999,-0.10025 v -1.01441 c -0.0442,-0.003 -0.11037,-0.0389 -0.19792,-0.10645 0.0798,0.0284 0.14497,0.0295 0.19534,0.004 z m -1.14257,0.0238 c 0.002,0.13093 0.0838,0.20134 0.2465,0.21135 l -0.11059,0.14625 -0.001,1.38337 0.1974,0.0863 c 0.0496,-0.0567 0.1114,-0.0829 0.185,-0.0796 -0.0713,0.0367 -0.16748,0.14419 -0.28835,0.3235 l -0.27802,-0.10491 c -0.0356,0.055 -0.1171,0.0856 -0.24495,0.0915 0.0961,-0.0459 0.16332,-0.1113 0.20206,-0.19637 l 0.002,-1.49862 c -0.0411,-0.007 -0.0731,-0.0255 -0.0956,-0.0563 l -0.19431,0.0698 z m 0.25684,0.27646 v 1.34204 l -0.0651,0.0589 v -1.30999 z m 0.8971,0.58653 0.0651,0.0589 v 0.75448 l -0.0651,0.0584 z" />
  </g>
</svg>
