<?xml version="1.0" encoding="UTF-8" standalone="no"?>
<!-- Created with Inkscape (http://www.inkscape.org/) -->

<svg
   width="5.670455mm"
   height="5.9009638mm"
   viewBox="0 0 5.670455 5.9009638"
   version="1.1"
   id="svg1"
   xmlns="http://www.w3.org/2000/svg"
   xmlns:svg="http://www.w3.org/2000/svg">
  <defs
     id="defs1">
    <linearGradient
       id="swatch4">
      <stop
         style="stop-color:#000000;stop-opacity:1;"
         offset="0"
         id="stop4" />
    </linearGradient>
  </defs>
  <g
     id="layer3"
     transform="translate(-201.53544,-195.71905)">
    <path
       id="path237-317-04-38-9"
       style="fill:#ffffff;fill-opacity:1;stroke:none;stroke-width:0.200527;stroke-dasharray:none;stroke-opacity:1"
       d="m 204.3704,195.71906 c -0.12765,0 -1.63099,0.48824 -1.73426,0.56327 -0.10327,0.075 -1.03232,1.35396 -1.07177,1.47536 -0.0183,0.0563 -0.0276,0.4279 -0.0289,0.82062 0.008,-0.005 0.0144,-0.009 0.0227,-0.0139 0.0745,-0.0438 0.17703,-0.097 0.29972,-0.15709 0.2454,-0.12015 0.57201,-0.26756 0.90796,-0.41135 0.33595,-0.14379 0.68048,-0.28357 0.96118,-0.38861 0.14035,-0.0525 0.26406,-0.0963 0.36639,-0.12815 0.0512,-0.0159 0.0965,-0.0286 0.13952,-0.0388 0.043,-0.0101 0.0759,-0.0207 0.15141,-0.0207 0.0755,0 0.10839,0.0105 0.15142,0.0207 0.043,0.0101 0.0884,0.0228 0.13952,0.0388 0.10233,0.0319 0.22604,0.0756 0.36639,0.12815 0.28069,0.10504 0.62575,0.24482 0.9617,0.38861 0.33594,0.14379 0.66256,0.2912 0.90795,0.41135 0.12024,0.0589 0.22047,0.11071 0.29456,0.15399 -0.002,-0.38625 -0.0109,-0.74812 -0.0289,-0.80357 -0.0394,-0.1214 -0.96902,-1.40033 -1.07229,-1.47536 -0.10327,-0.075 -1.60661,-0.56327 -1.73426,-0.56327 z m 0.0139,1.83554 c -0.002,3.3e-4 -0.002,1.2e-4 -0.004,5.2e-4 -0.0247,0.006 -0.0622,0.016 -0.10697,0.03 -0.0895,0.0279 -0.20839,0.0699 -0.34468,0.12093 -0.27259,0.102 -0.61453,0.24073 -0.94671,0.38292 -0.33219,0.14218 -0.6557,0.28795 -0.89401,0.40463 -0.11915,0.0583 -0.217,0.10948 -0.28215,0.14779 -0.0326,0.0191 -0.0567,0.0354 -0.0703,0.046 -9.9e-4,7.7e-4 -6.9e-4,8.8e-4 -0.002,0.002 8.1e-4,7.4e-4 5.1e-4,8.5e-4 0.002,0.002 0.0136,0.0106 0.0377,0.0268 0.0703,0.046 0.0651,0.0383 0.163,0.0894 0.28215,0.14779 0.23831,0.11667 0.56182,0.26245 0.89401,0.40463 0.33218,0.14219 0.67412,0.28091 0.94671,0.38292 0.13629,0.051 0.25518,0.093 0.34468,0.12092 0.0447,0.0139 0.0823,0.0242 0.10697,0.03 0.002,4e-4 0.002,1.8e-4 0.004,5.1e-4 0.002,-3.3e-4 0.002,-1.1e-4 0.004,-5.1e-4 0.0247,-0.006 0.0622,-0.016 0.10697,-0.03 0.0895,-0.0279 0.2089,-0.0699 0.3452,-0.12092 0.27259,-0.10201 0.61401,-0.24073 0.94619,-0.38292 0.33219,-0.14218 0.65622,-0.28796 0.89452,-0.40463 0.11916,-0.0583 0.21701,-0.10949 0.28216,-0.14779 0.0326,-0.0192 0.0567,-0.0354 0.0703,-0.046 9.8e-4,-7.7e-4 6.8e-4,-8.8e-4 0.002,-0.002 -8.2e-4,-7.4e-4 -5.2e-4,-8.5e-4 -0.002,-0.002 -0.0136,-0.0106 -0.0377,-0.0268 -0.0703,-0.046 -0.0651,-0.0383 -0.163,-0.0895 -0.28216,-0.14779 -0.2383,-0.11668 -0.56233,-0.26245 -0.89452,-0.40463 -0.33218,-0.14219 -0.6736,-0.28092 -0.94619,-0.38292 -0.1363,-0.051 -0.2557,-0.093 -0.3452,-0.12093 -0.0447,-0.0139 -0.0823,-0.0242 -0.10697,-0.03 -0.002,-4e-4 -0.002,-1.9e-4 -0.004,-5.2e-4 z m 0.045,0.076 c 0.0109,0.0817 0.0548,0.13314 0.13229,0.15399 0.0775,0.0208 0.15507,0.002 0.23255,-0.0574 -0.0984,0.19682 -0.19461,0.29731 -0.28836,0.30231 -0.0937,0.004 -0.17469,-0.0357 -0.24288,-0.11989 l -0.0801,0.0879 v 1.23558 l 0.32298,0.20051 0.0475,-0.0667 v -0.82166 c -0.0566,-0.0117 -0.10052,-0.0491 -0.13229,-0.11162 l -0.22531,0.31936 10e-4,-0.11627 0.37879,-0.49299 c 0.0178,0.10174 0.0739,0.16311 0.16846,0.18396 0.0945,0.0209 0.17935,0.001 0.25373,-0.0579 -0.0829,0.17013 -0.15712,0.26798 -0.2222,0.293 l -0.001,0.66766 -0.35709,0.47801 -0.4625,-0.31523 c -0.0511,-0.0334 -0.12148,-0.0343 -0.21136,-0.003 0.0875,-0.0717 0.15427,-0.10474 0.19999,-0.0997 v -1.01492 c -0.0442,-0.003 -0.11037,-0.0384 -0.19792,-0.10594 0.0798,0.0284 0.14497,0.0295 0.19533,0.004 z m 0.0114,0.88728 0.0651,0.0584 v 0.75447 l -0.0651,0.0589 z m -2.90525,0.28164 c 0.002,0.37797 0.0113,0.72745 0.0289,0.78186 0.0394,0.12141 0.9685,1.40034 1.07177,1.47537 0.10327,0.075 1.60661,0.56327 1.73426,0.56327 0.12765,0 1.63099,-0.48824 1.73426,-0.56327 0.10327,-0.075 1.03284,-1.35396 1.07229,-1.47537 0.0174,-0.0536 0.0264,-0.39354 0.0284,-0.76481 -0.0741,0.0433 -0.17399,0.0952 -0.29404,0.154 -0.24539,0.12014 -0.57201,0.26755 -0.90795,0.41134 -0.33595,0.1438 -0.68101,0.28358 -0.9617,0.38861 -0.14035,0.0525 -0.26407,0.0963 -0.36639,0.12816 -0.0512,0.0159 -0.0965,0.0291 -0.13953,0.0393 -0.043,0.0101 -0.0759,0.0202 -0.15141,0.0202 -0.0755,0 -0.10838,-0.01 -0.15141,-0.0202 -0.043,-0.0101 -0.0884,-0.0233 -0.13953,-0.0393 -0.10232,-0.0319 -0.22603,-0.0756 -0.36638,-0.12816 -0.2807,-0.10503 -0.62524,-0.24481 -0.96118,-0.38861 -0.33595,-0.14379 -0.66256,-0.2912 -0.90796,-0.41134 -0.12269,-0.0601 -0.22524,-0.1133 -0.29972,-0.1571 -0.008,-0.005 -0.0151,-0.009 -0.0227,-0.0139 z" />
  </g>
</svg>
