<?xml version="1.0" encoding="UTF-8" standalone="no"?>
<!-- Created with Inkscape (http://www.inkscape.org/) -->

<svg
   width="6.2024484mm"
   height="6.2023177mm"
   viewBox="0 0 6.2024484 6.2023177"
   version="1.1"
   id="svg1"
   xmlns="http://www.w3.org/2000/svg"
   xmlns:svg="http://www.w3.org/2000/svg">
  <defs
     id="defs1">
    <linearGradient
       id="swatch4">
      <stop
         style="stop-color:#000000;stop-opacity:1;"
         offset="0"
         id="stop4" />
    </linearGradient>
  </defs>
  <g
     id="layer3"
     transform="translate(-162.41315,-113.37317)">
    <path
       id="path191-1"
       style="display:inline;fill:#ffffff;fill-opacity:1;stroke:none;stroke-width:0.200526;stroke-dasharray:none;stroke-opacity:1"
       d="m 165.51437,113.37318 c -1.42045,0 -2.84092,0.0519 -2.94504,0.15606 -0.20824,0.20824 -0.20824,5.68183 0,5.89008 0.20825,0.20824 5.68184,0.20824 5.89008,0 0.20825,-0.20825 0.20825,-5.68184 0,-5.89008 -0.10412,-0.10412 -1.52459,-0.15606 -2.94504,-0.15606 z m -0.0109,2.06499 c 0.002,0.13093 0.0833,0.20186 0.24598,0.21187 l -0.11007,0.14624 -0.002,1.38338 0.19792,0.0863 c 0.0496,-0.0567 0.11088,-0.0834 0.18449,-0.0801 -0.0713,0.0367 -0.16697,0.14471 -0.28784,0.32401 l -0.27802,-0.1049 c -0.0356,0.055 -0.1171,0.0856 -0.24495,0.0915 0.0961,-0.0459 0.16332,-0.1113 0.20206,-0.19637 l 10e-4,-1.49862 c -0.0411,-0.007 -0.0726,-0.0255 -0.0951,-0.0563 l -0.19431,0.0698 z m 0.25683,0.27646 v 1.34256 l -0.0651,0.0589 v -1.31 z" />
  </g>
</svg>
