<?xml version="1.0" encoding="UTF-8" standalone="no"?>
<!-- Created with Inkscape (http://www.inkscape.org/) -->

<svg
   width="6.9887209mm"
   height="6.2363119mm"
   viewBox="0 0 6.9887209 6.2363119"
   version="1.1"
   id="svg1"
   xmlns="http://www.w3.org/2000/svg"
   xmlns:svg="http://www.w3.org/2000/svg">
  <defs
     id="defs1">
    <linearGradient
       id="swatch4">
      <stop
         style="stop-color:#000000;stop-opacity:1;"
         offset="0"
         id="stop4" />
    </linearGradient>
  </defs>
  <g
     id="layer3"
     transform="translate(-200.93391,-150.54297)">
    <path
       id="path94-48-2-3"
       style="fill:#ffffff;fill-opacity:1;stroke:none;stroke-width:0.192506;stroke-dasharray:none;stroke-opacity:1"
       d="m 204.42724,150.543 c -0.70357,0 -1.40044,0.0158 -1.65829,0.0465 l 0.55552,1.00873 c 0.024,-0.004 0.0526,-0.006 0.0863,-0.009 0.0687,-0.006 0.15876,-0.0104 0.26407,-0.0139 0.21061,-0.007 0.48121,-0.0109 0.75241,-0.0109 0.27119,0 0.54231,0.004 0.75292,0.0109 0.10531,0.004 0.19541,0.008 0.26407,0.0139 0.0343,0.003 0.0636,0.005 0.0879,0.009 l 0.57567,-1.00666 c -0.24076,-0.0323 -0.95882,-0.0486 -1.68051,-0.0486 z m -1.82624,0.13901 c -0.30393,0.40167 -1.4588,2.40171 -1.66398,2.88045 l 1.16168,0.002 c 0.008,-0.0183 0.0151,-0.0363 0.0258,-0.0589 0.0296,-0.0622 0.0703,-0.14214 0.11989,-0.23512 0.0991,-0.18595 0.23182,-0.42247 0.36742,-0.65733 0.1356,-0.23487 0.27455,-0.46764 0.38603,-0.64647 0.0557,-0.0894 0.10404,-0.16499 0.14314,-0.22169 0.009,-0.0132 0.0161,-0.0219 0.0243,-0.0331 z m 3.66593,0.0176 -0.57723,1.01234 c 0.008,0.0112 0.0152,0.0199 0.0243,0.0331 0.0391,0.0567 0.0874,0.13228 0.14314,0.22169 0.11148,0.17884 0.25043,0.4116 0.38603,0.64647 0.1356,0.23486 0.26828,0.47138 0.36742,0.65733 0.0496,0.093 0.0903,0.17291 0.11988,0.23512 0.0106,0.0224 0.0182,0.0402 0.0258,0.0584 l 1.15911,-0.007 c -0.20775,-0.48052 -1.3276,-2.42111 -1.64848,-2.85771 z m -1.83969,1.05782 c -0.26952,0 -0.53904,0.003 -0.7462,0.0103 -0.10359,0.004 -0.19137,0.008 -0.25477,0.0134 -0.0317,0.002 -0.0576,0.005 -0.0744,0.008 -0.002,3.4e-4 -0.003,5.5e-4 -0.005,0.002 -0.001,10e-4 -0.002,0.002 -0.003,0.003 -0.0106,0.0133 -0.0259,0.0343 -0.0439,0.0605 -0.0361,0.0524 -0.0842,0.12651 -0.13901,0.21446 -0.10965,0.17591 -0.24712,0.40738 -0.38189,0.64079 -0.13476,0.23341 -0.2668,0.46872 -0.36432,0.65164 -0.0488,0.0915 -0.089,0.17044 -0.11627,0.22789 -0.0137,0.0287 -0.0243,0.0524 -0.0305,0.0682 -7.5e-4,0.002 -5.2e-4,0.003 -0.001,0.005 5.4e-4,0.002 3.2e-4,0.003 0.001,0.005 0.006,0.0158 0.0168,0.0395 0.0305,0.0682 0.0273,0.0574 0.0675,0.13592 0.11627,0.22738 0.0975,0.18291 0.22956,0.41823 0.36432,0.65164 0.13477,0.23342 0.27224,0.46539 0.38189,0.6413 0.0548,0.088 0.10291,0.1621 0.13901,0.21446 0.0181,0.0262 0.0333,0.0467 0.0439,0.0599 10e-4,0.002 0.002,0.002 0.004,0.004 0.002,3.4e-4 0.002,7.2e-4 0.004,0.001 0.0168,0.002 0.0427,0.005 0.0744,0.008 0.0634,0.005 0.15118,0.009 0.25477,0.0129 0.20716,0.007 0.47668,0.0103 0.7462,0.0103 0.26953,0 0.53956,-0.003 0.74673,-0.0103 0.10358,-0.003 0.19137,-0.008 0.25476,-0.0129 0.0317,-0.002 0.0576,-0.005 0.0744,-0.008 0.002,-2.7e-4 0.002,-7.2e-4 0.004,-0.001 0.002,-0.002 0.003,-0.002 0.004,-0.004 0.0106,-0.0133 0.0259,-0.0337 0.0439,-0.0599 0.0361,-0.0524 0.0842,-0.1265 0.13901,-0.21446 0.10966,-0.17591 0.24713,-0.40788 0.38189,-0.6413 0.13476,-0.23341 0.26681,-0.46873 0.36432,-0.65164 0.0488,-0.0915 0.089,-0.16993 0.11627,-0.22738 0.0136,-0.0287 0.0243,-0.0524 0.0305,-0.0682 7.6e-4,-0.002 5.2e-4,-0.003 0.001,-0.005 -5.5e-4,-0.002 -3.1e-4,-0.003 -0.001,-0.005 -0.006,-0.0158 -0.0168,-0.0395 -0.0305,-0.0682 -0.0273,-0.0574 -0.0675,-0.13643 -0.11627,-0.22789 -0.0975,-0.18292 -0.22956,-0.41823 -0.36432,-0.65164 -0.13476,-0.23341 -0.27223,-0.46488 -0.38189,-0.64079 -0.0548,-0.0879 -0.1029,-0.1621 -0.13901,-0.21446 -0.0181,-0.0262 -0.0333,-0.0472 -0.0439,-0.0605 -0.001,-0.001 -0.002,-0.002 -0.003,-0.003 -0.002,-6.9e-4 -0.003,-5.5e-4 -0.005,-0.002 -0.0168,-0.002 -0.0427,-0.005 -0.0744,-0.008 -0.0634,-0.005 -0.15118,-0.01 -0.25476,-0.0134 -0.20717,-0.007 -0.4772,-0.0103 -0.74673,-0.0103 z m 0.0599,0.86506 c 0.0109,0.0817 0.0548,0.13263 0.1323,0.15348 0.0775,0.0208 0.15506,0.002 0.23254,-0.0574 -0.0984,0.19682 -0.1946,0.29782 -0.28835,0.30283 -0.0937,0.004 -0.1747,-0.0362 -0.24288,-0.12041 l -0.0801,0.0878 v 1.2361 l 0.32297,0.19999 0.0475,-0.0661 v -0.82217 c -0.0566,-0.0117 -0.10052,-0.0486 -0.13229,-0.11111 l -0.22531,0.31885 0.001,-0.11627 0.37879,-0.493 c 0.0178,0.10175 0.0739,0.16312 0.16847,0.18397 0.0945,0.0208 0.17935,0.002 0.25373,-0.0574 -0.0829,0.17013 -0.15713,0.26747 -0.22221,0.29249 l -0.001,0.66818 -0.35709,0.47749 -0.4625,-0.31523 c -0.0511,-0.0334 -0.12148,-0.0338 -0.21136,-0.002 0.0876,-0.0717 0.15428,-0.10525 0.19999,-0.10025 v -1.01441 c -0.0442,-0.003 -0.11037,-0.0389 -0.19792,-0.10645 0.0798,0.0283 0.14497,0.0295 0.19534,0.004 z m 0.0114,0.88677 0.0651,0.0589 v 0.75396 l -0.0651,0.0589 z m 3.42409,0.24081 -1.16531,0.006 c -0.008,0.0188 -0.0156,0.0378 -0.0269,0.0615 -0.0296,0.0622 -0.0703,0.14215 -0.11989,0.23513 -0.0991,0.18595 -0.23182,0.42245 -0.36742,0.65732 -0.1356,0.23487 -0.27455,0.46816 -0.38602,0.64699 -0.0557,0.0894 -0.10404,0.16499 -0.14314,0.22169 -0.0145,0.0209 -0.0267,0.0364 -0.0388,0.0522 l 0.57826,1.0113 c 0.30494,-0.4024 1.47621,-2.43134 1.66914,-2.89181 z m -6.98873,0.004 c 0.19814,0.4686 1.36834,2.49456 1.66967,2.89026 l 0.58291,-1.00407 c -0.0138,-0.0177 -0.0284,-0.0372 -0.0455,-0.062 -0.0391,-0.0567 -0.0874,-0.13229 -0.14314,-0.2217 -0.11148,-0.17883 -0.25043,-0.41212 -0.38603,-0.64699 -0.13559,-0.23487 -0.26828,-0.47136 -0.36741,-0.65732 -0.0496,-0.093 -0.0903,-0.17292 -0.11989,-0.23513 -0.0112,-0.0235 -0.019,-0.0423 -0.0269,-0.061 z m 4.57699,1.97249 c -0.0202,0.002 -0.0406,0.005 -0.0667,0.007 -0.0686,0.005 -0.15877,0.01 -0.26407,0.0134 -0.21061,0.007 -0.48173,0.0109 -0.75293,0.0109 -0.2712,0 -0.54179,-0.004 -0.75241,-0.0109 -0.1053,-0.004 -0.19541,-0.008 -0.26406,-0.0134 -0.0208,-0.002 -0.0361,-0.004 -0.0532,-0.006 l -0.58188,1.00666 c 0.52833,0.0605 2.79548,0.06 3.30988,-0.001 z m 0.68574,0.9803 -0.0171,0.01 c 0.002,-0.001 0.009,-0.002 0.0103,-0.003 0.001,-8.7e-4 0.004,-0.004 0.007,-0.007 z" />
  </g>
</svg>
