<?xml version="1.0" encoding="UTF-8" standalone="no"?>
<!-- Created with Inkscape (http://www.inkscape.org/) -->

<svg
   width="6.1489787mm"
   height="6.1487041mm"
   viewBox="0 0 6.1489787 6.1487041"
   version="1.1"
   id="svg1"
   xmlns="http://www.w3.org/2000/svg"
   xmlns:svg="http://www.w3.org/2000/svg">
  <defs
     id="defs1">
    <linearGradient
       id="swatch4">
      <stop
         style="stop-color:#000000;stop-opacity:1;"
         offset="0"
         id="stop4" />
    </linearGradient>
  </defs>
  <g
     id="layer3"
     transform="translate(-247.85925,-166.26296)">
    <path
       id="path225-00-99-9"
       style="fill:#ffffff;fill-opacity:1;stroke:none;stroke-width:0.200527;stroke-dasharray:none;stroke-opacity:1"
       d="m 249.66014,166.26297 -0.015,0.015 0.0367,-0.015 z m 0.10801,0 0.31677,0.7798 1.69706,-10e-4 0.31057,-0.77877 z m 2.43447,0 0.008,0.003 -0.003,-0.003 z m 0.0765,0.0713 -0.31264,0.7891 1.18753,1.18855 0.77773,-0.32452 z m -2.69647,0.006 -1.64848,1.64848 0.78031,0.32142 1.18546,-1.18494 z m 0.48317,0.90175 -1.2268,1.22732 v 1.73529 l 1.2268,1.22783 1.7353,-0.001 1.22679,-1.2268 5.2e-4,-1.73529 -1.22731,-1.2268 z m -2.19108,0.80615 -0.0155,0.0155 v 0.0222 z m 6.13348,0.12558 -0.77928,0.32453 v 1.67276 l 0.77928,0.32918 z m -6.14898,10e-4 v 2.32699 l 0.77928,-0.33486 v -1.6707 z m 3.23959,0.11627 c 0.0434,0.10175 0.11348,0.1681 0.21033,0.19896 0.0969,0.03 0.23236,-0.0316 0.40669,-0.185 -0.1232,0.25019 -0.24293,0.38899 -0.35915,0.41651 -0.11545,0.0275 -0.2282,-0.0302 -0.339,-0.17363 l -0.13746,0.0713 z m -0.86919,0.0202 c 0.002,0.13093 0.0833,0.20135 0.24598,0.21135 l -0.11007,0.14625 -0.001,1.38389 0.19741,0.0863 c 0.0496,-0.0567 0.11139,-0.0834 0.185,-0.0801 -0.0713,0.0367 -0.16748,0.14471 -0.28835,0.32402 l -0.27802,-0.10491 c -0.0356,0.055 -0.1171,0.0851 -0.24495,0.0909 0.0961,-0.0459 0.16332,-0.1113 0.20206,-0.19637 l 0.001,-1.49861 c -0.0411,-0.007 -0.0726,-0.0255 -0.0951,-0.0563 l -0.19431,0.0703 z m 1.51205,0 v 0.90589 l -0.58136,0.51779 v 0.41031 l 0.5333,-0.001 c 0.0728,-0.17347 0.18119,-0.28809 0.32453,-0.34313 -0.14644,0.0901 -0.2504,0.281 -0.31161,0.57206 l -0.74259,-0.003 c -0.13327,0.008 -0.24214,-0.0163 -0.3266,-0.0713 0.15032,0.004 0.24497,-0.0364 0.28371,-0.12144 v -0.38396 l 0.59479,-0.53433 v -0.60565 c 0.0744,-0.05 0.1499,-0.16414 0.22583,-0.34261 z m -1.25522,0.27647 v 1.34255 l -0.0651,0.0584 v -1.30948 z m 1.00304,0.0827 -0.001,0.56431 c -0.11622,-0.0592 -0.23001,-0.0629 -0.34158,-0.0103 0.0387,-0.0934 0.1308,-0.131 0.27647,-0.11265 v -0.14108 c -0.0891,-0.0409 -0.17367,-0.0291 -0.25425,0.0351 0.0178,-0.0984 0.10238,-0.14668 0.25425,-0.14418 v -0.14521 z m -2.78278,1.6862 -0.76998,0.33176 1.65003,1.65003 0.31833,-0.78393 z m 4.45038,0.003 -1.20355,1.20355 0.33021,0.77204 1.64848,-1.64848 z m -5.29787,0.23255 v 0.0186 l 0.0139,0.0139 z m 2.23087,1.03973 -0.31678,0.77979 h 2.32648 l -0.33642,-0.77928 z m -0.44235,0.76739 0.0124,0.0124 h 0.0176 z" />
  </g>
</svg>
