<?xml version="1.0" encoding="UTF-8" standalone="no"?>
<!-- Created with Inkscape (http://www.inkscape.org/) -->

<svg
   width="6.9887209mm"
   height="6.2363763mm"
   viewBox="0 0 6.9887209 6.2363763"
   version="1.1"
   id="svg1"
   xmlns="http://www.w3.org/2000/svg"
   xmlns:svg="http://www.w3.org/2000/svg">
  <defs
     id="defs1">
    <linearGradient
       id="swatch4">
      <stop
         style="stop-color:#000000;stop-opacity:1;"
         offset="0"
         id="stop4" />
    </linearGradient>
  </defs>
  <g
     id="layer3"
     transform="translate(-247.43962,-150.54143)">
    <path
       id="path94-48-87-6"
       style="fill:#ffffff;fill-opacity:1;stroke:none;stroke-width:0.192506;stroke-dasharray:none;stroke-opacity:1"
       d="m 250.93293,150.54145 c -0.70357,0 -1.40045,0.0158 -1.65829,0.0465 l 0.55552,1.00873 c 0.024,-0.004 0.0526,-0.006 0.0863,-0.009 0.0687,-0.006 0.15876,-0.0104 0.26406,-0.0139 0.21061,-0.007 0.48121,-0.0109 0.75241,-0.0109 0.2712,0 0.54232,0.004 0.75293,0.0109 0.1053,0.004 0.19541,0.008 0.26406,0.0139 0.0343,0.003 0.0636,0.005 0.0879,0.009 l 0.57568,-1.00666 c -0.24076,-0.0323 -0.95883,-0.0486 -1.68052,-0.0486 z m -1.82624,0.13901 c -0.30394,0.40167 -1.4588,2.40171 -1.66398,2.88045 l 1.16168,0.002 c 0.008,-0.0183 0.0151,-0.0363 0.0258,-0.0589 0.0296,-0.0622 0.0703,-0.14214 0.11989,-0.23512 0.0991,-0.18595 0.23182,-0.42247 0.36742,-0.65733 0.1356,-0.23487 0.27455,-0.46764 0.38602,-0.64647 0.0557,-0.0894 0.10405,-0.16499 0.14315,-0.22169 0.009,-0.0132 0.0162,-0.0219 0.0243,-0.0331 z m 3.66592,0.0176 -0.57722,1.01234 c 0.008,0.0112 0.0152,0.0199 0.0243,0.0331 0.0391,0.0567 0.0874,0.13228 0.14314,0.22169 0.11148,0.17884 0.25042,0.4116 0.38602,0.64647 0.1356,0.23486 0.26829,0.47138 0.36742,0.65733 0.0496,0.093 0.0903,0.17291 0.11989,0.23512 0.0106,0.0224 0.0182,0.0402 0.0258,0.0584 l 1.15911,-0.007 c -0.20775,-0.48052 -1.3276,-2.42111 -1.64848,-2.85771 z m -1.84019,1.05782 c -0.26935,0 -0.53866,0.003 -0.74569,0.0103 -0.10359,0.004 -0.19138,0.008 -0.25477,0.0134 -0.0317,0.002 -0.0576,0.005 -0.0744,0.008 -0.002,3.4e-4 -0.003,5.5e-4 -0.005,0.002 -0.001,0.001 -0.002,0.002 -0.003,0.003 -0.0106,0.0133 -0.0259,0.0343 -0.0439,0.0605 -0.0361,0.0524 -0.0842,0.12651 -0.13901,0.21446 -0.10965,0.17591 -0.24713,0.40738 -0.38189,0.64079 -0.13476,0.23341 -0.2668,0.46872 -0.36432,0.65164 -0.0488,0.0915 -0.089,0.17044 -0.11627,0.22789 -0.0136,0.0287 -0.0243,0.0524 -0.0305,0.0682 -7.5e-4,0.002 -5.2e-4,0.003 -0.001,0.005 5.4e-4,0.002 3.2e-4,0.003 0.001,0.005 0.006,0.0158 0.0168,0.0395 0.0305,0.0682 0.0273,0.0574 0.0675,0.13592 0.11627,0.22738 0.0975,0.18291 0.22956,0.41823 0.36432,0.65164 0.13476,0.23342 0.27224,0.46539 0.38189,0.6413 0.0548,0.088 0.10291,0.1621 0.13901,0.21446 0.018,0.0262 0.0333,0.0467 0.0439,0.0599 0.001,0.002 0.002,0.002 0.004,0.004 0.002,3.4e-4 0.002,7.2e-4 0.004,0.001 0.0168,0.002 0.0427,0.005 0.0744,0.008 0.0634,0.005 0.15118,0.009 0.25477,0.0129 0.20716,0.007 0.47668,0.0103 0.7462,0.0103 0.26952,0 0.53956,-0.003 0.74673,-0.0103 0.10358,-0.003 0.19137,-0.008 0.25476,-0.0129 0.0317,-0.002 0.0576,-0.005 0.0744,-0.008 0.002,-2.7e-4 0.002,-7.2e-4 0.004,-0.001 0.002,-0.002 0.003,-0.002 0.004,-0.004 0.0106,-0.0133 0.0259,-0.0337 0.0439,-0.0599 0.0361,-0.0524 0.0842,-0.1265 0.13901,-0.21446 0.10965,-0.17591 0.24713,-0.40788 0.38189,-0.6413 0.13476,-0.23341 0.2668,-0.46873 0.36432,-0.65164 0.0488,-0.0915 0.089,-0.16993 0.11627,-0.22738 0.0136,-0.0287 0.0243,-0.0524 0.0305,-0.0682 7.6e-4,-0.002 5.2e-4,-0.003 10e-4,-0.005 -5.5e-4,-0.002 -3.1e-4,-0.003 -10e-4,-0.005 -0.006,-0.0158 -0.0168,-0.0395 -0.0305,-0.0682 -0.0273,-0.0575 -0.0675,-0.13643 -0.11627,-0.22789 -0.0975,-0.18292 -0.22956,-0.41823 -0.36432,-0.65164 -0.13476,-0.23341 -0.27224,-0.46488 -0.38189,-0.64079 -0.0548,-0.0879 -0.1029,-0.1621 -0.13901,-0.21446 -0.0181,-0.0262 -0.0333,-0.0472 -0.0439,-0.0605 -0.001,-10e-4 -0.002,-0.002 -0.003,-0.003 -0.002,-6.9e-4 -0.003,-5.5e-4 -0.005,-0.002 -0.0168,-0.002 -0.0427,-0.005 -0.0744,-0.008 -0.0634,-0.005 -0.15118,-0.01 -0.25476,-0.0134 -0.20704,-0.007 -0.47686,-0.0103 -0.74621,-0.0103 z m 0.16639,0.85783 c 0.0434,0.10174 0.11348,0.1681 0.21033,0.19895 0.0969,0.03 0.23236,-0.0315 0.40669,-0.185 -0.12319,0.2502 -0.24293,0.38899 -0.35915,0.41651 -0.11545,0.0275 -0.2282,-0.0302 -0.339,-0.17363 l -0.13746,0.0713 z m -0.86919,0.0202 c 0.002,0.13094 0.0833,0.20135 0.24598,0.21136 l -0.11007,0.14624 -0.001,1.3839 0.1974,0.0863 c 0.0496,-0.0567 0.1114,-0.0834 0.185,-0.0801 -0.0713,0.0367 -0.16748,0.1447 -0.28835,0.32401 l -0.27802,-0.1049 c -0.0356,0.055 -0.1171,0.0851 -0.24495,0.0909 0.0961,-0.0459 0.16332,-0.11131 0.20206,-0.19637 l 10e-4,-1.49862 c -0.0411,-0.007 -0.0726,-0.0255 -0.0951,-0.0563 l -0.19431,0.0703 z m 1.51205,0 v 0.90589 l -0.58136,0.5178 v 0.41031 l 0.5333,-10e-4 c 0.0728,-0.17347 0.18119,-0.28809 0.32453,-0.34314 -0.14644,0.0901 -0.2504,0.281 -0.31161,0.57206 l -0.74259,-0.003 c -0.13327,0.007 -0.24214,-0.0163 -0.3266,-0.0713 0.15032,0.004 0.24497,-0.0364 0.28371,-0.12144 v -0.38395 l 0.59479,-0.53434 v -0.60564 c 0.0744,-0.05 0.1499,-0.16415 0.22583,-0.34262 z m -1.25522,0.27647 v 1.34255 l -0.0651,0.0584 v -1.30948 z m 1.00304,0.0827 -10e-4,0.56431 c -0.11622,-0.0592 -0.23001,-0.0629 -0.34158,-0.0103 0.0387,-0.0934 0.1308,-0.131 0.27647,-0.11265 v -0.14108 c -0.0891,-0.0409 -0.17367,-0.0291 -0.25425,0.0351 0.0178,-0.0984 0.10238,-0.14668 0.25425,-0.14417 v -0.14521 z m 2.93884,0.75551 -1.16531,0.006 c -0.008,0.0188 -0.0156,0.0378 -0.0269,0.0615 -0.0296,0.0622 -0.0703,0.14215 -0.11989,0.23513 -0.0991,0.18595 -0.23182,0.42245 -0.36742,0.65732 -0.13559,0.23487 -0.27454,0.46816 -0.38602,0.64699 -0.0557,0.0894 -0.10404,0.16499 -0.14314,0.22169 -0.0144,0.0209 -0.0266,0.0364 -0.0388,0.0522 l 0.57826,1.01131 c 0.30494,-0.4024 1.47621,-2.43134 1.66915,-2.89181 z m -6.98872,0.004 c 0.19813,0.4686 1.36834,2.49456 1.66966,2.89026 l 0.58291,-1.00407 c -0.0138,-0.0177 -0.0284,-0.0372 -0.0455,-0.062 -0.0391,-0.0567 -0.0874,-0.13228 -0.14314,-0.22169 -0.11148,-0.17883 -0.25043,-0.41212 -0.38602,-0.64699 -0.1356,-0.23487 -0.26829,-0.47136 -0.36742,-0.65732 -0.0496,-0.093 -0.0903,-0.17292 -0.11989,-0.23513 -0.0112,-0.0235 -0.019,-0.0423 -0.0269,-0.061 z m 4.57698,1.97249 c -0.0202,0.002 -0.0406,0.005 -0.0667,0.007 -0.0686,0.005 -0.15876,0.01 -0.26407,0.0129 -0.21061,0.007 -0.48173,0.0114 -0.75292,0.0114 -0.2712,0 -0.5418,-0.004 -0.75241,-0.0114 -0.10531,-0.004 -0.19541,-0.008 -0.26407,-0.0129 -0.0208,-0.002 -0.0361,-0.004 -0.0532,-0.006 l -0.58188,1.00666 c 0.52833,0.0605 2.79548,0.06 3.30988,-0.001 z m 0.68574,0.9803 -0.0171,0.01 c 0.002,-0.001 0.009,-0.002 0.0103,-0.003 0.001,-8.7e-4 0.005,-0.004 0.007,-0.007 z" />
  </g>
</svg>
