<?xml version="1.0" encoding="UTF-8" standalone="no"?>
<!-- Created with Inkscape (http://www.inkscape.org/) -->

<svg
   width="7.2042117mm"
   height="6.3608594mm"
   viewBox="0 0 7.2042117 6.3608594"
   version="1.1"
   id="svg1"
   xmlns="http://www.w3.org/2000/svg"
   xmlns:svg="http://www.w3.org/2000/svg">
  <defs
     id="defs1">
    <linearGradient
       id="swatch4">
      <stop
         style="stop-color:#000000;stop-opacity:1;"
         offset="0"
         id="stop4" />
    </linearGradient>
  </defs>
  <g
     id="layer3"
     transform="translate(-177.6052,-135.35983)">
    <path
       id="path280-3-7-6-4"
       style="fill:#ffffff;fill-opacity:1;stroke:none;stroke-width:0.250658;stroke-dasharray:none;stroke-opacity:1"
       d="m 181.32125,135.35983 2.60708,4.08864 c 0.50569,-0.47548 0.88108,-0.85971 0.88108,-0.93534 0,-0.20955 -2.85254,-2.76497 -3.48816,-3.1533 z m -0.22893,5.2e-4 c -0.63719,0.38995 -3.48712,2.94332 -3.48712,3.15278 0,0.0756 0.37506,0.4595 0.88057,0.93482 z m 0.11473,0.2868 -2.52698,3.961 -0.0729,-0.0465 c 1.00836,0.93865 2.43675,2.15904 2.59984,2.15904 0.16424,0 1.61163,-1.23749 2.62103,-2.17867 l -0.0977,0.062 z m -0.76068,2.31562 c 0.0171,0.10175 0.0729,0.16312 0.16743,0.18397 0.0945,0.0208 0.17676,0.001 0.2465,-0.0579 -0.0775,0.2035 -0.17343,0.31019 -0.28732,0.31936 -0.1139,0.009 -0.20415,-0.0424 -0.27079,-0.15502 l -0.12557,0.0749 z m 1.41438,0.0289 c 0.004,0.0709 0.0584,0.13429 0.16382,0.19017 0.10615,0.0559 0.21812,0.047 0.33589,-0.0264 l -0.1266,0.14882 v 1.16686 l -0.22428,0.19792 v -0.66198 c 0.10073,-0.004 0.15141,-0.0508 0.15141,-0.14004 0,-0.0901 -0.0507,-0.13467 -0.15141,-0.13384 v -0.28525 c -0.12164,-0.0334 -0.22276,-0.10692 -0.30334,-0.22118 v 0.5054 c -0.10072,0.003 -0.15089,0.0489 -0.15089,0.13642 0,0.0867 0.0502,0.13246 0.15089,0.13746 v 0.71159 l 0.18397,0.12505 0.34365,-0.33279 -0.006,0.11782 -0.43822,0.44028 -0.31161,-0.19017 c -0.0356,-0.0167 -0.0863,-0.0176 -0.15296,-0.003 0.0643,-0.055 0.11189,-0.084 0.14366,-0.0873 v -1.35238 c -0.0364,0.0134 -0.0902,-0.0136 -0.16226,-0.0811 0.0643,0.0284 0.11758,0.0295 0.16019,0.004 z m -0.99683,0.10749 0.24132,0.20877 c 0.0504,0.0259 0.11554,0.0247 0.19534,-0.004 -0.0875,0.0676 -0.15324,0.10312 -0.1974,0.10646 v 0.3514 l -0.44287,0.15399 0.44183,0.15348 v 0.73329 c 0.10925,0.003 0.21088,0.0739 0.30541,0.21239 -0.0442,-0.0575 -0.14967,-0.0856 -0.31626,-0.0847 l -0.22737,-0.21032 v -0.64802 l -0.36071,-0.14263 0.36071,-0.16898 z m 0.9896,0.4315 c 0.008,0 0.0167,0.002 0.0248,0.006 0.0163,0.008 0.0269,0.021 0.0315,0.0377 0.005,0.0159 0.005,0.0319 0,0.0486 -0.005,0.0167 -0.0189,0.0294 -0.0398,0.0377 l 5.1e-4,0.18759 h 0.10181 c 0.008,-0.0225 0.0196,-0.0365 0.0351,-0.0424 0.0155,-0.006 0.0302,-0.006 0.045,0 0.0155,0.005 0.0274,0.0161 0.0351,0.0336 0.008,0.0175 0.008,0.0356 0,0.0548 -0.007,0.0183 -0.0191,0.0301 -0.0362,0.0351 -0.0171,0.005 -0.0331,0.004 -0.0486,-0.004 -0.0155,-0.007 -0.0258,-0.0231 -0.0305,-0.0465 h -0.10181 l 0.001,0.64182 c 0.0209,0.008 0.0339,0.0211 0.0393,0.0377 0.005,0.0167 0.005,0.0335 0,0.0501 -0.005,0.0159 -0.0153,0.0278 -0.0315,0.0362 -0.0163,0.008 -0.0333,0.009 -0.0512,0.001 -0.017,-0.008 -0.0279,-0.0214 -0.0326,-0.0398 -0.005,-0.0183 -0.003,-0.036 0.004,-0.0527 0.007,-0.0167 0.0212,-0.0275 0.0429,-0.0326 l -5.1e-4,-0.64182 h -0.11111 c -0.005,0.0234 -0.0145,0.039 -0.03,0.0465 -0.0155,0.008 -0.0315,0.009 -0.0486,0.004 -0.0171,-0.005 -0.0295,-0.0168 -0.0372,-0.0351 -0.007,-0.0192 -0.007,-0.0373 0.001,-0.0548 0.008,-0.0175 0.0189,-0.0286 0.0336,-0.0336 0.0155,-0.006 0.031,-0.006 0.0465,0 0.0155,0.006 0.0269,0.0199 0.0346,0.0424 h 0.11059 v -0.18759 c -0.0217,-0.005 -0.0359,-0.0159 -0.0429,-0.0326 -0.007,-0.0167 -0.008,-0.0344 -0.004,-0.0527 0.005,-0.0183 0.0155,-0.0313 0.0326,-0.0388 0.009,-0.004 0.0178,-0.006 0.0264,-0.006 z m -1.02474,0.56172 -0.001,0.56431 c -0.11623,-0.0592 -0.23001,-0.0629 -0.34159,-0.0103 0.0387,-0.0934 0.13081,-0.131 0.27647,-0.11265 v -0.14108 c -0.0891,-0.0409 -0.17418,-0.0291 -0.25476,0.0351 0.0178,-0.0984 0.1029,-0.14668 0.25476,-0.14418 v -0.14521 z m -0.38706,0.52297 c 0.0256,0.10174 0.0786,0.16311 0.15916,0.18396 0.0806,0.0208 0.17239,0.001 0.27544,-0.0579 -0.0968,0.18681 -0.20443,0.28892 -0.32298,0.30644 -0.11777,0.0175 -0.22664,-0.03 -0.3266,-0.14263 l -0.17311,0.0625 z" />
  </g>
</svg>
