<?xml version="1.0" encoding="UTF-8" standalone="no"?>
<!-- Created with Inkscape (http://www.inkscape.org/) -->

<svg
   width="5.7148328mm"
   height="6.4037595mm"
   viewBox="0 0 5.7148328 6.4037595"
   version="1.1"
   id="svg1"
   xmlns="http://www.w3.org/2000/svg"
   xmlns:svg="http://www.w3.org/2000/svg">
  <defs
     id="defs1">
    <linearGradient
       id="swatch4">
      <stop
         style="stop-color:#000000;stop-opacity:1;"
         offset="0"
         id="stop4" />
    </linearGradient>
  </defs>
  <g
     id="layer3"
     transform="translate(-170.45049,-173.77361)">
    <path
       id="path63-83-2-3"
       style="fill:#ffffff;fill-opacity:1;stroke:none;stroke-width:0.174705;stroke-dasharray:none;stroke-opacity:1"
       d="m 173.30807,173.77363 c -0.13939,0 -2.05539,1.09551 -2.63085,1.48621 0.0438,-0.01 0.0919,-0.0191 0.14987,-0.0274 0.16072,-0.0229 0.37713,-0.0414 0.63303,-0.0563 0.5118,-0.0298 1.17975,-0.0439 1.84795,-0.0439 0.6682,0 1.33666,0.0141 1.84847,0.0439 0.2559,0.0149 0.4718,0.0333 0.63252,0.0563 0.0582,0.008 0.1065,0.0179 0.15037,0.0279 -0.57486,-0.3904 -2.49193,-1.48673 -2.63136,-1.48673 z m 0,1.56631 c -0.66512,0 -1.33026,0.0145 -1.83555,0.0439 -0.25264,0.0147 -0.4658,0.0338 -0.61598,0.0553 -0.0751,0.0107 -0.13438,0.0213 -0.17208,0.032 -0.003,8.2e-4 -0.003,0.001 -0.006,0.002 6.7e-4,0.003 -3.1e-4,0.003 5.2e-4,0.007 0.01,0.038 0.0296,0.095 0.0579,0.16536 0.0565,0.14078 0.14634,0.33454 0.25993,0.56069 0.22716,0.4523 0.548,1.0363 0.88056,1.61231 0.33256,0.57601 0.67738,1.14446 0.9555,1.56734 0.13906,0.21144 0.26135,0.38659 0.35502,0.50592 0.0468,0.0597 0.0866,0.10603 0.11472,0.13332 0.002,0.002 0.003,0.002 0.005,0.004 0.002,-0.002 0.003,-0.002 0.005,-0.004 0.0281,-0.0273 0.0689,-0.0737 0.11575,-0.13332 0.0937,-0.11933 0.21596,-0.29448 0.35502,-0.50592 0.27812,-0.42288 0.62346,-0.99133 0.95602,-1.56734 0.33256,-0.57601 0.65185,-1.16001 0.87901,-1.61231 0.11358,-0.22615 0.20497,-0.41991 0.26148,-0.56069 0.0283,-0.0704 0.0478,-0.12735 0.0574,-0.16536 8.7e-4,-0.003 3.9e-4,-0.004 0.001,-0.007 -0.003,-8.2e-4 -0.003,-0.001 -0.006,-0.002 -0.0377,-0.0107 -0.097,-0.0213 -0.17208,-0.032 -0.15017,-0.0215 -0.36334,-0.0406 -0.61598,-0.0553 -0.50528,-0.0294 -1.17094,-0.0439 -1.83606,-0.0439 z m -2.82308,0.21549 c -0.0537,0.65032 -0.0446,2.94002 0.0264,3.06286 0.0715,0.12378 2.07752,1.29183 2.65048,1.55908 -0.001,-0.001 -0.002,-0.002 -0.003,-0.003 -0.0399,-0.0387 -0.0837,-0.0891 -0.13384,-0.15296 -0.10024,-0.12771 -0.22502,-0.30621 -0.36587,-0.52038 -0.28171,-0.42833 -0.62811,-0.99901 -0.96221,-1.57769 -0.33411,-0.57868 -0.65513,-1.16451 -0.88522,-1.62264 -0.11505,-0.22906 -0.20721,-0.42656 -0.26769,-0.57722 -0.0261,-0.065 -0.0452,-0.1192 -0.0589,-0.16795 z m 5.64616,0.002 c -0.0137,0.0484 -0.0321,0.10208 -0.0579,0.1664 -0.0605,0.15067 -0.15315,0.34815 -0.2682,0.57722 -0.23009,0.45813 -0.5506,1.04395 -0.8847,1.62264 -0.3341,0.57867 -0.68102,1.14935 -0.96273,1.57769 -0.14085,0.21416 -0.26511,0.39267 -0.36535,0.52038 -0.0501,0.0639 -0.0944,0.11421 -0.13436,0.15296 -9.1e-4,8.2e-4 -0.002,0.002 -0.003,0.002 0.57447,-0.26826 2.57855,-1.43486 2.64997,-1.55856 0.0709,-0.1227 0.0793,-2.40746 0.0258,-3.0608 z m -3.05201,0.37724 c 0.0434,0.10174 0.11348,0.1681 0.21033,0.19895 0.0968,0.03 0.23236,-0.0316 0.40669,-0.185 -0.12319,0.2502 -0.24293,0.38899 -0.35915,0.41651 -0.11545,0.0275 -0.22872,-0.0302 -0.33951,-0.17363 l -0.13695,0.0713 z m 0.64234,0.0202 v 0.90589 l -0.58084,0.5178 v 0.41031 l 0.5333,-0.001 c 0.0728,-0.17347 0.18119,-0.28809 0.32453,-0.34314 -0.14644,0.0901 -0.2504,0.281 -0.31161,0.57206 l -0.74259,-0.003 c -0.13327,0.007 -0.24214,-0.0163 -0.3266,-0.0713 0.15032,0.004 0.24497,-0.0364 0.28371,-0.12143 v -0.38396 l 0.59479,-0.53434 v -0.60564 c 0.0744,-0.05 0.14938,-0.16415 0.22531,-0.34262 z m -0.25218,0.35915 -0.001,0.56431 c -0.11622,-0.0592 -0.23001,-0.0629 -0.34158,-0.0103 0.0387,-0.0934 0.1308,-0.131 0.27647,-0.11265 v -0.14108 c -0.0891,-0.0409 -0.17367,-0.0291 -0.25425,0.0351 0.0178,-0.0984 0.10239,-0.14668 0.25425,-0.14417 v -0.1447 z" />
  </g>
</svg>
