<?xml version="1.0" encoding="UTF-8" standalone="no"?>
<!-- Created with Inkscape (http://www.inkscape.org/) -->

<svg
   width="5.7250381mm"
   height="5.6291461mm"
   viewBox="0 0 5.7250381 5.6291461"
   version="1.1"
   id="svg1"
   xmlns="http://www.w3.org/2000/svg"
   xmlns:svg="http://www.w3.org/2000/svg">
  <defs
     id="defs1">
    <linearGradient
       id="swatch4">
      <stop
         style="stop-color:#000000;stop-opacity:1;"
         offset="0"
         id="stop4" />
    </linearGradient>
  </defs>
  <g
     id="layer3"
     transform="translate(-224.88088,-181.20675)">
    <path
       id="path24-11-10-15-0"
       style="display:inline;fill:#ffffff;fill-opacity:1;stroke:none;stroke-width:0.200527;stroke-dasharray:none;stroke-opacity:1"
       d="m 227.74313,181.20676 c -1.16546,0 -2.32854,0.0383 -2.64066,0.11421 l 2.6665,1.89446 2.59261,-1.90014 c -0.34405,-0.0724 -1.48079,-0.10853 -2.61845,-0.10853 z m 2.75643,0.2558 -2.56936,1.88361 c 0.0366,0.0272 0.0754,0.0602 0.11989,0.1018 0.0994,0.093 0.22202,0.22296 0.36122,0.37827 0.2784,0.31061 0.62086,0.72419 0.95085,1.1436 0.32999,0.4194 0.64697,0.84394 0.87436,1.17616 0.1137,0.16612 0.2046,0.30943 0.26458,0.41909 0.005,0.009 0.008,0.0163 0.0129,0.0248 0.12719,-0.88983 0.12242,-4.44123 -0.0145,-5.12734 z m -5.51595,0.0202 c -0.13548,0.74634 -0.1371,4.35136 -0.004,5.15162 0.0105,-0.0216 0.0224,-0.0442 0.0362,-0.0693 0.06,-0.10966 0.15089,-0.25297 0.26459,-0.41909 0.22739,-0.33222 0.54438,-0.75676 0.87436,-1.17616 0.32999,-0.41941 0.67297,-0.83299 0.95137,-1.1436 0.13919,-0.15531 0.26127,-0.28532 0.3607,-0.37827 0.0479,-0.0448 0.0907,-0.0803 0.1297,-0.10852 z m 2.77451,1.98075 c -0.0268,0.0195 -0.0631,0.0504 -0.10697,0.0915 -0.092,0.086 -0.21267,0.21229 -0.34985,0.36535 -0.27436,0.30611 -0.61536,0.71814 -0.94361,1.13534 -0.32825,0.4172 -0.64407,0.83996 -0.86817,1.16737 -0.11204,0.16371 -0.20079,0.30415 -0.25631,0.40566 -0.0265,0.0485 -0.0436,0.0864 -0.0532,0.11317 0.0365,0.007 0.0904,0.0154 0.1602,0.0227 0.14755,0.0155 0.35693,0.0286 0.60616,0.0393 0.49846,0.0213 1.15527,0.032 1.81178,0.032 0.65651,0 1.31384,-0.0108 1.81229,-0.032 0.24923,-0.0106 0.45964,-0.0238 0.6072,-0.0393 0.0702,-0.007 0.12376,-0.0155 0.16019,-0.0227 -0.01,-0.0268 -0.0277,-0.0647 -0.0543,-0.11317 -0.0555,-0.10151 -0.14426,-0.24195 -0.25631,-0.40566 -0.2241,-0.32741 -0.54043,-0.75017 -0.86868,-1.16737 -0.32826,-0.4172 -0.66925,-0.82923 -0.94361,-1.13534 -0.13718,-0.15306 -0.2573,-0.27932 -0.34934,-0.36535 -0.0439,-0.0411 -0.0807,-0.072 -0.10748,-0.0915 z m 0.03,1.04128 0.38137,0.31523 c 0.0511,0.0334 0.12148,0.0343 0.21136,0.003 -0.0876,0.0717 -0.15427,0.10474 -0.19999,0.0997 v 0.9772 c 0.0442,0.003 0.11037,0.0389 0.19792,0.10646 -0.0798,-0.0284 -0.14497,-0.03 -0.19534,-0.004 l -0.41857,0.56793 c -0.0573,-0.0817 -0.12458,-0.13263 -0.20206,-0.15348 -0.0775,-0.0208 -0.15506,-0.002 -0.23254,0.0574 0.0984,-0.19682 0.1946,-0.29711 0.28835,-0.30128 0.0937,-0.005 0.1747,0.0346 0.24288,0.11886 l 0.0801,-0.11266 v -1.19837 l -0.2651,-0.22531 -0.10542,0.0785 v 0.79685 c 0.0566,0.0117 0.10828,0.0613 0.15555,0.14883 l 0.20205,-0.29353 -0.001,0.14108 -0.26252,0.40514 c -0.0566,-0.10174 -0.1419,-0.1626 -0.25579,-0.18345 -0.1139,-0.0208 -0.20829,-0.002 -0.28267,0.0574 0.0442,-0.12843 0.11838,-0.19681 0.22221,-0.20515 v -0.62787 c -0.0922,0.0133 -0.17315,-0.0193 -0.24288,-0.0977 0.093,0.0108 0.17418,-0.0118 0.24391,-0.0677 z m -0.10439,0.31885 v 0.83457 l -0.0651,-0.0589 v -0.71675 z" />
  </g>
</svg>
