<?xml version="1.0" encoding="UTF-8" standalone="no"?>
<!-- Created with Inkscape (http://www.inkscape.org/) -->

<svg
   width="5.6704388mm"
   height="5.9009638mm"
   viewBox="0 0 5.6704388 5.9009638"
   version="1.1"
   id="svg1"
   xmlns="http://www.w3.org/2000/svg"
   xmlns:svg="http://www.w3.org/2000/svg">
  <defs
     id="defs1">
    <linearGradient
       id="swatch4">
      <stop
         style="stop-color:#000000;stop-opacity:1;"
         offset="0"
         id="stop4" />
    </linearGradient>
  </defs>
  <g
     id="layer3"
     transform="translate(-209.13705,-195.7454)">
    <path
       id="path237-317-04-6-4"
       style="fill:#ffffff;fill-opacity:1;stroke:none;stroke-width:0.200527;stroke-dasharray:none;stroke-opacity:1"
       d="m 211.972,195.74541 c -0.12765,0 -1.63099,0.48825 -1.73426,0.56328 -0.10327,0.075 -1.03232,1.35396 -1.07177,1.47536 -0.0183,0.0563 -0.0276,0.4279 -0.0289,0.82062 0.008,-0.005 0.0144,-0.009 0.0227,-0.0139 0.0745,-0.0438 0.17703,-0.097 0.29973,-0.1571 0.24539,-0.12015 0.57201,-0.26755 0.90795,-0.41134 0.33595,-0.14379 0.68049,-0.28357 0.96118,-0.38861 0.14035,-0.0525 0.26407,-0.0963 0.36639,-0.12816 0.0512,-0.0159 0.0965,-0.0286 0.13953,-0.0388 0.043,-0.0101 0.0759,-0.0207 0.15141,-0.0207 0.0755,0 0.10838,0.0105 0.15141,0.0207 0.043,0.0101 0.0884,0.0228 0.13953,0.0388 0.10232,0.0319 0.22603,0.0756 0.36638,0.12816 0.2807,0.10504 0.62575,0.24482 0.9617,0.38861 0.33595,0.14379 0.66256,0.29119 0.90796,0.41134 0.12023,0.0589 0.22047,0.11072 0.29455,0.154 -0.002,-0.38625 -0.0109,-0.74812 -0.0289,-0.80357 -0.0395,-0.1214 -0.96901,-1.40033 -1.07228,-1.47536 -0.10328,-0.075 -1.60661,-0.56328 -1.73427,-0.56328 z m 0.014,1.83555 c -0.002,3.3e-4 -0.002,1.2e-4 -0.004,5.2e-4 -0.0247,0.006 -0.0622,0.016 -0.10697,0.03 -0.045,0.014 -0.0977,0.0317 -0.15606,0.0522 0.0551,0.0795 0.1541,0.12459 0.29611,0.13539 0.11368,0.008 0.23656,-0.0216 0.36897,-0.0873 -0.1112,-0.0409 -0.21182,-0.0765 -0.28784,-0.10025 -0.0447,-0.0139 -0.0823,-0.0242 -0.10697,-0.03 -0.002,-4e-4 -0.002,-1.9e-4 -0.004,-5.2e-4 z m -0.2682,0.0832 c -0.0573,0.0202 -0.11986,0.043 -0.18707,0.0682 -0.27259,0.102 -0.61452,0.24073 -0.94671,0.38292 -0.33218,0.14218 -0.65569,0.28795 -0.894,0.40463 -0.11915,0.0583 -0.21701,0.10948 -0.28215,0.14779 -0.0326,0.0191 -0.0567,0.0354 -0.0703,0.046 -9.9e-4,7.7e-4 -7.9e-4,8.7e-4 -0.002,0.002 8.1e-4,7.4e-4 6.1e-4,8.5e-4 0.002,0.002 0.0136,0.0106 0.0377,0.0268 0.0703,0.046 0.0652,0.0383 0.163,0.0894 0.28215,0.1478 0.23831,0.11667 0.56182,0.26244 0.894,0.40462 0.33219,0.14219 0.67412,0.28092 0.94671,0.38293 0.0102,0.004 0.0184,0.007 0.0284,0.0103 0.1061,-0.0238 0.18727,-0.0856 0.2434,-0.18552 0.0616,-0.27606 0.12202,-0.51912 0.18087,-0.7307 -0.055,-0.0124 -0.10207,-0.0343 -0.14108,-0.0672 l -0.13384,0.046 0.21394,-0.20877 c 0.0238,0.0364 0.0584,0.0633 0.10335,0.0811 0.12179,-0.41017 0.23738,-0.67897 0.34727,-0.80667 l 0.0724,-0.10387 c -0.001,-4.1e-4 -0.002,-0.001 -0.004,-0.002 -0.003,-0.001 -0.006,-0.002 -0.009,-0.004 -0.14711,0.18845 -0.29314,0.29372 -0.43718,0.31523 -0.16117,0.0233 -0.28736,-0.0126 -0.37879,-0.10852 l -0.17415,0.0785 z m 0.73639,0.0729 c -0.11935,0.28006 -0.21508,0.59107 -0.28732,0.93276 0.10666,0.003 0.22327,-0.0244 0.35037,-0.0816 -0.12737,0.13296 -0.25291,0.20468 -0.37724,0.21498 -0.0362,0.19111 -0.0652,0.39146 -0.0873,0.60099 l 0.1974,0.0863 c 0.0496,-0.0567 0.1114,-0.0834 0.18501,-0.0801 -0.0713,0.0367 -0.16749,0.14471 -0.28836,0.32402 l -0.30127,-0.10542 c -0.0644,0.0589 -0.13841,0.0935 -0.22221,0.10387 0.0961,0.035 0.18451,0.0662 0.25218,0.0873 0.0447,0.0139 0.0823,0.0242 0.10697,0.03 0.002,4e-4 0.002,1.9e-4 0.004,5.2e-4 0.002,-3.3e-4 0.002,-1.2e-4 0.004,-5.2e-4 0.0247,-0.006 0.0622,-0.016 0.10697,-0.03 0.0895,-0.0279 0.2089,-0.0699 0.3452,-0.12092 0.27259,-0.10201 0.61401,-0.24074 0.94619,-0.38293 0.33219,-0.14218 0.65621,-0.28795 0.89452,-0.40462 0.11916,-0.0583 0.21701,-0.1095 0.28216,-0.1478 0.0326,-0.0192 0.0567,-0.0354 0.0703,-0.046 9.8e-4,-7.7e-4 7.8e-4,-8.8e-4 0.002,-0.002 -8.2e-4,-7.4e-4 -6.2e-4,-8.4e-4 -0.002,-0.002 -0.0136,-0.0106 -0.0377,-0.0268 -0.0703,-0.046 -0.0651,-0.0383 -0.163,-0.0895 -0.28216,-0.14779 -0.23831,-0.11668 -0.56233,-0.26245 -0.89452,-0.40463 -0.32763,-0.14024 -0.66308,-0.27668 -0.93379,-0.37827 z m -3.31711,1.08882 c 0.002,0.37797 0.0113,0.72746 0.0289,0.78187 0.0395,0.12141 0.9685,1.40033 1.07177,1.47536 0.10327,0.075 1.60661,0.56327 1.73426,0.56327 0.12765,0 1.63099,-0.48824 1.73426,-0.56327 0.10328,-0.075 1.03284,-1.35395 1.07229,-1.47536 0.0174,-0.0536 0.0264,-0.39354 0.0284,-0.76481 -0.0741,0.0433 -0.17399,0.0952 -0.29404,0.15399 -0.24539,0.12014 -0.57201,0.26756 -0.90795,0.41135 -0.33595,0.1438 -0.681,0.28357 -0.9617,0.3886 -0.14035,0.0525 -0.26406,0.0963 -0.36639,0.12816 -0.0512,0.0159 -0.0965,0.0291 -0.13952,0.0393 -0.043,0.0101 -0.0759,0.0202 -0.15142,0.0202 -0.0755,0 -0.10838,-0.01 -0.15141,-0.0202 -0.043,-0.0101 -0.0884,-0.0233 -0.13953,-0.0393 -0.10232,-0.0319 -0.22603,-0.0756 -0.36638,-0.12816 -0.2807,-0.10503 -0.62524,-0.2448 -0.96118,-0.3886 -0.33595,-0.14379 -0.66256,-0.29121 -0.90796,-0.41135 -0.12269,-0.0601 -0.22524,-0.11329 -0.29972,-0.15709 -0.008,-0.005 -0.0151,-0.009 -0.0227,-0.014 z m 2.80965,0.0362 -0.18707,0.65836 c -0.0953,-0.0517 -0.20598,-0.0178 -0.33228,0.10232 0.0682,-0.15679 0.17137,-0.23127 0.31006,-0.22376 l 0.0501,-0.14521 c -0.0744,-0.035 -0.16334,-0.0164 -0.26717,0.0553 0.0527,-0.10258 0.15432,-0.15806 0.30541,-0.1664 l 0.0734,-0.23048 z" />
  </g>
</svg>
