<?xml version="1.0" encoding="UTF-8" standalone="no"?>
<!-- Created with Inkscape (http://www.inkscape.org/) -->

<svg
   width="5.7250223mm"
   height="5.6291299mm"
   viewBox="0 0 5.7250223 5.6291299"
   version="1.1"
   id="svg1"
   xmlns="http://www.w3.org/2000/svg"
   xmlns:svg="http://www.w3.org/2000/svg">
  <defs
     id="defs1">
    <linearGradient
       id="swatch4">
      <stop
         style="stop-color:#000000;stop-opacity:1;"
         offset="0"
         id="stop4" />
    </linearGradient>
  </defs>
  <g
     id="layer3"
     transform="translate(-162.60538,-181.19489)">
    <path
       id="path24-11-10-81"
       style="display:inline;fill:#ffffff;fill-opacity:1;stroke:none;stroke-width:0.200527;stroke-dasharray:none;stroke-opacity:1"
       d="m 165.4676,181.19488 c -1.16547,0 -2.32855,0.0383 -2.64067,0.1142 l 2.66651,1.89446 2.59261,-1.90014 c -0.34405,-0.0724 -1.48079,-0.10852 -2.61845,-0.10852 z m 2.75642,0.2558 -2.56935,1.8836 c 0.0366,0.0272 0.0754,0.0602 0.11989,0.10181 0.0994,0.093 0.22202,0.22296 0.36122,0.37827 0.27839,0.31061 0.62086,0.72419 0.95084,1.1436 0.32999,0.4194 0.64698,0.84393 0.87437,1.17615 0.11369,0.16612 0.2046,0.30944 0.26458,0.4191 0.005,0.009 0.008,0.0163 0.0129,0.0248 0.12719,-0.88983 0.12242,-4.44122 -0.0145,-5.12733 z m -5.51594,0.0202 c -0.13548,0.74634 -0.13707,4.35136 -0.004,5.15162 0.0105,-0.0216 0.0224,-0.0441 0.0362,-0.0692 0.06,-0.10966 0.15088,-0.25298 0.26458,-0.4191 0.22739,-0.33222 0.54438,-0.75675 0.87437,-1.17615 0.32998,-0.41941 0.67296,-0.83299 0.95136,-1.1436 0.1392,-0.15531 0.26127,-0.28532 0.3607,-0.37827 0.0479,-0.0448 0.0907,-0.0803 0.12971,-0.10852 z m 2.7745,1.98076 c -0.0268,0.0195 -0.0631,0.0504 -0.10697,0.0915 -0.092,0.086 -0.21267,0.21229 -0.34985,0.36535 -0.27436,0.30611 -0.61535,0.71813 -0.94361,1.13533 -0.32825,0.4172 -0.64407,0.83996 -0.86816,1.16737 -0.11205,0.16371 -0.20079,0.30415 -0.25632,0.40566 -0.0265,0.0485 -0.0436,0.0864 -0.0532,0.11317 0.0365,0.007 0.0904,0.0154 0.1602,0.0227 0.14756,0.0155 0.35694,0.0286 0.60617,0.0393 0.49845,0.0213 1.15526,0.032 1.81177,0.032 0.65651,0 1.31384,-0.0108 1.81229,-0.032 0.24923,-0.0106 0.45964,-0.0238 0.6072,-0.0393 0.0702,-0.007 0.12376,-0.0155 0.1602,-0.0227 -0.01,-0.0268 -0.0277,-0.0647 -0.0543,-0.11317 -0.0555,-0.10151 -0.14427,-0.24195 -0.25632,-0.40566 -0.2241,-0.32741 -0.54043,-0.75017 -0.86868,-1.16737 -0.32826,-0.4172 -0.66925,-0.82922 -0.94361,-1.13533 -0.13718,-0.15306 -0.2573,-0.27932 -0.34934,-0.36535 -0.0439,-0.0411 -0.0807,-0.072 -0.10748,-0.0915 z m -0.0258,1.06143 c 0.002,0.13094 0.0833,0.20135 0.24598,0.21136 l -0.11007,0.14624 -0.002,1.38338 0.19792,0.0863 c 0.0496,-0.0567 0.11088,-0.0834 0.18448,-0.0801 -0.0713,0.0367 -0.16696,0.14471 -0.28783,0.32401 l -0.27802,-0.1049 c -0.0356,0.055 -0.1171,0.0856 -0.24494,0.0915 0.0961,-0.0459 0.16331,-0.11131 0.20205,-0.19637 l 0.001,-1.49862 c -0.0411,-0.007 -0.0726,-0.0255 -0.0951,-0.0563 l -0.1943,0.0698 z m 0.25683,0.27647 v 1.34204 l -0.0651,0.0589 v -1.31 z" />
  </g>
</svg>
