<?xml version="1.0" encoding="UTF-8" standalone="no"?>
<!-- Created with Inkscape (http://www.inkscape.org/) -->

<svg
   width="7.2042117mm"
   height="6.3448mm"
   viewBox="0 0 7.2042117 6.3448"
   version="1.1"
   id="svg1"
   xmlns="http://www.w3.org/2000/svg"
   xmlns:svg="http://www.w3.org/2000/svg">
  <defs
     id="defs1">
    <linearGradient
       id="swatch4">
      <stop
         style="stop-color:#000000;stop-opacity:1;"
         offset="0"
         id="stop4" />
    </linearGradient>
  </defs>
  <g
     id="layer3"
     transform="translate(-254.91926,-158.55698)">
    <path
       id="path34-81-8-39-2-60-1"
       style="fill:#ffffff;fill-opacity:1;stroke:none;stroke-width:0.200326;stroke-dasharray:none;stroke-opacity:1"
       d="m 258.45392,158.55698 c -0.53449,0.28392 -3.53467,2.96694 -3.53467,3.18172 0,0.0765 0.38355,0.46819 0.89762,0.95085 z m 0.13384,0 2.6355,4.13464 c 0.5152,-0.48363 0.9002,-0.87636 0.9002,-0.95292 0,-0.2149 -3.00363,-2.90029 -3.5357,-3.18172 z m -0.0667,0.26614 -2.45928,3.85816 2.46342,1.11053 2.45049,-1.1157 z m 0.11007,1.85725 c 0.017,0.10175 0.0729,0.16312 0.16743,0.18397 0.0945,0.0208 0.17625,0.002 0.24599,-0.0574 -0.0775,0.20349 -0.17291,0.30967 -0.28681,0.31884 -0.1139,0.009 -0.20415,-0.0424 -0.27078,-0.15503 l -0.12558,0.0749 z m -0.80098,0.0263 c 10e-4,0.13094 0.0838,0.20135 0.24649,0.21136 l -0.11058,0.14676 -0.001,1.38338 0.1974,0.0863 c 0.0496,-0.0567 0.1114,-0.0834 0.185,-0.0801 -0.0713,0.0367 -0.16748,0.14471 -0.28835,0.32401 l -0.2775,-0.1049 c -0.0356,0.055 -0.11762,0.0856 -0.24547,0.0915 0.0961,-0.0459 0.16332,-0.11182 0.20206,-0.19689 l 10e-4,-1.49862 c -0.0411,-0.007 -0.0731,-0.0255 -0.0956,-0.0563 l -0.19379,0.0703 z m 1.21801,0.11008 0.24185,0.20928 c 0.0504,0.0259 0.11553,0.0242 0.19533,-0.004 -0.0875,0.0675 -0.15375,0.10312 -0.19792,0.10645 v 0.3514 l -0.44235,0.154 0.44132,0.154 v 0.73277 c 0.10925,0.003 0.2114,0.0745 0.30592,0.2129 -0.0442,-0.0575 -0.14967,-0.0861 -0.31626,-0.0853 l -0.22789,-0.20981 v -0.64802 l -0.36018,-0.14263 0.36018,-0.16898 z m -0.96118,0.16639 v 1.34256 l -0.0651,0.0589 v -1.31 z m 0.92656,0.82683 -0.002,0.5643 c -0.11622,-0.0592 -0.23001,-0.0624 -0.34158,-0.01 0.0387,-0.0934 0.1308,-0.131 0.27647,-0.11265 v -0.14159 c -0.0891,-0.0409 -0.17367,-0.0291 -0.25425,0.0351 0.0178,-0.0984 0.10238,-0.14617 0.25425,-0.14366 v -0.14522 z m -0.38706,0.52296 c 0.0256,0.10175 0.0786,0.16312 0.15917,0.18397 0.0806,0.0208 0.17238,0.002 0.27543,-0.0574 -0.0968,0.18681 -0.20443,0.28893 -0.32298,0.30644 -0.11777,0.0175 -0.22664,-0.03 -0.32659,-0.14263 l -0.17312,0.0625 z m 2.39882,0.5426 -2.4045,1.09348 v 0.93276 c 0.36199,-0.21531 1.5174,-1.20609 2.4045,-2.02624 z m -4.99608,0.0103 c 0.88386,0.81645 2.02803,1.79843 2.39056,2.01538 v -0.93638 z" />
  </g>
</svg>
