<?xml version="1.0" encoding="UTF-8" standalone="no"?>
<!-- Created with Inkscape (http://www.inkscape.org/) -->

<svg
   width="5.7250543mm"
   height="5.6291461mm"
   viewBox="0 0 5.7250543 5.6291461"
   version="1.1"
   id="svg1"
   xmlns="http://www.w3.org/2000/svg"
   xmlns:svg="http://www.w3.org/2000/svg">
  <defs
     id="defs1">
    <linearGradient
       id="swatch4">
      <stop
         style="stop-color:#000000;stop-opacity:1;"
         offset="0"
         id="stop4" />
    </linearGradient>
  </defs>
  <g
     id="layer3"
     transform="translate(-209.16763,-181.20675)">
    <path
       id="path24-11-10-1-8"
       style="display:inline;fill:#ffffff;fill-opacity:1;stroke:none;stroke-width:0.200527;stroke-dasharray:none;stroke-opacity:1"
       d="m 212.02988,181.20676 c -1.16547,0 -2.32854,0.0383 -2.64066,0.11421 l 2.6665,1.89446 2.59261,-1.90014 c -0.34405,-0.0724 -1.48079,-0.10853 -2.61845,-0.10853 z m 2.75642,0.2558 -2.56935,1.88361 c 0.0366,0.0272 0.0754,0.0602 0.11989,0.1018 0.0994,0.093 0.22202,0.22296 0.36122,0.37827 0.27839,0.31061 0.62086,0.72419 0.95084,1.1436 0.32999,0.4194 0.64698,0.84394 0.87437,1.17616 0.11369,0.16612 0.2046,0.30943 0.26458,0.41909 0.005,0.009 0.008,0.0163 0.0129,0.0248 0.12719,-0.88983 0.12242,-4.44123 -0.0145,-5.12734 z m -5.51594,0.0202 c -0.13548,0.74634 -0.1371,4.35136 -0.004,5.15162 0.0105,-0.0216 0.0224,-0.0442 0.0362,-0.0693 0.06,-0.10966 0.15089,-0.25297 0.26458,-0.41909 0.22739,-0.33222 0.54438,-0.75676 0.87437,-1.17616 0.32999,-0.41941 0.67297,-0.83299 0.95136,-1.1436 0.1392,-0.15531 0.26128,-0.28532 0.3607,-0.37827 0.0479,-0.0448 0.0907,-0.0803 0.12971,-0.10852 z m 2.77451,1.98075 c -0.0268,0.0195 -0.0631,0.0504 -0.10697,0.0915 -0.092,0.086 -0.21267,0.21229 -0.34985,0.36535 -0.27436,0.30611 -0.61536,0.71814 -0.94361,1.13534 -0.32826,0.4172 -0.64407,0.83996 -0.86817,1.16737 -0.11205,0.16371 -0.20079,0.30415 -0.25631,0.40566 -0.0265,0.0485 -0.0436,0.0864 -0.0532,0.11317 0.0365,0.007 0.0904,0.0154 0.16019,0.0227 0.14756,0.0155 0.35694,0.0286 0.60617,0.0393 0.49845,0.0213 1.15527,0.032 1.81177,0.032 0.65651,0 1.31384,-0.0108 1.8123,-0.032 0.24922,-0.0106 0.45964,-0.0238 0.60719,-0.0393 0.0702,-0.007 0.12377,-0.0155 0.1602,-0.0227 -0.01,-0.0268 -0.0277,-0.0647 -0.0543,-0.11317 -0.0555,-0.10151 -0.14427,-0.24195 -0.25631,-0.40566 -0.2241,-0.32741 -0.54043,-0.75017 -0.86868,-1.16737 -0.32826,-0.4172 -0.66926,-0.82923 -0.94362,-1.13534 -0.13718,-0.15306 -0.2573,-0.27932 -0.34933,-0.36535 -0.0439,-0.0411 -0.0807,-0.072 -0.10749,-0.0915 z m 0.50023,1.04284 c -0.16581,0.23518 -0.33003,0.36493 -0.49196,0.38912 -0.16117,0.0233 -0.28736,-0.0131 -0.37879,-0.10904 l -0.17415,0.0791 0.27647,-0.3514 c 0.055,0.0801 0.15405,0.12506 0.29662,0.13591 0.14257,0.01 0.2998,-0.0377 0.47181,-0.14366 z m -0.015,0.0398 c -0.12778,0.29082 -0.22956,0.61584 -0.3054,0.97461 0.10666,0.003 0.22326,-0.0239 0.35036,-0.0811 -0.12736,0.13296 -0.25291,0.20416 -0.37723,0.21446 -0.0362,0.19111 -0.0652,0.39147 -0.0873,0.601 l 0.1974,0.0863 c 0.0496,-0.0567 0.11139,-0.0834 0.185,-0.0801 -0.0713,0.0367 -0.16748,0.1447 -0.28835,0.32401 l -0.30128,-0.10491 c -0.10847,0.0993 -0.24424,0.12984 -0.40772,0.0915 0.16736,0.004 0.2889,-0.0613 0.36483,-0.19637 0.0616,-0.27602 0.12203,-0.51914 0.18087,-0.7307 -0.055,-0.0124 -0.10207,-0.0348 -0.14108,-0.0677 l -0.13384,0.0465 0.21394,-0.20929 c 0.0238,0.0364 0.0584,0.0633 0.10335,0.0811 0.12174,-0.4099 0.23742,-0.67901 0.34727,-0.80667 z m -0.52554,1.16737 -0.18707,0.65784 c -0.0953,-0.0517 -0.20599,-0.0173 -0.33228,0.10283 0.0682,-0.15678 0.17137,-0.23126 0.31006,-0.22376 l 0.0501,-0.14521 c -0.0744,-0.035 -0.16335,-0.0169 -0.26717,0.0548 0.0527,-0.10258 0.15432,-0.15806 0.30541,-0.1664 l 0.0734,-0.22996 z" />
  </g>
</svg>
