<?xml version="1.0" encoding="UTF-8" standalone="no"?>
<!-- Created with Inkscape (http://www.inkscape.org/) -->

<svg
   width="7.2042117mm"
   height="6.3608594mm"
   viewBox="0 0 7.2042117 6.3608594"
   version="1.1"
   id="svg1"
   xmlns="http://www.w3.org/2000/svg"
   xmlns:svg="http://www.w3.org/2000/svg">
  <defs
     id="defs1">
    <linearGradient
       id="swatch4">
      <stop
         style="stop-color:#000000;stop-opacity:1;"
         offset="0"
         id="stop4" />
    </linearGradient>
  </defs>
  <g
     id="layer3"
     transform="translate(-200.96554,-135.35983)">
    <path
       id="path280-3-7-8-3"
       style="fill:#ffffff;fill-opacity:1;stroke:none;stroke-width:0.250658;stroke-dasharray:none;stroke-opacity:1"
       d="m 204.68158,135.35983 2.60708,4.08864 c 0.50569,-0.47548 0.88108,-0.85971 0.88108,-0.93534 0,-0.20955 -2.85254,-2.76497 -3.48816,-3.1533 z m -0.22892,5.2e-4 c -0.63719,0.38995 -3.48713,2.94332 -3.48713,3.15278 0,0.0756 0.37506,0.4595 0.88057,0.93482 z m 0.11472,0.2868 -2.52698,3.961 -0.0729,-0.0465 c 1.00836,0.93865 2.43675,2.15904 2.59984,2.15904 0.16424,0 1.61163,-1.23749 2.62103,-2.17867 l -0.0977,0.062 z m -0.46509,2.31511 c 0.0109,0.0817 0.0548,0.13314 0.13229,0.15399 0.0775,0.0208 0.15506,0.001 0.23255,-0.0579 -0.0984,0.19681 -0.19461,0.29782 -0.28836,0.30282 -0.0937,0.004 -0.17469,-0.0357 -0.24288,-0.11989 l -0.0801,0.0873 v 1.2361 l 0.32298,0.19999 0.0475,-0.0661 v -0.82166 c -0.0566,-0.0117 -0.10052,-0.0491 -0.13229,-0.11162 l -0.22531,0.31884 0.001,-0.11627 0.37879,-0.49299 c 0.0178,0.10174 0.0739,0.16312 0.16846,0.18397 0.0945,0.0208 0.17883,0.002 0.25322,-0.0574 -0.0829,0.17014 -0.15661,0.26747 -0.22169,0.29249 l -0.001,0.66818 -0.35709,0.47801 -0.4625,-0.31523 c -0.0511,-0.0334 -0.12148,-0.0343 -0.21136,-0.003 0.0876,-0.0717 0.15427,-0.10526 0.19999,-0.10026 v -1.0144 c -0.0442,-0.003 -0.11037,-0.0389 -0.19792,-0.10646 0.0798,0.0284 0.14497,0.03 0.19533,0.004 z m 1.11673,0.0264 c 0.004,0.0709 0.0584,0.13429 0.16381,0.19017 0.10615,0.0559 0.21813,0.047 0.3359,-0.0263 l -0.12661,0.14882 v 1.16737 l -0.22427,0.19741 v -0.66198 c 0.10072,-0.004 0.15089,-0.0508 0.15089,-0.14004 0,-0.0901 -0.0502,-0.13468 -0.15089,-0.13384 v -0.28526 c -0.12165,-0.0333 -0.22276,-0.10691 -0.30334,-0.22117 v 0.5054 c -0.10073,0.003 -0.15142,0.0488 -0.15142,0.13642 0,0.0867 0.0507,0.13246 0.15142,0.13746 v 0.71158 l 0.18345,0.12558 0.34416,-0.3328 -0.006,0.11731 -0.43822,0.44028 -0.3116,-0.19017 c -0.0356,-0.0167 -0.0868,-0.0176 -0.15348,-0.003 0.0643,-0.055 0.11241,-0.084 0.14418,-0.0873 v -1.35237 c -0.0364,0.0134 -0.0907,-0.0136 -0.16279,-0.0811 0.0643,0.0284 0.1181,0.0295 0.16072,0.004 z m -0.008,0.53899 c 0.008,0 0.0172,0.002 0.0253,0.006 0.0163,0.008 0.0264,0.021 0.031,0.0377 0.005,0.0159 0.005,0.0319 0,0.0486 -0.005,0.0167 -0.0183,0.0294 -0.0393,0.0377 v 0.18759 h 0.10232 c 0.008,-0.0225 0.0191,-0.0365 0.0346,-0.0424 0.0155,-0.006 0.0308,-0.006 0.0455,0 0.0155,0.005 0.0269,0.0161 0.0346,0.0336 0.008,0.0175 0.008,0.0361 0,0.0553 -0.007,0.0183 -0.0186,0.0296 -0.0357,0.0346 -0.017,0.005 -0.0336,0.004 -0.0491,-0.004 -0.0155,-0.007 -0.0253,-0.0226 -0.03,-0.046 h -0.10181 l 5.2e-4,0.6413 c 0.0209,0.008 0.0344,0.0211 0.0398,0.0377 0.005,0.0167 0.005,0.0334 0,0.0501 -0.005,0.0159 -0.0153,0.0278 -0.0315,0.0362 -0.0163,0.008 -0.0333,0.009 -0.0512,0.001 -0.017,-0.008 -0.0279,-0.0214 -0.0326,-0.0398 -0.005,-0.0183 -0.003,-0.036 0.004,-0.0527 0.007,-0.0167 0.0212,-0.0276 0.0429,-0.0326 l -5.2e-4,-0.6413 h -0.1111 c -0.005,0.0234 -0.0145,0.0385 -0.03,0.046 -0.0155,0.008 -0.032,0.009 -0.0491,0.004 -0.017,-0.005 -0.0295,-0.0163 -0.0372,-0.0346 -0.007,-0.0192 -0.007,-0.0378 0.001,-0.0553 0.008,-0.0175 0.0194,-0.0286 0.0341,-0.0336 0.0155,-0.006 0.031,-0.006 0.0465,0 0.0155,0.006 0.0269,0.0199 0.0346,0.0424 h 0.11059 v -0.18759 c -0.0217,-0.005 -0.0364,-0.0159 -0.0434,-0.0325 -0.007,-0.0167 -0.008,-0.0344 -0.003,-0.0527 0.005,-0.0183 0.0155,-0.0313 0.0326,-0.0388 0.009,-0.004 0.0173,-0.006 0.0258,-0.006 z m -1.09761,0.32142 0.0651,0.0589 v 0.75447 l -0.0651,0.0589 z" />
  </g>
</svg>
