<?xml version="1.0" encoding="UTF-8" standalone="no"?>
<!-- Created with Inkscape (http://www.inkscape.org/) -->

<svg
   width="5.7250223mm"
   height="5.6291299mm"
   viewBox="0 0 5.7250223 5.6291299"
   version="1.1"
   id="svg1"
   xmlns="http://www.w3.org/2000/svg"
   xmlns:svg="http://www.w3.org/2000/svg">
  <defs
     id="defs1">
    <linearGradient
       id="swatch4">
      <stop
         style="stop-color:#000000;stop-opacity:1;"
         offset="0"
         id="stop4" />
    </linearGradient>
  </defs>
  <g
     id="layer3"
     transform="translate(-162.60511,-188.74895)">
    <path
       id="path24-11-10-53-3"
       style="display:inline;fill:#ffffff;fill-opacity:1;stroke:none;stroke-width:0.200527;stroke-dasharray:none;stroke-opacity:1"
       d="m 165.46735,188.74894 c -1.16547,0 -2.32855,0.0383 -2.64067,0.11421 l 2.6665,1.89445 2.59261,-1.90014 c -0.34404,-0.0724 -1.48079,-0.10852 -2.61844,-0.10852 z m 2.75642,0.2558 -2.56935,1.8836 c 0.0366,0.0272 0.0754,0.0602 0.11989,0.10181 0.0994,0.093 0.22202,0.22296 0.36122,0.37827 0.27839,0.31061 0.62085,0.72419 0.95084,1.1436 0.32999,0.4194 0.64698,0.84393 0.87437,1.17615 0.11369,0.16612 0.2046,0.30944 0.26458,0.4191 0.005,0.009 0.008,0.0163 0.0129,0.0248 0.12719,-0.88983 0.12241,-4.44122 -0.0145,-5.12733 z m -5.51595,0.0202 c -0.13548,0.74634 -0.13707,4.35137 -0.004,5.15163 0.0105,-0.0216 0.0224,-0.0442 0.0362,-0.0693 0.06,-0.10966 0.15089,-0.25298 0.26459,-0.4191 0.22739,-0.33222 0.54438,-0.75675 0.87436,-1.17615 0.32999,-0.41941 0.67297,-0.83299 0.95137,-1.1436 0.13919,-0.15531 0.26127,-0.28532 0.3607,-0.37827 0.0479,-0.0448 0.0907,-0.0803 0.1297,-0.10852 z m 2.77451,1.98076 c -0.0268,0.0195 -0.063,0.0504 -0.10697,0.0915 -0.092,0.086 -0.21267,0.21229 -0.34985,0.36535 -0.27436,0.30611 -0.61536,0.71813 -0.94361,1.13533 -0.32825,0.4172 -0.64407,0.83996 -0.86816,1.16737 -0.11205,0.16371 -0.20079,0.30415 -0.25632,0.40566 -0.0265,0.0485 -0.0436,0.0864 -0.0532,0.11317 0.0365,0.007 0.0904,0.0154 0.1602,0.0227 0.14756,0.0155 0.35694,0.0286 0.60616,0.0393 0.49846,0.0213 1.15527,0.032 1.81178,0.032 0.6565,0 1.31383,-0.0108 1.81229,-0.032 0.24922,-0.0106 0.45964,-0.0238 0.6072,-0.0393 0.0702,-0.007 0.12376,-0.0155 0.16019,-0.0227 -0.01,-0.0268 -0.0277,-0.0647 -0.0543,-0.11317 -0.0555,-0.10151 -0.14427,-0.24195 -0.25631,-0.40566 -0.2241,-0.32741 -0.54043,-0.75017 -0.86868,-1.16737 -0.32826,-0.4172 -0.66926,-0.82922 -0.94362,-1.13533 -0.13718,-0.15306 -0.25729,-0.27932 -0.34933,-0.36535 -0.0439,-0.0411 -0.0807,-0.072 -0.10748,-0.0915 z m -0.62735,1.00459 c 0.0434,0.10175 0.11347,0.1681 0.21032,0.19895 0.0968,0.03 0.23236,-0.0321 0.4067,-0.18551 -0.1232,0.25019 -0.24293,0.38899 -0.35915,0.41651 -0.11545,0.0275 -0.22872,-0.0302 -0.33952,-0.17364 l -0.13694,0.0713 z m 0.64234,0.0196 v 0.90588 l -0.58085,0.5178 v 0.41031 l 0.53331,-0.001 c 0.0728,-0.17347 0.18119,-0.28809 0.32453,-0.34313 -0.14644,0.0901 -0.25041,0.281 -0.31162,0.57206 l -0.74259,-0.003 c -0.13326,0.008 -0.24214,-0.0163 -0.32659,-0.0713 0.15031,0.004 0.24496,-0.0364 0.2837,-0.12144 v -0.38396 l 0.5948,-0.53397 v -0.60513 c 0.0744,-0.05 0.14938,-0.16466 0.22531,-0.34313 z m 0.52762,0 c 0.002,0.13093 0.0838,0.20135 0.24649,0.21135 l -0.11007,0.14676 -0.002,1.38338 0.19792,0.0863 c 0.0496,-0.0567 0.11088,-0.0834 0.18449,-0.0801 -0.0713,0.0367 -0.16697,0.14471 -0.28784,0.32402 l -0.27802,-0.10491 c -0.0356,0.055 -0.11762,0.0856 -0.24546,0.0915 0.0961,-0.0459 0.16383,-0.11182 0.20257,-0.19689 l 0.001,-1.49861 c -0.0411,-0.007 -0.0726,-0.0255 -0.0951,-0.0563 l -0.19431,0.0703 z m 0.25683,0.27647 v 1.34255 l -0.0646,0.0589 v -1.31 z m -1.03663,0.0827 -0.001,0.5643 c -0.11623,-0.0592 -0.23001,-0.0624 -0.34158,-0.01 0.0387,-0.0934 0.1308,-0.13101 0.27646,-0.11266 v -0.14159 c -0.0891,-0.0409 -0.17366,-0.0291 -0.25424,0.0351 0.0178,-0.0984 0.10238,-0.14668 0.25424,-0.14418 v -0.14469 z" />
  </g>
</svg>
