<?xml version="1.0" encoding="UTF-8" standalone="no"?>
<!-- Created with Inkscape (http://www.inkscape.org/) -->

<svg
   width="5.7248445mm"
   height="5.6291461mm"
   viewBox="0 0 5.7248445 5.6291461"
   version="1.1"
   id="svg1"
   xmlns="http://www.w3.org/2000/svg"
   xmlns:svg="http://www.w3.org/2000/svg">
  <defs
     id="defs1">
    <linearGradient
       id="swatch4">
      <stop
         style="stop-color:#000000;stop-opacity:1;"
         offset="0"
         id="stop4" />
    </linearGradient>
  </defs>
  <g
     id="layer3"
     transform="translate(-185.82557,-181.20675)">
    <path
       id="path24-11-10-6-1"
       style="display:inline;fill:#ffffff;fill-opacity:1;stroke:none;stroke-width:0.200527;stroke-dasharray:none;stroke-opacity:1"
       d="m 188.68764,181.20676 c -1.16547,0 -2.32855,0.0383 -2.64067,0.11421 l 2.6665,1.89446 2.59261,-1.90014 c -0.34404,-0.0724 -1.48079,-0.10853 -2.61844,-0.10853 z m 2.75642,0.2558 -2.56935,1.88361 c 0.0366,0.0272 0.0754,0.0602 0.11989,0.1018 0.0994,0.093 0.22202,0.22296 0.36121,0.37827 0.2784,0.31061 0.62086,0.72419 0.95085,1.1436 0.32999,0.4194 0.64697,0.84394 0.87437,1.17616 0.11369,0.16612 0.20459,0.30943 0.26458,0.41909 0.005,0.009 0.008,0.0163 0.0129,0.0248 0.12718,-0.88983 0.12241,-4.44123 -0.0145,-5.12734 z m -5.51594,0.0202 c -0.13549,0.74634 -0.13659,4.35136 -0.004,5.15162 0.0105,-0.0216 0.0224,-0.0442 0.0362,-0.0693 0.06,-0.10966 0.15089,-0.25297 0.26459,-0.41909 0.22739,-0.33222 0.54438,-0.75676 0.87436,-1.17616 0.32999,-0.41941 0.67297,-0.83299 0.95137,-1.1436 0.13919,-0.15531 0.26127,-0.28532 0.3607,-0.37827 0.0479,-0.0448 0.0907,-0.0803 0.12971,-0.10852 z m 2.7745,1.98075 c -0.0268,0.0195 -0.0631,0.0504 -0.10697,0.0915 -0.092,0.086 -0.21267,0.21229 -0.34985,0.36535 -0.27436,0.30611 -0.61535,0.71814 -0.94361,1.13534 -0.32825,0.4172 -0.64407,0.83996 -0.86816,1.16737 -0.11205,0.16371 -0.20079,0.30415 -0.25632,0.40566 -0.0265,0.0485 -0.0436,0.0864 -0.0532,0.11317 0.0365,0.007 0.0904,0.0154 0.1602,0.0227 0.14756,0.0155 0.35694,0.0286 0.60616,0.0393 0.49846,0.0213 1.15527,0.032 1.81178,0.032 0.65651,0 1.31384,-0.0108 1.81229,-0.032 0.24923,-0.0106 0.45964,-0.0238 0.6072,-0.0393 0.0702,-0.007 0.12376,-0.0155 0.1602,-0.0227 -0.01,-0.0268 -0.0277,-0.0647 -0.0543,-0.11317 -0.0555,-0.10151 -0.14427,-0.24195 -0.25632,-0.40566 -0.22409,-0.32741 -0.54042,-0.75017 -0.86868,-1.16737 -0.32825,-0.4172 -0.66925,-0.82923 -0.94361,-1.13534 -0.13718,-0.15306 -0.2573,-0.27932 -0.34933,-0.36535 -0.0439,-0.0411 -0.0807,-0.072 -0.10749,-0.0915 z m 0.13901,1.02216 c 0.0201,0.10175 0.0822,0.16312 0.18604,0.18397 0.1046,0.0208 0.19718,0.001 0.27853,-0.0579 -0.0914,0.17013 -0.20055,0.25802 -0.32762,0.26303 -0.1263,0.005 -0.22819,-0.0283 -0.30645,-0.0992 l -0.13745,0.0625 z m 0.23565,0.39998 v 1.06453 l 0.22117,0.002 v 0.0811 l -0.22117,-0.003 v 0.1602 l 0.092,0.0713 c 0.0349,-0.055 0.0943,-0.0811 0.1788,-0.0785 -0.0581,0.0292 -0.14837,0.15599 -0.27079,0.38033 l -0.19637,-0.14676 c -0.0744,0.0742 -0.17265,0.12158 -0.29507,0.1416 0.1015,-0.0642 0.17753,-0.14551 0.22789,-0.24392 v -0.26251 h -0.55655 v -0.0951 l 0.55656,0.001 v -1.06454 c 0.0883,0.0317 0.17599,0.029 0.26355,-0.008 z m -0.27854,0.0129 c -0.10692,0.04 -0.21088,0.34546 -0.31161,0.91674 -0.14334,0.12927 -0.29617,0.16392 -0.45888,0.10387 0.11854,0.0275 0.2481,-0.13688 0.38912,-0.49299 0.14102,-0.35611 0.26825,-0.53179 0.38137,-0.52762 z" />
  </g>
</svg>
