<?xml version="1.0" encoding="UTF-8" standalone="no"?>
<!-- Created with Inkscape (http://www.inkscape.org/) -->

<svg
   width="5.6705356mm"
   height="5.9009795mm"
   viewBox="0 0 5.6705356 5.9009795"
   version="1.1"
   id="svg1"
   xmlns="http://www.w3.org/2000/svg"
   xmlns:svg="http://www.w3.org/2000/svg">
  <defs
     id="defs1">
    <linearGradient
       id="swatch4">
      <stop
         style="stop-color:#000000;stop-opacity:1;"
         offset="0"
         id="stop4" />
    </linearGradient>
  </defs>
  <g
     id="layer3"
     transform="translate(-240.22913,-195.7469)">
    <path
       id="path237-317-04-77-7"
       style="fill:#ffffff;fill-opacity:1;stroke:none;stroke-width:0.200527;stroke-dasharray:none;stroke-opacity:1"
       d="m 243.06416,195.74696 c -0.12765,0 -1.63099,0.48825 -1.73426,0.56328 -0.10327,0.075 -1.03232,1.35396 -1.07177,1.47536 -0.0183,0.0563 -0.0276,0.4279 -0.0289,0.82062 0.008,-0.005 0.0144,-0.009 0.0227,-0.014 0.0745,-0.0438 0.17703,-0.097 0.29973,-0.1571 0.24539,-0.12015 0.572,-0.26755 0.90795,-0.41134 0.33595,-0.14379 0.68049,-0.28357 0.96118,-0.38861 0.14035,-0.0525 0.26407,-0.0963 0.36639,-0.12816 0.0512,-0.0159 0.0965,-0.0286 0.13953,-0.0388 0.043,-0.0101 0.0759,-0.0207 0.15141,-0.0207 0.0755,0 0.10838,0.0105 0.15141,0.0207 0.043,0.0101 0.0884,0.0228 0.13953,0.0388 0.10232,0.0319 0.22603,0.0756 0.36638,0.12816 0.2807,0.10504 0.62575,0.24482 0.9617,0.38861 0.33595,0.14379 0.66256,0.29119 0.90795,0.41134 0.12024,0.0589 0.22047,0.11072 0.29456,0.154 -0.002,-0.38625 -0.0109,-0.74812 -0.0289,-0.80357 -0.0395,-0.1214 -0.96901,-1.40033 -1.07229,-1.47536 -0.10327,-0.075 -1.60661,-0.56328 -1.73426,-0.56328 z m 0.0139,1.83555 c -0.002,3.3e-4 -0.002,1.2e-4 -0.004,5.2e-4 -0.0247,0.006 -0.0622,0.016 -0.10697,0.03 -0.0895,0.0279 -0.20838,0.0699 -0.34468,0.12092 -0.0114,0.004 -0.0261,0.0101 -0.0377,0.0145 0.0314,0.0755 0.10793,0.11704 0.22996,0.12454 l -0.11007,0.14625 -0.001,1.38389 0.1974,0.0863 c 0.0496,-0.0567 0.11088,-0.0834 0.18449,-0.0801 -0.0713,0.0367 -0.16697,0.14471 -0.28784,0.32401 l -0.27802,-0.10542 c -0.006,0.009 -0.0127,0.0168 -0.0207,0.0243 0.0398,0.0153 0.0861,0.0346 0.12351,0.0486 0.1363,0.051 0.25518,0.093 0.34468,0.12092 0.0447,0.0139 0.0823,0.0242 0.10697,0.03 0.002,4e-4 0.002,1.9e-4 0.004,5.2e-4 0.002,-3.3e-4 0.002,-1.2e-4 0.004,-5.2e-4 0.0247,-0.006 0.0622,-0.016 0.10697,-0.03 0.0895,-0.0279 0.2089,-0.0699 0.3452,-0.12092 0.005,-0.002 0.0111,-0.004 0.016,-0.006 l -0.1757,-0.0667 c -0.0356,0.055 -0.1171,0.0856 -0.24494,0.0915 0.0961,-0.0459 0.16331,-0.1113 0.20205,-0.19637 l 0.001,-1.49862 c -0.0411,-0.007 -0.0726,-0.0255 -0.0951,-0.0563 l -0.1943,0.0703 0.35656,-0.35347 c -0.0794,-0.0285 -0.15297,-0.0538 -0.21084,-0.0718 -0.0447,-0.0139 -0.0823,-0.0242 -0.10697,-0.03 -0.002,-4e-4 -0.002,-1.9e-4 -0.004,-5.2e-4 z m 0.34727,0.11214 c 0.0144,0.10958 0.0956,0.16916 0.24391,0.17828 l -0.11007,0.14625 -0.001,1.38389 0.1974,0.0863 c 0.0496,-0.0567 0.1114,-0.0834 0.18501,-0.0801 -0.0554,0.0285 -0.12651,0.10029 -0.21188,0.21498 0.23417,-0.0912 0.49094,-0.19497 0.75138,-0.30645 0.33218,-0.14218 0.65621,-0.28795 0.89452,-0.40462 0.11915,-0.0583 0.217,-0.1095 0.28215,-0.1478 0.0326,-0.0192 0.0567,-0.0354 0.0703,-0.046 9.9e-4,-7.7e-4 6.9e-4,-8.8e-4 0.002,-0.002 -8.1e-4,-7.4e-4 -5.1e-4,-8.4e-4 -0.002,-0.002 -0.0136,-0.0106 -0.0377,-0.0268 -0.0703,-0.046 -0.0652,-0.0383 -0.163,-0.0895 -0.28215,-0.14779 -0.23831,-0.11668 -0.56234,-0.26245 -0.89452,-0.40463 -0.33219,-0.14219 -0.67361,-0.28092 -0.9462,-0.38292 -0.0389,-0.0145 -0.0727,-0.0263 -0.10852,-0.0393 z m -1.01183,0.12144 c -0.23071,0.09 -0.48242,0.1916 -0.73742,0.30075 -0.33218,0.14218 -0.65569,0.28795 -0.894,0.40463 -0.11915,0.0583 -0.21701,0.10948 -0.28215,0.14779 -0.0326,0.0191 -0.0567,0.0354 -0.0703,0.046 -9.9e-4,7.7e-4 -6.9e-4,8.7e-4 -0.001,0.002 8.1e-4,7.4e-4 5.1e-4,8.5e-4 0.001,0.002 0.0136,0.0106 0.0377,0.0268 0.0703,0.046 0.0651,0.0383 0.163,0.0894 0.28215,0.1478 0.23831,0.11667 0.56182,0.26244 0.894,0.40462 0.25503,0.10917 0.50669,0.21073 0.73742,0.30076 0.026,-0.0286 0.0475,-0.0603 0.0636,-0.0956 l 0.001,-1.49862 c -0.0411,-0.007 -0.0726,-0.0255 -0.0951,-0.0563 l -0.1943,0.0703 z m 0.41238,0.12195 v 1.34204 l -0.0651,0.0589 v -1.30948 z m 0.85421,0 v 1.34204 l -0.0651,0.0589 v -1.30948 z m -3.45095,0.88935 c 0.002,0.37797 0.0113,0.72746 0.0289,0.78187 0.0394,0.12141 0.9685,1.40033 1.07177,1.47536 0.10327,0.075 1.60661,0.56327 1.73426,0.56327 0.12765,0 1.63099,-0.48824 1.73426,-0.56327 0.10327,-0.075 1.03284,-1.35395 1.07229,-1.47536 0.0174,-0.0536 0.0264,-0.39354 0.0284,-0.76481 -0.0741,0.0433 -0.17399,0.0952 -0.29404,0.15399 -0.24539,0.12014 -0.57201,0.26756 -0.90795,0.41135 -0.33595,0.1438 -0.68101,0.28357 -0.9617,0.3886 -0.14035,0.0525 -0.26407,0.0963 -0.36639,0.12816 -0.0512,0.0159 -0.0965,0.0291 -0.13953,0.0393 -0.043,0.0101 -0.0759,0.0201 -0.15141,0.0201 -0.0755,0 -0.10838,-0.01 -0.15141,-0.0201 -0.043,-0.0101 -0.0884,-0.0233 -0.13953,-0.0393 -0.10232,-0.0319 -0.22603,-0.0756 -0.36638,-0.12816 -0.2807,-0.10503 -0.62524,-0.2448 -0.96118,-0.3886 -0.33595,-0.14379 -0.66256,-0.29121 -0.90796,-0.41135 -0.1227,-0.0601 -0.22524,-0.11329 -0.29972,-0.15709 -0.008,-0.005 -0.0151,-0.009 -0.0227,-0.014 z" />
  </g>
</svg>
