<?xml version="1.0" encoding="UTF-8" standalone="no"?>
<!-- Created with Inkscape (http://www.inkscape.org/) -->

<svg
   width="6.2024484mm"
   height="6.2023177mm"
   viewBox="0 0 6.2024484 6.2023177"
   version="1.1"
   id="svg1"
   xmlns="http://www.w3.org/2000/svg"
   xmlns:svg="http://www.w3.org/2000/svg">
  <defs
     id="defs1">
    <linearGradient
       id="swatch4">
      <stop
         style="stop-color:#000000;stop-opacity:1;"
         offset="0"
         id="stop4" />
    </linearGradient>
  </defs>
  <g
     id="layer3"
     transform="translate(-193.43761,-113.37317)">
    <path
       id="path200-0"
       style="display:inline;fill:#ffffff;fill-opacity:1;stroke:none;stroke-width:0.200526;stroke-dasharray:none;stroke-opacity:1"
       d="m 196.53884,113.37318 c -1.42045,0 -2.84092,0.0519 -2.94504,0.15606 -0.20825,0.20824 -0.20825,5.68183 0,5.89008 0.20824,0.20824 5.68183,0.20824 5.89008,0 0.20824,-0.20825 0.20824,-5.68184 0,-5.89008 -0.10412,-0.10412 -1.52459,-0.15606 -2.94504,-0.15606 z m -0.0295,2.07946 0.50436,0.002 -0.16174,0.23254 -0.46354,0.001 v 0.50333 h 0.0403 v -0.43925 c 0.17356,-0.0592 0.31941,-0.0336 0.43718,0.0765 -0.12862,-0.05 -0.25042,-0.0559 -0.36587,-0.0176 v 0.11989 c 0.0728,-0.0309 0.14162,-0.018 0.20671,0.0388 -0.0845,-0.0258 -0.15325,0.001 -0.20671,0.0811 l -0.0579,0.14056 0.35657,0.001 c 0.11002,0.002 0.20855,-0.04 0.29611,-0.12506 l -0.14625,0.21136 -10e-4,0.73949 -0.44545,0.47749 -0.31626,-0.20257 c -0.0697,-0.0334 -0.16024,-0.0175 -0.27182,0.0475 0.16349,-0.22184 0.29072,-0.3201 0.38138,-0.29508 l 0.31626,0.21291 0.0661,-0.0615 v -0.82321 h -0.40928 c -0.0937,-0.006 -0.19641,0.002 -0.30799,0.0248 0.0783,-0.0884 0.13412,-0.13412 0.16743,-0.13745 v -0.3266 c -0.0387,0.0133 -0.0974,-0.0263 -0.1757,-0.11886 0.0697,0.0284 0.12818,0.03 0.17467,0.004 z m 0.13126,0.95859 v 0.75551 l -0.0708,0.0589 v -0.19017 c -0.062,-0.0425 -0.12379,-0.0473 -0.185,-0.014 0.0333,-0.0726 0.0951,-0.11035 0.185,-0.11368 l 0.001,-0.41652 z" />
  </g>
</svg>
