<?xml version="1.0" encoding="UTF-8" standalone="no"?>
<!-- Created with Inkscape (http://www.inkscape.org/) -->

<svg
   width="6.1494956mm"
   height="6.1494145mm"
   viewBox="0 0 6.1494956 6.1494145"
   version="1.1"
   id="svg1"
   xmlns="http://www.w3.org/2000/svg"
   xmlns:svg="http://www.w3.org/2000/svg">
  <defs
     id="defs1">
    <linearGradient
       id="swatch4">
      <stop
         style="stop-color:#000000;stop-opacity:1;"
         offset="0"
         id="stop4" />
    </linearGradient>
  </defs>
  <g
     id="layer3"
     transform="translate(-286.28323,-166.2392)">
    <path
       id="path225-00-68-2"
       style="fill:#ffffff;fill-opacity:1;stroke:none;stroke-width:0.200527;stroke-dasharray:none;stroke-opacity:1"
       d="m 288.08415,166.2392 -0.015,0.015 0.0367,-0.015 z m 0.10801,0 0.31677,0.7798 1.69706,-0.001 0.31057,-0.77877 z m 2.43447,0 0.008,0.003 -0.003,-0.003 z m 0.0765,0.0718 -0.31264,0.7891 1.18753,1.18804 0.77773,-0.32452 z m -2.69647,0.006 -1.64848,1.64848 0.78083,0.32142 1.18546,-1.18494 z m 0.48317,0.90175 -1.2268,1.22732 v 1.73529 l 1.2268,1.22783 1.7353,-0.001 1.22679,-1.2268 5.2e-4,-1.73529 -1.22731,-1.2268 z m -2.19108,0.80615 -0.0155,0.0155 v 0.0222 z m 6.13348,0.12558 -0.77928,0.32453 v 1.67276 l 0.77979,0.32918 z m -6.14898,0.001 v 2.32699 l 0.77928,-0.33486 v -1.6707 z m 3.97547,0.12144 c -0.16581,0.23518 -0.32951,0.36494 -0.49145,0.38912 -0.16116,0.0234 -0.28787,-0.0126 -0.3793,-0.10852 l -0.17415,0.0786 0.27647,-0.3514 c 0.055,0.0801 0.15405,0.12559 0.29662,0.13643 0.14257,0.01 0.2998,-0.0383 0.47181,-0.14418 z m -1.45159,0.008 c 0.002,0.13094 0.0838,0.20135 0.24649,0.21136 l -0.11059,0.14624 -0.001,1.3839 0.1974,0.0863 c 0.0496,-0.0567 0.1114,-0.0834 0.18501,-0.0801 -0.0713,0.0367 -0.16749,0.1447 -0.28836,0.32401 l -0.27802,-0.10542 c -0.0356,0.055 -0.1171,0.0856 -0.24494,0.0915 0.0961,-0.0459 0.16331,-0.11131 0.20205,-0.19637 l 10e-4,-1.49862 c -0.0411,-0.007 -0.0726,-0.0255 -0.0951,-0.0563 l -0.1943,0.0703 z m 1.4366,0.0326 c -0.12779,0.29082 -0.22956,0.61584 -0.30541,0.97462 0.10666,0.003 0.22327,-0.0244 0.35037,-0.0816 -0.12737,0.13296 -0.25291,0.20468 -0.37724,0.21497 -0.0362,0.19111 -0.0652,0.39147 -0.0873,0.601 l 0.1974,0.0863 c 0.0496,-0.0567 0.1114,-0.0834 0.185,-0.0801 -0.0713,0.0367 -0.16748,0.1447 -0.28835,0.32401 l -0.30128,-0.10542 c -0.10847,0.0992 -0.24424,0.12983 -0.40772,0.0915 0.16736,0.004 0.2889,-0.0613 0.36483,-0.19637 0.0616,-0.27606 0.12202,-0.51912 0.18087,-0.73071 -0.055,-0.0124 -0.10206,-0.0343 -0.14108,-0.0672 l -0.13384,0.046 0.21394,-0.20878 c 0.0238,0.0363 0.0585,0.0633 0.10336,0.0811 0.12179,-0.41016 0.23789,-0.67896 0.34778,-0.80666 z m -1.17977,0.24391 v 1.34204 l -0.0651,0.0589 v -1.30948 z m 0.65422,0.92346 -0.18707,0.65784 c -0.0953,-0.0517 -0.20598,-0.0178 -0.33228,0.10232 0.0682,-0.15679 0.17137,-0.23127 0.31006,-0.22376 l 0.0501,-0.14521 c -0.0744,-0.035 -0.16334,-0.0164 -0.26717,0.0553 0.0527,-0.10258 0.15432,-0.15806 0.30541,-0.16639 l 0.0734,-0.23048 z m -2.58744,0.85266 -0.76998,0.33176 1.65003,1.65003 0.31833,-0.78393 z m 4.45038,0.003 -1.20355,1.20354 0.33021,0.77205 1.64848,-1.64848 z m -5.29787,0.23254 v 0.0186 l 0.0139,0.014 z m 2.23087,1.03973 -0.31678,0.7798 h 2.32648 l -0.33642,-0.77928 z m -0.44235,0.7674 0.0124,0.0124 h 0.0176 z" />
  </g>
</svg>
