<?xml version="1.0" encoding="UTF-8" standalone="no"?>
<!-- Created with Inkscape (http://www.inkscape.org/) -->

<svg
   width="6.2024484mm"
   height="6.2023177mm"
   viewBox="0 0 6.2024484 6.2023177"
   version="1.1"
   id="svg1"
   xmlns="http://www.w3.org/2000/svg"
   xmlns:svg="http://www.w3.org/2000/svg">
  <defs
     id="defs1">
    <linearGradient
       id="swatch4">
      <stop
         style="stop-color:#000000;stop-opacity:1;"
         offset="0"
         id="stop4" />
    </linearGradient>
  </defs>
  <g
     id="layer3"
     transform="translate(-201.34257,-113.37317)">
    <path
       id="path829-5"
       style="display:inline;fill:#ffffff;fill-opacity:1;stroke:none;stroke-width:0.200526;stroke-dasharray:none;stroke-opacity:1"
       d="m 204.44378,113.37318 c -1.42044,0 -2.84091,0.0519 -2.94504,0.15606 -0.20824,0.20824 -0.20824,5.68183 0,5.89008 0.20825,0.20824 5.68184,0.20824 5.89008,0 0.20825,-0.20825 0.20825,-5.68184 0,-5.89008 -0.10412,-0.10412 -1.52459,-0.15606 -2.94504,-0.15606 z m 0.0434,2.06189 c 0.0109,0.0817 0.0548,0.13314 0.13229,0.15399 0.0775,0.0208 0.15507,0.002 0.23255,-0.0574 -0.001,0.003 -0.003,0.005 -0.004,0.008 0.001,-0.001 0.003,-0.002 0.004,-0.003 -0.0984,0.19715 -0.1946,0.29816 -0.28836,0.30283 -0.0937,0.004 -0.17469,-0.0362 -0.24288,-0.12041 l -0.0801,0.0879 v 1.23093 l 0.25786,0.1602 v -0.87023 l 0.0651,0.0589 v 0.75447 l -0.0641,0.0574 0.0641,0.0398 0.0476,-0.0667 v -0.81705 c -0.0566,-0.0117 -0.10053,-0.0486 -0.1323,-0.11111 l -0.22531,0.31885 v -0.005 l 0.001,-0.11627 0.37879,-0.493 c 0.0178,0.10175 0.0739,0.16312 0.16847,0.18397 0.0945,0.0208 0.17935,10e-4 0.25373,-0.0579 -0.001,0.003 -0.003,0.005 -0.004,0.008 10e-4,-0.001 0.003,-0.002 0.004,-0.003 -0.0829,0.1701 -0.15712,0.26794 -0.22221,0.29301 l -10e-4,0.66352 v 0.005 l -0.35708,0.47749 -0.46251,-0.31522 c -0.0511,-0.033 -0.12148,-0.0337 -0.21135,-0.002 0.004,-0.003 0.007,-0.005 0.0103,-0.008 -0.004,0.001 -0.007,0.001 -0.0103,0.003 0.0875,-0.0717 0.15427,-0.10474 0.19998,-0.0997 v -1.00976 c -0.0442,-0.003 -0.11036,-0.0384 -0.19792,-0.10594 0.004,0.002 0.009,0.003 0.0129,0.004 -0.004,-0.003 -0.008,-0.006 -0.0129,-0.009 0.0798,0.0283 0.14498,0.0295 0.19534,0.004 z" />
  </g>
</svg>
