<?xml version="1.0" encoding="UTF-8" standalone="no"?>
<!-- Created with Inkscape (http://www.inkscape.org/) -->

<svg
   width="6.2030292mm"
   height="6.4537082mm"
   viewBox="0 0 6.2030292 6.4537082"
   version="1.1"
   id="svg1"
   xmlns="http://www.w3.org/2000/svg"
   xmlns:svg="http://www.w3.org/2000/svg">
  <defs
     id="defs1">
    <linearGradient
       id="swatch4">
      <stop
         style="stop-color:#000000;stop-opacity:1;"
         offset="0"
         id="stop4" />
    </linearGradient>
  </defs>
  <g
     id="layer3"
     transform="translate(-240.02101,-142.71917)">
    <path
       id="path43-16-90-3"
       style="fill:#ffffff;fill-opacity:1;stroke:none;stroke-width:0.194062;stroke-dasharray:none;stroke-opacity:1"
       d="m 243.21092,142.71919 v 1.24592 c 0.0203,0.0104 0.0416,0.0223 0.0677,0.0377 0.0609,0.036 0.13919,0.086 0.22945,0.14625 0.1805,0.1205 0.40927,0.28152 0.63562,0.44597 0.22634,0.16445 0.44974,0.3322 0.62011,0.46663 0.0852,0.0672 0.15781,0.12582 0.21084,0.1726 0.0225,0.0199 0.0395,0.0367 0.0553,0.0527 l 1.12913,-0.42116 c -0.18566,-0.29451 -1.06033,-1.49538 -1.13378,-1.54874 -0.0726,-0.0527 -1.45547,-0.50444 -1.81435,-0.5979 z m -0.19378,0.004 c -0.39447,0.1067 -1.72584,0.54272 -1.79679,0.59427 -0.0713,0.0518 -0.90371,1.19232 -1.12241,1.52859 l 1.12034,0.43874 c 0.0155,-0.0154 0.0318,-0.0313 0.0532,-0.0501 0.053,-0.0468 0.12462,-0.10539 0.20981,-0.1726 0.17037,-0.13444 0.39377,-0.30219 0.62011,-0.46664 0.22635,-0.16445 0.45512,-0.32546 0.63562,-0.44596 0.0902,-0.0602 0.16857,-0.11027 0.22945,-0.14625 0.0195,-0.0115 0.0345,-0.0191 0.0506,-0.0279 z m 0.10593,1.38906 c -0.001,4.4e-4 -0.001,5.4e-4 -0.003,0.001 -0.0154,0.007 -0.0391,0.0206 -0.0672,0.0372 -0.0561,0.0332 -0.13242,0.0818 -0.22117,0.14108 -0.17751,0.1185 -0.405,0.27893 -0.62994,0.44235 -0.22493,0.16342 -0.4474,0.3303 -0.61495,0.4625 -0.0838,0.0661 -0.15371,0.12331 -0.20257,0.1664 -0.0244,0.0216 -0.0439,0.0393 -0.0558,0.0517 -7.6e-4,9.1e-4 -8e-4,5.5e-4 -0.002,0.002 8e-5,0.001 -2.1e-4,0.002 0,0.004 0.002,0.017 0.007,0.0426 0.0139,0.0744 0.0142,0.0636 0.0372,0.15101 0.0661,0.25373 0.0578,0.20544 0.14043,0.47146 0.22634,0.73588 0.0859,0.26443 0.17563,0.5279 0.2496,0.72812 0.037,0.1001 0.0697,0.18465 0.0956,0.24443 0.0129,0.0299 0.0245,0.0536 0.0326,0.0687 5.3e-4,9.2e-4 9.2e-4,9.8e-4 0.002,0.002 10e-4,3.6e-4 0.002,0.001 0.003,0.001 0.0169,0.003 0.043,0.007 0.0755,0.01 0.0648,0.006 0.15485,0.0113 0.26148,0.0155 0.21326,0.008 0.49143,0.0124 0.76947,0.0124 0.27803,0 0.5562,-0.004 0.76946,-0.0124 0.10663,-0.004 0.19766,-0.009 0.26252,-0.0155 0.0324,-0.003 0.0586,-0.007 0.0754,-0.01 0.001,-2.1e-4 0.001,-0.001 0.003,-0.001 5.9e-4,-9.2e-4 9.5e-4,-9.8e-4 0.002,-0.002 0.008,-0.0151 0.0191,-0.0388 0.032,-0.0687 0.0259,-0.0598 0.0586,-0.14433 0.0956,-0.24443 0.074,-0.2002 0.16471,-0.46369 0.25063,-0.72812 0.0859,-0.26442 0.16746,-0.53044 0.22531,-0.73588 0.0289,-0.10272 0.0519,-0.19015 0.0661,-0.25373 0.007,-0.0318 0.0116,-0.0574 0.0139,-0.0744 2.1e-4,-0.001 -8e-5,-0.002 0,-0.004 -6.9e-4,-9.1e-4 -7.3e-4,-5.5e-4 -0.002,-0.002 -0.0119,-0.0124 -0.0303,-0.0301 -0.0548,-0.0517 -0.0489,-0.0431 -0.11983,-0.10029 -0.20361,-0.1664 -0.16757,-0.13221 -0.39002,-0.29908 -0.61495,-0.4625 -0.22493,-0.16342 -0.45243,-0.32385 -0.62993,-0.44235 -0.0887,-0.0593 -0.1651,-0.10793 -0.22118,-0.14108 -0.028,-0.0166 -0.0507,-0.0297 -0.0662,-0.0372 -0.001,-5.1e-4 -0.001,-6.3e-4 -0.003,-0.001 z m -3.04064,0.75964 c -0.0162,0.026 -0.0356,0.056 -0.0382,0.0641 -0.002,0.005 -0.003,0.0312 -0.004,0.0444 z m 2.54455,0.0382 c 0.002,0.13094 0.0833,0.20135 0.24598,0.21136 l -0.11007,0.14624 -0.001,1.3839 0.1974,0.0863 c 0.0496,-0.0567 0.1114,-0.0834 0.185,-0.0801 -0.0713,0.0367 -0.16748,0.1447 -0.28835,0.32401 l -0.27805,-0.10524 c -0.0356,0.055 -0.1171,0.0856 -0.24495,0.0915 0.0961,-0.0459 0.16331,-0.11131 0.20206,-0.19637 l 0.001,-1.49862 c -0.0411,-0.007 -0.0726,-0.0255 -0.0951,-0.0563 l -0.19431,0.0703 z m 0.85421,0 c 0.001,0.13094 0.0838,0.20135 0.2465,0.21136 l -0.11059,0.14624 -0.001,1.3839 0.1974,0.0863 c 0.0496,-0.0567 0.1114,-0.0834 0.18501,-0.0801 -0.0713,0.0367 -0.16749,0.1447 -0.28836,0.32401 l -0.27805,-0.10524 c -0.0356,0.055 -0.1171,0.0856 -0.24495,0.0915 0.0961,-0.0459 0.16332,-0.11131 0.20206,-0.19637 l 0.001,-1.49862 c -0.0411,-0.007 -0.0726,-0.0255 -0.0951,-0.0563 l -0.1943,0.0703 z m -3.44578,0.11834 c -0.0218,0.37473 -0.0189,1.82282 0.009,1.9079 0.0274,0.0844 0.8655,1.24237 1.11104,1.54409 l 0.6997,-0.88677 c -0.0104,-0.02 -0.0211,-0.0411 -0.0331,-0.0687 -0.0281,-0.0649 -0.0611,-0.15194 -0.0987,-0.25373 -0.0752,-0.20358 -0.16573,-0.46823 -0.25218,-0.73432 -0.0865,-0.26608 -0.16907,-0.53318 -0.2279,-0.74208 -0.0294,-0.10445 -0.0528,-0.19402 -0.0682,-0.26303 -0.005,-0.0239 -0.009,-0.0423 -0.0119,-0.0615 z m 6.17585,0.0248 -1.13017,0.42168 c -0.003,0.0181 -0.006,0.0348 -0.0109,0.0568 -0.0154,0.069 -0.0388,0.15858 -0.0682,0.26303 -0.0588,0.2089 -0.1404,0.476 -0.22686,0.74208 -0.0865,0.26608 -0.17697,0.53074 -0.25218,0.73432 -0.0376,0.10179 -0.0716,0.18885 -0.0997,0.25373 -0.0135,0.0312 -0.0257,0.0559 -0.0372,0.0775 l 0.70022,0.88264 c 0.23773,-0.29016 1.08701,-1.46364 1.11466,-1.54874 0.0269,-0.0828 0.0303,-1.46419 0.0103,-1.88309 z m -3.32745,0.13332 v 1.34204 l -0.0651,0.0589 v -1.30948 z m 0.85421,0 v 1.34204 l -0.0651,0.0589 v -1.30948 z m -1.71979,2.51458 -0.70538,0.89348 c 0.36682,0.14135 1.72116,0.57826 1.80971,0.57826 0.0878,0 1.4249,-0.43076 1.80454,-0.57567 l -0.70952,-0.89504 c -0.0157,0.002 -0.0289,0.004 -0.0475,0.006 -0.0704,0.007 -0.16235,0.0122 -0.27078,0.0165 -0.21686,0.009 -0.49692,0.0134 -0.7767,0.0134 -0.27978,0 -0.55881,-0.005 -0.77566,-0.0134 -0.10843,-0.004 -0.20142,-0.01 -0.27182,-0.0165 -0.0224,-0.002 -0.0388,-0.005 -0.0568,-0.007 z m 3.01377,0.84594 -0.0139,0.0109 c 0.001,-4.6e-4 0.006,-0.003 0.007,-0.003 9.3e-4,-7.7e-4 0.005,-0.006 0.007,-0.008 z" />
  </g>
</svg>
