<?xml version="1.0" encoding="UTF-8" standalone="no"?>
<!-- Created with Inkscape (http://www.inkscape.org/) -->

<svg
   width="5.6705198mm"
   height="5.9010286mm"
   viewBox="0 0 5.6705198 5.9010286"
   version="1.1"
   id="svg1"
   xmlns="http://www.w3.org/2000/svg"
   xmlns:svg="http://www.w3.org/2000/svg">
  <defs
     id="defs1">
    <linearGradient
       id="swatch4">
      <stop
         style="stop-color:#000000;stop-opacity:1;"
         offset="0"
         id="stop4" />
    </linearGradient>
  </defs>
  <g
     id="layer3"
     transform="translate(-224.85023,-195.73554)">
    <path
       id="path237-317-04-61-5"
       style="fill:#ffffff;fill-opacity:1;stroke:none;stroke-width:0.200527;stroke-dasharray:none;stroke-opacity:1"
       d="m 227.68526,195.73559 c -0.12765,0 -1.63099,0.48825 -1.73426,0.56328 -0.10328,0.075 -1.03233,1.35396 -1.07177,1.47536 -0.0183,0.0563 -0.0276,0.4279 -0.0289,0.82062 0.008,-0.005 0.0144,-0.009 0.0227,-0.014 0.0745,-0.0438 0.17702,-0.097 0.29972,-0.1571 0.24539,-0.12015 0.57201,-0.26755 0.90795,-0.41134 0.33595,-0.14379 0.68049,-0.28357 0.96119,-0.38861 0.14034,-0.0525 0.26406,-0.0963 0.36638,-0.12816 0.0512,-0.0159 0.0965,-0.0285 0.13953,-0.0387 0.043,-0.0101 0.0759,-0.0207 0.15141,-0.0207 0.0755,0 0.10838,0.0105 0.15141,0.0207 0.043,0.0101 0.0884,0.0228 0.13953,0.0387 0.10232,0.0319 0.22603,0.0756 0.36638,0.12816 0.2807,0.10504 0.62576,0.24482 0.9617,0.38861 0.33595,0.14379 0.66256,0.29119 0.90796,0.41134 0.12024,0.0589 0.22047,0.11072 0.29455,0.154 -0.002,-0.38625 -0.0109,-0.74812 -0.0289,-0.80357 -0.0394,-0.1214 -0.96901,-1.40033 -1.07228,-1.47536 -0.10328,-0.075 -1.60661,-0.56328 -1.73426,-0.56328 z m 0.0139,1.83555 c -0.002,3.3e-4 -0.002,1.2e-4 -0.004,5.2e-4 -0.0247,0.006 -0.0622,0.016 -0.10697,0.03 -0.0895,0.0279 -0.20839,0.0699 -0.34469,0.12092 -0.27259,0.102 -0.61452,0.24074 -0.94671,0.38293 -0.33218,0.14218 -0.65569,0.28794 -0.894,0.40462 -0.11915,0.0583 -0.21701,0.10949 -0.28215,0.1478 -0.0326,0.0191 -0.0567,0.0354 -0.0703,0.046 -9.9e-4,7.7e-4 -6.9e-4,8.8e-4 -0.001,0.002 8.1e-4,7.4e-4 5.1e-4,8.4e-4 0.001,0.002 0.0136,0.0106 0.0377,0.0268 0.0703,0.046 0.0652,0.0383 0.163,0.0894 0.28215,0.1478 0.23831,0.11667 0.56182,0.26245 0.894,0.40463 0.33219,0.14219 0.67412,0.28091 0.94671,0.38292 0.1363,0.051 0.25519,0.093 0.34469,0.12092 0.0447,0.0139 0.0823,0.0242 0.10697,0.03 0.002,4e-4 0.002,1.9e-4 0.004,5.2e-4 0.002,-3.3e-4 0.002,-1.2e-4 0.004,-5.2e-4 0.0247,-0.006 0.0622,-0.016 0.10697,-0.03 0.0895,-0.0279 0.2089,-0.0699 0.3452,-0.12092 0.27259,-0.10201 0.61401,-0.24073 0.94619,-0.38292 0.33219,-0.14218 0.65621,-0.28796 0.89452,-0.40463 0.11915,-0.0583 0.217,-0.1095 0.28215,-0.1478 0.0326,-0.0192 0.0567,-0.0354 0.0703,-0.046 9.9e-4,-7.7e-4 6.9e-4,-8.7e-4 0.001,-0.002 -8.1e-4,-7.4e-4 -5.1e-4,-8.5e-4 -0.001,-0.002 -0.0136,-0.0106 -0.0377,-0.0268 -0.0703,-0.046 -0.0652,-0.0383 -0.163,-0.0895 -0.28215,-0.1478 -0.23831,-0.11668 -0.56233,-0.26244 -0.89452,-0.40462 -0.33218,-0.14219 -0.6736,-0.28093 -0.94619,-0.38293 -0.1363,-0.051 -0.25571,-0.093 -0.3452,-0.12092 -0.0447,-0.0139 -0.0823,-0.0242 -0.10697,-0.03 -0.002,-4e-4 -0.002,-1.9e-4 -0.004,-5.2e-4 z m 0.031,0.0822 0.38137,0.31522 c 0.0511,0.0334 0.12148,0.0343 0.21136,0.003 -0.0875,0.0717 -0.15428,0.10525 -0.19999,0.10025 v 0.97668 c 0.0442,0.003 0.11036,0.0389 0.19792,0.10646 -0.0798,-0.0284 -0.14498,-0.0295 -0.19534,-0.004 l -0.41858,0.56792 c -0.0573,-0.0817 -0.12457,-0.13314 -0.20205,-0.15399 -0.0775,-0.0208 -0.15507,-0.002 -0.23255,0.0574 0.0984,-0.19682 0.19461,-0.29711 0.28836,-0.30128 0.0937,-0.005 0.17469,0.0346 0.24288,0.11886 l 0.0801,-0.11265 v -1.19838 l -0.2651,-0.22531 -0.10542,0.0791 v 0.79685 c 0.0566,0.0117 0.10828,0.0613 0.15554,0.14882 l 0.20206,-0.29404 -0.001,0.14108 -0.26252,0.40566 c -0.0566,-0.10174 -0.1419,-0.16312 -0.2558,-0.18397 -0.11389,-0.0209 -0.20777,-0.002 -0.28215,0.0574 0.0442,-0.12843 0.11787,-0.19681 0.22169,-0.20515 v -0.62787 c -0.0922,0.0133 -0.17314,-0.0193 -0.24288,-0.0977 0.093,0.0108 0.17418,-0.0113 0.24392,-0.0672 z m -0.10439,0.31884 v 0.83457 l -0.0651,-0.0589 v -0.71675 z m -2.77554,0.84388 c 0.002,0.37797 0.0113,0.72745 0.0289,0.78186 0.0395,0.12141 0.9685,1.40033 1.07177,1.47536 0.10327,0.075 1.60661,0.56328 1.73426,0.56328 0.12765,0 1.63099,-0.48825 1.73426,-0.56328 0.10327,-0.075 1.03284,-1.35395 1.07229,-1.47536 0.0174,-0.0536 0.0264,-0.39354 0.0284,-0.76481 -0.0741,0.0433 -0.17399,0.0952 -0.29404,0.15399 -0.2454,0.12014 -0.57201,0.26756 -0.90796,0.41135 -0.33594,0.1438 -0.681,0.28358 -0.9617,0.38861 -0.14034,0.0525 -0.26406,0.0963 -0.36638,0.12815 -0.0512,0.0159 -0.0965,0.0291 -0.13953,0.0393 -0.043,0.0101 -0.0759,0.0201 -0.15141,0.0201 -0.0755,0 -0.10838,-0.01 -0.15141,-0.0201 -0.043,-0.0101 -0.0884,-0.0233 -0.13953,-0.0393 -0.10232,-0.0319 -0.22603,-0.0756 -0.36638,-0.12815 -0.2807,-0.10503 -0.62524,-0.24481 -0.96119,-0.38861 -0.33594,-0.14379 -0.66256,-0.29121 -0.90795,-0.41135 -0.1227,-0.0601 -0.22524,-0.11329 -0.29972,-0.15709 -0.008,-0.005 -0.0151,-0.009 -0.0227,-0.014 z" />
  </g>
</svg>
