<?xml version="1.0" encoding="UTF-8" standalone="no"?>
<!-- Created with Inkscape (http://www.inkscape.org/) -->

<svg
   width="6.9887376mm"
   height="6.2362957mm"
   viewBox="0 0 6.9887376 6.2362957"
   version="1.1"
   id="svg1"
   xmlns="http://www.w3.org/2000/svg"
   xmlns:svg="http://www.w3.org/2000/svg">
  <defs
     id="defs1">
    <linearGradient
       id="swatch4">
      <stop
         style="stop-color:#000000;stop-opacity:1;"
         offset="0"
         id="stop4" />
    </linearGradient>
  </defs>
  <g
     id="layer3"
     transform="translate(-216.31748,-150.53522)">
    <path
       id="path94-48-6-7"
       style="fill:#ffffff;fill-opacity:1;stroke:none;stroke-width:0.192506;stroke-dasharray:none;stroke-opacity:1"
       d="m 219.8108,150.53525 c -0.70357,0 -1.40045,0.0158 -1.6583,0.0465 l 0.55553,1.00872 c 0.024,-0.004 0.0526,-0.006 0.0863,-0.009 0.0687,-0.006 0.15876,-0.0104 0.26406,-0.0139 0.21061,-0.007 0.48121,-0.0109 0.75241,-0.0109 0.2712,0 0.54232,0.004 0.75293,0.0109 0.1053,0.004 0.19541,0.008 0.26407,0.0139 0.0343,0.003 0.0636,0.005 0.0879,0.009 l 0.57567,-1.00665 c -0.24076,-0.0323 -0.95883,-0.0486 -1.68052,-0.0486 z m -1.82624,0.13901 c -0.30394,0.40167 -1.4588,2.40171 -1.66398,2.88045 l 1.16168,0.002 c 0.008,-0.0183 0.0151,-0.0363 0.0258,-0.0589 0.0296,-0.0622 0.0703,-0.14215 0.11989,-0.23513 0.0991,-0.18595 0.23182,-0.42246 0.36742,-0.65732 0.1356,-0.23487 0.27455,-0.46764 0.38602,-0.64647 0.0557,-0.0894 0.10405,-0.16499 0.14315,-0.22169 0.009,-0.0132 0.0162,-0.0219 0.0243,-0.0331 z m 3.66592,0.0176 -0.57722,1.01234 c 0.008,0.0112 0.0152,0.0199 0.0243,0.0331 0.0391,0.0567 0.0874,0.13228 0.14314,0.22169 0.11147,0.17884 0.25042,0.4116 0.38602,0.64647 0.1356,0.23486 0.26829,0.47137 0.36742,0.65732 0.0496,0.093 0.0903,0.17292 0.11989,0.23513 0.0106,0.0224 0.0182,0.0402 0.0258,0.0584 l 1.1591,-0.007 c -0.20774,-0.48052 -1.32759,-2.42111 -1.64847,-2.85771 z m -1.83968,1.05782 c -0.26952,0 -0.53904,0.003 -0.74621,0.0109 -0.10358,0.004 -0.19137,0.008 -0.25476,0.0129 -0.0317,0.002 -0.0576,0.005 -0.0744,0.008 -0.002,3.4e-4 -0.003,0.001 -0.005,0.002 -0.001,0.001 -0.002,0.002 -0.003,0.003 -0.0106,0.0133 -0.0259,0.0343 -0.0439,0.0605 -0.0361,0.0524 -0.0842,0.1265 -0.13901,0.21445 -0.10965,0.17591 -0.24713,0.40738 -0.38189,0.64079 -0.13476,0.23341 -0.2668,0.46872 -0.36432,0.65164 -0.0488,0.0915 -0.089,0.17044 -0.11627,0.22789 -0.0136,0.0287 -0.0243,0.0524 -0.0305,0.0682 -7.5e-4,0.002 -5.2e-4,0.003 -0.001,0.005 5.4e-4,0.002 3.2e-4,0.003 0.001,0.005 0.006,0.0158 0.0168,0.0395 0.0305,0.0682 0.0273,0.0574 0.0675,0.13592 0.11627,0.22738 0.0975,0.18291 0.22956,0.41822 0.36432,0.65163 0.13476,0.23342 0.27224,0.4654 0.38189,0.64131 0.0548,0.088 0.10291,0.1621 0.13901,0.21446 0.018,0.0262 0.0333,0.0467 0.0439,0.0599 0.001,0.002 0.002,0.002 0.004,0.004 0.002,3.4e-4 0.002,7.2e-4 0.004,0.001 0.0168,0.002 0.0427,0.005 0.0744,0.008 0.0634,0.005 0.15118,0.009 0.25476,0.0129 0.20717,0.007 0.47669,0.0103 0.74621,0.0103 0.26952,0 0.53956,-0.003 0.74673,-0.0103 0.10358,-0.003 0.19137,-0.008 0.25476,-0.0129 0.0317,-0.002 0.0576,-0.005 0.0744,-0.008 0.002,-2.7e-4 0.002,-7.2e-4 0.004,-0.001 0.002,-0.002 0.003,-0.002 0.004,-0.004 0.0106,-0.0133 0.0259,-0.0337 0.0439,-0.0599 0.0361,-0.0524 0.0842,-0.1265 0.13901,-0.21446 0.10965,-0.17591 0.24713,-0.40789 0.38189,-0.64131 0.13476,-0.23341 0.2668,-0.46872 0.36432,-0.65163 0.0488,-0.0915 0.089,-0.16993 0.11627,-0.22738 0.0137,-0.0287 0.0243,-0.0524 0.0305,-0.0682 7.5e-4,-0.002 5.1e-4,-0.003 10e-4,-0.005 -5.5e-4,-0.002 -3.1e-4,-0.003 -10e-4,-0.005 -0.006,-0.0158 -0.0168,-0.0395 -0.0305,-0.0682 -0.0273,-0.0574 -0.0675,-0.13643 -0.11627,-0.22789 -0.0975,-0.18292 -0.22956,-0.41823 -0.36432,-0.65164 -0.13476,-0.23341 -0.27224,-0.46488 -0.38189,-0.64079 -0.0548,-0.0879 -0.10291,-0.16209 -0.13901,-0.21445 -0.0181,-0.0262 -0.0334,-0.0472 -0.0439,-0.0605 -0.001,-0.001 -0.002,-0.002 -0.003,-0.003 -0.002,-6.9e-4 -0.003,-0.001 -0.005,-0.002 -0.0168,-0.002 -0.0427,-0.005 -0.0744,-0.008 -0.0634,-0.005 -0.15118,-0.01 -0.25476,-0.0129 -0.20717,-0.007 -0.47721,-0.0109 -0.74673,-0.0109 z m 0.23306,0.8077 c 0.0315,-0.002 0.0627,0.003 0.094,0.0134 -0.0463,-0.0131 -0.12013,0.0199 -0.22066,0.0977 0.0213,0.0481 0.0647,0.0925 0.1323,0.1328 0.0945,0.0559 0.20598,0.047 0.33383,-0.0263 l -0.1385,0.14883 v 0.30385 l -0.22066,0.22273 v -0.40773 c -0.0637,-0.0101 -0.12866,-0.038 -0.1943,-0.0837 v 0.57205 l 0.1049,0.0558 0.31006,-0.308 -0.006,0.11783 -0.22996,0.23771 c 0.0728,0.0325 0.13516,0.0543 0.18707,0.0651 0.0527,0.0108 0.11501,-0.006 0.18707,-0.0491 l -0.13849,0.14883 v 0.3793 l -0.24391,0.23513 v -0.60772 l -0.17105,-0.0822 v 0.60978 l -0.0708,0.0589 v -0.7028 l -0.0811,-0.0393 -0.002,0.76222 0.25838,0.11266 0.31006,-0.30799 -0.006,0.11782 -0.41393,0.41496 -0.39739,-0.19017 c -0.0387,-0.0167 -0.0946,-0.0176 -0.16743,-0.003 0.0705,-0.055 0.123,-0.084 0.15709,-0.0873 v -0.65164 c -0.0395,0.0133 -0.0985,-0.0141 -0.17673,-0.0817 0.0697,0.0284 0.12766,0.03 0.17415,0.004 l 0.16536,-0.14676 c -0.11699,-0.006 -0.20414,0.003 -0.26148,0.0253 0.0705,-0.055 0.12223,-0.0845 0.15555,-0.0879 v -0.47646 c -0.0387,0.0134 -0.0974,-0.0136 -0.1757,-0.0811 0.0697,0.0284 0.12817,0.0295 0.17466,0.004 l 0.32091,-0.2744 c 0.0834,-0.0923 0.16686,-0.14093 0.2496,-0.14573 z m -0.34416,0.28887 v 0.61547 l 0.0594,0.0315 v -0.59066 c -0.0198,-0.0174 -0.0395,-0.0358 -0.0594,-0.0563 z m 3.6065,0.89607 -1.16531,0.006 c -0.008,0.0188 -0.0156,0.0378 -0.0269,0.0615 -0.0296,0.0622 -0.0703,0.14215 -0.11989,0.23513 -0.0991,0.18595 -0.23182,0.42245 -0.36742,0.65732 -0.1356,0.23487 -0.27455,0.46816 -0.38602,0.64699 -0.0557,0.0894 -0.10404,0.16499 -0.14314,0.22169 -0.0144,0.0209 -0.0266,0.0364 -0.0388,0.0522 l 0.57826,1.01131 c 0.30494,-0.4024 1.47621,-2.43134 1.66914,-2.89181 z m -6.98873,0.004 c 0.19814,0.4686 1.36835,2.49456 1.66967,2.89026 l 0.58291,-1.00407 c -0.0138,-0.0177 -0.0284,-0.0372 -0.0455,-0.062 -0.0391,-0.0567 -0.0874,-0.13228 -0.14314,-0.22169 -0.11148,-0.17883 -0.25043,-0.41212 -0.38602,-0.64699 -0.13561,-0.23487 -0.26829,-0.47136 -0.36743,-0.65732 -0.0496,-0.093 -0.0903,-0.17292 -0.11988,-0.23513 -0.0112,-0.0235 -0.019,-0.0423 -0.0269,-0.061 z m 4.57699,1.97248 c -0.0202,0.002 -0.0406,0.005 -0.0667,0.007 -0.0687,0.005 -0.15876,0.01 -0.26407,0.0134 -0.21061,0.007 -0.48173,0.0109 -0.75292,0.0109 -0.2712,0 -0.5418,-0.004 -0.75241,-0.0109 -0.10531,-0.004 -0.19541,-0.008 -0.26407,-0.0134 -0.0208,-0.002 -0.0361,-0.004 -0.0532,-0.006 l -0.58188,1.00666 c 0.52833,0.0605 2.79548,0.06 3.30988,-0.001 z m 0.68574,0.98031 -0.0171,0.01 c 0.002,-0.001 0.009,-0.002 0.0103,-0.003 0.001,-8.6e-4 0.005,-0.004 0.007,-0.007 z" />
  </g>
</svg>
