<?xml version="1.0" encoding="UTF-8" standalone="no"?>
<!-- Created with Inkscape (http://www.inkscape.org/) -->

<svg
   width="7.2042279mm"
   height="6.3448324mm"
   viewBox="0 0 7.2042279 6.3448324"
   version="1.1"
   id="svg1"
   xmlns="http://www.w3.org/2000/svg"
   xmlns:svg="http://www.w3.org/2000/svg">
  <defs
     id="defs1">
    <linearGradient
       id="swatch4">
      <stop
         style="stop-color:#000000;stop-opacity:1;"
         offset="0"
         id="stop4" />
    </linearGradient>
  </defs>
  <g
     id="layer3"
     transform="translate(-161.91253,-158.60918)">
    <path
       id="path34-81-8-39-5"
       style="fill:#ffffff;fill-opacity:1;stroke:none;stroke-width:0.200326;stroke-dasharray:none;stroke-opacity:1"
       d="m 165.44719,158.60918 c -0.53449,0.28392 -3.53467,2.96693 -3.53467,3.18171 0,0.0765 0.38354,0.46818 0.89762,0.95085 z m 0.13384,0 2.6355,4.13463 c 0.5152,-0.48364 0.90021,-0.87635 0.90021,-0.95292 0,-0.2149 -3.00364,-2.90028 -3.53571,-3.18171 z m -0.0667,0.26613 -2.45929,3.85816 2.46342,1.11053 2.4505,-1.1157 z m -0.0109,1.83555 c 0.002,0.13093 0.0833,0.20134 0.24598,0.21135 l -0.11007,0.14676 -0.002,1.38338 0.19792,0.0863 c 0.0496,-0.0567 0.11088,-0.0834 0.18449,-0.0801 -0.0713,0.0367 -0.16697,0.14471 -0.28784,0.32401 l -0.27802,-0.1049 c -0.0356,0.055 -0.11711,0.0851 -0.24495,0.0909 0.0961,-0.0459 0.16331,-0.1113 0.20205,-0.19637 l 0.001,-1.49862 c -0.0411,-0.007 -0.0726,-0.0255 -0.0951,-0.0563 l -0.1943,0.0703 z m 0.25684,0.27646 v 1.34256 l -0.0651,0.0584 v -1.30948 z m 2.25825,1.94045 -2.4045,1.09348 v 0.93276 c 0.36199,-0.21532 1.51741,-1.20609 2.4045,-2.02624 z m -4.99608,0.0103 c 0.88385,0.81644 2.02802,1.79843 2.39055,2.01538 v -0.93638 z" />
  </g>
</svg>
