<?xml version="1.0" encoding="UTF-8" standalone="no"?>
<!-- Created with Inkscape (http://www.inkscape.org/) -->

<svg
   width="6.2024484mm"
   height="6.2023177mm"
   viewBox="0 0 6.2024484 6.2023177"
   version="1.1"
   id="svg1"
   xmlns="http://www.w3.org/2000/svg"
   xmlns:svg="http://www.w3.org/2000/svg">
  <defs
     id="defs1">
    <linearGradient
       id="swatch4">
      <stop
         style="stop-color:#000000;stop-opacity:1;"
         offset="0"
         id="stop4" />
    </linearGradient>
  </defs>
  <g
     id="layer3"
     transform="translate(-170.18116,-113.37317)">
    <path
       id="path192-4"
       style="display:inline;fill:#ffffff;fill-opacity:1;stroke:none;stroke-width:0.200526;stroke-dasharray:none;stroke-opacity:1"
       d="m 173.28238,113.37318 c -1.42045,0 -2.84092,0.0519 -2.94504,0.15606 -0.20825,0.20824 -0.20825,5.68183 0,5.89008 0.20824,0.20824 5.68183,0.20824 5.89008,0 0.20824,-0.20825 0.20824,-5.68184 0,-5.89008 -0.10412,-0.10412 -1.52459,-0.15606 -2.94504,-0.15606 z m -0.21653,2.06034 c 0.0434,0.10174 0.11347,0.16809 0.21033,0.19895 0.0968,0.03 0.23236,-0.0321 0.40669,-0.18552 -0.1232,0.2502 -0.24293,0.38951 -0.35915,0.41703 -0.11545,0.0275 -0.22872,-0.0307 -0.33952,-0.17415 l -0.13694,0.0713 z m 0.64234,0.0202 v 0.90537 l -0.58084,0.51779 v 0.41032 l 0.5333,-0.001 c 0.0728,-0.17347 0.18119,-0.28758 0.32453,-0.34262 -0.14644,0.0901 -0.2504,0.28048 -0.31161,0.57154 l -0.74259,-0.003 c -0.13327,0.007 -0.24214,-0.0163 -0.3266,-0.0713 0.15032,0.004 0.24497,-0.0364 0.28371,-0.12144 v -0.38395 l 0.59479,-0.53434 v -0.60513 c 0.0744,-0.05 0.14938,-0.16414 0.22531,-0.34261 z" />
  </g>
</svg>
