<?xml version="1.0" encoding="UTF-8" standalone="no"?>
<!-- Created with Inkscape (http://www.inkscape.org/) -->

<svg
   width="5.7250543mm"
   height="5.6291299mm"
   viewBox="0 0 5.7250543 5.6291299"
   version="1.1"
   id="svg1"
   xmlns="http://www.w3.org/2000/svg"
   xmlns:svg="http://www.w3.org/2000/svg">
  <defs
     id="defs1">
    <linearGradient
       id="swatch4">
      <stop
         style="stop-color:#000000;stop-opacity:1;"
         offset="0"
         id="stop4" />
    </linearGradient>
  </defs>
  <g
     id="layer3"
     transform="translate(-178.25323,-188.74895)">
    <path
       id="path24-11-10-22-9"
       style="display:inline;fill:#ffffff;fill-opacity:1;stroke:none;stroke-width:0.200527;stroke-dasharray:none;stroke-opacity:1"
       d="m 181.11549,188.74894 c -1.16547,0 -2.32854,0.0383 -2.64067,0.11421 l 2.66651,1.89445 2.5926,-1.90014 c -0.34404,-0.0724 -1.48079,-0.10852 -2.61844,-0.10852 z m 2.75642,0.2558 -2.56935,1.8836 c 0.0366,0.0272 0.0754,0.0602 0.11989,0.10181 0.0994,0.093 0.22202,0.22296 0.36122,0.37827 0.27839,0.31061 0.62086,0.72419 0.95084,1.1436 0.32999,0.4194 0.64698,0.84393 0.87437,1.17615 0.11369,0.16612 0.2046,0.30944 0.26458,0.4191 0.005,0.009 0.008,0.0163 0.0129,0.0248 0.12719,-0.88983 0.12242,-4.44122 -0.0145,-5.12733 z m -5.51594,0.0202 c -0.13548,0.74634 -0.1371,4.35137 -0.004,5.15163 0.0105,-0.0216 0.0224,-0.0442 0.0362,-0.0693 0.06,-0.10966 0.15089,-0.25298 0.26458,-0.4191 0.22739,-0.33222 0.54438,-0.75675 0.87437,-1.17615 0.32998,-0.41941 0.67297,-0.83299 0.95136,-1.1436 0.1392,-0.15531 0.26127,-0.28532 0.3607,-0.37827 0.0479,-0.0448 0.0907,-0.0803 0.12971,-0.10852 z m 2.77451,1.98076 c -0.0268,0.0195 -0.0631,0.0504 -0.10697,0.0915 -0.092,0.086 -0.21267,0.21229 -0.34985,0.36535 -0.27436,0.30611 -0.61536,0.71813 -0.94362,1.13533 -0.32825,0.4172 -0.64406,0.83996 -0.86816,1.16737 -0.11205,0.16371 -0.20079,0.30415 -0.25632,0.40566 -0.0265,0.0485 -0.0436,0.0864 -0.0532,0.11317 0.0364,0.007 0.0904,0.0154 0.16019,0.0227 0.14756,0.0155 0.35694,0.0286 0.60617,0.0393 0.49845,0.0213 1.15526,0.032 1.81177,0.032 0.65651,0 1.31384,-0.0108 1.8123,-0.032 0.24922,-0.0106 0.45964,-0.0238 0.60719,-0.0393 0.0702,-0.007 0.12376,-0.0155 0.1602,-0.0227 -0.01,-0.0268 -0.0277,-0.0647 -0.0543,-0.11317 -0.0555,-0.10151 -0.14427,-0.24195 -0.25631,-0.40566 -0.2241,-0.32741 -0.54043,-0.75017 -0.86869,-1.16737 -0.32825,-0.4172 -0.66925,-0.82922 -0.94361,-1.13533 -0.13718,-0.15306 -0.2573,-0.27932 -0.34933,-0.36535 -0.0439,-0.0411 -0.0807,-0.072 -0.10749,-0.0915 z m 0.29403,1.01389 c 0.0171,0.10175 0.0724,0.1626 0.16692,0.18345 0.0945,0.0208 0.17676,0.002 0.2465,-0.0574 -0.0775,0.20349 -0.17291,0.30967 -0.28681,0.31885 -0.1139,0.009 -0.20415,-0.0425 -0.27078,-0.15503 l -0.12558,0.0749 z m -1.11724,0.006 c 0.0434,0.10175 0.11347,0.1681 0.21032,0.19896 0.0969,0.03 0.23288,-0.0321 0.40721,-0.18552 -0.12319,0.25019 -0.24293,0.38899 -0.35915,0.41651 -0.11544,0.0275 -0.22871,-0.0302 -0.33951,-0.17363 l -0.13746,0.0713 z m 0.64286,0.0196 v 0.90589 l -0.58136,0.5178 v 0.41031 l 0.53381,-0.001 c 0.0728,-0.17347 0.18067,-0.28757 0.32401,-0.34261 -0.14644,0.0901 -0.24988,0.28048 -0.31109,0.57154 l -0.74311,-0.003 c -0.13326,0.007 -0.24214,-0.0163 -0.32659,-0.0713 0.15031,0.004 0.24496,-0.0364 0.2837,-0.12144 v -0.38395 l 0.59532,-0.53434 v -0.60513 c 0.0744,-0.05 0.14937,-0.16466 0.22531,-0.34313 z m 0.89141,0.11007 0.24185,0.20929 c 0.0504,0.0259 0.11553,0.0242 0.19534,-0.004 -0.0876,0.0675 -0.15376,0.10311 -0.19792,0.10645 v 0.3514 l -0.44287,0.154 0.44183,0.15399 v 0.73329 c 0.10925,0.003 0.2114,0.0739 0.30593,0.21239 -0.0442,-0.0575 -0.14968,-0.0861 -0.31626,-0.0853 l -0.2279,-0.2098 v -0.64803 l -0.36018,-0.14262 0.36018,-0.16898 z m -1.1436,0.24908 -10e-4,0.56431 c -0.11622,-0.0592 -0.23,-0.0624 -0.34158,-0.01 0.0387,-0.0934 0.13081,-0.131 0.27647,-0.11266 v -0.14159 c -0.0891,-0.0409 -0.17418,-0.0291 -0.25476,0.0351 0.0178,-0.0984 0.1029,-0.14616 0.25476,-0.14366 v -0.14521 z m 1.10898,0.74466 -0.002,0.56379 c -0.11622,-0.0592 -0.23001,-0.0624 -0.34158,-0.01 0.0387,-0.0934 0.1308,-0.131 0.27647,-0.11265 v -0.14108 c -0.0891,-0.0409 -0.17367,-0.0296 -0.25425,0.0346 0.0178,-0.0984 0.10238,-0.14616 0.25425,-0.14366 v -0.14521 z m -0.38706,0.52245 c 0.0256,0.10174 0.0786,0.16312 0.15917,0.18397 0.0806,0.0208 0.17238,0.002 0.27543,-0.0574 -0.0969,0.18682 -0.20443,0.28893 -0.32297,0.30645 -0.11778,0.0175 -0.22665,-0.03 -0.3266,-0.14263 l -0.17363,0.0625 z" />
  </g>
</svg>
