<?xml version="1.0" encoding="UTF-8" standalone="no"?>
<!-- Created with Inkscape (http://www.inkscape.org/) -->

<svg
   width="5.7147999mm"
   height="6.4037595mm"
   viewBox="0 0 5.7147999 6.4037595"
   version="1.1"
   id="svg1"
   xmlns="http://www.w3.org/2000/svg"
   xmlns:svg="http://www.w3.org/2000/svg">
  <defs
     id="defs1">
    <linearGradient
       id="swatch4">
      <stop
         style="stop-color:#000000;stop-opacity:1;"
         offset="0"
         id="stop4" />
    </linearGradient>
  </defs>
  <g
     id="layer3"
     transform="translate(-185.83041,-173.78446)">
    <path
       id="path63-83-8-7"
       style="fill:#ffffff;fill-opacity:1;stroke:none;stroke-width:0.174705;stroke-dasharray:none;stroke-opacity:1"
       d="m 188.68801,173.78448 c -0.1394,0 -2.0554,1.09551 -2.63085,1.48621 0.0437,-0.01 0.0919,-0.0191 0.14986,-0.0274 0.16072,-0.0229 0.37714,-0.0414 0.63304,-0.0563 0.5118,-0.0298 1.17975,-0.0439 1.84795,-0.0439 0.6682,0 1.33666,0.0141 1.84846,0.0439 0.2559,0.0149 0.4718,0.0333 0.63252,0.0563 0.0582,0.008 0.10651,0.0179 0.15038,0.0279 -0.57486,-0.3904 -2.49193,-1.48673 -2.63136,-1.48673 z m 0,1.56631 c -0.66512,0 -1.33027,0.0145 -1.83555,0.0439 -0.25264,0.0147 -0.46581,0.0338 -0.61598,0.0553 -0.0751,0.0107 -0.13439,0.0218 -0.17209,0.0326 -0.003,8.2e-4 -0.003,0.001 -0.006,0.002 6.7e-4,0.003 -3.1e-4,0.003 5.2e-4,0.007 0.01,0.038 0.0296,0.095 0.0579,0.16537 0.0565,0.14078 0.14635,0.33454 0.25993,0.56069 0.22717,0.4523 0.54801,1.03629 0.88057,1.6123 0.33256,0.57601 0.67738,1.14447 0.9555,1.56735 0.13906,0.21144 0.26135,0.38658 0.35501,0.50591 0.0468,0.0597 0.0866,0.10603 0.11473,0.13332 0.002,0.002 0.003,0.002 0.005,0.004 0.002,-0.002 0.003,-0.002 0.005,-0.004 0.0281,-0.0273 0.0689,-0.0737 0.11575,-0.13332 0.0937,-0.11933 0.21596,-0.29447 0.35502,-0.50591 0.27812,-0.42288 0.62345,-0.99134 0.95601,-1.56735 0.33256,-0.57601 0.65185,-1.16 0.87902,-1.6123 0.11358,-0.22615 0.20497,-0.41991 0.26148,-0.56069 0.0283,-0.0704 0.0478,-0.12736 0.0574,-0.16537 8.6e-4,-0.003 3.8e-4,-0.004 0.001,-0.007 -0.003,-8.2e-4 -0.003,-0.001 -0.006,-0.002 -0.0377,-0.0107 -0.097,-0.0218 -0.17208,-0.0326 -0.15018,-0.0215 -0.36334,-0.0406 -0.61598,-0.0553 -0.50529,-0.0294 -1.17095,-0.0439 -1.83607,-0.0439 z m -2.82309,0.21549 c -0.0537,0.65032 -0.0446,2.94002 0.0264,3.06286 0.0715,0.12378 2.07752,1.29183 2.65049,1.55908 -0.001,-0.001 -0.002,-0.002 -0.003,-0.003 -0.0399,-0.0387 -0.0837,-0.0891 -0.13385,-0.15296 -0.10024,-0.12771 -0.22501,-0.30621 -0.36586,-0.52038 -0.28171,-0.42833 -0.62812,-0.999 -0.96222,-1.57768 -0.3341,-0.57868 -0.65512,-1.16451 -0.88522,-1.62264 -0.11505,-0.22906 -0.2072,-0.42657 -0.26768,-0.57723 -0.0261,-0.065 -0.0452,-0.1192 -0.0589,-0.16795 z m 5.64617,0.002 c -0.0137,0.0484 -0.0321,0.10208 -0.0579,0.1664 -0.0605,0.15067 -0.15315,0.34815 -0.2682,0.57722 -0.2301,0.45813 -0.5506,1.04395 -0.8847,1.62264 -0.3341,0.57867 -0.68103,1.14934 -0.96273,1.57768 -0.14086,0.21416 -0.26511,0.39268 -0.36536,0.52039 -0.0501,0.0639 -0.0944,0.11421 -0.13435,0.15296 -9.1e-4,8.2e-4 -0.002,0.002 -0.003,0.002 0.57447,-0.26826 2.57854,-1.43487 2.64996,-1.55857 0.0708,-0.12269 0.0793,-2.40745 0.0258,-3.06079 z m -2.6696,0.37879 c 0.0201,0.10174 0.0822,0.16312 0.18603,0.18397 0.1046,0.0208 0.19718,0.002 0.27854,-0.0574 -0.0914,0.17014 -0.20056,0.25752 -0.32763,0.26252 -0.1263,0.005 -0.22819,-0.0278 -0.30644,-0.0987 l -0.13746,0.0625 z m 0.23564,0.40049 v 1.06453 l 0.22117,0.002 v 0.0811 l -0.22117,-0.003 v 0.1602 l 0.092,0.0713 c 0.0349,-0.055 0.0944,-0.0816 0.1788,-0.0791 -0.0581,0.0292 -0.14836,0.156 -0.27078,0.38034 l -0.19637,-0.14625 c -0.0744,0.0742 -0.17266,0.12158 -0.29508,0.1416 0.1015,-0.0642 0.17753,-0.14551 0.2279,-0.24392 v -0.26303 h -0.55655 v -0.0951 l 0.55655,0.002 v -1.06454 c 0.0883,0.0317 0.176,0.029 0.26355,-0.008 z m -0.27854,0.0124 c -0.10692,0.04 -0.21088,0.34598 -0.3116,0.91726 -0.14334,0.12927 -0.29618,0.16392 -0.45889,0.10387 0.11855,0.0275 0.24811,-0.13688 0.38912,-0.49299 0.14102,-0.35611 0.26825,-0.53231 0.38137,-0.52814 z" />
  </g>
</svg>
