<?xml version="1.0" encoding="UTF-8" standalone="no"?>
<!-- Created with Inkscape (http://www.inkscape.org/) -->

<svg
   width="7.2042117mm"
   height="6.3448486mm"
   viewBox="0 0 7.2042117 6.3448486"
   version="1.1"
   id="svg1"
   xmlns="http://www.w3.org/2000/svg"
   xmlns:svg="http://www.w3.org/2000/svg">
  <defs
     id="defs1">
    <linearGradient
       id="swatch4">
      <stop
         style="stop-color:#000000;stop-opacity:1;"
         offset="0"
         id="stop4" />
    </linearGradient>
  </defs>
  <g
     id="layer3"
     transform="translate(-270.15763,-158.55595)">
    <path
       id="path34-81-8-39-2-5-6"
       style="fill:#ffffff;fill-opacity:1;stroke:none;stroke-width:0.200326;stroke-dasharray:none;stroke-opacity:1"
       d="m 273.69227,158.55595 c -0.53449,0.28392 -3.53467,2.96694 -3.53467,3.18172 0,0.0765 0.38355,0.46819 0.89762,0.95085 z m 0.13384,0 2.6355,4.13463 c 0.5152,-0.48363 0.9002,-0.87635 0.9002,-0.95291 0,-0.2149 -3.00363,-2.90029 -3.5357,-3.18172 z m -0.0667,0.26613 -2.45928,3.85817 2.46342,1.11052 2.4505,-1.11569 z m -0.62993,1.86656 c 0.002,0.13093 0.0838,0.20135 0.2465,0.21135 l -0.11059,0.14677 -0.001,1.38337 0.19793,0.0863 c 0.0496,-0.0567 0.11087,-0.0834 0.18448,-0.0801 -0.0713,0.0367 -0.16748,0.14471 -0.28835,0.32402 l -0.27751,-0.10491 c -0.0356,0.055 -0.11762,0.0851 -0.24546,0.0909 0.0961,-0.0459 0.16383,-0.1113 0.20257,-0.19637 l 10e-4,-1.49861 c -0.0411,-0.007 -0.0731,-0.0255 -0.0956,-0.0563 l -0.19378,0.0703 z m 1.0542,0.0362 0.50436,0.002 -0.16123,0.23255 -0.46405,0.002 v 0.50281 h 0.0408 v -0.43925 c 0.17356,-0.0592 0.31941,-0.0336 0.43718,0.0765 -0.12862,-0.05 -0.25094,-0.0559 -0.36638,-0.0176 v 0.11989 c 0.0728,-0.0309 0.14213,-0.018 0.20722,0.0388 -0.0845,-0.0259 -0.15376,0.002 -0.20722,0.0816 l -0.0574,0.14005 0.35605,0.001 c 0.11002,0.002 0.20907,-0.04 0.29662,-0.12506 l -0.14676,0.21136 -10e-4,0.73949 -0.44493,0.47801 -0.31626,-0.20309 c -0.0697,-0.0334 -0.16024,-0.0175 -0.27182,0.0475 0.16349,-0.22184 0.2902,-0.32009 0.38086,-0.29507 l 0.31626,0.21291 0.0661,-0.0615 v -0.82321 h -0.40876 c -0.0937,-0.006 -0.19642,0.003 -0.30799,0.0253 0.0783,-0.0884 0.1336,-0.13464 0.16692,-0.13798 v -0.32659 c -0.0387,0.0133 -0.0969,-0.0263 -0.17519,-0.11886 0.0697,0.0283 0.12766,0.03 0.17415,0.004 z m -0.79737,0.2403 v 1.34255 l -0.0651,0.0584 v -1.30948 z m 0.92863,0.7183 v 0.75551 l -0.0708,0.0589 v -0.19017 c -0.062,-0.0425 -0.12327,-0.0473 -0.18449,-0.0139 0.0333,-0.0726 0.0946,-0.11035 0.18449,-0.11369 l 10e-4,-0.41651 z m 1.94871,1.19114 -2.4045,1.09347 v 0.93276 c 0.36199,-0.21531 1.51741,-1.20608 2.4045,-2.02623 z m -4.99607,0.0103 c 0.88385,0.81645 2.02802,1.79843 2.39055,2.01538 v -0.93638 z" />
  </g>
</svg>
