<?xml version="1.0" encoding="UTF-8" standalone="no"?>
<!-- Created with Inkscape (http://www.inkscape.org/) -->

<svg
   width="5.7250381mm"
   height="5.6291461mm"
   viewBox="0 0 5.7250381 5.6291461"
   version="1.1"
   id="svg1"
   xmlns="http://www.w3.org/2000/svg"
   xmlns:svg="http://www.w3.org/2000/svg">
  <defs
     id="defs1">
    <linearGradient
       id="swatch4">
      <stop
         style="stop-color:#000000;stop-opacity:1;"
         offset="0"
         id="stop4" />
    </linearGradient>
  </defs>
  <g
     id="layer3"
     transform="translate(-216.94959,-181.20675)">
    <path
       id="path24-11-10-14-6"
       style="display:inline;fill:#ffffff;fill-opacity:1;stroke:none;stroke-width:0.200527;stroke-dasharray:none;stroke-opacity:1"
       d="m 219.81183,181.20676 c -1.16546,0 -2.32854,0.0383 -2.64066,0.11421 l 2.6665,1.89446 2.59261,-1.90014 c -0.34405,-0.0724 -1.48079,-0.10853 -2.61845,-0.10853 z m 2.75643,0.2558 -2.56936,1.88361 c 0.0366,0.0272 0.0754,0.0602 0.11989,0.1018 0.0994,0.093 0.22202,0.22296 0.36122,0.37827 0.2784,0.31061 0.62086,0.72419 0.95085,1.1436 0.32999,0.4194 0.64697,0.84394 0.87436,1.17616 0.1137,0.16612 0.2046,0.30943 0.26459,0.41909 0.005,0.009 0.008,0.0163 0.0129,0.0248 0.12718,-0.88983 0.12241,-4.44123 -0.0145,-5.12734 z m -5.51595,0.0202 c -0.13548,0.74634 -0.1371,4.35136 -0.004,5.15162 0.0105,-0.0216 0.0224,-0.0442 0.0362,-0.0693 0.06,-0.10966 0.15089,-0.25297 0.26459,-0.41909 0.22739,-0.33222 0.54438,-0.75676 0.87436,-1.17616 0.32999,-0.41941 0.67297,-0.83299 0.95137,-1.1436 0.13919,-0.15531 0.26127,-0.28532 0.3607,-0.37827 0.0479,-0.0448 0.0907,-0.0803 0.1297,-0.10852 z m 2.77451,1.98075 c -0.0268,0.0195 -0.0631,0.0504 -0.10697,0.0915 -0.092,0.086 -0.21267,0.21229 -0.34985,0.36535 -0.27436,0.30611 -0.61536,0.71814 -0.94361,1.13534 -0.32825,0.4172 -0.64407,0.83996 -0.86816,1.16737 -0.11205,0.16371 -0.2008,0.30415 -0.25632,0.40566 -0.0265,0.0485 -0.0436,0.0864 -0.0532,0.11317 0.0365,0.007 0.0904,0.0154 0.1602,0.0227 0.14755,0.0155 0.35694,0.0286 0.60616,0.0393 0.49846,0.0213 1.15527,0.032 1.81178,0.032 0.65651,0 1.31384,-0.0108 1.81229,-0.032 0.24923,-0.0106 0.45964,-0.0238 0.6072,-0.0393 0.0702,-0.007 0.12376,-0.0155 0.1602,-0.0227 -0.01,-0.0268 -0.0277,-0.0647 -0.0543,-0.11317 -0.0555,-0.10151 -0.14427,-0.24195 -0.25632,-0.40566 -0.22409,-0.32741 -0.54043,-0.75017 -0.86868,-1.16737 -0.32826,-0.4172 -0.66925,-0.82923 -0.94361,-1.13534 -0.13718,-0.15306 -0.2573,-0.27932 -0.34933,-0.36535 -0.0439,-0.0411 -0.0807,-0.072 -0.10749,-0.0915 z m 0.21704,0.95343 c 0.0315,-0.002 0.0627,0.003 0.094,0.014 -0.0464,-0.0131 -0.12004,0.0198 -0.22066,0.0977 0.0214,0.0479 0.0649,0.0921 0.1323,0.13229 0.0945,0.0559 0.20598,0.047 0.33383,-0.0264 l -0.1385,0.14883 v 0.30437 l -0.22066,0.22221 v -0.40772 c -0.0637,-0.0101 -0.12866,-0.038 -0.1943,-0.0837 v 0.57206 l 0.1049,0.0558 0.31006,-0.30748 -0.006,0.11731 -0.22996,0.23771 c 0.0728,0.0325 0.13516,0.0543 0.18707,0.0651 0.0527,0.0108 0.11501,-0.005 0.18707,-0.0486 l -0.13849,0.14883 v 0.37878 l -0.24391,0.23513 v -0.60771 l -0.17105,-0.0822 v 0.6103 l -0.0708,0.0584 v -0.70279 l -0.0811,-0.0388 -0.002,0.76171 0.25838,0.11265 0.31006,-0.30799 -0.006,0.11782 -0.41393,0.41548 -0.39739,-0.19017 c -0.0387,-0.0167 -0.0946,-0.0176 -0.16743,-0.003 0.0705,-0.055 0.123,-0.0845 0.15709,-0.0879 v -0.65164 c -0.0395,0.0133 -0.0985,-0.0136 -0.17673,-0.0811 0.0697,0.0284 0.12766,0.0295 0.17415,0.004 l 0.16536,-0.14625 c -0.11699,-0.006 -0.20414,0.002 -0.26148,0.0248 0.0705,-0.055 0.12223,-0.084 0.15555,-0.0873 v -0.47697 c -0.0387,0.0133 -0.0969,-0.0136 -0.17519,-0.0811 0.0697,0.0284 0.12766,0.0295 0.17415,0.004 l 0.32298,-0.27595 c 0.0828,-0.0909 0.16543,-0.13942 0.24753,-0.14418 z m -0.34416,0.28888 v 0.61546 l 0.0594,0.0315 v -0.59067 c -0.0197,-0.0173 -0.0396,-0.0359 -0.0594,-0.0563 z" />
  </g>
</svg>
