<?xml version="1.0" encoding="UTF-8" standalone="no"?>
<!-- Created with Inkscape (http://www.inkscape.org/) -->

<svg
   width="7.2042279mm"
   height="6.3448324mm"
   viewBox="0 0 7.2042279 6.3448324"
   version="1.1"
   id="svg1"
   xmlns="http://www.w3.org/2000/svg"
   xmlns:svg="http://www.w3.org/2000/svg">
  <defs
     id="defs1">
    <linearGradient
       id="swatch4">
      <stop
         style="stop-color:#000000;stop-opacity:1;"
         offset="0"
         id="stop4" />
    </linearGradient>
  </defs>
  <g
     id="layer3"
     transform="translate(-208.42803,-158.5725)">
    <path
       id="path34-81-8-39-2-6-4"
       style="fill:#ffffff;fill-opacity:1;stroke:none;stroke-width:0.200326;stroke-dasharray:none;stroke-opacity:1"
       d="m 211.9627,158.57249 c -0.53449,0.28392 -3.53467,2.96694 -3.53467,3.18172 0,0.0765 0.38355,0.46818 0.89762,0.95084 z m 0.13384,0 2.6355,4.13463 c 0.5152,-0.48363 0.90021,-0.87635 0.90021,-0.95291 0,-0.2149 -3.00364,-2.90029 -3.53571,-3.18172 z m -0.0667,0.26613 -2.45928,3.85816 2.46342,1.11053 2.4505,-1.11569 z m 0.51522,1.86604 c -0.16581,0.23518 -0.33003,0.36442 -0.49196,0.3886 -0.16116,0.0234 -0.28736,-0.0126 -0.37879,-0.10852 l -0.17415,0.0786 0.27647,-0.3514 c 0.055,0.0801 0.15406,0.12559 0.29662,0.13643 0.14257,0.01 0.2998,-0.0378 0.47181,-0.14366 z m -0.015,0.0398 c -0.12779,0.29082 -0.22956,0.61584 -0.30541,0.97462 0.10666,0.003 0.22327,-0.0244 0.35037,-0.0816 -0.12737,0.13296 -0.25292,0.20468 -0.37724,0.21497 -0.0362,0.19111 -0.0652,0.39147 -0.0873,0.601 l 0.1974,0.0863 c 0.0496,-0.0567 0.1114,-0.0834 0.185,-0.0801 -0.0713,0.0367 -0.16748,0.1447 -0.28835,0.32401 l -0.30127,-0.1049 c -0.10848,0.0992 -0.24425,0.12931 -0.40773,0.0909 0.16736,0.004 0.2889,-0.0613 0.36483,-0.19637 0.0616,-0.27606 0.12202,-0.51912 0.18087,-0.73071 -0.055,-0.0124 -0.10206,-0.0343 -0.14107,-0.0672 l -0.13385,0.046 0.21394,-0.20877 c 0.0238,0.0364 0.0584,0.0633 0.10336,0.0811 0.12174,-0.40991 0.23741,-0.67901 0.34726,-0.80667 z m -0.52555,1.16737 -0.18707,0.65784 c -0.0953,-0.0517 -0.20598,-0.0178 -0.33228,0.10232 0.0682,-0.15679 0.17137,-0.23127 0.31006,-0.22376 l 0.0501,-0.14521 c -0.0744,-0.035 -0.16334,-0.0164 -0.26717,0.0553 0.0527,-0.10258 0.15432,-0.15806 0.30541,-0.1664 l 0.0734,-0.23047 z m 2.52956,0.97927 -2.4045,1.09347 v 0.93276 c 0.36198,-0.21531 1.5174,-1.20608 2.4045,-2.02623 z m -4.99608,0.0103 c 0.88386,0.81645 2.02802,1.79843 2.39055,2.01538 v -0.93637 z" />
  </g>
</svg>
