<?xml version="1.0" encoding="UTF-8" standalone="no"?>
<!-- Created with Inkscape (http://www.inkscape.org/) -->

<svg
   width="5.6704068mm"
   height="5.9009156mm"
   viewBox="0 0 5.6704068 5.9009156"
   version="1.1"
   id="svg1"
   xmlns="http://www.w3.org/2000/svg"
   xmlns:svg="http://www.w3.org/2000/svg">
  <defs
     id="defs1">
    <linearGradient
       id="swatch4">
      <stop
         style="stop-color:#000000;stop-opacity:1;"
         offset="0"
         id="stop4" />
    </linearGradient>
  </defs>
  <g
     id="layer3"
     transform="translate(-216.91904,-195.71183)">
    <path
       id="path237-317-04-45-5"
       style="fill:#ffffff;fill-opacity:1;stroke:none;stroke-width:0.200527;stroke-dasharray:none;stroke-opacity:1"
       d="m 219.75396,195.71182 c -0.12765,0 -1.63099,0.48825 -1.73426,0.56328 -0.10327,0.075 -1.03233,1.35396 -1.07177,1.47536 -0.0183,0.0563 -0.0276,0.4279 -0.0289,0.82062 0.008,-0.005 0.0144,-0.009 0.0227,-0.0139 0.0745,-0.0438 0.17702,-0.097 0.29972,-0.1571 0.24539,-0.12015 0.57201,-0.26755 0.90796,-0.41134 0.33594,-0.14379 0.68048,-0.28357 0.96118,-0.38861 0.14034,-0.0525 0.26406,-0.0963 0.36638,-0.12816 0.0512,-0.0159 0.0965,-0.0286 0.13953,-0.0388 0.043,-0.0101 0.0759,-0.0207 0.15141,-0.0207 0.0755,0 0.10838,0.0105 0.15141,0.0207 0.043,0.0101 0.0884,0.0228 0.13953,0.0388 0.10232,0.0319 0.22604,0.0756 0.36639,0.12816 0.28069,0.10504 0.62575,0.24482 0.96169,0.38861 0.33595,0.14379 0.66257,0.29119 0.90796,0.41134 0.12024,0.0589 0.22047,0.11072 0.29455,0.154 -0.002,-0.38625 -0.0109,-0.74812 -0.0289,-0.80357 -0.0395,-0.1214 -0.96902,-1.40033 -1.07229,-1.47536 -0.10327,-0.075 -1.60661,-0.56328 -1.73426,-0.56328 z m 0.014,1.83555 c -0.002,3.3e-4 -0.002,1.2e-4 -0.004,5.2e-4 -0.0247,0.006 -0.0622,0.016 -0.10697,0.03 -0.0895,0.0279 -0.20839,0.0699 -0.34468,0.12092 -0.2726,0.102 -0.61453,0.24073 -0.94672,0.38292 -0.33218,0.14218 -0.65569,0.28795 -0.894,0.40463 -0.11915,0.0583 -0.21701,0.10948 -0.28215,0.14779 -0.0326,0.0191 -0.0567,0.0354 -0.0703,0.046 -9.9e-4,7.7e-4 -6.9e-4,3.6e-4 -10e-4,0.002 8.1e-4,7.4e-4 5.1e-4,8.4e-4 10e-4,0.002 0.0136,0.0106 0.0377,0.0268 0.0703,0.046 0.0651,0.0383 0.163,0.0894 0.28215,0.14779 0.23831,0.11667 0.56182,0.26245 0.894,0.40463 0.33219,0.14219 0.67412,0.28091 0.94672,0.38292 0.13629,0.051 0.25518,0.093 0.34468,0.12092 0.0448,0.0139 0.0823,0.0242 0.10697,0.03 0.002,4e-4 0.002,1.9e-4 0.004,5.2e-4 0.002,-3.3e-4 0.002,-1.2e-4 0.004,-5.2e-4 0.0247,-0.006 0.0622,-0.016 0.10697,-0.03 0.0895,-0.0279 0.2089,-0.0699 0.3452,-0.12092 0.27259,-0.10201 0.61401,-0.24073 0.94619,-0.38292 0.33219,-0.14218 0.65621,-0.28796 0.89452,-0.40463 0.11916,-0.0583 0.21701,-0.10949 0.28215,-0.14779 0.0326,-0.0192 0.0567,-0.0354 0.0703,-0.046 9.9e-4,-7.7e-4 6.9e-4,-8.7e-4 0.002,-0.002 -8.1e-4,-7.4e-4 -5.1e-4,-3.3e-4 -0.002,-0.002 -0.0136,-0.0106 -0.0377,-0.0268 -0.0703,-0.046 -0.0651,-0.0383 -0.16299,-0.0895 -0.28215,-0.14779 -0.23831,-0.11668 -0.56233,-0.26245 -0.89452,-0.40463 -0.33218,-0.14219 -0.6736,-0.28092 -0.94619,-0.38292 -0.0983,-0.0368 -0.18304,-0.0665 -0.2589,-0.092 -0.031,0.0165 -0.0667,0.0399 -0.10594,0.0703 0.0213,0.0481 0.0652,0.092 0.13281,0.13229 0.0945,0.0559 0.20598,0.0476 0.33383,-0.0258 l -0.13849,0.14883 v 0.30386 l -0.22066,0.22272 v -0.40773 c -0.0637,-0.0101 -0.12867,-0.0385 -0.19431,-0.0842 v 0.57258 l 0.10491,0.0558 0.31006,-0.30799 -0.006,0.11782 -0.22996,0.23771 c 0.0728,0.0325 0.13515,0.0543 0.18706,0.0651 0.0527,0.0108 0.11501,-0.006 0.18707,-0.0491 l -0.13849,0.14883 v 0.3793 l -0.24391,0.23513 v -0.60823 l -0.17105,-0.0822 v 0.6103 l -0.0708,0.0589 v -0.70331 l -0.0811,-0.0388 -0.002,0.76171 0.25838,0.11265 0.31006,-0.30747 -0.006,0.11731 -0.41393,0.41547 -0.39739,-0.19017 c -0.0387,-0.0167 -0.0946,-0.0176 -0.16743,-0.003 0.0705,-0.055 0.123,-0.084 0.15709,-0.0873 v -0.65164 c -0.0395,0.0133 -0.0985,-0.0141 -0.17673,-0.0816 0.0697,0.0284 0.12766,0.0295 0.17415,0.004 l 0.16536,-0.14625 c -0.11699,-0.006 -0.20414,0.003 -0.26148,0.0253 0.0705,-0.055 0.12223,-0.0845 0.15555,-0.0879 v -0.47645 c -0.0387,0.0133 -0.0974,-0.0136 -0.1757,-0.0811 0.0697,0.0284 0.12817,0.0295 0.17466,0.004 l 0.32246,-0.27595 c 0.0548,-0.0604 0.10979,-0.10201 0.16434,-0.12454 -0.007,-0.002 -0.0169,-0.006 -0.0238,-0.008 -0.0448,-0.0139 -0.0823,-0.0242 -0.10697,-0.03 -0.002,-4e-4 -0.002,-1.9e-4 -0.004,-5.2e-4 z m -0.12609,0.30747 v 0.61547 l 0.0594,0.0315 v -0.59066 c -0.0198,-0.0174 -0.0395,-0.0358 -0.0594,-0.0563 z m -2.72283,0.93741 c 0.002,0.37797 0.0113,0.72746 0.0289,0.78187 0.0395,0.12141 0.96849,1.40033 1.07177,1.47536 0.10327,0.075 1.60661,0.56327 1.73426,0.56327 0.12765,0 1.63099,-0.48824 1.73426,-0.56327 0.10327,-0.075 1.03284,-1.35395 1.07229,-1.47536 0.0174,-0.0536 0.0264,-0.39354 0.0284,-0.76481 -0.0741,0.0433 -0.17398,0.0952 -0.29403,0.15399 -0.2454,0.12014 -0.57201,0.26756 -0.90796,0.41135 -0.33595,0.1438 -0.681,0.28357 -0.9617,0.3886 -0.14034,0.0525 -0.26406,0.0963 -0.36638,0.12816 -0.0512,0.0159 -0.0965,0.0291 -0.13953,0.0393 -0.043,0.0101 -0.0759,0.0202 -0.15141,0.0202 -0.0755,0 -0.10839,-0.01 -0.15141,-0.0202 -0.043,-0.0101 -0.0884,-0.0233 -0.13953,-0.0393 -0.10232,-0.0319 -0.22604,-0.0756 -0.36639,-0.12816 -0.28069,-0.10503 -0.62523,-0.2448 -0.96118,-0.3886 -0.33594,-0.14379 -0.66256,-0.29121 -0.90795,-0.41135 -0.1227,-0.0601 -0.22524,-0.11329 -0.29973,-0.15709 -0.008,-0.005 -0.0151,-0.009 -0.0227,-0.014 z" />
  </g>
</svg>
