<?xml version="1.0" encoding="UTF-8" standalone="no"?>
<!-- Created with Inkscape (http://www.inkscape.org/) -->

<svg
   width="6.2030616mm"
   height="6.4541602mm"
   viewBox="0 0 6.2030616 6.4541602"
   version="1.1"
   id="svg1"
   xmlns="http://www.w3.org/2000/svg"
   xmlns:svg="http://www.w3.org/2000/svg">
  <defs
     id="defs1">
    <linearGradient
       id="swatch4">
      <stop
         style="stop-color:#000000;stop-opacity:1;"
         offset="0"
         id="stop4" />
    </linearGradient>
  </defs>
  <g
     id="layer3"
     transform="translate(-232.13672,-142.71193)">
    <path
       id="path43-16-0-7"
       style="fill:#ffffff;fill-opacity:1;stroke:none;stroke-width:0.194062;stroke-dasharray:none;stroke-opacity:1"
       d="m 235.32665,142.71196 v 1.24592 c 0.0203,0.0104 0.0416,0.0223 0.0677,0.0377 0.0609,0.036 0.13919,0.086 0.22944,0.14624 0.18051,0.1205 0.40928,0.28152 0.63562,0.44597 0.22635,0.16445 0.44974,0.33221 0.62012,0.46664 0.0852,0.0672 0.15781,0.12582 0.21084,0.1726 0.0225,0.0199 0.0395,0.0367 0.0553,0.0527 l 1.12913,-0.42116 c -0.18566,-0.29451 -1.06033,-1.49539 -1.13378,-1.54875 -0.0726,-0.0527 -1.45547,-0.50443 -1.81436,-0.59789 z m -0.19379,0.004 c -0.39446,0.1067 -1.72583,0.54273 -1.79679,0.59428 -0.0713,0.0518 -0.9037,1.19232 -1.12241,1.52859 l 1.12035,0.43874 c 0.0155,-0.0154 0.0318,-0.0308 0.0532,-0.0496 0.053,-0.0468 0.12461,-0.10539 0.2098,-0.1726 0.17038,-0.13444 0.39378,-0.30219 0.62012,-0.46664 0.22634,-0.16445 0.45512,-0.32599 0.63562,-0.44649 0.0902,-0.0602 0.16857,-0.10974 0.22944,-0.14572 0.0195,-0.0115 0.0345,-0.0191 0.0506,-0.0279 z m 0.10594,1.38907 c -0.001,4.4e-4 -0.002,5.4e-4 -0.003,0.001 -0.0154,0.007 -0.0391,0.0206 -0.0672,0.0372 -0.0561,0.0332 -0.13242,0.0818 -0.22118,0.14107 -0.1775,0.1185 -0.405,0.27893 -0.62993,0.44235 -0.22493,0.16342 -0.4474,0.33031 -0.61495,0.46251 -0.0838,0.0661 -0.15372,0.12331 -0.20257,0.1664 -0.0244,0.0216 -0.0439,0.0393 -0.0558,0.0517 -7.6e-4,9.1e-4 -8.1e-4,0.001 -0.002,0.002 7e-5,0.001 -2.2e-4,0.002 0,0.004 0.002,0.017 0.007,0.0426 0.014,0.0744 0.0142,0.0636 0.0372,0.15101 0.0661,0.25373 0.0578,0.20544 0.14042,0.47145 0.22634,0.73587 0.0859,0.26443 0.17563,0.5279 0.2496,0.72812 0.037,0.1001 0.0697,0.18465 0.0956,0.24443 0.0129,0.0299 0.0245,0.0536 0.0326,0.0687 5.2e-4,9.2e-4 9.2e-4,9.9e-4 0.001,0.002 0.001,3.6e-4 0.002,0.001 0.003,0.001 0.0169,0.003 0.043,0.007 0.0754,0.01 0.0649,0.006 0.15485,0.0113 0.26148,0.0155 0.21326,0.008 0.49143,0.0124 0.76946,0.0124 0.27804,0 0.55621,-0.004 0.76947,-0.0124 0.10662,-0.004 0.19766,-0.009 0.26251,-0.0155 0.0324,-0.003 0.0586,-0.007 0.0755,-0.01 10e-4,-2.1e-4 10e-4,-0.001 0.003,-0.001 6e-4,-9.2e-4 9.5e-4,-9.9e-4 0.001,-0.002 0.008,-0.0151 0.0191,-0.0388 0.032,-0.0687 0.0259,-0.0598 0.0586,-0.14433 0.0956,-0.24443 0.074,-0.2002 0.16472,-0.46369 0.25063,-0.72812 0.0859,-0.26442 0.16747,-0.53043 0.22531,-0.73587 0.0289,-0.10272 0.052,-0.19015 0.0662,-0.25373 0.007,-0.0318 0.0116,-0.0574 0.0139,-0.0744 2.2e-4,-0.001 -7e-5,-0.002 0,-0.004 -6.8e-4,-9.1e-4 -7.2e-4,-10e-4 -0.002,-0.002 -0.0119,-0.0124 -0.0303,-0.0301 -0.0548,-0.0517 -0.0488,-0.0431 -0.11983,-0.10029 -0.2036,-0.1664 -0.16757,-0.13221 -0.39002,-0.29909 -0.61495,-0.46251 -0.22494,-0.16342 -0.45243,-0.32385 -0.62994,-0.44235 -0.0888,-0.0592 -0.1651,-0.10792 -0.22117,-0.14107 -0.028,-0.0166 -0.0507,-0.0297 -0.0661,-0.0372 -10e-4,-5.1e-4 -10e-4,-6.3e-4 -0.003,-0.001 z m -3.04064,0.75964 c -0.0162,0.026 -0.0356,0.056 -0.0382,0.0641 -0.002,0.005 -0.003,0.0312 -0.004,0.0444 z m 2.44429,0.0346 c 0.001,0.13094 0.0838,0.20135 0.2465,0.21136 l -0.11059,0.14676 -0.001,1.38338 0.19792,0.0863 c 0.0496,-0.0567 0.11088,-0.0834 0.18449,-0.0801 -0.0713,0.0367 -0.16748,0.14471 -0.28836,0.32401 l -0.2775,-0.1049 c -0.0356,0.055 -0.11762,0.0856 -0.24546,0.0915 0.0961,-0.0459 0.16383,-0.11183 0.20257,-0.19689 l 0.001,-1.49862 c -0.0411,-0.007 -0.0731,-0.0255 -0.0956,-0.0563 l -0.19379,0.0703 z m 1.07177,0.003 c 0.004,0.0709 0.0584,0.13429 0.16382,0.19017 0.10615,0.0559 0.21812,0.047 0.33589,-0.0264 l -0.1266,0.14883 v 1.16737 l -0.22428,0.19666 v -0.66145 c 0.10073,-0.004 0.1509,-0.0508 0.1509,-0.14005 0,-0.0901 -0.0502,-0.13467 -0.1509,-0.13384 v -0.28525 c -0.12164,-0.0334 -0.22276,-0.10744 -0.30334,-0.22169 v 0.50539 c -0.10072,0.003 -0.15141,0.0489 -0.15141,0.13643 0,0.0867 0.0507,0.13245 0.15141,0.13746 v 0.7121 l 0.18345,0.12505 0.34417,-0.33279 -0.006,0.11782 -0.43822,0.44028 -0.31161,-0.19017 c -0.0356,-0.0167 -0.0868,-0.0176 -0.15348,-0.003 0.0643,-0.055 0.11241,-0.0845 0.14418,-0.0879 v -1.35186 c -0.0364,0.0134 -0.0907,-0.0141 -0.16278,-0.0816 0.0643,0.0283 0.11758,0.03 0.1602,0.004 z m -3.56309,0.11937 c -0.0218,0.37473 -0.0189,1.82281 0.009,1.90789 0.0274,0.0844 0.86551,1.24238 1.11105,1.5441 l 0.6997,-0.88677 c -0.0104,-0.02 -0.0211,-0.0406 -0.0331,-0.0682 -0.0281,-0.0649 -0.0611,-0.15195 -0.0987,-0.25374 -0.0752,-0.20358 -0.16573,-0.46874 -0.25219,-0.73483 -0.0865,-0.26608 -0.16907,-0.53266 -0.22789,-0.74156 -0.0294,-0.10445 -0.0528,-0.19402 -0.0682,-0.26303 -0.005,-0.0239 -0.008,-0.0428 -0.0119,-0.062 z m 6.17585,0.0248 -1.13016,0.42168 c -0.003,0.0181 -0.006,0.0348 -0.0109,0.0568 -0.0154,0.069 -0.0388,0.15858 -0.0682,0.26303 -0.0588,0.2089 -0.1404,0.476 -0.22686,0.74208 -0.0865,0.26608 -0.17698,0.53074 -0.25218,0.73432 -0.0376,0.10179 -0.0716,0.18885 -0.0997,0.25373 -0.0135,0.0312 -0.0257,0.0559 -0.0372,0.0775 l 0.70021,0.88264 c 0.23774,-0.29016 1.08702,-1.46365 1.11467,-1.54875 0.0269,-0.0828 0.0303,-1.46419 0.0103,-1.88309 z m -3.42769,0.12971 v 1.34256 l -0.0651,0.0589 v -1.31 z m 0.80718,0.26562 c 0.008,0 0.0172,0.002 0.0253,0.006 0.0163,0.008 0.0264,0.0205 0.031,0.0372 0.005,0.0158 0.005,0.0324 0,0.0491 -0.005,0.0167 -0.0183,0.0289 -0.0393,0.0372 v 0.18758 h 0.10232 c 0.008,-0.0225 0.0191,-0.0365 0.0346,-0.0424 0.0155,-0.006 0.0308,-0.006 0.0455,0 0.0155,0.005 0.0269,0.0166 0.0346,0.0341 0.008,0.0175 0.008,0.0356 0,0.0548 -0.007,0.0183 -0.0186,0.0301 -0.0357,0.0351 -0.0171,0.005 -0.0336,0.004 -0.0491,-0.004 -0.0155,-0.007 -0.0253,-0.0231 -0.03,-0.0465 h -0.1018 l 5.2e-4,0.64182 c 0.0209,0.008 0.0344,0.0205 0.0398,0.0372 0.005,0.0167 0.005,0.0334 0,0.0501 -0.005,0.0159 -0.0152,0.0278 -0.0315,0.0362 -0.0163,0.008 -0.0333,0.009 -0.0512,0.002 -0.0171,-0.008 -0.0279,-0.022 -0.0326,-0.0403 -0.005,-0.0183 -0.003,-0.0355 0.004,-0.0522 0.007,-0.0167 0.0212,-0.0275 0.0429,-0.0326 l -5.2e-4,-0.64182 h -0.1111 c -0.005,0.0234 -0.0145,0.039 -0.03,0.0465 -0.0155,0.008 -0.032,0.009 -0.0491,0.004 -0.0171,-0.005 -0.0295,-0.0168 -0.0372,-0.0351 -0.007,-0.0192 -0.007,-0.0373 10e-4,-0.0548 0.008,-0.0175 0.0194,-0.0291 0.0341,-0.0341 0.0155,-0.006 0.031,-0.006 0.0465,0 0.0155,0.006 0.0269,0.0199 0.0346,0.0424 h 0.11059 v -0.18758 c -0.0217,-0.005 -0.0364,-0.0159 -0.0434,-0.0326 -0.007,-0.0167 -0.008,-0.0338 -0.003,-0.0522 0.005,-0.0183 0.0155,-0.0312 0.0326,-0.0388 0.009,-0.004 0.0173,-0.006 0.0258,-0.006 z m -1.57251,2.25309 -0.70539,0.89297 c 0.36682,0.14135 1.72117,0.57826 1.80971,0.57826 0.0878,0 1.4249,-0.43077 1.80454,-0.57568 l -0.70951,-0.89503 c -0.0157,0.002 -0.0289,0.004 -0.0475,0.006 -0.0704,0.007 -0.16236,0.0122 -0.27079,0.0165 -0.21685,0.009 -0.49692,0.0134 -0.77669,0.0134 -0.27978,0 -0.55881,-0.005 -0.77567,-0.0134 -0.10842,-0.004 -0.20142,-0.01 -0.27181,-0.0165 -0.0224,-0.002 -0.0388,-0.005 -0.0568,-0.007 z m 3.0148,0.84439 -0.015,0.0119 c 0.001,-4.6e-4 0.006,-0.003 0.007,-0.003 0.001,-9.1e-4 0.006,-0.008 0.008,-0.009 z" />
  </g>
</svg>
