<?xml version="1.0" encoding="UTF-8" standalone="no"?>
<!-- Created with Inkscape (http://www.inkscape.org/) -->

<svg
   width="6.1489949mm"
   height="6.1491399mm"
   viewBox="0 0 6.1489949 6.1491399"
   version="1.1"
   id="svg1"
   xmlns="http://www.w3.org/2000/svg"
   xmlns:svg="http://www.w3.org/2000/svg">
  <defs
     id="defs1">
    <linearGradient
       id="swatch4">
      <stop
         style="stop-color:#000000;stop-opacity:1;"
         offset="0"
         id="stop4" />
    </linearGradient>
  </defs>
  <g
     id="layer3"
     transform="translate(-208.95565,-166.29035)">
    <path
       id="path225-00-8-3"
       style="fill:#ffffff;fill-opacity:1;stroke:none;stroke-width:0.200527;stroke-dasharray:none;stroke-opacity:1"
       d="m 210.75657,166.29036 -0.015,0.015 0.0367,-0.015 z m 0.10801,0 0.31677,0.7798 1.69706,-10e-4 0.31057,-0.77877 z m 2.43447,0 0.008,0.003 -0.003,-0.003 z m 0.0765,0.0718 -0.31264,0.7891 1.18753,1.18804 0.77773,-0.32452 z m -2.69647,0.006 -1.64848,1.64848 0.78031,0.32142 1.18546,-1.18494 z m 0.48317,0.90227 -1.2268,1.2268 v 1.73581 l 1.2268,1.22731 1.7353,-5.1e-4 1.2268,-1.2268 5.1e-4,-1.7353 -1.22731,-1.2268 z m -2.19108,0.80563 -0.0155,0.0155 v 0.0222 z m 6.13348,0.12558 -0.77928,0.32453 v 1.67328 l 0.77928,0.32866 z m -6.14898,0.001 v 2.32699 l 0.77928,-0.33486 v -1.6707 z m 3.58944,0.12196 c -0.16581,0.23518 -0.33002,0.36494 -0.49196,0.38912 -0.16116,0.0233 -0.28736,-0.0131 -0.37878,-0.10904 l -0.17415,0.0785 0.27647,-0.3514 c 0.055,0.0801 0.15405,0.12559 0.29662,0.13643 0.14257,0.01 0.2998,-0.0377 0.4718,-0.14366 z m -0.015,0.0398 c -0.12778,0.29082 -0.22956,0.61584 -0.3054,0.97462 0.10666,0.003 0.22326,-0.0239 0.35036,-0.0811 -0.12736,0.13296 -0.25291,0.20417 -0.37724,0.21446 -0.0362,0.19111 -0.0652,0.39147 -0.0873,0.601 l 0.19741,0.0863 c 0.0496,-0.0567 0.11139,-0.0834 0.185,-0.0801 -0.0713,0.0367 -0.16748,0.1447 -0.28835,0.32401 l -0.30128,-0.1049 c -0.10847,0.0992 -0.24424,0.12931 -0.40773,0.091 0.16736,0.004 0.28891,-0.0613 0.36484,-0.19637 0.0615,-0.2758 0.12156,-0.51875 0.18035,-0.73019 -0.0548,-0.0124 -0.10165,-0.0349 -0.14056,-0.0677 l -0.13384,0.046 0.21394,-0.20877 c 0.0238,0.0364 0.0584,0.0633 0.10335,0.0811 0.12175,-0.40991 0.23742,-0.67901 0.34727,-0.80667 z m -0.52554,1.16737 -0.18707,0.65784 c -0.0953,-0.0517 -0.20599,-0.0173 -0.33228,0.10284 0.0682,-0.15679 0.17136,-0.23179 0.31005,-0.22428 l 0.0501,-0.14521 c -0.0744,-0.035 -0.16334,-0.0164 -0.26716,0.0553 0.0527,-0.10258 0.15432,-0.15806 0.3054,-0.1664 l 0.0734,-0.22996 z m -2.20142,0.85266 -0.76998,0.33176 1.65003,1.65003 0.31833,-0.78393 z m 4.45037,0.003 -1.20354,1.20354 0.33021,0.77205 1.64848,-1.64848 z m -5.29786,0.23254 v 0.0186 l 0.0139,0.0139 z m 2.23087,1.03973 -0.31678,0.7798 h 2.32647 l -0.33641,-0.77928 z m -0.44235,0.7674 0.0124,0.0124 h 0.0176 z" />
  </g>
</svg>
