<?xml version="1.0" encoding="UTF-8" standalone="no"?>
<!-- Created with Inkscape (http://www.inkscape.org/) -->

<svg
   width="5.6705198mm"
   height="5.9009638mm"
   viewBox="0 0 5.6705198 5.9009638"
   version="1.1"
   id="svg1"
   xmlns="http://www.w3.org/2000/svg"
   xmlns:svg="http://www.w3.org/2000/svg">
  <defs
     id="defs1">
    <linearGradient
       id="swatch4">
      <stop
         style="stop-color:#000000;stop-opacity:1;"
         offset="0"
         id="stop4" />
    </linearGradient>
  </defs>
  <g
     id="layer3"
     transform="translate(-170.40549,-202.37806)">
    <path
       id="path237-317-06-5"
       style="fill:#ffffff;fill-opacity:1;stroke:none;stroke-width:0.200527;stroke-dasharray:none;stroke-opacity:1"
       d="m 173.24052,202.37808 c -0.12765,0 -1.63099,0.48825 -1.73426,0.56328 -0.10328,0.075 -1.03233,1.35396 -1.07177,1.47536 -0.0183,0.0563 -0.0276,0.4279 -0.0289,0.82062 0.008,-0.005 0.0144,-0.009 0.0227,-0.0139 0.0745,-0.0438 0.17703,-0.097 0.29972,-0.1571 0.2454,-0.12015 0.57201,-0.26755 0.90796,-0.41134 0.33594,-0.14379 0.68048,-0.28357 0.96118,-0.38861 0.14035,-0.0525 0.26406,-0.0963 0.36638,-0.12816 0.0512,-0.0159 0.0965,-0.0286 0.13953,-0.0388 0.043,-0.0101 0.0759,-0.0207 0.15141,-0.0207 0.0755,0 0.10839,0.0105 0.15141,0.0207 0.043,0.0101 0.0884,0.0228 0.13953,0.0388 0.10232,0.0319 0.22604,0.0756 0.36639,0.12816 0.0731,0.0274 0.15927,0.062 0.23978,0.0935 0.0227,-0.0178 0.046,-0.037 0.0703,-0.0584 -0.0124,0.0251 -0.0249,0.0484 -0.0372,0.0713 0.01,0.004 0.0187,0.008 0.0284,0.0114 0.0116,-0.0243 0.023,-0.0497 0.0346,-0.077 v 0.0904 c 0.20192,0.0802 0.4124,0.16601 0.6258,0.25735 0.33594,0.14379 0.66256,0.29119 0.90795,0.41134 0.12024,0.0589 0.22047,0.11072 0.29456,0.154 -0.002,-0.38625 -0.0109,-0.74812 -0.0289,-0.80357 -0.0395,-0.1214 -0.96902,-1.40033 -1.07229,-1.47536 -0.10327,-0.075 -1.60661,-0.56328 -1.73426,-0.56328 z m 0.0139,1.83555 c -0.002,3.3e-4 -0.001,1.2e-4 -0.003,5.2e-4 -0.0247,0.006 -0.0622,0.016 -0.10697,0.03 -0.0895,0.0279 -0.20839,0.0699 -0.34468,0.12092 -0.0717,0.0268 -0.15738,0.0617 -0.2372,0.093 0.0172,0.0105 0.0383,0.0192 0.0672,0.0284 0.0969,0.03 0.23236,-0.0316 0.4067,-0.185 -0.1232,0.25019 -0.24293,0.38902 -0.35916,0.41651 -0.11503,0.0274 -0.22806,-0.0298 -0.33848,-0.17208 -0.006,0.003 -0.0132,0.006 -0.0196,0.008 l -0.11834,0.0615 0.0196,-0.0207 c -0.1218,0.0501 -0.24426,0.10025 -0.36741,0.15296 -0.33219,0.14218 -0.6557,0.28795 -0.89401,0.40463 -0.11915,0.0583 -0.217,0.10948 -0.28215,0.14779 -0.0326,0.0191 -0.0567,0.0354 -0.0703,0.046 -9.9e-4,7.7e-4 -7.9e-4,8.7e-4 -0.002,0.002 8.1e-4,7.4e-4 6.1e-4,8.5e-4 0.002,0.002 0.0136,0.0106 0.0377,0.0268 0.0703,0.046 0.0652,0.0383 0.163,0.0894 0.28215,0.1478 0.23831,0.11667 0.56182,0.26244 0.89401,0.40462 0.13026,0.0558 0.26011,0.10958 0.3886,0.16227 v -0.32091 l 0.5948,-0.53434 v -0.60513 -10e-4 c 0.0744,-0.05 0.14989,-0.16414 0.22582,-0.34262 v 0.90589 l -0.58136,0.5178 v 0.41031 l 0.5333,-0.001 c 0.0728,-0.17346 0.18119,-0.28753 0.32453,-0.34262 -0.14644,0.0901 -0.25039,0.28048 -0.31161,0.57154 l -0.12712,-5.1e-4 c 0.0929,0.0337 0.17859,0.0637 0.24443,0.0842 0.0447,0.0139 0.0823,0.0242 0.10697,0.03 0.002,4e-4 0.001,1.9e-4 0.003,5.2e-4 0.002,-3.3e-4 0.002,-1.2e-4 0.004,-5.2e-4 0.0247,-0.006 0.0622,-0.016 0.10697,-0.03 0.0666,-0.0208 0.15366,-0.051 0.24805,-0.0853 -0.0459,2e-5 -0.0887,2.2e-4 -0.14315,-5.1e-4 -0.11141,-0.002 -0.24214,-0.0162 -0.32659,-0.0713 0.15031,0.004 0.24496,-0.0364 0.2837,-0.12144 v -0.38395 l 0.5948,-0.53434 v -0.60513 -0.001 c 0.0364,-0.0245 0.0728,-0.0646 0.10955,-0.11989 -0.0119,-0.005 -0.0218,-0.008 -0.0336,-0.0129 -0.0798,0.11528 -0.15838,0.18287 -0.23513,0.20102 -0.11544,0.0275 -0.22871,-0.0302 -0.33951,-0.17363 l -0.13694,0.0713 0.1974,-0.29662 c -0.0824,-0.0296 -0.1589,-0.0563 -0.21859,-0.0749 -0.0448,-0.0139 -0.0823,-0.0242 -0.10697,-0.03 -0.002,-4e-4 -0.002,-1.9e-4 -0.004,-5.2e-4 z m 0.37517,0.12247 c 0.0436,0.0745 0.10512,0.1248 0.18552,0.15038 0.045,0.0139 0.0984,0.008 0.1602,-0.0176 -0.09,-0.0355 -0.18501,-0.0739 -0.2651,-0.10387 -0.0289,-0.0108 -0.0534,-0.019 -0.0806,-0.0289 z m 0.61805,0.24185 v 0.6351 l -0.58136,0.5178 v 0.41031 l 0.53227,-0.001 c 4.9e-4,-2e-4 10e-4,-3.2e-4 0.002,-5.2e-4 0.0728,-0.17309 0.18085,-0.28708 0.32401,-0.3421 -0.10875,0.0669 -0.18219,0.14895 -0.23771,0.30593 0.12264,-0.0504 0.24586,-0.10138 0.37,-0.15452 0.33219,-0.14218 0.65621,-0.28795 0.89452,-0.40462 0.11915,-0.0583 0.217,-0.1095 0.28215,-0.1478 0.0326,-0.0192 0.0567,-0.0354 0.0703,-0.046 9.9e-4,-7.7e-4 7.9e-4,-8.8e-4 0.002,-0.002 -8.1e-4,-7.4e-4 -6.1e-4,-8.4e-4 -0.002,-0.002 -0.0136,-0.0106 -0.0377,-0.0268 -0.0703,-0.046 -0.0652,-0.0383 -0.163,-0.0895 -0.28215,-0.14779 -0.23831,-0.11668 -0.56233,-0.26245 -0.89452,-0.40463 -0.13711,-0.0587 -0.27399,-0.11484 -0.40876,-0.17001 z m -1.43764,0.0889 -0.001,0.56431 c -0.11622,-0.0595 -0.23001,-0.0629 -0.34158,-0.0103 0.0387,-0.0934 0.1308,-0.13102 0.27647,-0.11265 v -0.14108 c -0.0891,-0.0408 -0.17367,-0.0291 -0.25425,0.0351 0.0178,-0.0986 0.10239,-0.14729 0.25425,-0.14418 v -0.14469 z m 1.18546,0 -0.002,0.56431 c -0.11622,-0.0595 -0.23001,-0.0629 -0.34158,-0.0103 0.0387,-0.0934 0.1308,-0.13102 0.27647,-0.11265 v -0.14108 c -0.0891,-0.0408 -0.17367,-0.0291 -0.25425,0.0351 0.0178,-0.0987 0.10238,-0.14729 0.25425,-0.14418 v -0.14521 z m -3.58996,0.79168 c 0.002,0.37797 0.0113,0.72746 0.0289,0.78187 0.0394,0.12141 0.96849,1.40033 1.07177,1.47536 0.10327,0.075 1.60661,0.56327 1.73426,0.56327 0.12765,0 1.63099,-0.48824 1.73426,-0.56327 0.10327,-0.075 1.03284,-1.35395 1.07228,-1.47536 0.0174,-0.0536 0.0264,-0.39354 0.0284,-0.76481 -0.0741,0.0433 -0.17398,0.0952 -0.29403,0.15399 -0.2454,0.12014 -0.57201,0.26756 -0.90796,0.41135 -0.33595,0.1438 -0.681,0.28357 -0.9617,0.3886 -0.14035,0.0525 -0.26406,0.0963 -0.36638,0.12816 -0.0512,0.0159 -0.0965,0.0291 -0.13953,0.0393 -0.043,0.0101 -0.0759,0.0202 -0.15141,0.0202 -0.0755,0 -0.10839,-0.01 -0.15141,-0.0202 -0.043,-0.0101 -0.0884,-0.0233 -0.13953,-0.0393 -0.10232,-0.0319 -0.22604,-0.0756 -0.36639,-0.12816 -0.28069,-0.10503 -0.62523,-0.2448 -0.96118,-0.3886 -0.33595,-0.14379 -0.66256,-0.29121 -0.90795,-0.41135 -0.1227,-0.0601 -0.22524,-0.11329 -0.29973,-0.15709 -0.008,-0.005 -0.0151,-0.009 -0.0227,-0.014 z" />
  </g>
</svg>
