<?xml version="1.0" encoding="UTF-8" standalone="no"?>
<!-- Created with Inkscape (http://www.inkscape.org/) -->

<svg
   width="5.6705041mm"
   height="5.9009318mm"
   viewBox="0 0 5.6705041 5.9009318"
   version="1.1"
   id="svg1"
   xmlns="http://www.w3.org/2000/svg"
   xmlns:svg="http://www.w3.org/2000/svg">
  <defs
     id="defs1">
    <linearGradient
       id="swatch4">
      <stop
         style="stop-color:#000000;stop-opacity:1;"
         offset="0"
         id="stop4" />
    </linearGradient>
  </defs>
  <g
     id="layer3"
     transform="translate(-232.34489,-195.73969)">
    <path
       id="path237-317-04-03-2"
       style="fill:#ffffff;fill-opacity:1;stroke:none;stroke-width:0.200527;stroke-dasharray:none;stroke-opacity:1"
       d="m 235.17989,195.73973 c -0.12765,0 -1.63099,0.48824 -1.73426,0.56327 -0.10327,0.075 -1.03232,1.35396 -1.07177,1.47536 -0.0183,0.0563 -0.0276,0.4279 -0.0289,0.82062 0.008,-0.005 0.0144,-0.009 0.0227,-0.014 0.0745,-0.0438 0.17702,-0.097 0.29972,-0.15709 0.2454,-0.12015 0.57201,-0.26756 0.90796,-0.41135 0.33594,-0.14379 0.68048,-0.28357 0.96118,-0.38861 0.14035,-0.0525 0.26406,-0.0963 0.36639,-0.12815 0.0512,-0.0159 0.0965,-0.0286 0.13952,-0.0388 0.043,-0.0101 0.0759,-0.0207 0.15141,-0.0207 0.0755,0 0.10839,0.0105 0.15141,0.0207 0.043,0.0101 0.0884,0.0228 0.13953,0.0388 0.10232,0.0319 0.22604,0.0756 0.36639,0.12815 0.28069,0.10504 0.62575,0.24482 0.9617,0.38861 0.33594,0.14379 0.66256,0.2912 0.90795,0.41135 0.12024,0.0589 0.22047,0.11071 0.29456,0.15399 -0.002,-0.38625 -0.0109,-0.74812 -0.0289,-0.80357 -0.0394,-0.1214 -0.96902,-1.40033 -1.07229,-1.47536 -0.10327,-0.075 -1.60661,-0.56327 -1.73426,-0.56327 z m 0.0139,1.83554 c -0.002,3.3e-4 -0.002,1.2e-4 -0.004,5.2e-4 -0.0247,0.006 -0.0622,0.016 -0.10697,0.03 -0.0895,0.0279 -0.20839,0.0699 -0.34468,0.12093 -0.0356,0.0133 -0.08,0.0315 -0.11782,0.046 0.0388,0.0531 0.10899,0.0832 0.21032,0.0894 l -0.11059,0.14624 -10e-4,1.38338 0.1974,0.0863 c 0.0496,-0.0567 0.1114,-0.0834 0.18501,-0.0801 -0.0711,0.0366 -0.16697,0.14412 -0.28733,0.32246 0.10317,0.0378 0.19708,0.0712 0.26872,0.0935 0.0448,0.0139 0.0823,0.0242 0.10697,0.03 0.002,4e-4 0.002,1.9e-4 0.004,5.2e-4 0.002,-3.3e-4 0.002,-1.2e-4 0.004,-5.2e-4 0.0247,-0.006 0.0622,-0.016 0.10697,-0.03 0.0711,-0.0222 0.16478,-0.0551 0.26717,-0.0925 l -0.29766,-0.1819 c -0.0356,-0.0167 -0.0868,-0.0176 -0.15348,-0.003 0.0643,-0.055 0.11241,-0.084 0.14418,-0.0873 v -1.35237 c -0.0364,0.0133 -0.0907,-0.0141 -0.16278,-0.0816 0.0643,0.0284 0.11758,0.03 0.1602,0.004 l 0.33538,-0.31212 c -0.11337,-0.0418 -0.2158,-0.0777 -0.29301,-0.10181 -0.0448,-0.0139 -0.0823,-0.0242 -0.10697,-0.03 -0.002,-4e-4 -0.002,-1.9e-4 -0.004,-5.2e-4 z m 0.49919,0.16847 c 0.0273,0.0353 0.0691,0.0685 0.12713,0.0992 0.0654,0.0344 0.13278,0.0441 0.20257,0.0294 -0.11552,-0.0463 -0.22774,-0.0901 -0.3297,-0.12867 z m -1.33583,0.13229 c -0.1829,0.0733 -0.37375,0.15157 -0.56534,0.23358 -0.33219,0.14218 -0.6557,0.28795 -0.894,0.40463 -0.11916,0.0583 -0.21701,0.10948 -0.28216,0.14779 -0.0326,0.0191 -0.0567,0.0354 -0.0703,0.046 -9.9e-4,7.7e-4 -6.9e-4,8.8e-4 -0.001,0.002 8.1e-4,7.4e-4 5.2e-4,3.3e-4 0.001,0.002 0.0136,0.0106 0.0377,0.0268 0.0703,0.046 0.0651,0.0383 0.163,0.0894 0.28216,0.1478 0.2383,0.11667 0.56181,0.26244 0.894,0.40462 0.22647,0.0969 0.44943,0.1876 0.65991,0.27079 0.0161,-0.0214 0.0301,-0.0441 0.0413,-0.0687 l 0.001,-1.49914 c -0.0411,-0.007 -0.0731,-0.0249 -0.0956,-0.0558 l -0.19379,0.0698 z m 1.14463,0.0119 v 0.50539 c -0.10072,0.003 -0.15141,0.0489 -0.15141,0.13643 0,0.0867 0.0507,0.13297 0.15141,0.13797 v 0.71159 l 0.18345,0.12506 0.34417,-0.3328 -0.006,0.11782 -0.41755,0.4191 c 0.0151,-0.006 0.0279,-0.01 0.0434,-0.0155 0.27259,-0.10201 0.61401,-0.24074 0.9462,-0.38293 0.33218,-0.14218 0.65621,-0.28795 0.89452,-0.40462 0.11915,-0.0583 0.217,-0.1095 0.28215,-0.1478 0.0326,-0.0192 0.0567,-0.0354 0.0703,-0.046 9.9e-4,-7.7e-4 6.9e-4,-3.6e-4 0.002,-0.002 -8.1e-4,-7.4e-4 -5.1e-4,-8.5e-4 -0.002,-0.002 -0.0136,-0.0106 -0.0377,-0.0268 -0.0703,-0.046 -0.0652,-0.0383 -0.163,-0.0895 -0.28215,-0.14779 -0.23831,-0.11668 -0.56234,-0.26245 -0.89452,-0.40463 -0.17103,-0.0732 -0.34323,-0.14504 -0.5085,-0.21187 l -0.0579,0.0677 v 1.16737 l -0.22427,0.19792 v -0.66197 c 0.10072,-0.004 0.15089,-0.0508 0.15089,-0.14004 0,-0.0901 -0.0502,-0.13468 -0.15089,-0.13385 v -0.28525 c -0.12165,-0.0334 -0.22276,-0.10744 -0.30334,-0.22169 z m -0.66042,0.0387 v 1.34256 l -0.0651,0.0589 v -1.31 z m 0.80718,0.26562 c 0.008,0 0.0172,0.002 0.0253,0.006 0.0163,0.008 0.0264,0.0205 0.031,0.0372 0.005,0.0159 0.005,0.0324 0,0.0491 -0.005,0.0167 -0.0183,0.0289 -0.0393,0.0372 v 0.1881 h 0.10232 c 0.008,-0.0225 0.0191,-0.037 0.0346,-0.0429 0.0155,-0.006 0.0308,-0.006 0.0455,0 0.0155,0.005 0.0269,0.0166 0.0346,0.0341 0.008,0.0175 0.008,0.0356 0,0.0548 -0.007,0.0184 -0.0186,0.0301 -0.0357,0.0351 -0.017,0.005 -0.0336,0.004 -0.0491,-0.004 -0.0155,-0.008 -0.0253,-0.0232 -0.03,-0.0465 h -0.1018 l 5.2e-4,0.64182 c 0.0209,0.008 0.0344,0.021 0.0398,0.0377 0.005,0.0167 0.005,0.0329 0,0.0496 -0.005,0.0159 -0.0153,0.0283 -0.0315,0.0367 -0.0163,0.008 -0.0333,0.009 -0.0512,10e-4 -0.017,-0.008 -0.0279,-0.0214 -0.0326,-0.0398 -0.005,-0.0183 -0.003,-0.036 0.004,-0.0527 0.007,-0.0167 0.0212,-0.0275 0.0429,-0.0325 l -5.2e-4,-0.64182 h -0.11108 c -0.005,0.0233 -0.0145,0.039 -0.03,0.0465 -0.0155,0.008 -0.032,0.009 -0.0491,0.004 -0.0171,-0.005 -0.0295,-0.0168 -0.0372,-0.0351 -0.007,-0.0192 -0.007,-0.0373 0.001,-0.0548 0.008,-0.0175 0.0194,-0.0291 0.0341,-0.0341 0.0155,-0.006 0.031,-0.006 0.0465,0 0.0155,0.006 0.0269,0.0204 0.0346,0.0429 h 0.11059 v -0.1881 c -0.0217,-0.005 -0.0364,-0.0159 -0.0434,-0.0326 -0.007,-0.0167 -0.008,-0.0338 -0.003,-0.0522 0.005,-0.0183 0.0155,-0.0312 0.0326,-0.0388 0.009,-0.004 0.0173,-0.006 0.0258,-0.006 z m -3.30367,0.62787 c 0.002,0.37797 0.0113,0.72745 0.0289,0.78186 0.0395,0.12141 0.9685,1.40034 1.07177,1.47537 0.10327,0.075 1.60661,0.56327 1.73426,0.56327 0.12765,0 1.63099,-0.48824 1.73426,-0.56327 0.10327,-0.075 1.03284,-1.35396 1.07229,-1.47537 0.0174,-0.0536 0.0264,-0.39354 0.0284,-0.76481 -0.0741,0.0433 -0.17399,0.0952 -0.29404,0.154 -0.2454,0.12014 -0.57201,0.26755 -0.90796,0.41134 -0.33595,0.1438 -0.681,0.28358 -0.9617,0.38861 -0.14035,0.0525 -0.26406,0.0963 -0.36638,0.12816 -0.0512,0.0159 -0.0965,0.0291 -0.13953,0.0393 -0.043,0.0101 -0.0759,0.0202 -0.15141,0.0202 -0.0755,0 -0.10838,-0.01 -0.15141,-0.0202 -0.043,-0.0101 -0.0884,-0.0233 -0.13953,-0.0393 -0.10232,-0.0319 -0.22604,-0.0756 -0.36638,-0.12816 -0.0662,-0.0248 -0.14467,-0.0565 -0.21705,-0.0847 -0.01,7.6e-4 -0.0189,0.002 -0.0289,0.002 0.005,-0.002 0.01,-0.005 0.015,-0.008 -0.23078,-0.0903 -0.47861,-0.19049 -0.73018,-0.29818 -0.33595,-0.14379 -0.66256,-0.2912 -0.90796,-0.41134 -0.1227,-0.0601 -0.22524,-0.1133 -0.29972,-0.1571 -0.008,-0.005 -0.0151,-0.009 -0.0227,-0.014 z" />
  </g>
</svg>
