<?xml version="1.0" encoding="UTF-8" standalone="no"?>
<!-- Created with Inkscape (http://www.inkscape.org/) -->

<svg
   width="7.2042117mm"
   height="6.3448486mm"
   viewBox="0 0 7.2042117 6.3448486"
   version="1.1"
   id="svg1"
   xmlns="http://www.w3.org/2000/svg"
   xmlns:svg="http://www.w3.org/2000/svg">
  <defs
     id="defs1">
    <linearGradient
       id="swatch4">
      <stop
         style="stop-color:#000000;stop-opacity:1;"
         offset="0"
         id="stop4" />
    </linearGradient>
  </defs>
  <g
     id="layer3"
     transform="translate(-278.01139,-158.56059)">
    <path
       id="path34-81-8-39-2-5-0-4"
       style="fill:#ffffff;fill-opacity:1;stroke:none;stroke-width:0.200326;stroke-dasharray:none;stroke-opacity:1"
       d="m 281.54605,158.5606 c -0.53449,0.28392 -3.53467,2.96694 -3.53467,3.18172 0,0.0765 0.38355,0.46819 0.89762,0.95085 z m 0.13384,0 2.6355,4.13463 c 0.5152,-0.48363 0.9002,-0.87635 0.9002,-0.95291 0,-0.2149 -3.00363,-2.90029 -3.5357,-3.18172 z m -0.0667,0.26614 -2.45928,3.85816 2.46341,1.11052 2.4505,-1.11569 z m 0.47697,1.85828 c 0.0109,0.0817 0.0553,0.13315 0.13281,0.154 0.0775,0.0208 0.15506,0.002 0.23254,-0.0574 -0.0984,0.19681 -0.1946,0.2973 -0.28835,0.3023 -0.0937,0.004 -0.1747,-0.0357 -0.24288,-0.11989 l -0.0801,0.0879 v 1.23559 l 0.32298,0.2005 0.0475,-0.0667 v -0.82166 c -0.0566,-0.0117 -0.10052,-0.0491 -0.13229,-0.11162 l -0.22582,0.31936 0.002,-0.11627 0.37878,-0.49299 c 0.0178,0.10174 0.0739,0.16312 0.16847,0.18397 0.0945,0.0208 0.17883,10e-4 0.25321,-0.0579 -0.0829,0.17013 -0.1566,0.26798 -0.22169,0.293 l -0.002,0.66766 -0.35657,0.47801 -0.4625,-0.31523 c -0.0511,-0.0334 -0.12148,-0.0343 -0.21136,-0.003 0.0876,-0.0717 0.15376,-0.10474 0.19947,-0.0997 v -1.01492 c -0.0442,-0.003 -0.10985,-0.0384 -0.1974,-0.10594 0.0798,0.0284 0.14497,0.0295 0.19534,0.004 z m -1.14205,0.0238 c 0.002,0.13094 0.0833,0.20135 0.24598,0.21136 l -0.11007,0.14676 -0.001,1.38338 0.1974,0.0863 c 0.0496,-0.0567 0.11088,-0.0834 0.18449,-0.0801 -0.0713,0.0367 -0.16697,0.1447 -0.28784,0.32401 l -0.27802,-0.1049 c -0.0356,0.055 -0.1171,0.0851 -0.24495,0.0909 0.0961,-0.0459 0.16332,-0.11131 0.20206,-0.19637 l 0.001,-1.49862 c -0.0411,-0.007 -0.0726,-0.0255 -0.0951,-0.0563 l -0.19431,0.0703 z m 0.25684,0.27647 v 1.34255 l -0.0651,0.0589 v -1.31 z m 0.8971,0.58704 0.0651,0.0584 v 0.75447 l -0.0651,0.0589 z m 2.01538,1.3069 -2.40451,1.09347 v 0.93276 c 0.36199,-0.21531 1.51742,-1.20608 2.40451,-2.02623 z m -4.99608,0.0103 c 0.88385,0.81645 2.02802,1.79843 2.39055,2.01538 v -0.93638 z" />
  </g>
</svg>
