<?xml version="1.0" encoding="UTF-8" standalone="no"?>
<!-- Created with Inkscape (http://www.inkscape.org/) -->

<svg
   width="6.1489787mm"
   height="6.1490755mm"
   viewBox="0 0 6.1489787 6.1490755"
   version="1.1"
   id="svg1"
   xmlns="http://www.w3.org/2000/svg"
   xmlns:svg="http://www.w3.org/2000/svg">
  <defs
     id="defs1">
    <linearGradient
       id="swatch4">
      <stop
         style="stop-color:#000000;stop-opacity:1;"
         offset="0"
         id="stop4" />
    </linearGradient>
  </defs>
  <g
     id="layer3"
     transform="translate(-216.73762,-166.25678)">
    <path
       id="path225-00-87-7"
       style="fill:#ffffff;fill-opacity:1;stroke:none;stroke-width:0.200527;stroke-dasharray:none;stroke-opacity:1"
       d="m 218.53853,166.25677 -0.015,0.015 0.0367,-0.015 z m 0.108,0 0.31678,0.7798 1.69705,-0.001 0.31058,-0.77877 z m 2.43448,0 0.008,0.003 -0.003,-0.003 z m 0.0765,0.0718 -0.31264,0.7891 1.18752,1.18804 0.77773,-0.32452 z m -2.69648,0.006 -1.64848,1.64848 0.78032,0.32142 1.18546,-1.18494 z m 0.48318,0.90175 -1.2268,1.22732 v 1.73529 l 1.2268,1.22783 1.73529,-0.001 1.2268,-1.2268 5.2e-4,-1.73529 -1.22732,-1.2268 z m -2.19108,0.80615 -0.0155,0.0155 v 0.0222 z m 6.13347,0.12558 -0.77928,0.32453 v 1.67276 l 0.77928,0.32918 z m -6.14898,0.001 v 2.32699 l 0.77928,-0.33486 v -1.6707 z m 3.30626,0.0661 c 0.0315,-0.002 0.0627,0.003 0.094,0.0134 -0.0463,-0.0131 -0.12013,0.0199 -0.22066,0.0977 0.0213,0.0481 0.0647,0.0925 0.13229,0.13281 0.0945,0.0559 0.20599,0.047 0.33383,-0.0264 l -0.13849,0.14883 v 0.30386 l -0.22066,0.22273 v -0.40773 c -0.0637,-0.0101 -0.12866,-0.038 -0.1943,-0.0837 v 0.57206 l 0.1049,0.0558 0.31006,-0.30747 -0.006,0.1173 -0.22996,0.23771 c 0.0728,0.0325 0.13516,0.0543 0.18707,0.0651 0.0527,0.0108 0.11501,-0.006 0.18707,-0.0491 l -0.13849,0.14935 v 0.37879 l -0.24392,0.23512 v -0.60771 l -0.17104,-0.0822 v 0.60979 l -0.0708,0.0589 v -0.7028 l -0.0811,-0.0393 -0.002,0.76223 0.25838,0.11266 0.31006,-0.308 -0.006,0.11783 -0.41393,0.41496 -0.39739,-0.19017 c -0.0387,-0.0167 -0.0946,-0.0171 -0.16743,-0.002 0.0705,-0.055 0.123,-0.0845 0.15709,-0.0879 v -0.65164 c -0.0395,0.0134 -0.0985,-0.0136 -0.17673,-0.0811 0.0697,0.0284 0.12766,0.0295 0.17415,0.004 l 0.16536,-0.14625 c -0.117,-0.006 -0.20414,0.002 -0.26148,0.0248 0.0705,-0.055 0.12223,-0.084 0.15555,-0.0873 v -0.47697 c -0.0387,0.0133 -0.0974,-0.0136 -0.1757,-0.0811 0.0697,0.0284 0.12817,0.0295 0.17466,0.004 l 0.32091,-0.27441 c 0.0834,-0.0923 0.16685,-0.14093 0.2496,-0.14572 z m -0.34416,0.28887 v 0.61546 l 0.0594,0.0315 v -0.59066 c -0.0198,-0.0174 -0.0395,-0.0358 -0.0594,-0.0563 z m -2.1146,1.82676 -0.76998,0.33176 1.65003,1.65003 0.31832,-0.78393 z m 4.45037,0.003 -1.20354,1.20354 0.33021,0.77205 1.64848,-1.64848 z m -5.29787,0.23254 v 0.0186 l 0.0139,0.0139 z m 2.23087,1.03973 -0.31677,0.7798 h 2.32647 l -0.33641,-0.77928 z m -0.44234,0.7674 0.0124,0.0124 h 0.0176 z" />
  </g>
</svg>
