<?xml version="1.0" encoding="UTF-8" standalone="no"?>
<!-- Created with Inkscape (http://www.inkscape.org/) -->

<svg
   width="7.2042117mm"
   height="6.3608594mm"
   viewBox="0 0 7.2042117 6.3608594"
   version="1.1"
   id="svg1"
   xmlns="http://www.w3.org/2000/svg"
   xmlns:svg="http://www.w3.org/2000/svg">
  <defs
     id="defs1">
    <linearGradient
       id="swatch4">
      <stop
         style="stop-color:#000000;stop-opacity:1;"
         offset="0"
         id="stop4" />
    </linearGradient>
  </defs>
  <g
     id="layer3"
     transform="translate(-231.87166,-135.35983)">
    <path
       id="path280-3-7-64-0"
       style="fill:#ffffff;fill-opacity:1;stroke:none;stroke-width:0.250658;stroke-dasharray:none;stroke-opacity:1"
       d="m 235.58771,135.35983 2.60707,4.08864 c 0.50569,-0.47548 0.88109,-0.85971 0.88109,-0.93534 0,-0.20955 -2.85254,-2.76497 -3.48816,-3.1533 z m -0.22893,5.2e-4 c -0.63719,0.38995 -3.48713,2.94332 -3.48713,3.15278 0,0.0756 0.37506,0.4595 0.88057,0.93482 z m 0.11472,0.2868 -2.52698,3.961 -0.0729,-0.0465 c 1.00836,0.93865 2.43676,2.15904 2.59985,2.15904 0.16424,0 1.61162,-1.23749 2.62102,-2.17867 l -0.0977,0.062 z m -0.51625,2.33733 c 0.004,0.0709 0.0584,0.13429 0.16382,0.19017 0.10615,0.0559 0.21812,0.047 0.3359,-0.0264 l -0.12661,0.14883 v 1.16737 l -0.22428,0.1974 v -0.66145 c 0.10073,-0.004 0.1509,-0.0508 0.1509,-0.14005 0,-0.0901 -0.0502,-0.13519 -0.1509,-0.13436 v -0.28473 c -0.12164,-0.0334 -0.22276,-0.10744 -0.30334,-0.22169 v 0.50539 c -0.10072,0.003 -0.15089,0.0489 -0.15089,0.13643 0,0.0867 0.0502,0.13245 0.15089,0.13746 v 0.7121 l 0.18345,0.12505 0.34417,-0.33279 -0.006,0.1173 -0.43822,0.44029 -0.31161,-0.19017 c -0.0356,-0.0167 -0.0868,-0.0171 -0.15348,-0.002 0.0643,-0.055 0.11241,-0.0845 0.14418,-0.0878 v -1.35237 c -0.0364,0.0133 -0.0907,-0.0136 -0.16278,-0.0811 0.0643,0.0283 0.1181,0.0295 0.16071,0.004 z m 1.08779,0 c 0.004,0.0709 0.0584,0.13429 0.16382,0.19017 0.10615,0.0559 0.21812,0.047 0.33589,-0.0264 l -0.1266,0.14883 v 1.16737 l -0.22428,0.1974 v -0.66145 c 0.10073,-0.004 0.15141,-0.0508 0.15141,-0.14005 0,-0.0901 -0.0507,-0.13519 -0.15141,-0.13436 v -0.28473 c -0.12164,-0.0334 -0.22276,-0.10744 -0.30334,-0.22169 v 0.50539 c -0.10073,0.003 -0.15089,0.0489 -0.15089,0.13643 0,0.0867 0.0502,0.13245 0.15089,0.13746 v 0.7121 l 0.18345,0.12505 0.34417,-0.33279 -0.006,0.1173 -0.43822,0.44029 -0.31161,-0.19017 c -0.0356,-0.0167 -0.0868,-0.0171 -0.15348,-0.002 0.0643,-0.055 0.11241,-0.0845 0.14418,-0.0878 v -1.35237 c -0.0364,0.0133 -0.0907,-0.0136 -0.16278,-0.0811 0.0643,0.0283 0.1181,0.0295 0.16071,0.004 z m -1.09502,0.53898 c 0.008,0 0.0167,0.002 0.0248,0.006 0.0163,0.008 0.0269,0.0211 0.0315,0.0377 0.005,0.0158 0.005,0.0319 0,0.0486 -0.005,0.0167 -0.0189,0.0294 -0.0398,0.0377 v 0.18758 h 0.10232 c 0.008,-0.0225 0.0196,-0.0365 0.0351,-0.0424 0.0155,-0.006 0.0302,-0.006 0.045,0 0.0155,0.005 0.0274,0.0161 0.0351,0.0336 0.008,0.0175 0.008,0.0361 0,0.0553 -0.007,0.0183 -0.0191,0.0301 -0.0362,0.0351 -0.0171,0.005 -0.0331,0.003 -0.0486,-0.004 -0.0155,-0.008 -0.0258,-0.0226 -0.0305,-0.046 h -0.1018 l 5.1e-4,0.64182 c 0.0209,0.008 0.0344,0.0205 0.0398,0.0372 0.005,0.0167 0.005,0.0335 0,0.0501 -0.005,0.0159 -0.0153,0.0278 -0.0315,0.0362 -0.0163,0.008 -0.0333,0.009 -0.0512,0.002 -0.017,-0.008 -0.0279,-0.022 -0.0326,-0.0403 -0.005,-0.0183 -0.003,-0.0355 0.004,-0.0522 0.007,-0.0167 0.0212,-0.0275 0.0429,-0.0325 l -5.1e-4,-0.64182 h -0.11108 c -0.005,0.0233 -0.0145,0.0385 -0.03,0.046 -0.0155,0.007 -0.032,0.009 -0.0491,0.004 -0.0171,-0.005 -0.0295,-0.0168 -0.0372,-0.0351 -0.007,-0.0192 -0.006,-0.0378 0.002,-0.0553 0.008,-0.0175 0.0189,-0.0286 0.0336,-0.0336 0.0155,-0.006 0.031,-0.006 0.0465,0 0.0155,0.006 0.0269,0.0199 0.0346,0.0424 h 0.11059 v -0.18758 c -0.0217,-0.005 -0.0359,-0.0159 -0.0429,-0.0326 -0.007,-0.0167 -0.008,-0.0344 -0.004,-0.0527 0.005,-0.0183 0.0155,-0.0312 0.0326,-0.0388 0.009,-0.004 0.0178,-0.006 0.0264,-0.006 z m 1.08779,0 c 0.008,0 0.0167,0.002 0.0248,0.006 0.0163,0.008 0.0269,0.0211 0.0315,0.0377 0.005,0.0158 0.005,0.0319 0,0.0486 -0.005,0.0167 -0.0189,0.0294 -0.0398,0.0377 v 0.18758 h 0.10232 c 0.008,-0.0225 0.0196,-0.0365 0.0351,-0.0424 0.0155,-0.006 0.0302,-0.006 0.045,0 0.0155,0.005 0.0274,0.0161 0.0351,0.0336 0.008,0.0175 0.008,0.0361 0,0.0553 -0.007,0.0183 -0.0191,0.0301 -0.0362,0.0351 -0.017,0.005 -0.0331,0.003 -0.0486,-0.004 -0.0155,-0.008 -0.0258,-0.0226 -0.0305,-0.046 h -0.1018 l 5.1e-4,0.64182 c 0.0209,0.008 0.0344,0.0205 0.0398,0.0372 0.005,0.0167 0.005,0.0335 0,0.0501 -0.005,0.0159 -0.0152,0.0278 -0.0315,0.0362 -0.0163,0.008 -0.0333,0.009 -0.0512,0.002 -0.0171,-0.008 -0.0279,-0.022 -0.0326,-0.0403 -0.005,-0.0183 -0.003,-0.0355 0.004,-0.0522 0.007,-0.0167 0.0212,-0.0275 0.0429,-0.0325 l -5.1e-4,-0.64182 h -0.11111 c -0.005,0.0233 -0.0145,0.0385 -0.03,0.046 -0.0155,0.007 -0.032,0.009 -0.0491,0.004 -0.0171,-0.005 -0.0295,-0.0168 -0.0372,-0.0351 -0.007,-0.0192 -0.006,-0.0378 0.002,-0.0553 0.008,-0.0175 0.0189,-0.0286 0.0336,-0.0336 0.0155,-0.006 0.031,-0.006 0.0465,0 0.0155,0.006 0.0269,0.0199 0.0346,0.0424 h 0.11059 v -0.18758 c -0.0217,-0.005 -0.0359,-0.0159 -0.0429,-0.0326 -0.007,-0.0167 -0.008,-0.0344 -0.004,-0.0527 0.005,-0.0183 0.0155,-0.0312 0.0326,-0.0388 0.009,-0.004 0.0178,-0.006 0.0263,-0.006 z" />
  </g>
</svg>
