<?xml version="1.0" encoding="UTF-8" standalone="no"?>
<!-- Created with Inkscape (http://www.inkscape.org/) -->

<svg
   width="6.2030292mm"
   height="6.4537239mm"
   viewBox="0 0 6.2030292 6.4537239"
   version="1.1"
   id="svg1"
   xmlns="http://www.w3.org/2000/svg"
   xmlns:svg="http://www.w3.org/2000/svg">
  <defs
     id="defs1">
    <linearGradient
       id="swatch4">
      <stop
         style="stop-color:#000000;stop-opacity:1;"
         offset="0"
         id="stop4" />
    </linearGradient>
  </defs>
  <g
     id="layer3"
     transform="translate(-201.32673,-142.69125)">
    <path
       id="path43-16-5-7"
       style="fill:#ffffff;fill-opacity:1;stroke:none;stroke-width:0.194062;stroke-dasharray:none;stroke-opacity:1"
       d="m 204.51664,142.69129 v 1.24592 c 0.0203,0.0104 0.0416,0.0223 0.0677,0.0377 0.0609,0.036 0.1392,0.086 0.22945,0.14624 0.1805,0.12049 0.40927,0.28152 0.63562,0.44597 0.22634,0.16445 0.44974,0.33221 0.62012,0.46664 0.0852,0.0672 0.1578,0.12583 0.21084,0.1726 0.0225,0.0199 0.0395,0.0367 0.0553,0.0527 l 1.12913,-0.42116 c -0.18567,-0.29451 -1.06034,-1.49539 -1.13379,-1.54875 -0.0726,-0.0527 -1.45547,-0.50444 -1.81435,-0.59789 z m -0.19378,0.004 c -0.39447,0.1067 -1.72584,0.54273 -1.79679,0.59428 -0.0713,0.0518 -0.9037,1.19232 -1.12241,1.52859 l 1.12034,0.43873 c 0.0155,-0.0154 0.0318,-0.0313 0.0532,-0.0501 0.053,-0.0468 0.12462,-0.10538 0.20981,-0.1726 0.17038,-0.13443 0.39377,-0.30219 0.62012,-0.46664 0.22634,-0.16445 0.45511,-0.32547 0.63562,-0.44597 0.0902,-0.0602 0.16857,-0.11026 0.22944,-0.14624 0.0195,-0.0115 0.0345,-0.0191 0.0506,-0.0279 z m 0.10593,1.38906 c -0.001,4.4e-4 -0.001,5.4e-4 -0.003,0.001 -0.0154,0.007 -0.0391,0.0206 -0.0672,0.0372 -0.0561,0.0331 -0.13242,0.0818 -0.22117,0.14108 -0.17751,0.1185 -0.405,0.27893 -0.62994,0.44235 -0.22493,0.16343 -0.4474,0.33029 -0.61495,0.4625 -0.0838,0.0661 -0.15371,0.12331 -0.20257,0.1664 -0.0244,0.0215 -0.0439,0.0393 -0.0558,0.0517 -7.6e-4,9.2e-4 -8e-4,0.001 -0.001,0.002 8e-5,0.001 -2.1e-4,0.002 0,0.004 0.002,0.017 0.007,0.0426 0.0139,0.0744 0.0142,0.0636 0.0372,0.15103 0.0661,0.25374 0.0578,0.20544 0.14043,0.47144 0.22635,0.73587 0.0859,0.26442 0.17562,0.52789 0.24959,0.72812 0.037,0.10009 0.0697,0.18465 0.0956,0.24443 0.0129,0.0299 0.0245,0.0536 0.0326,0.0687 5.3e-4,9.1e-4 9.2e-4,4.6e-4 0.002,0.002 0.001,3.6e-4 0.002,0.001 0.003,0.001 0.0169,0.003 0.043,0.007 0.0754,0.0103 0.0649,0.006 0.15486,0.0113 0.26149,0.0155 0.21325,0.008 0.49143,0.0124 0.76946,0.0124 0.27803,0 0.5562,-0.004 0.76946,-0.0124 0.10663,-0.004 0.19767,-0.009 0.26252,-0.0155 0.0324,-0.003 0.0586,-0.007 0.0754,-0.0103 10e-4,-2.1e-4 10e-4,-0.001 0.003,-0.001 5.9e-4,-9.1e-4 9.5e-4,-4.6e-4 0.002,-0.002 0.008,-0.0151 0.0191,-0.0389 0.032,-0.0687 0.0259,-0.0598 0.0586,-0.14434 0.0956,-0.24443 0.074,-0.20021 0.16471,-0.4637 0.25063,-0.72812 0.0859,-0.26443 0.16746,-0.53043 0.22531,-0.73587 0.0289,-0.10271 0.052,-0.19016 0.0661,-0.25374 0.007,-0.0318 0.0116,-0.0574 0.014,-0.0744 2.1e-4,-0.001 -8e-5,-0.002 0,-0.004 -6.9e-4,-9.2e-4 -7.3e-4,-10e-4 -0.002,-0.002 -0.0119,-0.0124 -0.0303,-0.0301 -0.0548,-0.0517 -0.0488,-0.0431 -0.11983,-0.1003 -0.20361,-0.1664 -0.16757,-0.13221 -0.39002,-0.29907 -0.61495,-0.4625 -0.22493,-0.16342 -0.45243,-0.32385 -0.62993,-0.44235 -0.0888,-0.0592 -0.1651,-0.10793 -0.22118,-0.14108 -0.028,-0.0166 -0.0507,-0.0297 -0.0661,-0.0372 -0.001,-5e-4 -0.001,-6.4e-4 -0.003,-0.001 z m -3.04064,0.75965 c -0.0162,0.026 -0.0356,0.056 -0.0382,0.0641 -0.002,0.005 -0.003,0.0312 -0.004,0.0444 z m 3.09904,0.0351 c 0.0109,0.0817 0.0548,0.13314 0.13229,0.15399 0.0775,0.0209 0.15506,0.002 0.23254,-0.0574 -0.0984,0.19682 -0.1946,0.2973 -0.28835,0.30231 -0.0937,0.004 -0.1747,-0.0357 -0.24288,-0.11989 l -0.0801,0.0873 v 1.2361 l 0.32298,0.20051 0.0475,-0.0667 v -0.82165 c -0.0566,-0.0117 -0.10053,-0.0491 -0.13229,-0.11162 l -0.22531,0.31936 0.001,-0.11679 0.37879,-0.49248 c 0.0178,0.10175 0.0739,0.16312 0.16846,0.18397 0.0945,0.0208 0.17935,0.001 0.25373,-0.0579 -0.0829,0.17014 -0.15712,0.26799 -0.22221,0.29301 l -0.001,0.66766 -0.35708,0.47801 -0.46251,-0.31523 c -0.0511,-0.0334 -0.12147,-0.0343 -0.21135,-0.003 0.0875,-0.0717 0.15427,-0.10474 0.19999,-0.0997 v -1.01492 c -0.0442,-0.003 -0.11037,-0.0384 -0.19793,-0.10594 0.0798,0.0283 0.14498,0.0295 0.19534,0.004 z m -3.14606,0.12144 c -0.0218,0.37473 -0.0189,1.82281 0.009,1.90789 0.0274,0.0844 0.8655,1.24236 1.11104,1.54409 l 0.6997,-0.88677 c -0.0104,-0.0199 -0.0211,-0.0411 -0.0331,-0.0687 -0.0281,-0.0649 -0.0611,-0.15194 -0.0987,-0.25373 -0.0752,-0.20358 -0.16573,-0.46824 -0.25218,-0.73432 -0.0865,-0.26609 -0.16907,-0.53316 -0.22789,-0.74207 -0.0294,-0.10445 -0.0528,-0.19403 -0.0682,-0.26304 -0.005,-0.0239 -0.008,-0.0423 -0.0119,-0.0615 z m 6.17585,0.0248 -1.13017,0.42168 c -0.003,0.0181 -0.006,0.0348 -0.0109,0.0568 -0.0154,0.069 -0.0388,0.15859 -0.0682,0.26304 -0.0588,0.2089 -0.1404,0.47599 -0.22685,0.74207 -0.0865,0.26609 -0.17698,0.53075 -0.25219,0.73432 -0.0376,0.1018 -0.0716,0.18884 -0.0997,0.25373 -0.0135,0.0312 -0.0257,0.0559 -0.0372,0.0775 l 0.70021,0.88263 c 0.23774,-0.29016 1.08701,-1.46364 1.11466,-1.54874 0.0269,-0.0828 0.0303,-1.46419 0.0103,-1.88309 z m -3.01842,0.74052 0.0651,0.0589 v 0.75447 l -0.0651,0.0589 z m -1.17461,1.90738 -0.70538,0.89349 c 0.36682,0.14135 1.72116,0.57826 1.80971,0.57826 0.0878,0 1.4249,-0.43078 1.80454,-0.57568 l -0.70952,-0.89504 c -0.0157,0.002 -0.0289,0.004 -0.0475,0.006 -0.0704,0.007 -0.16236,0.0122 -0.27078,0.0165 -0.21686,0.009 -0.49692,0.0134 -0.7767,0.0134 -0.27978,0 -0.55881,-0.005 -0.77566,-0.0134 -0.10843,-0.004 -0.20142,-0.01 -0.27182,-0.0165 -0.0224,-0.002 -0.0388,-0.005 -0.0568,-0.007 z m 3.01481,0.84491 -0.015,0.0119 c 0.001,-4.6e-4 0.006,-0.003 0.007,-0.003 0.001,-9.1e-4 0.006,-0.008 0.008,-0.009 z" />
  </g>
</svg>
