<?xml version="1.0" encoding="UTF-8" standalone="no"?>
<!-- Created with Inkscape (http://www.inkscape.org/) -->

<svg
   width="7.2041955mm"
   height="6.3448324mm"
   viewBox="0 0 7.2041955 6.3448324"
   version="1.1"
   id="svg1"
   xmlns="http://www.w3.org/2000/svg"
   xmlns:svg="http://www.w3.org/2000/svg">
  <defs
     id="defs1">
    <linearGradient
       id="swatch4">
      <stop
         style="stop-color:#000000;stop-opacity:1;"
         offset="0"
         id="stop4" />
    </linearGradient>
  </defs>
  <g
     id="layer3"
     transform="translate(-200.82644,-158.54665)">
    <path
       id="path34-81-8-39-2-32"
       style="fill:#ffffff;fill-opacity:1;stroke:none;stroke-width:0.200326;stroke-dasharray:none;stroke-opacity:1"
       d="m 204.3611,158.54665 c -0.53449,0.28392 -3.53467,2.96694 -3.53467,3.18172 0,0.0765 0.38354,0.46818 0.89762,0.95084 z m 0.13384,0 2.6355,4.13463 c 0.5152,-0.48363 0.9002,-0.87635 0.9002,-0.95291 0,-0.2149 -3.00363,-2.90029 -3.5357,-3.18172 z m -0.0667,0.26613 -2.45928,3.85817 2.46341,1.11052 2.4505,-1.11569 z m 0.0589,1.86707 c 0.0109,0.0817 0.0548,0.13315 0.13229,0.154 0.0775,0.0209 0.15507,0.002 0.23255,-0.0574 -0.0984,0.19682 -0.19461,0.29782 -0.28836,0.30282 -0.0937,0.004 -0.17469,-0.0362 -0.24288,-0.1204 l -0.0801,0.0879 v 1.2361 l 0.32298,0.19998 0.0475,-0.0661 v -0.82217 c -0.0566,-0.0117 -0.10052,-0.0486 -0.13229,-0.11111 l -0.22531,0.31884 0.001,-0.11627 0.37879,-0.49299 c 0.0178,0.10175 0.0739,0.16312 0.16846,0.18397 0.0945,0.0208 0.17935,0.002 0.25373,-0.0574 -0.0829,0.17013 -0.15712,0.26747 -0.22221,0.29249 l -0.001,0.66817 -0.35708,0.47749 -0.4625,-0.31522 c -0.0511,-0.0334 -0.12148,-0.0338 -0.21136,-0.002 0.0875,-0.0717 0.15427,-0.10526 0.19999,-0.10025 v -1.01441 c -0.0442,-0.003 -0.11037,-0.0389 -0.19792,-0.10646 0.0798,0.0284 0.14497,0.0295 0.19533,0.004 z m 0.0114,0.88729 0.0651,0.0589 V 162.38 l -0.0651,0.0589 z m 2.43396,1.29811 -2.4045,1.09347 v 0.93276 c 0.36198,-0.21531 1.5174,-1.20608 2.4045,-2.02623 z m -4.99608,0.0103 c 0.88386,0.81645 2.02802,1.79843 2.39055,2.01538 v -0.93637 z" />
  </g>
</svg>
