<?xml version="1.0" encoding="UTF-8" standalone="no"?>
<!-- Created with Inkscape (http://www.inkscape.org/) -->

<svg
   width="6.2030449mm"
   height="6.4537401mm"
   viewBox="0 0 6.2030449 6.4537401"
   version="1.1"
   id="svg1"
   xmlns="http://www.w3.org/2000/svg"
   xmlns:svg="http://www.w3.org/2000/svg">
  <defs
     id="defs1">
    <linearGradient
       id="swatch4">
      <stop
         style="stop-color:#000000;stop-opacity:1;"
         offset="0"
         id="stop4" />
    </linearGradient>
  </defs>
  <g
     id="layer3"
     transform="translate(-216.7103,-142.68401)">
    <path
       id="path43-16-9-2"
       style="fill:#ffffff;fill-opacity:1;stroke:none;stroke-width:0.194062;stroke-dasharray:none;stroke-opacity:1"
       d="m 219.9002,142.68405 v 1.24592 c 0.0203,0.0104 0.0416,0.0223 0.0677,0.0377 0.0609,0.036 0.13919,0.086 0.22945,0.14625 0.1805,0.1205 0.40927,0.28152 0.63562,0.44597 0.22634,0.16445 0.44974,0.33219 0.62011,0.46663 0.0852,0.0672 0.15781,0.12582 0.21084,0.1726 0.0225,0.0199 0.0395,0.0367 0.0553,0.0527 l 1.12913,-0.42116 c -0.18566,-0.29451 -1.06033,-1.49538 -1.13378,-1.54874 -0.0726,-0.0527 -1.45547,-0.50444 -1.81436,-0.5979 z m -0.19379,0.004 c -0.39446,0.1067 -1.72583,0.54273 -1.79678,0.59428 -0.0713,0.0518 -0.90371,1.19231 -1.12242,1.52859 l 1.12035,0.43873 c 0.0155,-0.0154 0.0318,-0.0313 0.0532,-0.0501 0.053,-0.0468 0.12462,-0.10538 0.2098,-0.1726 0.17038,-0.13443 0.39378,-0.30219 0.62012,-0.46663 0.22635,-0.16445 0.45512,-0.32548 0.63562,-0.44597 0.0902,-0.0602 0.16857,-0.11026 0.22945,-0.14625 0.0195,-0.0115 0.0345,-0.0191 0.0506,-0.0279 z m 0.10594,1.38906 c -0.001,4.4e-4 -0.001,5.4e-4 -0.003,0.001 -0.0154,0.007 -0.0391,0.0206 -0.0672,0.0372 -0.0561,0.0332 -0.13242,0.0818 -0.22117,0.14108 -0.17751,0.11849 -0.40501,0.27892 -0.62994,0.44235 -0.22493,0.16342 -0.4474,0.3303 -0.61495,0.4625 -0.0838,0.0661 -0.15372,0.12331 -0.20257,0.1664 -0.0244,0.0215 -0.0439,0.0393 -0.0558,0.0517 -7.6e-4,9.1e-4 -8e-4,10e-4 -0.002,0.002 7e-5,0.001 -2.2e-4,0.002 0,0.004 0.002,0.017 0.007,0.0426 0.0139,0.0744 0.0142,0.0636 0.0372,0.15101 0.0661,0.25373 0.0578,0.20544 0.14042,0.47146 0.22634,0.73588 0.0859,0.26443 0.17563,0.5279 0.2496,0.72812 0.037,0.1001 0.0697,0.18465 0.0956,0.24443 0.0129,0.0299 0.0245,0.0536 0.0326,0.0687 5.2e-4,9.1e-4 9.2e-4,9.7e-4 0.002,0.002 10e-4,3.7e-4 0.002,5.2e-4 0.003,5.2e-4 0.0169,0.003 0.043,0.007 0.0755,0.0103 0.0649,0.006 0.15485,0.0113 0.26148,0.0155 0.21326,0.008 0.49143,0.0124 0.76946,0.0124 0.27804,0 0.55621,-0.004 0.76947,-0.0124 0.10662,-0.004 0.19766,-0.009 0.26251,-0.0155 0.0324,-0.003 0.0586,-0.007 0.0754,-0.0103 0.001,-2.1e-4 0.001,-5.2e-4 0.003,-5.2e-4 6e-4,-9.1e-4 0.002,-9.7e-4 0.002,-0.002 0.008,-0.0151 0.0191,-0.0389 0.032,-0.0687 0.0259,-0.0598 0.0586,-0.14433 0.0956,-0.24443 0.074,-0.2002 0.16472,-0.46369 0.25063,-0.72812 0.0859,-0.26442 0.16747,-0.53044 0.22531,-0.73588 0.0289,-0.10272 0.052,-0.19016 0.0661,-0.25373 0.007,-0.0318 0.0116,-0.0574 0.014,-0.0744 2.2e-4,-0.001 -7e-5,-0.002 0,-0.004 -6.8e-4,-9.1e-4 -10e-4,-0.001 -0.002,-0.002 -0.0119,-0.0124 -0.0303,-0.0301 -0.0548,-0.0517 -0.0489,-0.0431 -0.11983,-0.1003 -0.2036,-0.1664 -0.16757,-0.13221 -0.39002,-0.29908 -0.61495,-0.4625 -0.22493,-0.16342 -0.45243,-0.32385 -0.62994,-0.44235 -0.0888,-0.0592 -0.1651,-0.10793 -0.22117,-0.14108 -0.028,-0.0166 -0.0507,-0.0297 -0.0662,-0.0372 -0.001,-5e-4 -0.001,-6.3e-4 -0.003,-0.001 z m 0.25477,0.73742 c 0.0236,0.001 0.0473,0.006 0.0708,0.014 -0.0464,-0.0131 -0.12045,0.0197 -0.22118,0.0977 0.0213,0.0481 0.0652,0.092 0.13281,0.13229 0.0945,0.0559 0.20598,0.047 0.33383,-0.0264 l -0.13849,0.14935 v 0.30385 l -0.22066,0.22273 v -0.40773 c -0.0637,-0.0101 -0.12867,-0.0385 -0.19431,-0.0842 v 0.57257 l 0.10491,0.0558 0.31006,-0.308 -0.006,0.11783 -0.22996,0.23771 c 0.0728,0.0325 0.13515,0.0538 0.18707,0.0646 0.0527,0.0109 0.11501,-0.005 0.18706,-0.0486 l -0.13849,0.14883 v 0.3793 l -0.24391,0.23513 v -0.60823 l -0.17105,-0.0822 v 0.6103 l -0.0708,0.0589 v -0.70332 l -0.0811,-0.0388 -0.002,0.76171 0.25838,0.11265 0.31006,-0.30747 -0.006,0.1173 -0.41393,0.41548 -0.39739,-0.19017 c -0.0387,-0.0167 -0.0946,-0.0176 -0.16743,-0.003 0.0705,-0.055 0.123,-0.084 0.1571,-0.0873 v -0.65216 c -0.0395,0.0133 -0.0985,-0.0136 -0.17674,-0.0811 0.0697,0.0283 0.12766,0.0295 0.17415,0.004 l 0.16537,-0.14624 c -0.117,-0.006 -0.20415,0.003 -0.26149,0.0253 0.0705,-0.055 0.12223,-0.0845 0.15555,-0.0879 v -0.47645 c -0.0387,0.0133 -0.0974,-0.0141 -0.1757,-0.0816 0.0697,0.0283 0.12818,0.03 0.17467,0.004 l 0.32246,-0.27595 c 0.0908,-0.10001 0.18124,-0.14854 0.2713,-0.1447 z m -3.29541,0.0222 c -0.0162,0.026 -0.0356,0.056 -0.0382,0.0641 -0.002,0.005 -0.003,0.0311 -0.004,0.0444 z m -0.047,0.15657 c -0.0218,0.37474 -0.0189,1.82281 0.009,1.9079 0.0274,0.0844 0.86551,1.24236 1.11105,1.54409 l 0.69969,-0.88677 c -0.0104,-0.0199 -0.0211,-0.0411 -0.0331,-0.0687 -0.0281,-0.0649 -0.0611,-0.15193 -0.0987,-0.25373 -0.0752,-0.20358 -0.16572,-0.46823 -0.25218,-0.73432 -0.0865,-0.26608 -0.16907,-0.53317 -0.22789,-0.74207 -0.0294,-0.10445 -0.0528,-0.19402 -0.0682,-0.26304 -0.005,-0.0239 -0.008,-0.0423 -0.0119,-0.0615 z m 6.17585,0.0248 -1.13016,0.42168 c -0.003,0.0181 -0.006,0.0348 -0.0109,0.0568 -0.0154,0.069 -0.0388,0.1586 -0.0682,0.26304 -0.0588,0.2089 -0.14041,0.47598 -0.22686,0.74207 -0.0865,0.26608 -0.17698,0.53074 -0.25218,0.73432 -0.0376,0.10179 -0.0716,0.18885 -0.0997,0.25373 -0.0135,0.0312 -0.0257,0.0559 -0.0372,0.0775 l 0.70021,0.88263 c 0.23774,-0.29016 1.08701,-1.46364 1.11466,-1.54874 0.0269,-0.0828 0.0303,-1.4642 0.0103,-1.88309 z m -3.20084,0.0853 v 0.61598 l 0.0594,0.0315 v -0.59066 c -0.0198,-0.0174 -0.0395,-0.0363 -0.0594,-0.0568 z m -0.99218,2.56263 -0.70539,0.89349 c 0.36682,0.14135 1.72116,0.57825 1.80971,0.57825 0.0878,0 1.4249,-0.43077 1.80454,-0.57567 l -0.70951,-0.89504 c -0.0157,0.002 -0.0289,0.004 -0.0475,0.006 -0.0704,0.007 -0.16236,0.0122 -0.27079,0.0165 -0.21686,0.009 -0.49692,0.0134 -0.7767,0.0134 -0.27977,0 -0.5588,-0.005 -0.77566,-0.0134 -0.10843,-0.004 -0.20142,-0.01 -0.27182,-0.0165 -0.0224,-0.002 -0.0388,-0.005 -0.0568,-0.007 z m 3.0148,0.84491 -0.015,0.0119 c 0.001,-4.5e-4 0.007,-0.003 0.007,-0.003 0.001,-9.2e-4 0.006,-0.008 0.008,-0.009 z" />
  </g>
</svg>
