<?xml version="1.0" encoding="UTF-8" standalone="no"?>
<!-- Created with Inkscape (http://www.inkscape.org/) -->

<svg
   width="7.2042117mm"
   height="6.3609805mm"
   viewBox="0 0 7.2042117 6.3609805"
   version="1.1"
   id="svg1"
   xmlns="http://www.w3.org/2000/svg"
   xmlns:svg="http://www.w3.org/2000/svg">
  <defs
     id="defs1">
    <linearGradient
       id="swatch4">
      <stop
         style="stop-color:#000000;stop-opacity:1;"
         offset="0"
         id="stop4" />
    </linearGradient>
  </defs>
  <g
     id="layer3"
     transform="translate(-208.42802,-128.27602)">
    <path
       id="path34-39-24-0"
       style="fill:#ffffff;fill-opacity:1;stroke:none;stroke-width:0.250658;stroke-dasharray:none;stroke-opacity:1"
       d="m 214.75114,132.36467 c 0.50568,-0.47548 0.88108,-0.85971 0.88108,-0.93534 0,-0.20955 -2.85253,-2.76497 -3.48816,-3.1533 z" />
    <path
       id="path257-91-7"
       style="fill:#ffffff;fill-opacity:1;stroke:none;stroke-width:0.250658;stroke-dasharray:none;stroke-opacity:1"
       d="m 212.02988,128.56347 -2.52698,3.961 -0.0729,-0.0465 c 1.00837,0.93865 2.43676,2.15904 2.59985,2.15904 0.16424,0 1.61163,-1.2375 2.62102,-2.17868 l -0.0971,0.062 z m 0.51522,2.38125 c -0.16581,0.23515 -0.33003,0.36491 -0.49196,0.38912 -0.16117,0.0234 -0.28736,-0.0126 -0.37879,-0.10852 l -0.17415,0.0785 0.27647,-0.3514 c 0.055,0.08 0.15405,0.12556 0.29662,0.13642 0.14257,0.01 0.2998,-0.0383 0.47181,-0.14417 z m -0.015,0.0403 c -0.12778,0.29082 -0.22956,0.61585 -0.3054,0.97462 0.10666,0.003 0.22326,-0.0244 0.35036,-0.0816 -0.12736,0.13294 -0.25291,0.20466 -0.37723,0.21498 -0.0362,0.19111 -0.0652,0.39146 -0.0873,0.60099 l 0.1974,0.0863 c 0.0496,-0.0568 0.11139,-0.0836 0.185,-0.0801 -0.0713,0.0367 -0.16748,0.14471 -0.28835,0.32402 l -0.30128,-0.10542 c -0.10847,0.0993 -0.24424,0.12985 -0.40772,0.0915 0.16736,0.004 0.2889,-0.0613 0.36483,-0.19637 0.0616,-0.27606 0.12202,-0.51912 0.18087,-0.7307 -0.055,-0.0124 -0.10207,-0.0343 -0.14108,-0.0672 l -0.13384,0.046 0.21394,-0.20877 c 0.0238,0.0366 0.0584,0.0633 0.10335,0.0811 0.12179,-0.41017 0.23738,-0.67897 0.34727,-0.80667 z m -0.52554,1.16686 -0.18707,0.65836 c -0.0953,-0.0517 -0.20599,-0.0178 -0.33228,0.10232 0.0682,-0.15683 0.17136,-0.2313 0.31006,-0.22376 l 0.0501,-0.14521 c -0.0744,-0.035 -0.16335,-0.0164 -0.26717,0.0553 0.0527,-0.10255 0.15432,-0.15803 0.30541,-0.1664 l 0.0734,-0.23048 z" />
    <path
       id="path256-5-2"
       style="fill:#ffffff;fill-opacity:1;stroke:none;stroke-width:0.250658;stroke-dasharray:none;stroke-opacity:1"
       d="m 211.91513,128.27655 c -0.63718,0.38995 -3.48712,2.94332 -3.48712,3.15278 0,0.0756 0.37505,0.4595 0.88057,0.93482 z" />
  </g>
</svg>
