<?xml version="1.0" encoding="UTF-8" standalone="no"?>
<!-- Created with Inkscape (http://www.inkscape.org/) -->

<svg
   width="6.2024484mm"
   height="6.2023177mm"
   viewBox="0 0 6.2024484 6.2023177"
   version="1.1"
   id="svg1"
   xmlns="http://www.w3.org/2000/svg"
   xmlns:svg="http://www.w3.org/2000/svg">
  <defs
     id="defs1">
    <linearGradient
       id="swatch4">
      <stop
         style="stop-color:#000000;stop-opacity:1;"
         offset="0"
         id="stop4" />
    </linearGradient>
  </defs>
  <g
     id="layer3"
     transform="translate(-185.68305,-113.37317)">
    <path
       id="path198-2"
       style="display:inline;fill:#ffffff;fill-opacity:1;stroke:none;stroke-width:0.200526;stroke-dasharray:none;stroke-opacity:1"
       d="m 188.78427,113.37318 c -1.42045,0 -2.84092,0.0519 -2.94504,0.15606 -0.20824,0.20824 -0.20824,5.68183 0,5.89008 0.20824,0.20824 5.68184,0.20824 5.89008,0 0.20824,-0.20825 0.20824,-5.68184 0,-5.89008 -0.10412,-0.10412 -1.52459,-0.15606 -2.94504,-0.15606 z m 0.0574,2.06189 c 0.0202,0.10174 0.0822,0.16311 0.18604,0.18396 0.1046,0.0208 0.19718,0.002 0.27853,-0.0574 -0.0914,0.17014 -0.20056,0.25752 -0.32763,0.26252 -0.12629,0.005 -0.22818,-0.0278 -0.30644,-0.0987 l -0.13746,0.0625 z m 0.23565,0.40049 v 1.06453 l 0.22117,0.002 v 0.0811 l -0.22117,-0.003 v 0.1602 l 0.092,0.0713 c 0.0349,-0.055 0.0943,-0.0816 0.1788,-0.0791 -0.0581,0.0292 -0.14836,0.156 -0.27078,0.38034 l -0.19638,-0.14626 c -0.0744,0.0742 -0.17265,0.12158 -0.29507,0.1416 0.1015,-0.0642 0.17753,-0.14551 0.2279,-0.24392 v -0.26303 h -0.55656 v -0.0951 l 0.55656,0.002 v -1.06453 c 0.0883,0.0317 0.17599,0.0289 0.26355,-0.008 z m -0.27854,0.0124 c -0.10693,0.04 -0.21088,0.34598 -0.31161,0.91725 -0.14334,0.12927 -0.29618,0.16392 -0.45889,0.10387 0.11855,0.0275 0.24811,-0.13688 0.38913,-0.49299 0.14101,-0.35611 0.26825,-0.5323 0.38137,-0.52813 z" />
  </g>
</svg>
