<?xml version="1.0" encoding="UTF-8" standalone="no"?>
<!-- Created with Inkscape (http://www.inkscape.org/) -->

<svg
   width="7.2042279mm"
   height="6.3609805mm"
   viewBox="0 0 7.2042279 6.3609805"
   version="1.1"
   id="svg1"
   xmlns="http://www.w3.org/2000/svg"
   xmlns:svg="http://www.w3.org/2000/svg">
  <defs
     id="defs1">
    <linearGradient
       id="swatch4">
      <stop
         style="stop-color:#000000;stop-opacity:1;"
         offset="0"
         id="stop4" />
    </linearGradient>
  </defs>
  <g
     id="layer3"
     transform="translate(-216.20991,-128.27602)">
    <path
       id="path34-39-22-2"
       style="fill:#ffffff;fill-opacity:1;stroke:none;stroke-width:0.250658;stroke-dasharray:none;stroke-opacity:1"
       d="m 222.53303,132.36467 c 0.50569,-0.47548 0.88109,-0.85971 0.88109,-0.93534 0,-0.20955 -2.85253,-2.76497 -3.48816,-3.1533 z" />
    <path
       id="path257-0-59"
       style="fill:#ffffff;fill-opacity:1;stroke:none;stroke-width:0.250658;stroke-dasharray:none;stroke-opacity:1"
       d="m 219.75912,131.23359 c -0.0197,-0.0174 -0.0395,-0.0358 -0.0594,-0.0563 v 0.61547 l 0.0594,0.0315 z" />
    <path
       id="path816-0"
       style="fill:#ffffff;fill-opacity:1;stroke:none;stroke-width:0.250658;stroke-dasharray:none;stroke-opacity:1"
       d="m 219.81183,128.56347 -2.52697,3.961 -0.0729,-0.0465 c 1.00837,0.93865 2.43675,2.15904 2.59984,2.15904 0.16424,0 1.61163,-1.2375 2.62103,-2.17868 l -0.0971,0.062 z m 0.23203,2.32595 c 0.0315,-0.002 0.0627,0.003 0.094,0.0134 -0.0463,-0.0131 -0.12013,0.0199 -0.22066,0.0977 0.0215,0.0477 0.0652,0.0918 0.1323,0.13177 0.0945,0.0559 0.20598,0.047 0.33383,-0.0263 l -0.1385,0.14883 v 0.30437 l -0.22066,0.22221 v -0.40773 c -0.0637,-0.0101 -0.12866,-0.038 -0.1943,-0.0837 v 0.57205 l 0.10439,0.0558 0.31057,-0.30747 -0.006,0.1173 -0.23047,0.23772 c 0.0728,0.0325 0.13567,0.0542 0.18758,0.0651 0.0527,0.0109 0.11501,-0.005 0.18707,-0.0486 l -0.13849,0.14883 v 0.37879 l -0.24391,0.23564 v -0.60823 l -0.17105,-0.0822 v 0.61081 l -0.0708,0.0589 v -0.70383 l -0.0811,-0.0388 -0.002,0.76171 0.25838,0.11266 0.31006,-0.30799 -0.006,0.11782 -0.41393,0.41548 -0.39739,-0.19017 c -0.0387,-0.0164 -0.0946,-0.0171 -0.16743,-0.002 0.0705,-0.0549 0.123,-0.0844 0.15709,-0.0879 v -0.65164 c -0.0395,0.0134 -0.0985,-0.0136 -0.17673,-0.0811 0.0697,0.0286 0.12766,0.03 0.17415,0.004 l 0.16536,-0.14779 c -0.11699,-0.006 -0.20414,0.002 -0.26148,0.0248 0.0705,-0.0549 0.12223,-0.0839 0.15555,-0.0873 v -0.47646 c -0.0387,0.0134 -0.0974,-0.0141 -0.1757,-0.0816 0.0697,0.0286 0.12817,0.03 0.17466,0.004 l 0.32505,-0.2775 c 0.0821,-0.0895 0.16401,-0.13688 0.24546,-0.1416 z" />
    <path
       id="path256-1-85"
       style="fill:#ffffff;fill-opacity:1;stroke:none;stroke-width:0.250658;stroke-dasharray:none;stroke-opacity:1"
       d="m 219.69703,128.27655 c -0.63719,0.38995 -3.48713,2.94332 -3.48713,3.15278 0,0.0756 0.37506,0.4595 0.88057,0.93482 z" />
  </g>
</svg>
