<?xml version="1.0" encoding="UTF-8" standalone="no"?>
<!-- Created with Inkscape (http://www.inkscape.org/) -->

<svg
   width="5.7147355mm"
   height="6.4037433mm"
   viewBox="0 0 5.7147355 6.4037433"
   version="1.1"
   id="svg1"
   xmlns="http://www.w3.org/2000/svg"
   xmlns:svg="http://www.w3.org/2000/svg">
  <defs
     id="defs1">
    <linearGradient
       id="swatch4">
      <stop
         style="stop-color:#000000;stop-opacity:1;"
         offset="0"
         id="stop4" />
    </linearGradient>
  </defs>
  <g
     id="layer3"
     transform="translate(-309.90989,-173.78191)">
    <path
       id="path63-83-57-5"
       style="fill:#ffffff;fill-opacity:1;stroke:none;stroke-width:0.174705;stroke-dasharray:none;stroke-opacity:1"
       d="m 312.76746,173.7819 c -0.13939,0 -2.05539,1.09603 -2.63085,1.48673 0.0437,-0.01 0.0919,-0.0196 0.14986,-0.0279 0.16072,-0.0229 0.37714,-0.0409 0.63304,-0.0558 0.5118,-0.0298 1.17975,-0.0439 1.84795,-0.0439 0.6682,0 1.33666,0.0141 1.84847,0.0439 0.2559,0.0149 0.4718,0.0328 0.63252,0.0558 0.0582,0.008 0.1065,0.0179 0.15037,0.0279 -0.57486,-0.3904 -2.49193,-1.48673 -2.63136,-1.48673 z m 0,1.56682 c -0.66512,0 -1.33026,0.014 -1.83555,0.0434 -0.25264,0.0147 -0.4658,0.0338 -0.61598,0.0553 -0.0751,0.0107 -0.13438,0.0219 -0.17208,0.0325 -0.003,8.2e-4 -0.003,0.001 -0.006,0.002 6.7e-4,0.003 -3.2e-4,0.003 5.1e-4,0.007 0.01,0.038 0.0296,0.095 0.0579,0.16537 0.0565,0.14078 0.14635,0.33454 0.25993,0.56069 0.22717,0.4523 0.54801,1.03629 0.88057,1.6123 0.33256,0.57601 0.67738,1.14447 0.9555,1.56735 0.13905,0.21144 0.26135,0.38658 0.35501,0.50591 0.0468,0.0597 0.0866,0.10604 0.11473,0.13333 0.002,0.002 0.003,0.002 0.005,0.004 0.002,-0.002 0.002,-0.002 0.005,-0.004 0.0281,-0.0273 0.0689,-0.0737 0.11576,-0.13333 0.0937,-0.11933 0.21595,-0.29447 0.35501,-0.50591 0.27812,-0.42288 0.62346,-0.99134 0.95602,-1.56735 0.33256,-0.57601 0.65185,-1.16 0.87901,-1.6123 0.11358,-0.22615 0.20498,-0.41991 0.26149,-0.56069 0.0283,-0.0704 0.0478,-0.12736 0.0574,-0.16537 8.6e-4,-0.003 3.7e-4,-0.004 0.001,-0.007 -0.003,-8.2e-4 -0.003,-0.001 -0.006,-0.002 -0.0377,-0.0107 -0.097,-0.0218 -0.17208,-0.0325 -0.15017,-0.0215 -0.36335,-0.0406 -0.61599,-0.0553 -0.50528,-0.0294 -1.17094,-0.0434 -1.83606,-0.0434 z m -2.82308,0.2155 c -0.0537,0.65032 -0.0446,2.94002 0.0263,3.06286 0.0715,0.12378 2.07752,1.29131 2.65049,1.55856 l -0.003,-0.003 c -0.0399,-0.0387 -0.0837,-0.0891 -0.13384,-0.15296 -0.10024,-0.12771 -0.22502,-0.30621 -0.36587,-0.52038 -0.28171,-0.42833 -0.62811,-0.999 -0.96221,-1.57768 -0.3341,-0.57868 -0.65512,-1.16451 -0.88522,-1.62264 -0.11505,-0.22906 -0.2072,-0.42657 -0.26768,-0.57723 -0.0261,-0.065 -0.0452,-0.11919 -0.0589,-0.16794 z m 5.64565,0.001 c 4e-5,5.3e-4 -5e-5,0.002 0,0.002 1.4e-4,-4.9e-4 3.8e-4,-0.001 5.1e-4,-0.002 z m 0,0.002 c -0.0137,0.048 -0.0318,0.10117 -0.0574,0.16484 -0.0605,0.15067 -0.15317,0.34816 -0.26821,0.57723 -0.2301,0.45813 -0.55059,1.04395 -0.8847,1.62264 -0.3341,0.57867 -0.68102,1.14934 -0.96273,1.57768 -0.14085,0.21416 -0.26511,0.39267 -0.36535,0.52038 -0.0501,0.0639 -0.0944,0.11421 -0.13436,0.15296 -9e-4,8.2e-4 -0.002,0.002 -0.003,0.002 0.57447,-0.26826 2.57855,-1.43486 2.64997,-1.55856 0.0708,-0.12262 0.0792,-2.40431 0.0258,-3.05924 z m -3.5357,0.3669 c 0.0434,0.10174 0.11347,0.1681 0.21032,0.19895 0.0968,0.03 0.23236,-0.0316 0.40669,-0.185 -0.12319,0.2502 -0.24293,0.38899 -0.35915,0.41651 -0.11545,0.0275 -0.22872,-0.0302 -0.33951,-0.17363 l -0.13695,0.0713 z m 0.64285,0.0202 v 0.90589 l -0.58136,0.5178 v 0.41031 l 0.5333,-0.001 c 0.0728,-0.17347 0.18119,-0.28809 0.32453,-0.34314 -0.14644,0.0901 -0.2504,0.281 -0.31161,0.57206 l -0.74259,-0.003 c -0.13327,0.007 -0.24214,-0.0163 -0.3266,-0.0713 0.15032,0.004 0.24497,-0.0364 0.28371,-0.12143 v -0.38396 l 0.59479,-0.53434 v -0.60564 c 0.0744,-0.05 0.1499,-0.16415 0.22583,-0.34262 z m 0.74466,0.003 c 0.004,0.0709 0.0584,0.13429 0.16381,0.19017 0.10615,0.0559 0.21813,0.047 0.3359,-0.0264 l -0.12661,0.14883 v 1.16737 l -0.22427,0.1974 v -0.66146 c 0.10072,-0.004 0.15141,-0.0508 0.15141,-0.14004 0,-0.0901 -0.0507,-0.13467 -0.15141,-0.13384 v -0.28525 c -0.12165,-0.0334 -0.22276,-0.10744 -0.30335,-0.2217 v 0.5054 c -0.10072,0.003 -0.15089,0.0489 -0.15089,0.13643 0,0.0867 0.0502,0.13245 0.15089,0.13745 v 0.71211 l 0.18346,0.12505 0.34416,-0.33279 -0.006,0.1173 -0.43822,0.4408 -0.31161,-0.19017 c -0.0356,-0.0167 -0.0868,-0.0176 -0.15348,-0.003 0.0643,-0.055 0.11241,-0.0845 0.14418,-0.0879 v -1.35237 c -0.0364,0.0133 -0.0907,-0.0136 -0.16278,-0.0811 0.0643,0.0284 0.1181,0.0295 0.16071,0.004 z m -0.99684,0.35656 -0.002,0.56431 c -0.11622,-0.0592 -0.23001,-0.0629 -0.34158,-0.0103 0.0387,-0.0934 0.1308,-0.131 0.27647,-0.11265 v -0.14108 c -0.0891,-0.0409 -0.17367,-0.0291 -0.25425,0.0351 0.0178,-0.0984 0.10238,-0.14668 0.25425,-0.14417 v -0.1447 z m 0.9896,0.18242 c 0.009,0 0.0167,0.002 0.0248,0.006 0.0163,0.008 0.0269,0.0211 0.0315,0.0377 0.005,0.0158 0.005,0.0324 0,0.0491 -0.005,0.0167 -0.0189,0.0289 -0.0398,0.0372 v 0.18758 h 0.10232 c 0.008,-0.0225 0.0196,-0.0365 0.0351,-0.0424 0.0155,-0.006 0.0302,-0.006 0.045,0 0.0155,0.005 0.0274,0.0161 0.0351,0.0336 0.008,0.0175 0.008,0.0361 0,0.0553 -0.007,0.0183 -0.0191,0.0301 -0.0362,0.0351 -0.017,0.005 -0.0331,0.003 -0.0486,-0.004 -0.0155,-0.008 -0.0258,-0.0226 -0.0305,-0.046 h -0.1018 l 5.1e-4,0.64183 c 0.0209,0.008 0.0344,0.0205 0.0398,0.0372 0.005,0.0167 0.005,0.0334 0,0.0501 -0.005,0.0158 -0.0152,0.0278 -0.0315,0.0362 -0.0163,0.008 -0.0333,0.009 -0.0512,0.002 -0.017,-0.008 -0.0279,-0.022 -0.0326,-0.0403 -0.005,-0.0183 -0.003,-0.0355 0.004,-0.0522 0.007,-0.0167 0.0212,-0.0275 0.0429,-0.0325 l -5.1e-4,-0.64183 h -0.11111 c -0.005,0.0234 -0.0145,0.0385 -0.03,0.046 -0.0155,0.007 -0.032,0.009 -0.0491,0.004 -0.017,-0.005 -0.0295,-0.0168 -0.0372,-0.0351 -0.007,-0.0192 -0.006,-0.0378 0.002,-0.0553 0.008,-0.0175 0.0189,-0.0286 0.0336,-0.0336 0.0155,-0.006 0.031,-0.006 0.0465,0 0.0155,0.006 0.0269,0.0198 0.0346,0.0424 h 0.11059 v -0.18758 c -0.0217,-0.005 -0.0359,-0.0159 -0.0429,-0.0326 -0.007,-0.0167 -0.008,-0.0338 -0.004,-0.0522 0.005,-0.0183 0.0155,-0.0318 0.0326,-0.0393 0.009,-0.004 0.0178,-0.006 0.0264,-0.006 z" />
  </g>
</svg>
