<?xml version="1.0" encoding="UTF-8" standalone="no"?>
<!-- Created with Inkscape (http://www.inkscape.org/) -->

<svg
   width="7.2042117mm"
   height="6.3608594mm"
   viewBox="0 0 7.2042117 6.3608594"
   version="1.1"
   id="svg1"
   xmlns="http://www.w3.org/2000/svg"
   xmlns:svg="http://www.w3.org/2000/svg">
  <defs
     id="defs1">
    <linearGradient
       id="swatch4">
      <stop
         style="stop-color:#000000;stop-opacity:1;"
         offset="0"
         id="stop4" />
    </linearGradient>
  </defs>
  <g
     id="layer3"
     transform="translate(-185.22025,-135.35983)">
    <path
       id="path280-3-7-7-1"
       style="fill:#ffffff;fill-opacity:1;stroke:none;stroke-width:0.250658;stroke-dasharray:none;stroke-opacity:1"
       d="m 188.93629,135.35983 2.60708,4.08864 c 0.50569,-0.47548 0.88108,-0.85971 0.88108,-0.93534 0,-0.20955 -2.85254,-2.76497 -3.48816,-3.1533 z m -0.22893,5.2e-4 c -0.63719,0.38995 -3.48712,2.94332 -3.48712,3.15278 0,0.0756 0.37505,0.4595 0.88056,0.93482 z m 0.11473,0.2868 -2.52698,3.961 -0.0729,-0.0465 c 1.00836,0.93865 2.43675,2.15904 2.59984,2.15904 0.16424,0 1.61163,-1.23749 2.62103,-2.17867 l -0.0977,0.062 z m -0.36536,2.31872 c 0.0202,0.10175 0.0822,0.16312 0.18604,0.18397 0.1046,0.0208 0.19718,10e-4 0.27853,-0.0579 -0.0914,0.17014 -0.20055,0.25803 -0.32762,0.26304 -0.1263,0.005 -0.22871,-0.0283 -0.30696,-0.0992 l -0.13694,0.0625 z m 1.0449,0.0114 c 0.004,0.0709 0.0584,0.13378 0.16382,0.18966 0.10614,0.0559 0.21812,0.0476 0.33589,-0.0258 l -0.12661,0.14883 v 1.16685 l -0.22479,0.19792 v -0.66198 c 0.10073,-0.004 0.15141,-0.0508 0.15141,-0.14004 0,-0.0901 -0.0507,-0.13467 -0.15141,-0.13384 v -0.28525 c -0.12164,-0.0334 -0.22276,-0.10692 -0.30334,-0.22118 v 0.5054 c -0.10072,0.003 -0.15089,0.0483 -0.15089,0.13591 0,0.0867 0.0502,0.13297 0.15089,0.13797 v 0.71159 l 0.18397,0.12505 0.34416,-0.33279 -0.006,0.11782 -0.43821,0.44028 -0.31109,-0.19017 c -0.0356,-0.0167 -0.0868,-0.0176 -0.15348,-0.003 0.0643,-0.055 0.11241,-0.084 0.14417,-0.0873 v -1.35238 c -0.0364,0.0134 -0.0907,-0.0136 -0.16278,-0.0811 0.0643,0.0284 0.11759,0.0295 0.1602,0.004 z m -0.80925,0.38861 v 1.06453 l 0.22117,0.002 v 0.0811 l -0.22117,-0.003 v 0.1602 l 0.092,0.0713 c 0.0349,-0.055 0.0944,-0.081 0.1788,-0.0785 -0.0581,0.0292 -0.14837,0.15599 -0.27079,0.38033 l -0.19637,-0.14676 c -0.0744,0.0742 -0.17265,0.12158 -0.29507,0.1416 0.1015,-0.0642 0.17753,-0.14551 0.22789,-0.24392 v -0.26251 h -0.55707 v -0.0951 l 0.55707,0.001 v -1.06455 c 0.0883,0.0317 0.176,0.0289 0.26355,-0.008 z m -0.27854,0.0129 c -0.10692,0.04 -0.21088,0.34546 -0.31161,0.91674 -0.14334,0.12927 -0.29669,0.16392 -0.4594,0.10387 0.11855,0.0275 0.24862,-0.13688 0.38964,-0.49299 0.14102,-0.35611 0.26825,-0.53179 0.38137,-0.52762 z m 1.08004,0.13746 c 0.008,0 0.0167,0.002 0.0248,0.006 0.0163,0.008 0.0269,0.021 0.0315,0.0377 0.005,0.0159 0.005,0.0319 0,0.0486 -0.005,0.0167 -0.0184,0.0294 -0.0393,0.0377 v 0.18759 h 0.10232 c 0.008,-0.0225 0.0191,-0.0371 0.0346,-0.0429 0.0155,-0.006 0.0307,-0.006 0.0455,0 0.0155,0.005 0.0269,0.0166 0.0346,0.0341 0.008,0.0175 0.008,0.0356 0,0.0548 -0.007,0.0183 -0.0191,0.0301 -0.0362,0.0351 -0.017,0.005 -0.0331,0.004 -0.0486,-0.004 -0.0155,-0.007 -0.0253,-0.0232 -0.03,-0.0465 h -0.10179 l 5.2e-4,0.64183 c 0.0209,0.008 0.0338,0.021 0.0393,0.0377 0.005,0.0167 0.005,0.0334 0,0.0501 -0.005,0.0158 -0.0147,0.0278 -0.031,0.0362 -0.0163,0.008 -0.0333,0.009 -0.0512,0.001 -0.0171,-0.008 -0.0279,-0.0214 -0.0326,-0.0398 -0.005,-0.0183 -0.004,-0.036 0.003,-0.0527 0.007,-0.0167 0.0217,-0.0276 0.0434,-0.0326 l -0.001,-0.64183 h -0.11059 c -0.005,0.0234 -0.015,0.039 -0.0305,0.0465 -0.0155,0.008 -0.0315,0.009 -0.0486,0.004 -0.017,-0.005 -0.0295,-0.0168 -0.0372,-0.0351 -0.007,-0.0192 -0.007,-0.0373 0.001,-0.0548 0.008,-0.0175 0.0189,-0.0291 0.0336,-0.0341 0.0155,-0.006 0.031,-0.006 0.0465,0 0.0155,0.006 0.0274,0.0204 0.0351,0.0429 h 0.11059 l -5.2e-4,-0.18759 c -0.0217,-0.005 -0.0359,-0.0159 -0.0429,-0.0325 -0.007,-0.0167 -0.008,-0.0344 -0.004,-0.0527 0.005,-0.0183 0.0155,-0.0312 0.0326,-0.0388 0.009,-0.004 0.0178,-0.006 0.0264,-0.006 z" />
  </g>
</svg>
