<?xml version="1.0" encoding="UTF-8" standalone="no"?>
<!-- Created with Inkscape (http://www.inkscape.org/) -->

<svg
   width="6.1495118mm"
   height="6.1491237mm"
   viewBox="0 0 6.1495118 6.1491237"
   version="1.1"
   id="svg1"
   xmlns="http://www.w3.org/2000/svg"
   xmlns:svg="http://www.w3.org/2000/svg">
  <defs
     id="defs1">
    <linearGradient
       id="swatch4">
      <stop
         style="stop-color:#000000;stop-opacity:1;"
         offset="0"
         id="stop4" />
    </linearGradient>
  </defs>
  <g
     id="layer3"
     transform="translate(-185.61342,-166.26762)">
    <path
       id="path225-00-3-5"
       style="fill:#ffffff;fill-opacity:1;stroke:none;stroke-width:0.200527;stroke-dasharray:none;stroke-opacity:1"
       d="m 187.41433,166.26763 -0.015,0.015 0.0367,-0.015 z m 0.108,0 0.31678,0.77979 1.69705,-10e-4 0.31058,-0.77876 z m 2.43448,0 0.008,0.003 -0.003,-0.003 z m 0.0765,0.0718 -0.31264,0.78909 1.18752,1.18805 0.77773,-0.32453 z m -2.69648,0.006 -1.64847,1.64847 0.78083,0.32092 1.18545,-1.18495 z m 0.48318,0.90175 -1.2268,1.22732 v 1.73529 l 1.2268,1.22783 1.73529,-0.001 1.2268,-1.2268 5.2e-4,-1.73529 -1.22732,-1.2268 z m -2.19108,0.80615 -0.0155,0.0155 v 0.0222 z m 6.13347,0.12558 -0.77928,0.32452 v 1.67277 l 0.7798,0.32866 z m -6.14898,0.001 v 2.32699 l 0.77929,-0.33486 v -1.6707 z m 3.22823,0.12299 c 0.0201,0.10175 0.0822,0.16312 0.18604,0.18397 0.1046,0.0208 0.19718,0.002 0.27853,-0.0574 -0.0914,0.17013 -0.20056,0.25751 -0.32763,0.26251 -0.12629,0.005 -0.22818,-0.0278 -0.30644,-0.0987 l -0.13746,0.0625 z m 0.23565,0.40049 v 1.06454 l 0.22117,0.002 v 0.0811 l -0.22117,-0.003 v 0.16019 l 0.092,0.0713 c 0.0349,-0.055 0.0943,-0.0816 0.1788,-0.0791 -0.0581,0.0292 -0.14837,0.156 -0.27079,0.38034 l -0.19637,-0.14625 c -0.0744,0.0742 -0.17265,0.12158 -0.29507,0.1416 0.1015,-0.0642 0.17753,-0.1455 0.22789,-0.24391 v -0.26304 h -0.55655 v -0.0951 l 0.55656,0.002 v -1.06454 c 0.0883,0.0317 0.17599,0.029 0.26355,-0.008 z m -0.27854,0.0124 c -0.10692,0.04 -0.21088,0.34598 -0.31161,0.91726 -0.14334,0.12927 -0.29617,0.16392 -0.45888,0.10387 0.11854,0.0275 0.2481,-0.13688 0.38912,-0.49299 0.14101,-0.35611 0.26825,-0.53231 0.38137,-0.52814 z m -2.33784,1.6459 -0.76998,0.33176 1.65003,1.65003 0.31833,-0.78393 z m 4.45037,0.003 -1.20354,1.20354 0.33021,0.77205 1.64848,-1.64848 z m -5.29786,0.23254 v 0.0186 l 0.014,0.0139 z m 2.23087,1.03973 -0.31678,0.7798 h 2.32647 l -0.33641,-0.77928 z m -0.44235,0.7674 0.0124,0.0124 h 0.0176 z" />
  </g>
</svg>
