<?xml version="1.0" encoding="UTF-8" standalone="no"?>
<!-- Created with Inkscape (http://www.inkscape.org/) -->

<svg
   width="6.1489787mm"
   height="6.1491237mm"
   viewBox="0 0 6.1489787 6.1491237"
   version="1.1"
   id="svg1"
   xmlns="http://www.w3.org/2000/svg"
   xmlns:svg="http://www.w3.org/2000/svg">
  <defs
     id="defs1">
    <linearGradient
       id="swatch4">
      <stop
         style="stop-color:#000000;stop-opacity:1;"
         offset="0"
         id="stop4" />
    </linearGradient>
  </defs>
  <g
     id="layer3"
     transform="translate(-193.43,-166.28674)">
    <path
       id="path225-00-0-5"
       style="fill:#ffffff;fill-opacity:1;stroke:none;stroke-width:0.200527;stroke-dasharray:none;stroke-opacity:1"
       d="m 195.23091,166.28675 -0.015,0.015 0.0367,-0.015 z m 0.108,0 0.31678,0.77979 1.69705,-0.001 0.31058,-0.77876 z m 2.43448,0 0.008,0.003 -0.003,-0.003 z m 0.0765,0.0718 -0.31264,0.78909 1.18752,1.18805 0.77773,-0.32453 z m -2.69648,0.006 -1.64848,1.64848 0.78032,0.32143 1.18545,-1.18494 z m 0.48318,0.90175 -1.2268,1.22732 v 1.73529 l 1.2268,1.22784 1.73529,-0.001 1.2268,-1.2268 5.2e-4,-1.73529 -1.22732,-1.2268 z m -2.19108,0.80616 -0.0155,0.0155 v 0.0222 z m 6.13347,0.12557 -0.77928,0.32453 v 1.67276 l 0.77928,0.32918 z m -6.14898,0.001 v 2.32699 l 0.77928,-0.33486 v -1.6707 z m 3.0794,0.14108 0.50436,10e-4 -0.16174,0.23255 -0.46354,0.002 v 0.50281 h 0.0403 v -0.43925 c 0.17356,-0.0592 0.31941,-0.0336 0.43718,0.0765 -0.12862,-0.05 -0.25042,-0.0559 -0.36587,-0.0176 v 0.11989 c 0.0728,-0.0309 0.14162,-0.018 0.20671,0.0388 -0.0845,-0.0259 -0.15325,0.002 -0.20671,0.0816 l -0.0579,0.14004 0.35657,0.001 c 0.11002,0.002 0.20855,-0.04 0.29611,-0.12505 l -0.14625,0.21135 -0.001,0.73949 -0.44545,0.47801 -0.31626,-0.20257 c -0.0697,-0.0334 -0.16024,-0.0175 -0.27182,0.0475 0.16349,-0.22184 0.29072,-0.32061 0.38137,-0.29559 l 0.31626,0.21291 0.0661,-0.0615 v -0.8232 h -0.40927 c -0.0937,-0.006 -0.19642,0.003 -0.308,0.0253 0.0783,-0.0884 0.13412,-0.13412 0.16744,-0.13746 v -0.3266 c -0.0387,0.0134 -0.0974,-0.0263 -0.1757,-0.11885 0.0697,0.0283 0.12817,0.0295 0.17466,0.004 z m 0.13126,0.95808 v 0.75551 l -0.0708,0.0589 v -0.19017 c -0.062,-0.0425 -0.12379,-0.0473 -0.185,-0.0139 0.0333,-0.0726 0.0951,-0.11035 0.185,-0.11369 l 0.001,-0.41651 z m -2.36316,1.08262 -0.76998,0.33177 1.65003,1.65002 0.31832,-0.78393 z m 4.45037,0.003 -1.20354,1.20355 0.33021,0.77204 1.64848,-1.64848 z m -5.29787,0.23255 v 0.0186 l 0.014,0.014 z m 2.23087,1.03973 -0.31677,0.77979 h 2.32647 l -0.33641,-0.77928 z m -0.44235,0.76739 0.0124,0.0124 h 0.0176 z" />
  </g>
</svg>
