<?xml version="1.0" encoding="UTF-8" standalone="no"?>
<!-- Created with Inkscape (http://www.inkscape.org/) -->

<svg
   width="5.6703258mm"
   height="5.9013677mm"
   viewBox="0 0 5.6703258 5.9013677"
   version="1.1"
   id="svg1"
   xmlns="http://www.w3.org/2000/svg"
   xmlns:svg="http://www.w3.org/2000/svg">
  <defs
     id="defs1">
    <linearGradient
       id="swatch4">
      <stop
         style="stop-color:#000000;stop-opacity:1;"
         offset="0"
         id="stop4" />
    </linearGradient>
  </defs>
  <g
     id="layer3"
     transform="translate(-216.93916,-202.38689)">
    <path
       id="path237-317-04-30-0"
       style="fill:#ffffff;fill-opacity:1;stroke:none;stroke-width:0.200527;stroke-dasharray:none;stroke-opacity:1"
       d="m 219.77411,202.38738 c -0.12765,0 -1.63099,0.48825 -1.73426,0.56328 -0.10327,0.075 -1.03232,1.35396 -1.07177,1.47536 -0.0183,0.0563 -0.0276,0.4279 -0.0289,0.82062 0.008,-0.005 0.0144,-0.009 0.0227,-0.0139 0.0745,-0.0438 0.17703,-0.097 0.29972,-0.1571 0.2454,-0.12015 0.57201,-0.26755 0.90796,-0.41134 0.30216,-0.12933 0.60532,-0.25195 0.86868,-0.35244 l 0.001,-0.002 c 1.5e-4,3.7e-4 3.6e-4,6.8e-4 5.2e-4,0.001 0.0289,-0.011 0.0632,-0.0253 0.0909,-0.0357 0.14034,-0.0525 0.26406,-0.0963 0.36638,-0.12816 0.0512,-0.0159 0.0965,-0.0285 0.13953,-0.0387 0.043,-0.0101 0.0759,-0.0207 0.15141,-0.0207 0.0755,0 0.10838,0.0105 0.15141,0.0207 0.043,0.0101 0.0884,0.0228 0.13953,0.0387 0.10232,0.0319 0.22603,0.0756 0.36638,0.12816 0.0134,0.005 0.0303,0.0119 0.0439,0.017 1.4e-4,6e-5 3.8e-4,-5e-5 5.2e-4,0 0.0791,-0.0521 0.15771,-0.0643 0.23616,-0.0372 -0.0386,-0.0109 -0.0964,0.0104 -0.1726,0.0625 0.12463,0.0477 0.25375,0.0975 0.39274,0.15399 0.008,-0.004 0.0164,-0.008 0.0248,-0.0129 l -0.0155,0.0171 c 0.14833,0.0603 0.30031,0.12332 0.45166,0.1881 0.33594,0.14379 0.66256,0.29119 0.90795,0.41134 0.12024,0.0589 0.22047,0.11072 0.29456,0.154 -0.002,-0.38625 -0.0109,-0.74812 -0.0289,-0.80357 -0.0394,-0.1214 -0.96902,-1.40033 -1.07229,-1.47536 -0.10327,-0.075 -1.60661,-0.56328 -1.73426,-0.56328 z m 0.014,1.83555 c -0.002,3.3e-4 -0.002,1.2e-4 -0.004,5.2e-4 -0.0247,0.006 -0.0622,0.016 -0.10697,0.03 -0.0895,0.0279 -0.20838,0.0699 -0.34468,0.12092 -0.0582,0.0218 -0.12854,0.0507 -0.19224,0.0755 0.0316,0.0261 0.0677,0.0462 0.10904,0.0594 0.0968,0.03 0.23288,-0.0316 0.40721,-0.185 -0.12319,0.25019 -0.24293,0.38899 -0.35915,0.41651 -0.11545,0.0275 -0.22872,-0.0307 -0.33951,-0.17415 l -0.13695,0.0713 0.0563,-0.0848 c -0.15969,0.0647 -0.32692,0.1337 -0.49144,0.20413 -0.33218,0.14218 -0.65569,0.28794 -0.894,0.40462 -0.11916,0.0583 -0.21701,0.10949 -0.28215,0.1478 -0.0326,0.0191 -0.0567,0.0354 -0.0703,0.046 -9.9e-4,7.7e-4 -6.9e-4,8.8e-4 -0.002,0.002 8.1e-4,7.4e-4 5.1e-4,8.4e-4 0.002,0.002 0.0136,0.0106 0.0377,0.0268 0.0703,0.046 0.0651,0.0383 0.16299,0.0894 0.28215,0.1478 0.23831,0.11667 0.56182,0.26245 0.894,0.40463 0.15915,0.0681 0.32049,0.13504 0.47542,0.19792 v -0.34365 l 0.59532,-0.53382 v -0.60565 c 0.0744,-0.05 0.14937,-0.16414 0.22531,-0.34261 v 0.90589 l -0.58085,0.51779 v 0.41031 l 0.5333,-0.002 c 0.0728,-0.17346 0.18067,-0.28757 0.32401,-0.34261 -0.14644,0.0901 -0.24988,0.28048 -0.31109,0.57154 l -0.17725,-5.2e-4 c 0.078,0.028 0.15008,0.053 0.20722,0.0708 0.0448,0.0139 0.0823,0.0242 0.10697,0.03 0.002,4e-4 0.002,1.9e-4 0.004,5.2e-4 0.002,-3.3e-4 0.002,-1.2e-4 0.004,-5.2e-4 0.0247,-0.006 0.0622,-0.016 0.10697,-0.03 0.086,-0.0268 0.20055,-0.0674 0.33022,-0.11575 l -0.21291,-0.10181 c -0.0387,-0.0167 -0.0946,-0.0176 -0.16743,-0.003 0.0705,-0.055 0.12249,-0.0845 0.15658,-0.0879 v -0.65164 c -0.0395,0.0133 -0.0985,-0.0136 -0.17674,-0.0811 0.0697,0.0283 0.12818,0.0295 0.17467,0.004 l 0.16485,-0.14624 c -0.117,-0.006 -0.20415,0.002 -0.26148,0.0248 0.0705,-0.0551 0.12274,-0.084 0.15606,-0.0873 v -0.47697 c -0.0387,0.0133 -0.0974,-0.0136 -0.1757,-0.0811 0.0697,0.0283 0.12766,0.0295 0.17415,0.004 l 0.28784,-0.24598 c -0.0335,-0.0128 -0.0732,-0.0295 -0.10491,-0.0413 -0.13629,-0.051 -0.2557,-0.093 -0.3452,-0.12092 -0.0447,-0.0139 -0.0823,-0.0242 -0.10697,-0.03 -0.002,-4e-4 -0.002,-1.9e-4 -0.004,-5.2e-4 z m 0.49971,0.30748 v 0.61546 l 0.0594,0.0315 v -0.59066 c -0.0197,-0.0174 -0.0395,-0.0358 -0.0594,-0.0563 z m 0.54519,0.078 v 0.30385 l -0.22118,0.22221 v -0.40772 c -0.0636,-0.0101 -0.12817,-0.0381 -0.19378,-0.0837 v 0.57206 l 0.10438,0.0558 0.31058,-0.30748 -0.006,0.11731 -0.22996,0.23771 c 0.0728,0.0325 0.13516,0.0543 0.18707,0.0651 0.0527,0.0109 0.11501,-0.005 0.18707,-0.0486 l -0.13798,0.14883 v 0.37878 l -0.24443,0.23513 v -0.60771 l -0.17053,-0.0816 v 0.60926 l -0.0708,0.0589 v -0.70228 l -0.0816,-0.0393 -0.001,0.76171 0.25786,0.11265 0.31058,-0.30799 -0.006,0.11782 -0.15348,0.154 c 0.1679,-0.0678 0.34271,-0.14047 0.51677,-0.21497 0.33218,-0.14218 0.65621,-0.28796 0.89452,-0.40463 0.11915,-0.0583 0.217,-0.1095 0.28215,-0.1478 0.0326,-0.0192 0.0567,-0.0354 0.0703,-0.046 9.9e-4,-7.7e-4 6.9e-4,-8.7e-4 0.001,-0.002 -8.1e-4,-7.4e-4 -5.1e-4,-8.5e-4 -0.001,-0.002 -0.0136,-0.0106 -0.0377,-0.0268 -0.0703,-0.046 -0.0652,-0.0383 -0.163,-0.0895 -0.28215,-0.1478 -0.23831,-0.11668 -0.56234,-0.26244 -0.89452,-0.40462 -0.11982,-0.0513 -0.23853,-0.10001 -0.35709,-0.14883 z m -1.40301,0.0811 -0.001,0.56379 c -0.11622,-0.0592 -0.23,-0.0624 -0.34158,-0.01 0.0387,-0.0934 0.13081,-0.131 0.27647,-0.11265 v -0.14108 c -0.0891,-0.0409 -0.17418,-0.0296 -0.25476,0.0346 0.0178,-0.0984 0.1029,-0.14616 0.25476,-0.14366 v -0.14495 z m -2.49081,0.77825 c 0.002,0.37797 0.0113,0.72745 0.0289,0.78186 0.0395,0.12141 0.9685,1.40033 1.07177,1.47536 0.10327,0.075 1.60661,0.56328 1.73426,0.56328 0.12765,0 1.63099,-0.48825 1.73426,-0.56328 0.10327,-0.075 1.03284,-1.35395 1.07229,-1.47536 0.0174,-0.0536 0.0264,-0.39354 0.0284,-0.76481 -0.0741,0.0433 -0.17399,0.0952 -0.29404,0.154 -0.24539,0.12014 -0.57201,0.26755 -0.90796,0.41134 -0.33594,0.1438 -0.681,0.28358 -0.9617,0.38861 -0.14034,0.0525 -0.26406,0.0963 -0.36638,0.12815 -0.0512,0.0159 -0.0965,0.0291 -0.13953,0.0393 -0.043,0.0101 -0.0759,0.0202 -0.15141,0.0202 -0.0755,0 -0.10838,-0.01 -0.15141,-0.0202 -0.043,-0.0101 -0.0884,-0.0233 -0.13953,-0.0393 -0.10232,-0.0319 -0.22604,-0.0756 -0.36638,-0.12815 -0.0385,-0.0144 -0.0854,-0.0335 -0.12609,-0.0491 l -0.10026,-5.1e-4 c -0.13326,0.007 -0.24214,-0.0163 -0.32659,-0.0713 0.0729,0.002 0.13267,-0.006 0.17932,-0.0253 -0.19037,-0.0761 -0.38809,-0.15698 -0.58757,-0.24236 -0.33594,-0.14379 -0.66256,-0.2912 -0.90795,-0.41134 -0.1227,-0.0601 -0.22524,-0.1133 -0.29972,-0.1571 -0.008,-0.005 -0.0151,-0.009 -0.0227,-0.014 z" />
  </g>
</svg>
