<?xml version="1.0" encoding="UTF-8" standalone="no"?>
<!-- Created with Inkscape (http://www.inkscape.org/) -->

<svg
   width="5.6705518mm"
   height="5.9010124mm"
   viewBox="0 0 5.6705518 5.9010124"
   version="1.1"
   id="svg1"
   xmlns="http://www.w3.org/2000/svg"
   xmlns:svg="http://www.w3.org/2000/svg">
  <defs
     id="defs1">
    <linearGradient
       id="swatch4">
      <stop
         style="stop-color:#000000;stop-opacity:1;"
         offset="0"
         id="stop4" />
    </linearGradient>
  </defs>
  <g
     id="layer3"
     transform="translate(-178.22668,-202.38006)">
    <path
       id="path237-317-04-3-9"
       style="fill:#ffffff;fill-opacity:1;stroke:none;stroke-width:0.200527;stroke-dasharray:none;stroke-opacity:1"
       d="m 181.06175,202.38015 c -0.12766,0 -1.63099,0.48824 -1.73426,0.56327 -0.10328,0.075 -1.03233,1.35396 -1.07177,1.47536 -0.0183,0.0563 -0.0276,0.42791 -0.0289,0.82063 0.008,-0.005 0.0144,-0.009 0.0227,-0.014 0.0745,-0.0438 0.17702,-0.097 0.29972,-0.15709 0.24539,-0.12015 0.57201,-0.26756 0.90796,-0.41135 0.26253,-0.11237 0.5217,-0.21725 0.76016,-0.31006 l 0.0362,-0.0543 c 0.005,0.0118 0.0108,0.0227 0.0165,0.0336 0.0483,-0.0186 0.10307,-0.0409 0.14832,-0.0579 0.14034,-0.0525 0.26406,-0.0963 0.36638,-0.12816 0.0512,-0.0159 0.0965,-0.0286 0.13953,-0.0388 0.043,-0.0101 0.0759,-0.0207 0.15141,-0.0207 0.0755,0 0.10838,0.0105 0.15141,0.0207 0.043,0.0101 0.0884,0.0228 0.13953,0.0388 0.10232,0.0319 0.22604,0.0756 0.36639,0.12816 0.28069,0.10504 0.62575,0.24481 0.96169,0.3886 0.33595,0.14379 0.66257,0.2912 0.90796,0.41135 0.12024,0.0589 0.22047,0.11071 0.29455,0.15399 -0.002,-0.38625 -0.0109,-0.74812 -0.0289,-0.80357 -0.0395,-0.1214 -0.96901,-1.40033 -1.07228,-1.47536 -0.10327,-0.075 -1.60661,-0.56327 -1.73426,-0.56327 z m 0.0139,1.83555 c -0.002,3.3e-4 -0.002,1.1e-4 -0.004,5.1e-4 -0.0247,0.006 -0.0622,0.016 -0.10697,0.03 -0.0895,0.0279 -0.20839,0.0699 -0.34469,0.12092 -0.0696,0.0261 -0.15309,0.0601 -0.23047,0.0904 0.0227,0.014 0.047,0.0256 0.0739,0.0341 0.0969,0.03 0.23287,-0.0321 0.40721,-0.18552 -0.1232,0.25019 -0.24293,0.38899 -0.35915,0.41651 -0.11545,0.0275 -0.22872,-0.0302 -0.33952,-0.17363 l -0.13694,0.0713 0.0191,-0.0289 c -0.12606,0.0517 -0.25319,0.104 -0.38086,0.15865 -0.33218,0.14218 -0.65569,0.28795 -0.894,0.40463 -0.11915,0.0583 -0.217,0.10948 -0.28215,0.14779 -0.0326,0.0191 -0.0567,0.0354 -0.0703,0.046 -9.9e-4,7.7e-4 -6.9e-4,8.8e-4 -0.002,0.002 8.1e-4,7.4e-4 5.1e-4,8.5e-4 0.002,0.002 0.0136,0.0106 0.0377,0.0268 0.0703,0.046 0.0652,0.0383 0.163,0.0894 0.28215,0.14779 0.23831,0.11667 0.56182,0.26245 0.894,0.40463 0.13478,0.0577 0.26934,0.11362 0.40205,0.16795 v -0.32401 l 0.59531,-0.53434 v -0.60513 c 0.0744,-0.05 0.14938,-0.16466 0.22531,-0.34313 v 0.90589 l -0.58084,0.5178 v 0.41031 l 0.5333,-0.001 c 0.0728,-0.17346 0.18067,-0.28757 0.32401,-0.34261 -0.14644,0.0901 -0.24989,0.28048 -0.31109,0.57154 l -0.13178,-5.2e-4 c 0.0892,0.0323 0.1714,0.0613 0.23513,0.0811 0.0448,0.0139 0.0823,0.0242 0.10697,0.03 0.002,4e-4 0.002,1.9e-4 0.004,5.2e-4 0.002,-3.3e-4 0.002,-1.2e-4 0.004,-5.2e-4 0.0247,-0.006 0.0622,-0.016 0.10697,-0.03 0.0634,-0.0198 0.14536,-0.0485 0.23409,-0.0806 -0.096,-0.003 -0.18569,-0.0511 -0.26923,-0.14521 l -0.17312,0.0625 0.38809,-0.35295 c 0.0256,0.10174 0.0786,0.16312 0.15917,0.18397 0.0806,0.0208 0.17238,0.002 0.27543,-0.0574 -0.0523,0.10087 -0.10777,0.17689 -0.1664,0.22841 0.0949,-0.0363 0.19253,-0.074 0.29766,-0.11628 l -0.14418,-0.13332 v -0.64802 l -0.36018,-0.14263 0.36018,-0.16898 v -0.6165 c -0.008,-0.003 -0.015,-0.006 -0.0227,-0.009 -0.074,0.17291 -0.1629,0.26441 -0.26768,0.27285 -0.1139,0.009 -0.20415,-0.0424 -0.27079,-0.15503 l -0.12557,0.0749 0.25683,-0.34727 c -0.0642,-0.0227 -0.12295,-0.0427 -0.17156,-0.0579 -0.0448,-0.0139 -0.0823,-0.0242 -0.10697,-0.03 -0.002,-4e-4 -0.002,-1.8e-4 -0.004,-5.1e-4 z m 0.30075,0.0956 c 0.0217,0.0867 0.0753,0.13958 0.16175,0.15864 0.0729,0.0161 0.13821,0.008 0.19637,-0.0233 -0.0675,-0.0263 -0.14167,-0.0566 -0.20309,-0.0796 -0.0555,-0.0208 -0.10598,-0.0384 -0.15503,-0.0558 z m 0.50695,0.19378 0.14624,0.12661 c 0.0454,0.0233 0.10277,0.0243 0.17209,0.004 -0.10971,-0.0456 -0.2142,-0.0886 -0.31833,-0.13023 z m 0.32659,0.13333 c -0.0798,0.0598 -0.14145,0.0925 -0.18293,0.0956 v 0.35192 l -0.44287,0.15348 0.44184,0.15399 v 0.73329 c 0.008,2.5e-4 0.0162,0.002 0.0243,0.003 0.14041,-0.0573 0.28413,-0.11697 0.42736,-0.17828 0.33219,-0.14218 0.65621,-0.28796 0.89452,-0.40463 0.11915,-0.0583 0.217,-0.10949 0.28215,-0.14779 0.0326,-0.0192 0.0567,-0.0354 0.0703,-0.046 9.9e-4,-7.7e-4 6.9e-4,-8.8e-4 0.002,-0.002 -8.1e-4,-7.4e-4 -5.1e-4,-8.5e-4 -0.002,-0.002 -0.0136,-0.0106 -0.0377,-0.0268 -0.0703,-0.046 -0.0652,-0.0383 -0.163,-0.0895 -0.28215,-0.14779 -0.23831,-0.11668 -0.56233,-0.26245 -0.89452,-0.40463 -0.0897,-0.0384 -0.17813,-0.0744 -0.26768,-0.11162 z m -1.56579,0.0331 -0.001,0.56431 c -0.11622,-0.0592 -0.23001,-0.0624 -0.34158,-0.01 0.0387,-0.0934 0.1308,-0.131 0.27646,-0.11265 v -0.1416 c -0.0891,-0.0409 -0.17418,-0.0291 -0.25476,0.0351 0.0178,-0.0984 0.1029,-0.14616 0.25476,-0.14366 v -0.14521 z m 1.10898,0.74466 -0.002,0.56379 c -0.11623,-0.0592 -0.23001,-0.0624 -0.34159,-0.01 0.0387,-0.0934 0.13081,-0.131 0.27647,-0.11265 v -0.14108 c -0.0891,-0.0409 -0.17366,-0.0296 -0.25425,0.0346 0.0178,-0.0984 0.10239,-0.14616 0.25425,-0.14366 v -0.14521 z m -3.5264,0.0444 c 0.002,0.37797 0.0113,0.72746 0.0289,0.78187 0.0394,0.12141 0.96849,1.40033 1.07176,1.47536 0.10328,0.075 1.60661,0.56327 1.73427,0.56327 0.12765,0 1.63098,-0.48824 1.73426,-0.56327 0.10327,-0.075 1.03284,-1.35395 1.07228,-1.47536 0.0174,-0.0536 0.0264,-0.39355 0.0284,-0.76482 -0.0741,0.0433 -0.17398,0.0952 -0.29404,0.154 -0.24539,0.12014 -0.572,0.26756 -0.90795,0.41135 -0.15151,0.0649 -0.30421,0.1277 -0.45269,0.1881 0.0306,0.0299 0.0607,0.0652 0.0899,0.108 -0.0293,-0.0382 -0.0863,-0.063 -0.1695,-0.0754 -0.15162,0.0611 -0.29838,0.11892 -0.42943,0.16795 -0.14034,0.0525 -0.26406,0.0963 -0.36638,0.12816 -0.0512,0.0159 -0.0965,0.0291 -0.13953,0.0393 -0.043,0.0101 -0.0759,0.0202 -0.15141,0.0202 -0.0755,0 -0.10838,-0.01 -0.15141,-0.0202 -0.043,-0.0101 -0.0884,-0.0233 -0.13953,-0.0393 -0.10232,-0.0319 -0.22604,-0.0756 -0.36639,-0.12816 -0.0464,-0.0173 -0.1024,-0.0403 -0.15192,-0.0594 l -0.1478,-5.1e-4 c -0.13327,0.008 -0.24214,-0.0163 -0.32659,-0.0713 0.0841,0.002 0.15029,-0.01 0.19947,-0.0357 -0.17384,-0.07 -0.35429,-0.14463 -0.53434,-0.22169 -0.33594,-0.14379 -0.66256,-0.29121 -0.90795,-0.41135 -0.1227,-0.0601 -0.22524,-0.1133 -0.29973,-0.1571 -0.008,-0.005 -0.0151,-0.009 -0.0227,-0.0139 z" />
  </g>
</svg>
