<?xml version="1.0" encoding="UTF-8" standalone="no"?>
<!-- Created with Inkscape (http://www.inkscape.org/) -->

<svg
   width="6.7473111mm"
   height="6.0509062mm"
   viewBox="0 0 6.7473111 6.0509062"
   version="1.1"
   id="svg1"
   xmlns="http://www.w3.org/2000/svg"
   xmlns:svg="http://www.w3.org/2000/svg">
  <defs
     id="defs1">
    <linearGradient
       id="swatch4">
      <stop
         style="stop-color:#000000;stop-opacity:1;"
         offset="0"
         id="stop4" />
    </linearGradient>
  </defs>
  <g
     id="layer3"
     transform="translate(-169.90872,-106.05113)">
    <path
       id="path188-9"
       style="display:inline;fill:#ffffff;fill-opacity:1;stroke:none;stroke-width:0.200527;stroke-dasharray:none;stroke-opacity:1"
       onmouseover=""
       d="m 173.28238,106.05114 c -0.33672,0 -3.5356,5.5406 -3.36724,5.8322 0.16836,0.29161 6.56611,0.29161 6.73447,0 0.16836,-0.2916 -3.03052,-5.8322 -3.36723,-5.8322 z m -0.21653,2.54197 c 0.0434,0.10174 0.11347,0.16758 0.21032,0.19843 0.0969,0.03 0.23236,-0.0316 0.4067,-0.185 -0.1232,0.2502 -0.24293,0.38899 -0.35915,0.41651 -0.11545,0.0275 -0.22872,-0.0302 -0.33952,-0.17363 l -0.13694,0.0713 z m 0.64234,0.0196 v 0.90588 l -0.58084,0.5178 v 0.41031 l 0.5333,-0.001 c 0.0728,-0.17347 0.18118,-0.28809 0.32452,-0.34313 -0.14644,0.0901 -0.25039,0.281 -0.3116,0.57206 l -0.74259,-0.003 c -0.13327,0.007 -0.24214,-0.0163 -0.3266,-0.0713 0.15031,0.004 0.24496,-0.0364 0.2837,-0.12144 v -0.38396 l 0.5948,-0.53433 v -0.60515 c 0.0744,-0.05 0.14938,-0.16466 0.22531,-0.34313 z" />
  </g>
</svg>
