<?xml version="1.0" encoding="UTF-8" standalone="no"?>
<!-- Created with Inkscape (http://www.inkscape.org/) -->

<svg
   width="7.2042117mm"
   height="6.3609805mm"
   viewBox="0 0 7.2042117 6.3609805"
   version="1.1"
   id="svg1"
   xmlns="http://www.w3.org/2000/svg"
   xmlns:svg="http://www.w3.org/2000/svg">
  <defs
     id="defs1">
    <linearGradient
       id="swatch4">
      <stop
         style="stop-color:#000000;stop-opacity:1;"
         offset="0"
         id="stop4" />
    </linearGradient>
  </defs>
  <g
     id="layer3"
     transform="translate(-177.51354,-128.27602)">
    <path
       id="path34-39-7-1"
       style="fill:#ffffff;fill-opacity:1;stroke:none;stroke-width:0.250658;stroke-dasharray:none;stroke-opacity:1"
       d="m 183.83667,132.36467 c 0.50568,-0.47548 0.88108,-0.85971 0.88108,-0.93534 0,-0.20955 -2.85253,-2.76497 -3.48816,-3.1533 z" />
    <path
       id="path805-7"
       style="fill:#ffffff;fill-opacity:1;stroke:none;stroke-width:0.250658;stroke-dasharray:none;stroke-opacity:1"
       d="m 181.11549,128.56347 -2.52698,3.961 -0.0729,-0.0465 c 1.00837,0.93865 2.43676,2.15904 2.59984,2.15904 0.16424,0 1.61164,-1.2375 2.62103,-2.17868 l -0.0971,0.062 z m -0.28422,2.37763 c 0.017,0.10178 0.0729,0.16315 0.16743,0.18397 0.0945,0.0208 0.17676,0.002 0.2465,-0.0574 -0.0775,0.20346 -0.17291,0.30964 -0.28681,0.31884 -0.11389,0.009 -0.20415,-0.0424 -0.27078,-0.15503 l -0.12557,0.0749 z m 0.41755,0.13591 0.24184,0.20929 c 0.0504,0.0259 0.11502,0.0245 0.19482,-0.004 -0.0875,0.0676 -0.15324,0.10314 -0.1974,0.10646 v 0.3514 l -0.44287,0.15399 0.44183,0.154 v 0.73277 c 0.10925,0.003 0.21088,0.0746 0.30541,0.21291 -0.0442,-0.0575 -0.14916,-0.0861 -0.31574,-0.0853 l -0.22789,-0.20981 v -0.64802 l -0.36019,-0.14262 0.36019,-0.16899 z m -0.0351,0.99374 -0.001,0.5643 c -0.11623,-0.0595 -0.23001,-0.0629 -0.34159,-0.0103 0.0387,-0.0934 0.13081,-0.13047 0.27647,-0.11214 v -0.14159 c -0.0891,-0.0408 -0.17366,-0.0291 -0.25425,0.0351 0.0178,-0.0987 0.10239,-0.14695 0.25425,-0.14418 v -0.1447 z m -0.38706,0.52296 c 0.0256,0.10178 0.0791,0.16315 0.15968,0.18397 0.0806,0.0208 0.17238,0.001 0.27543,-0.0579 -0.0968,0.18682 -0.20494,0.28946 -0.32349,0.30696 -0.11777,0.0175 -0.22664,-0.03 -0.3266,-0.14263 l -0.17311,0.0625 z" />
    <path
       id="path256-3-4"
       style="fill:#ffffff;fill-opacity:1;stroke:none;stroke-width:0.250658;stroke-dasharray:none;stroke-opacity:1"
       d="m 181.00067,128.27655 c -0.63719,0.38995 -3.48713,2.94332 -3.48713,3.15278 0,0.0756 0.37506,0.4595 0.88057,0.93482 z" />
  </g>
</svg>
