<?xml version="1.0" encoding="UTF-8" standalone="no"?>
<!-- Created with Inkscape (http://www.inkscape.org/) -->

<svg
   width="7.2042117mm"
   height="6.3609805mm"
   viewBox="0 0 7.2042117 6.3609805"
   version="1.1"
   id="svg1"
   xmlns="http://www.w3.org/2000/svg"
   xmlns:svg="http://www.w3.org/2000/svg">
  <defs
     id="defs1">
    <linearGradient
       id="swatch4">
      <stop
         style="stop-color:#000000;stop-opacity:1;"
         offset="0"
         id="stop4" />
    </linearGradient>
  </defs>
  <g
     id="layer3"
     transform="translate(-200.82627,-128.27602)">
    <path
       id="path34-39-3-5"
       style="fill:#ffffff;fill-opacity:1;stroke:none;stroke-width:0.250658;stroke-dasharray:none;stroke-opacity:1"
       d="m 207.14939,132.36467 c 0.50569,-0.47548 0.88108,-0.85971 0.88108,-0.93534 0,-0.20955 -2.85253,-2.76497 -3.48816,-3.1533 z" />
    <path
       id="path257-1-2"
       style="fill:#ffffff;fill-opacity:1;stroke:none;stroke-width:0.250658;stroke-dasharray:none;stroke-opacity:1"
       d="m 204.42828,128.56347 -2.52698,3.961 -0.0729,-0.0465 c 1.00837,0.93865 2.43676,2.15904 2.59984,2.15904 0.16424,0 1.61163,-1.2375 2.62103,-2.17868 l -0.0971,0.062 z m 0.0589,2.38228 c 0.0109,0.0818 0.0548,0.13318 0.13229,0.154 0.0775,0.0208 0.15506,0.002 0.23254,-0.0574 -0.0984,0.19697 -0.1946,0.29798 -0.28835,0.30282 -0.0937,0.004 -0.1747,-0.0362 -0.24288,-0.12041 l -0.0801,0.0879 v 1.23559 l 0.32298,0.2005 0.0475,-0.0667 v -0.82166 c -0.0566,-0.0117 -0.10053,-0.0491 -0.1323,-0.11162 l -0.2253,0.31936 0.001,-0.11627 0.37878,-0.49299 c 0.0178,0.10177 0.0739,0.16315 0.16847,0.18397 0.0945,0.0208 0.17935,0.001 0.25373,-0.0579 -0.0829,0.17012 -0.15712,0.26797 -0.22221,0.293 l -10e-4,0.66766 -0.35708,0.47801 -0.46251,-0.31523 c -0.0511,-0.0331 -0.12147,-0.0337 -0.21135,-0.002 0.0876,-0.0716 0.15427,-0.1051 0.19998,-0.10026 v -1.0144 c -0.0442,-0.003 -0.11036,-0.0389 -0.19792,-0.10646 0.0798,0.0286 0.14497,0.03 0.19534,0.004 z m 0.0114,0.8878 0.0651,0.0589 v 0.75448 l -0.0651,0.0584 z" />
    <path
       id="path256-0-8"
       style="fill:#ffffff;fill-opacity:1;stroke:none;stroke-width:0.250658;stroke-dasharray:none;stroke-opacity:1"
       d="m 204.31339,128.27655 c -0.63719,0.38995 -3.48713,2.94332 -3.48713,3.15278 0,0.0756 0.37506,0.4595 0.88057,0.93482 z" />
  </g>
</svg>
