<?xml version="1.0" encoding="UTF-8" standalone="no"?>
<!-- Created with Inkscape (http://www.inkscape.org/) -->

<svg
   width="6.1489787mm"
   height="6.1491237mm"
   viewBox="0 0 6.1489787 6.1491237"
   version="1.1"
   id="svg1"
   xmlns="http://www.w3.org/2000/svg"
   xmlns:svg="http://www.w3.org/2000/svg">
  <defs
     id="defs1">
    <linearGradient
       id="swatch4">
      <stop
         style="stop-color:#000000;stop-opacity:1;"
         offset="0"
         id="stop4" />
    </linearGradient>
  </defs>
  <g
     id="layer3"
     transform="translate(-178.04127,-166.2702)">
    <path
       id="path225-00-9-9"
       style="fill:#ffffff;fill-opacity:1;stroke:none;stroke-width:0.200527;stroke-dasharray:none;stroke-opacity:1"
       d="m 179.84218,166.27021 -0.015,0.015 0.0367,-0.015 z m 0.10801,0 0.31677,0.7798 1.69706,-10e-4 0.31057,-0.77876 z m 2.43447,0 0.008,0.003 -0.003,-0.003 z m 0.0765,0.0718 -0.31264,0.7891 1.18753,1.18804 0.77773,-0.32453 z m -2.69647,0.006 -1.64848,1.64848 0.78031,0.32091 1.18546,-1.18494 z m 0.48317,0.90175 -1.2268,1.22732 v 1.73529 l 1.2268,1.22784 1.7353,-0.001 1.22679,-1.2268 5.2e-4,-1.73529 -1.22731,-1.2268 z m -2.19108,0.80616 -0.0155,0.0155 v 0.0222 z m 6.13348,0.12557 -0.77928,0.32453 v 1.67276 l 0.77928,0.32867 z m -6.14898,0.001 v 2.32699 l 0.77928,-0.33486 v -1.6707 z m 2.79001,0.11783 c 0.017,0.10174 0.0729,0.1626 0.16743,0.18345 0.0945,0.0208 0.17676,0.002 0.2465,-0.0574 -0.0775,0.20349 -0.17291,0.30967 -0.28681,0.31884 -0.1139,0.009 -0.20415,-0.0424 -0.27078,-0.15503 l -0.12558,0.0749 z m 0.41754,0.1359 0.24185,0.20929 c 0.0504,0.0259 0.11501,0.0242 0.19482,-0.004 -0.0875,0.0676 -0.15324,0.10312 -0.1974,0.10645 v 0.3514 l -0.44287,0.154 0.44183,0.154 v 0.73328 c 0.10925,0.003 0.21088,0.0739 0.30541,0.21239 -0.0442,-0.0575 -0.14916,-0.0861 -0.31574,-0.0853 l -0.2279,-0.20981 v -0.64802 l -0.36018,-0.14263 0.36018,-0.16898 z m -0.0351,0.99374 -0.001,0.56379 c -0.11622,-0.0592 -0.23,-0.0624 -0.34158,-0.01 0.0387,-0.0934 0.13081,-0.131 0.27647,-0.11265 v -0.14108 c -0.0891,-0.0409 -0.17367,-0.0296 -0.25425,0.0346 0.0178,-0.0984 0.10239,-0.14617 0.25425,-0.14366 v -0.14522 z m -0.38705,0.52245 c 0.0256,0.10175 0.0791,0.16312 0.15968,0.18397 0.0806,0.0208 0.17238,0.002 0.27543,-0.0574 -0.0968,0.18681 -0.20494,0.28893 -0.32349,0.30644 -0.11777,0.0175 -0.22665,-0.03 -0.3266,-0.14263 l -0.17311,0.0625 z m -1.93787,0.41186 -0.76998,0.33177 1.65003,1.65002 0.31833,-0.78393 z m 4.45038,0.003 -1.20355,1.20354 0.33021,0.77205 1.64848,-1.64848 z m -5.29787,0.23254 v 0.0186 l 0.0139,0.014 z m 2.23087,1.03973 -0.31678,0.7798 h 2.32648 l -0.33642,-0.77928 z m -0.44235,0.7674 0.0124,0.0124 h 0.0176 z" />
  </g>
</svg>
