<?xml version="1.0" encoding="UTF-8" standalone="no"?>
<!-- Created with Inkscape (http://www.inkscape.org/) -->

<svg
   width="7.2042117mm"
   height="6.3448324mm"
   viewBox="0 0 7.2042117 6.3448324"
   version="1.1"
   id="svg1"
   xmlns="http://www.w3.org/2000/svg"
   xmlns:svg="http://www.w3.org/2000/svg">
  <defs
     id="defs1">
    <linearGradient
       id="swatch4">
      <stop
         style="stop-color:#000000;stop-opacity:1;"
         offset="0"
         id="stop4" />
    </linearGradient>
  </defs>
  <g
     id="layer3"
     transform="translate(-224.1413,-158.56319)">
    <path
       id="path34-81-8-39-2-3-1"
       style="fill:#ffffff;fill-opacity:1;stroke:none;stroke-width:0.200326;stroke-dasharray:none;stroke-opacity:1"
       d="m 227.67595,158.56319 c -0.53449,0.28392 -3.53466,2.96693 -3.53466,3.18171 0,0.0765 0.38354,0.46819 0.89762,0.95085 z m 0.13385,0 2.63549,4.13463 c 0.51521,-0.48363 0.90021,-0.87636 0.90021,-0.95292 0,-0.2149 -3.00364,-2.90028 -3.5357,-3.18171 z m -0.0667,0.26613 -2.45928,3.85816 2.46341,1.11053 2.4505,-1.1157 z m 0.045,1.87327 0.38137,0.31523 c 0.0511,0.0334 0.12148,0.0343 0.21135,0.003 -0.0876,0.0717 -0.15427,0.10526 -0.19998,0.10025 v 0.97669 c 0.0442,0.003 0.11036,0.0389 0.19792,0.10645 -0.0798,-0.0283 -0.14498,-0.0295 -0.19534,-0.004 l -0.41858,0.56793 c -0.0573,-0.0817 -0.12457,-0.13315 -0.20205,-0.154 -0.0775,-0.0209 -0.15507,-0.001 -0.23255,0.0579 0.0984,-0.19682 0.1946,-0.29762 0.28836,-0.30179 0.0937,-0.005 0.17469,0.0346 0.24288,0.11885 l 0.0801,-0.11265 v -1.19838 l -0.2651,-0.22531 -0.10542,0.0791 v 0.79685 c 0.0566,0.0117 0.10828,0.0613 0.15554,0.14883 l 0.20206,-0.29404 -0.001,0.14159 -0.26252,0.40515 c -0.0566,-0.10175 -0.1419,-0.16312 -0.2558,-0.18397 -0.11389,-0.0208 -0.20777,-0.001 -0.28215,0.0579 0.0442,-0.12843 0.11787,-0.19681 0.22169,-0.20515 v -0.62839 c -0.0922,0.0134 -0.17314,-0.0193 -0.24288,-0.0977 0.093,0.0108 0.17418,-0.0113 0.24392,-0.0672 z m -0.10439,0.31936 v 0.83406 l -0.0651,-0.0589 v -0.71676 z m 2.56367,1.85984 -2.40451,1.09347 v 0.93276 c 0.36199,-0.21531 1.51741,-1.20608 2.40451,-2.02623 z m -4.99608,0.0103 c 0.88385,0.81645 2.02802,1.79843 2.39055,2.01538 v -0.93638 z" />
  </g>
</svg>
