<?xml version="1.0" encoding="UTF-8" standalone="no"?>
<!-- Created with Inkscape (http://www.inkscape.org/) -->

<svg
   width="5.6699705mm"
   height="5.9008832mm"
   viewBox="0 0 5.6699705 5.9008832"
   version="1.1"
   id="svg1"
   xmlns="http://www.w3.org/2000/svg"
   xmlns:svg="http://www.w3.org/2000/svg">
  <defs
     id="defs1">
    <linearGradient
       id="swatch4">
      <stop
         style="stop-color:#000000;stop-opacity:1;"
         offset="0"
         id="stop4" />
    </linearGradient>
  </defs>
  <g
     id="layer3"
     transform="translate(-248.04052,-195.71752)">
    <path
       id="path237-317-04-307-0"
       style="fill:#ffffff;fill-opacity:1;stroke:none;stroke-width:0.200527;stroke-dasharray:none;stroke-opacity:1"
       d="m 250.87557,195.71751 c -0.12765,0 -1.63099,0.48824 -1.73426,0.56327 -0.10327,0.075 -1.03232,1.35396 -1.07177,1.47536 -0.0183,0.0563 -0.0276,0.4279 -0.0289,0.82062 0.008,-0.005 0.0144,-0.009 0.0227,-0.014 0.0745,-0.0438 0.17703,-0.097 0.29972,-0.15709 0.2454,-0.12015 0.57201,-0.26756 0.90796,-0.41135 0.33595,-0.14379 0.68048,-0.28357 0.96118,-0.38861 0.14035,-0.0525 0.26406,-0.0963 0.36639,-0.12815 0.0512,-0.0159 0.0965,-0.0286 0.13952,-0.0388 0.043,-0.0101 0.0759,-0.0207 0.15142,-0.0207 0.0755,0 0.10838,0.0105 0.15141,0.0207 0.043,0.0101 0.0884,0.0228 0.13952,0.0388 0.10233,0.0319 0.22604,0.0756 0.36639,0.12815 0.0307,0.0115 0.0686,0.027 0.10077,0.0393 0.004,-0.003 0.007,-0.006 0.0103,-0.009 -0.002,0.004 -0.004,0.007 -0.006,0.0109 0.008,0.003 0.0172,0.007 0.0253,0.01 0.002,-0.005 0.004,-0.009 0.006,-0.0145 v 0.0171 c 0.25384,0.0976 0.5388,0.21247 0.82475,0.33486 0.33595,0.14379 0.66257,0.2912 0.90796,0.41135 0.12024,0.0589 0.22047,0.11071 0.29455,0.15399 -0.002,-0.38625 -0.0109,-0.74812 -0.0289,-0.80357 -0.0394,-0.1214 -0.96901,-1.40033 -1.07228,-1.47536 -0.10327,-0.075 -1.60661,-0.56327 -1.73426,-0.56327 z m 0.0139,1.83554 c -0.002,3.3e-4 -0.002,1.2e-4 -0.004,5.2e-4 -0.0247,0.006 -0.0622,0.016 -0.10697,0.03 -0.0895,0.0279 -0.20838,0.0699 -0.34468,0.12093 -0.0627,0.0235 -0.13862,0.0542 -0.20774,0.0811 0.0409,0.0398 0.1043,0.0629 0.1912,0.0682 l -0.11007,0.14625 -0.001,1.38389 0.19741,0.0863 c 0.0496,-0.0567 0.11139,-0.0834 0.185,-0.0801 -0.0651,0.0335 -0.1513,0.12742 -0.25787,0.28009 9.2e-4,3.4e-4 0.002,6.9e-4 0.003,0.001 0.1363,0.051 0.25518,0.093 0.34468,0.12092 0.0447,0.0139 0.0823,0.0242 0.10697,0.03 0.002,4e-4 0.002,1.8e-4 0.004,5.1e-4 0.002,-3.3e-4 0.002,-1.1e-4 0.004,-5.1e-4 0.0247,-0.006 0.0622,-0.016 0.10697,-0.03 0.0693,-0.0216 0.16025,-0.0537 0.25942,-0.0899 l -0.35347,-0.001 c -0.13326,0.008 -0.24214,-0.0163 -0.32659,-0.0713 0.15031,0.004 0.24496,-0.0359 0.2837,-0.12092 v -0.38448 l 0.5948,-0.53381 v -0.60565 c 0.0483,-0.0325 0.0972,-0.0925 0.14624,-0.17932 -0.0109,-0.004 -0.0213,-0.008 -0.032,-0.0124 -0.093,0.1514 -0.18445,0.23836 -0.27337,0.25942 -0.11544,0.0275 -0.2282,-0.0307 -0.33899,-0.17415 l -0.13746,0.0713 0.21859,-0.32763 c 0.0434,0.10175 0.11347,0.1681 0.21032,0.19895 0.0633,0.0196 0.14337,-6.6e-4 0.23978,-0.0594 -0.0474,-0.0183 -0.10163,-0.0409 -0.14573,-0.0574 -0.1363,-0.051 -0.2557,-0.093 -0.3452,-0.12093 -0.0447,-0.0139 -0.0823,-0.0242 -0.10697,-0.03 -0.002,-4e-4 -0.002,-1.9e-4 -0.004,-5.2e-4 z m 0.79427,0.28422 v 0.71056 l -0.58136,0.51831 v 0.41031 l 0.5333,-0.002 c 0.0728,-0.17347 0.18119,-0.28757 0.32453,-0.34261 -0.11592,0.0713 -0.20466,0.20583 -0.26717,0.40307 0.19289,-0.077 0.3944,-0.15969 0.59841,-0.24701 0.33219,-0.14218 0.65621,-0.28796 0.89452,-0.40463 0.11916,-0.0583 0.21701,-0.10949 0.28216,-0.14779 0.0326,-0.0192 0.0567,-0.0354 0.0703,-0.046 9.8e-4,-7.7e-4 6.8e-4,-8.8e-4 0.002,-0.002 -8.2e-4,-7.4e-4 -5.2e-4,-8.5e-4 -0.002,-0.002 -0.0136,-0.0106 -0.0377,-0.0268 -0.0703,-0.046 -0.0651,-0.0383 -0.163,-0.0895 -0.28216,-0.1478 -0.23831,-0.11668 -0.56233,-0.26244 -0.89452,-0.40462 -0.20742,-0.0888 -0.4121,-0.17213 -0.60771,-0.25012 z m -1.79162,0.0816 c -0.1335,0.0546 -0.26901,0.11042 -0.40463,0.16847 -0.33219,0.14218 -0.65569,0.28794 -0.894,0.40462 -0.11916,0.0583 -0.21701,0.10949 -0.28216,0.1478 -0.0326,0.0191 -0.0567,0.0354 -0.0703,0.046 -9.8e-4,7.7e-4 -6.8e-4,8.8e-4 -0.002,0.002 8.2e-4,7.4e-4 5.2e-4,8.5e-4 0.002,0.002 0.0136,0.0106 0.0377,0.0268 0.0703,0.046 0.0652,0.0383 0.163,0.0894 0.28216,0.14779 0.23831,0.11667 0.56181,0.26245 0.894,0.40463 0.19713,0.0844 0.39235,0.16479 0.57981,0.23978 0.004,-0.008 0.009,-0.016 0.0124,-0.0243 l 0.001,-1.49862 c -0.0411,-0.007 -0.0726,-0.0255 -0.0951,-0.0563 l -0.1943,0.0698 z m 0.5364,0 v 1.34204 l -0.0651,0.0589 v -1.30948 z m 1.00304,0.0827 -0.002,0.56379 c -0.11622,-0.0592 -0.23001,-0.0624 -0.34158,-0.01 0.0387,-0.0934 0.1308,-0.13101 0.27647,-0.11266 v -0.14107 c -0.0891,-0.0409 -0.17367,-0.0296 -0.25425,0.0346 0.0178,-0.0984 0.10238,-0.14616 0.25425,-0.14366 v -0.14521 z m -3.39101,0.79633 c 0.002,0.37797 0.0113,0.72745 0.0289,0.78186 0.0394,0.12141 0.9685,1.40034 1.07177,1.47537 0.10327,0.075 1.60661,0.56327 1.73426,0.56327 0.12765,0 1.63099,-0.48824 1.73426,-0.56327 0.10327,-0.075 1.03284,-1.35396 1.07229,-1.47537 0.0174,-0.0536 0.0264,-0.39354 0.0284,-0.76481 -0.0741,0.0433 -0.17399,0.0952 -0.29404,0.154 -0.2454,0.12014 -0.57201,0.26755 -0.90796,0.41134 -0.33594,0.1438 -0.681,0.28358 -0.9617,0.38861 -0.14034,0.0525 -0.26406,0.0963 -0.36638,0.12816 -0.0512,0.0159 -0.0965,0.0291 -0.13953,0.0393 -0.043,0.0101 -0.0759,0.0201 -0.15141,0.0201 -0.0755,0 -0.10838,-0.01 -0.15141,-0.0201 -0.043,-0.0101 -0.0884,-0.0233 -0.13953,-0.0393 -0.10232,-0.0319 -0.22604,-0.0756 -0.36638,-0.12816 -0.0685,-0.0256 -0.14928,-0.0585 -0.22428,-0.0879 -0.0363,0.0101 -0.0793,0.0168 -0.13022,0.0191 0.026,-0.0124 0.0495,-0.0266 0.0713,-0.0419 -0.21675,-0.0855 -0.44546,-0.17848 -0.678,-0.27802 -0.33595,-0.14379 -0.66256,-0.2912 -0.90795,-0.41134 -0.1227,-0.0601 -0.22524,-0.1133 -0.29973,-0.1571 -0.008,-0.005 -0.0151,-0.009 -0.0227,-0.0139 z" />
  </g>
</svg>
