<?xml version="1.0" encoding="UTF-8" standalone="no"?>
<!-- Created with Inkscape (http://www.inkscape.org/) -->

<svg
   width="5.7250381mm"
   height="5.6291299mm"
   viewBox="0 0 5.7250381 5.6291299"
   version="1.1"
   id="svg1"
   xmlns="http://www.w3.org/2000/svg"
   xmlns:svg="http://www.w3.org/2000/svg">
  <defs
     id="defs1">
    <linearGradient
       id="swatch4">
      <stop
         style="stop-color:#000000;stop-opacity:1;"
         offset="0"
         id="stop4" />
    </linearGradient>
  </defs>
  <g
     id="layer3"
     transform="translate(-185.82539,-188.74895)">
    <path
       id="path24-11-10-70-3"
       style="display:inline;fill:#ffffff;fill-opacity:1;stroke:none;stroke-width:0.200527;stroke-dasharray:none;stroke-opacity:1"
       d="m 188.68764,188.74894 c -1.16547,0 -2.32855,0.0383 -2.64067,0.11421 l 2.6665,1.89445 2.59261,-1.90014 c -0.34404,-0.0724 -1.48079,-0.10852 -2.61844,-0.10852 z m 2.75642,0.2558 -2.56935,1.8836 c 0.0366,0.0272 0.0754,0.0602 0.11989,0.10181 0.0994,0.093 0.22202,0.22296 0.36121,0.37827 0.2784,0.31061 0.62086,0.72419 0.95085,1.1436 0.32999,0.4194 0.64697,0.84393 0.87437,1.17615 0.11369,0.16612 0.20459,0.30944 0.26458,0.4191 0.005,0.009 0.008,0.0163 0.0129,0.0248 0.12718,-0.88983 0.12241,-4.44122 -0.0145,-5.12733 z m -5.51594,0.0202 c -0.13549,0.74634 -0.13711,4.35137 -0.004,5.15163 0.0105,-0.0216 0.0224,-0.0442 0.0362,-0.0693 0.06,-0.10966 0.15088,-0.25298 0.26458,-0.4191 0.22739,-0.33222 0.54438,-0.75675 0.87436,-1.17615 0.32999,-0.41941 0.67297,-0.83299 0.95137,-1.1436 0.1392,-0.15531 0.26127,-0.28532 0.3607,-0.37827 0.0479,-0.0448 0.0907,-0.0803 0.12971,-0.10852 z m 2.7745,1.98076 c -0.0268,0.0195 -0.0631,0.0504 -0.10697,0.0915 -0.092,0.086 -0.21267,0.21229 -0.34985,0.36535 -0.27436,0.30611 -0.61535,0.71813 -0.94361,1.13533 -0.32825,0.4172 -0.64407,0.83996 -0.86816,1.16737 -0.11205,0.16371 -0.20079,0.30415 -0.25632,0.40566 -0.0265,0.0485 -0.0436,0.0864 -0.0532,0.11317 0.0365,0.007 0.0904,0.0154 0.1602,0.0227 0.14756,0.0155 0.35694,0.0286 0.60616,0.0393 0.49846,0.0213 1.15527,0.032 1.81178,0.032 0.65651,0 1.31384,-0.0108 1.81229,-0.032 0.24923,-0.0106 0.45964,-0.0238 0.6072,-0.0393 0.0702,-0.007 0.12376,-0.0155 0.1602,-0.0227 -0.01,-0.0268 -0.0277,-0.0647 -0.0543,-0.11317 -0.0555,-0.10151 -0.14427,-0.24195 -0.25632,-0.40566 -0.22409,-0.32741 -0.54042,-0.75017 -0.86868,-1.16737 -0.0981,-0.1247 -0.1968,-0.24737 -0.29507,-0.36845 -0.071,0.0828 -0.15013,0.12675 -0.23823,0.13022 -0.12629,0.005 -0.2287,-0.0278 -0.30696,-0.0987 l -0.13694,0.0625 0.30644,-0.35295 c 0.0202,0.10174 0.0822,0.16312 0.18604,0.18397 0.0462,0.009 0.0901,0.01 0.13177,0.004 -0.20997,-0.25704 -0.4146,-0.49912 -0.59066,-0.69556 -0.13718,-0.15306 -0.2573,-0.27932 -0.34933,-0.36535 -0.0439,-0.0411 -0.0807,-0.072 -0.10749,-0.0915 z m -0.80408,0.95343 c 0.0434,0.10175 0.11347,0.1681 0.21032,0.19895 0.0969,0.03 0.23236,-0.0315 0.40669,-0.185 -0.12319,0.2502 -0.24292,0.38899 -0.35915,0.41651 -0.11544,0.0275 -0.22871,-0.0302 -0.33951,-0.17363 l -0.13694,0.0713 z m 0.64234,0.0202 v 0.90589 l -0.58085,0.5178 v 0.41031 l 0.5333,-0.002 c 0.0728,-0.17347 0.18119,-0.28757 0.32453,-0.34261 -0.14644,0.0901 -0.2504,0.28048 -0.31161,0.57154 l -0.74259,-0.002 c -0.13327,0.008 -0.24214,-0.0163 -0.32659,-0.0713 0.15031,0.004 0.24444,-0.0364 0.28318,-0.12144 v -0.38396 l 0.59532,-0.53433 v -0.60565 c 0.0744,-0.05 0.14937,-0.16414 0.22531,-0.34262 z m -0.25218,0.35916 -0.001,0.5643 c -0.11622,-0.0592 -0.23,-0.0629 -0.34158,-0.0103 0.0387,-0.0934 0.13081,-0.13101 0.27647,-0.11266 v -0.14107 c -0.0891,-0.0409 -0.17366,-0.0291 -0.25425,0.0351 0.0178,-0.0984 0.10239,-0.14668 0.25425,-0.14418 v -0.14521 z m 1.37976,0.0325 v 1.06454 l 0.22065,0.001 v 0.0816 l -0.22065,-0.003 v 0.1602 l 0.092,0.0713 c 0.0349,-0.055 0.0944,-0.0816 0.1788,-0.0791 -0.0581,0.0292 -0.14837,0.156 -0.27079,0.38034 l -0.19637,-0.14625 c -0.0744,0.0742 -0.17265,0.12107 -0.29507,0.14108 0.1015,-0.0642 0.17701,-0.1455 0.22738,-0.24391 v -0.26252 h -0.55656 v -0.0951 l 0.55656,0.001 v -1.06453 c 0.0883,0.0317 0.17651,0.0295 0.26406,-0.007 z m -0.27906,0.0124 c -0.10692,0.04 -0.21088,0.34547 -0.31161,0.91674 -0.14334,0.12927 -0.29617,0.16392 -0.45888,0.10387 0.11854,0.0275 0.2481,-0.13636 0.38912,-0.49247 0.14102,-0.35611 0.26825,-0.53231 0.38137,-0.52814 z" />
  </g>
</svg>
