<?xml version="1.0" encoding="UTF-8" standalone="no"?>
<!-- Created with Inkscape (http://www.inkscape.org/) -->

<svg
   width="6.1489787mm"
   height="6.1491399mm"
   viewBox="0 0 6.1489787 6.1491399"
   version="1.1"
   id="svg1"
   xmlns="http://www.w3.org/2000/svg"
   xmlns:svg="http://www.w3.org/2000/svg">
  <defs
     id="defs1">
    <linearGradient
       id="swatch4">
      <stop
         style="stop-color:#000000;stop-opacity:1;"
         offset="0"
         id="stop4" />
    </linearGradient>
  </defs>
  <g
     id="layer3"
     transform="translate(-224.66893,-166.28053)">
    <path
       id="path225-00-83-8"
       style="fill:#ffffff;fill-opacity:1;stroke:none;stroke-width:0.200527;stroke-dasharray:none;stroke-opacity:1"
       d="m 226.46983,166.28054 -0.015,0.015 0.0367,-0.015 z m 0.108,0 0.31678,0.7798 1.69705,-0.001 0.31058,-0.77877 z m 2.43448,0 0.008,0.003 -0.003,-0.003 z m 0.0765,0.0718 -0.31264,0.7891 1.18752,1.18804 0.77773,-0.32452 z m -2.69648,0.006 -1.64848,1.64847 0.78032,0.32091 1.18545,-1.18494 z m 0.48318,0.90175 -1.2268,1.22731 v 1.7353 l 1.2268,1.22783 1.73529,-10e-4 1.2268,-1.2268 5.2e-4,-1.7353 -1.22732,-1.22679 z m -2.19109,0.80615 -0.0155,0.0155 v 0.0222 z m 6.13348,0.12558 -0.77928,0.32452 v 1.67277 l 0.77928,0.32866 z m -6.14898,0.001 v 2.32699 l 0.77928,-0.33486 v -1.6707 z m 3.11919,0.12919 0.38137,0.31523 c 0.0511,0.0334 0.12148,0.0343 0.21136,0.003 -0.0876,0.0717 -0.15427,0.10526 -0.19999,0.10025 v 0.9772 c 0.0442,0.003 0.11037,0.0384 0.19792,0.10594 -0.0798,-0.0283 -0.14497,-0.0295 -0.19533,-0.004 l -0.41858,0.56793 c -0.0573,-0.0817 -0.12458,-0.13315 -0.20206,-0.154 -0.0775,-0.0208 -0.15506,-0.001 -0.23254,0.0579 0.0984,-0.19682 0.1946,-0.29762 0.28835,-0.30179 0.0937,-0.005 0.1747,0.0346 0.24288,0.11885 l 0.0801,-0.11265 v -1.19838 l -0.2651,-0.22479 -0.10542,0.0785 v 0.79685 c 0.0566,0.0117 0.10828,0.0613 0.15555,0.14883 l 0.20205,-0.29404 -0.001,0.14159 -0.26251,0.40515 c -0.0566,-0.10175 -0.1419,-0.16312 -0.2558,-0.18397 -0.1139,-0.0208 -0.20777,-10e-4 -0.28216,0.0579 0.0442,-0.12843 0.11787,-0.19681 0.2217,-0.20515 v -0.62839 c -0.0922,0.0134 -0.17315,-0.0187 -0.24288,-0.0971 0.093,0.0108 0.17418,-0.0118 0.24391,-0.0677 z m -0.10438,0.31936 v 0.83406 l -0.0651,-0.0584 v -0.71727 z m -2.16731,1.73323 -0.76998,0.33176 1.65002,1.65003 0.31833,-0.78393 z m 4.45037,0.003 -1.20354,1.20355 0.33021,0.77204 1.64848,-1.64848 z m -5.29787,0.23255 v 0.0186 l 0.014,0.0139 z m 2.23087,1.03973 -0.31677,0.77979 h 2.32647 l -0.33641,-0.77928 z m -0.44235,0.76739 0.0124,0.0124 h 0.0176 z" />
  </g>
</svg>
