<?xml version="1.0" encoding="UTF-8" standalone="no"?>
<!-- Created with Inkscape (http://www.inkscape.org/) -->

<svg
   width="5.7250223mm"
   height="5.6291299mm"
   viewBox="0 0 5.7250223 5.6291299"
   version="1.1"
   id="svg1"
   xmlns="http://www.w3.org/2000/svg"
   xmlns:svg="http://www.w3.org/2000/svg">
  <defs
     id="defs1">
    <linearGradient
       id="swatch4">
      <stop
         style="stop-color:#000000;stop-opacity:1;"
         offset="0"
         id="stop4" />
    </linearGradient>
  </defs>
  <g
     id="layer3"
     transform="translate(-170.44547,-188.74895)">
    <path
       id="path24-11-10-21-8"
       style="display:inline;fill:#ffffff;fill-opacity:1;stroke:none;stroke-width:0.200527;stroke-dasharray:none;stroke-opacity:1"
       d="m 173.3077,188.74894 c -1.16547,0 -2.32855,0.0383 -2.64067,0.11421 l 2.66651,1.89445 2.5926,-1.90014 c -0.34404,-0.0724 -1.48079,-0.10852 -2.61844,-0.10852 z m 2.75642,0.2558 -2.56935,1.8836 c 0.0366,0.0272 0.0754,0.0602 0.11989,0.10181 0.0994,0.093 0.22202,0.22296 0.36121,0.37827 0.2784,0.31061 0.62086,0.72419 0.95085,1.1436 0.32999,0.4194 0.64697,0.84393 0.87437,1.17615 0.11369,0.16612 0.20459,0.30944 0.26458,0.4191 0.005,0.009 0.008,0.0163 0.0129,0.0248 0.12718,-0.88983 0.12241,-4.44122 -0.0145,-5.12733 z m -5.51594,0.0202 c -0.13548,0.74634 -0.1371,4.35137 -0.004,5.15163 0.0105,-0.0216 0.0224,-0.0442 0.0362,-0.0693 0.06,-0.10966 0.15088,-0.25298 0.26458,-0.4191 0.22739,-0.33222 0.54438,-0.75675 0.87437,-1.17615 0.32998,-0.41941 0.67296,-0.83299 0.95136,-1.1436 0.1392,-0.15531 0.26127,-0.28532 0.3607,-0.37827 0.0479,-0.0448 0.0907,-0.0803 0.12971,-0.10852 z m 2.7745,1.98076 c -0.0268,0.0195 -0.0631,0.0504 -0.10697,0.0915 -0.092,0.086 -0.21267,0.21229 -0.34985,0.36535 -0.27436,0.30611 -0.61535,0.71813 -0.94361,1.13533 -0.32825,0.4172 -0.64407,0.83996 -0.86816,1.16737 -0.11205,0.16371 -0.20079,0.30415 -0.25632,0.40566 -0.0265,0.0485 -0.0436,0.0864 -0.0532,0.11317 0.0365,0.007 0.0904,0.0154 0.1602,0.0227 0.14756,0.0155 0.35694,0.0286 0.60617,0.0393 0.49845,0.0213 1.15526,0.032 1.81177,0.032 0.65651,0 1.31384,-0.0108 1.81229,-0.032 0.24923,-0.0107 0.45964,-0.0238 0.6072,-0.0393 0.0702,-0.007 0.12376,-0.0155 0.1602,-0.0227 -0.01,-0.0268 -0.0277,-0.0647 -0.0543,-0.11317 -0.0555,-0.10151 -0.14427,-0.24195 -0.25632,-0.40566 -0.22409,-0.32741 -0.54042,-0.75017 -0.86868,-1.16737 -0.13622,-0.17314 -0.27382,-0.34331 -0.40876,-0.50746 v 0.85628 l -0.58084,0.51779 v 0.41032 l 0.5333,-0.001 c 0.0728,-0.17347 0.18119,-0.28809 0.32453,-0.34313 -0.14644,0.0901 -0.2504,0.281 -0.31161,0.57206 l -0.74259,-0.003 c -0.13327,0.008 -0.24214,-0.0163 -0.3266,-0.0713 0.15032,0.004 0.24497,-0.0364 0.28371,-0.12144 v -0.38395 l 0.59479,-0.53434 v -0.60513 c 0.0697,-0.0469 0.13976,-0.15135 0.21084,-0.31109 -0.006,-0.008 -0.0124,-0.0157 -0.0186,-0.0233 -0.12045,0.24033 -0.23762,0.37459 -0.3514,0.40153 -0.11544,0.0275 -0.22871,-0.0302 -0.33951,-0.17363 l -0.13694,0.0713 0.21859,-0.32763 c 0.0434,0.10175 0.11347,0.16758 0.21032,0.19844 0.0946,0.0293 0.22629,-0.0295 0.39481,-0.17518 -0.17688,-0.21423 -0.34764,-0.41451 -0.49765,-0.58188 -0.13717,-0.15306 -0.2573,-0.27932 -0.34933,-0.36535 -0.0439,-0.0411 -0.0807,-0.072 -0.10749,-0.0915 z m -0.83612,1.01544 c 0.0434,0.10175 0.11347,0.16758 0.21032,0.19844 0.0969,0.03 0.23236,-0.0315 0.4067,-0.185 -0.1232,0.25019 -0.24293,0.38899 -0.35916,0.41651 -0.11544,0.0275 -0.22871,-0.0302 -0.33951,-0.17363 l -0.13694,0.0713 z m 0.64234,0.0196 v 0.90589 l -0.58085,0.51779 v 0.41032 l 0.5333,-0.001 c 0.0728,-0.17347 0.18119,-0.28809 0.32453,-0.34313 -0.14644,0.0901 -0.2504,0.281 -0.31161,0.57206 l -0.74259,-0.003 c -0.13326,0.008 -0.24214,-0.0163 -0.32659,-0.0713 0.15031,0.004 0.24496,-0.0364 0.2837,-0.12144 v -0.38395 l 0.5948,-0.53434 v -0.60513 c 0.0744,-0.05 0.14938,-0.16466 0.22531,-0.34313 z m -0.25218,0.35915 -0.001,0.56431 c -0.11623,-0.0592 -0.23001,-0.0629 -0.34158,-0.0103 0.0387,-0.0934 0.1308,-0.13048 0.27646,-0.11214 v -0.14159 c -0.0891,-0.0409 -0.17366,-0.0291 -0.25424,0.0351 0.0178,-0.0984 0.10238,-0.14668 0.25424,-0.14418 v -0.14469 z m 1.18545,0 -0.001,0.56431 c -0.11622,-0.0592 -0.23,-0.0629 -0.34158,-0.0103 0.0387,-0.0934 0.13081,-0.13048 0.27647,-0.11214 v -0.14159 c -0.0891,-0.0409 -0.17367,-0.0291 -0.25425,0.0351 0.0178,-0.0984 0.10239,-0.14668 0.25425,-0.14418 v -0.14469 z" />
  </g>
</svg>
