<?xml version="1.0" encoding="UTF-8" standalone="no"?>
<!-- Created with Inkscape (http://www.inkscape.org/) -->

<svg
   width="5.6704226mm"
   height="5.9011741mm"
   viewBox="0 0 5.6704226 5.9011741"
   version="1.1"
   id="svg1"
   xmlns="http://www.w3.org/2000/svg"
   xmlns:svg="http://www.w3.org/2000/svg">
  <defs
     id="defs1">
    <linearGradient
       id="swatch4">
      <stop
         style="stop-color:#000000;stop-opacity:1;"
         offset="0"
         id="stop4" />
    </linearGradient>
  </defs>
  <g
     id="layer3"
     transform="translate(-209.19804,-202.4145)">
    <path
       id="path237-317-04-67-3"
       style="fill:#ffffff;fill-opacity:1;stroke:none;stroke-width:0.200527;stroke-dasharray:none;stroke-opacity:1"
       d="m 212.03298,202.41477 c -0.12765,0 -1.63099,0.48825 -1.73426,0.56328 -0.10327,0.075 -1.03232,1.35396 -1.07177,1.47536 -0.0183,0.0563 -0.0276,0.4279 -0.0289,0.82062 0.008,-0.005 0.0144,-0.009 0.0227,-0.014 0.0745,-0.0438 0.17703,-0.097 0.29972,-0.1571 0.2454,-0.12015 0.57201,-0.26755 0.90796,-0.41134 0.33595,-0.14379 0.68048,-0.28357 0.96118,-0.38861 0.14035,-0.0525 0.26406,-0.0963 0.36639,-0.12816 0.0512,-0.0159 0.0965,-0.0286 0.13952,-0.0388 0.043,-0.0101 0.0759,-0.0207 0.15142,-0.0207 0.0755,0 0.10838,0.0105 0.15141,0.0207 0.043,0.0101 0.0884,0.0228 0.13952,0.0388 0.10233,0.0319 0.22604,0.0756 0.36639,0.12816 0.0841,0.0315 0.18223,0.0711 0.27595,0.108 0.0496,-0.0215 0.10013,-0.0479 0.15245,-0.0801 -0.0274,0.0389 -0.0548,0.0744 -0.0822,0.10749 0.005,0.002 0.0105,0.004 0.016,0.006 l 0.0512,-0.0739 c -0.0116,0.0264 -0.0229,0.0536 -0.0341,0.0806 0.18891,0.0755 0.38484,0.15574 0.58239,0.2403 0.33595,0.14379 0.66256,0.29119 0.90795,0.41134 0.12024,0.0589 0.22047,0.11072 0.29456,0.154 -0.002,-0.38625 -0.0109,-0.74812 -0.0289,-0.80357 -0.0395,-0.1214 -0.96901,-1.40033 -1.07229,-1.47536 -0.10327,-0.075 -1.60661,-0.56328 -1.73426,-0.56328 z m 0.014,1.83555 c -0.002,3.3e-4 -0.002,1.2e-4 -0.004,5.2e-4 -0.0247,0.006 -0.0622,0.016 -0.10697,0.03 -0.0895,0.0279 -0.20838,0.0699 -0.34468,0.12092 -0.0397,0.0149 -0.0888,0.0354 -0.13126,0.0517 0.0329,0.0285 0.0713,0.0501 0.11524,0.0641 0.0968,0.03 0.23236,-0.0321 0.40669,-0.18552 -0.12319,0.25019 -0.24292,0.38899 -0.35915,0.41651 -0.11544,0.0275 -0.22871,-0.0302 -0.33951,-0.17363 l -0.13694,0.0713 0.063,-0.0946 c -0.18276,0.0733 -0.37341,0.15113 -0.56483,0.23306 -0.33218,0.14218 -0.65569,0.28795 -0.894,0.40463 -0.11915,0.0583 -0.21701,0.10948 -0.28215,0.14779 -0.0326,0.0191 -0.0567,0.0354 -0.0703,0.046 -9.9e-4,7.7e-4 -6.9e-4,8.7e-4 -0.001,0.002 8.1e-4,7.4e-4 5.1e-4,8.5e-4 0.001,0.002 0.0136,0.0106 0.0377,0.0268 0.0703,0.046 0.0651,0.0383 0.163,0.0894 0.28215,0.1478 0.23831,0.11667 0.56182,0.26244 0.894,0.40462 0.18211,0.0779 0.36457,0.15337 0.5395,0.22376 7.9e-4,-0.002 0.002,-0.003 0.003,-0.005 v -0.38395 l 0.59532,-0.53434 v -0.60513 c 0.0744,-0.05 0.14937,-0.16466 0.22531,-0.34313 v 0.90589 l -0.58085,0.5178 v 0.41031 l 0.5333,-0.001 c 0.0728,-0.17347 0.18119,-0.28757 0.32453,-0.34261 -0.14644,0.0901 -0.2504,0.28048 -0.31161,0.57154 l -0.29765,-0.001 c 0.0999,0.0365 0.19116,0.0686 0.26096,0.0904 0.0447,0.0139 0.0823,0.0242 0.10697,0.03 0.002,4e-4 0.002,1.9e-4 0.004,5.2e-4 0.002,-3.3e-4 0.002,-1.2e-4 0.004,-5.2e-4 0.0247,-0.006 0.0622,-0.016 0.10697,-0.03 0.0895,-0.0279 0.2089,-0.0699 0.3452,-0.12092 0.0244,-0.009 0.0552,-0.0218 0.0806,-0.0315 l -0.092,-0.032 c -0.10847,0.0993 -0.24476,0.12984 -0.40824,0.0915 0.16736,0.004 0.28942,-0.0613 0.36535,-0.19637 0.0615,-0.27597 0.12152,-0.51917 0.18035,-0.7307 -0.0549,-0.0124 -0.10213,-0.0349 -0.14108,-0.0677 l -0.13384,0.0465 0.21394,-0.20929 c 0.0238,0.0363 0.0585,0.0633 0.10336,0.0811 0.10288,-0.3464 0.20171,-0.59104 0.2961,-0.73587 -0.0136,-0.006 -0.0258,-0.0101 -0.0393,-0.0155 -0.0962,0.0867 -0.19189,0.13723 -0.2868,0.15141 -0.16116,0.0234 -0.28736,-0.0131 -0.37879,-0.10904 l -0.17467,0.0791 0.26872,-0.34107 c -0.0747,-0.0267 -0.14386,-0.051 -0.19895,-0.0682 -0.0447,-0.0139 -0.0823,-0.0242 -0.10697,-0.03 -0.002,-4e-4 -0.002,-1.9e-4 -0.004,-5.2e-4 z m 0.33331,0.10697 c 0.0571,0.0679 0.15009,0.10738 0.28061,0.11731 0.01,6.6e-4 0.0193,3.6e-4 0.0289,5.1e-4 -0.0618,-0.024 -0.13049,-0.0522 -0.18707,-0.0734 -0.0439,-0.0164 -0.0825,-0.03 -0.12247,-0.0444 z m 0.64234,0.25011 c -0.0841,0.22754 -0.15441,0.47348 -0.21032,0.73794 0.10671,0.003 0.22371,-0.0238 0.35088,-0.0811 -0.12738,0.13298 -0.25341,0.20418 -0.37775,0.21446 -0.0362,0.19111 -0.0652,0.39147 -0.0873,0.601 l 0.19792,0.0863 c 0.0496,-0.0567 0.11088,-0.0834 0.18448,-0.0801 -0.0346,0.0178 -0.0752,0.0526 -0.12144,0.10387 0.15925,-0.0646 0.32573,-0.13386 0.4899,-0.20413 0.33218,-0.14218 0.65621,-0.28795 0.89451,-0.40462 0.11916,-0.0583 0.21701,-0.1095 0.28216,-0.1478 0.0326,-0.0192 0.0567,-0.0354 0.0703,-0.046 9.9e-4,-7.7e-4 6.9e-4,-8.8e-4 0.002,-0.002 -8.1e-4,-7.4e-4 -5.1e-4,-8.4e-4 -0.002,-0.002 -0.0136,-0.0106 -0.0377,-0.0268 -0.0703,-0.046 -0.0651,-0.0383 -0.163,-0.0895 -0.28216,-0.14779 -0.2383,-0.11668 -0.56233,-0.26245 -0.89451,-0.40463 -0.14287,-0.0611 -0.28626,-0.12002 -0.42633,-0.17725 z m -1.2671,0.0899 -0.001,0.56431 c -0.11623,-0.0592 -0.23001,-0.0624 -0.34158,-0.01 0.0387,-0.0934 0.1308,-0.131 0.27646,-0.11266 v -0.14139 c -0.0891,-0.0409 -0.17418,-0.0291 -0.25476,0.0351 0.0178,-0.0984 0.1029,-0.14616 0.25476,-0.14366 v -0.14521 z m -2.55747,0.79788 c 0.002,0.37797 0.0113,0.72746 0.0289,0.78187 0.0394,0.12141 0.9685,1.40033 1.07177,1.47536 0.10327,0.075 1.60661,0.56327 1.73426,0.56327 0.12765,0 1.63099,-0.48824 1.73426,-0.56327 0.10327,-0.075 1.03284,-1.35395 1.07229,-1.47536 0.0174,-0.0536 0.0264,-0.39354 0.0284,-0.76481 -0.0741,0.0433 -0.17399,0.0952 -0.29404,0.15399 -0.2454,0.12014 -0.57201,0.26756 -0.90796,0.41135 -0.33594,0.1438 -0.681,0.28358 -0.9617,0.38861 -0.14034,0.0525 -0.26406,0.0963 -0.36638,0.12815 -0.0512,0.0159 -0.0965,0.0291 -0.13953,0.0393 -0.043,0.0101 -0.0759,0.0202 -0.15141,0.0202 -0.0755,0 -0.10838,-0.01 -0.15141,-0.0202 -0.043,-0.0101 -0.0884,-0.0233 -0.13953,-0.0393 -0.10232,-0.0319 -0.22604,-0.0756 -0.36638,-0.12815 -0.0533,-0.0199 -0.11727,-0.046 -0.17467,-0.0682 -0.12616,0.005 -0.22997,-0.019 -0.31109,-0.0718 0.041,0.001 0.0774,-0.001 0.11007,-0.007 -0.18977,-0.0759 -0.38674,-0.15677 -0.58549,-0.24184 -0.33595,-0.14379 -0.66257,-0.29121 -0.90796,-0.41135 -0.1227,-0.0601 -0.22524,-0.11329 -0.29972,-0.15709 -0.008,-0.005 -0.0151,-0.009 -0.0227,-0.014 z m 3.39462,0.0429 -0.18758,0.65784 c -0.0953,-0.0517 -0.20599,-0.0173 -0.33228,0.10283 0.0682,-0.15679 0.17188,-0.23178 0.31057,-0.22427 l 0.0496,-0.1447 c -0.0744,-0.035 -0.16334,-0.0169 -0.26716,0.0548 0.0527,-0.10258 0.15483,-0.15806 0.30592,-0.1664 l 0.0729,-0.22996 z" />
  </g>
</svg>
