<?xml version="1.0" encoding="UTF-8" standalone="no"?>
<!-- Created with Inkscape (http://www.inkscape.org/) -->

<svg
   width="5.6707463mm"
   height="5.9009795mm"
   viewBox="0 0 5.6707463 5.9009795"
   version="1.1"
   id="svg1"
   xmlns="http://www.w3.org/2000/svg"
   xmlns:svg="http://www.w3.org/2000/svg">
  <defs
     id="defs1">
    <linearGradient
       id="swatch4">
      <stop
         style="stop-color:#000000;stop-opacity:1;"
         offset="0"
         id="stop4" />
    </linearGradient>
  </defs>
  <g
     id="layer3"
     transform="translate(-232.1821,-202.4519)">
    <path
       id="path237-317-04-0-8"
       style="fill:#ffffff;fill-opacity:1;stroke:none;stroke-width:0.200527;stroke-dasharray:none;stroke-opacity:1"
       d="m 235.01711,202.45198 c -0.12765,0 -1.63099,0.48824 -1.73426,0.56327 -0.10327,0.075 -1.03233,1.35397 -1.07177,1.47537 -0.0183,0.0563 -0.0276,0.4279 -0.0289,0.82062 0.008,-0.005 0.0144,-0.009 0.0227,-0.014 0.0745,-0.0438 0.17703,-0.097 0.29972,-0.15709 0.2454,-0.12015 0.57201,-0.26756 0.90796,-0.41135 0.27951,-0.11963 0.55698,-0.23176 0.80667,-0.32814 l 0.0377,-0.0512 c 0.002,0.0117 0.005,0.023 0.008,0.0336 0.035,-0.0134 0.0757,-0.0304 0.10903,-0.0429 0.14035,-0.0525 0.26407,-0.0963 0.36639,-0.12816 0.0512,-0.0159 0.0965,-0.0286 0.13953,-0.0388 0.043,-0.0101 0.0759,-0.0207 0.15141,-0.0207 0.0755,0 0.10838,0.0105 0.15141,0.0207 0.043,0.0101 0.0884,0.0228 0.13953,0.0388 0.10232,0.0319 0.22603,0.0756 0.36638,0.12816 0.2807,0.10504 0.62575,0.24481 0.9617,0.3886 0.33595,0.14379 0.66256,0.2912 0.90796,0.41135 0.12023,0.0589 0.22046,0.11071 0.29455,0.15399 -0.002,-0.38625 -0.0109,-0.74811 -0.0289,-0.80356 -0.0395,-0.1214 -0.96901,-1.40034 -1.07228,-1.47537 -0.10328,-0.075 -1.60661,-0.56327 -1.73427,-0.56327 z m 0.0139,1.83555 c -0.002,3.3e-4 -0.002,1.1e-4 -0.004,5.1e-4 -0.0247,0.006 -0.0622,0.016 -0.10697,0.03 -0.0895,0.0279 -0.20839,0.0699 -0.34468,0.12092 -0.0604,0.0226 -0.13363,0.0522 -0.19999,0.078 0.0149,0.007 0.031,0.0127 0.0486,0.0165 0.0945,0.0208 0.17625,0.002 0.24598,-0.0574 -0.0775,0.20349 -0.17291,0.30967 -0.28681,0.31884 -0.11389,0.009 -0.20415,-0.0424 -0.27078,-0.15503 l -0.12557,0.0749 0.0455,-0.0615 c -0.13317,0.0545 -0.26832,0.11056 -0.4036,0.16846 -0.33218,0.14218 -0.65569,0.28795 -0.894,0.40463 -0.11915,0.0583 -0.21701,0.10948 -0.28215,0.14779 -0.0326,0.0191 -0.0567,0.0354 -0.0703,0.046 -9.9e-4,7.7e-4 -6.9e-4,8.8e-4 -0.002,0.002 8.1e-4,7.4e-4 5.1e-4,8.5e-4 0.002,0.002 0.0136,0.0106 0.0377,0.0268 0.0703,0.046 0.0652,0.0383 0.163,0.0894 0.28215,0.14779 0.23831,0.11667 0.56182,0.26245 0.894,0.40463 0.13806,0.0591 0.27611,0.11605 0.41186,0.17157 l 0.21136,-0.19224 c 0.0256,0.10175 0.0786,0.16312 0.15916,0.18397 0.0806,0.0208 0.17239,0.002 0.27544,-0.0574 -0.0589,0.11352 -0.12176,0.19549 -0.18862,0.24649 0.0244,0.009 0.0541,0.0217 0.0775,0.0305 0.1363,0.051 0.25518,0.093 0.34468,0.12093 0.0447,0.0139 0.0823,0.0242 0.10697,0.03 0.002,4e-4 0.002,1.9e-4 0.004,5.2e-4 0.002,-3.3e-4 0.002,-1.2e-4 0.004,-5.2e-4 0.0247,-0.006 0.0622,-0.016 0.10697,-0.03 0.0895,-0.0279 0.20891,-0.0699 0.3452,-0.12093 0.006,-0.002 0.0136,-0.005 0.0196,-0.008 l -0.21756,-0.13281 c -0.0356,-0.0167 -0.0868,-0.0176 -0.15348,-0.003 0.0643,-0.055 0.11241,-0.0845 0.14418,-0.0879 v -1.35237 c -0.0364,0.0133 -0.0907,-0.0136 -0.16278,-0.0811 0.0643,0.0283 0.11758,0.0295 0.1602,0.004 l 0.29404,-0.27285 c -0.0266,-0.0102 -0.0587,-0.0235 -0.0842,-0.0331 -0.1363,-0.051 -0.2557,-0.093 -0.3452,-0.12092 -0.0447,-0.0139 -0.0823,-0.0242 -0.10697,-0.03 -0.002,-4e-4 -0.002,-1.8e-4 -0.004,-5.1e-4 z m -0.35709,0.19843 0.24185,0.20929 c 0.0504,0.0259 0.11553,0.0242 0.19534,-0.004 -0.0875,0.0676 -0.15376,0.10312 -0.19792,0.10645 v 0.3514 l -0.44287,0.154 0.44183,0.15399 v 0.73278 c 0.10925,0.003 0.2114,0.0745 0.30593,0.2129 -0.0442,-0.0575 -0.14968,-0.0861 -0.31626,-0.0853 l -0.2279,-0.20981 v -0.64802 l -0.36018,-0.14263 0.36018,-0.16898 z m 0.84285,0.12764 v 0.5054 c -0.10073,0.003 -0.15141,0.0489 -0.15141,0.13643 0,0.0867 0.0507,0.13245 0.15141,0.13746 v 0.7121 l 0.18345,0.12505 0.34416,-0.33279 -0.006,0.1173 -0.28473,0.28629 c 0.21577,-0.0851 0.44568,-0.17792 0.67954,-0.27802 0.33219,-0.14218 0.65621,-0.28796 0.89452,-0.40463 0.11916,-0.0583 0.21701,-0.10949 0.28215,-0.14779 0.0326,-0.0192 0.0567,-0.0354 0.0703,-0.046 9.9e-4,-7.7e-4 6.9e-4,-8.8e-4 0.002,-0.002 -8.1e-4,-7.4e-4 -5.1e-4,-8.5e-4 -0.002,-0.002 -0.0136,-0.0106 -0.0377,-0.0268 -0.0703,-0.046 -0.0651,-0.0383 -0.16299,-0.0895 -0.28215,-0.14779 -0.23831,-0.11668 -0.56233,-0.26245 -0.89452,-0.40463 -0.12367,-0.0529 -0.24676,-0.10373 -0.36897,-0.15399 l -0.0196,0.0232 v 1.16737 l -0.22427,0.1974 v -0.66145 c 0.10072,-0.004 0.15089,-0.0508 0.15089,-0.14005 0,-0.0901 -0.0502,-0.13467 -0.15089,-0.13384 v -0.28525 c -0.12165,-0.0334 -0.22276,-0.10744 -0.30334,-0.2217 z m 0.14676,0.30386 c 0.008,0 0.0167,0.003 0.0248,0.007 0.0163,0.008 0.0269,0.0205 0.0315,0.0372 0.005,0.0158 0.005,0.0324 0,0.0491 -0.005,0.0167 -0.0183,0.0289 -0.0393,0.0372 v 0.18758 h 0.10232 c 0.008,-0.0225 0.0191,-0.0365 0.0346,-0.0424 0.0155,-0.006 0.0307,-0.006 0.0455,0 0.0155,0.005 0.0269,0.0161 0.0346,0.0336 0.008,0.0175 0.008,0.0361 0,0.0553 -0.007,0.0183 -0.0186,0.0301 -0.0357,0.0351 -0.017,0.005 -0.0336,0.003 -0.0491,-0.004 -0.0155,-0.008 -0.0253,-0.0226 -0.03,-0.046 h -0.1018 l 5.1e-4,0.64182 c 0.0209,0.008 0.0339,0.0205 0.0393,0.0372 0.005,0.0167 0.005,0.0334 0,0.0501 -0.005,0.0159 -0.0147,0.0278 -0.031,0.0362 -0.0163,0.008 -0.0333,0.009 -0.0512,0.002 -0.0171,-0.008 -0.0279,-0.022 -0.0326,-0.0403 -0.005,-0.0183 -0.003,-0.0355 0.004,-0.0522 0.007,-0.0167 0.0212,-0.0275 0.0429,-0.0326 l -5.1e-4,-0.64182 h -0.11111 c -0.005,0.0234 -0.015,0.0385 -0.0305,0.046 -0.0155,0.007 -0.0315,0.009 -0.0486,0.004 -0.0171,-0.005 -0.0295,-0.0168 -0.0372,-0.0351 -0.007,-0.0192 -0.007,-0.0378 0.001,-0.0553 0.008,-0.0175 0.0189,-0.0286 0.0336,-0.0336 0.0155,-0.006 0.031,-0.006 0.0465,0 0.0155,0.006 0.0274,0.0198 0.0351,0.0424 h 0.11059 v -0.18758 c -0.0217,-0.005 -0.0364,-0.0159 -0.0434,-0.0326 -0.007,-0.0167 -0.008,-0.0338 -0.003,-0.0522 0.005,-0.0183 0.0155,-0.0312 0.0326,-0.0388 0.009,-0.004 0.0173,-0.007 0.0258,-0.007 z m -1.02423,0.56173 -0.002,0.5643 c -0.11622,-0.0592 -0.23001,-0.0624 -0.34158,-0.01 0.0387,-0.0934 0.1308,-0.131 0.27647,-0.11265 v -0.14159 c -0.0891,-0.0409 -0.17367,-0.0291 -0.25425,0.0351 0.0178,-0.0984 0.10239,-0.14617 0.25425,-0.14367 v -0.14521 z m -2.45721,0.0532 c 0.002,0.37797 0.0113,0.72746 0.0289,0.78187 0.0395,0.12141 0.96849,1.40033 1.07177,1.47536 0.10327,0.075 1.60661,0.56327 1.73426,0.56327 0.12765,0 1.63099,-0.48824 1.73426,-0.56327 0.10327,-0.075 1.03284,-1.35395 1.07228,-1.47536 0.0174,-0.0536 0.0264,-0.39354 0.0284,-0.76481 -0.0741,0.0433 -0.17399,0.0952 -0.29404,0.15399 -0.2454,0.12014 -0.57201,0.26756 -0.90796,0.41135 -0.33595,0.1438 -0.681,0.28357 -0.9617,0.3886 -0.14035,0.0525 -0.26406,0.0963 -0.36638,0.12816 -0.0512,0.0159 -0.0965,0.0291 -0.13953,0.0393 -0.043,0.0101 -0.0759,0.0202 -0.15141,0.0202 -0.0755,0 -0.10839,-0.01 -0.15141,-0.0202 -0.043,-0.0101 -0.0884,-0.0233 -0.13953,-0.0393 -0.10232,-0.0319 -0.22604,-0.0756 -0.36639,-0.12816 -0.13481,-0.0504 -0.28559,-0.10953 -0.44183,-0.1726 l -0.0682,0.0243 0.0398,-0.0362 c -0.16009,-0.0649 -0.32646,-0.13372 -0.49092,-0.20412 -0.33595,-0.14379 -0.66257,-0.29121 -0.90796,-0.41135 -0.1227,-0.0601 -0.22524,-0.1133 -0.29972,-0.1571 -0.008,-0.005 -0.0151,-0.009 -0.0227,-0.0139 z" />
  </g>
</svg>
