<?xml version="1.0" encoding="UTF-8" standalone="no"?>
<!-- Created with Inkscape (http://www.inkscape.org/) -->

<svg
   width="5.6704712mm"
   height="5.9010286mm"
   viewBox="0 0 5.6704712 5.9010286"
   version="1.1"
   id="svg1"
   xmlns="http://www.w3.org/2000/svg"
   xmlns:svg="http://www.w3.org/2000/svg">
  <defs
     id="defs1">
    <linearGradient
       id="swatch4">
      <stop
         style="stop-color:#000000;stop-opacity:1;"
         offset="0"
         id="stop4" />
    </linearGradient>
  </defs>
  <g
     id="layer3"
     transform="translate(-162.67886,-195.74691)">
    <path
       id="path237-317-4"
       style="fill:#ffffff;fill-opacity:1;stroke:none;stroke-width:0.200527;stroke-dasharray:none;stroke-opacity:1"
       d="m 165.51385,195.74696 c -0.12765,0 -1.63099,0.48825 -1.73426,0.56328 -0.10327,0.075 -1.03232,1.35396 -1.07177,1.47536 -0.0183,0.0563 -0.0276,0.4279 -0.0289,0.82062 0.008,-0.005 0.0144,-0.009 0.0227,-0.014 0.0745,-0.0438 0.17703,-0.097 0.29973,-0.1571 0.24539,-0.12015 0.572,-0.26755 0.90795,-0.41134 0.33595,-0.14379 0.68049,-0.28357 0.96118,-0.38861 0.14035,-0.0525 0.26407,-0.0963 0.36639,-0.12816 0.0512,-0.0159 0.0965,-0.0286 0.13953,-0.0388 0.043,-0.0101 0.0759,-0.0207 0.15141,-0.0207 0.0755,0 0.10838,0.0105 0.15141,0.0207 0.043,0.0101 0.0884,0.0228 0.13953,0.0388 0.10232,0.0319 0.22604,0.0756 0.36638,0.12816 0.2807,0.10504 0.62576,0.24482 0.9617,0.38861 0.33595,0.14379 0.66256,0.29119 0.90796,0.41134 0.12024,0.0589 0.22047,0.11072 0.29455,0.154 -0.002,-0.38625 -0.0109,-0.74812 -0.0289,-0.80357 -0.0394,-0.1214 -0.96901,-1.40033 -1.07228,-1.47536 -0.10327,-0.075 -1.60661,-0.56328 -1.73426,-0.56328 z m 0.014,1.83555 c -0.002,3.3e-4 -0.002,1.2e-4 -0.004,5.2e-4 -0.0247,0.006 -0.0622,0.016 -0.10697,0.03 -0.0895,0.0279 -0.20838,0.0699 -0.34468,0.12092 -0.27259,0.102 -0.61452,0.24073 -0.94671,0.38292 -0.33219,0.14218 -0.65569,0.28795 -0.894,0.40463 -0.11916,0.0583 -0.21701,0.10948 -0.28216,0.14779 -0.0326,0.0191 -0.0567,0.0354 -0.0703,0.046 -9.8e-4,7.7e-4 -7.3e-4,8.7e-4 -0.001,0.002 8.2e-4,7.4e-4 5.7e-4,8.5e-4 0.001,0.002 0.0136,0.0106 0.0377,0.0268 0.0703,0.046 0.0651,0.0383 0.163,0.0894 0.28216,0.1478 0.23831,0.11667 0.56181,0.26244 0.894,0.40462 0.33219,0.14219 0.67412,0.28092 0.94671,0.38293 0.1363,0.051 0.25519,0.093 0.34468,0.12092 0.0448,0.0139 0.0823,0.0242 0.10697,0.03 0.002,4e-4 0.002,1.9e-4 0.004,5.2e-4 0.002,-3.3e-4 0.002,-1.2e-4 0.004,-5.2e-4 0.0247,-0.006 0.0622,-0.016 0.10697,-0.03 0.0895,-0.0279 0.2089,-0.0699 0.3452,-0.12092 0.27259,-0.10201 0.61401,-0.24074 0.94619,-0.38293 0.33219,-0.14218 0.65622,-0.28795 0.89452,-0.40462 0.11916,-0.0583 0.21701,-0.1095 0.28216,-0.1478 0.0326,-0.0192 0.0567,-0.0354 0.0703,-0.046 9.9e-4,-7.7e-4 7.4e-4,-8.8e-4 0.002,-0.002 -8.1e-4,-7.4e-4 -5.7e-4,-8.4e-4 -0.002,-0.002 -0.0136,-0.0106 -0.0377,-0.0268 -0.0703,-0.046 -0.0652,-0.0383 -0.163,-0.0895 -0.28216,-0.14779 -0.2383,-0.11668 -0.56233,-0.26245 -0.89452,-0.40463 -0.33218,-0.14219 -0.6736,-0.28092 -0.94619,-0.38292 -0.1363,-0.051 -0.2557,-0.093 -0.3452,-0.12092 -0.0447,-0.0139 -0.0823,-0.0242 -0.10697,-0.03 -0.002,-4e-4 -0.002,-1.9e-4 -0.004,-5.2e-4 z m -0.0822,0.0791 c 0.002,0.13094 0.0833,0.20135 0.24598,0.21136 l -0.11007,0.14625 -0.002,1.38389 0.19792,0.0863 c 0.0496,-0.0567 0.11088,-0.0834 0.18449,-0.0801 -0.0713,0.0367 -0.16697,0.14471 -0.28784,0.32401 l -0.27802,-0.10546 c -0.0356,0.055 -0.1171,0.0856 -0.24494,0.0915 0.0961,-0.0459 0.16331,-0.1113 0.20205,-0.19637 l 0.001,-1.49862 c -0.0411,-0.007 -0.0726,-0.0255 -0.0951,-0.0563 l -0.1943,0.0703 z m 0.25684,0.27647 v 1.34204 l -0.0651,0.0589 v -1.30948 z m -3.02359,0.88935 c 0.002,0.37797 0.0113,0.72746 0.0289,0.78187 0.0395,0.12141 0.9685,1.40033 1.07177,1.47536 0.10327,0.075 1.60661,0.56327 1.73426,0.56327 0.12765,0 1.63099,-0.48824 1.73426,-0.56327 0.10327,-0.075 1.03284,-1.35395 1.07228,-1.47536 0.0174,-0.0536 0.0264,-0.39354 0.0284,-0.76481 -0.0741,0.0433 -0.17399,0.0952 -0.29404,0.15399 -0.2454,0.12014 -0.57201,0.26756 -0.90796,0.41135 -0.33594,0.1438 -0.681,0.28357 -0.9617,0.3886 -0.14034,0.0525 -0.26406,0.0963 -0.36638,0.12816 -0.0512,0.0159 -0.0965,0.0291 -0.13953,0.0393 -0.043,0.0101 -0.0759,0.0201 -0.15141,0.0201 -0.0755,0 -0.10838,-0.01 -0.15141,-0.0201 -0.043,-0.0101 -0.0884,-0.0233 -0.13953,-0.0393 -0.10232,-0.0319 -0.22604,-0.0756 -0.36638,-0.12816 -0.2807,-0.10503 -0.62524,-0.2448 -0.96119,-0.3886 -0.33594,-0.14379 -0.66256,-0.29121 -0.90795,-0.41135 -0.1227,-0.0601 -0.22524,-0.11329 -0.29972,-0.15709 -0.008,-0.005 -0.0151,-0.009 -0.0227,-0.014 z" />
  </g>
</svg>
