<?xml version="1.0" encoding="UTF-8" standalone="no"?>
<!-- Created with Inkscape (http://www.inkscape.org/) -->

<svg
   width="5.670907mm"
   height="5.9009318mm"
   viewBox="0 0 5.670907 5.9009318"
   version="1.1"
   id="svg1"
   xmlns="http://www.w3.org/2000/svg"
   xmlns:svg="http://www.w3.org/2000/svg">
  <defs
     id="defs1">
    <linearGradient
       id="swatch4">
      <stop
         style="stop-color:#000000;stop-opacity:1;"
         offset="0"
         id="stop4" />
    </linearGradient>
  </defs>
  <g
     id="layer3"
     transform="translate(-309.87394,-195.72062)">
    <path
       id="path237-317-04-59-8"
       style="fill:#ffffff;fill-opacity:1;stroke:none;stroke-width:0.200527;stroke-dasharray:none;stroke-opacity:1"
       d="m 312.70901,195.72061 c -0.12765,0 -1.631,0.48824 -1.73427,0.56327 -0.10327,0.075 -1.03231,1.35396 -1.07176,1.47536 -0.0183,0.0563 -0.0276,0.4279 -0.0289,0.82062 0.008,-0.005 0.0144,-0.009 0.0227,-0.0139 0.0745,-0.0438 0.17703,-0.097 0.29973,-0.15709 0.24539,-0.12015 0.572,-0.26756 0.90795,-0.41135 0.30579,-0.13088 0.61311,-0.2555 0.8785,-0.35657 l 0.0134,-0.0196 c 0.002,0.004 0.004,0.008 0.006,0.0124 0.02,-0.008 0.0442,-0.0175 0.0636,-0.0248 0.14035,-0.0525 0.26407,-0.0963 0.36639,-0.12815 0.0512,-0.0159 0.0965,-0.0286 0.13953,-0.0388 0.043,-0.0101 0.0759,-0.0207 0.15141,-0.0207 0.0755,0 0.10838,0.0105 0.15141,0.0207 0.043,0.0101 0.0884,0.0228 0.13953,0.0388 0.10232,0.0319 0.22603,0.0756 0.36638,0.12815 0.2807,0.10504 0.62575,0.24482 0.9617,0.38861 0.33595,0.14379 0.66257,0.2912 0.90796,0.41135 0.12024,0.0589 0.22046,0.11071 0.29455,0.15399 -0.002,-0.38625 -0.0109,-0.74812 -0.0289,-0.80357 -0.0394,-0.1214 -0.969,-1.40033 -1.07228,-1.47536 -0.10327,-0.075 -1.60661,-0.56327 -1.73426,-0.56327 z m 0.0139,1.83554 c -0.002,3.3e-4 -0.002,1.2e-4 -0.004,5.2e-4 -0.0247,0.006 -0.0622,0.016 -0.10697,0.03 -0.0895,0.0279 -0.2089,0.0699 -0.3452,0.12093 -0.0481,0.018 -0.10716,0.0419 -0.15916,0.062 0.0291,0.022 0.0619,0.0389 0.0987,0.0506 0.0969,0.03 0.23236,-0.0316 0.40669,-0.185 -0.12319,0.25019 -0.24292,0.38899 -0.35915,0.41651 -0.11544,0.0275 -0.22871,-0.0307 -0.33951,-0.17415 l -0.13694,0.0713 0.045,-0.0677 c -0.1631,0.066 -0.33337,0.13721 -0.50177,0.20929 -0.33218,0.14218 -0.6557,0.28795 -0.89401,0.40463 -0.11915,0.0583 -0.21701,0.10948 -0.28215,0.14779 -0.0326,0.0191 -0.0572,0.0354 -0.0708,0.046 -9.9e-4,7.7e-4 -2.9e-4,8.8e-4 -0.002,0.002 8.1e-4,7.4e-4 1.1e-4,3.3e-4 0.002,0.002 0.0136,0.0106 0.0382,0.0268 0.0708,0.046 0.0651,0.0383 0.163,0.0894 0.28215,0.1478 0.23831,0.11667 0.56183,0.26244 0.89401,0.40462 0.16688,0.0714 0.33587,0.14227 0.49764,0.20774 v -0.37517 l 0.5948,-0.53382 v -0.60564 c 0.0744,-0.05 0.14989,-0.16415 0.22582,-0.34262 v 0.90589 l -0.58136,0.5178 v 0.41031 l 0.5333,-0.002 c 0.0728,-0.17347 0.18119,-0.28757 0.32453,-0.34262 -0.14644,0.0901 -0.2504,0.28048 -0.31161,0.57154 l -0.25993,-0.001 c 0.10271,0.0376 0.19681,0.0708 0.2682,0.093 0.0447,0.0139 0.0823,0.0247 0.10697,0.0305 0.002,4e-4 0.002,1.8e-4 0.004,5.1e-4 0.002,-3.3e-4 0.002,-1.1e-4 0.004,-5.1e-4 0.0247,-0.006 0.0622,-0.0165 0.10697,-0.0305 0.0895,-0.0279 0.2089,-0.0699 0.3452,-0.12093 0.0106,-0.004 0.0243,-0.01 0.0351,-0.0139 l -0.21291,-0.12971 c -0.0356,-0.0167 -0.0868,-0.0176 -0.15347,-0.003 0.0643,-0.055 0.1124,-0.084 0.14417,-0.0873 v -1.35237 c -0.0364,0.0133 -0.0907,-0.0136 -0.16278,-0.0811 0.0643,0.0284 0.1181,0.0295 0.16072,0.004 l 0.28525,-0.2651 c -0.0306,-0.0117 -0.067,-0.0268 -0.0961,-0.0377 -0.1363,-0.051 -0.25571,-0.093 -0.3452,-0.12093 -0.0448,-0.0139 -0.0823,-0.0242 -0.10697,-0.03 -0.002,-4e-4 -0.002,-1.9e-4 -0.004,-5.2e-4 z m 0.50643,0.32298 v 0.5054 c -0.10073,0.003 -0.1509,0.0489 -0.1509,0.13642 0,0.0867 0.0502,0.13246 0.1509,0.13746 V 199.37 l 0.18345,0.12505 0.34416,-0.33228 -0.006,0.11731 -0.27699,0.27854 c 0.20805,-0.0824 0.42769,-0.17204 0.65113,-0.26769 0.33219,-0.14218 0.65621,-0.28795 0.89452,-0.40462 0.11915,-0.0583 0.21701,-0.1095 0.28215,-0.1478 0.0326,-0.0192 0.0567,-0.0354 0.0703,-0.046 9.9e-4,-7.7e-4 8.1e-4,-3.6e-4 0.002,-0.002 -8.1e-4,-7.4e-4 -6.3e-4,-8.5e-4 -0.002,-0.002 -0.0136,-0.0106 -0.0377,-0.0268 -0.0703,-0.046 -0.0651,-0.0383 -0.163,-0.0895 -0.28215,-0.14779 -0.23831,-0.11668 -0.56233,-0.26245 -0.89452,-0.40463 -0.11931,-0.0511 -0.23798,-0.0997 -0.35605,-0.14831 l -0.0124,0.0145 v 1.16685 l -0.22427,0.19792 v -0.66197 c 0.10072,-0.004 0.15141,-0.0508 0.15141,-0.14005 0,-0.0901 -0.0507,-0.13467 -0.15141,-0.13384 v -0.28525 c -0.12165,-0.0334 -0.22276,-0.10692 -0.30334,-0.22118 z m -0.84233,0.12144 -0.002,0.56379 c -0.11622,-0.0592 -0.23001,-0.0624 -0.34158,-0.01 0.0387,-0.0934 0.1308,-0.131 0.27647,-0.11265 v -0.14108 c -0.0891,-0.0409 -0.17367,-0.0296 -0.25425,0.0346 0.0178,-0.0984 0.10238,-0.14617 0.25425,-0.14367 v -0.145 z m 0.9896,0.18242 c 0.009,0 0.0167,0.002 0.0248,0.006 0.0163,0.008 0.0269,0.0211 0.0315,0.0377 0.005,0.0159 0.005,0.0319 0,0.0486 -0.005,0.0167 -0.0189,0.0294 -0.0398,0.0377 v 0.18759 h 0.10232 c 0.008,-0.0225 0.0196,-0.0365 0.0351,-0.0424 0.0155,-0.006 0.0302,-0.006 0.045,0 0.0155,0.005 0.0274,0.0161 0.0351,0.0336 0.008,0.0175 0.008,0.0361 0,0.0553 -0.007,0.0183 -0.0191,0.0296 -0.0362,0.0346 -0.0171,0.005 -0.0331,0.004 -0.0486,-0.004 -0.0155,-0.007 -0.0258,-0.0231 -0.0305,-0.0465 h -0.1018 l 5.1e-4,0.64182 c 0.0209,0.008 0.0344,0.021 0.0398,0.0377 0.005,0.0167 0.005,0.0334 0,0.0501 -0.005,0.0158 -0.0153,0.0278 -0.0315,0.0362 -0.0163,0.008 -0.0333,0.009 -0.0512,0.001 -0.017,-0.008 -0.0279,-0.0214 -0.0325,-0.0398 -0.005,-0.0183 -0.003,-0.036 0.004,-0.0527 0.007,-0.0167 0.0212,-0.0275 0.0429,-0.0325 l -5.2e-4,-0.64182 h -0.11111 c -0.005,0.0233 -0.0145,0.039 -0.03,0.0465 -0.0155,0.008 -0.032,0.009 -0.0491,0.004 -0.0171,-0.005 -0.0295,-0.0163 -0.0372,-0.0346 -0.007,-0.0192 -0.006,-0.0378 0.002,-0.0553 0.008,-0.0175 0.0189,-0.0286 0.0336,-0.0336 0.0155,-0.006 0.031,-0.006 0.0465,0 0.0155,0.006 0.0269,0.0198 0.0346,0.0424 h 0.11059 v -0.18759 c -0.0217,-0.005 -0.0359,-0.0159 -0.0429,-0.0326 -0.007,-0.0167 -0.008,-0.0344 -0.004,-0.0527 0.005,-0.0183 0.0155,-0.0312 0.0326,-0.0388 0.009,-0.004 0.0178,-0.006 0.0263,-0.006 z m -3.50262,0.61805 c 0.002,0.37797 0.0113,0.72745 0.0289,0.78186 0.0395,0.12141 0.96849,1.40034 1.07176,1.47537 0.10328,0.075 1.60662,0.56327 1.73427,0.56327 0.12766,0 1.63098,-0.48824 1.73426,-0.56327 0.10327,-0.075 1.03284,-1.35396 1.07228,-1.47537 0.0174,-0.0536 0.0264,-0.39354 0.0284,-0.76481 -0.074,0.0433 -0.17397,0.0952 -0.29403,0.154 -0.24539,0.12014 -0.57201,0.26755 -0.90796,0.41134 -0.33595,0.1438 -0.681,0.28358 -0.9617,0.38861 -0.14035,0.0525 -0.26406,0.0963 -0.36638,0.12816 -0.0512,0.0159 -0.0965,0.0291 -0.13953,0.0393 -0.043,0.0101 -0.0759,0.0202 -0.15141,0.0202 -0.0755,0 -0.10839,-0.01 -0.15141,-0.0202 -0.043,-0.0101 -0.0884,-0.0233 -0.13953,-0.0393 -0.10232,-0.0319 -0.22604,-0.0756 -0.36639,-0.12816 -0.056,-0.0209 -0.12295,-0.0484 -0.18345,-0.0718 h -0.0207 c -0.13327,0.008 -0.24214,-0.0163 -0.32659,-0.0713 0.0517,0.001 0.0964,-0.003 0.13487,-0.0119 -0.18353,-0.0736 -0.37399,-0.15167 -0.56534,-0.23358 -0.33595,-0.14379 -0.66256,-0.2912 -0.90795,-0.41134 -0.1227,-0.0601 -0.22524,-0.1133 -0.29973,-0.1571 -0.008,-0.005 -0.0151,-0.009 -0.0227,-0.0139 z" />
  </g>
</svg>
