<?xml version="1.0" encoding="UTF-8" standalone="no"?>
<!-- Created with Inkscape (http://www.inkscape.org/) -->

<svg
   width="7.2042117mm"
   height="6.345252mm"
   viewBox="0 0 7.2042117 6.345252"
   version="1.1"
   id="svg1"
   xmlns="http://www.w3.org/2000/svg"
   xmlns:svg="http://www.w3.org/2000/svg">
  <defs
     id="defs1">
    <linearGradient
       id="swatch4">
      <stop
         style="stop-color:#000000;stop-opacity:1;"
         offset="0"
         id="stop4" />
    </linearGradient>
  </defs>
  <g
     id="layer3"
     transform="translate(-231.63593,-158.56681)">
    <path
       id="path34-81-8-39-2-0-5"
       style="fill:#ffffff;fill-opacity:1;stroke:none;stroke-width:0.200326;stroke-dasharray:none;stroke-opacity:1"
       d="m 235.17059,158.5668 c -0.53449,0.28392 -3.53467,2.96694 -3.53467,3.18172 0,0.0765 0.38354,0.46819 0.89762,0.95085 z m 0.13384,0 2.6355,4.13463 c 0.5152,-0.48363 0.9002,-0.87635 0.9002,-0.95291 0,-0.2149 -3.00363,-2.90029 -3.5357,-3.18172 z m -0.0667,0.26614 -2.45928,3.85816 2.46341,1.11053 2.4505,-1.1157 z m -0.59531,1.86707 c 0.001,0.13093 0.0838,0.20135 0.24649,0.21135 l -0.11058,0.14625 -0.001,1.38338 0.19792,0.0863 c 0.0496,-0.0567 0.11087,-0.0829 0.18448,-0.0796 -0.0713,0.0367 -0.16748,0.14419 -0.28835,0.3235 l -0.2775,-0.10491 c -0.0356,0.055 -0.11762,0.0856 -0.24547,0.0915 0.0961,-0.0459 0.16383,-0.1113 0.20257,-0.19637 l 10e-4,-1.49862 c -0.0411,-0.007 -0.0731,-0.0255 -0.0956,-0.0563 l -0.19378,0.0698 z m 1.07177,0.003 c 0.004,0.0709 0.0584,0.13378 0.16381,0.18965 0.10615,0.0559 0.21813,0.0476 0.3359,-0.0258 l -0.12661,0.14883 v 1.16686 l -0.22428,0.19746 v -0.66198 c 0.10073,-0.004 0.1509,-0.0508 0.1509,-0.14004 0,-0.0901 -0.0502,-0.13468 -0.1509,-0.13384 v -0.28526 c -0.12164,-0.0334 -0.22276,-0.10692 -0.30334,-0.22117 v 0.50539 c -0.10072,0.003 -0.15141,0.0483 -0.15141,0.13591 0,0.0867 0.0507,0.13297 0.15141,0.13798 v 0.71158 l 0.18345,0.12506 0.34417,-0.3328 -0.006,0.11783 -0.43822,0.44028 -0.31161,-0.19017 c -0.0356,-0.0167 -0.0868,-0.0176 -0.15348,-0.003 0.0643,-0.055 0.11241,-0.084 0.14418,-0.0873 v -1.35237 c -0.0364,0.0133 -0.0907,-0.0136 -0.16278,-0.0811 0.0643,0.0283 0.11758,0.0295 0.1602,0.004 z m -0.81494,0.27389 v 1.34203 l -0.0651,0.0589 v -1.30999 z m 0.80718,0.2651 c 0.009,0 0.0172,0.002 0.0253,0.006 0.0163,0.008 0.0264,0.021 0.031,0.0377 0.005,0.0159 0.005,0.0319 0,0.0486 -0.005,0.0167 -0.0183,0.0294 -0.0393,0.0377 v 0.18759 h 0.10232 c 0.008,-0.0225 0.0191,-0.0371 0.0346,-0.0429 0.0155,-0.006 0.0308,-0.006 0.0455,0 0.0155,0.005 0.0269,0.0166 0.0346,0.0341 0.008,0.0175 0.008,0.0356 0,0.0548 -0.007,0.0183 -0.0186,0.0301 -0.0357,0.0351 -0.0171,0.005 -0.0336,0.004 -0.0491,-0.004 -0.0155,-0.008 -0.0253,-0.0232 -0.03,-0.0465 h -0.1018 l 5.2e-4,0.64182 c 0.0209,0.008 0.0344,0.0211 0.0398,0.0377 0.005,0.0167 0.005,0.0334 0,0.0501 -0.005,0.0159 -0.0152,0.0278 -0.0315,0.0362 -0.0163,0.008 -0.0333,0.009 -0.0512,0.001 -0.0171,-0.008 -0.0279,-0.0214 -0.0326,-0.0398 -0.005,-0.0183 -0.003,-0.036 0.004,-0.0527 0.007,-0.0167 0.0212,-0.0275 0.0429,-0.0326 l -5.2e-4,-0.64182 h -0.1111 c -0.005,0.0234 -0.0145,0.039 -0.03,0.0465 -0.0155,0.008 -0.032,0.009 -0.0491,0.004 -0.0171,-0.005 -0.0295,-0.0168 -0.0372,-0.0351 -0.007,-0.0192 -0.007,-0.0373 0.001,-0.0548 0.008,-0.0175 0.0194,-0.0291 0.0341,-0.0341 0.0155,-0.006 0.031,-0.006 0.0465,0 0.0155,0.006 0.0269,0.0204 0.0346,0.0429 h 0.11059 v -0.18759 c -0.0217,-0.005 -0.0364,-0.0159 -0.0434,-0.0326 -0.007,-0.0167 -0.008,-0.0344 -0.003,-0.0527 0.005,-0.0183 0.0155,-0.0312 0.0326,-0.0387 0.009,-0.004 0.0173,-0.006 0.0258,-0.006 z m 2.03554,1.64382 -2.4045,1.09348 v 0.93276 c 0.36198,-0.21531 1.5174,-1.20609 2.4045,-2.02624 z m -4.99608,0.0103 c 0.88385,0.81645 2.02802,1.79843 2.39055,2.01538 v -0.93638 z" />
  </g>
</svg>
