<?xml version="1.0" encoding="UTF-8" standalone="no"?>
<!-- Created with Inkscape (http://www.inkscape.org/) -->

<svg
   width="5.6704388mm"
   height="5.9009476mm"
   viewBox="0 0 5.6704388 5.9009476"
   version="1.1"
   id="svg1"
   xmlns="http://www.w3.org/2000/svg"
   xmlns:svg="http://www.w3.org/2000/svg">
  <defs
     id="defs1">
    <linearGradient
       id="swatch4">
      <stop
         style="stop-color:#000000;stop-opacity:1;"
         offset="0"
         id="stop4" />
    </linearGradient>
  </defs>
  <g
     id="layer3"
     transform="translate(-255.62828,-195.72985)">
    <path
       id="path237-317-04-37-0"
       style="fill:#ffffff;fill-opacity:1;stroke:none;stroke-width:0.200527;stroke-dasharray:none;stroke-opacity:1"
       d="m 258.46322,195.72991 c -0.12765,0 -1.63099,0.48824 -1.73426,0.56327 -0.10327,0.075 -1.03232,1.35396 -1.07177,1.47536 -0.0183,0.0563 -0.0276,0.42791 -0.0289,0.82063 0.008,-0.005 0.0144,-0.009 0.0227,-0.014 0.0745,-0.0438 0.17703,-0.097 0.29973,-0.15709 0.24539,-0.12015 0.572,-0.26756 0.90795,-0.41135 0.33595,-0.14379 0.68049,-0.28356 0.96118,-0.3886 0.14035,-0.0525 0.26407,-0.0963 0.36639,-0.12816 0.0512,-0.0159 0.0965,-0.0286 0.13953,-0.0388 0.043,-0.0101 0.0759,-0.0207 0.15141,-0.0207 0.0755,0 0.10838,0.0105 0.15141,0.0207 0.043,0.0101 0.0884,0.0228 0.13953,0.0388 0.10232,0.0319 0.22603,0.0756 0.36638,0.12816 0.2807,0.10504 0.62576,0.24481 0.9617,0.3886 0.33596,0.14379 0.66256,0.2912 0.90795,0.41135 0.12024,0.0589 0.22047,0.11071 0.29456,0.15399 -0.002,-0.38625 -0.0109,-0.74812 -0.0289,-0.80357 -0.0394,-0.1214 -0.96901,-1.40033 -1.07229,-1.47536 -0.10327,-0.075 -1.6066,-0.56327 -1.73425,-0.56327 z m 0.014,1.83555 c -0.002,3.3e-4 -0.002,1.1e-4 -0.004,5.1e-4 -0.0247,0.006 -0.0622,0.016 -0.10697,0.03 -0.0895,0.0279 -0.20838,0.0699 -0.34468,0.12092 -0.0606,0.0226 -0.13398,0.0521 -0.2005,0.078 0.0406,0.0436 0.10624,0.0683 0.1974,0.0739 l -0.11059,0.14624 -10e-4,1.3839 0.19741,0.0863 c 0.0496,-0.0567 0.11139,-0.0834 0.185,-0.0801 -0.0653,0.0336 -0.1519,0.12767 -0.2589,0.28112 0.13236,0.0494 0.24846,0.0905 0.3359,0.11782 0.0447,0.0139 0.0823,0.0242 0.10697,0.03 0.002,4e-4 0.002,1.9e-4 0.004,5.2e-4 0.002,-3.3e-4 0.002,-1.2e-4 0.004,-5.2e-4 0.0247,-0.006 0.0622,-0.016 0.10697,-0.03 0.0895,-0.0279 0.2089,-0.0699 0.3452,-0.12092 0.08,-0.0299 0.17468,-0.0679 0.26458,-0.10336 l -0.20722,-0.1912 v -0.6475 l -0.36019,-0.14263 0.36019,-0.16898 v -0.66198 l 0.24184,0.20877 c 0.0504,0.0259 0.11553,0.0247 0.19534,-0.004 -0.0875,0.0676 -0.15376,0.10311 -0.19792,0.10645 v 0.3514 l -0.44235,0.154 0.44131,0.15399 v 0.73277 c 0.047,0.001 0.0927,0.0165 0.13695,0.0429 0.16679,-0.0674 0.34088,-0.13998 0.51366,-0.21394 0.33219,-0.14218 0.6562,-0.28795 0.89451,-0.40462 0.11915,-0.0583 0.21702,-0.1095 0.28216,-0.1478 0.0326,-0.0192 0.0567,-0.0354 0.0703,-0.046 9.9e-4,-7.7e-4 8e-4,-3.6e-4 0.002,-0.002 -8.1e-4,-7.4e-4 -6.2e-4,-8.5e-4 -0.002,-0.002 -0.0136,-0.0106 -0.0377,-0.0268 -0.0703,-0.046 -0.0651,-0.0383 -0.16301,-0.0895 -0.28216,-0.14779 -0.23831,-0.11668 -0.56232,-0.26245 -0.89451,-0.40463 -0.33218,-0.14219 -0.6736,-0.28092 -0.94619,-0.38292 -0.1363,-0.051 -0.25571,-0.093 -0.3452,-0.12092 -0.0447,-0.0139 -0.0823,-0.0242 -0.10697,-0.03 -0.002,-4e-4 -0.002,-1.8e-4 -0.004,-5.1e-4 z m 0.0961,0.0656 c 0.0171,0.10174 0.0729,0.16311 0.16743,0.18396 0.0945,0.0209 0.17625,0.002 0.24598,-0.0574 -0.0775,0.20349 -0.1729,0.30967 -0.2868,0.31885 -0.1139,0.009 -0.20415,-0.0425 -0.27079,-0.15503 l -0.12557,0.0749 z m -1.06453,0.28783 c -0.14243,0.0581 -0.28826,0.11867 -0.43357,0.18087 -0.33218,0.14218 -0.65569,0.28795 -0.894,0.40463 -0.11915,0.0583 -0.21701,0.10948 -0.28215,0.14779 -0.0326,0.0191 -0.0567,0.0354 -0.0703,0.046 -9.9e-4,7.7e-4 -7.9e-4,8.8e-4 -0.001,0.002 8.1e-4,7.4e-4 6.1e-4,3.3e-4 0.001,0.002 0.0136,0.0106 0.0377,0.0268 0.0703,0.046 0.0652,0.0383 0.163,0.0894 0.28215,0.1478 0.23831,0.11667 0.56182,0.26244 0.894,0.40462 0.20167,0.0863 0.40106,0.1681 0.59221,0.24443 0.005,-0.008 0.009,-0.017 0.0129,-0.0258 l 10e-4,-1.49862 c -0.0411,-0.007 -0.0731,-0.0255 -0.0956,-0.0563 l -0.19378,0.0703 z m 0.52038,0.015 v 1.34255 l -0.0651,0.0584 v -1.30948 z m 0.92656,0.82682 -0.002,0.56431 c -0.11622,-0.0592 -0.23001,-0.0624 -0.34158,-0.01 0.0387,-0.0934 0.1308,-0.131 0.27647,-0.11265 v -0.1416 c -0.0891,-0.0409 -0.17367,-0.0291 -0.25425,0.0351 0.0178,-0.0984 0.10238,-0.14616 0.25425,-0.14366 V 198.807 Z m -3.32745,0.0496 c 0.002,0.37797 0.0113,0.72746 0.0289,0.78187 0.0395,0.12141 0.9685,1.40033 1.07177,1.47536 0.10327,0.075 1.60661,0.56327 1.73426,0.56327 0.12765,0 1.631,-0.48824 1.73426,-0.56327 0.10328,-0.075 1.03284,-1.35395 1.07229,-1.47536 0.0174,-0.0536 0.0264,-0.39355 0.0284,-0.76482 -0.074,0.0433 -0.17398,0.0952 -0.29404,0.154 -0.24539,0.12014 -0.572,0.26755 -0.90795,0.41134 -0.20232,0.0866 -0.40296,0.1685 -0.59583,0.24547 0.0113,0.0144 0.023,0.0297 0.0341,0.046 -0.0119,-0.0155 -0.0289,-0.0285 -0.0496,-0.0398 -0.12152,0.0484 -0.24346,0.0969 -0.35037,0.13694 -0.14035,0.0525 -0.26406,0.0963 -0.36638,0.12816 -0.0512,0.0159 -0.0965,0.0291 -0.13953,0.0393 -0.043,0.0101 -0.0759,0.0202 -0.15141,0.0202 -0.0755,0 -0.10839,-0.01 -0.15141,-0.0202 -0.043,-0.0101 -0.0884,-0.0233 -0.13953,-0.0393 -0.10232,-0.0319 -0.22604,-0.0756 -0.36639,-0.12816 -0.0654,-0.0245 -0.143,-0.0558 -0.21445,-0.0837 -0.0355,0.01 -0.078,0.0153 -0.12713,0.0176 0.0253,-0.0121 0.0484,-0.0255 0.0698,-0.0403 -0.21986,-0.0866 -0.45271,-0.18086 -0.68936,-0.28216 -0.33595,-0.14379 -0.66256,-0.2912 -0.90795,-0.41134 -0.1227,-0.0601 -0.22525,-0.1133 -0.29973,-0.1571 -0.008,-0.005 -0.0151,-0.009 -0.0227,-0.0139 z m 2.94039,0.47336 c 0.0256,0.10174 0.0786,0.16312 0.15916,0.18397 0.0806,0.0208 0.17239,0.002 0.27544,-0.0574 -0.0968,0.18682 -0.20443,0.28893 -0.32298,0.30645 -0.11777,0.0175 -0.22664,-0.03 -0.32659,-0.14263 l -0.17312,0.0625 z" />
  </g>
</svg>
