<?xml version="1.0" encoding="UTF-8" standalone="no"?>
<!-- Created with Inkscape (http://www.inkscape.org/) -->

<svg
   width="6.9887209mm"
   height="6.2365537mm"
   viewBox="0 0 6.9887209 6.2365537"
   version="1.1"
   id="svg1"
   xmlns="http://www.w3.org/2000/svg"
   xmlns:svg="http://www.w3.org/2000/svg">
  <defs
     id="defs1">
    <linearGradient
       id="swatch4">
      <stop
         style="stop-color:#000000;stop-opacity:1;"
         offset="0"
         id="stop4" />
    </linearGradient>
  </defs>
  <g
     id="layer3"
     transform="translate(-224.24929,-150.5595)">
    <path
       id="path94-48-27-4"
       style="fill:#ffffff;fill-opacity:1;stroke:none;stroke-width:0.192506;stroke-dasharray:none;stroke-opacity:1"
       d="m 227.74262,150.55954 c -0.70358,0 -1.40045,0.0158 -1.6583,0.0465 l 0.55552,1.00872 c 0.024,-0.004 0.0526,-0.006 0.0863,-0.009 0.0687,-0.006 0.15876,-0.0104 0.26407,-0.0139 0.21061,-0.007 0.48121,-0.0109 0.75241,-0.0109 0.2712,0 0.54231,0.004 0.75292,0.0109 0.10531,0.004 0.19541,0.008 0.26407,0.0139 0.0343,0.003 0.0636,0.005 0.0879,0.009 l 0.57567,-1.00665 c -0.24075,-0.0323 -0.95882,-0.0486 -1.68051,-0.0486 z m -1.82625,0.13901 c -0.30393,0.40167 -1.4588,2.4017 -1.66398,2.88044 l 1.16169,0.002 c 0.008,-0.0183 0.0151,-0.0363 0.0258,-0.0589 0.0296,-0.0622 0.0703,-0.14215 0.11989,-0.23513 0.0991,-0.18595 0.23181,-0.42246 0.36741,-0.65732 0.1356,-0.23487 0.27455,-0.46764 0.38603,-0.64647 0.0557,-0.0894 0.10404,-0.165 0.14314,-0.2217 0.009,-0.0132 0.0161,-0.0219 0.0243,-0.0331 z m 3.66593,0.0176 -0.57723,1.01234 c 0.008,0.0112 0.0152,0.0199 0.0243,0.0331 0.0391,0.0567 0.0874,0.13229 0.14315,0.2217 0.11147,0.17884 0.25042,0.4116 0.38602,0.64647 0.1356,0.23486 0.26828,0.47137 0.36742,0.65732 0.0496,0.093 0.0903,0.17292 0.11989,0.23513 0.0106,0.0224 0.0182,0.0402 0.0258,0.0584 l 1.1591,-0.007 c -0.2077,-0.48043 -1.32735,-2.42009 -1.64848,-2.85719 z m -1.8402,1.05782 c -0.26935,0 -0.53866,0.003 -0.74569,0.0103 -0.10358,0.004 -0.19137,0.008 -0.25477,0.0134 -0.0317,0.002 -0.0576,0.005 -0.0744,0.008 -0.002,3.4e-4 -0.003,0.001 -0.005,0.002 -0.001,0.001 -0.002,0.002 -0.003,0.003 -0.0106,0.0133 -0.0259,0.0343 -0.0439,0.0605 -0.0361,0.0524 -0.0842,0.12651 -0.13901,0.21446 -0.10965,0.17591 -0.24712,0.40737 -0.38188,0.64078 -0.13477,0.23341 -0.26681,0.46872 -0.36432,0.65164 -0.0488,0.0915 -0.089,0.17045 -0.11628,0.2279 -0.0137,0.0287 -0.0243,0.0524 -0.0305,0.0682 -7.4e-4,0.002 -5.2e-4,0.003 -0.001,0.005 5.5e-4,0.002 3.2e-4,0.003 0.001,0.005 0.006,0.0158 0.0168,0.0395 0.0305,0.0682 0.0273,0.0574 0.0675,0.13592 0.11628,0.22738 0.0975,0.18291 0.22955,0.41823 0.36432,0.65164 0.13476,0.23342 0.27223,0.46539 0.38188,0.6413 0.0548,0.088 0.10291,0.1621 0.13901,0.21446 0.0181,0.0262 0.0333,0.0467 0.0439,0.0599 10e-4,0.002 0.002,0.002 0.004,0.004 0.002,3.4e-4 0.002,7.2e-4 0.004,0.001 0.0168,0.002 0.0427,0.005 0.0744,0.008 0.0634,0.005 0.15119,0.009 0.25477,0.0129 0.20717,0.007 0.47668,0.0103 0.74621,0.0103 0.26952,0 0.53955,-0.003 0.74672,-0.0103 0.10359,-0.003 0.19137,-0.008 0.25477,-0.0129 0.0317,-0.002 0.0576,-0.005 0.0744,-0.008 0.002,-2.7e-4 0.002,-7.2e-4 0.004,-0.001 0.002,-0.002 0.003,-0.002 0.004,-0.004 0.0106,-0.0133 0.0259,-0.0337 0.0439,-0.0599 0.0361,-0.0524 0.0842,-0.1265 0.13901,-0.21446 0.10965,-0.17591 0.24712,-0.40788 0.38189,-0.6413 0.13476,-0.23341 0.2668,-0.46873 0.36431,-0.65164 0.0488,-0.0915 0.089,-0.16993 0.11628,-0.22738 0.0137,-0.0287 0.0243,-0.0524 0.0305,-0.0682 7.5e-4,-0.002 5.1e-4,-0.003 0.001,-0.005 -5.5e-4,-0.002 -3.2e-4,-0.003 -0.001,-0.005 -0.006,-0.0158 -0.0168,-0.0395 -0.0305,-0.0682 -0.0273,-0.0574 -0.0675,-0.13644 -0.11628,-0.2279 -0.0975,-0.18292 -0.22955,-0.41823 -0.36431,-0.65164 -0.13477,-0.23341 -0.27224,-0.46487 -0.38189,-0.64078 -0.0548,-0.0879 -0.10291,-0.1621 -0.13901,-0.21446 -0.018,-0.0262 -0.0333,-0.0472 -0.0439,-0.0605 -0.001,-10e-4 -0.002,-0.002 -0.003,-0.003 -0.002,-6.9e-4 -0.003,-0.001 -0.005,-0.002 -0.0168,-0.002 -0.0427,-0.005 -0.0744,-0.008 -0.0634,-0.005 -0.15118,-0.01 -0.25477,-0.0134 -0.20703,-0.007 -0.47686,-0.0103 -0.74621,-0.0103 z m 0.046,0.87074 0.38137,0.31523 c 0.0511,0.0334 0.12148,0.0343 0.21136,0.003 -0.0876,0.0717 -0.15427,0.10526 -0.19999,0.10026 v 0.97668 c 0.0442,0.003 0.11037,0.0389 0.19792,0.10645 -0.0798,-0.0284 -0.14497,-0.0295 -0.19534,-0.004 l -0.41857,0.56792 c -0.0573,-0.0817 -0.12458,-0.13315 -0.20206,-0.15399 -0.0775,-0.0208 -0.15506,-0.001 -0.23254,0.0579 0.0984,-0.19682 0.1946,-0.29762 0.28835,-0.30179 0.0937,-0.005 0.1747,0.0346 0.24288,0.11886 l 0.0801,-0.11266 v -1.19837 l -0.2651,-0.22531 -0.10542,0.0791 v 0.79685 c 0.0566,0.0117 0.10828,0.0613 0.15555,0.14883 l 0.20205,-0.29404 -0.001,0.1416 -0.26251,0.40514 c -0.0566,-0.10175 -0.14191,-0.16312 -0.2558,-0.18397 -0.1139,-0.0208 -0.20777,-0.001 -0.28216,0.0579 0.0442,-0.12843 0.11787,-0.19682 0.2217,-0.20516 v -0.62838 c -0.0922,0.0133 -0.17315,-0.0188 -0.24288,-0.0971 0.093,0.0108 0.17418,-0.0118 0.24391,-0.0677 z m -0.10439,0.31936 v 0.83406 l -0.0651,-0.0589 v -0.71675 z m 3.55431,0.80254 -1.1653,0.006 c -0.008,0.0188 -0.0156,0.0378 -0.0269,0.0615 -0.0296,0.0622 -0.0703,0.14215 -0.11989,0.23513 -0.0991,0.18595 -0.23182,0.42245 -0.36742,0.65732 -0.1356,0.23487 -0.27455,0.46816 -0.38603,0.64699 -0.0557,0.0894 -0.10404,0.16499 -0.14314,0.22169 -0.0145,0.0209 -0.0267,0.0364 -0.0388,0.0522 l 0.57826,1.01131 c 0.30495,-0.4024 1.47622,-2.43134 1.66915,-2.89181 z m -6.98872,0.004 c 0.19814,0.4686 1.36834,2.49457 1.66966,2.89027 l 0.58291,-1.00408 c -0.0138,-0.0177 -0.0284,-0.0372 -0.0455,-0.062 -0.0391,-0.0567 -0.0874,-0.13228 -0.14314,-0.22169 -0.11147,-0.17883 -0.25042,-0.41212 -0.38602,-0.64699 -0.1356,-0.23487 -0.26829,-0.47136 -0.36742,-0.65732 -0.0496,-0.093 -0.0903,-0.17292 -0.11989,-0.23513 -0.0112,-0.0235 -0.019,-0.0423 -0.0269,-0.061 z m 4.57698,1.97249 c -0.0203,0.002 -0.0406,0.005 -0.0667,0.007 -0.0686,0.005 -0.15876,0.01 -0.26407,0.0134 -0.21061,0.007 -0.48172,0.0109 -0.75292,0.0109 -0.2712,0 -0.5418,-0.004 -0.75241,-0.0109 -0.10531,-0.004 -0.19541,-0.008 -0.26407,-0.0134 -0.0208,-0.002 -0.0361,-0.004 -0.0532,-0.006 l -0.58187,1.00666 c 0.52832,0.0605 2.79547,0.0605 3.30987,-5.2e-4 z m 0.68678,0.97875 c -5.4e-4,5.2e-4 -0.001,0.001 -0.002,0.002 l 0.002,-0.001 z m -0.002,0.002 -0.016,0.009 c 0.002,-0.001 0.009,-0.002 0.0103,-0.003 0.001,-7.4e-4 0.004,-0.004 0.006,-0.006 z" />
  </g>
</svg>
