<?xml version="1.0" encoding="UTF-8" standalone="no"?>
<!-- Created with Inkscape (http://www.inkscape.org/) -->

<svg
   width="5.6704874mm"
   height="5.9009156mm"
   viewBox="0 0 5.6704874 5.9009156"
   version="1.1"
   id="svg1"
   xmlns="http://www.w3.org/2000/svg"
   xmlns:svg="http://www.w3.org/2000/svg">
  <defs
     id="defs1">
    <linearGradient
       id="swatch4">
      <stop
         style="stop-color:#000000;stop-opacity:1;"
         offset="0"
         id="stop4" />
    </linearGradient>
  </defs>
  <g
     id="layer3"
     transform="translate(-193.63867,-202.38945)">
    <path
       id="path237-317-04-7-9"
       style="fill:#ffffff;fill-opacity:1;stroke:none;stroke-width:0.200527;stroke-dasharray:none;stroke-opacity:1"
       d="m 196.47372,202.38945 c -0.12765,0 -1.63098,0.48824 -1.73426,0.56327 -0.10327,0.075 -1.03232,1.35397 -1.07176,1.47537 -0.0183,0.0563 -0.0276,0.4279 -0.0289,0.82062 0.008,-0.005 0.0144,-0.009 0.0227,-0.0139 0.0745,-0.0438 0.17703,-0.097 0.29973,-0.1571 0.24539,-0.12015 0.57201,-0.26756 0.90795,-0.41135 0.28898,-0.12368 0.57692,-0.24028 0.83251,-0.33848 l 0.0253,-0.0377 c 0.003,0.008 0.007,0.016 0.0108,0.0238 0.0294,-0.0112 0.0643,-0.0256 0.0925,-0.0362 0.14035,-0.0525 0.26406,-0.0963 0.36639,-0.12816 0.0512,-0.0159 0.0965,-0.0286 0.13952,-0.0388 0.043,-0.0101 0.0759,-0.0207 0.15141,-0.0207 0.0755,0 0.10839,0.0105 0.15142,0.0207 0.043,0.0101 0.0884,0.0228 0.13952,0.0388 0.10233,0.0319 0.22604,0.0756 0.36639,0.12816 0.054,0.0202 0.11897,0.0467 0.17725,0.0692 l 0.27905,5.2e-4 -0.0589,0.0853 c 0.18338,0.0735 0.37331,0.15183 0.56431,0.23357 0.33595,0.14379 0.66256,0.2912 0.90795,0.41135 0.12024,0.0589 0.22047,0.11072 0.29456,0.154 -0.002,-0.38625 -0.0109,-0.74812 -0.0289,-0.80357 -0.0395,-0.1214 -0.96902,-1.40034 -1.07229,-1.47537 -0.10327,-0.075 -1.60661,-0.56327 -1.73426,-0.56327 z m 0.0139,1.83555 c -0.002,3.3e-4 -0.002,1.1e-4 -0.004,5.1e-4 -0.0247,0.006 -0.0622,0.016 -0.10697,0.03 -0.0895,0.0279 -0.20838,0.0699 -0.34468,0.12092 -0.0547,0.0205 -0.12127,0.0477 -0.18086,0.0708 0.0259,0.0175 0.0543,0.0318 0.0858,0.0419 0.0969,0.03 0.23236,-0.0315 0.40669,-0.185 -0.1232,0.2502 -0.24293,0.38899 -0.35915,0.41652 -0.11545,0.0275 -0.22872,-0.0307 -0.33952,-0.17415 l -0.13694,0.0713 0.032,-0.0481 c -0.14887,0.0606 -0.30235,0.12442 -0.45475,0.18965 -0.33219,0.14218 -0.6557,0.28795 -0.894,0.40463 -0.11916,0.0583 -0.21701,0.10948 -0.28216,0.14779 -0.0326,0.0191 -0.0567,0.0354 -0.0703,0.046 -9.9e-4,7.7e-4 -6.9e-4,3.6e-4 -0.002,0.002 8.1e-4,7.4e-4 5.2e-4,8.4e-4 0.002,0.002 0.0136,0.0106 0.0377,0.0268 0.0703,0.046 0.0651,0.0383 0.163,0.0894 0.28216,0.1478 0.2383,0.11667 0.56181,0.26245 0.894,0.40463 0.1552,0.0664 0.31163,0.13174 0.46302,0.19327 v -0.36071 l 0.59531,-0.53381 v -0.60565 c 0.0744,-0.05 0.14938,-0.16414 0.22531,-0.34262 v 0.90538 l -0.58084,0.51831 v 0.41031 l 0.5333,-0.002 c 0.0728,-0.17347 0.18119,-0.28757 0.32453,-0.34261 -0.14644,0.0901 -0.2504,0.28048 -0.31161,0.57154 l -0.22479,-0.001 c 0.10251,0.0375 0.19588,0.0708 0.26716,0.093 0.0447,0.0139 0.0823,0.0242 0.10697,0.03 0.002,4e-4 0.002,1.9e-4 0.004,5.2e-4 0.002,-3.3e-4 0.002,-1.2e-4 0.004,-5.2e-4 0.0247,-0.006 0.0622,-0.016 0.10697,-0.03 0.0895,-0.0279 0.2089,-0.0699 0.3452,-0.12092 0.0139,-0.005 0.0317,-0.0127 0.046,-0.0181 l -0.21549,-0.13797 c -0.0697,-0.0334 -0.16025,-0.0175 -0.27182,0.0475 0.16349,-0.22184 0.2902,-0.32009 0.38086,-0.29507 l 0.31626,0.21239 0.0661,-0.061 v -0.82321 h -0.40876 c -0.0937,-0.006 -0.19642,0.002 -0.308,0.0248 0.0783,-0.0884 0.1336,-0.13413 0.16692,-0.13746 v -0.3266 c -0.0387,0.0134 -0.0969,-0.0263 -0.17518,-0.11885 0.0697,0.0284 0.12766,0.0295 0.17415,0.004 l 0.31574,-0.3023 c -0.0275,-0.0105 -0.0605,-0.0243 -0.0868,-0.0341 -0.1363,-0.051 -0.2557,-0.093 -0.3452,-0.12092 -0.0448,-0.0139 -0.0823,-0.0242 -0.10697,-0.03 -0.002,-4e-4 -0.002,-1.8e-4 -0.004,-5.1e-4 z m 0.95705,0.34881 -0.005,0.007 -0.46405,10e-4 v 0.50281 h 0.0408 v -0.43874 c 0.17356,-0.0592 0.31941,-0.0341 0.43718,0.076 -0.12862,-0.05 -0.25094,-0.0559 -0.36639,-0.0176 v 0.1204 c 0.0728,-0.0309 0.14163,-0.018 0.20671,0.0388 -0.0845,-0.0259 -0.15324,10e-4 -0.20671,0.0811 l -0.0574,0.14005 0.35606,0.002 c 0.11002,0.002 0.20906,-0.04 0.29662,-0.12506 l -0.14676,0.21136 -0.001,0.73897 -0.29301,0.31471 c 0.20702,-0.082 0.42541,-0.17107 0.64751,-0.26613 0.33218,-0.14218 0.65621,-0.28796 0.89452,-0.40463 0.11915,-0.0583 0.217,-0.1095 0.28215,-0.1478 0.0326,-0.0192 0.0567,-0.0354 0.0703,-0.046 9.9e-4,-7.7e-4 6.9e-4,-8.7e-4 0.002,-0.002 -8.1e-4,-7.4e-4 -5.1e-4,-3.3e-4 -0.002,-0.002 -0.0136,-0.0106 -0.0377,-0.0268 -0.0703,-0.046 -0.0651,-0.0383 -0.163,-0.0895 -0.28215,-0.14779 -0.23831,-0.11668 -0.56234,-0.26245 -0.89452,-0.40463 -0.14912,-0.0638 -0.29916,-0.12609 -0.44494,-0.18552 z m -1.32757,0.0956 -0.001,0.56379 c -0.11622,-0.0592 -0.23,-0.0624 -0.34158,-0.01 0.0387,-0.0934 0.13081,-0.13101 0.27647,-0.11266 v -0.14159 c -0.0891,-0.0409 -0.17418,-0.0291 -0.25476,0.0351 0.0178,-0.0984 0.1029,-0.14616 0.25476,-0.14366 v -0.14521 z m 1.11105,0.6351 v 0.75551 l -0.0708,0.0589 v -0.19017 c -0.062,-0.0425 -0.12379,-0.0468 -0.185,-0.0134 0.0333,-0.0726 0.0951,-0.11086 0.185,-0.1142 l 0.001,-0.41651 z m -3.58945,0.16536 c 0.002,0.37797 0.0113,0.72746 0.0289,0.78187 0.0394,0.12141 0.9685,1.40033 1.07177,1.47536 0.10327,0.075 1.60661,0.56327 1.73426,0.56327 0.12765,0 1.63099,-0.48824 1.73426,-0.56327 0.10328,-0.075 1.03284,-1.35395 1.07229,-1.47536 0.0174,-0.0536 0.0264,-0.39354 0.0284,-0.76481 -0.0741,0.0433 -0.17399,0.0952 -0.29404,0.15399 -0.24539,0.12014 -0.57201,0.26756 -0.90795,0.41135 -0.33595,0.1438 -0.68101,0.28357 -0.9617,0.3886 -0.14035,0.0525 -0.26407,0.0963 -0.36639,0.12816 -0.0512,0.0159 -0.0965,0.0291 -0.13952,0.0393 -0.043,0.0101 -0.0759,0.0202 -0.15142,0.0202 -0.0755,0 -0.10838,-0.01 -0.15141,-0.0202 -0.043,-0.0101 -0.0884,-0.0233 -0.13952,-0.0393 -0.10233,-0.0319 -0.22604,-0.0756 -0.36639,-0.12816 -0.056,-0.0209 -0.12295,-0.0483 -0.18345,-0.0718 h -0.0548 c -0.13327,0.008 -0.24214,-0.0163 -0.3266,-0.0713 0.0612,0.002 0.11234,-0.004 0.15503,-0.0171 -0.17922,-0.072 -0.3651,-0.14867 -0.55138,-0.22841 -0.33595,-0.14379 -0.66257,-0.29121 -0.90796,-0.41135 -0.1227,-0.0601 -0.22524,-0.11329 -0.29972,-0.15709 -0.008,-0.005 -0.0151,-0.009 -0.0227,-0.014 z" />
  </g>
</svg>
