<?xml version="1.0" encoding="UTF-8" standalone="no"?>
<!-- Created with Inkscape (http://www.inkscape.org/) -->

<svg
   width="7.2041955mm"
   height="6.3609805mm"
   viewBox="0 0 7.2041955 6.3609805"
   version="1.1"
   id="svg1"
   xmlns="http://www.w3.org/2000/svg"
   xmlns:svg="http://www.w3.org/2000/svg">
  <defs
     id="defs1">
    <linearGradient
       id="swatch4">
      <stop
         style="stop-color:#000000;stop-opacity:1;"
         offset="0"
         id="stop4" />
    </linearGradient>
  </defs>
  <g
     id="layer3"
     transform="translate(-192.90243,-128.27602)">
    <path
       id="path34-39-2-3"
       style="fill:#ffffff;fill-opacity:1;stroke:none;stroke-width:0.250658;stroke-dasharray:none;stroke-opacity:1"
       d="m 199.22556,132.36467 c 0.50568,-0.47548 0.88108,-0.85971 0.88108,-0.93534 0,-0.20955 -2.85253,-2.76497 -3.48816,-3.1533 z" />
    <path
       id="path257-37-0"
       style="fill:#ffffff;fill-opacity:1;stroke:none;stroke-width:0.250658;stroke-dasharray:none;stroke-opacity:1"
       d="m 196.50421,128.56347 -2.52697,3.961 -0.0729,-0.0465 c 1.00837,0.93865 2.43675,2.15904 2.59984,2.15904 0.16424,0 1.61163,-1.2375 2.62103,-2.17868 l -0.0971,0.062 z m 0.005,2.4014 0.50437,0.001 -0.16175,0.23255 -0.46354,0.001 v 0.50281 h 0.0403 v -0.43925 c 0.17356,-0.0592 0.31941,-0.0336 0.43718,0.0765 -0.12862,-0.0501 -0.25042,-0.0559 -0.36587,-0.0176 v 0.11989 c 0.0728,-0.0308 0.14162,-0.0179 0.20671,0.0388 -0.0845,-0.0258 -0.15324,0.002 -0.20671,0.0816 l -0.0579,0.14004 0.35657,0.001 c 0.11003,0.002 0.20855,-0.04 0.29611,-0.12506 l -0.14625,0.21136 -0.001,0.73949 -0.44545,0.478 -0.31626,-0.20257 c -0.0697,-0.0334 -0.16024,-0.0175 -0.27182,0.0475 0.16349,-0.22185 0.29072,-0.32062 0.38138,-0.29559 l 0.31626,0.21291 0.0662,-0.061 v -0.8232 h -0.40928 c -0.0937,-0.006 -0.19642,0.002 -0.30799,0.0248 0.0783,-0.0883 0.13411,-0.134 0.16743,-0.13746 v -0.32659 c -0.0387,0.0134 -0.0974,-0.0263 -0.1757,-0.11886 0.0697,0.0286 0.12817,0.03 0.17466,0.004 z m 0.13126,0.95756 v 0.75551 l -0.0708,0.0589 v -0.19017 c -0.062,-0.0425 -0.12379,-0.0473 -0.185,-0.014 0.0333,-0.0724 0.0951,-0.11023 0.185,-0.11368 l 0.001,-0.41652 z" />
    <path
       id="path256-85-3"
       style="fill:#ffffff;fill-opacity:1;stroke:none;stroke-width:0.250658;stroke-dasharray:none;stroke-opacity:1"
       d="m 196.38955,128.27655 c -0.63718,0.38995 -3.48712,2.94332 -3.48712,3.15278 0,0.0756 0.37506,0.4595 0.88057,0.93482 z" />
  </g>
</svg>
