<?xml version="1.0" encoding="UTF-8" standalone="no"?>
<!-- Created with Inkscape (http://www.inkscape.org/) -->

<svg
   width="5.7250543mm"
   height="5.6291461mm"
   viewBox="0 0 5.7250543 5.6291461"
   version="1.1"
   id="svg1"
   xmlns="http://www.w3.org/2000/svg"
   xmlns:svg="http://www.w3.org/2000/svg">
  <defs
     id="defs1">
    <linearGradient
       id="swatch4">
      <stop
         style="stop-color:#000000;stop-opacity:1;"
         offset="0"
         id="stop4" />
    </linearGradient>
  </defs>
  <g
     id="layer3"
     transform="translate(-255.65884,-181.20675)">
    <path
       id="path24-11-10-87-0"
       style="display:inline;fill:#ffffff;fill-opacity:1;stroke:none;stroke-width:0.200527;stroke-dasharray:none;stroke-opacity:1"
       d="m 258.5211,181.20676 c -1.16547,0 -2.32854,0.0383 -2.64066,0.11421 l 2.6665,1.89446 2.5926,-1.90014 c -0.34405,-0.0724 -1.48078,-0.10853 -2.61844,-0.10853 z m 2.75642,0.2558 -2.56935,1.88361 c 0.0366,0.0272 0.0754,0.0602 0.11989,0.1018 0.0994,0.093 0.22202,0.22296 0.36122,0.37827 0.27839,0.31061 0.62085,0.72419 0.95084,1.1436 0.32998,0.4194 0.64698,0.84394 0.87437,1.17616 0.1137,0.16612 0.20459,0.30943 0.26458,0.41909 0.005,0.009 0.008,0.0163 0.0129,0.0248 0.12718,-0.88983 0.12244,-4.44123 -0.0145,-5.12734 z m -5.51594,0.0202 c -0.13548,0.74634 -0.1371,4.35136 -0.004,5.15162 0.0105,-0.0216 0.0224,-0.0442 0.0362,-0.0693 0.06,-0.10966 0.15089,-0.25297 0.26458,-0.41909 0.22739,-0.33222 0.54438,-0.75676 0.87437,-1.17616 0.32998,-0.41941 0.67297,-0.83299 0.95136,-1.1436 0.1392,-0.15531 0.26128,-0.28532 0.3607,-0.37827 0.0479,-0.0448 0.0907,-0.0803 0.12971,-0.10852 z m 2.77451,1.98075 c -0.0268,0.0195 -0.0631,0.0504 -0.10697,0.0915 -0.092,0.086 -0.21267,0.21229 -0.34985,0.36535 -0.27436,0.30611 -0.61536,0.71814 -0.94362,1.13534 -0.32825,0.4172 -0.64406,0.83996 -0.86816,1.16737 -0.11205,0.16371 -0.20079,0.30415 -0.25631,0.40566 -0.0265,0.0485 -0.0436,0.0864 -0.0532,0.11317 0.0365,0.007 0.0904,0.0154 0.16019,0.0227 0.14756,0.0155 0.35694,0.0286 0.60617,0.0393 0.49845,0.0213 1.15526,0.032 1.81177,0.032 0.65651,0 1.31385,-0.0108 1.8123,-0.032 0.24923,-0.0106 0.45964,-0.0238 0.6072,-0.0393 0.0702,-0.007 0.12375,-0.0155 0.16019,-0.0227 -0.01,-0.0268 -0.0277,-0.0647 -0.0543,-0.11317 -0.0555,-0.10151 -0.14426,-0.24195 -0.25631,-0.40566 -0.22409,-0.32741 -0.54042,-0.75017 -0.86868,-1.16737 -0.32826,-0.4172 -0.66926,-0.82923 -0.94362,-1.13534 -0.13718,-0.15306 -0.2573,-0.27932 -0.34933,-0.36535 -0.0439,-0.0411 -0.0807,-0.072 -0.10749,-0.0915 z m 0.0951,1.01906 c 0.017,0.10175 0.0729,0.16312 0.16743,0.18397 0.0945,0.0209 0.17676,0.001 0.2465,-0.0579 -0.0775,0.2035 -0.17343,0.31019 -0.28733,0.31936 -0.11389,0.009 -0.20415,-0.0424 -0.27078,-0.15502 l -0.12557,0.0749 z m -0.80099,0.0264 c 0.001,0.13093 0.0838,0.20135 0.2465,0.21136 l -0.11007,0.14624 -0.002,1.38338 0.19792,0.0868 c 0.0496,-0.0567 0.11088,-0.0834 0.18448,-0.0801 -0.0713,0.0367 -0.16696,0.1447 -0.28783,0.32401 l -0.27802,-0.10542 c -0.0356,0.055 -0.11762,0.0856 -0.24547,0.0915 0.0961,-0.0459 0.16383,-0.1113 0.20257,-0.19637 l 0.001,-1.49861 c -0.0411,-0.007 -0.0726,-0.0255 -0.0951,-0.0563 l -0.1943,0.0698 z m 1.21802,0.11007 0.24184,0.20877 c 0.0504,0.0259 0.11553,0.0247 0.19534,-0.004 -0.0875,0.0676 -0.15324,0.10311 -0.19741,0.10645 v 0.3514 l -0.44286,0.15399 0.44131,0.15348 v 0.73329 c 0.10925,0.003 0.2114,0.0739 0.30593,0.21239 -0.0442,-0.0575 -0.14968,-0.0856 -0.31626,-0.0848 l -0.22789,-0.21032 v -0.64802 l -0.36019,-0.14263 0.36019,-0.16898 z m -0.96119,0.1664 v 1.34203 l -0.0646,0.0589 v -1.31 z m 0.92656,0.82682 -0.001,0.56431 c -0.11622,-0.0592 -0.23001,-0.0629 -0.34158,-0.0103 0.0387,-0.0934 0.13081,-0.131 0.27647,-0.11265 v -0.14108 c -0.0891,-0.0409 -0.17418,-0.0291 -0.25476,0.0351 0.0178,-0.0984 0.1029,-0.14668 0.25476,-0.14418 v -0.14521 z m -0.38705,0.52297 c 0.0256,0.10174 0.0786,0.16311 0.15916,0.18396 0.0806,0.0208 0.17239,0.001 0.27543,-0.0579 -0.0968,0.18681 -0.20443,0.28892 -0.32297,0.30644 -0.11777,0.0175 -0.22665,-0.03 -0.3266,-0.14263 l -0.17311,0.0625 z" />
  </g>
</svg>
