<?xml version="1.0" encoding="UTF-8" standalone="no"?>
<!-- Created with Inkscape (http://www.inkscape.org/) -->

<svg
   width="5.6705518mm"
   height="5.9008994mm"
   viewBox="0 0 5.6705518 5.9008994"
   version="1.1"
   id="svg1"
   xmlns="http://www.w3.org/2000/svg"
   xmlns:svg="http://www.w3.org/2000/svg">
  <defs
     id="defs1">
    <linearGradient
       id="swatch4">
      <stop
         style="stop-color:#000000;stop-opacity:1;"
         offset="0"
         id="stop4" />
    </linearGradient>
  </defs>
  <g
     id="layer3"
     transform="translate(-278.72031,-195.73296)">
    <path
       id="path237-317-04-20-2"
       style="fill:#ffffff;fill-opacity:1;stroke:none;stroke-width:0.200527;stroke-dasharray:none;stroke-opacity:1"
       d="m 281.55535,195.73301 c -0.12765,0 -1.63099,0.48824 -1.73426,0.56327 -0.10327,0.075 -1.03232,1.35397 -1.07177,1.47537 -0.0183,0.0563 -0.0276,0.4279 -0.0289,0.82062 0.008,-0.005 0.0144,-0.009 0.0227,-0.014 0.0745,-0.0438 0.17702,-0.097 0.29972,-0.15709 0.24539,-0.12015 0.57201,-0.26756 0.90796,-0.41135 0.33595,-0.14379 0.68049,-0.28356 0.96118,-0.3886 0.14035,-0.0525 0.26407,-0.0963 0.36639,-0.12816 0.0512,-0.0159 0.0965,-0.0286 0.13952,-0.0388 0.043,-0.0101 0.0759,-0.0207 0.15141,-0.0207 0.0755,0 0.10839,0.0105 0.15142,0.0207 0.043,0.0101 0.0884,0.0228 0.13952,0.0388 0.10232,0.0319 0.22604,0.0756 0.36639,0.12816 0.2807,0.10504 0.62575,0.24481 0.9617,0.3886 0.33595,0.14379 0.66256,0.2912 0.90795,0.41135 0.12024,0.0589 0.22047,0.11071 0.29456,0.15399 -0.002,-0.38625 -0.0109,-0.74811 -0.0289,-0.80356 -0.0394,-0.1214 -0.96902,-1.40034 -1.07229,-1.47537 -0.10328,-0.075 -1.60661,-0.56327 -1.73426,-0.56327 z m 0.0139,1.83555 c -0.002,3.3e-4 -0.002,1.1e-4 -0.004,5.1e-4 -0.0247,0.006 -0.0622,0.016 -0.10697,0.03 -0.0895,0.0279 -0.20838,0.0699 -0.34468,0.12092 -0.0545,0.0204 -0.12098,0.0472 -0.18035,0.0703 0.0399,0.0478 0.10734,0.0747 0.20309,0.0806 l -0.11008,0.14625 -10e-4,1.38389 0.19741,0.0863 c 0.0496,-0.0567 0.11139,-0.0834 0.185,-0.0801 -0.0666,0.0343 -0.15534,0.13136 -0.2651,0.28991 0.12344,0.0458 0.23303,0.0848 0.31574,0.11059 0.0447,0.0139 0.0823,0.0242 0.10697,0.03 0.002,4e-4 0.002,1.9e-4 0.004,5.2e-4 0.002,-3.3e-4 0.002,-1.2e-4 0.004,-5.2e-4 0.0247,-0.006 0.0622,-0.016 0.10697,-0.03 0.0827,-0.0258 0.19275,-0.0647 0.31626,-0.11059 l -0.43822,-0.29869 c -0.0511,-0.0334 -0.12148,-0.0343 -0.21135,-0.003 0.0876,-0.0717 0.15375,-0.10526 0.19947,-0.10026 v -1.01441 c -0.0442,-0.003 -0.10985,-0.0389 -0.19741,-0.10645 0.0798,0.0284 0.14498,0.03 0.19534,0.004 l 0.42891,-0.47801 c -0.11336,-0.0418 -0.2158,-0.0777 -0.293,-0.1018 -0.0448,-0.0139 -0.0823,-0.0242 -0.10697,-0.03 -0.002,-4e-4 -0.002,-1.8e-4 -0.004,-5.1e-4 z m 0.50953,0.17208 c 0.0216,0.0228 0.0503,0.0394 0.0863,0.0491 0.02,0.005 0.0399,0.008 0.0599,0.008 -0.0486,-0.0189 -0.10072,-0.0401 -0.14625,-0.0574 z m 0.25735,0.10077 c -0.0771,0.12421 -0.15263,0.18931 -0.22686,0.19327 -0.0937,0.004 -0.17469,-0.0357 -0.24288,-0.11989 l -0.0801,0.0873 v 1.2361 l 0.32297,0.19999 0.0476,-0.0661 v -0.82165 c -0.0566,-0.0117 -0.10053,-0.0491 -0.1323,-0.11162 l -0.22582,0.31884 0.002,-0.11627 0.37879,-0.49248 c 0.0178,0.10175 0.0739,0.16261 0.16846,0.18345 0.0945,0.0209 0.17883,0.002 0.25322,-0.0574 -0.0829,0.17014 -0.15661,0.26799 -0.2217,0.29301 l -0.002,0.66766 -0.33021,0.44235 c 0.2692,-0.10126 0.60035,-0.23539 0.92449,-0.37414 0.33219,-0.14218 0.65621,-0.28795 0.89452,-0.40462 0.11915,-0.0583 0.21701,-0.1095 0.28215,-0.1478 0.0326,-0.0192 0.0567,-0.0354 0.0703,-0.046 9.9e-4,-7.7e-4 3e-4,-8.8e-4 0.002,-0.002 -8.1e-4,-7.4e-4 -1.2e-4,-8.5e-4 -0.002,-0.002 -0.0136,-0.0106 -0.0377,-0.0268 -0.0703,-0.046 -0.0651,-0.0383 -0.163,-0.0895 -0.28215,-0.14779 -0.23831,-0.11668 -0.56233,-0.26245 -0.89452,-0.40463 -0.21771,-0.0932 -0.43195,-0.18063 -0.63562,-0.26148 z m -1.69292,0.0625 c -0.15543,0.0631 -0.31674,0.13059 -0.47645,0.19895 -0.33218,0.14218 -0.6557,0.28795 -0.89401,0.40463 -0.11915,0.0583 -0.21701,0.10948 -0.28215,0.14779 -0.0326,0.0191 -0.0567,0.0354 -0.0703,0.046 -9.9e-4,7.7e-4 -8.1e-4,8.8e-4 -0.002,0.002 8.1e-4,7.4e-4 6.3e-4,8.5e-4 0.002,0.002 0.0136,0.0106 0.0377,0.0268 0.0703,0.046 0.0651,0.0383 0.163,0.0894 0.28215,0.1478 0.23831,0.11667 0.56183,0.26244 0.89401,0.40462 0.20928,0.0896 0.41563,0.17366 0.61288,0.25218 0.007,-0.0113 0.0131,-0.023 0.0186,-0.0351 l 10e-4,-1.49861 c -0.0411,-0.007 -0.0726,-0.0255 -0.0951,-0.0563 l -0.1943,0.0703 z m 0.50385,0.032 v 1.34255 l -0.0651,0.0584 v -1.30948 z m 0.8971,0.58652 0.0651,0.0589 v 0.75448 l -0.0651,0.0589 z m -3.32383,0.29094 c 0.002,0.37797 0.0113,0.72746 0.0289,0.78187 0.0395,0.12141 0.9685,1.40033 1.07177,1.47536 0.10328,0.075 1.60661,0.56327 1.73426,0.56327 0.12766,0 1.63098,-0.48824 1.73426,-0.56327 0.10327,-0.075 1.03285,-1.35395 1.07229,-1.47536 0.0174,-0.0536 0.0264,-0.39354 0.0284,-0.76481 -0.074,0.0433 -0.17398,0.0952 -0.29404,0.15399 -0.24539,0.12014 -0.572,0.26756 -0.90795,0.41135 -0.33595,0.1438 -0.681,0.28357 -0.9617,0.3886 -0.14035,0.0525 -0.26407,0.0963 -0.36639,0.12816 -0.0512,0.0159 -0.0965,0.0291 -0.13952,0.0393 -0.043,0.0101 -0.0759,0.0202 -0.15142,0.0202 -0.0755,0 -0.10839,-0.01 -0.15141,-0.0202 -0.043,-0.0101 -0.0884,-0.0233 -0.13952,-0.0393 -0.10232,-0.0319 -0.22604,-0.0756 -0.36639,-0.12816 -0.0631,-0.0236 -0.13797,-0.0543 -0.20671,-0.0811 -0.0318,0.007 -0.0675,0.0121 -0.10903,0.014 0.0213,-0.0102 0.041,-0.021 0.0594,-0.0331 -0.22408,-0.088 -0.46253,-0.18463 -0.70486,-0.28835 -0.33595,-0.14379 -0.66257,-0.29121 -0.90796,-0.41135 -0.1227,-0.0601 -0.22523,-0.1133 -0.29972,-0.1571 -0.008,-0.005 -0.015,-0.009 -0.0227,-0.014 z" />
  </g>
</svg>
