<?xml version="1.0" encoding="UTF-8" standalone="no"?>
<!-- Created with Inkscape (http://www.inkscape.org/) -->

<svg
   width="7.2042117mm"
   height="6.3609805mm"
   viewBox="0 0 7.2042117 6.3609805"
   version="1.1"
   id="svg1"
   xmlns="http://www.w3.org/2000/svg"
   xmlns:svg="http://www.w3.org/2000/svg">
  <defs
     id="defs1">
    <linearGradient
       id="swatch4">
      <stop
         style="stop-color:#000000;stop-opacity:1;"
         offset="0"
         id="stop4" />
    </linearGradient>
  </defs>
  <g
     id="layer3"
     transform="translate(-185.08607,-128.27602)">
    <path
       id="path34-39-16-8"
       style="fill:#ffffff;fill-opacity:1;stroke:none;stroke-width:0.250658;stroke-dasharray:none;stroke-opacity:1"
       d="m 191.40918,132.36467 c 0.50569,-0.47548 0.88108,-0.85971 0.88108,-0.93534 0,-0.20955 -2.85253,-2.76497 -3.48815,-3.1533 z" />
    <path
       id="path257-3-23"
       style="fill:#ffffff;fill-opacity:1;stroke:none;stroke-width:0.250658;stroke-dasharray:none;stroke-opacity:1"
       d="m 188.68815,128.56347 -2.52697,3.961 -0.0729,-0.0465 c 1.00837,0.93865 2.43675,2.15904 2.59984,2.15904 0.16424,0 1.61163,-1.2375 2.62103,-2.17868 l -0.0971,0.062 z m 0.15348,2.38331 c 0.0201,0.10178 0.0822,0.16315 0.18604,0.18397 0.1046,0.0208 0.19718,0.001 0.27853,-0.0579 -0.0914,0.1703 -0.20055,0.25768 -0.32762,0.26252 -0.1263,0.005 -0.22819,-0.0278 -0.30645,-0.0987 l -0.13745,0.0625 z m 0.23565,0.39998 v 1.06505 l 0.22117,0.001 v 0.0811 l -0.22117,-0.002 v 0.1602 l 0.092,0.0713 c 0.0349,-0.0553 0.0943,-0.0818 0.1788,-0.0791 -0.0581,0.0292 -0.14837,0.156 -0.27079,0.38034 l -0.19637,-0.14624 c -0.0744,0.0743 -0.17265,0.12109 -0.29507,0.14108 0.1015,-0.0642 0.17753,-0.14551 0.22789,-0.24392 v -0.26251 h -0.55655 v -0.0951 l 0.55656,0.001 v -1.06454 c 0.0883,0.0319 0.17599,0.029 0.26355,-0.008 z m -0.27854,0.0129 c -0.10692,0.04 -0.21088,0.34546 -0.31161,0.91674 -0.14334,0.12925 -0.29617,0.1639 -0.45888,0.10387 0.11854,0.0275 0.2481,-0.13688 0.38912,-0.493 0.14102,-0.35609 0.26825,-0.53176 0.38137,-0.52761 z" />
    <path
       id="path256-8-6"
       style="fill:#ffffff;fill-opacity:1;stroke:none;stroke-width:0.250658;stroke-dasharray:none;stroke-opacity:1"
       d="m 188.57318,128.27655 c -0.63719,0.38995 -3.48713,2.94332 -3.48713,3.15278 0,0.0756 0.37506,0.4595 0.88057,0.93482 z" />
  </g>
</svg>
