<?xml version="1.0" encoding="UTF-8" standalone="no"?>
<!-- Created with Inkscape (http://www.inkscape.org/) -->

<svg
   width="7.2042117mm"
   height="6.3448806mm"
   viewBox="0 0 7.2042117 6.3448806"
   version="1.1"
   id="svg1"
   xmlns="http://www.w3.org/2000/svg"
   xmlns:svg="http://www.w3.org/2000/svg">
  <defs
     id="defs1">
    <linearGradient
       id="swatch4">
      <stop
         style="stop-color:#000000;stop-opacity:1;"
         offset="0"
         id="stop4" />
    </linearGradient>
  </defs>
  <g
     id="layer3"
     transform="translate(-247.33161,-158.54511)">
    <path
       id="path34-81-8-39-2-20-5"
       style="fill:#ffffff;fill-opacity:1;stroke:none;stroke-width:0.200326;stroke-dasharray:none;stroke-opacity:1"
       d="m 250.86627,158.5451 c -0.53449,0.28392 -3.53467,2.96694 -3.53467,3.18172 0,0.0765 0.38354,0.46818 0.89762,0.95084 z m 0.13384,0 2.6355,4.13463 c 0.5152,-0.48363 0.9002,-0.87635 0.9002,-0.95291 0,-0.2149 -3.00363,-2.90029 -3.5357,-3.18172 z m -0.0667,0.26613 -2.45928,3.85817 2.46342,1.11052 2.45049,-1.11569 z m 0.16537,1.86035 c 0.0434,0.10175 0.11347,0.1681 0.21032,0.19896 0.0969,0.03 0.23236,-0.0316 0.40669,-0.185 -0.12319,0.25019 -0.24293,0.38899 -0.35915,0.41651 -0.11544,0.0275 -0.2282,-0.0302 -0.33899,-0.17363 l -0.13746,0.0713 z m -0.8692,0.0202 c 0.002,0.13093 0.0833,0.20135 0.24598,0.21135 l -0.11007,0.14625 -0.001,1.38389 0.1974,0.0863 c 0.0496,-0.0567 0.1114,-0.0834 0.185,-0.0801 -0.0713,0.0367 -0.16748,0.14471 -0.28835,0.32402 l -0.27802,-0.10491 c -0.0356,0.0551 -0.1171,0.0851 -0.24494,0.091 0.0961,-0.0459 0.16331,-0.1113 0.20205,-0.19637 l 0.001,-1.49861 c -0.0411,-0.007 -0.0726,-0.0255 -0.0951,-0.0563 l -0.1943,0.0703 z m 1.51205,0 v 0.90589 l -0.58136,0.51779 v 0.41031 l 0.5333,-0.002 c 0.0728,-0.17346 0.18119,-0.28757 0.32453,-0.34261 -0.14644,0.0901 -0.2504,0.28048 -0.31161,0.57154 l -0.74259,-0.002 c -0.13327,0.008 -0.24214,-0.0163 -0.32659,-0.0713 0.15031,0.004 0.24496,-0.0364 0.2837,-0.12144 V 162.174 l 0.5948,-0.53433 v -0.60565 c 0.0744,-0.05 0.14989,-0.16414 0.22582,-0.34261 z m -1.25522,0.27647 v 1.34255 l -0.0651,0.0584 v -1.30949 z m 1.00304,0.0827 -0.001,0.56431 c -0.11622,-0.0592 -0.23001,-0.0629 -0.34158,-0.0103 0.0387,-0.0934 0.1308,-0.131 0.27647,-0.11265 v -0.14108 c -0.0891,-0.0409 -0.17367,-0.0291 -0.25425,0.0351 0.0178,-0.0984 0.10239,-0.14668 0.25425,-0.14418 v -0.14521 z m 1.9482,1.81281 -2.4045,1.09347 v 0.93276 c 0.36199,-0.21531 1.51741,-1.20608 2.4045,-2.02623 z m -4.99608,0.0103 c 0.88386,0.81645 2.02803,1.79843 2.39056,2.01538 v -0.93637 z" />
  </g>
</svg>
