<?xml version="1.0" encoding="UTF-8" standalone="no"?>
<!-- Created with Inkscape (http://www.inkscape.org/) -->

<svg
   width="5.6705198mm"
   height="5.9009156mm"
   viewBox="0 0 5.6705198 5.9009156"
   version="1.1"
   id="svg1"
   xmlns="http://www.w3.org/2000/svg"
   xmlns:svg="http://www.w3.org/2000/svg">
  <defs
     id="defs1">
    <linearGradient
       id="swatch4">
      <stop
         style="stop-color:#000000;stop-opacity:1;"
         offset="0"
         id="stop4" />
    </linearGradient>
  </defs>
  <g
     id="layer3"
     transform="translate(-302.291,-195.72884)">
    <path
       id="path237-317-04-51-6"
       style="fill:#ffffff;fill-opacity:1;stroke:none;stroke-width:0.200527;stroke-dasharray:none;stroke-opacity:1"
       d="m 305.12601,195.72888 c -0.12765,0 -1.631,0.48824 -1.73427,0.56327 -0.10327,0.075 -1.03231,1.35396 -1.07176,1.47536 -0.0183,0.0563 -0.0276,0.4279 -0.0289,0.82062 0.008,-0.005 0.0144,-0.009 0.0227,-0.014 0.0745,-0.0438 0.17703,-0.097 0.29973,-0.1571 0.24539,-0.12015 0.572,-0.26755 0.90795,-0.41134 0.33595,-0.14379 0.68049,-0.28357 0.96118,-0.38861 0.14035,-0.0525 0.26407,-0.0963 0.36639,-0.12815 0.0512,-0.0159 0.0965,-0.0286 0.13953,-0.0388 0.043,-0.0101 0.0759,-0.0207 0.15141,-0.0207 0.0755,0 0.10838,0.0105 0.15141,0.0207 0.043,0.0101 0.0884,0.0228 0.13953,0.0388 0.10232,0.0319 0.22603,0.0756 0.36638,0.12815 0.2807,0.10504 0.62575,0.24482 0.9617,0.38861 0.33595,0.14379 0.66257,0.29119 0.90796,0.41134 0.12024,0.0589 0.22046,0.11072 0.29455,0.154 -0.002,-0.38625 -0.0109,-0.74812 -0.0289,-0.80357 -0.0395,-0.1214 -0.969,-1.40033 -1.07228,-1.47536 -0.10327,-0.075 -1.60661,-0.56327 -1.73426,-0.56327 z m 0.0139,1.83554 c -0.002,3.3e-4 -0.002,1.2e-4 -0.004,5.2e-4 -0.0247,0.006 -0.0622,0.016 -0.10697,0.03 -0.0895,0.0279 -0.20838,0.0699 -0.34468,0.12092 -0.0567,0.0212 -0.12564,0.0493 -0.18758,0.0734 0.0411,0.0358 0.10239,0.0564 0.18448,0.0615 l -0.11059,0.14624 -10e-4,1.3839 0.1974,0.0863 c 0.0496,-0.0567 0.1114,-0.0834 0.18501,-0.0801 -0.0673,0.0346 -0.15681,0.13351 -0.2682,0.29507 1.8e-4,7e-5 3.2e-4,4.5e-4 5.1e-4,5.2e-4 0.1363,0.051 0.25518,0.093 0.34468,0.12092 0.0447,0.0139 0.0823,0.0242 0.10697,0.03 0.002,4e-4 0.002,1.9e-4 0.004,5.2e-4 0.002,-3.3e-4 0.002,-1.2e-4 0.004,-5.2e-4 0.0247,-0.006 0.0622,-0.016 0.10697,-0.03 0.0817,-0.0255 0.19043,-0.0639 0.31213,-0.10903 -0.0531,-0.0671 -0.11429,-0.11007 -0.18345,-0.12868 -0.0775,-0.0208 -0.15507,-0.002 -0.23255,0.0574 0.0984,-0.19682 0.1946,-0.2971 0.28836,-0.30127 0.0937,-0.005 0.17469,0.0346 0.24288,0.11885 l 0.0801,-0.11265 v -1.19838 l -0.2651,-0.22531 -0.10594,0.0791 v 0.79685 c 0.0566,0.0117 0.1088,0.0613 0.15606,0.14883 l 0.20206,-0.29404 -10e-4,0.14108 -0.26251,0.40566 c -0.0566,-0.10175 -0.1419,-0.16312 -0.2558,-0.18397 -0.1139,-0.0208 -0.20829,-0.002 -0.28267,0.0574 0.0442,-0.12844 0.11838,-0.19682 0.22221,-0.20516 v -0.62787 c -0.0922,0.0134 -0.17315,-0.0193 -0.24288,-0.0977 0.093,0.0108 0.17418,-0.0113 0.24391,-0.0672 l 0.38757,-0.35657 c -0.11787,-0.0436 -0.22369,-0.0811 -0.30334,-0.10594 -0.0447,-0.0139 -0.0823,-0.0242 -0.10697,-0.03 -0.002,-4e-4 -0.002,-1.9e-4 -0.004,-5.2e-4 z m 0.61443,0.21343 0.23203,0.19172 c 0.0511,0.0334 0.12148,0.0343 0.21135,0.003 -0.0875,0.0717 -0.15427,0.10526 -0.19998,0.10025 v 0.97669 c 0.0442,0.003 0.11036,0.0389 0.19792,0.10645 -0.0798,-0.0284 -0.14498,-0.0295 -0.19534,-0.004 l -0.38602,0.52349 c 0.26979,-0.1014 0.60261,-0.23636 0.92811,-0.37569 0.33219,-0.14218 0.65621,-0.28796 0.89452,-0.40463 0.11915,-0.0583 0.21701,-0.10949 0.28215,-0.14779 0.0326,-0.0192 0.0567,-0.0354 0.0703,-0.046 9.9e-4,-7.7e-4 8.1e-4,-8.7e-4 0.002,-0.002 -8.1e-4,-7.4e-4 -6.3e-4,-8.5e-4 -0.002,-0.002 -0.0136,-0.0106 -0.0377,-0.0268 -0.0703,-0.046 -0.0651,-0.0383 -0.163,-0.0895 -0.28215,-0.1478 -0.23831,-0.11668 -0.56233,-0.26244 -0.89452,-0.40462 -0.2739,-0.11724 -0.54537,-0.22703 -0.78807,-0.32091 z m -1.06298,0.13797 v 1.34204 l -0.0651,0.0589 v -1.30948 z m -0.55087,0.0155 c -0.13297,0.0544 -0.26802,0.10962 -0.40308,0.16743 -0.33218,0.14218 -0.65569,0.28794 -0.894,0.40462 -0.11915,0.0583 -0.21702,0.10949 -0.28216,0.1478 -0.0326,0.0191 -0.0567,0.0354 -0.0703,0.046 -9.9e-4,7.7e-4 -8e-4,8.8e-4 -0.002,0.002 8.1e-4,7.4e-4 6.2e-4,8.4e-4 0.002,0.002 0.0136,0.0106 0.0377,0.0268 0.0703,0.046 0.0651,0.0383 0.16301,0.0894 0.28216,0.14779 0.23831,0.11667 0.56182,0.26245 0.894,0.40463 0.19864,0.085 0.39524,0.16589 0.58394,0.24133 0.008,-0.0129 0.0153,-0.0263 0.0217,-0.0403 l 10e-4,-1.49862 c -0.0411,-0.007 -0.0731,-0.0255 -0.0956,-0.0563 l -0.19379,0.0703 z m 1.36012,0.0418 v 0.83458 l -0.0651,-0.0589 v -0.71676 z m -3.20962,0.83613 c 0.002,0.37797 0.0112,0.72745 0.0289,0.78186 0.0394,0.12141 0.96849,1.40033 1.07176,1.47536 0.10328,0.075 1.60662,0.56328 1.73427,0.56328 0.12766,0 1.63098,-0.48825 1.73426,-0.56328 0.10327,-0.075 1.03284,-1.35395 1.07228,-1.47536 0.0174,-0.0536 0.0264,-0.39354 0.0284,-0.76481 -0.074,0.0433 -0.17397,0.0952 -0.29403,0.154 -0.24539,0.12014 -0.57201,0.26755 -0.90796,0.41134 -0.33595,0.1438 -0.681,0.28358 -0.9617,0.38861 -0.14035,0.0525 -0.26406,0.0963 -0.36638,0.12816 -0.0512,0.0159 -0.0965,0.0291 -0.13953,0.0393 -0.043,0.0101 -0.0759,0.0202 -0.15141,0.0202 -0.0755,0 -0.10839,-0.01 -0.15141,-0.0202 -0.043,-0.0101 -0.0884,-0.0233 -0.13953,-0.0393 -0.10232,-0.0319 -0.22604,-0.0756 -0.36639,-0.12816 -0.0739,-0.0277 -0.16089,-0.0626 -0.24236,-0.0946 -0.0294,0.006 -0.0625,0.01 -0.0997,0.0114 0.019,-0.009 0.0365,-0.0194 0.0532,-0.03 -0.21513,-0.0849 -0.44189,-0.17681 -0.67231,-0.27544 -0.33595,-0.14379 -0.66256,-0.2912 -0.90795,-0.41134 -0.1227,-0.0601 -0.22524,-0.1133 -0.29973,-0.1571 -0.008,-0.005 -0.0151,-0.009 -0.0227,-0.0139 z" />
  </g>
</svg>
