<?xml version="1.0" encoding="UTF-8" standalone="no"?>
<!-- Created with Inkscape (http://www.inkscape.org/) -->

<svg
   width="5.6704874mm"
   height="5.9010448mm"
   viewBox="0 0 5.6704874 5.9010448"
   version="1.1"
   id="svg1"
   xmlns="http://www.w3.org/2000/svg"
   xmlns:svg="http://www.w3.org/2000/svg">
  <defs
     id="defs1">
    <linearGradient
       id="swatch4">
      <stop
         style="stop-color:#000000;stop-opacity:1;"
         offset="0"
         id="stop4" />
    </linearGradient>
  </defs>
  <g
     id="layer3"
     transform="translate(-185.787,-202.32012)">
    <path
       id="path237-317-04-4-2"
       style="fill:#ffffff;fill-opacity:1;stroke:none;stroke-width:0.200527;stroke-dasharray:none;stroke-opacity:1"
       d="m 188.62201,202.3202 c -0.12765,0 -1.63099,0.48825 -1.73426,0.56328 -0.10328,0.075 -1.03233,1.35396 -1.07177,1.47536 -0.0183,0.0563 -0.0276,0.4279 -0.0289,0.82062 0.008,-0.005 0.0144,-0.009 0.0227,-0.014 0.0745,-0.0438 0.17703,-0.097 0.29972,-0.1571 0.2454,-0.12015 0.57201,-0.26755 0.90796,-0.41134 0.26949,-0.11535 0.53612,-0.22297 0.77928,-0.31729 l 0.0357,-0.0537 c 0.005,0.0116 0.0104,0.0229 0.016,0.0336 0.0421,-0.0162 0.0905,-0.0363 0.13022,-0.0512 0.14035,-0.0525 0.26407,-0.0963 0.36639,-0.12816 0.0512,-0.0159 0.0965,-0.0285 0.13952,-0.0387 0.043,-0.0101 0.0759,-0.0207 0.15142,-0.0207 0.0755,0 0.10838,0.0105 0.15141,0.0207 0.043,0.0101 0.0884,0.0228 0.13952,0.0387 0.10233,0.0319 0.22604,0.0756 0.36639,0.12816 0.0224,0.008 0.0502,0.0201 0.0734,0.0289 0.12831,0.0488 0.26344,0.10097 0.40824,0.15968 0.0194,-0.009 0.0381,-0.0198 0.0563,-0.0331 -0.009,0.0162 -0.0179,0.0308 -0.0269,0.0455 0.14788,0.0602 0.29976,0.12302 0.45062,0.18759 0.33595,0.14379 0.66256,0.29119 0.90796,0.41134 0.12024,0.0589 0.22047,0.11072 0.29455,0.154 -0.002,-0.38625 -0.0109,-0.74812 -0.0289,-0.80357 -0.0395,-0.1214 -0.96901,-1.40033 -1.07228,-1.47536 -0.10327,-0.075 -1.60661,-0.56328 -1.73426,-0.56328 z m 0.0139,1.83555 c -0.002,3.3e-4 -0.002,1.2e-4 -0.004,5.2e-4 -0.0247,0.006 -0.0622,0.016 -0.10697,0.03 -0.0895,0.0279 -0.20839,0.0699 -0.34468,0.12092 -0.0643,0.0241 -0.14193,0.0555 -0.21291,0.0832 0.023,0.0143 0.0477,0.026 0.0749,0.0346 0.0969,0.03 0.23236,-0.0316 0.40669,-0.18501 -0.12319,0.2502 -0.24293,0.38899 -0.35915,0.41652 -0.11545,0.0275 -0.2282,-0.0302 -0.339,-0.17364 l -0.13746,0.0713 0.0202,-0.0305 c -0.13203,0.0541 -0.26593,0.10902 -0.39998,0.1664 -0.33219,0.14218 -0.65569,0.28794 -0.894,0.40462 -0.11916,0.0583 -0.21701,0.10949 -0.28216,0.1478 -0.0326,0.0191 -0.0567,0.0354 -0.0703,0.046 -9.8e-4,7.7e-4 -6.9e-4,8.8e-4 -0.001,0.002 8.1e-4,7.4e-4 5.2e-4,8.4e-4 0.001,0.002 0.0136,0.0106 0.0377,0.0268 0.0703,0.046 0.0651,0.0383 0.163,0.0894 0.28216,0.14779 0.23831,0.11667 0.56181,0.26245 0.894,0.40463 0.14101,0.0603 0.28217,0.11913 0.42065,0.1757 v -0.33797 l 0.59531,-0.53433 v -0.60565 c 0.0744,-0.05 0.14938,-0.16414 0.22531,-0.34261 v 0.90588 l -0.58136,0.5178 v 0.41031 l 0.53382,-0.001 c 0.0728,-0.17347 0.18067,-0.28809 0.32401,-0.34313 -0.14644,0.0901 -0.2504,0.281 -0.31161,0.57206 l -0.16744,-4e-4 c 0.0963,0.0351 0.1849,0.0662 0.25269,0.0873 0.0447,0.0139 0.0823,0.0242 0.10697,0.03 0.002,4e-4 0.002,1.9e-4 0.004,5.2e-4 0.002,-3.3e-4 0.002,-1.2e-4 0.004,-5.2e-4 0.0247,-0.006 0.0622,-0.016 0.10697,-0.03 0.0895,-0.0279 0.2089,-0.0699 0.3452,-0.12092 0.0395,-0.0148 0.0885,-0.0349 0.13074,-0.0512 0.0476,-0.0462 0.0865,-0.0985 0.11628,-0.15658 v -0.26252 h -0.55656 v -0.0951 l 0.55656,0.001 v -1.06453 c 0.0883,0.0317 0.17599,0.0295 0.26355,-0.007 v 1.06454 l 0.22117,0.001 v 0.0816 l -0.22117,-0.003 v 0.16019 l 0.092,0.0713 c 0.0349,-0.055 0.0944,-0.0816 0.1788,-0.0791 -0.0163,0.008 -0.0355,0.025 -0.0569,0.0486 0.0744,-0.0311 0.14739,-0.0607 0.2217,-0.0925 0.33218,-0.14218 0.65621,-0.28796 0.89452,-0.40463 0.11915,-0.0583 0.217,-0.10949 0.28215,-0.14779 0.0326,-0.0192 0.0567,-0.0354 0.0703,-0.046 9.9e-4,-7.7e-4 6.9e-4,-8.7e-4 0.002,-0.002 -8.1e-4,-7.4e-4 -5.1e-4,-8.5e-4 -0.002,-0.002 -0.0136,-0.0106 -0.0377,-0.0268 -0.0703,-0.046 -0.0651,-0.0383 -0.163,-0.0895 -0.28215,-0.1478 -0.23831,-0.11668 -0.56234,-0.26244 -0.89452,-0.40462 -0.11555,-0.0495 -0.23019,-0.0964 -0.34469,-0.14366 -0.0581,0.0506 -0.12122,0.0774 -0.18965,0.0801 -0.12629,0.005 -0.2287,-0.0278 -0.30695,-0.0987 l -0.13695,0.0625 0.19172,-0.22066 c -0.0522,-0.0202 -0.11139,-0.0445 -0.15968,-0.0625 -0.1363,-0.051 -0.2557,-0.093 -0.3452,-0.12092 -0.0447,-0.0139 -0.0823,-0.0242 -0.10697,-0.03 -0.002,-4e-4 -0.002,-1.9e-4 -0.004,-5.2e-4 z m -0.4129,0.44959 -10e-4,0.5643 c -0.11622,-0.0592 -0.23052,-0.0629 -0.34209,-0.0103 0.0387,-0.0934 0.13132,-0.131 0.27698,-0.11266 v -0.14107 c -0.0891,-0.0409 -0.17418,-0.0291 -0.25476,0.0351 0.0178,-0.0984 0.1029,-0.14668 0.25476,-0.14418 v -0.14521 z m 1.10071,0.045 c -0.10692,0.04 -0.21088,0.34546 -0.31161,0.91674 -0.14334,0.12926 -0.29617,0.16391 -0.45888,0.10386 0.11854,0.0275 0.2481,-0.13636 0.38912,-0.49247 0.14102,-0.35611 0.26825,-0.5323 0.38137,-0.52813 z m -3.53673,0.75034 c 0.002,0.37797 0.0113,0.72745 0.0289,0.78186 0.0394,0.12141 0.96849,1.40033 1.07177,1.47536 0.10327,0.075 1.60661,0.56328 1.73426,0.56328 0.12765,0 1.63099,-0.48825 1.73426,-0.56328 0.10327,-0.075 1.03284,-1.35395 1.07228,-1.47536 0.0174,-0.0536 0.0264,-0.39354 0.0284,-0.76481 -0.0741,0.0433 -0.17398,0.0952 -0.29404,0.154 -0.24539,0.12014 -0.572,0.26755 -0.90795,0.41134 -0.20626,0.0883 -0.41056,0.17145 -0.60668,0.2496 -0.0149,0.0259 -0.03,0.0534 -0.046,0.0827 l -0.0568,-0.0424 c -0.0851,0.0334 -0.17522,0.0699 -0.25218,0.0987 -0.14035,0.0525 -0.26407,0.0963 -0.36639,0.12815 -0.0512,0.0159 -0.0965,0.0291 -0.13953,0.0393 -0.043,0.0101 -0.0759,0.0202 -0.15141,0.0202 -0.0755,0 -0.10838,-0.01 -0.15141,-0.0202 -0.043,-0.0101 -0.0884,-0.0233 -0.13953,-0.0393 -0.10232,-0.0319 -0.22603,-0.0756 -0.36638,-0.12815 -0.0512,-0.0192 -0.11289,-0.0443 -0.16795,-0.0656 l -0.11317,-5.2e-4 c -0.13327,0.008 -0.24214,-0.0163 -0.3266,-0.0713 0.0757,0.002 0.13759,-0.007 0.185,-0.0279 -0.17513,-0.0705 -0.35691,-0.14553 -0.53846,-0.22324 -0.33595,-0.14379 -0.66256,-0.2912 -0.90796,-0.41134 -0.12269,-0.0601 -0.22524,-0.1133 -0.29972,-0.1571 -0.008,-0.005 -0.0151,-0.009 -0.0227,-0.0139 z" />
  </g>
</svg>
