<?xml version="1.0" encoding="UTF-8" standalone="no"?>
<!-- Created with Inkscape (http://www.inkscape.org/) -->

<svg
   width="6.2030616mm"
   height="6.4537239mm"
   viewBox="0 0 6.2030616 6.4537239"
   version="1.1"
   id="svg1"
   xmlns="http://www.w3.org/2000/svg"
   xmlns:svg="http://www.w3.org/2000/svg">
  <defs
     id="defs1">
    <linearGradient
       id="swatch4">
      <stop
         style="stop-color:#000000;stop-opacity:1;"
         offset="0"
         id="stop4" />
    </linearGradient>
  </defs>
  <g
     id="layer3"
     transform="translate(-185.5866,-142.69485)">
    <path
       id="path43-16-2-4"
       style="fill:#ffffff;fill-opacity:1;stroke:none;stroke-width:0.194062;stroke-dasharray:none;stroke-opacity:1"
       d="m 188.77652,142.6949 v 1.24592 c 0.0203,0.0104 0.0416,0.0223 0.0677,0.0377 0.0609,0.036 0.13919,0.086 0.22944,0.14624 0.18051,0.12049 0.40928,0.28152 0.63562,0.44597 0.22635,0.16445 0.44974,0.33221 0.62012,0.46664 0.0852,0.0672 0.15781,0.12583 0.21084,0.1726 0.0225,0.0199 0.0395,0.0367 0.0553,0.0527 l 1.12913,-0.42117 c -0.18566,-0.29451 -1.06034,-1.49538 -1.13378,-1.54874 -0.0726,-0.0527 -1.45548,-0.50445 -1.81436,-0.5979 z m -0.19379,0.004 c -0.39446,0.1067 -1.72583,0.54273 -1.79679,0.59428 -0.0713,0.0518 -0.9037,1.19232 -1.12241,1.52859 l 1.12035,0.43873 c 0.0155,-0.0154 0.0318,-0.0313 0.0532,-0.0501 0.053,-0.0468 0.12461,-0.10538 0.2098,-0.1726 0.17038,-0.13443 0.39378,-0.30218 0.62012,-0.46663 0.22634,-0.16445 0.45512,-0.32547 0.63562,-0.44597 0.0902,-0.0602 0.16857,-0.11027 0.22944,-0.14625 0.0195,-0.0115 0.0345,-0.0191 0.0506,-0.0279 z m 0.10594,1.38906 c -0.001,4.4e-4 -0.001,5.3e-4 -0.003,10e-4 -0.0154,0.007 -0.0391,0.0206 -0.0672,0.0372 -0.0561,0.0331 -0.13242,0.0818 -0.22117,0.14108 -0.17751,0.1185 -0.40501,0.27893 -0.62994,0.44235 -0.22493,0.16343 -0.4474,0.33029 -0.61495,0.4625 -0.0838,0.0661 -0.15372,0.12331 -0.20257,0.1664 -0.0244,0.0215 -0.0439,0.0393 -0.0558,0.0517 -7.6e-4,9.2e-4 -8.1e-4,0.001 -0.002,0.002 7e-5,0.001 -2.2e-4,0.002 0,0.004 0.002,0.017 0.007,0.0426 0.0139,0.0744 0.0142,0.0636 0.0372,0.15103 0.0661,0.25374 0.0578,0.20544 0.14042,0.47144 0.22634,0.73587 0.0859,0.26442 0.17563,0.52789 0.2496,0.72812 0.037,0.10009 0.0697,0.18465 0.0956,0.24443 0.0129,0.0299 0.0245,0.0536 0.0326,0.0687 5.2e-4,9.1e-4 9.2e-4,9.8e-4 0.002,0.002 0.001,3.6e-4 0.002,0.001 0.003,0.001 0.0169,0.003 0.043,0.007 0.0755,0.01 0.0649,0.006 0.15485,0.0113 0.26148,0.0155 0.21326,0.008 0.49143,0.0124 0.76946,0.0124 0.27804,0 0.55621,-0.004 0.76947,-0.0124 0.10662,-0.004 0.19766,-0.009 0.26251,-0.0155 0.0324,-0.003 0.0586,-0.007 0.0754,-0.01 0.001,-2.1e-4 0.001,-0.001 0.003,-0.001 6e-4,-9.1e-4 9.5e-4,-9.8e-4 0.002,-0.002 0.008,-0.0151 0.0191,-0.0389 0.032,-0.0687 0.0259,-0.0598 0.0586,-0.14434 0.0956,-0.24443 0.074,-0.20021 0.16471,-0.4637 0.25063,-0.72812 0.0859,-0.26443 0.16747,-0.53043 0.22531,-0.73587 0.0289,-0.10271 0.0519,-0.19016 0.0661,-0.25374 0.007,-0.0318 0.0116,-0.0574 0.0139,-0.0744 2.2e-4,-10e-4 -7e-5,-0.002 0,-0.004 -6.8e-4,-9.2e-4 -7.2e-4,-0.001 -0.001,-0.002 -0.0119,-0.0124 -0.0303,-0.0301 -0.0548,-0.0517 -0.0489,-0.0431 -0.11983,-0.1003 -0.2036,-0.1664 -0.16757,-0.13221 -0.39002,-0.29907 -0.61495,-0.4625 -0.22494,-0.16342 -0.45243,-0.32385 -0.62994,-0.44235 -0.0888,-0.0592 -0.1651,-0.10793 -0.22117,-0.14108 -0.028,-0.0166 -0.0507,-0.0297 -0.0662,-0.0372 -0.001,-5e-4 -0.001,-6.3e-4 -0.003,-10e-4 z m -3.04064,0.75964 c -0.0162,0.026 -0.0356,0.056 -0.0382,0.0641 -0.002,0.005 -0.003,0.0312 -0.004,0.0444 z m 3.1936,0.0351 c 0.0201,0.10175 0.0822,0.16312 0.18604,0.18397 0.1046,0.0208 0.19718,0.002 0.27853,-0.0574 -0.0914,0.17013 -0.20055,0.25751 -0.32762,0.26252 -0.1263,0.005 -0.22819,-0.0278 -0.30645,-0.0987 l -0.13745,0.0625 z m -3.24063,0.12144 c -0.0218,0.37473 -0.0189,1.82282 0.009,1.9079 0.0274,0.0844 0.86551,1.24236 1.11105,1.54409 l 0.6997,-0.88677 c -0.0104,-0.0199 -0.0211,-0.0411 -0.0331,-0.0687 -0.0281,-0.0649 -0.0611,-0.15194 -0.0987,-0.25373 -0.0752,-0.20358 -0.16573,-0.46824 -0.25218,-0.73432 -0.0865,-0.26609 -0.16908,-0.53317 -0.2279,-0.74208 -0.0294,-0.10445 -0.0528,-0.19402 -0.0682,-0.26303 -0.005,-0.0239 -0.008,-0.0423 -0.0119,-0.0615 z m 6.17585,0.0248 -1.13016,0.42168 c -0.003,0.0181 -0.006,0.0348 -0.0109,0.0568 -0.0154,0.069 -0.0388,0.15859 -0.0682,0.26303 -0.0588,0.2089 -0.1404,0.476 -0.22686,0.74208 -0.0865,0.26609 -0.17698,0.53075 -0.25218,0.73432 -0.0376,0.1018 -0.0716,0.18884 -0.0997,0.25373 -0.0135,0.0312 -0.0257,0.0559 -0.0372,0.0775 l 0.70022,0.88263 c 0.23773,-0.29016 1.08701,-1.46364 1.11466,-1.54874 0.0269,-0.0828 0.0303,-1.46419 0.0103,-1.88309 z m -2.69957,0.25425 v 1.06453 l 0.22117,10e-4 v 0.0816 l -0.22117,-0.003 v 0.1602 l 0.092,0.0713 c 0.0349,-0.055 0.0943,-0.0816 0.1788,-0.0791 -0.0581,0.0292 -0.14837,0.156 -0.27079,0.38034 l -0.19637,-0.14624 c -0.0744,0.0742 -0.17265,0.12106 -0.29507,0.14108 0.1015,-0.0642 0.17753,-0.14551 0.22789,-0.24392 v -0.26251 h -0.55655 v -0.0951 l 0.55656,10e-4 v -1.06454 c 0.0883,0.0317 0.17599,0.0295 0.26355,-0.007 z m -0.27854,0.0124 c -0.10692,0.04 -0.21088,0.34546 -0.31161,0.91674 -0.14334,0.12927 -0.29617,0.16391 -0.45888,0.10387 0.11854,0.0275 0.2481,-0.13688 0.38912,-0.493 0.14102,-0.35611 0.26825,-0.53178 0.38137,-0.52761 z m -1.21491,2.38125 -0.70538,0.89348 c 0.36681,0.14135 1.72116,0.57826 1.8097,0.57826 0.0878,0 1.4249,-0.43077 1.80455,-0.57567 l -0.70952,-0.89504 c -0.0157,0.002 -0.0289,0.004 -0.0475,0.006 -0.0704,0.007 -0.16236,0.0117 -0.27079,0.016 -0.21685,0.009 -0.49692,0.0134 -0.77669,0.0134 -0.27978,0 -0.55881,-0.005 -0.77567,-0.0134 -0.10843,-0.004 -0.20142,-0.01 -0.27182,-0.016 -0.0224,-0.002 -0.0388,-0.005 -0.0568,-0.007 z m 3.0148,0.84491 -0.015,0.0119 c 0.001,-4.6e-4 0.007,-0.003 0.007,-0.003 0.001,-9.1e-4 0.006,-0.008 0.008,-0.009 z" />
  </g>
</svg>
