<?xml version="1.0" encoding="UTF-8" standalone="no"?>
<!-- Created with Inkscape (http://www.inkscape.org/) -->

<svg
   width="5.6705356mm"
   height="5.9009476mm"
   viewBox="0 0 5.6705356 5.9009476"
   version="1.1"
   id="svg1"
   xmlns="http://www.w3.org/2000/svg"
   xmlns:svg="http://www.w3.org/2000/svg">
  <defs
     id="defs1">
    <linearGradient
       id="swatch4">
      <stop
         style="stop-color:#000000;stop-opacity:1;"
         offset="0"
         id="stop4" />
    </linearGradient>
  </defs>
  <g
     id="layer3"
     transform="translate(-270.86652,-195.72825)">
    <path
       id="path237-317-04-01-3"
       style="fill:#ffffff;fill-opacity:1;stroke:none;stroke-width:0.200527;stroke-dasharray:none;stroke-opacity:1"
       d="m 273.70157,195.72836 c -0.12765,0 -1.63099,0.48824 -1.73426,0.56327 -0.10327,0.075 -1.03232,1.35396 -1.07177,1.47536 -0.0183,0.0563 -0.0276,0.42791 -0.0289,0.82063 0.008,-0.005 0.0144,-0.009 0.0227,-0.014 0.0745,-0.0438 0.17702,-0.097 0.29972,-0.15709 0.24539,-0.12015 0.572,-0.26756 0.90795,-0.41135 0.33595,-0.14379 0.6805,-0.28356 0.96119,-0.3886 0.14035,-0.0525 0.26406,-0.0963 0.36638,-0.12816 0.0512,-0.0159 0.0965,-0.0286 0.13953,-0.0388 0.043,-0.0101 0.0759,-0.0207 0.15141,-0.0207 0.0755,0 0.10838,0.0105 0.15141,0.0207 0.043,0.0101 0.0884,0.0228 0.13953,0.0388 0.10232,0.0319 0.22603,0.0756 0.36638,0.12816 0.047,0.0176 0.10378,0.0406 0.154,0.0599 l 0.10335,5.2e-4 -0.0217,0.0315 c 0.22974,0.0899 0.47615,0.18966 0.72605,0.29662 0.33595,0.14379 0.66257,0.2912 0.90796,0.41135 0.12024,0.0589 0.22046,0.11071 0.29455,0.15399 -0.002,-0.38625 -0.0109,-0.74812 -0.0289,-0.80357 -0.0395,-0.1214 -0.96901,-1.40033 -1.07228,-1.47536 -0.10328,-0.075 -1.60661,-0.56327 -1.73426,-0.56327 z m 0.0139,1.83555 c -0.002,3.3e-4 -0.002,1.1e-4 -0.004,5.1e-4 -0.0247,0.006 -0.0622,0.016 -0.10697,0.03 -0.0895,0.0279 -0.20839,0.0699 -0.34469,0.12092 -0.0434,0.0162 -0.0971,0.0384 -0.14366,0.0563 0.0401,0.0468 0.10734,0.0732 0.20206,0.0791 l -0.11059,0.14624 -0.001,1.3839 0.19792,0.0863 c 0.0496,-0.0567 0.11088,-0.0834 0.18448,-0.0801 -0.0697,0.0359 -0.16346,0.14037 -0.2806,0.31264 0.11486,0.0424 0.21803,0.079 0.29611,0.10336 0.0447,0.0139 0.0823,0.0242 0.10697,0.03 0.002,4e-4 0.002,1.8e-4 0.004,5.1e-4 0.002,-3.3e-4 0.002,-1.1e-4 0.004,-5.1e-4 0.0247,-0.006 0.0622,-0.016 0.10697,-0.03 0.0731,-0.0228 0.16955,-0.0568 0.27544,-0.0956 l -0.29921,-0.19172 c -0.0697,-0.0333 -0.16024,-0.0175 -0.27181,0.0476 0.16348,-0.22184 0.2902,-0.32009 0.38085,-0.29508 l 0.31626,0.21239 0.0661,-0.061 v -0.82321 h -0.40876 c -0.0938,-0.006 -0.19642,0.002 -0.308,0.0248 0.0783,-0.0884 0.13412,-0.13413 0.16744,-0.13746 v -0.3266 c -0.0387,0.0134 -0.0974,-0.0263 -0.1757,-0.11885 0.0697,0.0284 0.12766,0.0295 0.17415,0.004 l 0.36483,-0.34985 c -0.1085,-0.0398 -0.20711,-0.0744 -0.28164,-0.0977 -0.0447,-0.0139 -0.0823,-0.0242 -0.10697,-0.03 -0.002,-4e-4 -0.002,-1.8e-4 -0.004,-5.1e-4 z m 0.79582,0.28473 -0.0424,0.061 -0.46405,0.001 v 0.50282 h 0.0408 v -0.43874 c 0.17356,-0.0592 0.31941,-0.0341 0.43718,0.076 -0.12861,-0.05 -0.25093,-0.0554 -0.36638,-0.0171 v 0.11989 c 0.0728,-0.0308 0.14214,-0.0179 0.20722,0.0388 -0.0845,-0.0258 -0.15376,0.001 -0.20722,0.0811 l -0.0574,0.14005 0.35605,0.002 c 0.11002,0.002 0.20907,-0.04 0.29662,-0.12506 l -0.14676,0.21136 -0.001,0.73949 -0.42117,0.45165 c 0.0101,-0.004 0.0186,-0.006 0.0289,-0.0103 0.27259,-0.10201 0.61402,-0.24073 0.9462,-0.38292 0.33219,-0.14218 0.65621,-0.28796 0.89452,-0.40463 0.11915,-0.0583 0.21701,-0.10949 0.28215,-0.14779 0.0326,-0.0192 0.0567,-0.0354 0.0703,-0.046 9.9e-4,-7.7e-4 8.1e-4,-8.8e-4 0.002,-0.002 -8.1e-4,-7.4e-4 -6.3e-4,-8.5e-4 -0.002,-0.002 -0.0136,-0.0106 -0.0377,-0.0268 -0.0703,-0.046 -0.0651,-0.0383 -0.163,-0.0895 -0.28215,-0.14779 -0.23831,-0.11668 -0.56233,-0.26245 -0.89452,-0.40463 -0.20702,-0.0886 -0.41138,-0.17172 -0.60668,-0.2496 z m -1.68931,0.0382 c -0.1654,0.0668 -0.33798,0.13815 -0.50901,0.21136 -0.33218,0.14218 -0.65569,0.28795 -0.894,0.40463 -0.11915,0.0583 -0.21701,0.10948 -0.28215,0.14779 -0.0326,0.0191 -0.0567,0.0354 -0.0703,0.046 -9.9e-4,7.7e-4 -8.1e-4,8.8e-4 -0.002,0.002 8.1e-4,7.4e-4 6.3e-4,8.5e-4 0.002,0.002 0.0136,0.0106 0.0377,0.0268 0.0703,0.046 0.0651,0.0383 0.163,0.0894 0.28215,0.14779 0.23831,0.11667 0.56182,0.26245 0.894,0.40463 0.21671,0.0928 0.42999,0.17987 0.63304,0.26045 0.013,-0.0185 0.0246,-0.038 0.0341,-0.0589 l 10e-4,-1.49862 c -0.0411,-0.007 -0.0731,-0.0255 -0.0956,-0.0563 l -0.19379,0.0703 z m 0.50643,0.0289 v 1.34204 l -0.0651,0.0589 v -1.30948 z m 0.92863,0.71779 v 0.75602 l -0.0708,0.0584 v -0.19017 c -0.062,-0.0425 -0.12327,-0.0468 -0.18448,-0.0134 0.0333,-0.0726 0.0946,-0.11035 0.18448,-0.11368 l 10e-4,-0.41703 z m -3.39049,0.17518 c 0.002,0.37797 0.0113,0.72746 0.0289,0.78187 0.0395,0.12141 0.9685,1.40033 1.07177,1.47536 0.10328,0.075 1.60661,0.56327 1.73426,0.56327 0.12766,0 1.63098,-0.48824 1.73426,-0.56327 0.10327,-0.075 1.03284,-1.35395 1.07228,-1.47536 0.0174,-0.0536 0.0264,-0.39355 0.0284,-0.76482 -0.074,0.0433 -0.17398,0.0952 -0.29404,0.154 -0.24539,0.12014 -0.57201,0.26755 -0.90796,0.41134 -0.33595,0.1438 -0.681,0.28358 -0.9617,0.38861 -0.14035,0.0525 -0.26406,0.0963 -0.36638,0.12816 -0.0512,0.0159 -0.0965,0.0291 -0.13953,0.0393 -0.043,0.0101 -0.0759,0.0202 -0.15141,0.0202 -0.0755,0 -0.10839,-0.01 -0.15141,-0.0202 -0.043,-0.0101 -0.0884,-0.0233 -0.13953,-0.0393 -0.10232,-0.0319 -0.22603,-0.0756 -0.36638,-0.12816 -0.0681,-0.0255 -0.14863,-0.0582 -0.22325,-0.0873 -0.018,0.002 -0.037,0.004 -0.0574,0.005 0.0102,-0.005 0.0199,-0.0102 0.0295,-0.0155 -0.22548,-0.0885 -0.46581,-0.18589 -0.71004,-0.29043 -0.33595,-0.14379 -0.66256,-0.2912 -0.90795,-0.41134 -0.1227,-0.0601 -0.22523,-0.1133 -0.29972,-0.1571 -0.008,-0.005 -0.0151,-0.009 -0.0227,-0.014 z" />
  </g>
</svg>
