<?xml version="1.0" encoding="UTF-8" standalone="no"?>
<!-- Created with Inkscape (http://www.inkscape.org/) -->

<svg
   width="6.9887209mm"
   height="6.2363119mm"
   viewBox="0 0 6.9887209 6.2363119"
   version="1.1"
   id="svg1"
   xmlns="http://www.w3.org/2000/svg"
   xmlns:svg="http://www.w3.org/2000/svg">
  <defs
     id="defs1">
    <linearGradient
       id="swatch4">
      <stop
         style="stop-color:#000000;stop-opacity:1;"
         offset="0"
         id="stop4" />
    </linearGradient>
  </defs>
  <g
     id="layer3"
     transform="translate(-193.01017,-150.56519)">
    <path
       id="path94-48-7-1"
       style="fill:#ffffff;fill-opacity:1;stroke:none;stroke-width:0.192506;stroke-dasharray:none;stroke-opacity:1"
       d="m 196.5037,150.56522 c -0.70358,0 -1.40045,0.0158 -1.6583,0.0465 l 0.55552,1.00873 c 0.024,-0.004 0.0526,-0.006 0.0863,-0.009 0.0687,-0.006 0.15876,-0.0105 0.26407,-0.0139 0.21061,-0.007 0.48121,-0.0109 0.75241,-0.0109 0.2712,0 0.54231,0.004 0.75292,0.0109 0.10531,0.004 0.19541,0.008 0.26407,0.0139 0.0343,0.003 0.0636,0.005 0.0878,0.009 l 0.57568,-1.00666 c -0.24076,-0.0323 -0.95883,-0.0486 -1.68052,-0.0486 z m -1.82625,0.13901 c -0.30393,0.40167 -1.4588,2.40171 -1.66398,2.88045 l 1.16169,0.002 c 0.008,-0.0183 0.0151,-0.0363 0.0258,-0.0589 0.0296,-0.0622 0.0703,-0.14214 0.11989,-0.23512 0.0991,-0.18595 0.23182,-0.42247 0.36741,-0.65733 0.1356,-0.23487 0.27455,-0.46764 0.38603,-0.64647 0.0557,-0.0894 0.10404,-0.16499 0.14314,-0.22169 0.009,-0.0132 0.0161,-0.0219 0.0243,-0.0331 z m 3.66593,0.0176 -0.57723,1.01235 c 0.008,0.0112 0.0152,0.0199 0.0243,0.0331 0.0391,0.0567 0.0874,0.13228 0.14315,0.22169 0.11147,0.17884 0.25042,0.4116 0.38602,0.64647 0.1356,0.23486 0.26828,0.47138 0.36742,0.65733 0.0496,0.093 0.0903,0.17291 0.11989,0.23512 0.0106,0.0224 0.0182,0.0402 0.0258,0.0584 l 1.1591,-0.007 c -0.20774,-0.48052 -1.3276,-2.42111 -1.64848,-2.85771 z m -1.8402,1.05782 c -0.26935,0 -0.53866,0.003 -0.74569,0.0103 -0.10358,0.004 -0.19137,0.008 -0.25477,0.0134 -0.0317,0.002 -0.0576,0.005 -0.0744,0.008 -0.002,3.4e-4 -0.003,0.001 -0.005,0.002 -10e-4,10e-4 -0.002,0.002 -0.003,0.003 -0.0106,0.0133 -0.0259,0.0343 -0.0439,0.0605 -0.0361,0.0524 -0.0842,0.12651 -0.13901,0.21446 -0.10965,0.17591 -0.24712,0.40737 -0.38188,0.64078 -0.13477,0.23341 -0.26681,0.46872 -0.36432,0.65164 -0.0488,0.0915 -0.089,0.17045 -0.11628,0.2279 -0.0136,0.0287 -0.0243,0.0524 -0.0305,0.0682 -7.5e-4,0.002 -5.2e-4,0.003 -10e-4,0.005 5.5e-4,0.002 3.2e-4,0.003 10e-4,0.005 0.006,0.0158 0.0168,0.0395 0.0305,0.0682 0.0273,0.0574 0.0675,0.13592 0.11628,0.22738 0.0975,0.18291 0.22955,0.41823 0.36432,0.65164 0.13476,0.23342 0.27223,0.46539 0.38188,0.6413 0.0548,0.088 0.10291,0.1621 0.13901,0.21446 0.018,0.0262 0.0333,0.0467 0.0439,0.0599 0.001,0.002 0.002,0.002 0.004,0.004 0.002,3.4e-4 0.002,7.2e-4 0.004,10e-4 0.0168,0.002 0.0427,0.005 0.0744,0.008 0.0634,0.005 0.15119,0.009 0.25477,0.0129 0.20717,0.007 0.47668,0.0103 0.74621,0.0103 0.26952,0 0.53955,-0.003 0.74672,-0.0103 0.10359,-0.003 0.19137,-0.008 0.25477,-0.0129 0.0317,-0.002 0.0576,-0.005 0.0744,-0.008 0.002,-2.7e-4 0.002,-7.2e-4 0.004,-10e-4 0.002,-0.002 0.003,-0.002 0.004,-0.004 0.0106,-0.0133 0.0259,-0.0337 0.0439,-0.0599 0.0361,-0.0524 0.0842,-0.1265 0.13901,-0.21446 0.10965,-0.17591 0.24712,-0.40788 0.38189,-0.6413 0.13476,-0.23341 0.2668,-0.46873 0.36431,-0.65164 0.0488,-0.0915 0.089,-0.16993 0.11628,-0.22738 0.0136,-0.0287 0.0243,-0.0524 0.0305,-0.0682 7.5e-4,-0.002 5.1e-4,-0.003 0.001,-0.005 -5.5e-4,-0.002 -3.2e-4,-0.003 -0.001,-0.005 -0.006,-0.0158 -0.0168,-0.0395 -0.0305,-0.0682 -0.0273,-0.0574 -0.0675,-0.13644 -0.11628,-0.2279 -0.0975,-0.18292 -0.22955,-0.41823 -0.36431,-0.65164 -0.13477,-0.23341 -0.27224,-0.46487 -0.38189,-0.64078 -0.0548,-0.0879 -0.10291,-0.1621 -0.13901,-0.21446 -0.018,-0.0262 -0.0333,-0.0472 -0.0439,-0.0605 -0.001,-0.001 -0.002,-0.002 -0.003,-0.003 -0.002,-6.9e-4 -0.003,-0.001 -0.005,-0.002 -0.0168,-0.002 -0.0427,-0.005 -0.0744,-0.008 -0.0634,-0.005 -0.15118,-0.01 -0.25477,-0.0134 -0.20703,-0.007 -0.47686,-0.0103 -0.74621,-0.0103 z m 0.006,0.88263 0.50436,10e-4 -0.16175,0.23254 -0.46353,0.002 v 0.50281 h 0.0403 v -0.43925 c 0.17356,-0.0592 0.31941,-0.0336 0.43718,0.0765 -0.12862,-0.05 -0.25042,-0.0559 -0.36587,-0.0176 v 0.11989 c 0.0728,-0.0308 0.14162,-0.0179 0.20671,0.0388 -0.0845,-0.0258 -0.15325,0.002 -0.20671,0.0817 l -0.0579,0.14004 0.35657,0.001 c 0.11002,0.002 0.20855,-0.04 0.2961,-0.12506 l -0.14624,0.21136 -0.001,0.73949 -0.44545,0.478 -0.31626,-0.20257 c -0.0697,-0.0334 -0.16024,-0.0175 -0.27182,0.0475 0.16349,-0.22184 0.29072,-0.3206 0.38137,-0.29559 l 0.31626,0.21291 0.0661,-0.0615 v -0.82321 h -0.40927 c -0.0937,-0.006 -0.19642,0.003 -0.308,0.0253 0.0783,-0.0884 0.13412,-0.13412 0.16744,-0.13746 v -0.32659 c -0.0387,0.0133 -0.0974,-0.0263 -0.1757,-0.11886 0.0697,0.0284 0.12817,0.0295 0.17466,0.004 z m 0.13126,0.95809 v 0.7555 l -0.0708,0.0589 v -0.19017 c -0.062,-0.0425 -0.12379,-0.0473 -0.185,-0.014 0.0333,-0.0726 0.0951,-0.11035 0.185,-0.11368 l 0.001,-0.41652 z m 3.35845,0.15192 -1.1653,0.006 c -0.008,0.0188 -0.0156,0.0378 -0.0269,0.0615 -0.0296,0.0622 -0.0703,0.14215 -0.11989,0.23513 -0.0991,0.18595 -0.23182,0.42245 -0.36742,0.65732 -0.1356,0.23487 -0.27455,0.46816 -0.38603,0.64699 -0.0557,0.0894 -0.10404,0.16499 -0.14314,0.22169 -0.0145,0.0209 -0.0266,0.0364 -0.0388,0.0522 l 0.57826,1.0113 c 0.30495,-0.4024 1.47622,-2.43134 1.66915,-2.89181 z m -6.98872,0.004 c 0.19814,0.4686 1.36834,2.49456 1.66967,2.89026 l 0.5829,-1.00407 c -0.0138,-0.0177 -0.0284,-0.0372 -0.0455,-0.062 -0.0391,-0.0567 -0.0874,-0.13229 -0.14315,-0.2217 -0.11147,-0.17883 -0.25042,-0.41211 -0.38602,-0.64698 -0.1356,-0.23487 -0.26829,-0.47137 -0.36742,-0.65733 -0.0496,-0.093 -0.0903,-0.17292 -0.11989,-0.23513 -0.0112,-0.0235 -0.019,-0.0423 -0.0269,-0.061 z m 4.57698,1.97249 c -0.0203,0.002 -0.0406,0.005 -0.0667,0.007 -0.0687,0.005 -0.15876,0.01 -0.26407,0.0134 -0.2106,0.007 -0.48172,0.0109 -0.75292,0.0109 -0.2712,0 -0.5418,-0.004 -0.75241,-0.0109 -0.10531,-0.004 -0.19541,-0.008 -0.26407,-0.0134 -0.0208,-0.002 -0.0361,-0.004 -0.0532,-0.006 l -0.58187,1.00666 c 0.52833,0.0605 2.79547,0.06 3.30987,-0.001 z m 0.68575,0.9803 -0.0171,0.01 c 0.002,-0.001 0.009,-0.002 0.0103,-0.003 0.001,-8.7e-4 0.004,-0.004 0.007,-0.007 z" />
  </g>
</svg>
