<?xml version="1.0" encoding="UTF-8" standalone="no"?>
<!-- Created with Inkscape (http://www.inkscape.org/) -->

<svg
   width="6.9887209mm"
   height="6.2362795mm"
   viewBox="0 0 6.9887209 6.2362795"
   version="1.1"
   id="svg1"
   xmlns="http://www.w3.org/2000/svg"
   xmlns:svg="http://www.w3.org/2000/svg">
  <defs
     id="defs1">
    <linearGradient
       id="swatch4">
      <stop
         style="stop-color:#000000;stop-opacity:1;"
         offset="0"
         id="stop4" />
    </linearGradient>
  </defs>
  <g
     id="layer3"
     transform="translate(-162.07734,-150.57087)">
    <path
       id="path94-48-53"
       style="fill:#ffffff;fill-opacity:1;stroke:none;stroke-width:0.192506;stroke-dasharray:none;stroke-opacity:1"
       d="m 165.5707,150.57091 c -0.70357,0 -1.40045,0.0158 -1.6583,0.0465 l 0.55552,1.00872 c 0.024,-0.004 0.0526,-0.006 0.0863,-0.009 0.0687,-0.006 0.15876,-0.0104 0.26407,-0.0139 0.21061,-0.007 0.48121,-0.0109 0.75241,-0.0109 0.2712,0 0.54232,0.004 0.75293,0.0109 0.1053,0.004 0.19541,0.008 0.26406,0.0139 0.0343,0.003 0.0636,0.005 0.0878,0.009 l 0.57568,-1.00666 c -0.24076,-0.0323 -0.95883,-0.0486 -1.68052,-0.0486 z m -1.82625,0.13901 c -0.30393,0.40168 -1.4588,2.40169 -1.66398,2.88044 l 1.16169,0.002 c 0.008,-0.0183 0.0151,-0.0363 0.0258,-0.0589 0.0296,-0.0622 0.0703,-0.14216 0.11989,-0.23513 0.0991,-0.18596 0.23182,-0.42245 0.36742,-0.65732 0.1356,-0.23486 0.27455,-0.46765 0.38602,-0.64648 0.0557,-0.0894 0.10404,-0.16499 0.14314,-0.22169 0.009,-0.0132 0.0161,-0.0219 0.0243,-0.0331 z m 3.66593,0.0176 -0.57722,1.01234 c 0.008,0.0112 0.0152,0.0199 0.0243,0.0331 0.0391,0.0567 0.0874,0.13228 0.14314,0.22169 0.11147,0.17883 0.25042,0.41162 0.38602,0.64648 0.1356,0.23487 0.26828,0.47136 0.36742,0.65732 0.0496,0.093 0.0903,0.17291 0.11989,0.23513 0.0107,0.0224 0.0182,0.0402 0.0258,0.0584 l 1.1591,-0.007 c -0.2077,-0.48073 -1.32735,-2.42039 -1.64848,-2.85749 z m -1.83968,1.05781 c -0.26952,0 -0.53904,0.003 -0.74621,0.0103 -0.10358,0.004 -0.19137,0.008 -0.25476,0.0134 -0.0317,0.003 -0.0576,0.005 -0.0744,0.008 -0.002,3.4e-4 -0.003,0.001 -0.005,0.002 -0.001,0.001 -0.002,0.002 -0.003,0.003 -0.0106,0.0133 -0.0259,0.0343 -0.0439,0.0605 -0.0361,0.0523 -0.0842,0.1265 -0.13901,0.21445 -0.10966,0.17591 -0.24713,0.40738 -0.38189,0.64079 -0.13476,0.23341 -0.26681,0.46872 -0.36432,0.65164 -0.0488,0.0915 -0.089,0.17045 -0.11627,0.22789 -0.0136,0.0287 -0.0243,0.0524 -0.0305,0.0682 -7.6e-4,0.002 -5e-4,0.003 -0.001,0.005 5.4e-4,0.002 2.8e-4,0.003 0.001,0.005 0.006,0.0158 0.0168,0.0395 0.0305,0.0682 0.0273,0.0575 0.0675,0.13592 0.11627,0.22738 0.0975,0.18291 0.22956,0.41821 0.36432,0.65163 0.13476,0.23341 0.27223,0.4654 0.38189,0.64131 0.0548,0.088 0.1029,0.1621 0.13901,0.21446 0.018,0.0262 0.0333,0.0466 0.0439,0.0599 0.001,0.002 0.002,0.002 0.004,0.004 0.002,4.1e-4 0.002,7.9e-4 0.004,0.001 0.0168,0.003 0.0427,0.005 0.0744,0.008 0.0634,0.005 0.15118,0.009 0.25476,0.0129 0.20717,0.007 0.47669,0.0103 0.74621,0.0103 0.26952,0 0.53956,-0.003 0.74673,-0.0103 0.10358,-0.003 0.19137,-0.008 0.25476,-0.0129 0.0317,-0.003 0.0576,-0.005 0.0744,-0.008 0.002,-2.6e-4 0.002,-6.5e-4 0.004,-0.001 0.002,-0.002 0.003,-0.002 0.004,-0.004 0.0106,-0.0133 0.0259,-0.0337 0.0439,-0.0599 0.0361,-0.0524 0.0842,-0.1265 0.13901,-0.21446 0.10965,-0.17591 0.24713,-0.4079 0.38189,-0.64131 0.13476,-0.23342 0.2668,-0.46872 0.36432,-0.65163 0.0488,-0.0915 0.089,-0.16993 0.11627,-0.22738 0.0136,-0.0287 0.0243,-0.0524 0.0305,-0.0682 7.5e-4,-0.002 4.9e-4,-0.003 0.001,-0.005 -5.4e-4,-0.002 -2.9e-4,-0.003 -0.001,-0.005 -0.006,-0.0158 -0.0168,-0.0395 -0.0305,-0.0682 -0.0273,-0.0574 -0.0675,-0.13643 -0.11627,-0.22789 -0.0975,-0.18292 -0.22956,-0.41823 -0.36432,-0.65164 -0.13476,-0.23341 -0.27224,-0.46488 -0.38189,-0.64079 -0.0548,-0.088 -0.10291,-0.1621 -0.13901,-0.21445 -0.018,-0.0262 -0.0333,-0.0472 -0.0439,-0.0605 -0.001,-0.001 -0.002,-0.002 -0.003,-0.003 -0.002,-5.3e-4 -0.003,-0.001 -0.005,-0.002 -0.0168,-0.003 -0.0427,-0.005 -0.0744,-0.008 -0.0634,-0.005 -0.15118,-0.01 -0.25476,-0.0134 -0.20717,-0.007 -0.47721,-0.0103 -0.74673,-0.0103 z m -0.0672,0.86765 c 0.002,0.13094 0.0833,0.20135 0.24597,0.21136 l -0.11007,0.14676 -0.002,1.38338 0.19792,0.0863 c 0.0496,-0.0567 0.11088,-0.0834 0.18449,-0.0801 -0.0713,0.0367 -0.16697,0.1447 -0.28784,0.32401 l -0.27802,-0.1049 c -0.0356,0.055 -0.1171,0.0851 -0.24494,0.091 0.0961,-0.0459 0.16331,-0.11131 0.20205,-0.19637 l 0.001,-1.49862 c -0.0411,-0.007 -0.0726,-0.0255 -0.0951,-0.0563 l -0.1943,0.0703 z m 0.25682,0.27647 v 1.34255 l -0.0651,0.0584 v -1.30948 z m 3.30575,0.84853 -1.16531,0.006 c -0.008,0.0188 -0.0156,0.0378 -0.0269,0.0615 -0.0296,0.0622 -0.0703,0.14215 -0.11989,0.23513 -0.0991,0.18595 -0.23182,0.42246 -0.36742,0.65732 -0.1356,0.23487 -0.27455,0.46816 -0.38602,0.64699 -0.0557,0.0894 -0.10405,0.16498 -0.14314,0.22169 -0.0144,0.0209 -0.0267,0.0364 -0.0388,0.0522 l 0.57826,1.01131 c 0.30494,-0.40241 1.47621,-2.43134 1.66915,-2.89181 z m -6.98872,0.004 c 0.19814,0.4686 1.36834,2.49456 1.66966,2.89026 l 0.58291,-1.00407 c -0.0138,-0.0177 -0.0284,-0.0367 -0.0455,-0.0615 -0.0391,-0.0567 -0.0874,-0.13279 -0.14314,-0.22221 -0.11147,-0.17883 -0.25042,-0.41212 -0.38602,-0.64699 -0.1356,-0.23486 -0.26829,-0.47085 -0.36742,-0.6568 -0.0496,-0.093 -0.0903,-0.17292 -0.11989,-0.23513 -0.0112,-0.0235 -0.019,-0.0428 -0.0269,-0.0615 z m 4.57698,1.97248 c -0.0203,0.003 -0.0406,0.005 -0.0667,0.007 -0.0687,0.005 -0.15876,0.01 -0.26406,0.0134 -0.21061,0.007 -0.48173,0.0109 -0.75293,0.0109 -0.27119,0 -0.54179,-0.004 -0.7524,-0.0109 -0.10531,-0.004 -0.19541,-0.008 -0.26407,-0.0134 -0.0208,-0.002 -0.0361,-0.004 -0.0532,-0.006 l -0.58188,1.00666 c 0.52833,0.0604 2.79548,0.06 3.30988,-0.001 z m 0.68574,0.98031 -0.017,0.01 c 0.002,-8.9e-4 0.009,-0.002 0.0103,-0.003 0.001,-8.3e-4 0.005,-0.005 0.007,-0.007 z" />
  </g>
</svg>
