<?xml version="1.0" encoding="UTF-8" standalone="no"?>
<!-- Created with Inkscape (http://www.inkscape.org/) -->

<svg
   width="5.7250543mm"
   height="5.6291461mm"
   viewBox="0 0 5.7250543 5.6291461"
   version="1.1"
   id="svg1"
   xmlns="http://www.w3.org/2000/svg"
   xmlns:svg="http://www.w3.org/2000/svg">
  <defs
     id="defs1">
    <linearGradient
       id="swatch4">
      <stop
         style="stop-color:#000000;stop-opacity:1;"
         offset="0"
         id="stop4" />
    </linearGradient>
  </defs>
  <g
     id="layer3"
     transform="translate(-178.25322,-181.20675)">
    <path
       id="path24-11-10-4-0"
       style="display:inline;fill:#ffffff;fill-opacity:1;stroke:none;stroke-width:0.200527;stroke-dasharray:none;stroke-opacity:1"
       d="m 181.11547,181.20676 c -1.16546,0 -2.32854,0.0383 -2.64066,0.11421 l 2.6665,1.89446 2.59261,-1.90014 c -0.34405,-0.0724 -1.48079,-0.10853 -2.61845,-0.10853 z m 2.75643,0.2558 -2.56936,1.88361 c 0.0366,0.0272 0.0754,0.0602 0.11989,0.1018 0.0994,0.093 0.22202,0.22296 0.36122,0.37827 0.2784,0.31061 0.62086,0.72419 0.95085,1.1436 0.32999,0.4194 0.64697,0.84394 0.87436,1.17616 0.1137,0.16612 0.2046,0.30943 0.26459,0.41909 0.005,0.009 0.008,0.0163 0.0129,0.0248 0.12718,-0.88983 0.12241,-4.44123 -0.0145,-5.12734 z m -5.51595,0.0202 c -0.13548,0.74634 -0.1371,4.35136 -0.004,5.15162 0.0105,-0.0216 0.0224,-0.0442 0.0362,-0.0693 0.06,-0.10966 0.15089,-0.25297 0.26459,-0.41909 0.22739,-0.33222 0.54437,-0.75676 0.87436,-1.17616 0.32999,-0.41941 0.67297,-0.83299 0.95136,-1.1436 0.1392,-0.15531 0.26128,-0.28532 0.36071,-0.37827 0.0479,-0.0448 0.0907,-0.0803 0.1297,-0.10852 z m 2.77451,1.98075 c -0.0268,0.0195 -0.063,0.0504 -0.10697,0.0915 -0.092,0.086 -0.21267,0.21229 -0.34985,0.36535 -0.27436,0.30611 -0.61536,0.71814 -0.94361,1.13534 -0.32826,0.4172 -0.64407,0.83996 -0.86816,1.16737 -0.11205,0.16371 -0.2008,0.30415 -0.25632,0.40566 -0.0265,0.0485 -0.0436,0.0864 -0.0532,0.11317 0.0365,0.007 0.0904,0.0154 0.1602,0.0227 0.14755,0.0155 0.35694,0.0286 0.60616,0.0393 0.49846,0.0213 1.15527,0.032 1.81178,0.032 0.65651,0 1.31383,-0.0108 1.81229,-0.032 0.24923,-0.0106 0.45964,-0.0238 0.6072,-0.0393 0.0702,-0.007 0.12376,-0.0155 0.16019,-0.0227 -0.01,-0.0268 -0.0277,-0.0647 -0.0543,-0.11317 -0.0555,-0.10151 -0.14426,-0.24195 -0.25631,-0.40566 -0.22409,-0.32741 -0.54043,-0.75017 -0.86868,-1.16737 -0.32826,-0.4172 -0.66925,-0.82923 -0.94361,-1.13534 -0.13718,-0.15306 -0.2573,-0.27932 -0.34934,-0.36535 -0.0439,-0.0411 -0.0807,-0.072 -0.10748,-0.0915 z m -0.29869,1.01906 c 0.017,0.10175 0.0724,0.16312 0.16692,0.18397 0.0945,0.0209 0.17676,0.001 0.24649,-0.0579 -0.0775,0.2035 -0.1729,0.31019 -0.2868,0.31936 -0.1139,0.009 -0.20415,-0.0424 -0.27079,-0.15502 l -0.12557,0.0749 z m 0.41703,0.13643 0.24185,0.20877 c 0.0504,0.0259 0.11553,0.0247 0.19533,-0.004 -0.0875,0.0676 -0.15375,0.10311 -0.19792,0.10645 v 0.3514 l -0.44287,0.15399 0.44184,0.15348 v 0.73329 c 0.10925,0.003 0.21139,0.0739 0.30592,0.21239 -0.0442,-0.0575 -0.14967,-0.0856 -0.31626,-0.0848 l -0.22789,-0.21032 v -0.64802 l -0.36019,-0.14263 0.36019,-0.16898 z m -0.0346,0.99322 -0.002,0.56431 c -0.11622,-0.0592 -0.23001,-0.0629 -0.34158,-0.0103 0.0387,-0.0934 0.1308,-0.131 0.27647,-0.11265 v -0.14108 c -0.0891,-0.0409 -0.17367,-0.0291 -0.25425,0.0351 0.0178,-0.0984 0.10238,-0.14668 0.25425,-0.14418 v -0.14521 z m -0.38706,0.52297 c 0.0256,0.10174 0.0786,0.16311 0.15917,0.18396 0.0806,0.0208 0.17238,0.001 0.27543,-0.0579 -0.0969,0.18681 -0.20443,0.28892 -0.32298,0.30644 -0.11777,0.0175 -0.22664,-0.03 -0.32659,-0.14263 l -0.17363,0.0625 z" />
  </g>
</svg>
