<?xml version="1.0" encoding="UTF-8" standalone="no"?>
<!-- Created with Inkscape (http://www.inkscape.org/) -->

<svg
   width="5.6286135mm"
   height="6.2502642mm"
   viewBox="0 0 5.6286135 6.2502642"
   version="1.1"
   id="svg1"
   xmlns="http://www.w3.org/2000/svg"
   xmlns:svg="http://www.w3.org/2000/svg">
  <defs
     id="defs1">
    <linearGradient
       id="swatch4">
      <stop
         style="stop-color:#000000;stop-opacity:1;"
         offset="0"
         id="stop4" />
    </linearGradient>
  </defs>
  <g
     id="layer3"
     transform="translate(-185.87386,-120.60146)">
    <path
       id="path221-0"
       style="fill:#ffffff;fill-opacity:1;stroke:none;stroke-width:0.200527;stroke-dasharray:none;stroke-opacity:1"
       d="m 188.68867,120.61253 c -0.003,0.003 -0.003,0.003 -0.006,0.006 -0.028,0.0271 -0.0678,0.0727 -0.1142,0.13177 -0.0928,0.11817 -0.21432,0.29204 -0.35192,0.50126 -0.2752,0.41845 -0.61664,0.9809 -0.94568,1.55081 -0.32904,0.56992 -0.64544,1.14718 -0.87023,1.59474 -0.11239,0.22378 -0.20242,0.41559 -0.25838,0.555 -0.028,0.0697 -0.0473,0.12704 -0.0568,0.16485 -0.001,0.004 -8.1e-4,0.005 -0.002,0.008 0.004,0.001 0.004,0.002 0.008,0.003 0.0375,0.0106 0.0967,0.023 0.17105,0.0336 0.14871,0.0213 0.35927,0.0391 0.60926,0.0537 0.49999,0.0291 1.15835,0.0439 1.81643,0.0439 0.65808,0 1.31695,-0.0148 1.81694,-0.0439 0.25,-0.0146 0.46055,-0.0324 0.60927,-0.0537 0.0744,-0.0106 0.13302,-0.0229 0.17053,-0.0336 0.004,-0.001 0.005,-0.002 0.009,-0.003 -7.9e-4,-0.004 -4.6e-4,-0.004 -0.001,-0.008 -0.01,-0.0378 -0.0294,-0.0951 -0.0574,-0.16485 -0.056,-0.13941 -0.14547,-0.33122 -0.25787,-0.555 -0.22478,-0.44756 -0.54119,-1.02482 -0.87023,-1.59474 -0.32904,-0.56991 -0.67099,-1.13236 -0.94619,-1.55081 -0.13761,-0.20922 -0.25865,-0.38309 -0.3514,-0.50126 -0.0464,-0.0591 -0.0862,-0.10462 -0.11421,-0.13177 -0.003,-0.003 -0.004,-0.003 -0.007,-0.006 z m 0.15296,2.08618 c 0.0201,0.10174 0.0822,0.16312 0.18604,0.18397 0.1046,0.0209 0.19718,0.002 0.27853,-0.0574 -0.0914,0.17013 -0.20055,0.25751 -0.32762,0.26251 -0.1263,0.005 -0.22819,-0.0278 -0.30645,-0.0987 l -0.13745,0.0625 z m 0.23565,0.40049 v 1.06454 l 0.22117,10e-4 v 0.0816 l -0.22117,-0.003 v 0.1602 l 0.092,0.0713 c 0.0349,-0.055 0.0943,-0.0816 0.1788,-0.0791 -0.0581,0.0292 -0.14837,0.156 -0.27079,0.38034 l -0.19637,-0.14625 c -0.0744,0.0742 -0.17265,0.12106 -0.29507,0.14108 0.1015,-0.0642 0.17753,-0.1455 0.22789,-0.24391 v -0.26252 h -0.55655 v -0.0951 l 0.55656,10e-4 v -1.06453 c 0.0883,0.0317 0.17599,0.0295 0.26355,-0.007 z m -0.27854,0.0124 c -0.10692,0.04 -0.21088,0.34547 -0.31161,0.91674 -0.14334,0.12927 -0.29617,0.16392 -0.45888,0.10387 0.11854,0.0275 0.2481,-0.13636 0.38912,-0.49247 0.14102,-0.35611 0.26825,-0.53231 0.38137,-0.52814 z" />
    <path
       id="path218-0-8-1"
       style="fill:#ffffff;fill-opacity:1;stroke:none;stroke-width:0.200527;stroke-dasharray:none;stroke-opacity:1"
       d="m 191.47291,125.02187 c 0.0476,-0.7134 0.0378,-2.82464 -0.03,-2.94194 -0.0666,-0.11529 -1.82507,-1.14247 -2.49494,-1.47743 0.007,0.008 0.0123,0.015 0.0191,0.0238 0.0991,0.12624 0.22189,0.30233 0.36122,0.51419 0.27866,0.4237 0.62187,0.98866 0.95239,1.56114 0.33053,0.57249 0.64831,1.15189 0.87592,1.60507 0.1138,0.22659 0.2048,0.42158 0.26458,0.57051 0.0221,0.0551 0.0385,0.10164 0.0517,0.14469 z" />
    <path
       id="path217-20-64-9"
       style="fill:#ffffff;fill-opacity:1;stroke:none;stroke-width:0.200527;stroke-dasharray:none;stroke-opacity:1"
       d="m 185.96833,125.29524 c 0.30343,0.25318 2.56894,1.5565 2.71973,1.5565 0.15062,0 2.41155,-1.30063 2.71922,-1.55598 -0.021,0.01 -0.0427,0.0179 -0.0672,0.0248 -0.0527,0.015 -0.11745,0.0274 -0.19689,0.0388 -0.15887,0.0227 -0.37318,0.0411 -0.62632,0.0558 -0.50627,0.0295 -1.16726,0.0439 -1.82831,0.0439 -0.66105,0 -1.32153,-0.0145 -1.8278,-0.0439 -0.25313,-0.0147 -0.46744,-0.0331 -0.62631,-0.0558 -0.0794,-0.0113 -0.14467,-0.0238 -0.19741,-0.0388 -0.0251,-0.007 -0.0472,-0.0148 -0.0687,-0.0253 z" />
    <path
       id="path216-89-6-0"
       style="fill:#ffffff;fill-opacity:1;stroke:none;stroke-width:0.200527;stroke-dasharray:none;stroke-opacity:1"
       d="m 188.43123,120.60147 c -0.66783,0.33354 -2.43139,1.36302 -2.49804,1.47846 -0.0678,0.11747 -0.0773,2.23525 -0.0295,2.94556 0.0133,-0.0439 0.0295,-0.0917 0.0522,-0.14831 0.0598,-0.14893 0.15078,-0.34392 0.26459,-0.57051 0.22761,-0.45318 0.54539,-1.03258 0.87591,-1.60507 0.33053,-0.57248 0.67374,-1.13744 0.9524,-1.56114 0.13933,-0.21186 0.26265,-0.38795 0.36173,-0.51419 0.007,-0.009 0.0137,-0.0161 0.0207,-0.0248 z" />
  </g>
</svg>
