<?xml version="1.0" encoding="UTF-8" standalone="no"?>
<!-- Created with Inkscape (http://www.inkscape.org/) -->

<svg
   width="5.6285648mm"
   height="6.2502642mm"
   viewBox="0 0 5.6285648 6.2502642"
   version="1.1"
   id="svg1"
   xmlns="http://www.w3.org/2000/svg"
   xmlns:svg="http://www.w3.org/2000/svg">
  <defs
     id="defs1">
    <linearGradient
       id="swatch4">
      <stop
         style="stop-color:#000000;stop-opacity:1;"
         offset="0"
         id="stop4" />
    </linearGradient>
  </defs>
  <g
     id="layer3"
     transform="translate(-216.99772,-120.60146)">
    <path
       id="path257-0-5-1"
       style="fill:#ffffff;fill-opacity:1;stroke:none;stroke-width:0.250658;stroke-dasharray:none;stroke-opacity:1"
       d="m 219.7705,123.00254 c -0.0197,-0.0174 -0.0395,-0.0358 -0.0594,-0.0563 v 0.61547 l 0.0594,0.0315 z" />
    <path
       id="path247-2"
       style="fill:#ffffff;fill-opacity:1;stroke:none;stroke-width:0.200527;stroke-dasharray:none;stroke-opacity:1"
       d="m 219.81235,120.61253 c -0.003,0.003 -0.003,0.003 -0.006,0.006 -0.028,0.0271 -0.0678,0.0727 -0.1142,0.13177 -0.0928,0.11817 -0.21432,0.29204 -0.35192,0.50126 -0.2752,0.41845 -0.61664,0.9809 -0.94568,1.55081 -0.32904,0.56992 -0.64544,1.14718 -0.87023,1.59474 -0.11239,0.22378 -0.20242,0.41559 -0.25838,0.555 -0.028,0.0697 -0.0473,0.12704 -0.0568,0.16485 -0.001,0.004 -8.1e-4,0.005 -0.002,0.008 0.004,0.001 0.004,0.002 0.008,0.003 0.0375,0.0106 0.0967,0.023 0.17105,0.0336 0.14871,0.0213 0.35927,0.0391 0.60926,0.0537 0.49999,0.0291 1.15835,0.0439 1.81643,0.0439 0.65808,0 1.31695,-0.0148 1.81694,-0.0439 0.25,-0.0146 0.46055,-0.0324 0.60927,-0.0537 0.0744,-0.0106 0.13303,-0.0229 0.17053,-0.0336 0.004,-0.001 0.005,-0.002 0.009,-0.003 -7.9e-4,-0.004 -4.6e-4,-0.004 -0.002,-0.008 -0.01,-0.0378 -0.0294,-0.0951 -0.0574,-0.16485 -0.056,-0.13941 -0.14547,-0.33122 -0.25787,-0.555 -0.22478,-0.44756 -0.54119,-1.02482 -0.87023,-1.59474 -0.32904,-0.56991 -0.67099,-1.13236 -0.94619,-1.55081 -0.1376,-0.20922 -0.25865,-0.38309 -0.3514,-0.50126 -0.0464,-0.0591 -0.0862,-0.10462 -0.11421,-0.13177 -0.003,-0.003 -0.004,-0.003 -0.007,-0.006 z m 0.23151,2.01797 c 0.0315,-0.002 0.0627,0.003 0.094,0.0134 -0.0463,-0.0131 -0.12013,0.0199 -0.22066,0.0977 0.0213,0.0481 0.0647,0.092 0.1323,0.13229 0.0945,0.0559 0.20598,0.0476 0.33383,-0.0258 l -0.1385,0.14883 v 0.30386 l -0.22066,0.22272 v -0.40772 c -0.0637,-0.0101 -0.12859,-0.0385 -0.1943,-0.0842 v 0.57258 l 0.1049,0.0558 0.31006,-0.30799 -0.006,0.11782 -0.22996,0.23771 c 0.0728,0.0325 0.13516,0.0543 0.18707,0.0651 0.0527,0.0109 0.11501,-0.006 0.18707,-0.0491 l -0.13849,0.14883 v 0.37931 l -0.24391,0.23512 v -0.60823 l -0.17105,-0.0822 v 0.61029 l -0.0708,0.0589 v -0.70332 l -0.0811,-0.0388 -0.002,0.76171 0.25838,0.11266 0.31006,-0.30748 -0.006,0.11731 -0.41393,0.41548 -0.39739,-0.19017 c -0.0387,-0.0167 -0.0946,-0.0176 -0.16743,-0.003 0.0705,-0.055 0.123,-0.084 0.15709,-0.0873 v -0.65164 c -0.0395,0.0133 -0.0985,-0.0141 -0.17673,-0.0817 0.0697,0.0284 0.12766,0.0295 0.17415,0.004 l 0.16536,-0.14625 c -0.11699,-0.006 -0.20414,0.003 -0.26148,0.0253 0.0705,-0.055 0.12223,-0.0845 0.15555,-0.0879 v -0.47646 c -0.0387,0.0133 -0.0974,-0.0136 -0.1757,-0.0811 0.0697,0.0284 0.12817,0.0295 0.17466,0.004 l 0.32091,-0.2744 c 0.0834,-0.0923 0.16686,-0.14093 0.2496,-0.14572 z" />
    <path
       id="path218-0-9"
       style="fill:#ffffff;fill-opacity:1;stroke:none;stroke-width:0.200527;stroke-dasharray:none;stroke-opacity:1"
       d="m 222.59676,125.02187 c 0.0476,-0.7134 0.0377,-2.82464 -0.03,-2.94194 -0.0666,-0.11529 -1.82507,-1.14247 -2.49494,-1.47743 0.007,0.008 0.0123,0.015 0.0191,0.0238 0.0991,0.12624 0.22189,0.30233 0.36122,0.51419 0.27866,0.4237 0.62187,0.98866 0.9524,1.56114 0.33052,0.57249 0.6483,1.15189 0.87591,1.60507 0.11381,0.22659 0.20481,0.42158 0.26459,0.57051 0.0221,0.0551 0.0385,0.10164 0.0517,0.14469 z" />
    <path
       id="path217-20-08"
       style="fill:#ffffff;fill-opacity:1;stroke:none;stroke-width:0.200527;stroke-dasharray:none;stroke-opacity:1"
       d="m 217.09219,125.29524 c 0.30342,0.25318 2.56894,1.5565 2.71973,1.5565 0.15061,0 2.41154,-1.30063 2.71921,-1.55598 -0.021,0.01 -0.0428,0.0179 -0.0672,0.0248 -0.0527,0.015 -0.11745,0.0274 -0.19689,0.0388 -0.15887,0.0227 -0.37318,0.0411 -0.62631,0.0558 -0.50627,0.0295 -1.16727,0.0439 -1.82832,0.0439 -0.66105,0 -1.32152,-0.0145 -1.82779,-0.0439 -0.25314,-0.0147 -0.46745,-0.0331 -0.62632,-0.0558 -0.0794,-0.0113 -0.14467,-0.0238 -0.19741,-0.0388 -0.0251,-0.007 -0.0472,-0.0148 -0.0687,-0.0253 z" />
    <path
       id="path216-89-74"
       style="fill:#ffffff;fill-opacity:1;stroke:none;stroke-width:0.200527;stroke-dasharray:none;stroke-opacity:1"
       d="m 219.55509,120.60147 c -0.66784,0.33354 -2.43139,1.36302 -2.49804,1.47846 -0.0678,0.11747 -0.0773,2.23525 -0.0295,2.94556 0.0133,-0.0439 0.0295,-0.0917 0.0522,-0.14831 0.0598,-0.14893 0.15078,-0.34392 0.26458,-0.57051 0.22761,-0.45318 0.54539,-1.03258 0.87592,-1.60507 0.33052,-0.57248 0.67373,-1.13744 0.95239,-1.56114 0.13933,-0.21186 0.26265,-0.38795 0.36174,-0.51419 0.007,-0.009 0.0137,-0.0161 0.0207,-0.0248 z" />
  </g>
</svg>
