<?xml version="1.0" encoding="UTF-8" standalone="no"?>
<!-- Created with Inkscape (http://www.inkscape.org/) -->

<svg
   width="7.2042117mm"
   height="6.3608594mm"
   viewBox="0 0 7.2042117 6.3608594"
   version="1.1"
   id="svg1"
   xmlns="http://www.w3.org/2000/svg"
   xmlns:svg="http://www.w3.org/2000/svg">
  <defs
     id="defs1">
    <linearGradient
       id="swatch4">
      <stop
         style="stop-color:#000000;stop-opacity:1;"
         offset="0"
         id="stop4" />
    </linearGradient>
  </defs>
  <g
     id="layer3"
     transform="translate(-224.25094,-135.35983)">
    <path
       id="path280-3-7-35-8"
       style="fill:#ffffff;fill-opacity:1;stroke:none;stroke-width:0.250658;stroke-dasharray:none;stroke-opacity:1"
       d="m 227.96698,135.35983 2.60708,4.08864 c 0.50569,-0.47548 0.88108,-0.85971 0.88108,-0.93534 0,-0.20955 -2.85254,-2.76497 -3.48816,-3.1533 z m -0.22892,5.2e-4 c -0.63719,0.38995 -3.48713,2.94332 -3.48713,3.15278 0,0.0756 0.37506,0.4595 0.88057,0.93482 z m 0.11472,0.2868 -2.52698,3.961 -0.0729,-0.0465 c 1.00836,0.93865 2.43675,2.15904 2.59984,2.15904 0.16424,0 1.61163,-1.23749 2.62103,-2.17867 l -0.0977,0.062 z m 0.63252,2.32544 c 0.004,0.0709 0.0584,0.13378 0.16381,0.18965 0.10615,0.0559 0.21813,0.0476 0.3359,-0.0258 l -0.12661,0.14882 v 1.16686 l -0.22427,0.19792 v -0.66198 c 0.10072,-0.004 0.15089,-0.0508 0.15089,-0.14004 0,-0.0901 -0.0502,-0.13467 -0.15089,-0.13384 v -0.28525 c -0.12165,-0.0334 -0.22276,-0.10692 -0.30334,-0.22118 v 0.5054 c -0.10073,0.003 -0.15142,0.0483 -0.15142,0.1359 0,0.0867 0.0507,0.13298 0.15142,0.13798 v 0.71159 l 0.18345,0.12505 0.34416,-0.33279 -0.006,0.11782 -0.43821,0.44028 -0.31161,-0.19017 c -0.0356,-0.0167 -0.0868,-0.0176 -0.15348,-0.003 0.0643,-0.055 0.11241,-0.084 0.14417,-0.0873 v -1.35237 c -0.0346,0.0127 -0.0856,-0.0114 -0.15244,-0.0718 -0.0609,0.0425 -0.10966,0.0618 -0.14521,0.0579 v 0.9772 c 0.0442,0.003 0.11036,0.0389 0.19792,0.10645 -0.0798,-0.0283 -0.14498,-0.03 -0.19534,-0.004 l -0.41858,0.56792 c -0.0573,-0.0817 -0.12457,-0.13262 -0.20205,-0.15347 -0.0775,-0.0208 -0.15506,-0.002 -0.23255,0.0574 0.0984,-0.19682 0.19461,-0.29711 0.28836,-0.30128 0.0937,-0.005 0.17469,0.0346 0.24288,0.11886 l 0.0801,-0.11266 v -1.19837 l -0.2651,-0.22531 -0.10542,0.0786 v 0.79685 c 0.0566,0.0117 0.10828,0.0618 0.15554,0.14934 l 0.20206,-0.29404 -0.001,0.14108 -0.26252,0.40514 c -0.0566,-0.10174 -0.1419,-0.1626 -0.2558,-0.18345 -0.11389,-0.0208 -0.20828,-0.002 -0.28267,0.0574 0.0442,-0.12843 0.11839,-0.19681 0.22221,-0.20515 v -0.62787 c -0.0922,0.0133 -0.17314,-0.0193 -0.24288,-0.0977 0.093,0.0108 0.17418,-0.0118 0.24392,-0.0677 l 0.43821,-0.40256 0.38137,0.31523 c 0.0511,0.0334 0.12148,0.0343 0.21136,0.003 -0.0177,0.0145 -0.0341,0.0269 -0.0501,0.0383 0.0577,0.0222 0.10646,0.0217 0.14573,-0.002 z m -1.18649,0.33125 v 0.83457 l -0.0651,-0.0589 v -0.71675 z m 1.17874,0.20774 c 0.008,0 0.0172,0.002 0.0253,0.006 0.0163,0.008 0.0264,0.021 0.031,0.0377 0.005,0.0159 0.005,0.0319 0,0.0486 -0.005,0.0167 -0.0183,0.0294 -0.0393,0.0377 v 0.18759 h 0.10232 c 0.008,-0.0225 0.0191,-0.0371 0.0346,-0.0429 0.0155,-0.006 0.0308,-0.006 0.0455,0 0.0155,0.005 0.0274,0.0166 0.0351,0.0341 0.008,0.0175 0.008,0.0356 0,0.0548 -0.007,0.0183 -0.0191,0.0301 -0.0362,0.0351 -0.0171,0.005 -0.0336,0.004 -0.0491,-0.004 -0.0155,-0.008 -0.0253,-0.0232 -0.03,-0.0465 h -0.10181 l 5.2e-4,0.64182 c 0.0209,0.008 0.0344,0.0211 0.0398,0.0377 0.005,0.0167 0.005,0.0334 0,0.0501 -0.005,0.0159 -0.0153,0.0278 -0.0315,0.0362 -0.0163,0.008 -0.0333,0.009 -0.0512,0.001 -0.0171,-0.008 -0.0279,-0.0214 -0.0326,-0.0398 -0.005,-0.0183 -0.003,-0.036 0.004,-0.0527 0.007,-0.0167 0.0212,-0.0276 0.0429,-0.0326 l -5.2e-4,-0.64182 h -0.1111 c -0.005,0.0233 -0.0145,0.039 -0.03,0.0465 -0.0155,0.008 -0.032,0.009 -0.0491,0.004 -0.0171,-0.005 -0.0295,-0.0168 -0.0372,-0.0351 -0.007,-0.0192 -0.007,-0.0373 0.001,-0.0548 0.008,-0.0175 0.0194,-0.0291 0.0341,-0.0341 0.0155,-0.006 0.031,-0.006 0.0465,0 0.0155,0.006 0.0269,0.0204 0.0346,0.0429 h 0.11059 v -0.18759 c -0.0217,-0.005 -0.0359,-0.0159 -0.0429,-0.0325 -0.007,-0.0167 -0.008,-0.0344 -0.004,-0.0527 0.005,-0.0184 0.0155,-0.0313 0.0326,-0.0388 0.009,-0.004 0.0173,-0.006 0.0258,-0.006 z" />
  </g>
</svg>
