<?xml version="1.0" encoding="UTF-8" standalone="no"?>
<!-- Created with Inkscape (http://www.inkscape.org/) -->

<svg
   width="5.7147355mm"
   height="6.4037433mm"
   viewBox="0 0 5.7147355 6.4037433"
   version="1.1"
   id="svg1"
   xmlns="http://www.w3.org/2000/svg"
   xmlns:svg="http://www.w3.org/2000/svg">
  <defs
     id="defs1">
    <linearGradient
       id="swatch4">
      <stop
         style="stop-color:#000000;stop-opacity:1;"
         offset="0"
         id="stop4" />
    </linearGradient>
  </defs>
  <g
     id="layer3"
     transform="translate(-248.07638,-173.7793)">
    <path
       id="path63-83-81-5"
       style="fill:#ffffff;fill-opacity:1;stroke:none;stroke-width:0.174705;stroke-dasharray:none;stroke-opacity:1"
       d="m 250.93395,173.77931 c -0.13939,0 -2.05539,1.09552 -2.63085,1.48622 0.0437,-0.01 0.0919,-0.0191 0.14986,-0.0274 0.16072,-0.0229 0.37714,-0.0414 0.63304,-0.0563 0.5118,-0.0298 1.17975,-0.0439 1.84795,-0.0439 0.6682,0 1.33666,0.0141 1.84847,0.0439 0.2559,0.0149 0.4718,0.0333 0.63251,0.0563 0.0582,0.008 0.10651,0.0179 0.15038,0.0279 -0.57486,-0.3904 -2.49193,-1.48673 -2.63136,-1.48673 z m -5.2e-4,1.56631 c -0.66494,1e-5 -1.32988,0.0145 -1.83503,0.0439 -0.25264,0.0147 -0.4658,0.0338 -0.61598,0.0553 -0.0751,0.0107 -0.13438,0.0219 -0.17208,0.0326 -0.003,8.2e-4 -0.004,0.001 -0.006,0.002 6.7e-4,0.003 -3.2e-4,0.003 5.1e-4,0.007 0.01,0.038 0.0296,0.095 0.0579,0.16537 0.0565,0.14078 0.14635,0.33454 0.25994,0.56069 0.22716,0.4523 0.548,1.03629 0.88056,1.6123 0.33256,0.57601 0.67738,1.14447 0.9555,1.56735 0.13906,0.21144 0.26135,0.38658 0.35502,0.50591 0.0468,0.0597 0.0866,0.10604 0.11472,0.13333 0.002,0.002 0.004,0.002 0.006,0.004 0.002,-0.002 0.002,-0.002 0.004,-0.004 0.0281,-0.0273 0.0689,-0.0737 0.11575,-0.13333 0.0937,-0.11933 0.21596,-0.29447 0.35502,-0.50591 0.27812,-0.42288 0.62345,-0.99134 0.95602,-1.56735 0.33256,-0.57601 0.65185,-1.16 0.87901,-1.6123 0.11358,-0.22615 0.20497,-0.41991 0.26148,-0.56069 0.0283,-0.0704 0.0478,-0.12736 0.0574,-0.16537 8.7e-4,-0.003 3.9e-4,-0.004 10e-4,-0.007 -0.003,-8.2e-4 -0.003,-0.001 -0.006,-0.002 -0.0377,-0.0107 -0.097,-0.0219 -0.17208,-0.0326 -0.15017,-0.0215 -0.36334,-0.0406 -0.61598,-0.0553 -0.50515,-0.0294 -1.1706,-0.0439 -1.83555,-0.0439 z m -2.82256,0.21549 c -0.0537,0.65032 -0.0446,2.94003 0.0264,3.06287 0.0715,0.12378 2.07752,1.29182 2.65048,1.55907 -10e-4,-0.001 -0.002,-0.002 -0.003,-0.003 -0.0399,-0.0387 -0.0837,-0.0891 -0.13384,-0.15296 -0.10024,-0.12771 -0.22502,-0.30621 -0.36587,-0.52038 -0.28171,-0.42833 -0.62812,-0.999 -0.96222,-1.57768 -0.3341,-0.57868 -0.65512,-1.16451 -0.88521,-1.62264 -0.11505,-0.22906 -0.20721,-0.42657 -0.26769,-0.57723 -0.0261,-0.065 -0.0452,-0.1192 -0.0589,-0.16795 z m 5.64565,0.002 c 4e-5,5.4e-4 -5e-5,0.002 0,0.002 1.3e-4,-4.8e-4 3.7e-4,-0.001 5.1e-4,-0.002 z m 0,0.002 c -0.0137,0.048 -0.0318,0.10118 -0.0574,0.16485 -0.0605,0.15067 -0.15316,0.34816 -0.26821,0.57723 -0.23009,0.45813 -0.5506,1.04395 -0.8847,1.62264 -0.3341,0.57867 -0.68102,1.14934 -0.96273,1.57768 -0.14085,0.21416 -0.26511,0.39267 -0.36535,0.52038 -0.0501,0.0639 -0.0944,0.11421 -0.13436,0.15296 -9e-4,8.2e-4 -0.002,0.002 -0.003,0.002 0.57447,-0.26826 2.57855,-1.43486 2.64997,-1.55856 0.0708,-0.12262 0.0792,-2.40431 0.0258,-3.05925 z m -2.65772,0.37052 c 0.0434,0.10175 0.11347,0.1681 0.21032,0.19896 0.0969,0.03 0.23236,-0.0316 0.40669,-0.18501 -0.12319,0.2502 -0.24293,0.389 -0.35915,0.41652 -0.11544,0.0275 -0.2282,-0.0302 -0.33899,-0.17364 l -0.13746,0.0713 z m -0.8692,0.0202 c 0.002,0.13093 0.0833,0.20134 0.24598,0.21135 l -0.11007,0.14625 -0.001,1.38389 0.1974,0.0863 c 0.0496,-0.0567 0.1114,-0.0834 0.185,-0.0801 -0.0713,0.0367 -0.16748,0.14471 -0.28835,0.32401 l -0.27802,-0.1049 c -0.0356,0.055 -0.1171,0.0851 -0.24494,0.0909 0.0961,-0.0459 0.16331,-0.1113 0.20205,-0.19637 l 0.001,-1.49862 c -0.0411,-0.007 -0.0726,-0.0255 -0.0951,-0.0563 l -0.1943,0.0703 z m 1.51205,0 v 0.90588 l -0.58136,0.5178 v 0.41031 l 0.5333,-0.001 c 0.0728,-0.17347 0.18119,-0.28809 0.32453,-0.34313 -0.14644,0.0901 -0.2504,0.281 -0.31161,0.57206 l -0.74259,-0.003 c -0.13327,0.008 -0.24214,-0.0163 -0.32659,-0.0713 0.15031,0.004 0.24496,-0.0364 0.2837,-0.12144 v -0.38396 l 0.5948,-0.53433 v -0.60565 c 0.0744,-0.05 0.14989,-0.16414 0.22582,-0.34261 z m -1.25522,0.27646 v 1.34256 l -0.0651,0.0584 v -1.30948 z m 1.00304,0.0827 -0.001,0.5643 c -0.11622,-0.0592 -0.23001,-0.0629 -0.34158,-0.0103 0.0387,-0.0934 0.1308,-0.131 0.27647,-0.11266 v -0.14107 c -0.0891,-0.0409 -0.17367,-0.0291 -0.25425,0.0351 0.0178,-0.0984 0.10238,-0.14668 0.25425,-0.14418 v -0.14521 z" />
  </g>
</svg>
