<?xml version="1.0" encoding="UTF-8" standalone="no"?>
<!-- Created with Inkscape (http://www.inkscape.org/) -->

<svg
   width="5.6703744mm"
   height="5.900835mm"
   viewBox="0 0 5.6703744 5.900835"
   version="1.1"
   id="svg1"
   xmlns="http://www.w3.org/2000/svg"
   xmlns:svg="http://www.w3.org/2000/svg">
  <defs
     id="defs1">
    <linearGradient
       id="swatch4">
      <stop
         style="stop-color:#000000;stop-opacity:1;"
         offset="0"
         id="stop4" />
    </linearGradient>
  </defs>
  <g
     id="layer3"
     transform="translate(-224.86322,-202.3941)">
    <path
       id="path237-317-04-300-8"
       style="fill:#ffffff;fill-opacity:1;stroke:none;stroke-width:0.200527;stroke-dasharray:none;stroke-opacity:1"
       d="m 227.69818,202.3941 c -0.12765,0 -1.63099,0.48825 -1.73427,0.56328 -0.10327,0.075 -1.03232,1.35396 -1.07177,1.47536 -0.0183,0.0563 -0.0276,0.4279 -0.0289,0.82062 0.008,-0.005 0.0144,-0.009 0.0227,-0.0139 0.0745,-0.0438 0.17703,-0.097 0.29973,-0.1571 0.24539,-0.12015 0.57201,-0.26755 0.90795,-0.41134 0.2582,-0.11052 0.51282,-0.21359 0.74828,-0.30541 l 0.0475,-0.0713 c 0.007,0.0157 0.0143,0.0299 0.0222,0.0439 0.0465,-0.0179 0.0995,-0.0395 0.14314,-0.0558 0.14035,-0.0525 0.26407,-0.0963 0.36639,-0.12816 0.0512,-0.0159 0.0965,-0.0286 0.13952,-0.0388 0.043,-0.0101 0.0759,-0.0207 0.15142,-0.0207 0.0755,0 0.10838,0.0105 0.15141,0.0207 0.043,0.0101 0.0884,0.0228 0.13952,0.0388 0.10233,0.0319 0.22604,0.0756 0.36639,0.12816 0.2807,0.10504 0.62575,0.24482 0.9617,0.38861 0.33595,0.14379 0.66256,0.29119 0.90795,0.41134 0.12024,0.0589 0.22047,0.11072 0.29456,0.154 -0.002,-0.38625 -0.0109,-0.74812 -0.0289,-0.80357 -0.0394,-0.1214 -0.96901,-1.40033 -1.07229,-1.47536 -0.10327,-0.075 -1.60661,-0.56328 -1.73426,-0.56328 z m 0.014,1.83555 c -0.002,3.3e-4 -0.002,1.2e-4 -0.004,5.2e-4 -0.0247,0.006 -0.0622,0.016 -0.10697,0.03 -0.0895,0.0279 -0.20839,0.0699 -0.34469,0.12092 -0.0659,0.0247 -0.14519,0.0568 -0.21807,0.0853 0.0192,0.0106 0.0391,0.0199 0.061,0.0269 0.0969,0.03 0.23288,-0.0321 0.40721,-0.18552 -0.1232,0.2502 -0.24293,0.38951 -0.35915,0.41703 -0.11422,0.0272 -0.22623,-0.0299 -0.3359,-0.17002 -0.0194,0.008 -0.0393,0.0168 -0.0589,0.0248 l -0.0822,0.0424 0.008,-0.0114 c -0.1221,0.0502 -0.24499,0.10064 -0.36845,0.15348 -0.33219,0.14218 -0.6557,0.28795 -0.89401,0.40463 -0.11915,0.0583 -0.217,0.10948 -0.28215,0.14779 -0.0326,0.0191 -0.0567,0.0354 -0.0703,0.046 -9.9e-4,7.7e-4 -6.9e-4,8.7e-4 -0.002,0.002 8.1e-4,7.4e-4 5.1e-4,3.3e-4 0.002,0.002 0.0136,0.0106 0.0377,0.0268 0.0703,0.046 0.0651,0.0383 0.163,0.0894 0.28215,0.14779 0.23831,0.11667 0.56182,0.26245 0.89401,0.40463 0.13456,0.0576 0.26902,0.11317 0.40152,0.16743 v -0.33538 l 0.59532,-0.53382 v -0.60565 c 0.0744,-0.05 0.14937,-0.16414 0.2253,-0.34261 v 0.90537 l -0.58084,0.5178 v 0.41031 l 0.5333,-0.001 c 0.0728,-0.17346 0.18067,-0.28757 0.32401,-0.34261 -0.14644,0.0901 -0.24988,0.28048 -0.31109,0.57154 l -0.16433,-5.2e-4 c 0.1029,0.0377 0.1967,0.0707 0.2682,0.093 0.0447,0.0139 0.0823,0.0242 0.10697,0.03 0.002,4e-4 0.002,1.9e-4 0.004,5.2e-4 0.002,-3.3e-4 0.002,-1.2e-4 0.004,-5.2e-4 0.0247,-0.006 0.0622,-0.016 0.10697,-0.03 0.0895,-0.0279 0.2089,-0.0699 0.3452,-0.12092 0.0319,-0.0119 0.0718,-0.0285 0.10542,-0.0413 -0.0376,-0.0316 -0.0783,-0.0532 -0.12247,-0.0651 -0.0775,-0.0209 -0.15507,-0.002 -0.23255,0.0574 0.0984,-0.19682 0.19409,-0.29711 0.28784,-0.30128 0.0937,-0.005 0.17521,0.0346 0.2434,0.11886 l 0.0801,-0.11266 v -1.19837 l -0.2651,-0.22531 -0.10594,0.0786 v 0.79685 c 0.0566,0.0117 0.1088,0.0613 0.15606,0.14883 l 0.20206,-0.29353 -0.001,0.14108 -0.26304,0.40514 c -0.0566,-0.10174 -0.14138,-0.1626 -0.25528,-0.18345 -0.1139,-0.0208 -0.20829,-0.002 -0.28267,0.0574 0.0442,-0.12843 0.11839,-0.19681 0.22221,-0.20515 v -0.62787 c -0.0922,0.0133 -0.17314,-0.0193 -0.24288,-0.0977 0.093,0.0108 0.17418,-0.0118 0.24391,-0.0677 l 0.33642,-0.30902 c -0.034,-0.013 -0.0742,-0.0298 -0.10646,-0.0419 -0.13629,-0.051 -0.2557,-0.093 -0.34519,-0.12092 -0.0447,-0.0139 -0.0823,-0.0242 -0.10697,-0.03 -0.002,-4e-4 -0.002,-1.9e-4 -0.004,-5.2e-4 z m 0.97358,0.35553 0.0718,0.0594 c 0.0337,0.022 0.0756,0.0295 0.12609,0.0233 -0.0664,-0.0277 -0.13289,-0.0561 -0.19792,-0.0827 z m -0.41445,0.063 v 0.83457 l -0.0651,-0.0589 v -0.71675 z m -0.99115,0.0248 -0.001,0.56431 c -0.11622,-0.0592 -0.23001,-0.0624 -0.34158,-0.01 0.0387,-0.0934 0.1308,-0.131 0.27647,-0.11265 v -0.1416 c -0.0891,-0.0409 -0.17419,-0.0291 -0.25477,0.0351 0.0178,-0.0984 0.1029,-0.14616 0.25477,-0.14366 v -0.14521 z m 1.64073,0.0103 c -0.0643,0.0461 -0.11496,0.0676 -0.15193,0.0636 v 0.9772 c 0.0442,0.003 0.10985,0.0389 0.1974,0.10645 -0.0798,-0.0283 -0.14445,-0.03 -0.19482,-0.004 l -0.29507,0.39998 c 0.20423,-0.0811 0.41925,-0.1685 0.63769,-0.262 0.33218,-0.14218 0.65621,-0.28796 0.89452,-0.40463 0.11915,-0.0583 0.217,-0.10949 0.28215,-0.14779 0.0326,-0.0192 0.0567,-0.0354 0.0703,-0.046 9.9e-4,-7.7e-4 6.9e-4,-3.6e-4 0.002,-0.002 -8.1e-4,-7.4e-4 -5.2e-4,-8.4e-4 -0.002,-0.002 -0.0136,-0.0106 -0.0377,-0.0268 -0.0703,-0.046 -0.0651,-0.0383 -0.163,-0.0895 -0.28215,-0.14779 -0.23831,-0.11668 -0.56234,-0.26245 -0.89452,-0.40463 -0.0648,-0.0277 -0.12837,-0.0534 -0.19327,-0.0806 z m -4.05764,0.79116 c 0.002,0.37797 0.0113,0.72746 0.0289,0.78187 0.0395,0.12141 0.9685,1.40033 1.07178,1.47536 0.10327,0.075 1.60661,0.56327 1.73426,0.56327 0.12765,0 1.63099,-0.48824 1.73426,-0.56327 0.10327,-0.075 1.03284,-1.35395 1.07228,-1.47536 0.0174,-0.0536 0.0264,-0.39354 0.0284,-0.76481 -0.0741,0.0433 -0.17398,0.0952 -0.29404,0.15399 -0.24539,0.12014 -0.572,0.26756 -0.90795,0.41135 -0.33595,0.1438 -0.681,0.28357 -0.9617,0.3886 -0.14035,0.0525 -0.26406,0.0963 -0.36638,0.12816 -0.0512,0.0159 -0.0965,0.0291 -0.13953,0.0393 -0.043,0.0101 -0.0759,0.0202 -0.15141,0.0202 -0.0755,0 -0.10839,-0.01 -0.15142,-0.0202 -0.043,-0.0101 -0.0884,-0.0233 -0.13952,-0.0393 -0.10232,-0.0319 -0.22604,-0.0756 -0.36639,-0.12816 -0.0561,-0.021 -0.12331,-0.0483 -0.18397,-0.0718 l -0.11627,-5.1e-4 c -0.13327,0.007 -0.24214,-0.0163 -0.32659,-0.0713 0.0767,0.002 0.1389,-0.007 0.18655,-0.0284 -0.16956,-0.0684 -0.34574,-0.14155 -0.5209,-0.21652 -0.33595,-0.14379 -0.66256,-0.29121 -0.90795,-0.41135 -0.1227,-0.0601 -0.22524,-0.11329 -0.29973,-0.15709 -0.008,-0.005 -0.015,-0.009 -0.0227,-0.014 z" />
  </g>
</svg>
