<?xml version="1.0" encoding="UTF-8" standalone="no"?>
<!-- Created with Inkscape (http://www.inkscape.org/) -->

<svg
   width="5.6704712mm"
   height="5.9009476mm"
   viewBox="0 0 5.6704712 5.9009476"
   version="1.1"
   id="svg1"
   xmlns="http://www.w3.org/2000/svg"
   xmlns:svg="http://www.w3.org/2000/svg">
  <defs
     id="defs1">
    <linearGradient
       id="swatch4">
      <stop
         style="stop-color:#000000;stop-opacity:1;"
         offset="0"
         id="stop4" />
    </linearGradient>
  </defs>
  <g
     id="layer3"
     transform="translate(-185.7953,-195.72265)">
    <path
       id="path237-317-04-2-8"
       style="fill:#ffffff;fill-opacity:1;stroke:none;stroke-width:0.200527;stroke-dasharray:none;stroke-opacity:1"
       d="m 188.63028,195.72267 c -0.12765,0 -1.63099,0.48825 -1.73426,0.56328 -0.10328,0.075 -1.03233,1.35396 -1.07177,1.47536 -0.0183,0.0563 -0.0276,0.4279 -0.0289,0.82062 0.008,-0.005 0.0144,-0.009 0.0227,-0.0139 0.0745,-0.0438 0.17702,-0.097 0.29972,-0.1571 0.24539,-0.12015 0.57201,-0.26755 0.90795,-0.41134 0.33595,-0.14379 0.68049,-0.28357 0.96119,-0.38861 0.14034,-0.0525 0.26406,-0.0963 0.36638,-0.12816 0.0512,-0.0159 0.0965,-0.0285 0.13953,-0.0387 0.043,-0.0101 0.0759,-0.0207 0.15141,-0.0207 0.0755,0 0.10838,0.0105 0.15141,0.0207 0.043,0.0101 0.0884,0.0228 0.13953,0.0387 0.10232,0.0319 0.22604,0.0756 0.36638,0.12816 0.2807,0.10504 0.62576,0.24482 0.9617,0.38861 0.33595,0.14379 0.66256,0.29119 0.90796,0.41134 0.12024,0.0589 0.22047,0.11072 0.29455,0.154 -0.002,-0.38625 -0.0109,-0.74812 -0.0289,-0.80357 -0.0394,-0.1214 -0.96901,-1.40033 -1.07228,-1.47536 -0.10327,-0.075 -1.60661,-0.56328 -1.73426,-0.56328 z m 0.014,1.83555 c -0.002,3.3e-4 -0.002,1.2e-4 -0.004,5.2e-4 -0.0247,0.006 -0.0622,0.016 -0.10697,0.03 -0.0895,0.0279 -0.20839,0.0699 -0.34469,0.12092 -0.27259,0.102 -0.61452,0.24074 -0.94671,0.38293 -0.33218,0.14218 -0.65569,0.28794 -0.894,0.40462 -0.11915,0.0583 -0.21701,0.10949 -0.28215,0.1478 -0.0326,0.0191 -0.0567,0.0354 -0.0703,0.046 -9.9e-4,7.7e-4 -0.001,8.8e-4 -0.002,0.002 8.1e-4,7.4e-4 0.001,8.4e-4 0.002,0.002 0.0136,0.0106 0.0377,0.0268 0.0703,0.046 0.0651,0.0383 0.163,0.0894 0.28215,0.14779 0.23831,0.11667 0.56182,0.26245 0.894,0.40463 0.33219,0.14219 0.67412,0.28091 0.94671,0.38292 0.1363,0.051 0.25519,0.093 0.34469,0.12092 0.0448,0.0139 0.0823,0.0242 0.10697,0.03 0.002,4e-4 0.002,1.9e-4 0.004,5.2e-4 0.002,-3.3e-4 0.001,-1.2e-4 0.003,-5.2e-4 0.0247,-0.006 0.0622,-0.016 0.10697,-0.03 0.0692,-0.0216 0.1604,-0.0533 0.25941,-0.0894 l -0.19068,-0.14211 c -0.0744,0.0742 -0.17265,0.12106 -0.29508,0.14108 0.10151,-0.0642 0.17753,-0.14551 0.2279,-0.24392 v -0.26251 h -0.55656 v -0.0951 l 0.55656,0.001 v -1.06454 c 0.0883,0.0317 0.17599,0.0295 0.26355,-0.007 v 1.06453 l 0.22117,0.001 v 0.0816 l -0.22117,-0.003 v 0.1602 l 0.092,0.0713 c 0.0349,-0.055 0.0943,-0.0816 0.1788,-0.0791 -0.0574,0.0288 -0.14613,0.15315 -0.26614,0.37207 0.0257,-0.009 0.0484,-0.0173 0.0755,-0.0274 0.2726,-0.10201 0.61402,-0.24073 0.9462,-0.38292 0.33219,-0.14218 0.65621,-0.28796 0.89452,-0.40463 0.11915,-0.0583 0.217,-0.10949 0.28215,-0.14779 0.0326,-0.0192 0.0567,-0.0354 0.0703,-0.046 9.9e-4,-7.7e-4 0.001,-8.7e-4 0.002,-0.002 -8.1e-4,-7.4e-4 -0.001,-8.5e-4 -0.002,-0.002 -0.0136,-0.0106 -0.0377,-0.0268 -0.0703,-0.046 -0.0652,-0.0383 -0.163,-0.0895 -0.28215,-0.1478 -0.23831,-0.11668 -0.56233,-0.26244 -0.89452,-0.40462 -0.27854,-0.11923 -0.55496,-0.23133 -0.80047,-0.32608 -0.0908,0.16615 -0.19898,0.25189 -0.32453,0.25683 -0.12629,0.005 -0.22818,-0.0278 -0.30644,-0.0987 l -0.13746,0.0625 0.30696,-0.35295 c 0.0201,0.10174 0.0822,0.16311 0.18604,0.18396 0.10174,0.0203 0.19258,0.003 0.27233,-0.0527 -0.0462,-0.0178 -0.0995,-0.0397 -0.14263,-0.0558 -0.13629,-0.051 -0.2557,-0.093 -0.34519,-0.12092 -0.0447,-0.0139 -0.0823,-0.0242 -0.10697,-0.03 -0.002,-4e-4 -0.002,-1.9e-4 -0.003,-5.2e-4 z m 0.0966,0.48886 c -0.10693,0.04 -0.21089,0.34546 -0.31161,0.91674 -0.14334,0.12927 -0.29618,0.16392 -0.45889,0.10387 0.11855,0.0275 0.24811,-0.13688 0.38912,-0.49299 0.14102,-0.35611 0.26825,-0.53179 0.38138,-0.52762 z m -2.94556,0.75603 c 0.002,0.37797 0.0113,0.72745 0.0289,0.78186 0.0395,0.12141 0.9685,1.40033 1.07177,1.47536 0.10327,0.075 1.60661,0.56328 1.73426,0.56328 0.12765,0 1.63099,-0.48825 1.73426,-0.56328 0.10327,-0.075 1.03284,-1.35395 1.07229,-1.47536 0.0174,-0.0536 0.0264,-0.39354 0.0284,-0.76481 -0.0741,0.0433 -0.17399,0.0952 -0.29404,0.154 -0.2454,0.12014 -0.57201,0.26755 -0.90796,0.41134 -0.33594,0.1438 -0.681,0.28358 -0.9617,0.38861 -0.14034,0.0525 -0.26406,0.0963 -0.36638,0.12815 -0.0512,0.0159 -0.0965,0.0291 -0.13953,0.0393 -0.043,0.0101 -0.0759,0.0202 -0.15141,0.0202 -0.0755,0 -0.10838,-0.01 -0.15141,-0.0202 -0.043,-0.0101 -0.0884,-0.0233 -0.13953,-0.0393 -0.10232,-0.0319 -0.22604,-0.0756 -0.36638,-0.12815 -0.2807,-0.10503 -0.62524,-0.24481 -0.96119,-0.38861 -0.33594,-0.14379 -0.66256,-0.2912 -0.90795,-0.41134 -0.1227,-0.0601 -0.22524,-0.1133 -0.29972,-0.1571 -0.008,-0.005 -0.0151,-0.009 -0.0227,-0.0139 z" />
  </g>
</svg>
