<?xml version="1.0" encoding="UTF-8" standalone="no"?>
<!-- Created with Inkscape (http://www.inkscape.org/) -->

<svg
   width="5.7250543mm"
   height="5.6291461mm"
   viewBox="0 0 5.7250543 5.6291461"
   version="1.1"
   id="svg1"
   xmlns="http://www.w3.org/2000/svg"
   xmlns:svg="http://www.w3.org/2000/svg">
  <defs
     id="defs1">
    <linearGradient
       id="swatch4">
      <stop
         style="stop-color:#000000;stop-opacity:1;"
         offset="0"
         id="stop4" />
    </linearGradient>
  </defs>
  <g
     id="layer3"
     transform="translate(-248.07119,-181.20675)">
    <path
       id="path24-11-10-63-0"
       style="display:inline;fill:#ffffff;fill-opacity:1;stroke:none;stroke-width:0.200527;stroke-dasharray:none;stroke-opacity:1"
       d="m 250.93345,181.20676 c -1.16547,0 -2.32854,0.0383 -2.64067,0.11421 l 2.66651,1.89446 2.5926,-1.90014 c -0.34404,-0.0724 -1.48078,-0.10853 -2.61844,-0.10853 z m 2.75642,0.2558 -2.56935,1.88361 c 0.0366,0.0272 0.0754,0.0602 0.11989,0.1018 0.0994,0.093 0.22202,0.22296 0.36122,0.37827 0.27839,0.31061 0.62086,0.72419 0.95084,1.1436 0.32999,0.4194 0.64698,0.84394 0.87437,1.17616 0.11369,0.16612 0.2046,0.30943 0.26458,0.41909 0.005,0.009 0.008,0.0163 0.0129,0.0248 0.12719,-0.88983 0.12242,-4.44123 -0.0145,-5.12734 z m -5.51594,0.0202 c -0.13548,0.74634 -0.1371,4.35136 -0.004,5.15162 0.0105,-0.0216 0.0224,-0.0442 0.0362,-0.0693 0.06,-0.10966 0.15089,-0.25297 0.26458,-0.41909 0.22739,-0.33222 0.54438,-0.75676 0.87437,-1.17616 0.32998,-0.41941 0.67297,-0.83299 0.95136,-1.1436 0.1392,-0.15531 0.26127,-0.28532 0.3607,-0.37827 0.0479,-0.0448 0.0907,-0.0803 0.12971,-0.10852 z m 2.77451,1.98075 c -0.0268,0.0195 -0.063,0.0504 -0.10697,0.0915 -0.092,0.086 -0.21267,0.21229 -0.34985,0.36535 -0.27436,0.30611 -0.61536,0.71814 -0.94362,1.13534 -0.32825,0.4172 -0.64406,0.83996 -0.86816,1.16737 -0.11205,0.16371 -0.20079,0.30415 -0.25631,0.40566 -0.0265,0.0485 -0.0436,0.0864 -0.0532,0.11317 0.0365,0.007 0.0904,0.0154 0.16019,0.0227 0.14756,0.0155 0.35694,0.0286 0.60617,0.0393 0.49845,0.0213 1.15526,0.032 1.81177,0.032 0.65651,0 1.31384,-0.0108 1.8123,-0.032 0.24922,-0.0106 0.45964,-0.0238 0.60719,-0.0393 0.0702,-0.007 0.12376,-0.0155 0.1602,-0.0227 -0.01,-0.0268 -0.0277,-0.0647 -0.0543,-0.11317 -0.0555,-0.10151 -0.14427,-0.24195 -0.25631,-0.40566 -0.2241,-0.32741 -0.54043,-0.75017 -0.86869,-1.16737 -0.32825,-0.4172 -0.66925,-0.82923 -0.94361,-1.13534 -0.13718,-0.15306 -0.2573,-0.27932 -0.34933,-0.36535 -0.0439,-0.0411 -0.0807,-0.072 -0.10749,-0.0915 z m 0.15037,1.01028 c 0.0434,0.10174 0.11348,0.1681 0.21033,0.19895 0.0969,0.03 0.23236,-0.0321 0.40669,-0.18552 -0.12319,0.2502 -0.24293,0.389 -0.35915,0.41652 -0.11545,0.0275 -0.22872,-0.0302 -0.33951,-0.17364 l -0.13695,0.0713 z m -0.86919,0.0196 c 0.002,0.13093 0.0833,0.20186 0.24598,0.21187 l -0.11007,0.14624 -0.001,1.38338 0.19792,0.0863 c 0.0496,-0.0567 0.11087,-0.0834 0.18448,-0.0801 -0.0713,0.0367 -0.16697,0.14471 -0.28784,0.32401 l -0.27802,-0.1049 c -0.0356,0.055 -0.1171,0.0856 -0.24494,0.0915 0.0961,-0.0459 0.16331,-0.11131 0.20205,-0.19637 l 0.001,-1.49914 c -0.0411,-0.007 -0.0726,-0.0249 -0.0951,-0.0558 l -0.1943,0.0698 z m 1.51205,0 v 0.90588 l -0.58136,0.5178 v 0.41031 l 0.5333,-0.001 c 0.0728,-0.17347 0.18119,-0.28757 0.32453,-0.34262 -0.14644,0.0901 -0.2504,0.28049 -0.31161,0.57155 l -0.74259,-0.003 c -0.13327,0.008 -0.24214,-0.0163 -0.3266,-0.0713 0.15032,0.004 0.24497,-0.0364 0.28371,-0.12144 v -0.38396 l 0.59479,-0.53433 v -0.60513 c 0.0744,-0.05 0.1499,-0.16466 0.22583,-0.34313 z m -1.25522,0.27646 v 1.34256 l -0.0651,0.0589 v -1.31 z m 1.00304,0.0827 -10e-4,0.5643 c -0.11622,-0.0592 -0.23001,-0.0624 -0.34158,-0.01 0.0387,-0.0934 0.1308,-0.13101 0.27647,-0.11266 v -0.14159 c -0.0891,-0.0409 -0.17367,-0.0291 -0.25425,0.0351 0.0178,-0.0984 0.10238,-0.14617 0.25425,-0.14366 v -0.14521 z" />
  </g>
</svg>
