<?xml version="1.0" encoding="UTF-8" standalone="no"?>
<!-- Created with Inkscape (http://www.inkscape.org/) -->

<svg
   width="6.1489787mm"
   height="6.1490917mm"
   viewBox="0 0 6.1489787 6.1490917"
   version="1.1"
   id="svg1"
   xmlns="http://www.w3.org/2000/svg"
   xmlns:svg="http://www.w3.org/2000/svg">
  <defs
     id="defs1">
    <linearGradient
       id="swatch4">
      <stop
         style="stop-color:#000000;stop-opacity:1;"
         offset="0"
         id="stop4" />
    </linearGradient>
  </defs>
  <g
     id="layer3"
     transform="translate(-255.4469,-166.27486)">
    <path
       id="path225-00-4-3"
       style="fill:#ffffff;fill-opacity:1;stroke:none;stroke-width:0.200527;stroke-dasharray:none;stroke-opacity:1"
       d="m 257.24779,166.27486 -0.015,0.015 0.0367,-0.015 z m 0.10801,0 0.31677,0.7798 1.69706,-0.001 0.31057,-0.77876 z m 2.43447,0 0.008,0.003 -0.003,-0.003 z m 0.0765,0.0718 -0.31264,0.7891 1.18752,1.18804 0.77774,-0.32453 z m -2.69647,0.006 -1.64848,1.64848 0.78031,0.32143 1.18546,-1.18494 z m 0.48317,0.90176 -1.2268,1.22731 v 1.7353 l 1.2268,1.22783 1.7353,-0.001 1.22679,-1.2268 5.2e-4,-1.7353 -1.22731,-1.2268 z m -2.19108,0.80615 -0.0155,0.0155 v 0.0222 z m 6.13348,0.12557 -0.77928,0.32453 v 1.67277 l 0.77928,0.32918 z m -6.14898,0.001 v 2.32699 l 0.77928,-0.33487 v -1.67069 z m 3.1843,0.11369 c 0.017,0.10174 0.0729,0.1626 0.16743,0.18345 0.0945,0.0208 0.17625,0.002 0.24598,-0.0574 -0.0775,0.20349 -0.1729,0.30967 -0.2868,0.31884 -0.1139,0.009 -0.20415,-0.0424 -0.27079,-0.15503 l -0.12557,0.0749 z m -0.80098,0.0258 c 10e-4,0.13094 0.0838,0.20187 0.24649,0.21188 l -0.11058,0.14624 -10e-4,1.38338 0.1974,0.0863 c 0.0496,-0.0567 0.11139,-0.0834 0.185,-0.0801 -0.0713,0.0367 -0.16748,0.14471 -0.28835,0.32401 l -0.2775,-0.1049 c -0.0356,0.055 -0.11762,0.0856 -0.24547,0.0915 0.0961,-0.0459 0.16332,-0.11131 0.20206,-0.19637 l 10e-4,-1.49914 c -0.0411,-0.007 -0.0731,-0.0249 -0.0956,-0.0558 l -0.19379,0.0698 z m 1.21801,0.11007 0.24185,0.20929 c 0.0504,0.0259 0.11553,0.0242 0.19533,-0.004 -0.0876,0.0676 -0.15375,0.10312 -0.19792,0.10645 v 0.3514 l -0.44235,0.154 0.44132,0.154 v 0.73328 c 0.10925,0.003 0.2114,0.0739 0.30592,0.21239 -0.0442,-0.0575 -0.14967,-0.0861 -0.31626,-0.0853 l -0.22789,-0.20981 v -0.64802 l -0.36019,-0.14263 0.36019,-0.16898 z m -0.96118,0.1664 v 1.34256 l -0.0651,0.0589 v -1.31 z m 0.92656,0.82734 -0.002,0.56379 c -0.11623,-0.0592 -0.23001,-0.0624 -0.34158,-0.01 0.0387,-0.0934 0.1308,-0.131 0.27646,-0.11265 v -0.14108 c -0.0891,-0.0409 -0.17366,-0.0296 -0.25424,0.0346 0.0178,-0.0984 0.10238,-0.14617 0.25424,-0.14366 v -0.14522 z m -0.38706,0.52245 c 0.0256,0.10175 0.0786,0.16312 0.15916,0.18397 0.0806,0.0208 0.17239,0.002 0.27544,-0.0574 -0.0969,0.18681 -0.20443,0.28893 -0.32298,0.30644 -0.11777,0.0175 -0.22664,-0.03 -0.32659,-0.14263 l -0.17312,0.0625 z m -2.33216,0.416 -0.76998,0.33176 1.65003,1.65003 0.31833,-0.78393 z m 4.45038,0.003 -1.20355,1.20354 0.33021,0.77205 1.64848,-1.64848 z m -5.29787,0.23254 v 0.0186 l 0.0139,0.014 z m 2.23087,1.03973 -0.31678,0.7798 h 2.32648 l -0.33644,-0.7794 z m -0.44235,0.7674 0.0124,0.0124 h 0.0176 z" />
  </g>
</svg>
