<?xml version="1.0" encoding="UTF-8" standalone="no"?>
<!-- Created with Inkscape (http://www.inkscape.org/) -->

<svg
   width="6.2030292mm"
   height="6.4535136mm"
   viewBox="0 0 6.2030292 6.4535136"
   version="1.1"
   id="svg1"
   xmlns="http://www.w3.org/2000/svg"
   xmlns:svg="http://www.w3.org/2000/svg">
  <defs
     id="defs1">
    <linearGradient
       id="swatch4">
      <stop
         style="stop-color:#000000;stop-opacity:1;"
         offset="0"
         id="stop4" />
    </linearGradient>
  </defs>
  <g
     id="layer3"
     transform="translate(-178.01394,-142.69746)">
    <path
       id="path43-16-7-4"
       style="fill:#ffffff;fill-opacity:1;stroke:none;stroke-width:0.194062;stroke-dasharray:none;stroke-opacity:1"
       d="m 181.20386,142.69749 v 1.24592 c 0.0203,0.0104 0.0416,0.0223 0.0677,0.0377 0.0609,0.036 0.13919,0.086 0.22944,0.14624 0.1805,0.12049 0.40928,0.28152 0.63562,0.44597 0.22634,0.16445 0.44974,0.33221 0.62012,0.46664 0.0852,0.0672 0.15781,0.12583 0.21084,0.1726 0.0225,0.0199 0.0395,0.0367 0.0553,0.0527 l 1.12913,-0.42116 c -0.18567,-0.29451 -1.06034,-1.49539 -1.13378,-1.54875 -0.0726,-0.0527 -1.45548,-0.50444 -1.81436,-0.59789 z m -0.19379,0.004 c -0.39446,0.1067 -1.72583,0.54273 -1.79679,0.59428 -0.0713,0.0518 -0.9037,1.19232 -1.12241,1.52859 l 1.12034,0.43873 c 0.0155,-0.0154 0.0318,-0.0313 0.0532,-0.0501 0.053,-0.0468 0.12462,-0.10538 0.20981,-0.1726 0.17038,-0.13443 0.39377,-0.30219 0.62012,-0.46664 0.22634,-0.16445 0.45511,-0.32547 0.63562,-0.44597 0.0902,-0.0602 0.16857,-0.11026 0.22944,-0.14624 0.0195,-0.0115 0.0345,-0.0191 0.0506,-0.0279 z m 0.10594,1.38906 c -10e-4,4.4e-4 -10e-4,5.4e-4 -0.003,0.001 -0.0154,0.007 -0.0391,0.0206 -0.0672,0.0372 -0.0561,0.0331 -0.13242,0.0818 -0.22118,0.14108 -0.17751,0.1185 -0.405,0.27893 -0.62994,0.44235 -0.22493,0.16343 -0.44739,0.3303 -0.61494,0.46251 -0.0838,0.0661 -0.15372,0.1233 -0.20258,0.16639 -0.0244,0.0215 -0.0439,0.0393 -0.0558,0.0517 -7.6e-4,9.2e-4 -8e-4,0.001 -0.001,0.002 8e-5,0.001 -2.1e-4,0.002 0,0.004 0.002,0.017 0.007,0.0426 0.0139,0.0744 0.0142,0.0636 0.0372,0.15102 0.0661,0.25373 0.0578,0.20544 0.14043,0.47144 0.22635,0.73587 0.0859,0.26442 0.17563,0.52789 0.24959,0.72812 0.037,0.10009 0.0697,0.18465 0.0956,0.24443 0.0129,0.0299 0.0245,0.0536 0.0326,0.0687 5.3e-4,9.1e-4 9.3e-4,9.8e-4 0.002,0.002 0.001,3.6e-4 0.002,10e-4 0.003,10e-4 0.0169,0.003 0.043,0.007 0.0755,0.01 0.0649,0.006 0.15486,0.0113 0.26149,0.0155 0.21325,0.008 0.49143,0.0124 0.76946,0.0124 0.27803,0 0.5562,-0.004 0.76946,-0.0124 0.10663,-0.004 0.19767,-0.009 0.26252,-0.0155 0.0324,-0.003 0.0586,-0.007 0.0754,-0.01 0.001,-2.1e-4 0.001,-10e-4 0.003,-10e-4 5.9e-4,-9.1e-4 9.5e-4,-9.8e-4 0.002,-0.002 0.008,-0.0151 0.0191,-0.0389 0.032,-0.0687 0.0259,-0.0598 0.0586,-0.14434 0.0956,-0.24443 0.074,-0.20021 0.16471,-0.4637 0.25063,-0.72812 0.0859,-0.26443 0.16746,-0.53043 0.22531,-0.73587 0.0289,-0.10271 0.0525,-0.19015 0.0667,-0.25373 0.007,-0.0318 0.0116,-0.0574 0.0139,-0.0744 2.1e-4,-10e-4 -8e-5,-0.002 0,-0.004 -6.9e-4,-9.2e-4 -10e-4,-0.001 -0.002,-0.002 -0.0119,-0.0124 -0.0303,-0.0301 -0.0548,-0.0517 -0.0489,-0.0431 -0.11983,-0.10029 -0.20361,-0.16639 -0.16757,-0.13221 -0.39002,-0.29908 -0.61495,-0.46251 -0.22493,-0.16342 -0.45243,-0.32385 -0.62993,-0.44235 -0.0887,-0.0592 -0.1651,-0.10793 -0.22118,-0.14108 -0.028,-0.0166 -0.0507,-0.0297 -0.0662,-0.0372 -0.001,-5e-4 -0.001,-6.4e-4 -0.003,-0.001 z m -3.04064,0.75965 c -0.0162,0.026 -0.0356,0.056 -0.0382,0.0641 -0.002,0.005 -0.003,0.0312 -0.004,0.0444 z m 2.7559,0.0295 c 0.017,0.10175 0.0729,0.16312 0.16743,0.18397 0.0945,0.0208 0.17676,0.002 0.2465,-0.0574 -0.0775,0.20349 -0.17291,0.30967 -0.28681,0.31884 -0.11389,0.009 -0.20415,-0.0424 -0.27078,-0.15503 l -0.12557,0.0749 z m -2.80293,0.12713 c -0.0218,0.37473 -0.0189,1.82281 0.009,1.90789 0.0274,0.0844 0.86551,1.24236 1.11104,1.54409 l 0.6997,-0.88676 c -0.0104,-0.0199 -0.0211,-0.0411 -0.0331,-0.0687 -0.0281,-0.0649 -0.0611,-0.15195 -0.0987,-0.25374 -0.0752,-0.20358 -0.16572,-0.46824 -0.25218,-0.73432 -0.0865,-0.26609 -0.16907,-0.53316 -0.22789,-0.74207 -0.0294,-0.10445 -0.0528,-0.19402 -0.0682,-0.26303 -0.005,-0.0239 -0.009,-0.0423 -0.0119,-0.0615 z m 3.22048,0.009 0.24184,0.20877 c 0.0504,0.0259 0.11501,0.0247 0.19482,-0.004 -0.0875,0.0676 -0.15324,0.10312 -0.1974,0.10646 v 0.3514 l -0.44287,0.15399 0.44183,0.154 v 0.73277 c 0.10925,0.003 0.21088,0.0745 0.30541,0.21291 -0.0442,-0.0575 -0.14916,-0.0861 -0.31574,-0.0853 l -0.22789,-0.21032 v -0.64802 l -0.36019,-0.14263 0.36019,-0.16847 z m 2.95537,0.0155 -1.13016,0.42168 c -0.003,0.0181 -0.006,0.0349 -0.0109,0.0569 -0.0154,0.069 -0.0388,0.15858 -0.0682,0.26303 -0.0588,0.2089 -0.14041,0.47599 -0.22686,0.74207 -0.0865,0.26609 -0.17698,0.53075 -0.25218,0.73432 -0.0376,0.1018 -0.0716,0.18885 -0.0997,0.25374 -0.0135,0.0312 -0.0257,0.0559 -0.0372,0.0775 l 0.70021,0.88263 c 0.23774,-0.29016 1.08701,-1.46364 1.11466,-1.54874 0.0269,-0.0828 0.0303,-1.46419 0.0103,-1.88309 z m -2.99051,0.97772 -0.001,0.56431 c -0.11623,-0.0592 -0.23001,-0.0624 -0.34159,-0.01 0.0387,-0.0934 0.13081,-0.131 0.27647,-0.11266 v -0.14159 c -0.0891,-0.0409 -0.17366,-0.0291 -0.25424,0.0351 0.0178,-0.0984 0.10238,-0.14616 0.25424,-0.14366 v -0.14521 z m -0.38706,0.52297 c 0.0256,0.10174 0.0791,0.16311 0.15968,0.18396 0.0806,0.0208 0.17238,0.002 0.27543,-0.0574 -0.0968,0.18681 -0.20494,0.28893 -0.32349,0.30644 -0.11777,0.0175 -0.22664,-0.03 -0.3266,-0.14262 l -0.17311,0.0625 z m -0.81546,1.14721 -0.70538,0.89349 c 0.36682,0.14135 1.72116,0.57826 1.80971,0.57826 0.0878,0 1.4249,-0.43078 1.80454,-0.57568 l -0.70952,-0.89503 c -0.0157,0.002 -0.0289,0.004 -0.0475,0.006 -0.0704,0.007 -0.16235,0.0122 -0.27078,0.0165 -0.21686,0.009 -0.49692,0.0134 -0.7767,0.0134 -0.27977,0 -0.55881,-0.005 -0.77566,-0.0134 -0.10843,-0.004 -0.20142,-0.01 -0.27182,-0.0165 -0.0224,-0.002 -0.0388,-0.005 -0.0568,-0.007 z m 3.01481,0.84491 -0.015,0.0119 c 0.001,-4.6e-4 0.007,-0.003 0.007,-0.003 0.001,-9.1e-4 0.006,-0.008 0.008,-0.009 z" />
  </g>
</svg>
