<?xml version="1.0" encoding="UTF-8" standalone="no"?>
<!-- Created with Inkscape (http://www.inkscape.org/) -->

<svg
   width="6.9887209mm"
   height="6.2368608mm"
   viewBox="0 0 6.9887209 6.2368608"
   version="1.1"
   id="svg1"
   xmlns="http://www.w3.org/2000/svg"
   xmlns:svg="http://www.w3.org/2000/svg">
  <defs
     id="defs1">
    <linearGradient
       id="swatch4">
      <stop
         style="stop-color:#000000;stop-opacity:1;"
         offset="0"
         id="stop4" />
    </linearGradient>
  </defs>
  <g
     id="layer3"
     transform="translate(-169.80043,-150.53522)">
    <path
       id="path94-48-8-0"
       style="fill:#ffffff;fill-opacity:1;stroke:none;stroke-width:0.192506;stroke-dasharray:none;stroke-opacity:1"
       d="m 173.29375,150.53525 v 5.2e-4 c -0.70358,0 -1.40045,0.0158 -1.6583,0.0465 l 0.55552,1.00872 c 0.024,-0.004 0.0526,-0.006 0.0863,-0.009 0.0687,-0.006 0.15876,-0.0104 0.26407,-0.0139 0.21061,-0.007 0.48121,-0.0109 0.75241,-0.0109 0.27119,0 0.54231,0.004 0.75292,0.0109 0.10531,0.004 0.19541,0.008 0.26407,0.0139 0.0343,0.003 0.0636,0.005 0.0878,0.009 l 0.57567,-1.00666 c -0.24076,-0.0323 -0.95882,-0.0491 -1.68051,-0.0491 z m -1.82625,0.13953 c -0.30394,0.40167 -1.4588,2.4017 -1.66398,2.88044 l 1.16169,0.002 c 0.008,-0.0183 0.0151,-0.0363 0.0258,-0.0589 0.0296,-0.0622 0.0703,-0.14215 0.11988,-0.23513 0.0991,-0.18595 0.23182,-0.42246 0.36742,-0.65732 0.1356,-0.23487 0.27455,-0.46764 0.38603,-0.64647 0.0557,-0.0894 0.10404,-0.16499 0.14314,-0.22169 0.009,-0.0132 0.0161,-0.0219 0.0243,-0.0331 z m 3.66593,0.0176 -0.57723,1.01234 c 0.008,0.0112 0.0152,0.0199 0.0243,0.0331 0.0391,0.0567 0.0874,0.13228 0.14314,0.22169 0.11148,0.17884 0.25043,0.41161 0.38603,0.64648 0.1356,0.23486 0.26828,0.47137 0.36742,0.65732 0.0496,0.093 0.0903,0.17292 0.11989,0.23513 0.0106,0.0224 0.0182,0.0402 0.0258,0.0584 l 1.1591,-0.007 c -0.2077,-0.48043 -1.32735,-2.42009 -1.64848,-2.85719 z m -1.8402,1.05781 c -0.26935,1e-5 -0.53866,0.003 -0.74569,0.0103 -0.10359,0.004 -0.19137,0.008 -0.25477,0.0129 -0.0317,0.002 -0.0576,0.005 -0.0744,0.008 -0.002,3.4e-4 -0.003,0.001 -0.005,0.002 -0.001,0.001 -0.002,0.002 -0.003,0.003 -0.0106,0.0133 -0.0259,0.0343 -0.0439,0.0605 -0.0361,0.0524 -0.0842,0.1265 -0.13901,0.21445 -0.10965,0.17591 -0.24712,0.40738 -0.38189,0.64079 -0.13476,0.23341 -0.2668,0.46872 -0.36431,0.65164 -0.0488,0.0915 -0.089,0.17044 -0.11628,0.22789 -0.0136,0.0287 -0.0243,0.0524 -0.0305,0.0682 -7.5e-4,0.002 -5.2e-4,0.003 -0.001,0.005 5.5e-4,0.002 3.2e-4,0.003 0.001,0.005 0.006,0.0158 0.0168,0.0395 0.0305,0.0682 0.0273,0.0574 0.0675,0.13592 0.11628,0.22738 0.0975,0.18291 0.22955,0.41822 0.36431,0.65163 0.13477,0.23342 0.27224,0.4654 0.38189,0.64131 0.0548,0.088 0.10291,0.1621 0.13901,0.21446 0.0181,0.0262 0.0333,0.0467 0.0439,0.0599 0.002,0.002 0.003,0.002 0.004,0.004 0.002,3.4e-4 0.002,7.2e-4 0.004,0.001 0.0168,0.002 0.0427,0.005 0.0744,0.008 0.0634,0.005 0.15118,0.009 0.25477,0.0129 0.20717,0.007 0.47668,0.0103 0.74621,0.0103 0.26952,0 0.53955,-0.003 0.74672,-0.0103 0.10358,-0.003 0.19137,-0.008 0.25476,-0.0129 0.0317,-0.002 0.0576,-0.005 0.0744,-0.008 0.002,-2.7e-4 0.002,-7.2e-4 0.004,-0.001 0.002,-0.002 0.002,-0.002 0.004,-0.004 0.0106,-0.0133 0.0259,-0.0337 0.0439,-0.0599 0.0361,-0.0524 0.0842,-0.1265 0.13901,-0.21446 0.10966,-0.17591 0.24713,-0.40789 0.38189,-0.64131 0.13476,-0.23341 0.26681,-0.46872 0.36432,-0.65163 0.0488,-0.0915 0.089,-0.16993 0.11627,-0.22738 0.0136,-0.0287 0.0243,-0.0524 0.0305,-0.0682 7.6e-4,-0.002 5.2e-4,-0.003 0.001,-0.005 -5.4e-4,-0.002 -3.1e-4,-0.003 -0.001,-0.005 -0.006,-0.0158 -0.0168,-0.0395 -0.0305,-0.0682 -0.0273,-0.0575 -0.0675,-0.13643 -0.11627,-0.22789 -0.0975,-0.18292 -0.22956,-0.41823 -0.36432,-0.65164 -0.13476,-0.23341 -0.27223,-0.46488 -0.38189,-0.64079 -0.0548,-0.0879 -0.1029,-0.16209 -0.13901,-0.21445 -0.0181,-0.0262 -0.0333,-0.0472 -0.0439,-0.0605 -0.001,-0.001 -0.002,-0.002 -0.003,-0.003 -0.002,-6.9e-4 -0.003,-0.001 -0.005,-0.002 -0.0168,-0.002 -0.0427,-0.005 -0.0744,-0.008 -0.0634,-0.005 -0.15118,-0.01 -0.25476,-0.0129 -0.20704,-0.007 -0.47686,-0.0103 -0.74621,-0.0103 z m -0.22738,0.86248 c 0.0434,0.10175 0.11347,0.1681 0.21033,0.19896 0.0968,0.03 0.23236,-0.0316 0.40669,-0.185 -0.1232,0.25019 -0.24293,0.38899 -0.35915,0.41651 -0.11545,0.0275 -0.22872,-0.0302 -0.33952,-0.17363 l -0.13694,0.0713 z m 0.64234,0.0202 v 0.90589 l -0.58084,0.51779 v 0.41032 l 0.5333,-0.001 c 0.0728,-0.17347 0.18118,-0.28809 0.32453,-0.34313 -0.14644,0.0901 -0.2504,0.281 -0.31161,0.57206 l -0.74259,-0.003 c -0.13327,0.008 -0.24214,-0.0163 -0.3266,-0.0713 0.15032,0.004 0.24496,-0.0364 0.28371,-0.12144 v -0.38395 l 0.59479,-0.53434 v -0.60565 c 0.0744,-0.05 0.14938,-0.16414 0.22531,-0.34261 z m -0.25218,0.35915 -0.001,0.56431 c -0.11622,-0.0592 -0.23001,-0.0629 -0.34158,-0.0103 0.0387,-0.0934 0.1308,-0.131 0.27647,-0.11265 v -0.14108 c -0.0891,-0.0409 -0.17367,-0.0291 -0.25425,0.0351 0.0178,-0.0984 0.10238,-0.14668 0.25425,-0.14418 v -0.14521 z m 3.33313,0.75086 -1.1653,0.006 c -0.008,0.0188 -0.0156,0.0378 -0.0269,0.0615 -0.0296,0.0622 -0.0703,0.14215 -0.11989,0.23513 -0.0991,0.18595 -0.23182,0.42245 -0.36742,0.65732 -0.1356,0.23487 -0.27455,0.46816 -0.38603,0.64699 -0.0557,0.0894 -0.10404,0.16499 -0.14314,0.22169 -0.0144,0.0209 -0.0266,0.0364 -0.0388,0.0522 l 0.57826,1.01131 c 0.30495,-0.4024 1.47621,-2.43134 1.66915,-2.89181 z m -6.98872,0.004 c 0.19814,0.4686 1.36834,2.49456 1.66966,2.89026 l 0.58291,-1.00407 c -0.0138,-0.0177 -0.0284,-0.0372 -0.0455,-0.062 -0.0391,-0.0567 -0.0874,-0.13228 -0.14314,-0.22169 -0.11147,-0.17883 -0.25042,-0.41212 -0.38602,-0.64699 -0.1356,-0.23487 -0.26829,-0.47136 -0.36742,-0.65732 -0.0496,-0.093 -0.0903,-0.17292 -0.11989,-0.23513 -0.0112,-0.0235 -0.019,-0.0423 -0.0269,-0.061 z m 4.57698,1.97248 c -0.0203,0.002 -0.0406,0.005 -0.0667,0.007 -0.0687,0.005 -0.15876,0.01 -0.26407,0.0134 -0.21061,0.007 -0.48172,0.0109 -0.75292,0.0109 -0.2712,0 -0.5418,-0.004 -0.75241,-0.0109 -0.10531,-0.004 -0.19541,-0.008 -0.26407,-0.0134 -0.0208,-0.002 -0.0361,-0.004 -0.0532,-0.006 l -0.58187,1.00666 c 0.52832,0.0605 2.79547,0.06 3.30987,-0.001 z m 0.68575,0.98031 -0.017,0.01 c 0.002,-10e-4 0.009,-0.002 0.0103,-0.003 10e-4,-8.7e-4 0.004,-0.005 0.007,-0.007 z" />
  </g>
</svg>
