<?xml version="1.0" encoding="UTF-8" standalone="no"?>
<!-- Created with Inkscape (http://www.inkscape.org/) -->

<svg
   width="6.1489787mm"
   height="6.1490755mm"
   viewBox="0 0 6.1489787 6.1490755"
   version="1.1"
   id="svg1"
   xmlns="http://www.w3.org/2000/svg"
   xmlns:svg="http://www.w3.org/2000/svg">
  <defs
     id="defs1">
    <linearGradient
       id="swatch4">
      <stop
         style="stop-color:#000000;stop-opacity:1;"
         offset="0"
         id="stop4" />
    </linearGradient>
  </defs>
  <g
     id="layer3"
     transform="translate(-170.23364,-166.25678)">
    <path
       id="path225-00-1-0"
       style="fill:#ffffff;fill-opacity:1;stroke:none;stroke-width:0.200527;stroke-dasharray:none;stroke-opacity:1"
       d="m 172.03454,166.25677 -0.015,0.015 0.0367,-0.015 z m 0.10801,0 0.31677,0.7798 1.69706,-0.001 0.31057,-0.77877 z m 2.43447,0 0.008,0.003 -0.003,-0.003 z m 0.0765,0.0718 -0.31264,0.7891 1.18752,1.18804 0.77773,-0.32452 z m -2.69648,0.006 -1.64847,1.64848 0.78031,0.32142 1.18546,-1.18494 z m 0.48318,0.90175 -1.2268,1.22732 v 1.73529 l 1.2268,1.22783 1.73529,-5.1e-4 1.2268,-1.2268 5.2e-4,-1.7353 -1.22732,-1.2268 z m -2.19108,0.80615 -0.0155,0.0155 v 0.0227 z m 6.13347,0.12558 -0.77928,0.32453 v 1.67276 l 0.77928,0.32918 z m -6.14898,0.001 v 2.32699 l 0.77929,-0.33486 v -1.6707 z m 2.84583,0.12144 c 0.0434,0.10175 0.11347,0.1681 0.21032,0.19895 0.0969,0.03 0.23236,-0.0315 0.40669,-0.185 -0.12319,0.2502 -0.24293,0.38899 -0.35915,0.41652 -0.11545,0.0275 -0.22871,-0.0302 -0.33951,-0.17364 l -0.13695,0.0713 z m 0.64234,0.0201 v 0.90589 l -0.58085,0.5178 v 0.41031 l 0.5333,-0.001 c 0.0728,-0.17347 0.18119,-0.28809 0.32453,-0.34313 -0.14644,0.0901 -0.2504,0.28099 -0.31161,0.57205 l -0.74259,-0.003 c -0.13327,0.008 -0.24214,-0.0163 -0.32659,-0.0713 0.15031,0.004 0.24496,-0.0364 0.2837,-0.12144 v -0.38396 l 0.59479,-0.53433 v -0.60565 c 0.0744,-0.05 0.14938,-0.16414 0.22532,-0.34262 z m -0.25219,0.35916 -10e-4,0.5643 c -0.11622,-0.0592 -0.23,-0.0629 -0.34158,-0.0103 0.0387,-0.0934 0.13081,-0.13101 0.27647,-0.11266 v -0.14107 c -0.0891,-0.0409 -0.17367,-0.0291 -0.25425,0.0351 0.0178,-0.0984 0.10239,-0.14668 0.25425,-0.14418 v -0.1447 z m -2.38848,1.68103 -0.76998,0.33176 1.65003,1.65003 0.31833,-0.78393 z m 4.45037,0.003 -1.20354,1.20354 0.33021,0.77205 1.64848,-1.64848 z m -5.29787,0.23254 v 0.0186 l 0.014,0.0139 z m 2.23088,1.03973 -0.31678,0.7798 h 2.32647 l -0.33641,-0.77928 z m -0.44235,0.7674 0.0124,0.0124 h 0.0176 z" />
  </g>
</svg>
