<?xml version="1.0" encoding="UTF-8" standalone="no"?>
<!-- Created with Inkscape (http://www.inkscape.org/) -->

<svg
   width="7.2042117mm"
   height="6.3608594mm"
   viewBox="0 0 7.2042117 6.3608594"
   version="1.1"
   id="svg1"
   xmlns="http://www.w3.org/2000/svg"
   xmlns:svg="http://www.w3.org/2000/svg">
  <defs
     id="defs1">
    <linearGradient
       id="swatch4">
      <stop
         style="stop-color:#000000;stop-opacity:1;"
         offset="0"
         id="stop4" />
    </linearGradient>
  </defs>
  <g
     id="layer3"
     transform="translate(-162.1121,-135.35983)">
    <path
       id="path280-3-7-9"
       style="fill:#ffffff;fill-opacity:1;stroke:none;stroke-width:0.250658;stroke-dasharray:none;stroke-opacity:1"
       d="m 165.82814,135.35983 2.60708,4.08864 c 0.50569,-0.47548 0.88108,-0.85971 0.88108,-0.93534 0,-0.20955 -2.85254,-2.76497 -3.48816,-3.1533 z m -0.22893,5.2e-4 c -0.63719,0.38995 -3.48712,2.94332 -3.48712,3.15278 0,0.0756 0.37505,0.45949 0.88056,0.93482 z m 0.11473,0.2868 -2.52698,3.961 -0.0729,-0.0465 c 1.00836,0.93866 2.43676,2.15904 2.59985,2.15904 0.16424,0 1.61162,-1.2375 2.62102,-2.17867 l -0.0977,0.062 z m -0.59583,2.34611 c 0.002,0.13094 0.0838,0.20135 0.24649,0.21136 l -0.11007,0.14624 -0.002,1.38338 0.19792,0.0863 c 0.0496,-0.0567 0.11088,-0.0834 0.18449,-0.0801 -0.0713,0.0367 -0.16749,0.14471 -0.28836,0.32401 l -0.2775,-0.1049 c -0.0356,0.055 -0.11762,0.0856 -0.24546,0.0915 0.0961,-0.0459 0.16383,-0.11131 0.20257,-0.19637 l 10e-4,-1.49862 c -0.0411,-0.007 -0.0726,-0.0255 -0.0951,-0.0563 l -0.1943,0.0698 z m 1.07177,0.002 c 0.004,0.0709 0.0584,0.13429 0.16381,0.19017 0.10615,0.0559 0.21813,0.0476 0.3359,-0.0258 l -0.12661,0.14883 v 1.16685 l -0.22428,0.19792 v -0.66197 c 0.10073,-0.004 0.1509,-0.0508 0.1509,-0.14004 0,-0.0901 -0.0502,-0.13468 -0.1509,-0.13385 v -0.28525 c -0.12164,-0.0334 -0.22276,-0.10692 -0.30334,-0.22118 v 0.5054 c -0.10072,0.003 -0.15141,0.0483 -0.15141,0.13591 0,0.0867 0.0507,0.13297 0.15141,0.13797 v 0.71159 l 0.18345,0.12506 0.34417,-0.3328 -0.006,0.11782 -0.43822,0.44029 -0.31161,-0.19017 c -0.0356,-0.0167 -0.0868,-0.0176 -0.15347,-0.003 0.0643,-0.055 0.11241,-0.084 0.14417,-0.0873 v -1.35237 c -0.0364,0.0133 -0.0907,-0.0141 -0.16278,-0.0816 0.0643,0.0283 0.1181,0.03 0.16072,0.004 z m -0.81494,0.2744 v 1.34204 l -0.0651,0.0589 v -1.31 z m 0.80718,0.2651 c 0.009,0 0.0172,0.002 0.0253,0.006 0.0163,0.008 0.0264,0.0211 0.031,0.0377 0.005,0.0158 0.005,0.0319 0,0.0486 -0.005,0.0167 -0.0183,0.0294 -0.0393,0.0377 v 0.18758 h 0.10232 c 0.008,-0.0225 0.0191,-0.0371 0.0346,-0.0429 0.0155,-0.006 0.0308,-0.006 0.0455,0 0.0155,0.005 0.0274,0.0166 0.0351,0.0341 0.008,0.0175 0.008,0.0356 0,0.0548 -0.007,0.0183 -0.0191,0.0301 -0.0362,0.0351 -0.017,0.005 -0.0336,0.004 -0.0491,-0.004 -0.0155,-0.008 -0.0253,-0.0232 -0.03,-0.0465 h -0.10181 l 5.2e-4,0.64182 c 0.0209,0.008 0.0344,0.021 0.0398,0.0377 0.005,0.0167 0.005,0.0329 0,0.0496 -0.005,0.0159 -0.0153,0.0284 -0.0315,0.0367 -0.0163,0.008 -0.0333,0.009 -0.0512,10e-4 -0.017,-0.008 -0.0279,-0.0215 -0.0326,-0.0398 -0.005,-0.0183 -0.003,-0.036 0.004,-0.0527 0.007,-0.0167 0.0212,-0.0276 0.0429,-0.0326 l -5.2e-4,-0.64182 h -0.11111 c -0.005,0.0234 -0.0145,0.039 -0.03,0.0465 -0.0155,0.007 -0.032,0.009 -0.0491,0.004 -0.0171,-0.005 -0.0295,-0.0168 -0.0372,-0.0351 -0.007,-0.0192 -0.007,-0.0373 0.001,-0.0548 0.008,-0.0175 0.0194,-0.0291 0.0341,-0.0341 0.0155,-0.006 0.031,-0.006 0.0465,0 0.0155,0.006 0.0269,0.0204 0.0346,0.0429 h 0.11059 v -0.18758 c -0.0217,-0.005 -0.0359,-0.0159 -0.0429,-0.0326 -0.007,-0.0167 -0.008,-0.0344 -0.004,-0.0527 0.005,-0.0183 0.0155,-0.0312 0.0326,-0.0388 0.009,-0.004 0.0173,-0.006 0.0258,-0.006 z" />
  </g>
</svg>
