<?xml version="1.0" encoding="UTF-8" standalone="no"?>
<!-- Created with Inkscape (http://www.inkscape.org/) -->

<svg
   width="7.2042117mm"
   height="6.3608594mm"
   viewBox="0 0 7.2042117 6.3608594"
   version="1.1"
   id="svg1"
   xmlns="http://www.w3.org/2000/svg"
   xmlns:svg="http://www.w3.org/2000/svg">
  <defs
     id="defs1">
    <linearGradient
       id="swatch4">
      <stop
         style="stop-color:#000000;stop-opacity:1;"
         offset="0"
         id="stop4" />
    </linearGradient>
  </defs>
  <g
     id="layer3"
     transform="translate(-216.34754,-135.35983)">
    <path
       id="path280-3-7-50-8"
       style="fill:#ffffff;fill-opacity:1;stroke:none;stroke-width:0.250658;stroke-dasharray:none;stroke-opacity:1"
       d="m 220.06359,135.35983 2.60708,4.08864 c 0.50569,-0.47548 0.88108,-0.85971 0.88108,-0.93534 0,-0.20955 -2.85254,-2.76497 -3.48816,-3.1533 z m -0.22893,5.2e-4 c -0.63719,0.38995 -3.48712,2.94332 -3.48712,3.15278 0,0.0756 0.37505,0.4595 0.88056,0.93482 z m 0.11472,0.2868 -2.52697,3.961 -0.0729,-0.0465 c 1.00836,0.93865 2.43675,2.15904 2.59984,2.15904 0.16424,0 1.61163,-1.23749 2.62103,-2.17867 l -0.0977,0.062 z m -0.26716,2.24999 c 0.0236,0.001 0.0473,0.006 0.0708,0.014 -0.0464,-0.0131 -0.12045,0.0197 -0.22118,0.0977 0.0213,0.0479 0.0654,0.0921 0.13281,0.13229 0.0945,0.0559 0.20599,0.047 0.33383,-0.0264 l -0.13849,0.14883 v 0.30437 l -0.22066,0.22221 v -0.40772 c -0.0637,-0.0101 -0.12867,-0.038 -0.1943,-0.0837 v 0.57206 l 0.10438,0.0558 0.31058,-0.30748 -0.006,0.11731 -0.23048,0.23771 c 0.0728,0.0325 0.13516,0.0543 0.18707,0.0651 0.0527,0.0109 0.11553,-0.005 0.18758,-0.0486 l -0.13849,0.14883 v 0.37878 l -0.24391,0.23513 v -0.60771 l -0.17105,-0.0822 v 0.6103 l -0.0708,0.0584 v -0.70228 l -0.0816,-0.0393 -10e-4,0.76171 0.25787,0.11265 0.31057,-0.30799 -0.006,0.11782 -0.41393,0.41548 -0.39739,-0.19017 c -0.0387,-0.0167 -0.0946,-0.0176 -0.16743,-0.003 0.0705,-0.055 0.123,-0.0845 0.1571,-0.0879 v -0.65164 c -0.0395,0.0133 -0.0985,-0.0136 -0.17674,-0.0811 0.0697,0.0283 0.12766,0.0295 0.17415,0.004 l 0.16485,-0.14624 c -0.117,-0.006 -0.20415,0.002 -0.26148,0.0248 0.0705,-0.055 0.12274,-0.084 0.15606,-0.0873 v -0.47645 c -0.0387,0.0133 -0.0974,-0.0141 -0.1757,-0.0816 0.0697,0.0283 0.12818,0.0295 0.17467,0.004 l 0.32556,-0.27853 c 0.0898,-0.0977 0.17916,-0.14539 0.2682,-0.1416 z m 0.86093,0.0915 c 0.004,0.0709 0.0584,0.13429 0.16381,0.19017 0.10615,0.0559 0.21813,0.047 0.3359,-0.0263 l -0.12661,0.14882 v 1.16737 l -0.22428,0.19741 v -0.66198 c 0.10073,-0.004 0.15142,-0.0508 0.15142,-0.14004 0,-0.0901 -0.0507,-0.13468 -0.15142,-0.13384 v -0.28526 c -0.12164,-0.0333 -0.22275,-0.10691 -0.30334,-0.22117 v 0.5054 c -0.10072,0.003 -0.15089,0.0488 -0.15089,0.13642 0,0.0867 0.0502,0.13246 0.15089,0.13746 v 0.71158 l 0.18397,0.12558 0.34365,-0.3328 -0.006,0.11731 -0.43822,0.44028 -0.3116,-0.19017 c -0.0356,-0.0167 -0.0863,-0.0176 -0.15297,-0.003 0.0643,-0.055 0.1119,-0.084 0.14366,-0.0873 v -1.35237 c -0.0364,0.0134 -0.0902,-0.0136 -0.16226,-0.0811 0.0643,0.0284 0.11758,0.0295 0.1602,0.004 z m -1.22835,0.19741 v 0.61546 l 0.0594,0.0315 v -0.59066 c -0.0197,-0.0174 -0.0395,-0.0358 -0.0594,-0.0563 z m 1.22111,0.34158 c 0.008,0 0.0167,0.002 0.0248,0.006 0.0163,0.008 0.0269,0.021 0.0315,0.0377 0.005,0.0159 0.005,0.0319 0,0.0486 -0.005,0.0167 -0.0189,0.0294 -0.0398,0.0377 l 5.2e-4,0.18759 h 0.1018 c 0.008,-0.0225 0.0196,-0.0365 0.0351,-0.0424 0.0155,-0.006 0.0302,-0.006 0.045,0 0.0155,0.005 0.0274,0.0161 0.0351,0.0336 0.008,0.0175 0.008,0.0361 0,0.0553 -0.007,0.0183 -0.0191,0.0296 -0.0362,0.0346 -0.0171,0.005 -0.0331,0.004 -0.0486,-0.004 -0.0155,-0.007 -0.0258,-0.0226 -0.0305,-0.046 h -0.1018 l 0.001,0.6413 c 0.0209,0.008 0.0339,0.0211 0.0393,0.0377 0.005,0.0167 0.005,0.0334 0,0.0501 -0.005,0.0159 -0.0153,0.0278 -0.0315,0.0362 -0.0163,0.008 -0.0333,0.009 -0.0512,0.001 -0.017,-0.008 -0.0279,-0.0214 -0.0326,-0.0398 -0.005,-0.0183 -0.003,-0.036 0.004,-0.0527 0.007,-0.0167 0.0212,-0.0276 0.0429,-0.0326 l -5.2e-4,-0.6413 h -0.1111 c -0.005,0.0234 -0.0145,0.0385 -0.03,0.046 -0.0155,0.008 -0.0315,0.009 -0.0486,0.004 -0.017,-0.005 -0.0295,-0.0163 -0.0372,-0.0346 -0.007,-0.0192 -0.007,-0.0378 10e-4,-0.0553 0.008,-0.0175 0.0189,-0.0286 0.0336,-0.0336 0.0155,-0.006 0.031,-0.006 0.0465,0 0.0155,0.006 0.0269,0.0199 0.0346,0.0424 h 0.11059 v -0.18759 c -0.0217,-0.005 -0.0359,-0.0159 -0.0429,-0.0325 -0.007,-0.0167 -0.008,-0.0344 -0.004,-0.0527 0.005,-0.0183 0.0155,-0.0313 0.0326,-0.0388 0.009,-0.004 0.0178,-0.006 0.0264,-0.006 z" />
  </g>
</svg>
