<?xml version="1.0" encoding="UTF-8" standalone="no"?>
<!-- Created with Inkscape (http://www.inkscape.org/) -->

<svg
   width="5.6287265mm"
   height="6.2502642mm"
   viewBox="0 0 5.6287265 6.2502642"
   version="1.1"
   id="svg1"
   xmlns="http://www.w3.org/2000/svg"
   xmlns:svg="http://www.w3.org/2000/svg">
  <defs
     id="defs1">
    <linearGradient
       id="swatch4">
      <stop
         style="stop-color:#000000;stop-opacity:1;"
         offset="0"
         id="stop4" />
    </linearGradient>
  </defs>
  <g
     id="layer3"
     transform="translate(-162.70017,-120.92722)">
    <path
       id="path205-1"
       style="fill:#ffffff;fill-opacity:1;stroke:none;stroke-width:0.200527;stroke-dasharray:none;stroke-opacity:1"
       d="m 165.5154,120.93809 c -0.003,0.002 -0.004,0.003 -0.007,0.006 -0.028,0.0271 -0.0678,0.0727 -0.1142,0.13177 -0.0927,0.11817 -0.2138,0.29204 -0.3514,0.50127 -0.2752,0.41844 -0.61716,0.98089 -0.9462,1.5508 -0.32904,0.56992 -0.64544,1.14718 -0.87023,1.59474 -0.11239,0.22378 -0.2019,0.41559 -0.25786,0.55501 -0.028,0.0697 -0.0478,0.12704 -0.0574,0.16484 -0.001,0.004 -7.6e-4,0.005 -0.002,0.008 0.004,0.001 0.004,0.002 0.008,0.003 0.0375,0.0106 0.0967,0.0225 0.17105,0.0331 0.14871,0.0212 0.35978,0.0392 0.60978,0.0537 0.49999,0.0291 1.15835,0.0439 1.81643,0.0439 0.65808,0 1.31643,-0.0148 1.81642,-0.0439 0.25,-0.0146 0.46055,-0.0325 0.60927,-0.0537 0.0744,-0.0106 0.13354,-0.0224 0.17105,-0.0331 0.004,-10e-4 0.005,-0.002 0.008,-0.003 -7.9e-4,-0.004 -5.1e-4,-0.004 -0.002,-0.008 -0.01,-0.0378 -0.0294,-0.0951 -0.0574,-0.16484 -0.056,-0.13942 -0.14548,-0.33123 -0.25787,-0.55501 -0.22479,-0.44756 -0.54119,-1.02482 -0.87023,-1.59474 -0.32904,-0.56991 -0.67099,-1.13236 -0.9462,-1.5508 -0.1376,-0.20923 -0.25864,-0.3831 -0.3514,-0.50127 -0.0464,-0.0591 -0.0862,-0.10462 -0.1142,-0.13177 -0.003,-0.003 -0.003,-0.003 -0.006,-0.006 z m -0.0119,1.788 c 0.001,0.13094 0.0833,0.20135 0.24599,0.21136 l -0.11007,0.14624 -0.002,1.3839 0.19792,0.0863 c 0.0496,-0.0567 0.11088,-0.0834 0.18449,-0.0801 -0.0713,0.0367 -0.16697,0.1447 -0.28784,0.32401 l -0.27803,-0.10542 c -0.0356,0.055 -0.1171,0.0856 -0.24494,0.0915 0.0961,-0.0459 0.16331,-0.1113 0.20205,-0.19637 l 0.001,-1.49862 c -0.0411,-0.007 -0.0726,-0.0255 -0.0951,-0.0563 l -0.1943,0.0703 z m 0.25684,0.27647 v 1.34256 l -0.0651,0.0584 v -1.30949 z" />
    <path
       id="path180-7"
       style="fill:#ffffff;fill-opacity:1;stroke:none;stroke-width:0.200527;stroke-dasharray:none;stroke-opacity:1"
       d="m 168.29922,125.34661 c 0.0475,-0.71428 0.0382,-2.82367 -0.0295,-2.94091 -0.0666,-0.11532 -1.82647,-1.14274 -2.49597,-1.47743 0.007,0.008 0.0127,0.0149 0.0196,0.0238 0.0991,0.12624 0.22188,0.30233 0.36122,0.51418 0.27866,0.42371 0.62238,0.98866 0.95291,1.56115 0.33052,0.57248 0.64779,1.15189 0.8754,1.60507 0.1138,0.22659 0.20532,0.42157 0.2651,0.5705 0.0219,0.0547 0.038,0.10086 0.0512,0.14366 z" />
    <path
       id="path179-5"
       style="fill:#ffffff;fill-opacity:1;stroke:none;stroke-width:0.200527;stroke-dasharray:none;stroke-opacity:1"
       d="m 162.79464,125.62101 c 0.30342,0.25318 2.56894,1.55649 2.71973,1.55649 0.15061,0 2.41132,-1.30051 2.71922,-1.55598 -0.021,0.01 -0.0422,0.0179 -0.0667,0.0248 -0.0527,0.015 -0.11797,0.0274 -0.19741,0.0388 -0.15887,0.0227 -0.37318,0.0411 -0.62632,0.0558 -0.50627,0.0295 -1.16674,0.0439 -1.8278,0.0439 -0.66104,0 -1.32204,-0.0145 -1.82831,-0.0439 -0.25313,-0.0147 -0.46745,-0.0331 -0.62632,-0.0558 -0.0794,-0.0113 -0.14466,-0.0238 -0.1974,-0.0388 -0.0252,-0.007 -0.0472,-0.0148 -0.0687,-0.0253 z" />
    <path
       id="path178-3"
       style="fill:#ffffff;fill-opacity:1;stroke:none;stroke-width:0.200527;stroke-dasharray:none;stroke-opacity:1"
       d="m 165.25754,120.92724 c -0.66784,0.33354 -2.43139,1.36302 -2.49804,1.47846 -0.0678,0.11744 -0.0773,2.23427 -0.0295,2.94504 0.0133,-0.0438 0.0301,-0.0914 0.0527,-0.1478 0.0598,-0.14893 0.15078,-0.34391 0.26458,-0.5705 0.22761,-0.45318 0.54539,-1.03259 0.87592,-1.60507 0.33052,-0.57249 0.67322,-1.13744 0.95188,-1.56115 0.13933,-0.21185 0.26265,-0.38794 0.36173,-0.51418 0.007,-0.009 0.0137,-0.0161 0.0207,-0.0248 z" />
  </g>
</svg>
