<?xml version="1.0" encoding="UTF-8" standalone="no"?>
<!-- Created with Inkscape (http://www.inkscape.org/) -->

<svg
   width="7.2042117mm"
   height="6.3448324mm"
   viewBox="0 0 7.2042117 6.3448324"
   version="1.1"
   id="svg1"
   xmlns="http://www.w3.org/2000/svg"
   xmlns:svg="http://www.w3.org/2000/svg">
  <defs
     id="defs1">
    <linearGradient
       id="swatch4">
      <stop
         style="stop-color:#000000;stop-opacity:1;"
         offset="0"
         id="stop4" />
    </linearGradient>
  </defs>
  <g
     id="layer3"
     transform="translate(-192.90238,-158.56887)">
    <path
       id="path34-81-8-39-63-8"
       style="fill:#ffffff;fill-opacity:1;stroke:none;stroke-width:0.200326;stroke-dasharray:none;stroke-opacity:1"
       d="m 196.43704,158.56887 c -0.5345,0.28392 -3.53467,2.96694 -3.53467,3.18172 0,0.0765 0.38354,0.46818 0.89762,0.95084 z m 0.13384,0 2.6355,4.13463 c 0.5152,-0.48363 0.9002,-0.87635 0.9002,-0.95291 0,-0.2149 -3.00364,-2.90029 -3.5357,-3.18172 z m -0.0667,0.26613 -2.45928,3.85817 2.46341,1.11052 2.4505,-1.11569 z m 0.005,1.88516 0.50436,0.001 -0.16175,0.23255 -0.46354,0.002 v 0.50281 h 0.0403 v -0.43925 c 0.17356,-0.0592 0.31941,-0.0336 0.43719,0.0765 -0.12862,-0.05 -0.25043,-0.0559 -0.36587,-0.0176 v 0.11989 c 0.0728,-0.0309 0.14162,-0.018 0.2067,0.0388 -0.0845,-0.0259 -0.15324,0.002 -0.2067,0.0816 l -0.0579,0.14004 0.35656,0.001 c 0.11003,0.002 0.20856,-0.04 0.29611,-0.12505 l -0.14624,0.21135 -0.001,0.73949 -0.44545,0.47801 -0.31626,-0.20257 c -0.0697,-0.0334 -0.16025,-0.0175 -0.27182,0.0475 0.16348,-0.22184 0.29072,-0.32061 0.38137,-0.29559 l 0.31626,0.21291 0.0662,-0.0615 v -0.8232 h -0.40928 c -0.0937,-0.006 -0.19642,0.003 -0.30799,0.0253 0.0783,-0.0884 0.13411,-0.13464 0.16743,-0.13798 v -0.32608 c -0.0387,0.0134 -0.0974,-0.0263 -0.1757,-0.11885 0.0697,0.0283 0.12818,0.0295 0.17467,0.004 z m 0.13126,0.95808 v 0.75551 l -0.0708,0.0589 v -0.19017 c -0.062,-0.0425 -0.12379,-0.0473 -0.185,-0.014 0.0333,-0.0726 0.0951,-0.11035 0.185,-0.11369 l 0.001,-0.41651 z m 2.36781,1.20923 -2.40451,1.09347 v 0.93276 c 0.36199,-0.21531 1.51741,-1.20608 2.40451,-2.02623 z m -4.99608,0.0103 c 0.88385,0.81645 2.02802,1.79844 2.39055,2.01539 v -0.93638 z" />
  </g>
</svg>
