<?xml version="1.0" encoding="UTF-8" standalone="no"?>
<!-- Created with Inkscape (http://www.inkscape.org/) -->

<svg
   width="7.2042117mm"
   height="6.3448486mm"
   viewBox="0 0 7.2042117 6.3448486"
   version="1.1"
   id="svg1"
   xmlns="http://www.w3.org/2000/svg"
   xmlns:svg="http://www.w3.org/2000/svg">
  <defs
     id="defs1">
    <linearGradient
       id="swatch4">
      <stop
         style="stop-color:#000000;stop-opacity:1;"
         offset="0"
         id="stop4" />
    </linearGradient>
  </defs>
  <g
     id="layer3"
     transform="translate(-239.52019,-158.57453)">
    <path
       id="path34-81-8-39-2-7-9"
       style="fill:#ffffff;fill-opacity:1;stroke:none;stroke-width:0.200326;stroke-dasharray:none;stroke-opacity:1"
       d="m 243.05486,158.57455 c -0.53449,0.28392 -3.53467,2.96694 -3.53467,3.18172 0,0.0765 0.38355,0.46819 0.89762,0.95085 z m 0.13384,0 2.6355,4.13464 c 0.5152,-0.48363 0.9002,-0.87636 0.9002,-0.95292 0,-0.2149 -3.00363,-2.90029 -3.5357,-3.18172 z m -0.0667,0.26614 -2.45928,3.85816 2.46342,1.11053 2.45049,-1.1157 z m -0.49506,1.87017 c 0.002,0.13093 0.0833,0.20135 0.24598,0.21135 l -0.11007,0.14677 -10e-4,1.38337 0.19741,0.0863 c 0.0496,-0.0567 0.11139,-0.0834 0.185,-0.0801 -0.0713,0.0367 -0.16749,0.1447 -0.28836,0.32401 l -0.27802,-0.10491 c -0.0356,0.055 -0.1171,0.0851 -0.24494,0.0909 0.0961,-0.0459 0.16331,-0.1113 0.20205,-0.19637 l 0.001,-1.49861 c -0.0411,-0.007 -0.0726,-0.0255 -0.0951,-0.0563 l -0.1943,0.0703 z m 0.85421,0 c 0.002,0.13093 0.0838,0.20135 0.2465,0.21135 l -0.11059,0.14677 -0.001,1.38337 0.19741,0.0863 c 0.0496,-0.0567 0.11139,-0.0834 0.185,-0.0801 -0.0713,0.0367 -0.16748,0.1447 -0.28835,0.32401 l -0.27802,-0.10491 c -0.0356,0.055 -0.11711,0.0851 -0.24495,0.0909 0.0961,-0.0459 0.16331,-0.1113 0.20205,-0.19637 l 0.001,-1.49861 c -0.0411,-0.007 -0.0726,-0.0255 -0.0951,-0.0563 l -0.19431,0.0703 z m -0.59738,0.27647 v 1.34255 l -0.0651,0.0584 v -1.30949 z m 0.85422,0 v 1.34255 l -0.0651,0.0584 v -1.30949 z m 1.88825,1.90582 -2.4045,1.09348 v 0.93276 c 0.36199,-0.21531 1.51741,-1.20609 2.4045,-2.02624 z m -4.99607,0.0103 c 0.88385,0.81645 2.02802,1.79843 2.39055,2.01538 v -0.93638 z" />
  </g>
</svg>
