<?xml version="1.0" encoding="UTF-8" standalone="no"?>
<!-- Created with Inkscape (http://www.inkscape.org/) -->

<svg
   width="6.2024484mm"
   height="6.2023177mm"
   viewBox="0 0 6.2024484 6.2023177"
   version="1.1"
   id="svg1"
   xmlns="http://www.w3.org/2000/svg"
   xmlns:svg="http://www.w3.org/2000/svg">
  <defs
     id="defs1">
    <linearGradient
       id="swatch4">
      <stop
         style="stop-color:#000000;stop-opacity:1;"
         offset="0"
         id="stop4" />
    </linearGradient>
  </defs>
  <g
     id="layer3"
     transform="translate(-177.98998,-113.37317)">
    <path
       id="path195-8"
       style="display:inline;fill:#ffffff;fill-opacity:1;stroke:none;stroke-width:0.200526;stroke-dasharray:none;stroke-opacity:1"
       d="m 181.0912,113.37318 c -1.42045,0 -2.84092,0.0519 -2.94504,0.15606 -0.20824,0.20824 -0.20824,5.68183 0,5.89008 0.20825,0.20824 5.68184,0.20824 5.89008,0 0.20825,-0.20825 0.20825,-5.68184 0,-5.89008 -0.10412,-0.10412 -1.52459,-0.15606 -2.94504,-0.15606 z m -0.25993,2.05672 c 0.017,0.10174 0.0729,0.16312 0.16743,0.18397 0.0945,0.0208 0.17676,10e-4 0.2465,-0.0579 -0.0775,0.20349 -0.17291,0.31018 -0.28681,0.31936 -0.11389,0.009 -0.20415,-0.043 -0.27078,-0.15555 l -0.12558,0.0755 z m 0.41754,0.13642 0.24185,0.20878 c 0.0504,0.0258 0.11501,0.0247 0.19482,-0.004 -0.0875,0.0675 -0.15324,0.1026 -0.1974,0.10593 v 0.35192 l -0.44287,0.15348 0.44183,0.15399 v 0.73329 c 0.10925,0.003 0.21088,0.0739 0.30541,0.21239 -0.0442,-0.0575 -0.14916,-0.0856 -0.31574,-0.0847 l -0.2279,-0.21032 v -0.64804 l -0.36018,-0.14263 0.36018,-0.16898 z m -0.0351,0.99322 -0.001,0.56379 c -0.11622,-0.0592 -0.23,-0.0624 -0.34158,-0.01 0.0387,-0.0934 0.13081,-0.131 0.27647,-0.11265 v -0.14108 c -0.0891,-0.0409 -0.17366,-0.0296 -0.25425,0.0346 0.0178,-0.0984 0.10239,-0.14616 0.25425,-0.14366 v -0.14521 z m -0.38705,0.52297 c 0.0256,0.10175 0.0791,0.1626 0.15968,0.18345 0.0806,0.0208 0.17238,0.002 0.27543,-0.0574 -0.0968,0.18681 -0.20494,0.28893 -0.32349,0.30644 -0.11777,0.0175 -0.22664,-0.03 -0.3266,-0.14262 l -0.17311,0.0625 z" />
  </g>
</svg>
