<?xml version="1.0" encoding="UTF-8" standalone="no"?>
<!-- Created with Inkscape (http://www.inkscape.org/) -->

<svg
   width="5.7152195mm"
   height="6.4037595mm"
   viewBox="0 0 5.7152195 6.4037595"
   version="1.1"
   id="svg1"
   xmlns="http://www.w3.org/2000/svg"
   xmlns:svg="http://www.w3.org/2000/svg">
  <defs
     id="defs1">
    <linearGradient
       id="swatch4">
      <stop
         style="stop-color:#000000;stop-opacity:1;"
         offset="0"
         id="stop4" />
    </linearGradient>
  </defs>
  <g
     id="layer3"
     transform="translate(-178.25814,-173.78705)">
    <path
       id="path63-83-7-9"
       style="fill:#ffffff;fill-opacity:1;stroke:none;stroke-width:0.174705;stroke-dasharray:none;stroke-opacity:1"
       d="m 181.11571,173.78706 c -0.13939,0 -2.05539,1.09552 -2.63085,1.48622 0.0438,-0.01 0.0919,-0.0191 0.14987,-0.0274 0.16072,-0.0229 0.37713,-0.0414 0.63303,-0.0563 0.51181,-0.0298 1.17975,-0.0439 1.84795,-0.0439 0.6682,0 1.33666,0.0141 1.84847,0.0439 0.2559,0.0149 0.4718,0.0333 0.63252,0.0563 0.0582,0.008 0.1065,0.0179 0.15038,0.0279 -0.57487,-0.3904 -2.49194,-1.48673 -2.63137,-1.48673 z m 0,1.56632 c -0.66512,0 -1.33026,0.0145 -1.83555,0.0439 -0.25264,0.0147 -0.4658,0.0338 -0.61598,0.0553 -0.0751,0.0107 -0.13438,0.0219 -0.17208,0.0326 -0.003,8.2e-4 -0.003,5.5e-4 -0.006,0.002 6.7e-4,0.003 -3.1e-4,0.003 5.2e-4,0.007 0.01,0.038 0.0296,0.095 0.0579,0.16536 0.0565,0.14078 0.14635,0.33454 0.25993,0.56069 0.22716,0.4523 0.54801,1.03629 0.88057,1.6123 0.33256,0.57601 0.67737,1.14447 0.95549,1.56735 0.13906,0.21144 0.26135,0.38658 0.35502,0.50591 0.0468,0.0597 0.0866,0.10604 0.11472,0.13333 0.002,0.002 0.003,0.002 0.005,0.004 0.002,-0.002 0.003,-0.002 0.005,-0.004 0.0281,-0.0273 0.0689,-0.0737 0.11576,-0.13333 0.0937,-0.11933 0.21595,-0.29447 0.35501,-0.50591 0.27812,-0.42288 0.62346,-0.99134 0.95602,-1.56735 0.33256,-0.57601 0.65185,-1.16 0.87901,-1.6123 0.11359,-0.22615 0.20498,-0.41991 0.26149,-0.56069 0.0283,-0.0704 0.0478,-0.12735 0.0574,-0.16536 8.6e-4,-0.003 3.8e-4,-0.004 10e-4,-0.007 -0.003,-8.2e-4 -0.003,-5.5e-4 -0.006,-0.002 -0.0377,-0.0107 -0.097,-0.0219 -0.17209,-0.0326 -0.15017,-0.0215 -0.36334,-0.0406 -0.61598,-0.0553 -0.50528,-0.0294 -1.17094,-0.0439 -1.83606,-0.0439 z m -2.82308,0.21549 c -0.0537,0.65032 -0.0446,2.94002 0.0264,3.06286 0.0715,0.12378 2.07752,1.29183 2.65048,1.55908 -0.001,-0.001 -0.002,-0.002 -0.003,-0.003 -0.0399,-0.0387 -0.0837,-0.0891 -0.13384,-0.15297 -0.10024,-0.12771 -0.22501,-0.30621 -0.36587,-0.52038 -0.28171,-0.42833 -0.62811,-0.999 -0.96221,-1.57768 -0.3341,-0.57868 -0.65512,-1.16451 -0.88522,-1.62264 -0.11505,-0.22906 -0.20721,-0.42657 -0.26769,-0.57723 -0.0261,-0.065 -0.0451,-0.11919 -0.0589,-0.16794 z m 5.64617,0.002 c -0.0138,0.0484 -0.0321,0.10208 -0.0579,0.1664 -0.0605,0.15067 -0.15315,0.34816 -0.26819,0.57723 -0.2301,0.45813 -0.5506,1.04395 -0.88471,1.62264 -0.3341,0.57867 -0.68102,1.14934 -0.96273,1.57768 -0.14085,0.21416 -0.26511,0.39267 -0.36535,0.52038 -0.0501,0.0639 -0.0944,0.11421 -0.13436,0.15296 0.57724,-0.27011 2.57605,-1.43346 2.64738,-1.55701 0.0708,-0.12267 0.0793,-2.40641 0.0258,-3.06028 z m -3.10731,0.37362 c 0.017,0.10175 0.0729,0.16261 0.16743,0.18346 0.0945,0.0208 0.17677,0.002 0.2465,-0.0574 -0.0775,0.2035 -0.17291,0.30967 -0.2868,0.31885 -0.1139,0.009 -0.20415,-0.0424 -0.27079,-0.15503 l -0.12557,0.0749 z m 0.41755,0.13591 0.24184,0.20929 c 0.0504,0.0259 0.11502,0.0242 0.19482,-0.004 -0.0875,0.0676 -0.15324,0.10312 -0.1974,0.10645 v 0.3514 l -0.44287,0.154 0.44184,0.15399 v 0.73329 c 0.10924,0.003 0.21088,0.0739 0.3054,0.21239 -0.0442,-0.0575 -0.14915,-0.0861 -0.31574,-0.0853 l -0.22789,-0.20981 v -0.64802 l -0.36019,-0.14263 0.36019,-0.16898 z m -0.0351,0.99374 -0.001,0.56379 c -0.11622,-0.0592 -0.23001,-0.0624 -0.34158,-0.01 0.0387,-0.0934 0.1308,-0.131 0.27647,-0.11265 v -0.14108 c -0.0891,-0.0409 -0.17367,-0.0296 -0.25425,0.0346 0.0178,-0.0984 0.10238,-0.14616 0.25425,-0.14366 v -0.14521 z m -0.38706,0.52245 c 0.0256,0.10175 0.0791,0.16312 0.15968,0.18397 0.0806,0.0208 0.17239,0.002 0.27544,-0.0574 -0.0969,0.18681 -0.20495,0.28892 -0.3235,0.30644 -0.11777,0.0175 -0.22664,-0.03 -0.32659,-0.14263 l -0.17312,0.0625 z" />
  </g>
</svg>
