<?xml version="1.0" encoding="UTF-8" standalone="no"?>
<!-- Created with Inkscape (http://www.inkscape.org/) -->

<svg
   width="5.6286135mm"
   height="6.2502642mm"
   viewBox="0 0 5.6286135 6.2502642"
   version="1.1"
   id="svg1"
   xmlns="http://www.w3.org/2000/svg"
   xmlns:svg="http://www.w3.org/2000/svg">
  <defs
     id="defs1">
    <linearGradient
       id="swatch4">
      <stop
         style="stop-color:#000000;stop-opacity:1;"
         offset="0"
         id="stop4" />
    </linearGradient>
  </defs>
  <g
     id="layer3"
     transform="translate(-178.30135,-120.60146)">
    <path
       id="path218-4"
       style="fill:#ffffff;fill-opacity:1;stroke:none;stroke-width:0.200527;stroke-dasharray:none;stroke-opacity:1"
       d="m 181.11601,120.61253 c -0.003,0.003 -0.003,0.003 -0.006,0.006 -0.028,0.0271 -0.0678,0.0727 -0.11421,0.13177 -0.0928,0.11817 -0.21431,0.29204 -0.35191,0.50126 -0.27521,0.41845 -0.61664,0.9809 -0.94568,1.55081 -0.32904,0.56992 -0.64545,1.14718 -0.87023,1.59474 -0.1124,0.22378 -0.20243,0.41559 -0.25839,0.555 -0.028,0.0697 -0.0473,0.12704 -0.0568,0.16485 -0.001,0.004 -8e-4,0.005 -0.002,0.008 0.004,0.001 0.004,0.002 0.008,0.003 0.0375,0.0106 0.0967,0.023 0.17105,0.0336 0.14872,0.0213 0.35927,0.0391 0.60927,0.0537 0.49999,0.0291 1.15834,0.0439 1.81642,0.0439 0.65808,0 1.31696,-0.0148 1.81695,-0.0439 0.24999,-0.0146 0.46055,-0.0324 0.60926,-0.0537 0.0744,-0.0106 0.13303,-0.0229 0.17054,-0.0336 0.004,-0.001 0.005,-0.002 0.009,-0.003 -7.9e-4,-0.004 -4.6e-4,-0.004 -0.002,-0.008 -0.009,-0.0378 -0.0294,-0.0951 -0.0574,-0.16485 -0.056,-0.13941 -0.14548,-0.33122 -0.25787,-0.555 -0.22479,-0.44756 -0.54119,-1.02482 -0.87023,-1.59474 -0.32904,-0.56991 -0.67099,-1.13236 -0.9462,-1.55081 -0.1376,-0.20922 -0.25864,-0.38309 -0.3514,-0.50126 -0.0464,-0.0591 -0.0862,-0.10462 -0.1142,-0.13177 -0.003,-0.003 -0.004,-0.003 -0.007,-0.006 z m -0.28474,2.08308 c 0.017,0.10174 0.0729,0.16312 0.16743,0.18397 0.0945,0.0208 0.17676,0.002 0.2465,-0.0574 -0.0775,0.2035 -0.17291,0.30967 -0.28681,0.31885 -0.11389,0.009 -0.20415,-0.0424 -0.27078,-0.15503 l -0.12557,0.0749 z m 0.41755,0.13642 0.24184,0.20878 c 0.0504,0.0259 0.11501,0.0247 0.19482,-0.004 -0.0875,0.0675 -0.15324,0.10312 -0.1974,0.10645 v 0.3514 l -0.44287,0.154 0.44183,0.15399 v 0.73278 c 0.10925,0.003 0.21088,0.0745 0.30541,0.2129 -0.0442,-0.0575 -0.14916,-0.0861 -0.31574,-0.0853 l -0.22789,-0.20981 v -0.64802 l -0.36019,-0.14263 0.36019,-0.16898 z m -0.0351,0.99322 -0.001,0.56431 c -0.11623,-0.0592 -0.23001,-0.0624 -0.34159,-0.01 0.0387,-0.0934 0.13081,-0.131 0.27647,-0.11265 v -0.1416 c -0.0891,-0.0409 -0.17366,-0.0291 -0.25425,0.0351 0.0178,-0.0984 0.10239,-0.14616 0.25425,-0.14366 v -0.14521 z m -0.38706,0.52297 c 0.0256,0.10175 0.0791,0.16312 0.15968,0.18397 0.0806,0.0208 0.17238,0.002 0.27543,-0.0574 -0.0968,0.18681 -0.20494,0.28892 -0.32349,0.30644 -0.11777,0.0175 -0.22664,-0.03 -0.3266,-0.14263 l -0.17311,0.0625 z" />
    <path
       id="path218-0-15-2"
       style="fill:#ffffff;fill-opacity:1;stroke:none;stroke-width:0.200527;stroke-dasharray:none;stroke-opacity:1"
       d="m 183.90039,125.02187 c 0.0476,-0.7134 0.0378,-2.82464 -0.03,-2.94194 -0.0666,-0.11529 -1.82506,-1.14247 -2.49493,-1.47743 0.007,0.008 0.0123,0.015 0.0191,0.0238 0.0991,0.12624 0.22188,0.30233 0.36121,0.51419 0.27867,0.4237 0.62188,0.98866 0.9524,1.56114 0.33053,0.57249 0.64831,1.15189 0.87592,1.60507 0.1138,0.22659 0.2048,0.42158 0.26458,0.57051 0.0221,0.0551 0.0385,0.10164 0.0517,0.14469 z" />
    <path
       id="path217-20-5-9"
       style="fill:#ffffff;fill-opacity:1;stroke:none;stroke-width:0.200527;stroke-dasharray:none;stroke-opacity:1"
       d="m 178.39582,125.29524 c 0.30343,0.25318 2.56894,1.5565 2.71973,1.5565 0.15061,0 2.41155,-1.30063 2.71922,-1.55598 -0.021,0.01 -0.0427,0.0179 -0.0672,0.0248 -0.0527,0.015 -0.11746,0.0274 -0.19689,0.0388 -0.15887,0.0227 -0.37319,0.0411 -0.62632,0.0558 -0.50627,0.0295 -1.16726,0.0439 -1.82831,0.0439 -0.66105,0 -1.32153,-0.0145 -1.8278,-0.0439 -0.25313,-0.0147 -0.46745,-0.0331 -0.62632,-0.0558 -0.0794,-0.0113 -0.14466,-0.0238 -0.1974,-0.0388 -0.0251,-0.007 -0.0472,-0.0148 -0.0687,-0.0253 z" />
    <path
       id="path216-89-8-3"
       style="fill:#ffffff;fill-opacity:1;stroke:none;stroke-width:0.200527;stroke-dasharray:none;stroke-opacity:1"
       d="m 180.85872,120.60147 c -0.66784,0.33354 -2.43139,1.36302 -2.49804,1.47846 -0.0678,0.11747 -0.0773,2.23525 -0.0295,2.94556 0.0133,-0.0439 0.0295,-0.0917 0.0522,-0.14831 0.0598,-0.14893 0.15078,-0.34392 0.26459,-0.57051 0.2276,-0.45318 0.54539,-1.03258 0.87591,-1.60507 0.33053,-0.57248 0.67374,-1.13744 0.9524,-1.56114 0.13933,-0.21186 0.26264,-0.38795 0.36173,-0.51419 0.007,-0.009 0.0137,-0.0161 0.0207,-0.0248 z" />
  </g>
</svg>
