<?xml version="1.0" encoding="UTF-8" standalone="no"?>
<!-- Created with Inkscape (http://www.inkscape.org/) -->

<svg
   width="6.1495118mm"
   height="6.1495438mm"
   viewBox="0 0 6.1495118 6.1495438"
   version="1.1"
   id="svg1"
   xmlns="http://www.w3.org/2000/svg"
   xmlns:svg="http://www.w3.org/2000/svg">
  <defs
     id="defs1">
    <linearGradient
       id="swatch4">
      <stop
         style="stop-color:#000000;stop-opacity:1;"
         offset="0"
         id="stop4" />
    </linearGradient>
  </defs>
  <g
     id="layer3"
     transform="translate(-232.16354,-166.28469)">
    <path
       id="path225-00-7-3"
       style="fill:#ffffff;fill-opacity:1;stroke:none;stroke-width:0.200527;stroke-dasharray:none;stroke-opacity:1"
       d="m 233.96446,166.28468 -0.015,0.015 0.0367,-0.015 z m 0.108,0 0.31678,0.7798 1.69705,-0.001 0.31058,-0.77876 z m 2.43448,0 0.008,0.003 -0.003,-0.003 z m 0.0765,0.0718 -0.31264,0.7891 1.18752,1.18804 0.77773,-0.32453 z m -2.69648,0.006 -1.64847,1.64848 0.78083,0.32143 1.18545,-1.18494 z m 0.48318,0.90176 -1.2268,1.22731 v 1.7353 l 1.2268,1.22783 1.73529,-0.001 1.2268,-1.2268 5.2e-4,-1.7353 -1.22732,-1.2268 z m -2.19108,0.80615 -0.0155,0.0155 v 0.0222 z m 6.13347,0.12557 -0.77928,0.32453 v 1.67277 l 0.7798,0.32918 z m -6.14898,10e-4 v 2.32699 l 0.77929,-0.33487 v -1.6707 z m 2.47892,0.12299 c 0.001,0.13093 0.0838,0.20135 0.2465,0.21135 l -0.11059,0.14625 -0.001,1.38389 0.19792,0.0863 c 0.0496,-0.0567 0.11088,-0.0834 0.18449,-0.0801 -0.0713,0.0367 -0.16749,0.14471 -0.28836,0.32401 l -0.2775,-0.10542 c -0.0356,0.055 -0.11762,0.0856 -0.24546,0.0915 0.0961,-0.0459 0.16383,-0.1113 0.20257,-0.19637 l 0.001,-1.49862 c -0.0411,-0.007 -0.0731,-0.0255 -0.0956,-0.0563 l -0.19379,0.0698 z m 1.07177,0.003 c 0.004,0.0709 0.0584,0.13429 0.16382,0.19017 0.10615,0.0559 0.21812,0.047 0.33589,-0.0264 l -0.1266,0.14883 v 1.16686 l -0.22428,0.19729 v -0.66198 c 0.10073,-0.004 0.1509,-0.0508 0.1509,-0.14004 0,-0.0901 -0.0502,-0.13468 -0.1509,-0.13384 v -0.28526 c -0.12164,-0.0334 -0.22276,-0.10692 -0.30334,-0.22117 v 0.50539 c -0.10072,0.003 -0.15141,0.0489 -0.15141,0.13643 0,0.0867 0.0507,0.13245 0.15141,0.13746 v 0.71158 l 0.18345,0.12506 0.34417,-0.3328 -0.006,0.11783 -0.43822,0.44028 -0.31161,-0.19017 c -0.0356,-0.0167 -0.0868,-0.0176 -0.15348,-0.003 0.0643,-0.0551 0.11241,-0.084 0.14418,-0.0873 v -1.35237 c -0.0364,0.0133 -0.0907,-0.0136 -0.16278,-0.0811 0.0643,0.0284 0.11758,0.0295 0.1602,0.004 z m -0.81493,0.27389 v 1.34203 l -0.0651,0.0589 v -1.30999 z m 0.80718,0.2651 c 0.008,0 0.0172,0.002 0.0253,0.006 0.0163,0.008 0.0264,0.021 0.031,0.0377 0.005,0.0159 0.005,0.0319 0,0.0486 -0.005,0.0167 -0.0183,0.0294 -0.0393,0.0377 v 0.18759 h 0.10232 c 0.008,-0.0225 0.0191,-0.0365 0.0346,-0.0424 0.0155,-0.006 0.0308,-0.006 0.0455,0 0.0155,0.005 0.0269,0.0161 0.0346,0.0336 0.008,0.0175 0.008,0.0356 0,0.0548 -0.007,0.0183 -0.0186,0.0301 -0.0357,0.0351 -0.0171,0.005 -0.0336,0.004 -0.0491,-0.004 -0.0155,-0.008 -0.0253,-0.0232 -0.03,-0.0465 h -0.1018 l 5.2e-4,0.64182 c 0.0209,0.008 0.0344,0.0211 0.0398,0.0377 0.005,0.0167 0.005,0.0334 0,0.0501 -0.005,0.0159 -0.0152,0.0278 -0.0315,0.0362 -0.0163,0.008 -0.0333,0.009 -0.0512,10e-4 -0.0171,-0.008 -0.0279,-0.0214 -0.0326,-0.0398 -0.005,-0.0183 -0.003,-0.036 0.004,-0.0527 0.007,-0.0167 0.0212,-0.0275 0.0429,-0.0326 l -5.2e-4,-0.64182 h -0.1111 c -0.005,0.0233 -0.0145,0.039 -0.03,0.0465 -0.0155,0.008 -0.032,0.009 -0.0491,0.004 -0.0171,-0.005 -0.0295,-0.0168 -0.0372,-0.0351 -0.007,-0.0192 -0.007,-0.0373 0.001,-0.0548 0.008,-0.0175 0.0194,-0.0286 0.0341,-0.0336 0.0155,-0.006 0.031,-0.006 0.0465,0 0.0155,0.006 0.0269,0.0199 0.0346,0.0424 h 0.11059 v -0.18759 c -0.0217,-0.005 -0.0364,-0.0159 -0.0434,-0.0326 -0.007,-0.0167 -0.008,-0.0344 -0.003,-0.0527 0.005,-0.0183 0.0155,-0.0312 0.0326,-0.0387 0.009,-0.004 0.0173,-0.006 0.0258,-0.006 z m -2.69544,1.51722 -0.76998,0.33176 1.65003,1.65003 0.31833,-0.78394 z m 4.45037,0.003 -1.20354,1.20354 0.33021,0.77205 1.64848,-1.64848 z m -5.29787,0.23254 v 0.0186 l 0.014,0.014 z m 2.23088,1.03973 -0.31678,0.7798 h 2.32647 l -0.33641,-0.77928 z m -0.44235,0.76739 0.0124,0.0124 h 0.0176 z" />
  </g>
</svg>
