<?xml version="1.0" encoding="UTF-8" standalone="no"?>
<!-- Created with Inkscape (http://www.inkscape.org/) -->

<svg
   width="5.6705842mm"
   height="5.9009156mm"
   viewBox="0 0 5.6705842 5.9009156"
   version="1.1"
   id="svg1"
   xmlns="http://www.w3.org/2000/svg"
   xmlns:svg="http://www.w3.org/2000/svg">
  <defs
     id="defs1">
    <linearGradient
       id="swatch4">
      <stop
         style="stop-color:#000000;stop-opacity:1;"
         offset="0"
         id="stop4" />
    </linearGradient>
  </defs>
  <g
     id="layer3"
     transform="translate(-201.56378,-202.39875)">
    <path
       id="path237-317-04-40-1"
       style="fill:#ffffff;fill-opacity:1;stroke:none;stroke-width:0.200527;stroke-dasharray:none;stroke-opacity:1"
       d="m 204.39882,202.39875 c -0.12765,0 -1.63099,0.48825 -1.73426,0.56328 -0.10327,0.075 -1.03232,1.35396 -1.07177,1.47536 -0.0183,0.0563 -0.0276,0.4279 -0.0289,0.82062 0.008,-0.005 0.0144,-0.009 0.0227,-0.0139 0.0745,-0.0438 0.17703,-0.097 0.29973,-0.1571 0.24539,-0.12015 0.572,-0.26755 0.90795,-0.41134 0.275,-0.11771 0.54748,-0.22802 0.79427,-0.3235 l 0.0279,-0.0419 c 0.004,0.009 0.008,0.0178 0.0124,0.0264 0.0409,-0.0157 0.088,-0.0352 0.1266,-0.0496 0.14035,-0.0525 0.26407,-0.0963 0.36639,-0.12816 0.0512,-0.0159 0.0965,-0.0286 0.13953,-0.0388 0.043,-0.0101 0.0759,-0.0207 0.15141,-0.0207 0.0755,0 0.10838,0.0105 0.15141,0.0207 0.043,0.0101 0.0884,0.0228 0.13953,0.0388 0.10232,0.0319 0.22603,0.0756 0.36638,0.12816 0.10487,0.0392 0.22465,0.087 0.34365,0.13436 0.009,-0.006 0.0177,-0.012 0.0264,-0.0186 -0.004,0.008 -0.009,0.0156 -0.0129,0.0238 0.19554,0.0779 0.39907,0.1611 0.60461,0.24908 0.33595,0.14379 0.66257,0.29119 0.90796,0.41134 0.12024,0.0589 0.22047,0.11072 0.29456,0.154 -0.002,-0.38625 -0.0109,-0.74812 -0.0289,-0.80357 -0.0394,-0.1214 -0.96902,-1.40033 -1.07229,-1.47536 -0.10327,-0.075 -1.60661,-0.56328 -1.73426,-0.56328 z m 0.0139,1.83555 c -0.002,3.3e-4 -0.002,1.2e-4 -0.004,5.2e-4 -0.0247,0.006 -0.0622,0.016 -0.10697,0.03 -0.0895,0.0279 -0.20838,0.0699 -0.34468,0.12092 -0.0647,0.0242 -0.14254,0.0558 -0.21394,0.0837 0.0251,0.0167 0.0528,0.0301 0.0832,0.0398 0.0969,0.03 0.23236,-0.0316 0.40669,-0.185 -0.12319,0.25019 -0.24293,0.38899 -0.35915,0.41651 -0.11545,0.0275 -0.22871,-0.0307 -0.33951,-0.17415 l -0.13694,0.0713 0.0284,-0.0424 c -0.13683,0.0559 -0.27626,0.11352 -0.41548,0.17311 -0.33219,0.14218 -0.6557,0.28795 -0.89401,0.40463 -0.11915,0.0583 -0.217,0.10949 -0.28215,0.1478 -0.0326,0.0191 -0.0567,0.0354 -0.0703,0.046 -9.9e-4,7.7e-4 -6.9e-4,8.7e-4 -0.002,0.002 8.1e-4,7.4e-4 5.1e-4,8.5e-4 0.002,0.002 0.0136,0.0106 0.0377,0.0268 0.0703,0.046 0.0652,0.0383 0.163,0.0894 0.28215,0.1478 0.23831,0.11667 0.56182,0.26244 0.89401,0.40462 0.14338,0.0614 0.28722,0.12088 0.42788,0.17829 v -0.33538 l 0.59479,-0.53382 v -0.60565 c 0.0744,-0.05 0.14938,-0.16414 0.22531,-0.34261 v 0.90589 l -0.58084,0.51779 v 0.41031 l 0.5333,-0.002 c 0.0728,-0.17346 0.18119,-0.28757 0.32453,-0.34261 -0.14644,0.0901 -0.2504,0.28048 -0.31161,0.57154 l -0.16071,-5.2e-4 c 0.0905,0.0328 0.17425,0.062 0.23874,0.0822 0.0447,0.0139 0.0823,0.0242 0.10697,0.03 0.002,4e-4 0.002,1.9e-4 0.004,5.2e-4 0.002,-3.3e-4 0.002,-1.2e-4 0.004,-5.2e-4 0.0247,-0.006 0.0622,-0.016 0.10697,-0.03 0.0895,-0.0279 0.2089,-0.0699 0.3452,-0.12092 0.0284,-0.0106 0.0642,-0.0253 0.094,-0.0367 l -0.36174,-0.2465 c -0.0511,-0.0334 -0.12199,-0.0343 -0.21187,-0.003 0.0875,-0.0717 0.15427,-0.10526 0.19999,-0.10026 v -1.0144 c -0.0442,-0.003 -0.10985,-0.0389 -0.19741,-0.10646 0.0798,0.0284 0.14498,0.0295 0.19534,0.004 l 0.38137,-0.42426 c -0.0318,-0.0122 -0.0695,-0.028 -0.0997,-0.0393 -0.13629,-0.051 -0.2557,-0.093 -0.34519,-0.12092 -0.0447,-0.0139 -0.0823,-0.0242 -0.10697,-0.03 -0.002,-4e-4 -0.002,-1.9e-4 -0.004,-5.2e-4 z m 0.92656,0.3359 c -0.0636,0.0862 -0.12595,0.1321 -0.18758,0.13539 -0.0937,0.004 -0.1747,-0.0357 -0.24288,-0.11989 l -0.0801,0.0873 v 1.2361 l 0.32297,0.19999 0.0475,-0.0661 v -0.82218 c -0.0566,-0.0117 -0.10052,-0.0486 -0.13229,-0.1111 l -0.22582,0.31884 0.001,-0.11627 0.3793,-0.49299 c 0.0178,0.10174 0.0739,0.16312 0.16847,0.18397 0.0945,0.0208 0.17883,0.002 0.25321,-0.0574 -0.0829,0.17014 -0.15661,0.26747 -0.22169,0.29249 l -0.001,0.66818 -0.24236,0.32504 c 0.2041,-0.081 0.41889,-0.16857 0.63717,-0.262 0.33218,-0.14218 0.65621,-0.28795 0.89452,-0.40462 0.11915,-0.0583 0.217,-0.1095 0.28215,-0.1478 0.0326,-0.0192 0.0567,-0.0354 0.0703,-0.046 9.9e-4,-7.7e-4 6.9e-4,-8.8e-4 0.002,-0.002 -8.1e-4,-7.4e-4 -5.2e-4,-8.4e-4 -0.002,-0.002 -0.0136,-0.0106 -0.0377,-0.0268 -0.0703,-0.046 -0.0651,-0.0383 -0.163,-0.0895 -0.28215,-0.1478 -0.23831,-0.11668 -0.56234,-0.26245 -0.89452,-0.40463 -0.15936,-0.0682 -0.32044,-0.13549 -0.47543,-0.19843 z m -1.33273,0.11937 -0.001,0.56379 c -0.11623,-0.0592 -0.23001,-0.0624 -0.34158,-0.01 0.0387,-0.0934 0.1308,-0.131 0.27646,-0.11265 v -0.14108 c -0.0891,-0.0409 -0.17366,-0.0296 -0.25424,0.0346 0.0178,-0.0984 0.10238,-0.14616 0.25424,-0.14366 v -0.14501 z m 1.08003,0.50384 0.0651,0.0589 v 0.75447 l -0.0651,0.0584 z m -3.52278,0.28578 c 0.002,0.37797 0.0113,0.72745 0.0289,0.78186 0.0395,0.12141 0.9685,1.40033 1.07177,1.47536 0.10327,0.075 1.60661,0.56327 1.73426,0.56327 0.12765,0 1.63099,-0.48824 1.73426,-0.56327 0.10328,-0.075 1.03284,-1.35395 1.07229,-1.47536 0.0174,-0.0536 0.0264,-0.39354 0.0284,-0.76481 -0.0741,0.0433 -0.17399,0.0952 -0.29404,0.15399 -0.24539,0.12014 -0.57201,0.26756 -0.90795,0.41135 -0.33595,0.1438 -0.68101,0.28358 -0.9617,0.38861 -0.14035,0.0525 -0.26407,0.0963 -0.36639,0.12815 -0.0512,0.0159 -0.0965,0.0291 -0.13953,0.0393 -0.043,0.0101 -0.0759,0.0202 -0.15141,0.0202 -0.0755,0 -0.10838,-0.01 -0.15141,-0.0202 -0.043,-0.0101 -0.0884,-0.0233 -0.13952,-0.0393 -0.10233,-0.0319 -0.22604,-0.0756 -0.36639,-0.12815 -0.0473,-0.0177 -0.10446,-0.0409 -0.15503,-0.0605 l -0.11886,-5.1e-4 c -0.13326,0.007 -0.24214,-0.0163 -0.32659,-0.0713 0.0775,0.002 0.13975,-0.007 0.18758,-0.0289 -0.17826,-0.0717 -0.36311,-0.14811 -0.54828,-0.22737 -0.33595,-0.14379 -0.66256,-0.29121 -0.90796,-0.41135 -0.12269,-0.0601 -0.22524,-0.11329 -0.29972,-0.15709 -0.008,-0.005 -0.0151,-0.009 -0.0227,-0.014 z" />
  </g>
</svg>
