<?xml version="1.0" encoding="UTF-8" standalone="no"?>
<!-- Created with Inkscape (http://www.inkscape.org/) -->

<svg
   width="6.1489787mm"
   height="6.1491237mm"
   viewBox="0 0 6.1489787 6.1491237"
   version="1.1"
   id="svg1"
   xmlns="http://www.w3.org/2000/svg"
   xmlns:svg="http://www.w3.org/2000/svg">
  <defs
     id="defs1">
    <linearGradient
       id="swatch4">
      <stop
         style="stop-color:#000000;stop-opacity:1;"
         offset="0"
         id="stop4" />
    </linearGradient>
  </defs>
  <g
     id="layer3"
     transform="translate(-201.35406,-166.264)">
    <path
       id="path225-00-06-8"
       style="fill:#ffffff;fill-opacity:1;stroke:none;stroke-width:0.200527;stroke-dasharray:none;stroke-opacity:1"
       d="m 203.15497,166.26401 -0.015,0.015 0.0367,-0.015 z m 0.10801,0 0.31677,0.7798 1.69705,-0.001 0.31058,-0.77876 z m 2.43447,0 0.008,0.003 -0.003,-0.003 z m 0.0765,0.0718 -0.31264,0.7891 1.18752,1.18804 0.77773,-0.32453 z m -2.69648,0.006 -1.64847,1.64848 0.78031,0.32142 1.18546,-1.18494 z m 0.48318,0.90175 -1.2268,1.22732 v 1.73529 l 1.2268,1.22783 1.73529,-0.001 1.2268,-1.2268 5.2e-4,-1.73529 -1.22732,-1.2268 z m -2.19108,0.80616 -0.0155,0.0155 v 0.0222 z m 6.13347,0.12557 -0.77928,0.32453 v 1.67276 l 0.77928,0.32918 z m -6.14897,0.001 v 2.32699 l 0.77928,-0.33486 v -1.6707 z m 3.13314,0.12351 c 0.0109,0.0817 0.0548,0.13263 0.13229,0.15348 0.0775,0.0208 0.15506,0.002 0.23254,-0.0574 -0.0984,0.19682 -0.1946,0.29782 -0.28835,0.30282 -0.0937,0.004 -0.1747,-0.0362 -0.24288,-0.1204 l -0.0801,0.0879 v 1.2361 l 0.32298,0.19998 0.0475,-0.0661 v -0.82217 c -0.0566,-0.0117 -0.10053,-0.0486 -0.1323,-0.11111 l -0.22531,0.31884 0.001,-0.11627 0.37879,-0.49299 c 0.0178,0.10175 0.0739,0.16312 0.16847,0.18397 0.0945,0.0208 0.17935,0.002 0.25373,-0.0574 -0.0829,0.17013 -0.15712,0.26747 -0.22221,0.29249 l -0.001,0.66817 -0.35708,0.47801 -0.46251,-0.31574 c -0.0511,-0.0334 -0.12148,-0.0338 -0.21135,-0.002 0.0875,-0.0717 0.15427,-0.10526 0.19998,-0.10025 v -1.01441 c -0.0442,-0.003 -0.11036,-0.0389 -0.19792,-0.10646 0.0798,0.0284 0.14498,0.0295 0.19534,0.004 z m 0.0114,0.88677 0.0651,0.0589 v 0.75396 l -0.0651,0.0589 z m -2.29702,1.1715 -0.76998,0.33176 1.65003,1.65003 0.31833,-0.78393 z m 4.45037,0.003 -1.20354,1.20355 0.33021,0.77204 1.64848,-1.64848 z m -5.29786,0.23255 v 0.0186 l 0.0139,0.0139 z m 2.23087,1.03973 -0.31678,0.77979 h 2.32647 l -0.33641,-0.77928 z m -0.44235,0.76739 0.0124,0.0124 h 0.0176 z" />
  </g>
</svg>
