<?xml version="1.0" encoding="UTF-8" standalone="no"?>
<!-- Created with Inkscape (http://www.inkscape.org/) -->

<svg
   width="6.2030292mm"
   height="6.4537239mm"
   viewBox="0 0 6.2030292 6.4537239"
   version="1.1"
   id="svg1"
   xmlns="http://www.w3.org/2000/svg"
   xmlns:svg="http://www.w3.org/2000/svg">
  <defs
     id="defs1">
    <linearGradient
       id="swatch4">
      <stop
         style="stop-color:#000000;stop-opacity:1;"
         offset="0"
         id="stop4" />
    </linearGradient>
  </defs>
  <g
     id="layer3"
     transform="translate(-224.6421,-142.70777)">
    <path
       id="path43-16-31-3"
       style="fill:#ffffff;fill-opacity:1;stroke:none;stroke-width:0.194062;stroke-dasharray:none;stroke-opacity:1"
       d="m 227.83202,142.70782 v 1.24592 c 0.0203,0.0104 0.0416,0.0223 0.0677,0.0377 0.0609,0.036 0.13919,0.086 0.22944,0.14624 0.1805,0.1205 0.40928,0.28152 0.63562,0.44597 0.22634,0.16445 0.44974,0.33221 0.62012,0.46664 0.0852,0.0672 0.15781,0.12581 0.21084,0.17259 0.0225,0.0199 0.0395,0.0367 0.0553,0.0527 l 1.12913,-0.42116 c -0.18566,-0.29451 -1.06034,-1.49538 -1.13378,-1.54874 -0.0726,-0.0527 -1.45548,-0.50444 -1.81436,-0.5979 z m -0.19379,0.004 c -0.39446,0.1067 -1.72583,0.54273 -1.79679,0.59428 -0.0713,0.0518 -0.9037,1.19231 -1.12241,1.52858 l 1.12034,0.43874 c 0.0155,-0.0154 0.0318,-0.0313 0.0532,-0.0501 0.053,-0.0468 0.12462,-0.10539 0.20981,-0.1726 0.17038,-0.13444 0.39377,-0.30219 0.62012,-0.46664 0.22634,-0.16445 0.45512,-0.32546 0.63562,-0.44596 0.0902,-0.0602 0.16857,-0.11027 0.22944,-0.14625 0.0195,-0.0115 0.0345,-0.0191 0.0506,-0.0279 z m 0.10594,1.38906 c -0.001,4.4e-4 -0.001,5.4e-4 -0.003,0.001 -0.0154,0.007 -0.0391,0.0206 -0.0672,0.0372 -0.0561,0.0332 -0.13242,0.0818 -0.22118,0.14108 -0.17751,0.1185 -0.405,0.27893 -0.62993,0.44235 -0.22494,0.16342 -0.4474,0.3303 -0.61495,0.4625 -0.0838,0.0661 -0.15372,0.12331 -0.20257,0.1664 -0.0244,0.0216 -0.0439,0.0393 -0.0558,0.0517 -7.7e-4,9.1e-4 -8.1e-4,0.001 -0.002,0.002 7e-5,0.001 -2.2e-4,0.002 0,0.004 0.002,0.017 0.007,0.0426 0.014,0.0744 0.0142,0.0636 0.0372,0.15102 0.0661,0.25374 0.0578,0.20544 0.14042,0.47145 0.22634,0.73587 0.0859,0.26443 0.17563,0.5279 0.2496,0.72812 0.037,0.1001 0.0697,0.18465 0.0956,0.24443 0.0129,0.0299 0.0245,0.0536 0.0326,0.0687 5.2e-4,9.2e-4 9.2e-4,9.8e-4 0.002,0.002 0.001,3.6e-4 0.002,0.001 0.003,0.001 0.0169,0.003 0.043,0.007 0.0754,0.01 0.0649,0.006 0.15485,0.0113 0.26148,0.0155 0.21326,0.008 0.49143,0.0124 0.76946,0.0124 0.27803,0 0.5562,-0.004 0.76946,-0.0124 0.10663,-0.004 0.19767,-0.009 0.26252,-0.0155 0.0324,-0.003 0.0586,-0.007 0.0754,-0.01 10e-4,-2.1e-4 10e-4,-0.001 0.003,-0.001 5.9e-4,-9.2e-4 9.5e-4,-9.8e-4 0.002,-0.002 0.008,-0.0151 0.0191,-0.0388 0.032,-0.0687 0.0259,-0.0598 0.0586,-0.14433 0.0956,-0.24443 0.074,-0.2002 0.16471,-0.46369 0.25063,-0.72812 0.0859,-0.26442 0.16747,-0.53043 0.22531,-0.73587 0.0289,-0.10272 0.052,-0.19016 0.0661,-0.25374 0.007,-0.0318 0.0116,-0.0574 0.014,-0.0744 2.1e-4,-0.001 -7e-5,-0.002 0,-0.004 -6.9e-4,-9.1e-4 -7.3e-4,-0.001 -0.002,-0.002 -0.0119,-0.0124 -0.0303,-0.0301 -0.0548,-0.0517 -0.0488,-0.0431 -0.11983,-0.10029 -0.20361,-0.1664 -0.16757,-0.13221 -0.39001,-0.29908 -0.61495,-0.4625 -0.22493,-0.16342 -0.45242,-0.32385 -0.62993,-0.44235 -0.0888,-0.0592 -0.1651,-0.10793 -0.22118,-0.14108 -0.028,-0.0166 -0.0507,-0.0297 -0.0661,-0.0372 -0.001,-5.1e-4 -0.001,-6.3e-4 -0.003,-0.001 z m -3.04064,0.75964 c -0.0162,0.026 -0.0356,0.056 -0.0382,0.0641 -0.002,0.005 -0.003,0.0312 -0.004,0.0444 z m 3.08456,0.0413 0.38137,0.31523 c 0.0511,0.0334 0.12148,0.0343 0.21136,0.003 -0.0876,0.0717 -0.15427,0.10526 -0.19999,0.10026 v 0.97668 c 0.0442,0.003 0.11037,0.0389 0.19792,0.10645 -0.0798,-0.0283 -0.14497,-0.0295 -0.19533,-0.004 l -0.41858,0.56792 c -0.0573,-0.0817 -0.12458,-0.13315 -0.20206,-0.15399 -0.0775,-0.0209 -0.15506,-0.002 -0.23254,0.0574 0.0984,-0.19682 0.1946,-0.29711 0.28835,-0.30128 0.0937,-0.005 0.1747,0.0346 0.24288,0.11886 l 0.0801,-0.11266 v -1.19837 l -0.2651,-0.22531 -0.10542,0.0791 v 0.79685 c 0.0566,0.0117 0.10828,0.0613 0.15555,0.14883 l 0.20205,-0.29404 -0.001,0.14108 -0.26251,0.40566 c -0.0566,-0.10175 -0.1419,-0.16312 -0.2558,-0.18397 -0.1139,-0.0208 -0.20777,-0.002 -0.28215,0.0574 0.0442,-0.12843 0.11786,-0.19681 0.22169,-0.20515 v -0.62787 c -0.0922,0.0133 -0.17315,-0.0193 -0.24288,-0.0977 0.093,0.0108 0.17418,-0.0118 0.24391,-0.0677 z m -3.13159,0.11524 c -0.0218,0.37473 -0.0189,1.82282 0.009,1.9079 0.0274,0.0844 0.86551,1.24237 1.11104,1.54409 l 0.6997,-0.88677 c -0.0104,-0.02 -0.0211,-0.0411 -0.0331,-0.0687 -0.0281,-0.0649 -0.0611,-0.15194 -0.0987,-0.25373 -0.0752,-0.20358 -0.16572,-0.46823 -0.25218,-0.73432 -0.0865,-0.26608 -0.16907,-0.53318 -0.22789,-0.74208 -0.0294,-0.10445 -0.0528,-0.19402 -0.0682,-0.26303 -0.005,-0.0239 -0.008,-0.0423 -0.0119,-0.0615 z m 6.17585,0.0248 -1.13016,0.42168 c -0.003,0.0181 -0.006,0.0348 -0.0109,0.0568 -0.0154,0.069 -0.0388,0.15858 -0.0682,0.26303 -0.0588,0.2089 -0.14041,0.476 -0.22686,0.74208 -0.0865,0.26608 -0.17698,0.53074 -0.25218,0.73432 -0.0376,0.10179 -0.0716,0.18885 -0.0997,0.25373 -0.0135,0.0312 -0.0257,0.0559 -0.0372,0.0775 l 0.70021,0.88263 c 0.23774,-0.29016 1.08701,-1.46364 1.11466,-1.54874 0.0269,-0.0828 0.0303,-1.46419 0.0103,-1.88309 z m -3.14864,0.1788 v 0.83457 l -0.0651,-0.0589 v -0.71675 z m -1.04438,2.4691 -0.70539,0.89348 c 0.36682,0.14135 1.72116,0.57826 1.80971,0.57826 0.0878,0 1.4249,-0.43076 1.80454,-0.57567 l -0.70952,-0.89504 c -0.0157,0.002 -0.0289,0.004 -0.0475,0.006 -0.0704,0.007 -0.16235,0.0122 -0.27078,0.0165 -0.21686,0.009 -0.49692,0.0134 -0.7767,0.0134 -0.27977,0 -0.5588,-0.005 -0.77566,-0.0134 -0.10843,-0.004 -0.20142,-0.01 -0.27182,-0.0165 -0.0224,-0.002 -0.0388,-0.005 -0.0568,-0.007 z m 3.0148,0.84491 -0.015,0.0119 c 0.001,-4.6e-4 0.006,-0.003 0.007,-0.003 0.001,-9.1e-4 0.006,-0.008 0.008,-0.009 z" />
  </g>
</svg>
