<?xml version="1.0" encoding="UTF-8" standalone="no"?>
<!-- Created with Inkscape (http://www.inkscape.org/) -->

<svg
   width="5.7148328mm"
   height="6.4041147mm"
   viewBox="0 0 5.7148328 6.4041147"
   version="1.1"
   id="svg1"
   xmlns="http://www.w3.org/2000/svg"
   xmlns:svg="http://www.w3.org/2000/svg">
  <defs
     id="defs1">
    <linearGradient
       id="swatch4">
      <stop
         style="stop-color:#000000;stop-opacity:1;"
         offset="0"
         id="stop4" />
    </linearGradient>
  </defs>
  <g
     id="layer3"
     transform="translate(-162.61024,-173.68163)">
    <path
       id="path63-83-48"
       style="fill:#ffffff;fill-opacity:1;stroke:none;stroke-width:0.174705;stroke-dasharray:none;stroke-opacity:1"
       d="m 165.46782,173.68165 c -0.13939,0 -2.05539,1.09551 -2.63085,1.48621 0.0437,-0.01 0.0919,-0.0191 0.14987,-0.0274 0.16071,-0.0229 0.37713,-0.0414 0.63303,-0.0563 0.5118,-0.0298 1.17975,-0.0439 1.84795,-0.0439 0.66821,0 1.33667,0.0141 1.84847,0.0439 0.2559,0.0149 0.4718,0.0334 0.63252,0.0563 0.0582,0.008 0.1065,0.0179 0.15038,0.0279 -0.57486,-0.39041 -2.49193,-1.48673 -2.63137,-1.48673 z m 0,1.56631 c -0.66512,0 -1.33026,0.0145 -1.83555,0.0439 -0.25264,0.0147 -0.4658,0.0338 -0.61598,0.0553 -0.0751,0.0107 -0.13438,0.0218 -0.17208,0.0325 -0.003,9.8e-4 -0.003,0.001 -0.006,0.002 6.7e-4,0.003 -3.1e-4,0.003 5.2e-4,0.007 0.01,0.038 0.0296,0.095 0.0579,0.16536 0.0565,0.14078 0.14635,0.33454 0.25993,0.56069 0.22716,0.4523 0.548,1.03629 0.88056,1.6123 0.33256,0.57601 0.67738,1.14447 0.9555,1.56735 0.13906,0.21144 0.26135,0.38659 0.35502,0.50592 0.0468,0.0597 0.0866,0.10603 0.11472,0.13332 0.002,0.002 0.003,0.002 0.005,0.004 0.002,-0.002 0.002,-0.002 0.005,-0.004 0.0281,-0.0273 0.0689,-0.0737 0.11576,-0.13332 0.0937,-0.11933 0.21596,-0.29448 0.35501,-0.50592 0.27812,-0.42288 0.62346,-0.99134 0.95602,-1.56735 0.33256,-0.57601 0.65185,-1.16 0.87901,-1.6123 0.11359,-0.22615 0.20498,-0.41991 0.26149,-0.56069 0.0282,-0.0704 0.0478,-0.12735 0.0574,-0.16536 8.5e-4,-0.003 3.5e-4,-0.004 0.001,-0.007 -0.003,-9.8e-4 -0.003,-0.001 -0.006,-0.002 -0.0377,-0.0107 -0.097,-0.0218 -0.17208,-0.0325 -0.15018,-0.0215 -0.36335,-0.0406 -0.61599,-0.0553 -0.50528,-0.0294 -1.17094,-0.0439 -1.83606,-0.0439 z m -2.82308,0.21549 c -0.0537,0.65032 -0.0446,2.94002 0.0263,3.06286 0.0715,0.12378 2.07752,1.29183 2.65048,1.55908 -0.001,-10e-4 -0.002,-0.002 -0.003,-0.003 -0.0399,-0.0387 -0.0837,-0.0891 -0.13384,-0.15296 -0.10024,-0.12771 -0.22502,-0.30622 -0.36587,-0.52039 -0.28171,-0.42833 -0.62811,-0.999 -0.96221,-1.57768 -0.33411,-0.57878 -0.65513,-1.16461 -0.88522,-1.62274 -0.11505,-0.22906 -0.20721,-0.42656 -0.26769,-0.57722 -0.0261,-0.065 -0.0452,-0.1192 -0.0589,-0.16795 z m 5.64617,0.002 c -0.0137,0.0484 -0.0321,0.10208 -0.0579,0.1664 -0.0605,0.15066 -0.15315,0.34816 -0.2682,0.57722 -0.2301,0.45813 -0.5506,1.04396 -0.8847,1.62264 -0.3341,0.57868 -0.68103,1.14935 -0.96273,1.57768 -0.14086,0.21417 -0.26511,0.39268 -0.36536,0.52039 -0.0501,0.0639 -0.0944,0.11421 -0.13435,0.15296 -9.2e-4,8.8e-4 -0.002,0.002 -0.003,0.003 0.57447,-0.26826 2.57855,-1.43486 2.64996,-1.55856 0.0709,-0.12273 0.0793,-2.40851 0.0258,-3.06131 z m -2.83394,0.50953 c 10e-4,0.13093 0.0833,0.20135 0.24598,0.21135 l -0.11007,0.14677 -0.002,1.38337 0.19792,0.0863 c 0.0496,-0.0567 0.11088,-0.0834 0.18449,-0.0801 -0.0713,0.0367 -0.16697,0.1447 -0.28784,0.32401 l -0.27802,-0.10491 c -0.0356,0.055 -0.11711,0.0851 -0.24495,0.0909 0.0961,-0.0459 0.16331,-0.1113 0.20206,-0.19637 l 0.001,-1.49861 c -0.0411,-0.007 -0.0726,-0.0255 -0.0951,-0.0563 l -0.19431,0.0703 z m 0.25683,0.27647 v 1.34255 l -0.0651,0.0589 v -1.31 z" />
  </g>
</svg>
