<?xml version="1.0" encoding="UTF-8" standalone="no"?>
<!-- Created with Inkscape (http://www.inkscape.org/) -->

<svg
   width="5.7146382mm"
   height="6.4037757mm"
   viewBox="0 0 5.7146382 6.4037757"
   version="1.1"
   id="svg1"
   xmlns="http://www.w3.org/2000/svg"
   xmlns:svg="http://www.w3.org/2000/svg">
  <defs
     id="defs1">
    <linearGradient
       id="swatch4">
      <stop
         style="stop-color:#000000;stop-opacity:1;"
         offset="0"
         id="stop4" />
    </linearGradient>
  </defs>
  <g
     id="layer3"
     transform="translate(-278.7562,-173.79479)">
    <path
       id="path63-83-69-4"
       style="fill:#ffffff;fill-opacity:1;stroke:none;stroke-width:0.174705;stroke-dasharray:none;stroke-opacity:1"
       d="m 281.61377,173.79481 c -0.13939,0 -2.05539,1.09552 -2.63085,1.48622 0.0437,-0.01 0.0919,-0.0191 0.14986,-0.0274 0.16072,-0.0229 0.37714,-0.0414 0.63304,-0.0563 0.5118,-0.0298 1.17975,-0.0439 1.84795,-0.0439 0.6682,0 1.33665,0.0141 1.84846,0.0439 0.2559,0.0149 0.4718,0.0333 0.63252,0.0563 0.0582,0.008 0.10651,0.0179 0.15038,0.0279 -0.57486,-0.3904 -2.49193,-1.48674 -2.63136,-1.48674 z m 0,1.56632 c -0.66512,0 -1.33026,0.0145 -1.83555,0.0439 -0.25264,0.0147 -0.4658,0.0338 -0.61598,0.0553 -0.0751,0.0107 -0.13439,0.0219 -0.17209,0.0325 -0.003,8.2e-4 -0.003,5.5e-4 -0.006,0.002 6.7e-4,0.003 -3.1e-4,0.003 5.2e-4,0.007 0.01,0.038 0.0296,0.095 0.0579,0.16536 0.0565,0.14078 0.14635,0.33454 0.25993,0.56069 0.22717,0.4523 0.54801,1.0363 0.88057,1.61231 0.33256,0.57601 0.67737,1.14446 0.95549,1.56734 0.13905,0.21144 0.26136,0.38658 0.35502,0.50591 0.0468,0.0597 0.0866,0.10604 0.11472,0.13333 0.002,0.002 0.003,0.002 0.005,0.004 0.002,-0.002 0.002,-0.002 0.005,-0.004 0.0281,-0.0273 0.0689,-0.0737 0.11576,-0.13333 0.0937,-0.11933 0.21595,-0.29447 0.35501,-0.50591 0.27812,-0.42288 0.62346,-0.99133 0.95602,-1.56734 0.33256,-0.57601 0.65185,-1.16001 0.87901,-1.61231 0.11358,-0.22615 0.20498,-0.41991 0.26149,-0.56069 0.0282,-0.0704 0.0478,-0.12735 0.0574,-0.16536 8.6e-4,-0.003 3.7e-4,-0.004 10e-4,-0.007 -0.003,-8.2e-4 -0.003,-5.5e-4 -0.006,-0.002 -0.0377,-0.0107 -0.097,-0.0219 -0.17209,-0.0325 -0.15017,-0.0215 -0.36334,-0.0406 -0.61598,-0.0553 -0.50528,-0.0294 -1.17094,-0.0439 -1.83606,-0.0439 z m -2.82309,0.21549 c -0.0537,0.65032 -0.0446,2.94002 0.0264,3.06286 0.0715,0.12378 2.07751,1.29183 2.65048,1.55908 l -0.003,-0.003 c -0.0399,-0.0387 -0.0837,-0.0891 -0.13384,-0.15297 -0.10024,-0.12771 -0.22502,-0.30621 -0.36587,-0.52038 -0.28171,-0.42833 -0.62812,-0.999 -0.96222,-1.57768 -0.3341,-0.57868 -0.65511,-1.16451 -0.88521,-1.62264 -0.11505,-0.22906 -0.20721,-0.42656 -0.26769,-0.57722 -0.0261,-0.065 -0.0452,-0.1192 -0.0589,-0.16795 z m 5.64565,0.001 c 5e-5,5.4e-4 -4e-5,0.002 0,0.002 10e-5,-3.4e-4 4.2e-4,-6.9e-4 5.2e-4,-0.001 z m 0,0.002 c -0.0137,0.0481 -0.0317,0.1015 -0.0574,0.16536 -0.0605,0.15067 -0.15316,0.34816 -0.2682,0.57723 -0.2301,0.45813 -0.55059,1.04395 -0.8847,1.62264 -0.3341,0.57867 -0.68102,1.14934 -0.96273,1.57768 -0.14085,0.21416 -0.26511,0.39267 -0.36535,0.52038 -0.0501,0.0639 -0.0944,0.11421 -0.13436,0.15296 0.57766,-0.27039 2.57554,-1.43348 2.64686,-1.55701 0.0708,-0.12262 0.0792,-2.4043 0.0258,-3.05924 z m -2.34611,0.36897 c 0.0109,0.0817 0.0553,0.13314 0.13281,0.15399 0.0775,0.0208 0.15506,0.002 0.23254,-0.0574 -0.0984,0.19682 -0.1946,0.29782 -0.28835,0.30283 -0.0937,0.004 -0.1747,-0.0362 -0.24288,-0.12041 l -0.0801,0.0878 v 1.23558 l 0.32298,0.20051 0.0475,-0.0667 v -0.82166 c -0.0566,-0.0117 -0.10052,-0.0491 -0.13229,-0.11162 l -0.22582,0.31936 0.002,-0.11627 0.37878,-0.493 c 0.0178,0.10175 0.0739,0.16312 0.16847,0.18397 0.0945,0.0208 0.17883,0.001 0.25321,-0.0579 -0.0829,0.17013 -0.1566,0.26798 -0.22169,0.293 l -0.002,0.66766 -0.35657,0.47801 -0.4625,-0.31523 c -0.0511,-0.0334 -0.12148,-0.0343 -0.21136,-0.003 0.0876,-0.0717 0.15376,-0.10474 0.19947,-0.0997 v -1.01492 c -0.0442,-0.003 -0.10985,-0.0384 -0.1974,-0.10594 0.0798,0.0284 0.14497,0.0295 0.19534,0.004 z m -1.14205,0.0238 c 0.002,0.13093 0.0833,0.20135 0.24598,0.21136 l -0.11007,0.14676 -10e-4,1.38337 0.1974,0.0863 c 0.0496,-0.0567 0.11088,-0.0834 0.18449,-0.0801 -0.0713,0.0367 -0.16697,0.1447 -0.28784,0.32401 l -0.27802,-0.10491 c -0.0356,0.055 -0.1171,0.0851 -0.24495,0.091 0.0961,-0.0459 0.16332,-0.1113 0.20206,-0.19637 l 10e-4,-1.49861 c -0.0411,-0.007 -0.0726,-0.0255 -0.0951,-0.0563 l -0.19431,0.0703 z m 0.25684,0.27647 v 1.34255 l -0.0651,0.0589 v -1.30999 z m 0.8971,0.58704 0.0651,0.0584 v 0.75447 l -0.0651,0.0589 z" />
  </g>
</svg>
