<?xml version="1.0" encoding="UTF-8" standalone="no"?>
<!-- Created with Inkscape (http://www.inkscape.org/) -->

<svg
   width="7.2042117mm"
   height="6.3612556mm"
   viewBox="0 0 7.2042117 6.3612556"
   version="1.1"
   id="svg1"
   xmlns="http://www.w3.org/2000/svg"
   xmlns:svg="http://www.w3.org/2000/svg">
  <defs
     id="defs1">
    <linearGradient
       id="swatch4">
      <stop
         style="stop-color:#000000;stop-opacity:1;"
         offset="0"
         id="stop4" />
    </linearGradient>
  </defs>
  <g
     id="layer3"
     transform="translate(-232.05106,-128.19683)">
    <path
       id="path34-39-20-7"
       style="fill:#ffffff;fill-opacity:1;stroke:none;stroke-width:0.250658;stroke-dasharray:none;stroke-opacity:1"
       d="m 235.7671,128.19682 2.60708,4.08863 c 0.50568,-0.47548 0.88108,-0.85971 0.88108,-0.93534 0,-0.20955 -2.85253,-2.76496 -3.48816,-3.15329 z m -0.22893,5.1e-4 c -0.63718,0.38995 -3.48712,2.94332 -3.48712,3.15278 0,0.0756 0.37505,0.45951 0.88056,0.93483 z m 0.11472,0.28681 -2.14715,3.36517 -0.0103,0.0103 0.003,0.003 -0.37207,0.58292 -0.0729,-0.0465 c 1.00837,0.93865 2.43675,2.15904 2.59984,2.15904 0.16424,0 1.61163,-1.2375 2.62103,-2.17868 l -0.0971,0.062 z m 0.0718,2.35748 c 0.004,0.0709 0.0584,0.13429 0.16382,0.19016 0.10615,0.0559 0.21813,0.047 0.3359,-0.0264 l -0.12661,0.14883 v 1.16737 l -0.22428,0.1974 v -0.66146 c 0.10073,-0.004 0.1509,-0.0508 0.1509,-0.14004 0,-0.0901 -0.0502,-0.13467 -0.1509,-0.13384 v -0.28525 c -0.12164,-0.0334 -0.22276,-0.10744 -0.30334,-0.2217 v 0.5054 c -0.10072,0.003 -0.15141,0.0489 -0.15141,0.13642 0,0.0867 0.0507,0.13246 0.15141,0.13746 v 0.71211 l 0.18345,0.12505 0.34417,-0.33279 -0.006,0.1173 -0.4377,0.44028 -0.31161,-0.18965 c -0.0356,-0.0167 -0.0868,-0.0176 -0.15348,-0.003 0.0643,-0.055 0.11241,-0.0845 0.14418,-0.0879 V 131.285 c -0.0364,0.0133 -0.0907,-0.0136 -0.16278,-0.0811 0.0643,0.0284 0.11758,0.0295 0.16019,0.004 z m -0.008,0.53898 c 0.008,0 0.0172,0.002 0.0253,0.006 0.0163,0.008 0.0264,0.0211 0.031,0.0377 0.005,0.0158 0.005,0.0319 0,0.0486 -0.005,0.0167 -0.0183,0.0294 -0.0393,0.0377 v 0.18758 h 0.10232 c 0.008,-0.0225 0.0191,-0.0365 0.0346,-0.0424 0.0155,-0.006 0.0308,-0.006 0.0455,0 0.0155,0.005 0.0269,0.0161 0.0346,0.0336 0.008,0.0175 0.008,0.0361 0,0.0553 -0.007,0.0183 -0.0186,0.0301 -0.0357,0.0351 -0.017,0.005 -0.0336,0.003 -0.0491,-0.004 -0.0155,-0.008 -0.0253,-0.0226 -0.03,-0.046 h -0.1018 l 5.2e-4,0.64182 c 0.0209,0.008 0.0339,0.0205 0.0393,0.0372 0.005,0.0167 0.005,0.0334 0,0.0501 -0.005,0.0158 -0.0147,0.0278 -0.031,0.0362 -0.0163,0.008 -0.0333,0.009 -0.0512,0.002 -0.017,-0.008 -0.0279,-0.022 -0.0326,-0.0403 -0.005,-0.0183 -0.003,-0.0355 0.004,-0.0522 0.007,-0.0167 0.0212,-0.0276 0.0429,-0.0326 l -5.2e-4,-0.64182 h -0.1111 c -0.005,0.0233 -0.015,0.0385 -0.0305,0.046 -0.0155,0.008 -0.0315,0.009 -0.0486,0.004 -0.017,-0.005 -0.0295,-0.0168 -0.0372,-0.0351 -0.007,-0.0192 -0.007,-0.0378 0.001,-0.0553 0.008,-0.0175 0.0189,-0.0286 0.0336,-0.0336 0.0155,-0.006 0.031,-0.006 0.0465,0 0.0155,0.006 0.0274,0.0199 0.0351,0.0424 h 0.11058 V 131.511 c -0.0217,-0.005 -0.0364,-0.0159 -0.0434,-0.0326 -0.007,-0.0167 -0.008,-0.0339 -0.003,-0.0522 0.005,-0.0183 0.0155,-0.0318 0.0326,-0.0393 0.009,-0.004 0.0173,-0.006 0.0258,-0.006 z" />
  </g>
</svg>
