<?xml version="1.0" encoding="UTF-8" standalone="no"?>
<!-- Created with Inkscape (http://www.inkscape.org/) -->

<svg
   width="5.6705356mm"
   height="5.900867mm"
   viewBox="0 0 5.6705356 5.900867"
   version="1.1"
   id="svg1"
   xmlns="http://www.w3.org/2000/svg"
   xmlns:svg="http://www.w3.org/2000/svg">
  <defs
     id="defs1">
    <linearGradient
       id="swatch4">
      <stop
         style="stop-color:#000000;stop-opacity:1;"
         offset="0"
         id="stop4" />
    </linearGradient>
  </defs>
  <g
     id="layer3"
     transform="translate(-170.40133,-195.71183)">
    <path
       id="path237-317-0-3"
       style="fill:#ffffff;fill-opacity:1;stroke:none;stroke-width:0.200527;stroke-dasharray:none;stroke-opacity:1"
       d="m 173.23638,195.71182 c -0.12765,0 -1.63099,0.48825 -1.73426,0.56328 -0.10327,0.075 -1.03232,1.35396 -1.07177,1.47536 -0.0183,0.0563 -0.0276,0.4279 -0.0289,0.82062 0.008,-0.005 0.0144,-0.009 0.0227,-0.0139 0.0745,-0.0438 0.17703,-0.097 0.29973,-0.1571 0.24539,-0.12015 0.572,-0.26755 0.90795,-0.41134 0.33595,-0.14379 0.68049,-0.28357 0.96118,-0.38861 0.14035,-0.0525 0.26407,-0.0963 0.36639,-0.12816 0.0512,-0.0159 0.0965,-0.0286 0.13953,-0.0388 0.043,-0.0101 0.0759,-0.0207 0.15141,-0.0207 0.0755,0 0.10838,0.0105 0.15141,0.0207 0.043,0.0101 0.0884,0.0228 0.13953,0.0388 0.10232,0.0319 0.22603,0.0756 0.36638,0.12816 0.2807,0.10504 0.62575,0.24482 0.9617,0.38861 0.33595,0.14379 0.66256,0.29119 0.90795,0.41134 0.12024,0.0589 0.22047,0.11072 0.29456,0.154 -0.002,-0.38625 -0.0109,-0.74812 -0.0289,-0.80357 -0.0394,-0.1214 -0.96901,-1.40033 -1.07228,-1.47536 -0.10328,-0.075 -1.60661,-0.56328 -1.73427,-0.56328 z m 0.0139,1.83555 c -0.002,3.3e-4 -0.002,1.2e-4 -0.004,5.2e-4 -0.0247,0.006 -0.0622,0.016 -0.10697,0.03 -0.038,0.0119 -0.0836,0.0274 -0.13125,0.0439 0.0434,0.10138 0.11316,0.16765 0.2098,0.19844 0.0914,0.0283 0.21777,-0.026 0.37827,-0.16123 -0.0893,-0.0323 -0.17191,-0.0612 -0.23564,-0.0811 -0.0447,-0.0139 -0.0823,-0.0242 -0.10697,-0.03 -0.002,-4e-4 -0.002,-1.9e-4 -0.004,-5.2e-4 z m -0.24287,0.0749 c -0.0643,0.0223 -0.13447,0.0473 -0.21239,0.0765 -0.2726,0.102 -0.61453,0.24073 -0.94672,0.38292 -0.33218,0.14218 -0.65569,0.28795 -0.894,0.40463 -0.11915,0.0583 -0.21701,0.10948 -0.28215,0.14779 -0.0326,0.0191 -0.0567,0.0354 -0.0703,0.046 -9.9e-4,7.7e-4 -6.9e-4,8.7e-4 -0.002,0.002 8.1e-4,7.4e-4 5.1e-4,8.5e-4 0.002,0.002 0.0136,0.0106 0.0377,0.0268 0.0703,0.046 0.0652,0.0383 0.163,0.0894 0.28215,0.1478 0.23831,0.11667 0.56182,0.26244 0.894,0.40462 0.28839,0.12345 0.57653,0.23995 0.82786,0.33642 0.0765,-0.0169 0.12795,-0.0539 0.154,-0.11111 v -0.38447 l 0.59479,-0.53382 v -0.60564 c 0.0698,-0.0469 0.14025,-0.15073 0.21136,-0.31058 -0.009,-0.003 -0.0175,-0.007 -0.0264,-0.01 -0.11796,0.23149 -0.23263,0.36168 -0.34417,0.38809 -0.11544,0.0275 -0.22871,-0.0307 -0.33951,-0.17415 l -0.13694,0.0713 z m 0.64285,0.0563 v 0.86868 l -0.58084,0.5178 v 0.41031 l 0.5333,-0.002 c 0.0728,-0.17347 0.18119,-0.28757 0.32453,-0.34262 -0.14556,0.0895 -0.24923,0.27828 -0.31058,0.56638 0.03,-0.0109 0.0574,-0.0201 0.0894,-0.032 0.27259,-0.10201 0.61401,-0.24074 0.9462,-0.38293 0.33218,-0.14218 0.65621,-0.28795 0.89452,-0.40462 0.11915,-0.0583 0.217,-0.1095 0.28215,-0.1478 0.0326,-0.0192 0.0567,-0.0354 0.0703,-0.046 9.9e-4,-7.7e-4 7.9e-4,-8.8e-4 0.002,-0.002 -8.1e-4,-7.4e-4 -6.2e-4,-8.4e-4 -0.002,-0.002 -0.0136,-0.0106 -0.0377,-0.0268 -0.0703,-0.046 -0.0652,-0.0383 -0.163,-0.0895 -0.28215,-0.14779 -0.23831,-0.11668 -0.56234,-0.26245 -0.89452,-0.40463 -0.33219,-0.14219 -0.67361,-0.28092 -0.9462,-0.38292 -0.02,-0.007 -0.0366,-0.0131 -0.0558,-0.0202 z m -0.25218,0.32194 -0.001,0.56379 c -0.11622,-0.0592 -0.23001,-0.0624 -0.34158,-0.01 0.0387,-0.0934 0.1308,-0.131 0.27647,-0.11265 v -0.14108 c -0.0891,-0.0409 -0.17367,-0.0296 -0.25425,0.0346 0.0178,-0.0984 0.10238,-0.14617 0.25425,-0.14367 v -0.14494 z m -2.99672,0.79168 c 0.002,0.37797 0.0113,0.72746 0.0289,0.78187 0.0395,0.12141 0.9685,1.40033 1.07177,1.47536 0.10327,0.075 1.60661,0.56327 1.73426,0.56327 0.12766,0 1.63099,-0.48824 1.73427,-0.56327 0.10327,-0.075 1.03284,-1.35395 1.07228,-1.47536 0.0174,-0.0536 0.0264,-0.39354 0.0284,-0.76481 -0.0741,0.0433 -0.17398,0.0952 -0.29404,0.15399 -0.24539,0.12014 -0.572,0.26756 -0.90795,0.41135 -0.33595,0.1438 -0.681,0.28357 -0.9617,0.3886 -0.14035,0.0525 -0.26406,0.0963 -0.36639,0.12816 -0.0512,0.0159 -0.0965,0.0291 -0.13952,0.0393 -0.043,0.0101 -0.0759,0.0202 -0.15142,0.0202 -0.0755,0 -0.10838,-0.01 -0.15141,-0.0202 -0.043,-0.0101 -0.0884,-0.0233 -0.13952,-0.0393 -0.10233,-0.0319 -0.22604,-0.0756 -0.36639,-0.12816 -0.2807,-0.10503 -0.62523,-0.2448 -0.96118,-0.3886 -0.33595,-0.14379 -0.66256,-0.29121 -0.90796,-0.41135 -0.12269,-0.0601 -0.22524,-0.11329 -0.29972,-0.15709 -0.008,-0.005 -0.015,-0.009 -0.0227,-0.014 z m 2.48977,0.90796 c 0.0947,0.0345 0.18168,0.0654 0.24857,0.0863 0.0447,0.0139 0.0823,0.0242 0.10697,0.03 0.002,4e-4 0.002,1.9e-4 0.004,5.2e-4 0.002,-3.3e-4 0.002,-1.2e-4 0.004,-5.2e-4 0.0247,-0.006 0.0622,-0.016 0.10697,-0.03 0.0653,-0.0204 0.15028,-0.0503 0.24236,-0.0837 z" />
  </g>
</svg>
