<?xml version="1.0" encoding="UTF-8" standalone="no"?>
<!-- Created with Inkscape (http://www.inkscape.org/) -->

<svg
   width="6.1489787mm"
   height="6.1491237mm"
   viewBox="0 0 6.1489787 6.1491237"
   version="1.1"
   id="svg1"
   xmlns="http://www.w3.org/2000/svg"
   xmlns:svg="http://www.w3.org/2000/svg">
  <defs
     id="defs1">
    <linearGradient
       id="swatch4">
      <stop
         style="stop-color:#000000;stop-opacity:1;"
         offset="0"
         id="stop4" />
    </linearGradient>
  </defs>
  <g
     id="layer3"
     transform="translate(-240.04783,-166.29191)">
    <path
       id="path225-00-6-7"
       style="fill:#ffffff;fill-opacity:1;stroke:none;stroke-width:0.200527;stroke-dasharray:none;stroke-opacity:1"
       d="m 241.84873,166.29191 -0.015,0.015 0.0367,-0.015 z m 0.10801,0 0.31677,0.7798 1.69706,-0.001 0.31057,-0.77877 z m 2.43447,0 0.008,0.003 -0.003,-0.003 z m 0.0765,0.0718 -0.31264,0.7891 1.18753,1.18804 0.77773,-0.32452 z m -2.69647,0.006 -1.64848,1.64848 0.78031,0.32091 1.18598,-1.18494 z m 0.48317,0.90176 -1.2268,1.22731 v 1.7353 l 1.2268,1.22783 1.7353,-10e-4 1.2268,-1.2268 5.1e-4,-1.7353 -1.22731,-1.2268 z m -2.19108,0.80615 -0.0155,0.0155 v 0.0222 z m 6.13348,0.12557 -0.77928,0.32453 v 1.67277 l 0.77928,0.32866 z m -6.14898,0.001 v 2.32699 l 0.77928,-0.33487 v -1.67069 z m 2.57917,0.12609 c 0.002,0.13093 0.0833,0.20135 0.24598,0.21135 l -0.11007,0.14677 -0.001,1.38337 0.1974,0.0863 c 0.0496,-0.0567 0.1114,-0.0834 0.185,-0.0801 -0.0713,0.0367 -0.16748,0.1447 -0.28835,0.32401 l -0.27802,-0.10491 c -0.0356,0.055 -0.1171,0.0851 -0.24495,0.0909 0.0961,-0.0459 0.16332,-0.1113 0.20206,-0.19637 l 10e-4,-1.49861 c -0.0411,-0.007 -0.0726,-0.0255 -0.0951,-0.0563 l -0.1943,0.0703 z m 0.85421,0 c 0.001,0.13093 0.0838,0.20135 0.2465,0.21135 l -0.11059,0.14677 -0.001,1.38337 0.1974,0.0863 c 0.0496,-0.0567 0.1114,-0.0834 0.18501,-0.0801 -0.0713,0.0367 -0.16749,0.1447 -0.28836,0.32401 l -0.27802,-0.10491 c -0.0356,0.055 -0.1171,0.0851 -0.24494,0.0909 0.0961,-0.0459 0.16331,-0.1113 0.20205,-0.19637 l 0.001,-1.49861 c -0.0411,-0.007 -0.0726,-0.0255 -0.0951,-0.0563 l -0.1943,0.0703 z m -0.59738,0.27647 v 1.34255 l -0.0651,0.0589 v -1.31 z m 0.85421,0 v 1.34255 l -0.0651,0.0589 v -1.31 z m -2.84272,1.77922 -0.76998,0.33176 1.65003,1.65003 0.31833,-0.78393 z m 4.45038,0.003 -1.20355,1.20354 0.33022,0.77205 1.64847,-1.64848 z m -5.29787,0.23254 v 0.0186 l 0.0139,0.0139 z m 2.23087,1.03973 -0.31678,0.7798 h 2.32648 l -0.33642,-0.77928 z m -0.44235,0.7674 0.0124,0.0124 h 0.0176 z" />
  </g>
</svg>
