<?xml version="1.0" encoding="UTF-8" standalone="no"?>
<!-- Created with Inkscape (http://www.inkscape.org/) -->

<svg
   width="6.7472949mm"
   height="6.0509062mm"
   viewBox="0 0 6.7472949 6.0509062"
   version="1.1"
   id="svg1"
   xmlns="http://www.w3.org/2000/svg"
   xmlns:svg="http://www.w3.org/2000/svg">
  <defs
     id="defs1">
    <linearGradient
       id="swatch4">
      <stop
         style="stop-color:#000000;stop-opacity:1;"
         offset="0"
         id="stop4" />
    </linearGradient>
  </defs>
  <g
     id="layer3"
     transform="translate(-185.41061,-106.05113)">
    <path
       id="path183-2"
       style="display:inline;fill:#ffffff;fill-opacity:1;stroke:none;stroke-width:0.200527;stroke-dasharray:none;stroke-opacity:1"
       onmouseover=""
       d="m 188.78427,106.05114 c -0.33672,0 -3.5356,5.5406 -3.36724,5.8322 0.16836,0.29161 6.56611,0.29161 6.73447,0 0.16836,-0.2916 -3.03051,-5.8322 -3.36723,-5.8322 z m 0.0574,2.55437 c 0.0201,0.10174 0.0822,0.16312 0.18603,0.18397 0.1046,0.0208 0.19718,0.002 0.27854,-0.0574 -0.0914,0.17013 -0.20056,0.25751 -0.32763,0.26251 -0.12629,0.005 -0.22818,-0.0278 -0.30644,-0.0987 l -0.13746,0.0625 z m 0.23564,0.40049 v 1.06454 l 0.22118,0.001 v 0.0811 l -0.22118,-0.003 v 0.16019 l 0.092,0.0713 c 0.0349,-0.055 0.0943,-0.0816 0.1788,-0.0791 -0.0581,0.0292 -0.14837,0.156 -0.27079,0.38034 l -0.19637,-0.14624 c -0.0744,0.0742 -0.17265,0.12157 -0.29507,0.14159 0.1015,-0.0642 0.17753,-0.1455 0.22789,-0.24391 v -0.26297 h -0.55655 v -0.0951 l 0.55655,0.002 v -1.06454 c 0.0883,0.0317 0.176,0.0289 0.26355,-0.008 z m -0.27853,0.0124 c -0.10693,0.04 -0.21089,0.34598 -0.31161,0.91726 -0.14334,0.12926 -0.29618,0.16391 -0.45889,0.10387 0.11855,0.0275 0.24811,-0.13689 0.38913,-0.493 0.14101,-0.35611 0.26824,-0.5323 0.38137,-0.52813 z" />
  </g>
</svg>
