<?xml version="1.0" encoding="UTF-8" standalone="no"?>
<!-- Created with Inkscape (http://www.inkscape.org/) -->

<svg
   width="7.2042117mm"
   height="6.3608594mm"
   viewBox="0 0 7.2042117 6.3608594"
   version="1.1"
   id="svg1"
   xmlns="http://www.w3.org/2000/svg"
   xmlns:svg="http://www.w3.org/2000/svg">
  <defs
     id="defs1">
    <linearGradient
       id="swatch4">
      <stop
         style="stop-color:#000000;stop-opacity:1;"
         offset="0"
         id="stop4" />
    </linearGradient>
  </defs>
  <g
     id="layer3"
     transform="translate(-169.79172,-135.35983)">
    <path
       id="path280-3-7-2-8"
       style="fill:#ffffff;fill-opacity:1;stroke:none;stroke-width:0.250658;stroke-dasharray:none;stroke-opacity:1"
       d="m 173.50777,135.35983 2.60708,4.08864 c 0.50569,-0.47548 0.88108,-0.85971 0.88108,-0.93534 0,-0.20955 -2.85254,-2.76497 -3.48816,-3.1533 z m -0.22892,5.2e-4 c -0.63719,0.38995 -3.48713,2.94332 -3.48713,3.15278 0,0.0756 0.37506,0.4595 0.88057,0.93482 z m 0.11472,0.2868 -2.52698,3.961 -0.0729,-0.0465 c 1.00836,0.93865 2.43675,2.15904 2.59984,2.15904 0.16424,0 1.61163,-1.23749 2.62103,-2.17867 l -0.0977,0.062 z m -0.71262,2.30581 c 0.0434,0.10174 0.11347,0.16809 0.21033,0.19895 0.0969,0.03 0.23236,-0.0321 0.40669,-0.18552 -0.1232,0.2502 -0.24293,0.38951 -0.35915,0.41703 -0.11545,0.0275 -0.22872,-0.0307 -0.33952,-0.17415 l -0.13694,0.0713 z m 0.64234,0.0202 v 0.90537 l -0.58084,0.5178 v 0.41031 l 0.5333,-10e-4 c 0.0728,-0.17347 0.18119,-0.28758 0.32453,-0.34262 -0.14644,0.0901 -0.2504,0.28048 -0.31161,0.57154 l -0.74259,-0.003 c -0.13327,0.007 -0.24214,-0.0163 -0.3266,-0.0713 0.15032,0.004 0.24445,-0.0364 0.28319,-0.12144 v -0.38395 l 0.59531,-0.53434 v -0.60513 c 0.0744,-0.05 0.14938,-0.16414 0.22531,-0.34261 z m 0.74517,0.002 c 0.004,0.0709 0.0584,0.13429 0.16382,0.19017 0.10615,0.0559 0.21812,0.047 0.3359,-0.0264 l -0.12661,0.14935 v 1.16685 l -0.22428,0.19792 v -0.66198 c 0.10073,-0.004 0.1509,-0.0508 0.1509,-0.14004 0,-0.0901 -0.0502,-0.13467 -0.1509,-0.13384 v -0.28525 c -0.12164,-0.0334 -0.22276,-0.10744 -0.30334,-0.2217 v 0.5054 c -0.10072,0.003 -0.15141,0.0489 -0.15141,0.13643 0,0.0867 0.0507,0.13297 0.15141,0.13797 v 0.71159 l 0.18345,0.12505 0.34417,-0.33279 -0.006,0.11782 -0.43822,0.44028 -0.31161,-0.19017 c -0.0356,-0.0167 -0.0868,-0.0176 -0.15348,-0.003 0.0643,-0.055 0.11241,-0.084 0.14418,-0.0873 v -1.35238 c -0.0364,0.0134 -0.0907,-0.0141 -0.16278,-0.0816 0.0643,0.0284 0.11758,0.03 0.1602,0.004 z m -0.99735,0.35656 -0.001,0.56431 c -0.11622,-0.0592 -0.23001,-0.0624 -0.34158,-0.01 0.0387,-0.0934 0.1308,-0.131 0.27647,-0.11265 v -0.1416 c -0.0891,-0.0409 -0.17419,-0.0291 -0.25477,0.0351 0.0178,-0.0984 0.1029,-0.14616 0.25477,-0.14366 v -0.14521 z m 0.9896,0.18294 c 0.008,0 0.0172,0.002 0.0253,0.006 0.0163,0.008 0.0264,0.0205 0.031,0.0372 0.005,0.0158 0.005,0.0324 0,0.0491 -0.005,0.0167 -0.0183,0.0289 -0.0393,0.0372 v 0.1881 h 0.10232 c 0.008,-0.0225 0.0191,-0.0371 0.0346,-0.0429 0.0155,-0.006 0.0308,-0.006 0.0455,0 0.0155,0.005 0.0269,0.0166 0.0346,0.0341 0.008,0.0175 0.008,0.0356 0,0.0548 -0.007,0.0183 -0.0186,0.0301 -0.0357,0.0351 -0.017,0.005 -0.0336,0.004 -0.0491,-0.004 -0.0155,-0.007 -0.0253,-0.0231 -0.03,-0.0465 h -0.1018 l 5.2e-4,0.64183 c 0.0209,0.008 0.0344,0.021 0.0398,0.0377 0.005,0.0167 0.005,0.0329 0,0.0496 -0.005,0.0158 -0.0153,0.0284 -0.0315,0.0367 -0.0163,0.008 -0.0333,0.009 -0.0512,0.001 -0.017,-0.008 -0.0279,-0.0214 -0.0326,-0.0398 -0.005,-0.0183 -0.003,-0.036 0.004,-0.0527 0.007,-0.0167 0.0212,-0.0275 0.0429,-0.0325 l -5.2e-4,-0.64183 h -0.11108 c -0.005,0.0234 -0.0145,0.039 -0.03,0.0465 -0.0155,0.008 -0.032,0.009 -0.0491,0.004 -0.0171,-0.005 -0.0295,-0.0168 -0.0372,-0.0351 -0.007,-0.0192 -0.007,-0.0373 0.001,-0.0548 0.008,-0.0175 0.0194,-0.0291 0.0341,-0.0341 0.0155,-0.006 0.031,-0.006 0.0465,0 0.0155,0.006 0.0269,0.0204 0.0346,0.0429 h 0.11059 v -0.1881 c -0.0217,-0.005 -0.0364,-0.0154 -0.0434,-0.032 -0.007,-0.0167 -0.008,-0.0344 -0.003,-0.0527 0.005,-0.0183 0.0155,-0.0313 0.0326,-0.0388 0.009,-0.004 0.0173,-0.006 0.0258,-0.006 z" />
  </g>
</svg>
