<?xml version="1.0" encoding="UTF-8" standalone="no"?>
<!-- Created with Inkscape (http://www.inkscape.org/) -->

<svg
   width="6.9887209mm"
   height="6.2367477mm"
   viewBox="0 0 6.9887209 6.2367477"
   version="1.1"
   id="svg1"
   xmlns="http://www.w3.org/2000/svg"
   xmlns:svg="http://www.w3.org/2000/svg">
  <defs
     id="defs1">
    <linearGradient
       id="swatch4">
      <stop
         style="stop-color:#000000;stop-opacity:1;"
         offset="0"
         id="stop4" />
    </linearGradient>
  </defs>
  <g
     id="layer3"
     transform="translate(-231.74392,-150.56311)">
    <path
       id="path94-48-3-6"
       style="fill:#ffffff;fill-opacity:1;stroke:none;stroke-width:0.192506;stroke-dasharray:none;stroke-opacity:1"
       d="m 235.23725,150.56316 c -0.70357,0 -1.40045,0.0158 -1.6583,0.0465 l 0.55552,1.00872 c 0.024,-0.004 0.0526,-0.006 0.0863,-0.009 0.0687,-0.006 0.15877,-0.0105 0.26407,-0.014 0.21061,-0.007 0.48121,-0.0109 0.75241,-0.0109 0.2712,0 0.54232,0.004 0.75293,0.0109 0.1053,0.004 0.19541,0.008 0.26406,0.014 0.0343,0.003 0.0636,0.005 0.0879,0.009 l 0.57568,-1.00666 c -0.24076,-0.0323 -0.95883,-0.0486 -1.68052,-0.0486 z m -1.82625,0.13901 c -0.30393,0.40167 -1.4588,2.4017 -1.66398,2.88044 l 1.16169,0.002 c 0.008,-0.0183 0.0151,-0.0363 0.0258,-0.0589 0.0296,-0.0622 0.0703,-0.14215 0.11989,-0.23513 0.0991,-0.18595 0.23182,-0.42246 0.36742,-0.65732 0.1356,-0.23487 0.27455,-0.46765 0.38602,-0.64648 0.0557,-0.0894 0.10405,-0.16499 0.14314,-0.22169 0.009,-0.0132 0.0161,-0.0219 0.0243,-0.0331 z m 3.66593,0.0176 -0.57722,1.01234 c 0.008,0.0112 0.0152,0.0204 0.0243,0.0336 0.0391,0.0567 0.0874,0.13228 0.14314,0.22169 0.11147,0.17884 0.25042,0.4116 0.38602,0.64647 0.1356,0.23486 0.26829,0.47138 0.36742,0.65733 0.0496,0.093 0.0903,0.17291 0.11989,0.23512 0.0106,0.0224 0.0182,0.0402 0.0258,0.0584 l 1.1591,-0.007 c -0.20774,-0.48052 -1.32759,-2.4211 -1.64848,-2.8577 z m -1.83968,1.05781 c -0.26952,0 -0.53904,0.003 -0.74621,0.0109 -0.10358,0.004 -0.19137,0.008 -0.25476,0.0134 -0.0317,0.002 -0.0576,0.005 -0.0744,0.008 -0.002,3.4e-4 -0.003,0.001 -0.005,0.002 -0.001,0.001 -0.002,0.002 -0.003,0.003 -0.0106,0.0133 -0.0259,0.0343 -0.0439,0.0605 -0.0361,0.0524 -0.0842,0.12651 -0.13901,0.21446 -0.10965,0.17591 -0.24713,0.40738 -0.38189,0.64079 -0.13476,0.23341 -0.2668,0.46872 -0.36432,0.65164 -0.0488,0.0915 -0.089,0.17044 -0.11627,0.22789 -0.0137,0.0287 -0.0243,0.0524 -0.0305,0.0682 -7.5e-4,0.002 -5.3e-4,0.003 -0.001,0.005 5.4e-4,0.002 3.1e-4,0.003 0.001,0.005 0.006,0.0158 0.0168,0.0395 0.0305,0.0682 0.0273,0.0574 0.0675,0.13592 0.11627,0.22738 0.0975,0.18291 0.22956,0.41823 0.36432,0.65164 0.13476,0.23342 0.27224,0.46539 0.38189,0.6413 0.0548,0.088 0.1029,0.1621 0.13901,0.21446 0.0181,0.0262 0.0333,0.0468 0.0439,0.06 0.001,0.002 0.002,0.002 0.004,0.004 0.002,3.4e-4 0.002,7.2e-4 0.004,0.001 0.0168,0.002 0.0427,0.005 0.0744,0.008 0.0634,0.005 0.15118,0.009 0.25476,0.0129 0.20717,0.007 0.47669,0.0103 0.74621,0.0103 0.26952,0 0.53956,-0.003 0.74672,-0.0103 0.10359,-0.003 0.19138,-0.008 0.25477,-0.0129 0.0317,-0.002 0.0576,-0.005 0.0744,-0.008 0.002,-2.7e-4 0.002,-7.2e-4 0.004,-0.001 0.002,-0.002 0.003,-0.002 0.004,-0.004 0.0106,-0.0133 0.0259,-0.0337 0.0439,-0.06 0.0361,-0.0524 0.0842,-0.1265 0.13901,-0.21446 0.10965,-0.17591 0.24713,-0.40788 0.38189,-0.6413 0.13476,-0.23341 0.2668,-0.46873 0.36432,-0.65164 0.0488,-0.0915 0.089,-0.16993 0.11627,-0.22738 0.0136,-0.0287 0.0243,-0.0524 0.0305,-0.0682 7.5e-4,-0.002 5.1e-4,-0.003 0.001,-0.005 -5.5e-4,-0.002 -3.2e-4,-0.003 -0.001,-0.005 -0.006,-0.0158 -0.0168,-0.0395 -0.0305,-0.0682 -0.0273,-0.0574 -0.0675,-0.13643 -0.11627,-0.22789 -0.0975,-0.18292 -0.22956,-0.41823 -0.36432,-0.65164 -0.13476,-0.23341 -0.27224,-0.46488 -0.38189,-0.64079 -0.0548,-0.0879 -0.10291,-0.1621 -0.13901,-0.21446 -0.018,-0.0262 -0.0333,-0.0472 -0.0439,-0.0605 -0.001,-10e-4 -0.002,-0.002 -0.003,-0.003 -0.002,-6.9e-4 -0.003,-0.001 -0.005,-0.002 -0.0168,-0.002 -0.0427,-0.005 -0.0744,-0.008 -0.0634,-0.005 -0.15118,-0.01 -0.25477,-0.0134 -0.20716,-0.007 -0.4772,-0.0109 -0.74672,-0.0109 z m -0.5948,0.86455 c 0.001,0.13094 0.0838,0.20135 0.2465,0.21136 l -0.11059,0.14624 -0.001,1.38338 0.19792,0.0863 c 0.0496,-0.0567 0.11088,-0.0829 0.18449,-0.0796 -0.0713,0.0367 -0.16748,0.1447 -0.28836,0.32401 l -0.2775,-0.10542 c -0.0356,0.055 -0.11762,0.0856 -0.24546,0.0915 0.0961,-0.0459 0.16383,-0.11131 0.20257,-0.19637 l 0.001,-1.49862 c -0.0411,-0.007 -0.0731,-0.0255 -0.0956,-0.0563 l -0.19379,0.0698 z m 1.07177,0.003 c 0.004,0.0709 0.0584,0.13378 0.16382,0.18966 0.10615,0.0559 0.21812,0.0476 0.33589,-0.0258 l -0.1266,0.14883 v 1.16685 l -0.22428,0.19743 v -0.66197 c 0.10073,-0.004 0.1509,-0.0508 0.1509,-0.14005 0,-0.0901 -0.0502,-0.13467 -0.1509,-0.13384 v -0.28525 c -0.12164,-0.0334 -0.22276,-0.10692 -0.30334,-0.22118 v 0.5054 c -0.10072,0.003 -0.15141,0.0488 -0.15141,0.13642 0,0.0867 0.0507,0.13246 0.15141,0.13746 v 0.71159 l 0.18345,0.12505 0.34417,-0.33279 -0.006,0.11782 -0.43822,0.44028 -0.31161,-0.19017 c -0.0356,-0.0167 -0.0868,-0.0176 -0.15348,-0.003 0.0643,-0.055 0.11241,-0.084 0.14418,-0.0873 v -1.35238 c -0.0364,0.0134 -0.0907,-0.0136 -0.16278,-0.0811 0.0643,0.0284 0.11758,0.0295 0.1602,0.004 z m -0.81493,0.27389 v 1.34204 l -0.0651,0.0589 v -1.31 z m 0.80718,0.2651 c 0.008,0 0.0172,0.002 0.0253,0.006 0.0163,0.008 0.0264,0.021 0.031,0.0377 0.005,0.0159 0.005,0.0319 0,0.0486 -0.005,0.0167 -0.0183,0.0294 -0.0393,0.0377 v 0.18759 h 0.10232 c 0.008,-0.0225 0.0191,-0.037 0.0346,-0.0429 0.0155,-0.006 0.0308,-0.006 0.0455,0 0.0155,0.005 0.0269,0.0166 0.0346,0.0341 0.008,0.0175 0.008,0.0356 0,0.0548 -0.007,0.0183 -0.0186,0.0301 -0.0357,0.0351 -0.0171,0.005 -0.0336,0.004 -0.0491,-0.004 -0.0155,-0.007 -0.0253,-0.0232 -0.03,-0.0465 h -0.1018 l 5.2e-4,0.64182 c 0.0209,0.008 0.0344,0.021 0.0398,0.0377 0.005,0.0167 0.005,0.0334 0,0.0501 -0.005,0.0158 -0.0152,0.0278 -0.0315,0.0362 -0.0163,0.008 -0.0333,0.009 -0.0512,0.001 -0.0171,-0.008 -0.0279,-0.0214 -0.0326,-0.0398 -0.005,-0.0183 -0.003,-0.036 0.004,-0.0527 0.007,-0.0167 0.0212,-0.0276 0.0429,-0.0326 l -5.2e-4,-0.64182 h -0.1111 c -0.005,0.0233 -0.0145,0.039 -0.03,0.0465 -0.0155,0.008 -0.032,0.009 -0.0491,0.004 -0.0171,-0.005 -0.0295,-0.0168 -0.0372,-0.0351 -0.007,-0.0192 -0.007,-0.0373 10e-4,-0.0548 0.008,-0.0175 0.0194,-0.0291 0.0341,-0.0341 0.0155,-0.006 0.031,-0.006 0.0465,0 0.0155,0.006 0.0269,0.0204 0.0346,0.0429 h 0.11059 v -0.18759 c -0.0217,-0.005 -0.0364,-0.0159 -0.0434,-0.0325 -0.007,-0.0167 -0.008,-0.0344 -0.003,-0.0527 0.005,-0.0183 0.0155,-0.0312 0.0326,-0.0388 0.009,-0.004 0.0173,-0.006 0.0258,-0.006 z m 3.02617,0.58653 -1.1653,0.006 c -0.008,0.0188 -0.0156,0.0378 -0.0269,0.0615 -0.0296,0.0622 -0.0703,0.14215 -0.11989,0.23513 -0.0991,0.18595 -0.23182,0.42245 -0.36742,0.65732 -0.1356,0.23487 -0.27455,0.46816 -0.38602,0.64699 -0.0557,0.0894 -0.10404,0.165 -0.14314,0.2217 -0.0145,0.0209 -0.0267,0.0364 -0.0388,0.0522 l 0.57826,1.01131 c 0.30494,-0.4024 1.47621,-2.43135 1.66914,-2.89182 z m -6.98872,0.004 c 0.19814,0.4686 1.36834,2.49456 1.66967,2.89026 l 0.58291,-1.00407 c -0.0138,-0.0177 -0.0284,-0.0372 -0.0455,-0.062 -0.0391,-0.0567 -0.0874,-0.13228 -0.14315,-0.22169 -0.11147,-0.17883 -0.25042,-0.41212 -0.38602,-0.64699 -0.1356,-0.23487 -0.26828,-0.47137 -0.36742,-0.65733 -0.0496,-0.093 -0.0903,-0.17291 -0.11989,-0.23512 -0.0112,-0.0235 -0.019,-0.0423 -0.0269,-0.061 z m 4.57699,1.97249 c -0.0203,0.002 -0.0406,0.005 -0.0667,0.007 -0.0686,0.005 -0.15876,0.01 -0.26406,0.0134 -0.21061,0.007 -0.48173,0.0108 -0.75293,0.0108 -0.2712,0 -0.5418,-0.004 -0.75241,-0.0108 -0.1053,-0.004 -0.19541,-0.008 -0.26406,-0.0134 -0.0208,-0.002 -0.0361,-0.004 -0.0532,-0.006 l -0.58188,1.00666 c 0.52833,0.0605 2.79548,0.06 3.30988,-10e-4 z m 0.68574,0.9803 -0.017,0.01 c 0.002,-0.001 0.009,-0.002 0.0103,-0.003 0.002,-8.7e-4 0.005,-0.005 0.007,-0.007 z" />
  </g>
</svg>
