<?xml version="1.0" encoding="UTF-8" standalone="no"?>
<!-- Created with Inkscape (http://www.inkscape.org/) -->

<svg
   width="5.6705198mm"
   height="5.9009318mm"
   viewBox="0 0 5.6705198 5.9009318"
   version="1.1"
   id="svg1"
   xmlns="http://www.w3.org/2000/svg"
   xmlns:svg="http://www.w3.org/2000/svg">
  <defs
     id="defs1">
    <linearGradient
       id="swatch4">
      <stop
         style="stop-color:#000000;stop-opacity:1;"
         offset="0"
         id="stop4" />
    </linearGradient>
  </defs>
  <g
     id="layer3"
     transform="translate(-193.6113,-195.74129)">
    <path
       id="path237-317-04-70-5"
       style="fill:#ffffff;fill-opacity:1;stroke:none;stroke-width:0.200527;stroke-dasharray:none;stroke-opacity:1"
       d="m 196.44634,195.74128 c -0.12765,0 -1.63099,0.48824 -1.73427,0.56327 -0.10327,0.075 -1.03232,1.35396 -1.07176,1.47536 -0.0183,0.0563 -0.0276,0.42791 -0.0289,0.82063 0.008,-0.005 0.0144,-0.009 0.0227,-0.0134 0.0745,-0.0438 0.17702,-0.097 0.29972,-0.1571 0.24539,-0.12015 0.57201,-0.26755 0.90795,-0.41134 0.33595,-0.14379 0.68049,-0.28357 0.96119,-0.38861 0.14034,-0.0525 0.26406,-0.0963 0.36638,-0.12816 0.0512,-0.0159 0.0965,-0.0291 0.13953,-0.0393 0.043,-0.0101 0.0759,-0.0207 0.15141,-0.0207 0.0755,0 0.10838,0.0105 0.15141,0.0207 0.043,0.0101 0.0884,0.0233 0.13953,0.0393 0.10232,0.0319 0.22603,0.0756 0.36638,0.12816 0.2807,0.10504 0.62576,0.24482 0.9617,0.38861 0.33595,0.14379 0.66256,0.29119 0.90796,0.41134 0.12024,0.0589 0.22047,0.11072 0.29455,0.154 -0.002,-0.38625 -0.0109,-0.74812 -0.0289,-0.80357 -0.0394,-0.1214 -0.96901,-1.40033 -1.07228,-1.47536 -0.10328,-0.075 -1.60661,-0.56327 -1.73426,-0.56327 z m 0.0139,1.83555 c -0.002,3.3e-4 -0.002,1.1e-4 -0.004,5.1e-4 -0.0247,0.006 -0.0622,0.0165 -0.10697,0.0305 -0.0895,0.0279 -0.20839,0.0699 -0.34469,0.12092 -0.27259,0.102 -0.61452,0.24074 -0.94671,0.38293 -0.33218,0.14218 -0.65569,0.28794 -0.894,0.40462 -0.11915,0.0583 -0.21701,0.10949 -0.28215,0.1478 -0.0326,0.0191 -0.0567,0.0354 -0.0703,0.046 -9.9e-4,7.7e-4 -6.9e-4,3.6e-4 -0.002,0.002 8.1e-4,7.4e-4 5.1e-4,8.5e-4 0.002,0.002 0.0136,0.0106 0.0377,0.0268 0.0703,0.046 0.0651,0.0383 0.163,0.0894 0.28215,0.14779 0.23831,0.11667 0.56182,0.26245 0.894,0.40463 0.33219,0.14219 0.67412,0.28091 0.94671,0.38292 0.1363,0.051 0.25519,0.093 0.34469,0.12092 0.0447,0.0139 0.0823,0.0242 0.10697,0.03 0.002,4e-4 0.002,1.8e-4 0.004,5.1e-4 0.002,-3.3e-4 0.002,-1.1e-4 0.004,-5.1e-4 0.0247,-0.006 0.0622,-0.016 0.10697,-0.03 0.0895,-0.0279 0.2089,-0.0699 0.3452,-0.12092 0.27259,-0.10201 0.61401,-0.24073 0.94619,-0.38292 0.33219,-0.14218 0.65621,-0.28796 0.89452,-0.40463 0.11916,-0.0583 0.21701,-0.10949 0.28215,-0.14779 0.0326,-0.0192 0.0567,-0.0354 0.0703,-0.046 9.9e-4,-7.7e-4 6.9e-4,-8.8e-4 0.002,-0.002 -8.1e-4,-7.4e-4 -5.1e-4,-3.3e-4 -0.002,-0.002 -0.0136,-0.0106 -0.0377,-0.0268 -0.0703,-0.046 -0.0651,-0.0383 -0.16299,-0.0895 -0.28215,-0.1478 -0.23831,-0.11668 -0.56233,-0.26244 -0.89452,-0.40462 -0.33218,-0.14219 -0.6736,-0.28093 -0.94619,-0.38293 l -0.12196,0.1757 -0.46354,0.002 v 0.50282 h 0.0403 v -0.43925 c 0.17356,-0.0592 0.31941,-0.0336 0.43718,0.0765 -0.12862,-0.05 -0.25042,-0.0559 -0.36587,-0.0176 v 0.11989 c 0.0728,-0.0309 0.14163,-0.018 0.20671,0.0387 -0.0845,-0.0258 -0.15324,0.002 -0.20671,0.0816 l -0.0579,0.14005 0.35656,0.001 c 0.11003,0.002 0.20855,-0.04 0.29611,-0.12506 l -0.14625,0.21136 -0.001,0.73949 -0.44545,0.47801 -0.31626,-0.20309 c -0.0697,-0.0334 -0.16024,-0.0175 -0.27181,0.0475 0.16348,-0.22184 0.29071,-0.32009 0.38137,-0.29507 l 0.31626,0.2129 0.0662,-0.0615 v -0.82321 h -0.4093 c -0.0937,-0.006 -0.19642,0.003 -0.30799,0.0253 0.0783,-0.0884 0.13411,-0.13464 0.16743,-0.13797 v -0.3266 c -0.0387,0.0134 -0.0974,-0.0263 -0.1757,-0.11885 0.0697,0.0283 0.12818,0.03 0.17467,0.004 l 0.3824,-0.3669 0.30696,0.001 c -0.0703,-0.025 -0.13517,-0.0472 -0.18758,-0.0636 -0.0447,-0.0139 -0.0823,-0.0247 -0.10697,-0.0305 -0.002,-4e-4 -0.002,-1.8e-4 -0.004,-5.1e-4 z m 0.12247,1.05213 v 0.75551 l -0.0708,0.0589 v -0.19017 c -0.062,-0.0425 -0.12379,-0.0473 -0.185,-0.0139 0.0333,-0.0726 0.0951,-0.11036 0.185,-0.11369 l 0.001,-0.41651 z m -2.97139,0.19327 c 0.002,0.37775 0.0113,0.72696 0.0289,0.78134 0.0394,0.12141 0.9685,1.40034 1.07177,1.47537 0.10328,0.075 1.60661,0.56327 1.73427,0.56327 0.12765,0 1.63098,-0.48824 1.73426,-0.56327 0.10327,-0.075 1.03284,-1.35396 1.07228,-1.47537 0.0174,-0.0536 0.0264,-0.39354 0.0284,-0.76481 -0.0741,0.0433 -0.17398,0.0952 -0.29404,0.154 -0.24539,0.12014 -0.572,0.26755 -0.90795,0.41134 -0.33595,0.1438 -0.681,0.28358 -0.9617,0.38861 -0.14035,0.0525 -0.26406,0.0963 -0.36639,0.12816 -0.0512,0.0159 -0.0965,0.0296 -0.13952,0.0398 -0.043,0.0101 -0.0759,0.0202 -0.15141,0.0202 -0.0755,0 -0.10839,-0.01 -0.15142,-0.0202 -0.043,-0.0101 -0.0884,-0.0238 -0.13952,-0.0398 -0.10233,-0.0319 -0.22604,-0.0756 -0.36639,-0.12816 -0.2807,-0.10503 -0.62523,-0.24481 -0.96118,-0.38861 -0.33595,-0.14379 -0.66256,-0.2912 -0.90796,-0.41134 -0.12269,-0.0601 -0.22524,-0.1133 -0.29972,-0.1571 -0.008,-0.005 -0.0151,-0.009 -0.0227,-0.0134 z" />
  </g>
</svg>
