<?xml version="1.0" encoding="UTF-8" standalone="no"?>
<!-- Created with Inkscape (http://www.inkscape.org/) -->

<svg
   width="5.7152195mm"
   height="6.4037595mm"
   viewBox="0 0 5.7152195 6.4037595"
   version="1.1"
   id="svg1"
   xmlns="http://www.w3.org/2000/svg"
   xmlns:svg="http://www.w3.org/2000/svg">
  <defs
     id="defs1">
    <linearGradient
       id="swatch4">
      <stop
         style="stop-color:#000000;stop-opacity:1;"
         offset="0"
         id="stop4" />
    </linearGradient>
  </defs>
  <g
     id="layer3"
     transform="translate(-224.88576,-173.79738)">
    <path
       id="path63-83-1-6"
       style="fill:#ffffff;fill-opacity:1;stroke:none;stroke-width:0.174705;stroke-dasharray:none;stroke-opacity:1"
       d="m 227.74335,173.7974 c -0.13939,0 -2.05539,1.09551 -2.63084,1.48621 0.0438,-0.01 0.0919,-0.0191 0.14986,-0.0274 0.16072,-0.0229 0.37713,-0.0414 0.63304,-0.0563 0.5118,-0.0298 1.17974,-0.0439 1.84794,-0.0439 0.66821,0 1.33667,0.0141 1.84847,0.0439 0.2559,0.0149 0.4718,0.0333 0.63252,0.0563 0.0582,0.008 0.1065,0.0179 0.15038,0.0279 -0.57486,-0.3904 -2.49193,-1.48673 -2.63137,-1.48673 z m 0,1.56631 c -0.66512,0 -1.33026,0.0145 -1.83554,0.0439 -0.25264,0.0147 -0.46581,0.0338 -0.61599,0.0553 -0.0751,0.0107 -0.13438,0.0219 -0.17208,0.0326 -0.003,8.2e-4 -0.003,5.5e-4 -0.006,0.002 6.7e-4,0.003 -3.1e-4,0.003 5.2e-4,0.007 0.01,0.038 0.0296,0.095 0.0579,0.16537 0.0565,0.14078 0.14635,0.33453 0.25993,0.56068 0.22717,0.4523 0.54801,1.0363 0.88057,1.61231 0.33256,0.57601 0.67738,1.14447 0.9555,1.56735 0.13906,0.21144 0.26135,0.38658 0.35501,0.50591 0.0468,0.0597 0.0866,0.10603 0.11472,0.13332 0.002,0.002 0.003,0.002 0.005,0.004 0.002,-0.002 0.003,-0.002 0.005,-0.004 0.0281,-0.0273 0.0689,-0.0737 0.11576,-0.13332 0.0937,-0.11933 0.21596,-0.29447 0.35502,-0.50591 0.27811,-0.42288 0.62345,-0.99134 0.95601,-1.56735 0.33256,-0.57601 0.65185,-1.16001 0.87902,-1.61231 0.11358,-0.22615 0.20497,-0.4199 0.26148,-0.56068 0.0283,-0.0704 0.0478,-0.12736 0.0574,-0.16537 8.6e-4,-0.003 3.8e-4,-0.004 0.001,-0.007 -0.003,-8.2e-4 -0.003,-5.5e-4 -0.006,-0.002 -0.0377,-0.0107 -0.097,-0.0219 -0.17208,-0.0326 -0.15018,-0.0215 -0.36334,-0.0406 -0.61599,-0.0553 -0.50528,-0.0294 -1.17094,-0.0439 -1.83606,-0.0439 z m -2.82308,0.21549 c -0.0537,0.65032 -0.0446,2.94002 0.0264,3.06286 0.0715,0.12378 2.07752,1.29183 2.65049,1.55908 -0.001,-0.001 -0.002,-0.002 -0.003,-0.003 -0.0399,-0.0387 -0.0837,-0.0891 -0.13385,-0.15296 -0.10024,-0.12771 -0.22501,-0.30621 -0.36587,-0.52038 -0.2817,-0.42833 -0.62811,-0.999 -0.96221,-1.57768 -0.3341,-0.57868 -0.65512,-1.16451 -0.88522,-1.62264 -0.11505,-0.22906 -0.2072,-0.42657 -0.26768,-0.57723 -0.0261,-0.065 -0.0452,-0.1192 -0.0589,-0.16795 z m 5.64617,0.002 c -0.0137,0.0484 -0.0321,0.10208 -0.0579,0.1664 -0.0605,0.15067 -0.15316,0.34815 -0.2682,0.57722 -0.2301,0.45813 -0.5506,1.04395 -0.8847,1.62264 -0.3341,0.57867 -0.68103,1.14934 -0.96273,1.57768 -0.14086,0.21416 -0.26512,0.39268 -0.36536,0.52039 -0.0501,0.0639 -0.0944,0.11421 -0.13436,0.15296 0.57725,-0.27012 2.57606,-1.43346 2.64739,-1.55701 0.0708,-0.12267 0.0793,-2.40641 0.0258,-3.06028 z m -2.77864,0.38499 0.38137,0.31522 c 0.0511,0.0334 0.12148,0.0343 0.21136,0.003 -0.0875,0.0717 -0.15428,0.10525 -0.19999,0.10025 v 0.9772 c 0.0442,0.003 0.11036,0.0384 0.19792,0.10594 -0.0798,-0.0284 -0.14498,-0.0295 -0.19534,-0.004 l -0.41858,0.56792 c -0.0573,-0.0817 -0.12457,-0.13314 -0.20205,-0.15399 -0.0775,-0.0208 -0.15506,-0.001 -0.23255,0.0579 0.0984,-0.19682 0.19461,-0.29762 0.28836,-0.30179 0.0937,-0.005 0.17469,0.0346 0.24288,0.11885 l 0.0801,-0.11265 v -1.19838 l -0.2651,-0.22479 -0.10542,0.0785 v 0.79685 c 0.0566,0.0117 0.10828,0.0613 0.15554,0.14883 l 0.20206,-0.29404 -0.001,0.14159 -0.26252,0.40514 c -0.0566,-0.10174 -0.1419,-0.16312 -0.2558,-0.18396 -0.11389,-0.0209 -0.20777,-10e-4 -0.28215,0.0579 0.0442,-0.12843 0.11787,-0.19681 0.22169,-0.20515 v -0.62839 c -0.0922,0.0134 -0.17314,-0.0188 -0.24288,-0.0971 0.093,0.0108 0.17418,-0.0118 0.24392,-0.0677 z m -0.10439,0.31936 v 0.83406 l -0.0651,-0.0584 v -0.71727 z" />
  </g>
</svg>
