<?xml version="1.0" encoding="UTF-8" standalone="no"?>
<!-- Created with Inkscape (http://www.inkscape.org/) -->

<svg
   width="6.2030449mm"
   height="6.4537725mm"
   viewBox="0 0 6.2030449 6.4537725"
   version="1.1"
   id="svg1"
   xmlns="http://www.w3.org/2000/svg"
   xmlns:svg="http://www.w3.org/2000/svg">
  <defs
     id="defs1">
    <linearGradient
       id="swatch4">
      <stop
         style="stop-color:#000000;stop-opacity:1;"
         offset="0"
         id="stop4" />
    </linearGradient>
  </defs>
  <g
     id="layer3"
     transform="translate(-208.92883,-142.71761)">
    <path
       id="path43-16-3-9"
       style="fill:#ffffff;fill-opacity:1;stroke:none;stroke-width:0.194062;stroke-dasharray:none;stroke-opacity:1"
       d="m 212.11876,142.71764 v 1.24592 c 0.0203,0.0104 0.0416,0.0223 0.0677,0.0377 0.0609,0.036 0.1392,0.086 0.22945,0.14625 0.1805,0.1205 0.40927,0.28152 0.63562,0.44597 0.22634,0.16445 0.44974,0.33219 0.62012,0.46663 0.0852,0.0672 0.1578,0.12582 0.21084,0.1726 0.0225,0.0199 0.0395,0.0367 0.0553,0.0527 l 1.12913,-0.42116 c -0.18567,-0.29451 -1.06034,-1.49538 -1.13379,-1.54874 -0.0726,-0.0527 -1.45547,-0.50444 -1.81435,-0.5979 z m -0.19378,0.004 c -0.39446,0.1067 -1.72584,0.54272 -1.79679,0.59427 -0.0713,0.0518 -0.9037,1.19231 -1.12241,1.52859 l 1.12034,0.43874 c 0.0155,-0.0154 0.0318,-0.0313 0.0532,-0.0501 0.053,-0.0468 0.12462,-0.10538 0.20981,-0.1726 0.17038,-0.13443 0.39377,-0.3022 0.62012,-0.46664 0.22634,-0.16445 0.45511,-0.32547 0.63562,-0.44596 0.0902,-0.0602 0.16857,-0.11026 0.22944,-0.14625 0.0195,-0.0115 0.0345,-0.0191 0.0506,-0.0279 z m 0.10542,1.38906 c -7.2e-4,2.6e-4 -10e-4,1.1e-4 -0.002,5.1e-4 -0.0154,0.007 -0.0391,0.0206 -0.0672,0.0372 -0.0561,0.0332 -0.13242,0.0818 -0.22118,0.14108 -0.17751,0.11849 -0.405,0.27892 -0.62993,0.44235 -0.22494,0.16342 -0.4474,0.3303 -0.61495,0.4625 -0.0838,0.0661 -0.15372,0.12331 -0.20257,0.1664 -0.0244,0.0215 -0.0439,0.0398 -0.0558,0.0522 -7.7e-4,9.1e-4 -0.001,5.5e-4 -0.002,0.002 7e-5,0.001 -2.2e-4,0.002 0,0.004 0.002,0.017 0.007,0.0426 0.0139,0.0744 0.0142,0.0636 0.0372,0.15101 0.0661,0.25373 0.0578,0.20544 0.14042,0.47146 0.22634,0.73588 0.0859,0.26443 0.17563,0.5279 0.2496,0.72812 0.037,0.1001 0.0697,0.18465 0.0956,0.24443 0.0129,0.0299 0.0245,0.0536 0.0326,0.0687 5.2e-4,9.1e-4 10e-4,9.7e-4 0.002,0.002 0.001,3.7e-4 0.002,0.001 0.003,0.001 0.0169,0.003 0.043,0.007 0.0754,0.01 0.0649,0.006 0.15485,0.0113 0.26148,0.0155 0.21326,0.008 0.49143,0.0124 0.76946,0.0124 0.27803,0 0.5562,-0.004 0.76946,-0.0124 0.10663,-0.004 0.19767,-0.009 0.26252,-0.0155 0.0324,-0.003 0.0586,-0.007 0.0755,-0.01 0.001,-2.1e-4 0.001,-0.001 0.003,-0.001 5.9e-4,-9.1e-4 9.5e-4,-9.7e-4 0.002,-0.002 0.008,-0.0151 0.0191,-0.0389 0.032,-0.0687 0.0259,-0.0598 0.0586,-0.14433 0.0956,-0.24443 0.074,-0.2002 0.16471,-0.46369 0.25063,-0.72812 0.0859,-0.26442 0.16747,-0.53044 0.22531,-0.73588 0.0289,-0.10272 0.052,-0.19016 0.0661,-0.25373 0.007,-0.0318 0.0116,-0.0574 0.0139,-0.0744 2.2e-4,-0.001 -7e-5,-0.002 0,-0.004 -6.9e-4,-9.1e-4 -7.3e-4,-5.5e-4 -0.002,-0.002 -0.0119,-0.0124 -0.0303,-0.0306 -0.0548,-0.0522 -0.0488,-0.0431 -0.11983,-0.1003 -0.20361,-0.1664 -0.16757,-0.13221 -0.39001,-0.29908 -0.61495,-0.4625 -0.22493,-0.16342 -0.45242,-0.32385 -0.62993,-0.44235 -0.0888,-0.0592 -0.1651,-0.10793 -0.22118,-0.14108 -0.028,-0.0166 -0.0512,-0.0297 -0.0667,-0.0372 -8.8e-4,-4e-4 -10e-4,-2.6e-4 -0.002,-5.1e-4 z m -3.04013,0.75964 c -0.0162,0.026 -0.0356,0.056 -0.0382,0.0641 -0.002,0.005 -0.003,0.0311 -0.004,0.0444 z m 3.55483,0.0331 c -0.16581,0.23519 -0.33003,0.36494 -0.49196,0.38913 -0.16117,0.0233 -0.28736,-0.0126 -0.37879,-0.10852 l -0.17415,0.0786 0.27647,-0.3514 c 0.055,0.0801 0.15405,0.12558 0.29662,0.13642 0.14257,0.01 0.2998,-0.0383 0.47181,-0.14418 z m -0.015,0.0403 c -0.12778,0.29082 -0.22956,0.61585 -0.3054,0.97462 0.10666,0.003 0.22326,-0.0244 0.35036,-0.0816 -0.12736,0.13296 -0.25291,0.20468 -0.37723,0.21497 -0.0362,0.19112 -0.0652,0.39147 -0.0873,0.601 l 0.1974,0.0863 c 0.0496,-0.0567 0.11139,-0.0834 0.185,-0.0801 -0.0713,0.0367 -0.16748,0.14471 -0.28835,0.32401 l -0.30128,-0.10542 c -0.10847,0.0993 -0.24424,0.12983 -0.40772,0.0915 0.16736,0.004 0.2889,-0.0613 0.36483,-0.19637 0.0616,-0.27606 0.12202,-0.51912 0.18087,-0.7307 -0.055,-0.0124 -0.10207,-0.0348 -0.14108,-0.0677 l -0.13384,0.0465 0.21394,-0.20877 c 0.0238,0.0364 0.0584,0.0633 0.10335,0.0811 0.12179,-0.41017 0.23738,-0.67897 0.34727,-0.80667 z m -3.58686,0.0832 c -0.0218,0.37474 -0.0189,1.82281 0.009,1.9079 0.0274,0.0844 0.86551,1.24236 1.11105,1.54409 l 0.6997,-0.88677 c -0.0104,-0.0199 -0.0211,-0.0411 -0.0331,-0.0687 -0.0281,-0.0649 -0.0611,-0.15193 -0.0987,-0.25373 -0.0752,-0.20358 -0.16573,-0.46823 -0.25218,-0.73432 -0.0865,-0.26608 -0.16908,-0.53318 -0.2279,-0.74208 -0.0294,-0.10445 -0.0528,-0.19401 -0.0682,-0.26303 -0.005,-0.0239 -0.008,-0.0423 -0.0119,-0.0615 z m 6.17585,0.0248 -1.13016,0.42168 c -0.003,0.0181 -0.006,0.0343 -0.0109,0.0563 -0.0154,0.069 -0.0388,0.1586 -0.0682,0.26304 -0.0588,0.2089 -0.1404,0.47598 -0.22686,0.74207 -0.0865,0.26608 -0.17698,0.53074 -0.25218,0.73432 -0.0376,0.10179 -0.0716,0.18885 -0.0997,0.25373 -0.0135,0.0312 -0.0257,0.0559 -0.0372,0.0775 l 0.70022,0.88263 c 0.23773,-0.29016 1.08701,-1.46364 1.11466,-1.54874 0.0269,-0.0828 0.0303,-1.46326 0.0103,-1.88257 z m -3.11453,1.05885 -0.18707,0.65835 c -0.0953,-0.0517 -0.20599,-0.0178 -0.33228,0.10232 0.0682,-0.15679 0.17137,-0.23126 0.31006,-0.22376 l 0.0501,-0.14521 c -0.0744,-0.035 -0.16335,-0.0164 -0.26717,0.0553 0.0527,-0.10258 0.15432,-0.15806 0.30541,-0.1664 l 0.0734,-0.23048 z m -1.07849,1.58905 -0.70538,0.89348 c 0.36681,0.14135 1.72116,0.57826 1.8097,0.57826 0.0878,0 1.4249,-0.43077 1.80454,-0.57567 l -0.70951,-0.89504 c -0.0157,0.002 -0.0289,0.004 -0.0475,0.006 -0.0704,0.007 -0.16236,0.0122 -0.27079,0.0165 -0.21685,0.009 -0.49692,0.0134 -0.77669,0.0134 -0.27978,0 -0.55881,-0.005 -0.77567,-0.0134 -0.10842,-0.004 -0.20142,-0.01 -0.27181,-0.0165 -0.0224,-0.002 -0.0388,-0.005 -0.0568,-0.007 z m 3.01325,0.84594 -0.0134,0.0109 c 0.001,-4.5e-4 0.006,-0.003 0.007,-0.003 9.1e-4,-7.6e-4 0.005,-0.005 0.007,-0.008 z" />
  </g>
</svg>
