<?xml version="1.0" encoding="UTF-8" standalone="no"?>
<!-- Created with Inkscape (http://www.inkscape.org/) -->

<svg
   width="5.7250381mm"
   height="5.6291461mm"
   viewBox="0 0 5.7250381 5.6291461"
   version="1.1"
   id="svg1"
   xmlns="http://www.w3.org/2000/svg"
   xmlns:svg="http://www.w3.org/2000/svg">
  <defs
     id="defs1">
    <linearGradient
       id="swatch4">
      <stop
         style="stop-color:#000000;stop-opacity:1;"
         offset="0"
         id="stop4" />
    </linearGradient>
  </defs>
  <g
     id="layer3"
     transform="translate(-193.64195,-181.20675)">
    <path
       id="path24-11-10-5-8"
       style="display:inline;fill:#ffffff;fill-opacity:1;stroke:none;stroke-width:0.200527;stroke-dasharray:none;stroke-opacity:1"
       d="m 196.50421,181.20676 c -1.16546,0 -2.32854,0.0383 -2.64066,0.11421 l 2.6665,1.89446 2.59261,-1.90014 c -0.34405,-0.0724 -1.48079,-0.10853 -2.61845,-0.10853 z m 2.75643,0.2558 -2.56936,1.88361 c 0.0366,0.0272 0.0754,0.0602 0.11989,0.1018 0.0994,0.093 0.22202,0.22296 0.36122,0.37827 0.27839,0.31061 0.62086,0.72419 0.95085,1.1436 0.32999,0.4194 0.64697,0.84394 0.87436,1.17616 0.1137,0.16612 0.2046,0.30943 0.26458,0.41909 0.005,0.009 0.008,0.0163 0.0129,0.0248 0.12719,-0.88983 0.12242,-4.44123 -0.0145,-5.12734 z m -5.51595,0.0202 c -0.13548,0.74634 -0.1371,4.35136 -0.004,5.15162 0.0105,-0.0216 0.0224,-0.0442 0.0362,-0.0693 0.06,-0.10966 0.15089,-0.25297 0.26459,-0.41909 0.22739,-0.33222 0.54437,-0.75676 0.87436,-1.17616 0.32999,-0.41941 0.67297,-0.83299 0.95136,-1.1436 0.1392,-0.15531 0.26128,-0.28532 0.36071,-0.37827 0.0479,-0.0448 0.0907,-0.0803 0.1297,-0.10852 z m 2.77451,1.98075 c -0.0268,0.0195 -0.0631,0.0504 -0.10697,0.0915 -0.092,0.086 -0.21267,0.21229 -0.34985,0.36535 -0.27436,0.30611 -0.61536,0.71814 -0.94361,1.13534 -0.32826,0.4172 -0.64407,0.83996 -0.86817,1.16737 -0.11204,0.16371 -0.20079,0.30415 -0.25631,0.40566 -0.0265,0.0485 -0.0436,0.0864 -0.0532,0.11317 0.0365,0.007 0.0904,0.0154 0.1602,0.0227 0.14755,0.0155 0.35693,0.0286 0.60616,0.0393 0.49846,0.0213 1.15527,0.032 1.81178,0.032 0.65651,0 1.31383,-0.0108 1.81229,-0.032 0.24923,-0.0106 0.45964,-0.0238 0.6072,-0.0393 0.0702,-0.007 0.12376,-0.0155 0.16019,-0.0227 -0.01,-0.0268 -0.0277,-0.0647 -0.0543,-0.11317 -0.0555,-0.10151 -0.14426,-0.24195 -0.25631,-0.40566 -0.2241,-0.32741 -0.54043,-0.75017 -0.86868,-1.16737 -0.32826,-0.4172 -0.66925,-0.82923 -0.94361,-1.13534 -0.13718,-0.15306 -0.2573,-0.27932 -0.34934,-0.36535 -0.0439,-0.0411 -0.0807,-0.072 -0.10748,-0.0915 z m -0.0103,1.05834 0.50488,0.001 -0.16175,0.23306 -0.46354,0.001 v 0.50281 h 0.0403 v -0.43874 c 0.17356,-0.0592 0.31941,-0.0341 0.43719,0.076 -0.12862,-0.05 -0.25043,-0.0559 -0.36587,-0.0176 v 0.12041 c 0.0728,-0.0309 0.14162,-0.018 0.2067,0.0387 -0.0845,-0.0258 -0.15324,0.001 -0.2067,0.0811 l -0.0579,0.14005 0.35656,0.002 c 0.11003,0.002 0.20856,-0.04 0.29611,-0.12506 l -0.14624,0.21136 -0.002,0.73897 -0.44494,0.47801 -0.31626,-0.20257 c -0.0697,-0.0334 -0.16024,-0.0175 -0.27182,0.0475 0.16349,-0.22184 0.29072,-0.32009 0.38138,-0.29507 l 0.31574,0.21239 0.0667,-0.061 v -0.82321 h -0.40928 c -0.0937,-0.006 -0.19642,0.002 -0.30799,0.0248 0.0783,-0.0884 0.13411,-0.13413 0.16743,-0.13746 v -0.3266 c -0.0387,0.0134 -0.0974,-0.0263 -0.1757,-0.11885 0.0697,0.0283 0.12818,0.0295 0.17467,0.004 z m 0.13177,0.95808 v 0.75603 l -0.0713,0.0584 v -0.19017 c -0.062,-0.0425 -0.12327,-0.0468 -0.18448,-0.0134 0.0333,-0.0726 0.0946,-0.11086 0.18448,-0.1142 l 0.002,-0.41651 z" />
  </g>
</svg>
