<?xml version="1.0" encoding="UTF-8" standalone="no"?>
<!-- Created with Inkscape (http://www.inkscape.org/) -->

<svg
   width="5.628468mm"
   height="6.2502642mm"
   viewBox="0 0 5.628468 6.2502642"
   version="1.1"
   id="svg1"
   xmlns="http://www.w3.org/2000/svg"
   xmlns:svg="http://www.w3.org/2000/svg">
  <defs
     id="defs1">
    <linearGradient
       id="swatch4">
      <stop
         style="stop-color:#000000;stop-opacity:1;"
         offset="0"
         id="stop4" />
    </linearGradient>
  </defs>
  <g
     id="layer3"
     transform="translate(-170.46798,-120.92722)">
    <path
       id="path210-3"
       style="fill:#ffffff;fill-opacity:1;stroke:none;stroke-width:0.200527;stroke-dasharray:none;stroke-opacity:1"
       d="m 173.28289,120.93809 c -0.003,0.002 -0.004,0.003 -0.007,0.006 -0.028,0.0271 -0.0678,0.0727 -0.1142,0.13177 -0.0928,0.11817 -0.2138,0.29204 -0.3514,0.50127 -0.27521,0.41844 -0.61716,0.98089 -0.9462,1.5508 -0.32904,0.56992 -0.64545,1.14718 -0.87023,1.59474 -0.11239,0.22378 -0.20191,0.41559 -0.25787,0.55501 -0.028,0.0697 -0.0473,0.12704 -0.0568,0.16484 -0.001,0.004 -7.6e-4,0.005 -0.002,0.008 0.004,0.001 0.004,0.002 0.008,0.003 0.0375,0.0106 0.0967,0.0225 0.17105,0.0331 0.14872,0.0212 0.35979,0.0392 0.60978,0.0537 0.49999,0.0291 1.15835,0.0439 1.81643,0.0439 0.65808,0 1.31644,-0.0148 1.81643,-0.0439 0.24999,-0.0146 0.46055,-0.0325 0.60926,-0.0537 0.0744,-0.0106 0.13354,-0.0224 0.17105,-0.0331 0.004,-10e-4 0.005,-0.002 0.008,-0.003 -7.9e-4,-0.004 -5.1e-4,-0.004 -0.002,-0.008 -0.01,-0.0378 -0.0294,-0.0951 -0.0574,-0.16484 -0.056,-0.13942 -0.14496,-0.33123 -0.25735,-0.55501 -0.22479,-0.44756 -0.54119,-1.02482 -0.87023,-1.59474 -0.32904,-0.56991 -0.67151,-1.13236 -0.94671,-1.5508 -0.13761,-0.20923 -0.25813,-0.3831 -0.35089,-0.50127 -0.0464,-0.0591 -0.0862,-0.10462 -0.1142,-0.13177 -0.003,-0.003 -0.004,-0.003 -0.007,-0.006 z m -0.21704,1.7477 c 0.0434,0.10174 0.11347,0.16809 0.21032,0.19895 0.0969,0.03 0.23236,-0.0316 0.4067,-0.185 -0.1232,0.25019 -0.24293,0.38899 -0.35916,0.41651 -0.11544,0.0275 -0.22871,-0.0307 -0.33951,-0.17415 l -0.13694,0.0713 z m 0.64234,0.0201 v 0.90588 l -0.58085,0.5178 v 0.41031 l 0.5333,-0.002 c 0.0728,-0.17347 0.18119,-0.28757 0.32453,-0.34261 -0.14644,0.0901 -0.2504,0.28048 -0.31161,0.57154 l -0.74259,-0.002 c -0.13327,0.007 -0.24214,-0.0163 -0.32659,-0.0713 0.15031,0.004 0.24496,-0.0364 0.2837,-0.12144 v -0.38396 l 0.5948,-0.53433 v -0.60565 c 0.0744,-0.05 0.14937,-0.16414 0.22531,-0.34262 z" />
    <path
       id="path209-2"
       style="fill:#ffffff;fill-opacity:1;stroke:none;stroke-width:0.200527;stroke-dasharray:none;stroke-opacity:1"
       d="m 176.0667,125.34712 c 0.0476,-0.71383 0.0383,-2.82415 -0.0295,-2.94142 -0.0666,-0.11531 -1.82587,-1.14267 -2.49545,-1.47743 0.007,0.008 0.0127,0.015 0.0196,0.0238 0.0991,0.12624 0.22188,0.30233 0.36121,0.51418 0.27866,0.42371 0.62188,0.98866 0.9524,1.56115 0.33052,0.57248 0.64779,1.15189 0.8754,1.60507 0.1138,0.22659 0.20532,0.42157 0.2651,0.5705 0.022,0.0549 0.038,0.10126 0.0512,0.14418 z" />
    <path
       id="path208-4"
       style="fill:#ffffff;fill-opacity:1;stroke:none;stroke-width:0.200527;stroke-dasharray:none;stroke-opacity:1"
       d="m 170.56213,125.62101 c 0.30342,0.25318 2.56945,1.55649 2.72024,1.55649 0.15048,0 2.40734,-1.29849 2.71818,-1.55546 -0.0206,0.01 -0.0421,0.0175 -0.0661,0.0243 -0.0527,0.015 -0.11797,0.0274 -0.19741,0.0388 -0.15887,0.0227 -0.37266,0.0411 -0.6258,0.0558 -0.50627,0.0295 -1.16726,0.0439 -1.82831,0.0439 -0.66105,0 -1.32204,-0.0144 -1.82831,-0.0439 -0.25314,-0.0147 -0.46693,-0.0331 -0.6258,-0.0558 -0.0794,-0.0113 -0.14519,-0.0238 -0.19793,-0.0388 -0.0252,-0.007 -0.0472,-0.0148 -0.0687,-0.0253 z" />
    <path
       id="path207-1"
       style="fill:#ffffff;fill-opacity:1;stroke:none;stroke-width:0.200527;stroke-dasharray:none;stroke-opacity:1"
       d="m 173.02502,120.92724 c -0.66783,0.33354 -2.43138,1.36302 -2.49803,1.47846 -0.0678,0.11746 -0.0768,2.23525 -0.0289,2.94556 0.0133,-0.0439 0.0295,-0.0917 0.0522,-0.14832 0.0598,-0.14893 0.15078,-0.34391 0.26458,-0.5705 0.22761,-0.45318 0.54539,-1.03259 0.87592,-1.60507 0.33052,-0.57249 0.67373,-1.13744 0.9524,-1.56115 0.13933,-0.21185 0.26212,-0.38794 0.36121,-0.51418 0.007,-0.009 0.0137,-0.0161 0.0207,-0.0248 z" />
  </g>
</svg>
