<?xml version="1.0" encoding="UTF-8" standalone="no"?>
<!-- Created with Inkscape (http://www.inkscape.org/) -->

<svg
   width="5.7147675mm"
   height="6.4037595mm"
   viewBox="0 0 5.7147675 6.4037595"
   version="1.1"
   id="svg1"
   xmlns="http://www.w3.org/2000/svg"
   xmlns:svg="http://www.w3.org/2000/svg">
  <defs
     id="defs1">
    <linearGradient
       id="swatch4">
      <stop
         style="stop-color:#000000;stop-opacity:1;"
         offset="0"
         id="stop4" />
    </linearGradient>
  </defs>
  <g
     id="layer3"
     transform="translate(-232.38067,-173.801)">
    <path
       id="path63-83-29-1"
       style="fill:#ffffff;fill-opacity:1;stroke:none;stroke-width:0.174705;stroke-dasharray:none;stroke-opacity:1"
       d="m 235.23824,173.80102 c -0.1394,0 -2.0554,1.09551 -2.63085,1.48621 0.0438,-0.01 0.0919,-0.0191 0.14986,-0.0274 0.16072,-0.0229 0.37714,-0.0414 0.63304,-0.0563 0.5118,-0.0298 1.17974,-0.0434 1.84795,-0.0434 0.6682,0 1.33666,0.0136 1.84846,0.0434 0.2559,0.0149 0.4718,0.0333 0.63252,0.0563 0.0582,0.008 0.10651,0.0179 0.15038,0.0279 -0.57486,-0.3904 -2.49193,-1.48673 -2.63136,-1.48673 z m 0,1.56631 c -0.66512,0 -1.33027,0.0145 -1.83555,0.0439 -0.25264,0.0147 -0.46581,0.0338 -0.61598,0.0553 -0.0751,0.0107 -0.13439,0.0219 -0.17209,0.0326 -0.003,8.2e-4 -0.003,0.001 -0.006,0.002 6.7e-4,0.003 -3.1e-4,0.003 5.2e-4,0.007 0.01,0.038 0.0296,0.095 0.0579,0.16537 0.0565,0.14078 0.14635,0.33454 0.25993,0.56069 0.22717,0.4523 0.54801,1.03629 0.88057,1.6123 0.33256,0.57601 0.67738,1.14447 0.9555,1.56735 0.13906,0.21144 0.26135,0.38658 0.35501,0.50591 0.0468,0.0597 0.0866,0.10604 0.11473,0.13333 0.002,0.002 0.003,0.002 0.005,0.004 0.002,-0.002 0.003,-0.002 0.005,-0.004 0.0281,-0.0273 0.0689,-0.0737 0.11575,-0.13333 0.0937,-0.11933 0.21596,-0.29447 0.35502,-0.50591 0.27811,-0.42288 0.62345,-0.99134 0.95601,-1.56735 0.33256,-0.57601 0.65185,-1.16 0.87902,-1.6123 0.11358,-0.22615 0.20497,-0.41991 0.26148,-0.56069 0.0283,-0.0704 0.0478,-0.12736 0.0574,-0.16537 8.6e-4,-0.003 3.8e-4,-0.004 0.001,-0.007 -0.003,-8.2e-4 -0.003,-10e-4 -0.006,-0.002 -0.0377,-0.0107 -0.097,-0.0219 -0.17208,-0.0326 -0.15018,-0.0215 -0.36334,-0.0406 -0.61598,-0.0553 -0.50529,-0.0294 -1.17095,-0.0439 -1.83607,-0.0439 z m -2.82309,0.21601 c -0.0536,0.65085 -0.0446,2.93953 0.0264,3.06234 0.0715,0.12378 2.07752,1.29183 2.65049,1.55908 -0.001,-0.001 -0.002,-0.002 -0.003,-0.003 -0.0399,-0.0387 -0.0837,-0.0891 -0.13384,-0.15297 -0.10025,-0.12771 -0.22502,-0.30621 -0.36587,-0.52038 -0.28171,-0.42833 -0.62812,-0.999 -0.96222,-1.57768 -0.3341,-0.57868 -0.65512,-1.16451 -0.88522,-1.62264 -0.11504,-0.22906 -0.2072,-0.42657 -0.26768,-0.57723 -0.0261,-0.065 -0.0452,-0.11919 -0.0589,-0.16794 z m 5.64617,0.002 c -0.0137,0.0484 -0.0321,0.10207 -0.0579,0.16639 -0.0605,0.15067 -0.15315,0.34816 -0.2682,0.57723 -0.2301,0.45813 -0.5506,1.04395 -0.8847,1.62264 -0.3341,0.57867 -0.68103,1.14934 -0.96273,1.57768 -0.14086,0.21416 -0.26511,0.39267 -0.36536,0.52038 -0.0501,0.0639 -0.0944,0.11422 -0.13435,0.15297 -9.1e-4,8.2e-4 -0.002,0.002 -0.003,0.002 0.57447,-0.26826 2.57854,-1.43486 2.64996,-1.55856 0.0708,-0.12269 0.0793,-2.40746 0.0258,-3.06079 z m -3.41891,0.37878 c 10e-4,0.13094 0.0838,0.20135 0.24649,0.21136 l -0.11058,0.14625 -0.001,1.38337 0.19792,0.0863 c 0.0496,-0.0567 0.11087,-0.0829 0.18448,-0.0796 -0.0713,0.0367 -0.16748,0.14471 -0.28835,0.32401 l -0.2775,-0.10542 c -0.0356,0.055 -0.11762,0.0856 -0.24547,0.0915 0.0961,-0.0459 0.16383,-0.1113 0.20257,-0.19637 l 0.001,-1.49862 c -0.0411,-0.007 -0.0731,-0.0255 -0.0956,-0.0563 l -0.19378,0.0698 z m 1.07177,0.003 c 0.004,0.0709 0.0584,0.13429 0.16381,0.19017 0.10615,0.0559 0.21813,0.047 0.3359,-0.0264 l -0.12661,0.14883 v 1.16685 l -0.22427,0.1971 v -0.66197 c 0.10072,-0.004 0.15089,-0.0508 0.15089,-0.14004 0,-0.0901 -0.0502,-0.13468 -0.15089,-0.13385 v -0.28525 c -0.12165,-0.0334 -0.22276,-0.10692 -0.30335,-0.22117 v 0.50539 c -0.10072,0.003 -0.15141,0.0489 -0.15141,0.13643 0,0.0867 0.0507,0.13245 0.15141,0.13746 v 0.71158 l 0.18346,0.12506 0.34416,-0.3328 -0.006,0.11782 -0.43822,0.44029 -0.3116,-0.19017 c -0.0356,-0.0167 -0.0869,-0.0176 -0.15348,-0.003 0.0643,-0.055 0.11241,-0.084 0.14417,-0.0873 v -1.35237 c -0.0364,0.0133 -0.0907,-0.0136 -0.16278,-0.0811 0.0643,0.0284 0.11759,0.0295 0.1602,0.004 z m -0.81494,0.27388 v 1.34204 l -0.0651,0.0589 v -1.31 z m 0.80718,0.2651 c 0.009,0 0.0172,0.002 0.0253,0.006 0.0163,0.008 0.0264,0.0211 0.031,0.0377 0.005,0.0158 0.005,0.0319 0,0.0486 -0.005,0.0167 -0.0183,0.0294 -0.0393,0.0377 v 0.18758 h 0.10231 c 0.008,-0.0225 0.0191,-0.0365 0.0346,-0.0424 0.0155,-0.006 0.0308,-0.006 0.0455,0 0.0155,0.005 0.0269,0.0161 0.0346,0.0336 0.008,0.0175 0.008,0.0356 0,0.0548 -0.007,0.0183 -0.0186,0.0301 -0.0357,0.0351 -0.017,0.005 -0.0336,0.004 -0.0491,-0.004 -0.0155,-0.008 -0.0253,-0.0232 -0.03,-0.0465 h -0.1018 l 5.2e-4,0.64182 c 0.0209,0.008 0.0344,0.021 0.0398,0.0377 0.005,0.0167 0.005,0.0334 0,0.0501 -0.005,0.0159 -0.0153,0.0278 -0.0315,0.0362 -0.0163,0.008 -0.0333,0.009 -0.0512,0.001 -0.017,-0.008 -0.0279,-0.0214 -0.0326,-0.0398 -0.005,-0.0183 -0.003,-0.036 0.004,-0.0527 0.007,-0.0167 0.0212,-0.0276 0.0429,-0.0326 l -5.1e-4,-0.64182 h -0.11111 c -0.005,0.0233 -0.0145,0.039 -0.03,0.0465 -0.0155,0.008 -0.032,0.009 -0.0491,0.004 -0.017,-0.005 -0.0295,-0.0168 -0.0372,-0.0351 -0.007,-0.0192 -0.007,-0.0373 0.001,-0.0548 0.008,-0.0175 0.0194,-0.0286 0.0341,-0.0336 0.0155,-0.006 0.031,-0.006 0.0465,0 0.0155,0.006 0.0269,0.0199 0.0346,0.0424 h 0.11059 V 176.636 c -0.0217,-0.005 -0.0364,-0.0159 -0.0434,-0.0326 -0.007,-0.0167 -0.008,-0.0344 -0.003,-0.0527 0.005,-0.0183 0.0155,-0.0312 0.0326,-0.0388 0.009,-0.004 0.0173,-0.006 0.0258,-0.006 z" />
  </g>
</svg>
